<?xml version="1.0" encoding="UTF-8" standalone="no"?><!DOCTYPE svg PUBLIC "-//W3C//DTD SVG 1.1//EN" "http://www.w3.org/Graphics/SVG/1.1/DTD/svg11.dtd"><svg width="100%" height="100%" viewBox="0 0 1042 1042" version="1.1" xmlns="http://www.w3.org/2000/svg" xmlns:xlink="http://www.w3.org/1999/xlink" xml:space="preserve" xmlns:serif="http://www.serif.com/" style="fill-rule:evenodd;clip-rule:evenodd;stroke-linejoin:round;stroke-miterlimit:2;"><rect id="Mesa-de-trabajo4" serif:id="Mesa de trabajo4" x="0" y="0" width="1042" height="1042" style="fill:none;"/><path d="M715.128,354.292c0,-96.549 0,-101.937 61.033,-107.266c3.327,0 6.036,-12.091 -0.687,-11.394c-21.423,2.669 -54.3,4.004 -82.456,4.004c-39.55,0 -70.405,-0.667 -99.228,-4.004c-6.703,-0.697 -2.679,11.394 -0.667,11.394c59.648,6.703 63.025,6.703 63.025,107.266l0,201.126c0,144.824 -21.453,199.144 -114.656,239.381c-2.012,0.667 -0.667,13.396 4.691,11.384c128.729,-50.266 168.946,-118.659 168.946,-250.765l0,-201.126Zm-278.193,0c0,-96.549 0,-101.937 60.973,-107.266c3.396,0 6.046,-12.091 -0.637,-11.394c-21.473,2.669 -54.34,4.004 -82.466,4.004c-39.58,0 -70.445,-0.667 -99.258,-4.004c-6.703,-0.697 -2.679,11.394 -0.667,11.394c59.678,6.703 63.015,6.703 63.015,107.266l0,201.126c0,144.824 -21.443,199.144 -114.626,239.381c-2.012,0.667 -0.687,13.396 4.691,11.384c128.729,-50.266 168.976,-118.659 168.976,-250.765l0,-201.126Z" style="fill:#dd1f26;fill-rule:nonzero;"/></svg>