<?xml version="1.0" encoding="UTF-8" standalone="no"?><!DOCTYPE svg PUBLIC "-//W3C//DTD SVG 1.1//EN" "http://www.w3.org/Graphics/SVG/1.1/DTD/svg11.dtd"><svg width="100%" height="100%" viewBox="0 0 2559 997" version="1.1" xmlns="http://www.w3.org/2000/svg" xmlns:xlink="http://www.w3.org/1999/xlink" xml:space="preserve" xmlns:serif="http://www.serif.com/" style="fill-rule:evenodd;clip-rule:evenodd;stroke-linejoin:round;stroke-miterlimit:2;"><rect id="Mesa-de-trabajo1" serif:id="Mesa de trabajo1" x="0" y="0" width="2559" height="997" style="fill:none;"/><clipPath id="_clip1"><rect x="0" y="0" width="2559" height="997"/></clipPath><g clip-path="url(#_clip1)"><rect x="-100.78" y="-69.113" width="2760.561" height="1135.225" style="fill:#dd1f26;"/><g><path d="M583.085,428.757c0,-40.392 0,-42.646 25.533,-44.875c1.392,0 2.525,-5.058 -0.288,-4.767c-8.962,1.117 -22.717,1.675 -34.496,1.675c-16.546,0 -29.454,-0.279 -41.513,-1.675c-2.804,-0.292 -1.121,4.767 -0.279,4.767c24.954,2.804 26.367,2.804 26.367,44.875l0,84.142c0,60.587 -8.975,83.312 -47.967,100.146c-0.842,0.279 -0.279,5.604 1.962,4.763c53.854,-21.029 70.679,-49.642 70.679,-104.908l0,-84.142Zm-116.383,0c0,-40.392 0,-42.646 25.508,-44.875c1.421,0 2.529,-5.058 -0.267,-4.767c-8.983,1.117 -22.733,1.675 -34.5,1.675c-16.558,0 -29.471,-0.279 -41.525,-1.675c-2.804,-0.292 -1.121,4.767 -0.279,4.767c24.967,2.804 26.363,2.804 26.363,44.875l0,84.142c0,60.587 -8.971,83.312 -47.954,100.146c-0.842,0.279 -0.288,5.604 1.962,4.763c53.854,-21.029 70.692,-49.642 70.692,-104.908l0,-84.142Z" style="fill:#fff;fill-rule:nonzero;"/><path d="M2120.446,448.986c15.579,0 32.104,13.55 32.104,39.117c0,20.871 -12.154,31.163 -28.837,31.163c-15.579,0 -31.925,-13.242 -31.925,-38.804c0,-21.042 11.988,-31.475 28.658,-31.475m0.471,75.263c25.721,0 44.408,-19.946 44.408,-41.138c0,-20.417 -18.217,-38.962 -42.221,-38.962c-25.562,0 -44.417,19.95 -44.417,41.292c0,20.417 18.387,38.808 42.229,38.808m-111.554,-16.517c0,-14.808 0,-16.204 10.604,-17.146c0.463,0 0.758,-3.108 -0.154,-2.804c-3.6,0.462 -10.608,0.629 -15.442,0.629c-6.854,0 -15.587,-0.308 -20.575,-0.788c-0.933,-0.146 -0.462,2.963 0,2.963c12.475,0.942 12.95,1.55 12.95,16.525c0,2.65 -0.317,6.233 -0.783,7.475c-0.617,1.717 -2.496,4.679 -14.65,4.679c-16.825,0 -31.783,-12.308 -31.783,-37.721c0,-21.025 11.829,-32.558 29.292,-32.558c16.046,0 26.029,11.367 26.646,20.575c0,0.296 2.95,0.617 2.95,-0.171c0.633,-7.317 -0.462,-17.288 -1.383,-18.075c-2.038,-1.867 -14.188,-7.167 -25.25,-7.167c-26.8,0 -45.35,20.421 -45.35,41.767c0,20.254 16.513,38.333 43.475,38.333c11.688,0 20.879,-3.275 31.162,-8.721c-1.554,-1.717 -1.708,-4.371 -1.708,-7.796m-181.079,-58.746c15.583,0 32.112,13.55 32.112,39.117c0,20.871 -12.158,31.163 -28.837,31.163c-15.579,0 -31.938,-13.242 -31.938,-38.804c0,-21.042 11.996,-31.475 28.663,-31.475m0.471,75.263c25.704,0 44.417,-19.946 44.417,-41.138c0,-20.417 -18.233,-38.962 -42.229,-38.962c-25.567,0 -44.412,19.95 -44.412,41.292c0,20.417 18.379,38.808 42.225,38.808m-103.942,-4.517c0.617,-2.342 2.492,-9.504 2.804,-12.775c0,-0.467 -2.804,-0.633 -2.95,-0.167c-1.404,6.554 -2.342,9.513 -20.583,9.513l-5.608,0c-5.758,0 -6.704,-4.204 -6.704,-15.579l0,-34.137c0,-13.867 1.1,-17.138 11.846,-17.913c0.321,0 0.629,-3.271 -0.296,-2.971c-3.596,0.479 -11.55,0.787 -16.525,0.787c-6.704,0 -14.333,0 -19.017,-0.787c-1.558,-0.3 -0.771,2.971 -0.308,2.971c10.283,1.087 11.85,3.117 11.85,17.913l0,35.225c0,14.804 -1.258,16.358 -13.1,17.754c-0.3,0 -1.088,3.125 0.162,2.971c8.562,-0.633 23.838,-0.633 35.679,-0.633c8.733,0 15.117,0.633 19.479,0.633c2.038,0 2.646,-0.462 3.271,-2.804m-165.792,-70.746c15.579,0 32.092,13.55 32.092,39.117c0,20.871 -12.15,31.163 -28.825,31.163c-15.575,0 -31.95,-13.242 -31.95,-38.804c0,-21.042 12.013,-31.475 28.683,-31.475m0.462,75.263c25.708,0 44.417,-19.946 44.417,-41.138c0,-20.417 -18.246,-38.962 -42.242,-38.962c-25.554,0 -44.421,19.95 -44.421,41.292c0,20.417 18.4,38.808 42.246,38.808m-2.183,-85.854l25.875,-26.963c1.233,-1.408 -4.213,-5.767 -5.304,-4.212l-22.6,29.762c-1.087,1.558 1.096,2.342 2.029,1.413m-148.504,12.454c21.658,0 34.121,12.475 34.121,36.933c0,20.104 -14.954,29.608 -28.817,29.608c-16.679,0 -17.458,-2.804 -17.458,-11.367l0,-39.438c0,-8.875 0.154,-11.379 0.946,-15.104c1.858,-0.312 3.413,-0.633 11.208,-0.633m2.029,71.521c26.333,0 44.875,-17.917 44.875,-39.258c0,-20.883 -15.271,-37.087 -43.325,-37.087c-4.196,0 -15.108,0.467 -17.917,0.467c-7.008,0 -17.304,0 -21.971,-0.787c-1.567,-0.3 -0.775,2.971 -0.313,2.971c10.296,1.087 11.85,3.117 11.85,17.913l0,35.225c0,14.646 -1.554,16.667 -11.85,17.754c-0.462,0 -1.408,3.125 0.154,2.971c4.825,-0.633 14.175,-0.633 21.042,-0.633c2.804,0 13.396,0.467 17.454,0.467m-140.871,-59.508l9.663,26.171l-21.671,0l12.008,-26.171Zm29.767,59.042c5.133,0 11.833,0.171 15.588,0.633c0.929,0.312 0.617,-2.971 0.137,-2.971c-11.221,-0.933 -13.396,-6.696 -17.917,-17.912l-22.425,-56.562c-0.325,-0.942 -1.879,-0.788 -2.2,0l-25.85,56.562c-5.938,13.087 -9.983,17.292 -17.767,17.912c-0.479,0 -0.942,3.125 0,2.971c5.133,-0.633 6.221,-0.633 12.933,-0.633c4.975,0 9.812,0.171 13.396,0.633c0.929,0.312 0.929,-2.971 0.154,-2.971c-4.992,-0.467 -7.954,-0.467 -7.954,-3.108c0,-3.112 1.721,-7.625 4.679,-14.492l3.588,-8.254l25.242,0l2.804,8.254c2.029,5.921 4.05,11.067 4.05,14.65c0,3.117 -3.263,2.329 -8.562,2.95c-0.467,0 -0.933,3.283 0,2.971c4.987,-0.633 13.404,-0.633 20.104,-0.633m-128.417,-4.046c0.954,-0.775 2.354,-11.212 2.817,-18.533c0,-0.783 -2.817,-0.475 -2.817,-0.162c-1.088,11.842 -12.929,20.104 -24.917,20.104c-16.671,0 -32.729,-12.308 -32.729,-37.863c0,-20.883 11.842,-32.417 29.3,-32.417c17.287,0 25.708,11.221 27.579,20.25c0.146,0.479 3.121,0.479 3.121,-0.146c-0.467,-7.171 -1.888,-17.775 -2.817,-18.542c-2.333,-1.721 -13.867,-6.4 -25.088,-6.4c-26.642,0 -45.183,20.421 -45.183,41.767c0,20.254 17.767,38.333 44.717,38.333c14.496,0 21.979,-3.275 26.017,-6.392m-174.054,-67.775c13.554,0 21.038,4.658 21.038,17.754c0,10.604 -6.079,16.517 -21.504,16.517c-2.017,0 -2.95,-0.142 -4.371,-0.142l0,-18.713c0,-8.417 0.325,-12.933 0.954,-15.121c1.713,-0.154 2.175,-0.296 3.883,-0.296m8.429,37.867c5.125,18.375 19.629,36.467 45.183,36.467c0.929,0 0.462,-2.979 0,-2.979c-13.567,0 -28.358,-21.5 -34.592,-37.396c9.183,-3.892 14.796,-11.521 14.796,-19.317c0,-12.467 -11.213,-19.167 -32.254,-19.167c-12.775,0 -26.65,0.625 -31.642,2.188c-0.929,0.154 -0.154,3.104 0.479,2.804c1.717,-0.325 3.117,-0.467 4.358,-0.467c5.458,0 7.95,2.95 7.95,16.504l0,35.225c0,14.804 -1.871,16.667 -12.013,17.754c-0.462,0 -0.929,3.283 0,2.971c4.992,-0.633 12.625,-0.633 19.492,-0.633c4.975,0 12.929,0.171 16.521,0.633c0.921,0.312 0.621,-2.971 0.146,-2.971c-10.6,-0.933 -11.692,-3.729 -11.692,-17.754l0,-13.087c1.421,0.154 2.188,0.154 4.525,0.154c2.342,0 5.925,-0.467 8.742,-0.929m-102.542,31.783c0.775,-2.342 2.017,-9.971 2.496,-12.942c0,-0.467 -3.121,-0.467 -3.121,-0.3c-1.717,7.629 -2.183,10.125 -20.104,10.125l-6.079,0c-5.3,0 -6.075,-1.408 -6.075,-16.358l0,-15.429l7.796,0c12.463,0 13.396,0.467 14.483,6.546c0,0.154 3.271,0 2.971,-0.158l0,-6.708c0,-2.637 0.146,-7.475 0.625,-9.183c0.142,-0.787 -2.808,-0.621 -2.808,-0.321c-1.254,4.992 -2.183,5.304 -15.271,5.304l-7.796,0l0,-14.342c0,-7.321 0.162,-11.688 0.629,-14.329l10.125,0c15.121,0 16.983,2.483 17.925,7.629c0,0.321 2.946,0.154 2.946,-0.154c-0.142,-0.775 0,-4.204 0,-5.458c0,-2.338 0,-5.613 0.787,-8.096c-7.162,0.625 -15.279,0.933 -23.688,0.933c-11.842,0 -25.55,-0.154 -34.279,-0.933c-0.942,-0.154 -0.479,3.117 0,3.117c11.833,1.242 12.917,3.117 12.917,17.913l0,35.225c0,14.804 -1.083,16.358 -12.917,17.754c-0.479,0 -0.942,2.971 0,2.971c8.729,-0.633 22.9,-0.633 34.746,-0.633c8.729,0 16.058,0.633 20.417,0.633c2.017,0 2.804,-0.462 3.275,-2.804m-138.367,2.171c4.979,0 13.863,0.171 17.588,0.633c0.933,0.312 0.633,-2.971 0.167,-2.971c-12.008,-0.933 -13.096,-3.729 -13.404,-17.754l-0.625,-35.225c-0.308,-14.021 0.467,-16.825 12.779,-17.913c0.308,0 0.621,-3.117 -0.312,-2.804c-5.613,0.775 -17.613,1.088 -25.4,0.621c-1.55,6.229 -5.146,13.562 -8.417,21.504l-15.117,36.621l-28.679,-57.971c-11.058,0 -19.154,0 -25.242,-0.775c-0.929,-0.312 -0.462,2.804 0,2.804c8.896,0.929 14.183,6.7 14.029,12.142l-0.775,40.996c-0.321,13.396 -1.875,16.667 -12.167,17.754c-0.467,0 -0.933,3.283 0,2.971c5,-0.633 9.983,-0.633 16.683,-0.633c4.987,0 9.192,0.171 12.771,0.633c0.933,0.312 0.633,-2.971 0.167,-2.971c-10.613,-0.933 -11.542,-5.125 -11.375,-17.754l0.629,-39.738l29.137,60.154c0.3,0.621 2.017,0.775 2.325,0l26.5,-61.413l0.617,40.996c0.158,14.646 -1.396,16.821 -10.433,17.754c-0.467,0 -0.788,3.283 0.142,2.971c4.992,-0.633 11.379,-0.633 18.412,-0.633" style="fill:#fff;fill-rule:nonzero;"/></g></g></svg>