<svg id="_1" data-name="1" xmlns="http://www.w3.org/2000/svg" xmlns:xlink="http://www.w3.org/1999/xlink" viewBox="0 0 4680 3120"><defs><style>.cls-1{fill:none;}.cls-2{fill:#ef4444;}.cls-3{fill:#fff;}.cls-4{opacity:0.13;}.cls-5{clip-path:url(#clip-path);}.cls-6{fill:#999;}.cls-7{fill:#333;}.cls-8{opacity:0.2;}.cls-9{fill:#f2f2f2;}.cls-10{fill:gray;}.cls-11{fill:#ccc;}.cls-12{fill:#303030;}.cls-13{opacity:0.3;}.cls-14{fill:#666;}.cls-15{fill:#fcc0a9;}.cls-16{fill:#fc9a74;}.cls-17{fill:#4d4d4d;}.cls-18{fill:#0e1d73;}.cls-19{opacity:0.15;}.cls-20{fill:#203282;}.cls-21{clip-path:url(#clip-path-2);}.cls-22{opacity:0.7;}.cls-23{opacity:0.5;}.cls-24{fill:#2291f2;}.cls-25{fill:#e6e6e6;}.cls-26{fill:#0f7cce;}.cls-27{fill:#1a6fba;}.cls-28{fill:#282828;}.cls-29{fill:#2c2c2c;}.cls-30{fill:#1b3087;}.cls-31{fill:#ebebeb;}.cls-32{opacity:0.1;}.cls-33{fill:#fdaf91;}</style><clipPath id="clip-path"><path class="cls-1" d="M2866.38,1666.81H2478.12V862.26h388.26Zm427.26-804.55H2905.38v804.55h388.26Zm422.56,0H3327.94v804.55H3716.2Z"/></clipPath><clipPath id="clip-path-2"><path class="cls-2" d="M3010.34,1348.3c10,34.14-10,71.13,11.38,74s32.72,11.38,39.84,29.87,12.8,22.76,34.14,31.29-7.12,85.83,28.45,84.88,149.37-29.4,149.37-29.4c-72.55-35.56-56.91-46-44.1-80.6s29.6-57.8-19.92-74.45-51.21-39.84-55.48-58.33S3010.34,1348.3,3010.34,1348.3Z"/></clipPath></defs><rect class="cls-3" width="4680" height="3120"/><g class="cls-4"><rect x="2434.37" y="801.09" width="1325.57" height="926.89"/><g class="cls-5"><rect class="cls-6" x="2434.37" y="801.09" width="1325.57" height="926.89"/><polygon class="cls-7" points="2758.79 1307.93 2758.79 1302.99 2725.22 1275.29 2725.22 1012.85 2606.16 1012.85 2606.16 1272.4 2569.09 1302.99 2569.09 1459.49 2569.09 1459.49 2569.09 1664.83 2758.79 1664.83 2758.79 1307.93 2758.79 1307.93"/><path d="M2760,1666.05H2567.88V1302.41l37.07-30.58V1011.64h121.48v263.08l33.57,27.69Zm-189.69-2.43h187.26V1303.56l-33.56-27.7v-261.8H2607.38V1273l-37.07,30.59Z"/><polygon class="cls-7" points="3172.76 1312.79 3111.79 1312.79 3080.89 1312.79 3080.89 1151.2 2966.15 1151.2 2905.18 1151.2 2809.14 1151.2 2809.14 1666.81 2905.18 1666.81 2966.15 1666.81 3015.76 1666.81 3080.89 1666.81 3111.79 1666.81 3172.76 1666.81 3287.51 1666.81 3287.51 1312.79 3172.76 1312.79"/><path d="M3288.52,1667.81H2808.13V1150.2H3081.9v161.59h206.62Zm-478.38-2h476.37v-352H3079.89V1152.2H2810.14Z"/><rect class="cls-7" x="3540.48" y="1151.2" width="175.72" height="515.61"/><path d="M3717.41,1668H3539.27V1150h178.14Zm-175.72-2.42H3715V1152.41h-173.3Z"/><polygon class="cls-7" points="3489.45 1420.52 3489.45 1178.28 3386.41 1178.28 3386.41 1420.52 3367.68 1420.52 3367.68 1666.81 3508.19 1666.81 3508.19 1420.52 3489.45 1420.52"/><path d="M3508.83,1667.45H3367V1419.87h18.73V1177.64H3490.1v242.23h18.73Zm-140.51-1.28h139.23v-245h-18.74V1178.92H3387.05v242.24h-18.73Z"/><g class="cls-8"><polygon class="cls-9" points="2782.21 1680.61 2641.69 1680.61 2982.91 832.7 3123.43 832.7 2782.21 1680.61"/></g><g class="cls-8"><polygon class="cls-9" points="2585.23 1680.61 2512.46 1680.61 2853.68 832.7 2926.45 832.7 2585.23 1680.61"/></g><g class="cls-8"><polygon class="cls-9" points="3227.16 1680.61 2966.15 1680.61 3307.36 832.7 3568.38 832.7 3227.16 1680.61"/></g></g><rect x="2042.17" y="865.55" width="281.12" height="356.9"/><rect class="cls-10" x="2084.45" y="907.83" width="196.55" height="272.33"/><path class="cls-7" d="M2281,1070.76v109.41H2084.45v-47.74c73.25-42.65,84.54-40.34,114.63-66.59C2224,1044.12,2260.75,1053.39,2281,1070.76Z"/><circle class="cls-7" cx="2170.39" cy="1004.06" r="24.39"/><rect class="cls-7" x="2210.74" y="966.18" width="39.12" height="3.4" transform="translate(-132.98 1538.82) rotate(-37.04)"/><rect class="cls-7" x="2185.48" y="941.91" width="26.08" height="3.4" transform="translate(664.08 2779.2) rotate(-73.34)"/><rect class="cls-7" x="2156.78" y="930.74" width="3.4" height="25.75" transform="translate(-164.41 551.68) rotate(-14.04)"/><rect class="cls-7" x="2113.85" y="972.34" width="3.4" height="26.04" transform="translate(304.45 2457.24) rotate(-64.08)"/><rect class="cls-7" x="2134.93" y="952.83" width="3.4" height="30.11" transform="translate(-138.19 1539.9) rotate(-38.49)"/><rect class="cls-7" x="2114.11" y="1021.06" width="23.95" height="3.4" transform="translate(-230.62 1133.32) rotate(-28.38)"/><rect class="cls-7" x="2120.59" y="1051.15" width="32.06" height="3.4" transform="translate(33.74 2171.57) rotate(-54.25)"/><rect x="2042.17" y="1299.14" width="281.12" height="356.9"/><rect class="cls-10" x="2084.46" y="1341.43" width="196.55" height="272.33"/><path class="cls-11" d="M2254.11,1606.89c0,2.3-.1,4.61-.32,6.86H2111.58a67.78,67.78,0,0,1-.32-6.86,71.43,71.43,0,1,1,142.85,0Z"/><circle class="cls-7" cx="2182.68" cy="1493.17" r="30.44"/><path class="cls-7" d="M2254.11,1606.89c0,2.3-.1,4.61-.32,6.86H2111.58a67.78,67.78,0,0,1-.32-6.86,71.43,71.43,0,1,1,142.85,0Z"/><rect x="778.92" y="2461.86" width="3513.8" height="22.77"/></g><rect class="cls-12" x="3053.95" y="2160.31" width="24.54" height="347.48"/><path class="cls-2" d="M3203.3,2594.14c0-74.19-61.37-89.1-137.08-89.1s-137.08,14.91-137.08,89.1"/><path class="cls-2" d="M3017.33,2194.05,3154,1775.29c0-20.81,17.23-37.69,38.47-37.69h225.9c21.24,0,38.47,16.88,38.47,37.69l-151.42,464h-.33a33.89,33.89,0,0,1-33.76,28.79H2861.12c-18.83,0-34.1-15-34.1-33.42v-40.6Z"/><g class="cls-13"><path d="M3017.61,2193.18h200.47a33.87,33.87,0,0,0,33.76-28.79h.33l139.29-426.79h-199c-21.25,0-38.46,16.87-38.46,37.69Z"/></g><g class="cls-13"><path d="M3178.46,2193.74c30.38-146.23,69.05-262.12,96.15-333.58,29.35-77.45,51.82-120.86,52-121.29l-5.1-2.55c-.23.43-22.8,44.06-52.27,121.77-27.17,71.67-66,187.89-96.43,334.53Z"/><path d="M3093,2193.85c59.89-238.33,148.87-453,149.76-455.19l-5.3-2.12c-.89,2.14-90,217.24-150,456Z"/><path d="M3404.82,1933.57l2.36-5.11-68.26-30.27-.46,0c-7-.75-67.39-6.94-82.15-.21-25.38-6.66-70.93-3.53-76.21-3.14-7-1.53-52.63-10.92-67.36-.53l3.35,4.56c11-7.76,49.33-1.52,63.17,1.54l.43.1.43,0c.5,0,50.62-3.85,75.74,3.21l1.25.35,1.09-.69c7.91-5,52.57-2.43,79.19.38Z"/><path d="M3354.24,2088.74l2.26-5.16-68.69-28.81-.41-.05c-2.17-.26-53.08-6.18-78.33-3.29-38.69-8.51-75-5.1-78.87-4.69-4.66-.51-50.2-5.36-66.16-.94l1.56,5.4c15.38-4.26,63.79,1.1,64.27,1.15l.33,0,.34,0c.37,0,37.81-4.22,77.75,4.66l.48.11.5-.06c23.25-2.8,72.08,2.62,77,3.18Z"/></g><polygon class="cls-14" points="2648.55 2593.57 2624.01 2593.57 2612.27 2022.44 2660.28 2022.44 2648.55 2593.57"/><path class="cls-15" d="M2751.1,2235.82c-38.53,256.88-21.83,269.72-55.23,283.85s-145.13,61.65-93.76,68.08,167,9,164.41,0,0-177.25,44.95-260.74S2751.1,2235.82,2751.1,2235.82Z"/><path class="cls-16" d="M2816.18,2317.29c-1.33,3.11-2.9,6.37-4.71,9.72a247.71,247.71,0,0,0-16.65,39.86c-19.27-1.36-39.78-3.32-60.82-6,1.87-15.36,4-32.31,6.55-51Z"/><path class="cls-7" d="M2766.51,2587.75c2.58,9-113,6.41-164.39,0-45.61-5.72,37.31-43.77,79.87-62.14,25.9,14.43,67.61,8.5,85.13,7.76C2765.7,2560.25,2765.71,2584.91,2766.51,2587.75Z"/><path class="cls-15" d="M2841.58,2271.14c-4.32,218.61-21.51,251.1-69,275.5s-75.78,50.6-41.1,51.63,137.55,5.61,154.45-13.09c-6.75-34.68-4.45-201.92,36.92-256.88S2841.58,2271.14,2841.58,2271.14Z"/><path class="cls-16" d="M2923.14,2327.84c-.09.15-.21.3-.32.45-7.83,10.37-14.26,24.77-19.47,41.52-15,.26-37.73.35-65.29-.66.89-15.05,1.63-31.5,2.25-49.49Z"/><path class="cls-17" d="M2885.89,2585.18c-16.89,18.7-119.76,14.13-154.44,13.09s-6.43-27.23,41.11-51.62a132.63,132.63,0,0,0,14.31-8.39c23.39,10.76,65.53,21.32,99,0C2886.24,2554.12,2884.53,2578.15,2885.89,2585.18Z"/><path class="cls-15" d="M3016,1824.23s-45.49,109.54-91,136.56-155.06-1.42-189.2,2.85-103.85,2.84-112.38,0-11.38-28.45,82.51-35.57S2863.78,1948,2925,1810"/><path class="cls-16" d="M3016,1824.23s-45.49,109.54-91,136.56-155.06-1.42-189.2,2.85-103.85,2.84-112.38,0a3,3,0,0,1-.83-.39c23.95.36,72.43-2,99-6.75,33.87-6,144.74,16.74,188.78-12.63,33.37-22.23,64.28-91.69,77.32-124.09Z"/><path class="cls-18" d="M3001.77,1872.36C2934.68,1851,2897.92,1834,2897.92,1834c66.86-156.48,101.74-191.58,126.61-197.74S3062.94,1778.47,3001.77,1872.36Z"/><g class="cls-19"><path d="M3001.77,1872.36q-15-4.8-28-9.22c41.64-71.36,49.11-168.78,41.73-223.52a43.2,43.2,0,0,1,9-3.41C3049.39,1630.05,3062.94,1778.47,3001.77,1872.36Z"/></g><path class="cls-18" d="M3092.81,1619.14c-93.52,14.16-83.93,15.65-95.31,115.23s5.69,250.37-42.68,287.36c0,0,278.25-6.72,253.22,85.35C3287.7,1814,3243.17,1596.38,3092.81,1619.14Z"/><g class="cls-19"><path d="M3208,2107.08c6.7-24.69-8.42-42.29-34.11-54.8,34.49-67.07,58.94-130.34,72.81-186.68C3245,1936.05,3232.25,2018.08,3208,2107.08Z"/></g><path class="cls-15" d="M3122.68,1817.32c-21.33,72.55-100.75,104.14-216.22,102.42s-123.54,46.16-88.75,46,29-3.85,104.39,0,261.22,24.16,280.25-122.77S3122.68,1817.32,3122.68,1817.32Z"/><path class="cls-16" d="M3202.35,1842.93c-19,146.91-204.85,126.61-280.25,122.75s-69.61-.2-104.4,0a24.84,24.84,0,0,1-12.13-2.6c17.28-1.81,29.67-3.68,89.57-3.95,81.47-.38,282.85,9.55,295.77-138.25,2-22.61,1.3-38.82-1.25-50C3201.75,1774.26,3208.78,1793.29,3202.35,1842.93Z"/><path class="cls-18" d="M3186.4,1645.28c-74.73-57.65-84.2,194-99.28,217,93.36,41.56,105.27,45.63,105.27,45.63S3254.15,1697.55,3186.4,1645.28Z"/><path class="cls-20" d="M3120.7,1699.31q-3.76,20.54-7.82,40.9c-2.69,13.59-5.36,27.18-8.14,40.75l-4.15,20.36-2.13,10.17c-.67,3.4-1.39,6.79-2.13,10.17l-2.18,10.17-2.24,10.17c-1.55,6.77-3,13.55-4.79,20.29.47-6.94,1.17-13.86,1.92-20.77s1.66-13.81,2.73-20.67q3-20.62,7.17-41.07t9.45-40.61C3111.94,1725.74,3115.83,1712.36,3120.7,1699.31Z"/><path class="cls-18" d="M3002.18,2006.08c-309.11-15.65-266.43,8.53-314.8,327.19,244.68,27,303,24.18,303,24.18,17.07-200.58,75.39-118.07,152.21-149.37s78-113.33,57-153.16S3002.18,2006.08,3002.18,2006.08Z"/><path class="cls-20" d="M2775.09,2103.66c7.12.19,14.16.33,21.21.24s14-.18,21-.49c14-.6,27.87-1.71,41.65-3.59,1.72-.21,3.44-.46,5.16-.73s3.44-.49,5.15-.81l5.14-.85,5.11-1c1.72-.3,3.42-.66,5.11-1s3.41-.69,5.1-1.1c3.38-.8,6.78-1.55,10.14-2.46a346.65,346.65,0,0,0,40-13.11c-2.91,2-5.8,4.17-8.89,5.95-1.51.95-3.06,1.83-4.61,2.74l-4.73,2.53c-.79.42-1.58.83-2.38,1.23l-2.43,1.15c-1.63.76-3.25,1.51-4.89,2.24-3.31,1.36-6.62,2.78-10,3.94a185.79,185.79,0,0,1-20.63,6.16,214.24,214.24,0,0,1-21.17,3.93,233.68,233.68,0,0,1-42.86,1.75c-7.14-.38-14.26-1.07-21.31-2.15A148.75,148.75,0,0,1,2775.09,2103.66Z"/><g class="cls-19"><path d="M3142.6,2208.08c-76.82,31.3-135.14-51.21-152.21,149.37,0,0-1.81.09-6.17.09-8.5-205.38,59.84-122.7,126.43-170.06,53.44-38,58.59-106.6,45.85-158.11,21.16,6.64,37.58,15,43.12,25.55C3220.54,2094.75,3219.42,2176.78,3142.6,2208.08Z"/></g><g class="cls-19"><path d="M3083.33,2014.11c-79.93,11.11-229.39,45-339.55,34.64,33-48.21,98.81-50.76,258.4-42.67C3002.18,2006.08,3040.35,2008,3083.33,2014.11Z"/></g><path class="cls-15" d="M3064.43,1344c-120.9,65.21-108.11,277.87-29.87,215.75,27,57.38,17.07,64.49,0,71.6,24.18,29.88,69.74,20,103.88-11.27-21.34-8.54-55.51-44.21-11.42-88.3S3191,1275.76,3064.43,1344Z"/><path class="cls-15" d="M3067.74,1542.33c-10.29,17.19-18.38,28.92-24.69,36.83-2.13-5.33-4.71-11.26-7.82-17.9C3047.53,1555.16,3063.77,1546.59,3067.74,1542.33Z"/><path class="cls-15" d="M3141.92,1508.84c-.74-54.71-.3-68.43-9.28-97.39s-9.75-15.44-28.8-42-6.85-28.84-27.86-31.09C3175.32,1295.25,3172.65,1442.39,3141.92,1508.84Z"/><path class="cls-16" d="M3141.92,1508.84c-4.45,9.63-9.51,17.57-14.91,23-15.05,15-21,29.13-21.4,41.46-4.83-4.18-8.47-10.76-8.44-21,.06-29.87-4.36-41.25-22.85-51.21s-6.43-35.89-28.81-56.51c-19.94-18.41-34.55-12.21-35.47-51v0c13.72-19.83,31.68-37.28,54.38-49.52,4-2.16,7.82-4,11.53-5.63h0c21,2.25,8.83,4.53,27.86,31.09s19.82,13,28.8,42S3141.18,1454.13,3141.92,1508.84Z"/><path class="cls-16" d="M3067.74,1542.33c-10.29,17.19-18.38,28.92-24.69,36.83-2.13-5.33-4.71-11.26-7.82-17.9C3047.53,1555.16,3063.77,1546.59,3067.74,1542.33Z"/><path class="cls-7" d="M3016.29,1462.21c-.84,5.79-4.9,10-9.08,9.4s-6.89-5.79-6.05-11.59,4.9-10,9.08-9.4S3017.13,1456.41,3016.29,1462.21Z"/><path class="cls-7" d="M3004.26,1450a14.13,14.13,0,0,1,6.62-7.45,11.17,11.17,0,0,1,5.58-1.26,10.29,10.29,0,0,1,3,.58,12.12,12.12,0,0,1,2.66,1.36,15,15,0,0,1,3.82,4,20,20,0,0,1,2.17,4.59,22.76,22.76,0,0,1,1,9.65c-2-2.62-3.57-5.23-5.23-7.6a40.65,40.65,0,0,0-2.5-3.3,16.93,16.93,0,0,0-1.32-1.35,5.26,5.26,0,0,0-.66-.6,8,8,0,0,0-.68-.51,7.18,7.18,0,0,0-2.84-1.24,9.22,9.22,0,0,0-3.43,0A35.82,35.82,0,0,0,3004.26,1450Z"/><path class="cls-7" d="M3004.26,1429a23.52,23.52,0,0,1,8-4,30.6,30.6,0,0,1,8.79-1.29,26,26,0,0,1,8.93,1.52,15.54,15.54,0,0,1,7.36,5.39c-3.07-.44-5.69-.69-8.35-.84s-5.28-.11-7.94-.14-5.37,0-8.14,0A71.31,71.31,0,0,1,3004.26,1429Z"/><path class="cls-2" d="M2981.85,1498.23s12.81,4.62,22.41,0C2983.27,1589.63,2981.85,1498.23,2981.85,1498.23Z"/><ellipse class="cls-2" cx="3027.55" cy="1485.6" rx="8.71" ry="13.69" transform="translate(1002.97 4182.67) rotate(-79.24)"/><path class="cls-2" d="M3010.34,1348.3c10,34.14-10,71.13,11.38,74s32.72,11.38,39.84,29.87,12.8,22.76,34.14,31.29-7.12,85.83,28.45,84.88,149.37-29.4,149.37-29.4c-72.55-35.56-56.91-46-44.1-80.6s29.6-57.8-19.92-74.45-51.21-39.84-55.48-58.33S3010.34,1348.3,3010.34,1348.3Z"/><g class="cls-21"><g class="cls-22"><path class="cls-16" d="M3039.5,1317.5c-.5,6.88-1.07,13.74-1,20.49a65.81,65.81,0,0,0,2.71,19.41,38.3,38.3,0,0,0,9.19,15.72,26.51,26.51,0,0,0,6.93,4.91,54.47,54.47,0,0,0,8.67,3.14c3.16.92,6.54,1.8,10.08,3a41.73,41.73,0,0,1,10.84,5.34,29.66,29.66,0,0,1,8.72,9.93,47.74,47.74,0,0,1,4.2,11.26c.92,3.61,1.57,7,2.3,10.16a46.9,46.9,0,0,0,2.62,8.41,18.39,18.39,0,0,0,4.23,6.07,37.17,37.17,0,0,0,6.73,5.06c2.63,1.61,5.53,3.17,8.58,4.84a96.37,96.37,0,0,1,9.49,5.74,39.41,39.41,0,0,1,9.15,8.55,32.77,32.77,0,0,1,5.6,12,45.64,45.64,0,0,1,1,12.06c-.12,3.82-.58,7.36-1,10.76s-.83,6.65-1,9.72a34.51,34.51,0,0,0,.43,8.67,12.45,12.45,0,0,0,.47,2l.26,1c.09.32.23.63.34.94a25.73,25.73,0,0,0,1.88,3.8,86,86,0,0,0,5.55,7.93c1,1.39,2.11,2.82,3.14,4.33l.78,1.15.73,1.2c.47.8,1,1.58,1.42,2.41a57.87,57.87,0,0,1,4.33,10.18c4.38,14,3.16,29.29-3.25,41.54a56.83,56.83,0,0,0-3.73-38.83,54.73,54.73,0,0,0-4.87-8.17c-.45-.64-1-1.24-1.44-1.86l-.73-.92-.77-.9c-1.06-1.2-2.18-2.4-3.35-3.63a87.21,87.21,0,0,1-7.12-8.24,37.75,37.75,0,0,1-3.17-5.14c-.22-.47-.46-.94-.66-1.42l-.56-1.46a22.42,22.42,0,0,1-1-3,45,45,0,0,1-1.55-11.72c-.09-3.78.15-7.37.37-10.79s.44-6.71.39-9.74a33.78,33.78,0,0,0-1-8.33,18.64,18.64,0,0,0-3.26-6.4,25.72,25.72,0,0,0-6-5.22c-4.84-3.28-11.11-6-17.55-9.89a51.76,51.76,0,0,1-9.52-7.44c-.73-.8-1.51-1.52-2.18-2.4s-1.34-1.77-2-2.67-1.13-1.9-1.69-2.85-.92-1.94-1.37-2.91a59.68,59.68,0,0,1-3.26-11.25c-.71-3.56-1.23-6.9-1.9-10a35.72,35.72,0,0,0-2.55-8.08,16.47,16.47,0,0,0-4.4-5.67,30,30,0,0,0-7.31-4.13c-2.86-1.22-6.05-2.32-9.38-3.6a59.39,59.39,0,0,1-10.24-4.84,35.94,35.94,0,0,1-9-7.91,41,41,0,0,1-5.87-10,47.23,47.23,0,0,1-3.06-10.75,64.22,64.22,0,0,1,.43-21.46A168.78,168.78,0,0,1,3039.5,1317.5Z"/></g><path class="cls-16" d="M3194.36,1560.1c-9.49-10.28-18.93-20.88-25.6-33.5a65.57,65.57,0,0,1-6.91-20.27c-1.15-7.18-.55-14.49.43-21.47s2.27-13.85,2.56-20.64a41.61,41.61,0,0,0-3.53-19.37,23.71,23.71,0,0,0-5.54-7.68,19.87,19.87,0,0,0-8.18-4.32,68,68,0,0,0-10-1.47,50.43,50.43,0,0,1-10.88-2,21,21,0,0,1-5.34-2.61,19.77,19.77,0,0,1-4.38-4.18,26.67,26.67,0,0,1-2.89-5.09,48.27,48.27,0,0,1-1.82-5.26c-1-3.48-1.72-6.9-2.75-10.06a27.11,27.11,0,0,0-4.34-8.62c-3.92-5.16-9.6-9-15.53-12.59s-12.23-7-17.82-11.7a50.08,50.08,0,0,1-13.14-17.2,71.83,71.83,0,0,1-5.92-20.55c-2-14.09-1.08-28.23.31-42.16-.38,14-.45,28.11,2.15,41.74a71.57,71.57,0,0,0,6.48,19.48,47.37,47.37,0,0,0,12.68,15.57c5.27,4.22,11.45,7.39,17.56,10.94A90.25,90.25,0,0,1,3101,1383a42,42,0,0,1,8,7.7,32.18,32.18,0,0,1,5.19,10c1.16,3.49,1.91,6.94,2.88,10.19a42.56,42.56,0,0,0,1.64,4.66,21.41,21.41,0,0,0,2.3,4,14.88,14.88,0,0,0,3.2,3,16.37,16.37,0,0,0,4.08,2c6,2,13.22,1.51,20.55,3.44a24.68,24.68,0,0,1,10.19,5.5,28.4,28.4,0,0,1,6.6,9.3,41.08,41.08,0,0,1,3.15,10.67,49.29,49.29,0,0,1,.5,11c-.46,7.22-1.94,14.16-3.08,21s-1.91,13.66-1.08,20.41a65,65,0,0,0,5.81,19.62,122,122,0,0,0,10.62,17.91C3185.63,1549.12,3190,1554.62,3194.36,1560.1Z"/><g class="cls-23"><path class="cls-16" d="M3078.31,1303.39a82.05,82.05,0,0,0,11.5,38.62,77,77,0,0,0,26.55,27.09,106.54,106.54,0,0,0,17.46,8.15c6.22,2.38,12.75,4.56,19.44,7a147.44,147.44,0,0,1,20.37,9,68.86,68.86,0,0,1,19.06,15.06,57.15,57.15,0,0,1,11.57,22.27,69.2,69.2,0,0,1,2.08,11.94,100.35,100.35,0,0,1,.28,11.58,194.59,194.59,0,0,1-2.23,21.71c-1,7-2.17,13.72-3,20.34-.42,3.32-.73,6.59-.91,9.84a83.9,83.9,0,0,0-.06,9.64,62.61,62.61,0,0,0,3.7,18.68c4.4,12.31,12.36,23.87,21.39,34.62-2.93-1.94-5.81-4-8.61-6.18s-5.49-4.55-8.09-7a82.06,82.06,0,0,1-13.7-17.11,66.37,66.37,0,0,1-8.05-21.24,84.64,84.64,0,0,1-1.47-11.2c-.27-3.72-.35-7.42-.29-11,.19-14.56,2.14-28.42,1.95-41.23a65.77,65.77,0,0,0-2.39-17.87,38.56,38.56,0,0,0-7.8-14.4,51.46,51.46,0,0,0-13.42-10.93,151.51,151.51,0,0,0-17.55-8.52c-6.25-2.68-12.8-5.33-19.39-8.43a105.38,105.38,0,0,1-19.42-11.4,78.93,78.93,0,0,1-26.52-36.19C3075.75,1332.25,3074.78,1317.06,3078.31,1303.39Z"/></g><path class="cls-16" d="M3119.25,1464.81a26.23,26.23,0,0,1,10.86,13.7,30,30,0,0,1,1.53,8.94,65.37,65.37,0,0,1-.44,8.89c-.3,2.9-.69,5.76-.9,8.55a44.09,44.09,0,0,0,0,8.21,22.56,22.56,0,0,0,2,7.49,16.49,16.49,0,0,0,4.8,5.77c2.06,1.71,4.6,3.39,6.86,5.57a40.89,40.89,0,0,1,5.88,7.07,51.46,51.46,0,0,1,7,16.6,77.12,77.12,0,0,1,1.88,17.58c0,5.85-.45,11.64-1,17.41-.92-11.55-1.48-23.19-4.77-33.94a52.91,52.91,0,0,0-7.1-14.93,38.06,38.06,0,0,0-5.33-6.12c-1.93-1.83-4.26-3.33-6.67-5.28a24.25,24.25,0,0,1-3.44-3.37,20.88,20.88,0,0,1-2.63-4.19,26.52,26.52,0,0,1-2.31-9.21,44.53,44.53,0,0,1,.28-9.11c.37-3,.91-5.82,1.39-8.65,1-5.62,1.7-11.2.5-16.6A27.41,27.41,0,0,0,3119.25,1464.81Z"/></g><polygon class="cls-14" points="1621.66 2589.25 1663.69 2589.25 2007.52 883.39 1965.49 883.39 1621.66 2589.25"/><polygon class="cls-14" points="1129.95 2589.25 1171.97 2589.25 1515.8 883.39 1473.77 883.39 1129.95 2589.25"/><polygon class="cls-10" points="1854.74 2589.25 1812.72 2589.25 1468.89 883.39 1510.92 883.39 1854.74 2589.25"/><polygon class="cls-10" points="2346.46 2589.25 2304.43 2589.25 1960.6 883.39 2002.63 883.39 2346.46 2589.25"/><polygon class="cls-24" points="2289.46 1874.85 1585.93 1874.85 1369.17 799.4 2072.7 799.4 2289.46 1874.85"/><path class="cls-15" d="M1614.54,1089.53l-88.2-51.37c7.71-24.32,24.32-40.82,45.1-48Z"/><path class="cls-2" d="M1615.58,1091.92l-82.88,26c-11.29-26-14.31-54.71-6.36-79.79l88.2,51.37Z"/><polygon class="cls-18" points="1617.56 1091.29 1615.58 1091.92 1614.54 1089.53 1617.56 1091.29"/><polygon class="cls-9" points="1921.45 1028.12 1765.57 1028.12 1760.11 1001.06 1916 1001.06 1921.45 1028.12"/><polygon class="cls-25" points="2034.25 1086.3 1777.29 1086.3 1773.11 1065.55 2030.07 1065.55 2034.25 1086.3"/><polygon class="cls-25" points="2041.12 1120.38 1784.16 1120.38 1779.98 1099.63 2036.93 1099.63 2041.12 1120.38"/><polygon class="cls-25" points="2047.98 1154.46 1791.03 1154.46 1786.85 1133.71 2043.8 1133.71 2047.98 1154.46"/><polygon class="cls-25" points="2153.08 1688.21 1644.6 1688.21 1639.42 1662.48 2147.9 1662.48 2153.08 1688.21"/><polygon class="cls-25" points="1687.99 1594.77 1625.77 1594.77 1583.72 1386.17 1645.95 1386.17 1687.99 1594.77"/><polygon class="cls-18" points="1803.69 1594.77 1741.47 1594.77 1691.69 1347.81 1753.92 1347.81 1803.69 1594.77"/><polygon class="cls-15" points="1919.39 1594.77 1857.17 1594.77 1826.73 1443.71 1888.95 1443.71 1919.39 1594.77"/><polygon class="cls-2" points="2025.65 1594.77 1963.43 1594.77 1921.38 1386.17 1983.6 1386.17 2025.65 1594.77"/><polygon class="cls-16" points="2134.25 1594.77 2072.03 1594.77 2009.95 1286.76 2072.17 1286.76 2134.25 1594.77"/><path class="cls-25" d="M1708.77,1144.42c-8.19,25.85-26.42,42.85-49.06,49.27-21.3,6-46.51,2.66-70.93-11.57-25.19-14.67-44.78-38.11-56.08-64.17l82.88-26,2-.63-3-1.76-43.1-99.39c22.1-7.66,48.94-4.81,74.9,10.3,25.19,14.68,44.77,38.13,56.07,64.19S1716.72,1119.33,1708.77,1144.42Z"/><polygon class="cls-26" points="2289.46 1886.7 1576.23 1886.7 1357.55 801.74 1380.79 797.06 1595.63 1862.99 2289.46 1862.99 2289.46 1886.7"/><rect class="cls-24" x="2343.1" y="1966.67" width="1145.87" height="55.77"/><rect class="cls-27" x="3259.96" y="1966.67" width="229" height="55.77"/><polygon class="cls-10" points="2449.79 2593.57 2425.25 2593.57 2413.51 2022.44 2461.52 2022.44 2449.79 2593.57"/><polygon class="cls-10" points="3200.1 2593.57 3175.57 2593.57 3163.83 2022.44 3211.84 2022.44 3200.1 2593.57"/><polygon class="cls-14" points="3398.86 2593.57 3374.32 2593.57 3362.59 2022.44 3410.6 2022.44 3398.86 2593.57"/><rect class="cls-10" x="2437.52" y="2214.48" width="750.32" height="21.34"/><path class="cls-24" d="M3861,1756c10.28,44.08-31.63,273.63-46.35,331.27-38.5-3.06-76.67-1.39-115.09-6.23C3704.86,1964.09,3755.19,1817.32,3861,1756Z"/><path class="cls-9" d="M3760.74,2086.19l-4.47-.63a162.81,162.81,0,0,1,3.65-17.64,153.42,153.42,0,0,0,3.92-19.66,206.9,206.9,0,0,0,1-23c.1-9.32.2-19,1.49-28.19l.69-5c2.1-15.23,3.91-28.39,8.31-45.42l1-3.69c4.41-17.14,7.9-30.69,17-51.83,1.45-3.34,3-7,4.73-11,9.76-22.79,23.13-54,34.35-74.33l3.95,2.18c-11.11,20.14-24.43,51.23-34.15,73.93l-4.73,11c-9,20.82-12.46,34.21-16.82,51.17l-1,3.69c-4.34,16.77-6.13,29.81-8.21,44.91l-.7,5c-1.24,8.92-1.34,18.42-1.43,27.61a212.44,212.44,0,0,1-1.08,23.54,159,159,0,0,1-4,20.19A158.48,158.48,0,0,0,3760.74,2086.19Z"/><path class="cls-9" d="M3792.65,1894.32c-7.48-19-14.15-37.48-19.84-55l4.29-1.39c5.66,17.38,12.3,35.79,19.75,54.7Z"/><path class="cls-9" d="M3775.39,1948.93c-11.38-18.91-20.61-39.61-29-65.15l4.29-1.42c8.31,25.22,17.4,45.63,28.6,64.24Z"/><path class="cls-9" d="M3766.69,1999a333.7,333.7,0,0,1-40.18-62.62l4-2a328.66,328.66,0,0,0,39.64,61.79Z"/><path class="cls-9" d="M3764.75,2051c-20.29-14.39-36.36-33.56-52.11-62.16l4-2.18c15.41,28,31.06,46.68,50.77,60.66Z"/><path class="cls-9" d="M3795.76,1895.51l-2-4c11.6-5.83,23.6-11.28,35.2-16.55,7.35-3.34,15-6.79,22.36-10.3l1.93,4.08c-7.44,3.53-15.06,7-22.42,10.33C3819.23,1884.29,3807.28,1889.72,3795.76,1895.51Z"/><path class="cls-9" d="M3778.48,1949.7l-2.32-3.88c5.05-3,10.11-6.11,15-9.1,15.58-9.55,31.69-19.43,49-27.33l1.88,4.11c-17,7.78-32.31,17.15-48.49,27.06C3788.61,1943.57,3783.54,1946.68,3778.48,1949.7Z"/><path class="cls-9" d="M3769.76,1999.38l-2.64-3.66,3.73-2.69c17.68-12.76,36-26,55-37.46l2.33,3.86c-18.87,11.41-37.08,24.55-54.68,37.26Z"/><path class="cls-9" d="M3767.32,2051l-2.53-3.73c11-7.43,21-16.52,30.64-25.31,7.65-7,15.56-14.14,24-20.55l2.73,3.59c-8.25,6.29-16.09,13.41-23.67,20.3C3788.67,2034.23,3778.55,2043.43,3767.32,2051Z"/><path class="cls-2" d="M3642.14,1666.81c-10.28,62.28,31.64,386.53,46.35,468,38.51-4.32,76.68-2,115.09-8.79C3798.25,1960.73,3747.91,1753.4,3642.14,1666.81Z"/><path class="cls-9" d="M3741.93,2133c-.94-9.39-2.22-16.68-3.58-24.4-1.48-8.35-3-17-4-28.37-.9-10.18-1-21.31-1.07-33.1-.1-13-.2-26.48-1.45-39.18l-.69-7.07c-2.08-21.36-3.88-39.81-8.23-63.58l-.95-5.21c-4.38-24-7.83-43-16.86-72.44-1.44-4.72-3-10-4.73-15.56-9.73-32.08-23.06-76-34.18-104.5l5-1.95c11.19,28.68,24.56,72.73,34.31,104.9,1.7,5.59,3.29,10.82,4.73,15.54,9.12,29.78,12.6,48.87,17,73.05l.95,5.2c4.39,24,6.2,42.55,8.3,64l.69,7.07c1.28,12.93,1.38,26.52,1.47,39.66.09,11.68.17,22.71,1.05,32.67,1,11.16,2.49,19.67,3.94,27.91,1.32,7.48,2.68,15.2,3.63,24.8Z"/><path class="cls-9" d="M3710.94,1861.72l-5.17-1.44c7.45-26.74,14.1-52.76,19.77-77.34l5.22,1.21C3725.08,1808.81,3718.41,1834.91,3710.94,1861.72Z"/><path class="cls-9" d="M3728.25,1938.71l-4.93-2.11c11.22-26.34,20.33-55.24,28.66-90.94l5.23,1.22C3748.8,1882.89,3739.6,1912.07,3728.25,1938.71Z"/><path class="cls-9" d="M3737,2009.32l-4.64-2.68c15.29-26.5,28.28-55.1,39.71-87.43l5,1.79C3765.56,1953.64,3752.44,1982.53,3737,2009.32Z"/><path class="cls-9" d="M3739,2082.8l-3.8-3.79c19.72-19.76,35.4-46.23,50.84-85.83l5,2C3775.27,2035.45,3759.22,2062.49,3739,2082.8Z"/><path class="cls-9" d="M3706.8,1863.18c-11.5-8.17-23.45-15.84-35-23.25-7.37-4.73-15-9.61-22.44-14.59l3-4.46c7.4,4.95,15,9.82,22.34,14.53,11.61,7.45,23.62,15.15,35.23,23.4Z"/><path class="cls-9" d="M3724.05,1939.7c-5.07-4.27-10.14-8.66-15-12.91-16.17-14-31.44-27.21-48.43-38.19l2.91-4.5c17.31,11.18,33.43,25.14,49,38.64,4.89,4.23,9.95,8.61,15,12.86Z"/><path class="cls-9" d="M3732.75,2009.86l-3.74-3.8c-17.59-18-35.79-36.51-54.65-52.6l3.48-4.08c19,16.24,37.32,34.89,55,52.92l3.73,3.81Z"/><path class="cls-9" d="M3735.19,2082.84c-11.23-10.75-21.36-23.75-31.15-36.32-7.58-9.72-15.42-19.78-23.67-28.66l3.93-3.65c8.41,9,16.32,19.2,24,29,9.67,12.41,19.68,25.25,30.63,35.74Z"/><path class="cls-24" d="M3586.85,1900.79c-11.51,49.41,35.47,306.69,52,371.29,43.16-3.43,85.94-1.55,129-7C3761.83,2134,3705.41,1969.49,3586.85,1900.79Z"/><path class="cls-9" d="M3699.19,2270.84a177.91,177.91,0,0,0-4-19.26,177.1,177.1,0,0,1-4.51-22.62c-1-8.14-1.1-17-1.2-26.39-.11-10.29-.22-20.94-1.62-31l-.77-5.6c-2.33-16.93-4.35-31.54-9.21-50.35l-1.06-4.14c-4.89-19-8.76-34-18.85-57.34-1.62-3.75-3.4-7.9-5.3-12.34-10.9-25.44-25.83-60.28-38.28-82.86l4.43-2.44c12.57,22.79,27.55,57.77,38.5,83.31l5.29,12.32c10.25,23.69,14.16,38.87,19.1,58.09l1.07,4.13c4.93,19.1,7,33.85,9.32,50.93l.77,5.59c1.44,10.33,1.55,21.14,1.66,31.6.1,9.24.19,18,1.17,25.81a175.31,175.31,0,0,0,4.39,22,181,181,0,0,1,4.1,19.77Z"/><path class="cls-9" d="M3663.43,2055.79l-4.71-1.85c8.35-21.21,15.79-41.83,22.13-61.31l4.81,1.56C3679.29,2013.77,3671.81,2034.49,3663.43,2055.79Z"/><path class="cls-9" d="M3682.77,2117l-4.33-2.61c12.55-20.85,22.74-43.73,32.06-72l4.8,1.58C3705.86,2072.6,3695.53,2095.81,3682.77,2117Z"/><path class="cls-9" d="M3692.52,2173.09l-3.92-3.2a369.22,369.22,0,0,0,44.43-69.26l4.52,2.26A373.88,373.88,0,0,1,3692.52,2173.09Z"/><path class="cls-9" d="M3694.69,2231.41l-2.92-4.12c22.09-15.67,39.64-36.64,56.9-68l4.43,2.44C3735.45,2193.79,3717.44,2215.28,3694.69,2231.41Z"/><path class="cls-9" d="M3659.94,2057.12c-12.91-6.49-26.31-12.57-39.27-18.46-8.26-3.75-16.8-7.62-25.14-11.57l2.17-4.57c8.3,3.93,16.82,7.79,25.06,11.54,13,5.9,26.45,12,39.45,18.55Z"/><path class="cls-9" d="M3679.31,2117.86c-5.68-3.39-11.36-6.87-16.86-10.24-18.13-11.11-35.26-21.61-54.35-30.34l2.11-4.6c19.36,8.86,37.42,19.92,54.88,30.63,5.49,3.36,11.16,6.83,16.81,10.21Z"/><path class="cls-9" d="M3689.08,2173.54l-4.18-3c-19.73-14.24-40.13-29-61.29-41.75l2.62-4.33c21.33,12.89,41.81,27.68,61.63,42l4.17,3Z"/><path class="cls-9" d="M3691.81,2231.44c-12.58-8.53-23.93-18.84-34.9-28.81-8.5-7.72-17.28-15.7-26.53-22.74l3.06-4c9.43,7.18,18.29,15.24,26.87,23,10.84,9.85,22.05,20,34.34,28.37Z"/><path class="cls-24" d="M3883.5,1940.81c10.28,44.09-31.64,273.63-46.35,331.27-38.51-3.06-76.68-1.38-115.09-6.22C3727.39,2148.88,3777.73,2002.11,3883.5,1940.81Z"/><path class="cls-18" d="M3783.28,2271l-4.47-.63a163.31,163.31,0,0,1,3.65-17.64,155,155,0,0,0,3.92-19.65,209.45,209.45,0,0,0,1-23c.1-9.33.2-19,1.48-28.19l.7-5c2.09-15.24,3.91-28.4,8.31-45.43l1-3.68c4.41-17.15,7.9-30.69,17-51.83,1.45-3.34,3-7,4.73-11,9.76-22.79,23.13-54,34.34-74.32l4,2.18c-11.1,20.13-24.42,51.22-34.14,73.91-1.7,4-3.29,7.67-4.74,11-9,20.82-12.45,34.21-16.81,51.17l-.95,3.68c-4.34,16.78-6.13,29.82-8.21,44.92l-.7,5c-1.24,8.93-1.34,18.43-1.44,27.62a212.77,212.77,0,0,1-1.07,23.54,158.42,158.42,0,0,1-4,20.18A158.48,158.48,0,0,0,3783.28,2271Z"/><path class="cls-18" d="M3815.19,2079.11c-7.48-19-14.16-37.49-19.84-55l4.29-1.4c5.66,17.39,12.3,35.79,19.74,54.7Z"/><path class="cls-18" d="M3797.92,2133.71c-11.38-18.9-20.6-39.6-29-65.15l4.29-1.41c8.31,25.21,17.4,45.63,28.6,64.23Z"/><path class="cls-18" d="M3789.23,2183.76a333.78,333.78,0,0,1-40.18-62.63l4-2a329,329,0,0,0,39.64,61.79Z"/><path class="cls-18" d="M3787.29,2235.8c-20.29-14.4-36.36-33.57-52.11-62.17l4-2.17c15.4,28,31.06,46.68,50.77,60.66Z"/><path class="cls-18" d="M3818.3,2080.3l-2-4c11.6-5.83,23.6-11.28,35.2-16.55,7.35-3.33,15-6.78,22.36-10.29l1.93,4.08c-7.44,3.52-15.06,7-22.42,10.32C3841.77,2069.07,3829.81,2074.5,3818.3,2080.3Z"/><path class="cls-18" d="M3801,2134.48l-2.31-3.87c5.05-3,10.11-6.11,15-9.11,15.58-9.55,31.69-19.42,49-27.32l1.87,4.1c-17,7.79-32.3,17.15-48.48,27.06C3811.15,2128.35,3806.08,2131.46,3801,2134.48Z"/><path class="cls-18" d="M3792.3,2184.16l-2.64-3.66,3.74-2.69c17.67-12.76,35.95-26,55-37.45l2.33,3.86c-18.87,11.4-37.07,24.54-54.67,37.25Z"/><path class="cls-18" d="M3789.86,2235.82l-2.53-3.73c11-7.43,21-16.52,30.64-25.31,7.65-7,15.56-14.14,24-20.54l2.73,3.59c-8.25,6.28-16.09,13.4-23.67,20.29C3811.21,2219,3801.09,2228.21,3789.86,2235.82Z"/><path class="cls-7" d="M3885.11,2599.88H3598.9L3553,2310.55c-4.14-26.09,8.68-48.09,28.79-48.09h320.43c20.11,0,32.92,22,28.78,48.09Z"/><path class="cls-28" d="M3922.5,2364.19l-37.4,235.69H3598.91l-6.76-42.58C3753.79,2519.62,3860.52,2432.33,3922.5,2364.19Z"/><path class="cls-15" d="M1117.16,2529.16c-33.73,15.32-77.24,21.52-66.57,0-4.41-4.89-10.46-5.75-20.68-8.15a137.09,137.09,0,0,0,12.18-41.7s68.37-69.7,68.37,0A182.71,182.71,0,0,0,1117.16,2529.16Z"/><path class="cls-29" d="M1125,2591.07c-21.07,18.44-239,32.87-167.06-3.94,20.89-10.7,53.61-28.06,72-66.15,10.22,2.4,26,5.47,30.42,10.36-10.67,21.55,23.1,13.14,56.83-2.18C1126.25,2562.24,1139.92,2578,1125,2591.07Z"/><path class="cls-16" d="M1111.14,2495.58c-12.36,3.41-42.15,10.08-73.71,5.75a143.84,143.84,0,0,0,4.36-20.06c18.58-.3,53.85-3.7,68.61-5.22,0,1,.06,2.11.06,3.23Q1110.46,2487.91,1111.14,2495.58Z"/><path class="cls-16" d="M1111.14,2495.58c-12.36,3.41-42.15,10.08-73.71,5.75a143.84,143.84,0,0,0,4.36-20.06c18.58-.3,53.85-3.7,68.61-5.22,0,1,.06,2.11.06,3.23Q1110.46,2487.91,1111.14,2495.58Z"/><path class="cls-29" d="M1306.44,2479.28c9.2,68.39,56.84,93.87,84.17,107.85,72,36.81-146,22.36-167,3.95S1238,2549,1238,2479.28,1306.44,2479.28,1306.44,2479.28Z"/><path class="cls-15" d="M1231.35,2529.16c33.73,15.32,77.24,21.52,66.57,0,4.41-4.89,10.46-5.75,20.68-8.15a137.09,137.09,0,0,1-12.18-41.7s-68.37-69.7-68.37,0A182.71,182.71,0,0,1,1231.35,2529.16Z"/><path class="cls-16" d="M1237.37,2495.58c12.36,3.41,42.15,10.08,73.71,5.75a143.84,143.84,0,0,1-4.36-20.06c-18.58-.3-53.85-3.7-68.61-5.22,0,1-.06,2.11-.06,3.23Q1238.05,2487.91,1237.37,2495.58Z"/><path class="cls-29" d="M1223.56,2591.07c21.07,18.44,239,32.87,167.06-3.94-20.89-10.7-53.61-28.06-72-66.15-10.22,2.4-26,5.47-30.42,10.36,10.67,21.55-23.1,13.14-56.83-2.18C1222.26,2562.24,1208.59,2578,1223.56,2591.07Z"/><path class="cls-18" d="M996.94,1575.05c-2.89,505.48,7.06,918,7.06,918s82.51,4.26,132.3-8.54c0-170.71,6.16-506.43,28.92-701.32,38.41,194.89,42.21,695.63,42.21,695.63s71.13,14.91,126.61-7.11c0-391.2-42.68-896.68-42.68-896.68Z"/><g class="cls-19"><path d="M1040.1,2493.75c-21.07.09-36.1-.68-36.1-.68s-10-412.54-7-918h10.46C1018.67,2055.84,1038,2451.69,1040.1,2493.75Z"/></g><path class="cls-30" d="M1052.37,1651.33a96.1,96.1,0,0,1-4.12,19.69,121.67,121.67,0,0,1-7.55,18.57,80.2,80.2,0,0,1-11.25,17,36.09,36.09,0,0,1-8,6.92,15.16,15.16,0,0,1-5.18,2,7.24,7.24,0,0,1-2.86-.1,3.85,3.85,0,0,1-2.25-1.48,3.63,3.63,0,0,0,2.31.14,6.71,6.71,0,0,0,2-.9,16,16,0,0,0,3.23-3.05,59.29,59.29,0,0,0,5.18-7.68c3.16-5.44,6-11.15,9-16.88s5.88-11.52,9-17.26A151.54,151.54,0,0,1,1052.37,1651.33Z"/><path class="cls-30" d="M1265.75,1645.64a26.64,26.64,0,0,1,2.15,3.71c.64,1.26,1.22,2.53,1.78,3.8,1.11,2.54,2.1,5.09,3,7.64,1.86,5.12,3.47,10.24,5,15.36s2.89,10.23,4.32,15.32c.7,2.56,1.43,5.1,2.23,7.64a71.2,71.2,0,0,0,2.85,7.7,22.63,22.63,0,0,1-6.65-5.55,44.3,44.3,0,0,1-4.88-7.07,74.43,74.43,0,0,1-6.4-15.54,95.51,95.51,0,0,1-3.22-16.28A84.9,84.9,0,0,1,1265.75,1645.64Z"/><path class="cls-29" d="M996.41,1623c156.25,6.93,198.22,4.56,298.9-1.62,0-13.68-2-22.3-2.8-32.39-73.35,13-278.73,5-295.57,2.29C997.27,1605.28,996.41,1623,996.41,1623Z"/><rect class="cls-24" x="1123.5" y="1591.28" width="79.66" height="43.99" rx="15.36"/><path class="cls-15" d="M1660.51,1366.4S1692,1369,1701.22,1354s4.38-18.35-41.19-16.6c-69.22,2.67-157.78,138.3-303.23,14l-41.26,95.31c212,83.36,231.39,15.16,340-7.83,71.29-15.08,94.68,7.9,106.77-22.68s2.75-57.19-17.87-60-43.21-2.21-43.21-2.21"/><path class="cls-16" d="M1701.22,1354a21.49,21.49,0,0,1-4.94,6.61,29.47,29.47,0,0,1-6.87,4.84,32.85,32.85,0,0,1-8,2.86,35.35,35.35,0,0,1-4.2.69c-1.41.16-2.83.17-4.24.21l2.54-1.46a22.3,22.3,0,0,1-11.88,9.77,38.76,38.76,0,0,1-7.12,1.71c-2.35.35-4.67.6-7.07.91a42.72,42.72,0,0,1,6.25-3.56c2.11-1,4.17-2,6-3.14a25,25,0,0,0,5-3.8,24.56,24.56,0,0,0,3.7-4.86l.81-1.38,1.73-.08,1.85-.09c.62,0,1.24,0,1.85-.09,1.22-.17,2.46-.18,3.66-.44l1.83-.29,1.79-.41a13.56,13.56,0,0,0,1.8-.46c.59-.18,1.21-.3,1.78-.52a46.05,46.05,0,0,0,7-2.88A44.43,44.43,0,0,0,1701.22,1354Z"/><path class="cls-16" d="M1694.27,1371.09a117.5,117.5,0,0,1,17.54-3q8.82-.87,17.68-.88a148.57,148.57,0,0,1,17.73,1,86.19,86.19,0,0,1,8.82,1.56,41.23,41.23,0,0,1,4.34,1.24,27.29,27.29,0,0,1,4.15,1.78c-3-.17-5.87-.21-8.81-.12l-8.74.2c-5.83.14-11.66.27-17.49.25s-11.69-.11-17.56-.4A168.64,168.64,0,0,1,1694.27,1371.09Z"/><path class="cls-16" d="M1694.27,1389.76a139.49,139.49,0,0,1,18.26-2.81q9.15-.85,18.33-1c6.11-.09,12.24.07,18.37.55,3.06.23,6.13.57,9.19,1,1.53.26,3,.48,4.58.85l2.28.55c.75.25,1.5.51,2.21.8-3.09,0-6.12.48-9.17.71s-6.08.5-9.12.72q-9.14.58-18.27.72c-6.09.07-12.19,0-18.3-.31A159.21,159.21,0,0,1,1694.27,1389.76Z"/><path class="cls-16" d="M1694.27,1408.43a125.42,125.42,0,0,1,17.49-2q8.74-.45,17.49-.16c5.82.2,11.64.63,17.46,1.39,2.9.39,5.8.86,8.69,1.49,1.45.31,2.89.66,4.32,1.09a13,13,0,0,1,4.12,1.79l-.53-.13-.55,0a9.67,9.67,0,0,0-1.08,0c-.72,0-1.45,0-2.17,0l-4.36.18c-2.91.12-5.81.2-8.71.27-5.8.11-11.6.08-17.39-.12s-11.6-.56-17.4-1.13A144.84,144.84,0,0,1,1694.27,1408.43Z"/><path class="cls-16" d="M1585.83,1461.83c-61,24.9-111.82,47.27-270.29-15l11.94-27.62C1471.31,1494.52,1524,1479.11,1585.83,1461.83Z"/><path class="cls-31" d="M1253.66,1239.09c12.8-10.09,100.29,105.54,130.88,117.14-29.17,70.93-78.24,127.53-80.38,126.82S1159.47,1313.29,1253.66,1239.09Z"/><g class="cls-32"><path d="M1316.07,1470.46c-6.78,8.27-11.29,12.8-11.91,12.59-1.1-.35-38.56-44.33-62.65-97.2C1266.17,1423.34,1298.74,1455.08,1316.07,1470.46Z"/></g><path class="cls-15" d="M610.16,1445.76c-22.07,2.53-60,14.8-46.39,59.79,13.52,44.82,43.66,15.31,113.09,12.1,123.06-5.69,184.94,77.53,320.08-127.32l-66.15-66.15C859,1466.43,780.86,1455.05,695.36,1434.43c-54.85-13.23-91.76-16.36-91.76,2.13C603.6,1436.56,605.83,1445.63,610.16,1445.76Z"/><path class="cls-16" d="M997,1390.32c-135.14,204.85-197,121.63-320.08,127.32-5.12.24-10,.62-14.73,1.1,7.47-1.87,15.56-3.59,24.34-4.92,117.8-18,187.48,52.69,293.9-140.07Z"/><path class="cls-31" d="M1018.31,1224.6c-91.22,28.71-109.61,143.56-145.13,175.69,58.32,62.59,93.17,91,93.17,88.19S1075.08,1206.74,1018.31,1224.6Z"/><g class="cls-32"><path d="M1005.22,1376.15c-18.5,58.18-38.86,111.08-38.86,112.33,0,1-4.32-1.9-12.5-8.78C963.16,1461.77,984.89,1420.16,1005.22,1376.15Z"/></g><path class="cls-31" d="M993,1235.67s-22.43,350.52-5.36,359,254.64,16.36,320.08-10.67c-.71-66.86-28.09-330.45-53.35-348.52C1171.86,1176.49,1060.91,1204.23,993,1235.67Z"/><g class="cls-32"><path d="M1075.84,1602.16c-46.11-1.27-81.94-4.32-88.2-7.44-8.56-4.26-7.2-94.39-3.7-183.24C997.72,1501.28,1028.54,1564.7,1075.84,1602.16Z"/></g><path class="cls-18" d="M1059.4,1211.75c12.43,24.06,22.45,49.33,31.62,74.79l3.44,9.53c.58,1.58,1.14,3.18,1.73,4.69.15.37.3.75.43,1l.09.19s.07.09-.08-.12a1.85,1.85,0,0,0-.47-.47c.29-.52-3.38-.77-3.59.62l.2-.27.21-.25.11-.12,1.76-1.93c4.64-5,9.36-9.85,14.16-14.66s9.75-9.47,14.8-14a193.36,193.36,0,0,1,15.87-13.13c1.43-1,2.89-2,4.44-2.91a30.1,30.1,0,0,1,5.09-2.48l1.59-.43a13.29,13.29,0,0,1,1.93-.19,12.7,12.7,0,0,1,1.91.3,15.45,15.45,0,0,1,1.62.58,20.91,20.91,0,0,1,4.9,3.22,62.49,62.49,0,0,1,7.41,7.62c2.23,2.66,4.34,5.37,6.33,8.16,4,5.57,7.71,11.28,11.3,17.06,1.79,2.88,3.56,5.81,5.27,8.69l.31.51.14.22a.74.74,0,0,0-.12-.13c-.73-.34,1.55.66-1.66-.77-2.24.36-1.73.88-2,.84l-.13.17,0,0,0,0,.1-.19.24-.5c.32-.71.64-1.48.95-2.25.62-1.53,1.23-3.1,1.82-4.67,2.38-6.27,4.55-12.65,6.69-19s4.12-12.82,6-19.3,3.52-13,4.84-19.59c.66-3.3,1.22-6.62,1.56-10a36.07,36.07,0,0,0-.08-10.06,36.21,36.21,0,0,1,1,10.12c-.09,3.4-.41,6.79-.83,10.17-.85,6.75-2.18,13.42-3.64,20q-4.58,19.86-11.1,39.18c-.55,1.62-1.11,3.23-1.7,4.84-.3.81-.6,1.62-.95,2.46l-.28.65-.18.38-.13.24-.11.17a1.68,1.68,0,0,1-.21.3c-.26,0,.22.56-2.07.93-3.27-1.44-1-.5-1.77-.87q-.17-.2-.3-.39l-.21-.32-.37-.56c-1.83-2.88-3.59-5.71-5.43-8.53-3.66-5.63-7.44-11.18-11.44-16.51-2-2.66-4-5.29-6.18-7.79a57.74,57.74,0,0,0-6.74-6.87,16.36,16.36,0,0,0-3.54-2.34c-.28-.12-.51-.16-.77-.27s-.39,0-.59-.1a4.69,4.69,0,0,1-.59.08c-.28.09-.56.17-.85.24a24.39,24.39,0,0,0-4,2c-1.35.81-2.69,1.73-4,2.67a188.17,188.17,0,0,0-15.45,12.6c-5,4.45-9.88,9.09-14.74,13.74s-9.65,9.4-14.32,14.21l-1.69,1.79-.1.1h0v0c-.24,1.43-4,1.19-3.72.63a2.67,2.67,0,0,1-.58-.59,4.22,4.22,0,0,1-.39-.67l-.18-.39c-.2-.47-.35-.89-.51-1.3-.6-1.66-1.14-3.25-1.66-4.87l-3.12-9.66C1078.34,1262.35,1069.59,1236.82,1059.4,1211.75Z"/><path class="cls-18" d="M1152.66,1254.54c6.47,28.78,12.37,57.66,18.06,86.58,2.91,14.45,5.6,28.93,8.39,43.4l4,21.72,2,10.9c.64,3.68,1.19,7.36,1.69,11a543.4,543.4,0,0,1,3.18,88.69,392.24,392.24,0,0,1-4.19,44.19,173.34,173.34,0,0,1-4.78,21.71,72.46,72.46,0,0,1-3.93,10.43,33.6,33.6,0,0,1-2.8,4.82,16,16,0,0,1-3.86,4,15.84,15.84,0,0,0,3.48-4.21,32.32,32.32,0,0,0,2.36-4.93,71.14,71.14,0,0,0,3.16-10.49,184,184,0,0,0,3.49-21.68c.81-7.29,1.37-14.6,1.73-21.93s.63-14.66.72-22c.15-14.68,0-29.36-.76-44s-1.76-29.3-3.68-43.78q-.69-5.43-1.58-10.82l-1.92-10.85-3.86-21.77c-2.47-14.52-5-29-7.41-43.58C1161.35,1312.85,1156.72,1283.74,1152.66,1254.54Z"/><path class="cls-15" d="M1094.08,1098.6c8.73,70.17,7.24,89.44-7.86,106.3,41.39,25,66.44,46.28,66.44,46.28s27.77-41.71,33.34-45.45c-16.77-33.61-9-75.71-9.84-78.53S1094.08,1098.6,1094.08,1098.6Z"/><path class="cls-16" d="M1175.45,1163.13c-18.41-2.58-39.89-8.39-72.79-52.4,23.3,7.5,72.91,14.4,73.5,16.48C1176.63,1128.87,1174.14,1144.07,1175.45,1163.13Z"/><path class="cls-15" d="M1157,937.76c27.56,15.07,35,48.21,44.21,89.42,8.75,39,21.16,94.47-5.22,114.9-29,22.49-93.79-6.07-128.5-46-42.23-48.6-36.61-110.25-35-123.88C1073.53,934.11,1123.88,919.66,1157,937.76Z"/><path class="cls-16" d="M1164.54,1011.54a38.52,38.52,0,0,0,1.14,8.23,49.73,49.73,0,0,0,2.58,7.64,60.11,60.11,0,0,0,8,13.66,27.58,27.58,0,0,0,5.25,5.27,9.45,9.45,0,0,0,1.35.81l.31.12.15.07.36.13.76.31.73.43a6.79,6.79,0,0,1,2.26,2.46,8.87,8.87,0,0,1,.85,2.77,14.62,14.62,0,0,1-.25,4.86,26.68,26.68,0,0,1-1.28,4.29,33.72,33.72,0,0,1-1.82,4,30.9,30.9,0,0,1-2.28,3.68c.5-2.83,1-5.6,1.27-8.33a34.27,34.27,0,0,0,.24-4,13,13,0,0,0-.44-3.53,3.93,3.93,0,0,0-.58-1.18,1.63,1.63,0,0,0-.66-.5l-.19-.08-.24,0-.49-.14-.69-.21a14.88,14.88,0,0,1-2.37-1.14,26.68,26.68,0,0,1-6.88-6.32,42.5,42.5,0,0,1-7.8-15.9,33.39,33.39,0,0,1-1-8.78A22.43,22.43,0,0,1,1164.54,1011.54Z"/><path class="cls-7" d="M1174.44,1006.75a12.23,12.23,0,0,1,2.54-5.8,14.74,14.74,0,0,1,4.86-4.07,11,11,0,0,1,6.77-1.2,7.5,7.5,0,0,1,3.31,1.38,6.09,6.09,0,0,1,2,2.74,19.39,19.39,0,0,0-3,0,11.43,11.43,0,0,0-2.3.53,30.54,30.54,0,0,0-4.13,1.81c-1.42.74-2.93,1.54-4.56,2.35A36,36,0,0,1,1174.44,1006.75Z"/><path class="cls-7" d="M1150.62,1012.44c-4.52-.7-8.82-1.53-13.06-2.16a59.63,59.63,0,0,0-12.34-.82,19.25,19.25,0,0,0-5.5,1.08,8.32,8.32,0,0,0-1.22.53c-.39.17-.9.49-1.36.73-.94.5-1.84,1-2.77,1.56-1.82,1.08-3.6,2.22-5.32,3.48a19.85,19.85,0,0,0-4.67,4.49,8.65,8.65,0,0,1,.84-3.4,18.31,18.31,0,0,1,1.72-3.09,30.1,30.1,0,0,1,4.66-5.22c.87-.75,1.75-1.52,2.68-2.2.49-.35.86-.69,1.45-1a14.77,14.77,0,0,1,1.73-1,19.58,19.58,0,0,1,7.36-1.85,35.06,35.06,0,0,1,13.89,2.23A40,40,0,0,1,1150.62,1012.44Z"/><path class="cls-7" d="M1123.32,1038.76c.47-1.12.74-2.22,1.2-3.29a24.14,24.14,0,0,1,1.53-3,22.09,22.09,0,0,1,4.42-5.31,15.46,15.46,0,0,1,6.49-3.5,9,9,0,0,1,4-.07,5.42,5.42,0,0,1,3.25,2.06,10.18,10.18,0,0,0-5.45,2.32c-1.47,1.09-2.9,2.36-4.41,3.67s-3.1,2.65-4.85,3.94c-.88.63-1.8,1.27-2.8,1.85a13.8,13.8,0,0,1-1.58.82A5.12,5.12,0,0,1,1123.32,1038.76Z"/><path class="cls-7" d="M1175.15,1026a11.54,11.54,0,0,1,.81-5.92,14.25,14.25,0,0,1,3.29-4.9,11.19,11.19,0,0,1,5.56-3,7.53,7.53,0,0,1,3.34.06,5.49,5.49,0,0,1,2.77,1.67,13.77,13.77,0,0,0-4.35,2.58c-1.1.91-2.1,1.93-3.22,3s-2.27,2.15-3.58,3.27A28.65,28.65,0,0,1,1175.15,1026Z"/><path class="cls-7" d="M1136.51,1025.81c4.18-.83,8.66,4,10,10.74s-1,12.91-5.15,13.74-8.66-4-10-10.74S1132.32,1026.64,1136.51,1025.81Z"/><path class="cls-16" d="M1114.09,1049.34c5.53-2.48,11.48-1.24,13.29,2.78s-1.22,9.29-6.75,11.78-11.48,1.24-13.29-2.78S1108.56,1051.82,1114.09,1049.34Z"/><ellipse class="cls-7" cx="1186.38" cy="1025.98" rx="5.92" ry="10.62" transform="translate(-176.45 249.56) rotate(-11.18)"/><path class="cls-3" d="M1153.34,1083.55c30.85-1.6,39.12-5.51,45-13.33C1200.82,1117,1185.88,1124.45,1153.34,1083.55Z"/><path class="cls-18" d="M1072.65,1091.26c-.89-1.7-18.24-24-4.51-46.38a46.09,46.09,0,0,1,20-17.4c-7.17-34.78-24.14-47.41-19.32-55.4,18.33-30.41,130.23,19.6,150.1-13.53,7.19-12,.68-32.15-9-42.51-15.41-16.45-35.51-4.62-65.71-22.55-19.74-11.72-19.37-21.64-31.57-22.55-19.82-1.47-23.64,24.51-55.4,41.88-33.16,18.13-56.13,4.64-67.64,22.54-8.75,13.61,3.46,23-2.58,52.83-5.4,26.69-17.75,31.61-17.39,46.38C969.91,1048.45,1055.26,1098.34,1072.65,1091.26Z"/><path class="cls-16" d="M610.16,1445.76c4.07.43,8,1.1,11.9,1.72,2,.31,3.88.63,5.79.88a50.18,50.18,0,0,0,5.53.52l1,0,.88.88,6.65,6.61a73,73,0,0,0,6.82,5.93,23.8,23.8,0,0,0,7.72,3.93,44.2,44.2,0,0,0,9.28,1.39,22.91,22.91,0,0,1-9.78,2,20.14,20.14,0,0,1-5.18-.83c-.83-.27-1.67-.57-2.47-.91a24.24,24.24,0,0,1-2.34-1.16,43.06,43.06,0,0,1-8.09-6,91.25,91.25,0,0,1-6.75-7l1.9.9a36.78,36.78,0,0,1-6.25-1.26c-2-.57-3.91-1.24-5.79-2s-3.74-1.58-5.55-2.49A53.61,53.61,0,0,1,610.16,1445.76Z"/><path class="cls-16" d="M561.49,1480.87a85.18,85.18,0,0,1,13.7-7.24,125.53,125.53,0,0,1,14.5-5.16,101.15,101.15,0,0,1,15.13-3.19c5.12-.63,10.45-1,15.6.23-5,1.29-9.8,2.84-14.63,4.32s-9.62,2.94-14.47,4.34-9.73,2.69-14.68,3.87A137.39,137.39,0,0,1,561.49,1480.87Z"/><path class="cls-16" d="M562.32,1499.87a107.26,107.26,0,0,1,14.73-7.73c5.06-2.21,10.2-4.19,15.44-5.89a138.36,138.36,0,0,1,16-4.27c1.35-.29,2.73-.51,4.11-.72l2.06-.31,2.1-.22,2.09-.17c.71,0,1.42,0,2.13,0a16.79,16.79,0,0,1,2.12.06c.71.09,1.42.17,2.1.29-1.38.43-2.66.75-4,1.27l-1.92.69-1.92.74-7.66,2.9c-5.11,1.88-10.25,3.73-15.44,5.41s-10.44,3.26-15.75,4.64A137.76,137.76,0,0,1,562.32,1499.87Z"/><path class="cls-16" d="M569.5,1518.8a113.2,113.2,0,0,1,15.51-7.73c5.31-2.21,10.71-4.14,16.21-5.83A149.09,149.09,0,0,1,618,1501.1c1.43-.25,2.85-.49,4.29-.7s2.88-.35,4.33-.49,2.91-.19,4.37-.22a42.54,42.54,0,0,1,4.38.18l-16.19,5.74q-8.05,2.81-16.21,5.3c-5.45,1.66-10.93,3.2-16.49,4.57A154.53,154.53,0,0,1,569.5,1518.8Z"/><path class="cls-33" d="M1065.56,1059.77c-53.29-31.72-40.66,21-27.55,29.64s37,21.61,42.57,2.57C1080.58,1092,1079.25,1067.91,1065.56,1059.77Z"/><g class="cls-13"><path class="cls-31" d="M1005.68,1055c-6.27-4-11.89-7.87-16.48-11.45,14.09-23.88,52.69-41.52,77-49.45,1.56,2.93,3.3,6.27,5,10.08C1052.39,1015.69,1022.47,1040.61,1005.68,1055Z"/></g><path class="cls-18" d="M2543.18,1967.4h-53.07c-15.2,0-30-12.88-33.27-30.45l-18.43-97.58h156.48L2576.46,1937C2573.14,1954.52,2558.38,1967.4,2543.18,1967.4Z"/><path class="cls-2" d="M2343.1,1636c64.74,42.28,65,110.75,124.35,125.3s61.45-11.95,42.48-64.78S2369,1627.87,2343.1,1636Z"/><path class="cls-18" d="M2516.66,1876.65l-.73,0a7.42,7.42,0,0,1-6.66-8.09,443.69,443.69,0,0,0,1-60.79c-2.23-36.58-10.44-59.37-22.52-62.53a7.41,7.41,0,1,1,3.75-14.33c19.53,5.1,30.82,30.71,33.57,76.11a450.34,450.34,0,0,1-1,63A7.4,7.4,0,0,1,2516.66,1876.65Z"/><path class="cls-18" d="M2517.7,1811.05a7.42,7.42,0,0,1-6.95-10c.67-1.83,16.78-44.93,50.58-59.71a7.41,7.41,0,1,1,5.94,13.57c-28,12.23-42.47,50.85-42.61,51.24A7.42,7.42,0,0,1,2517.7,1811.05Z"/><path class="cls-2" d="M2630.89,1625.48c13.87,81.56,2.18,123.25-25.4,141.08s-60.88,9.21-69.73-17.86S2624.68,1606.53,2630.89,1625.48Z"/><path class="cls-24" d="M2586,1886.55l-9.52,50.39c-3.31,17.57-18.07,30.46-33.28,30.46h-53.05c-10.93,0-21.66-6.7-28-17C2499.81,1939.81,2552.86,1919.9,2586,1886.55Z"/><path class="cls-3" d="M758.34,933.54a229.75,229.75,0,0,0,95.74-186.78c0-127-103-230-230-230s-230,103-230,230,103,230,230,230a229.84,229.84,0,0,0,68.68-10.43c31.91,42.19,65.85,62.2,163.71,35.85C805.69,990.28,763.1,967.34,758.34,933.54Z"/><path class="cls-11" d="M782.14,1020.8c-44.06,0-69-17.52-91.92-46.65a237.36,237.36,0,1,1,75.53-37.71c6.34,25.4,39.58,46.84,92.22,59.23l25.95,6.11-25.74,6.93C827.5,1017,802.73,1020.8,782.14,1020.8Zm-86.92-62.25,2.86,3.77c17.82,23.54,33.34,35.48,53.59,41.21,19.92,5.62,45.12,5.09,78.14-1.81-16.89-5.59-31.6-12.37-43.34-20-20.55-13.39-32.26-29.28-34.79-47.24l-.56-4,3.29-2.37a224.06,224.06,0,0,0,93-181.32c0-123.13-100.18-223.31-223.32-223.31S400.73,623.63,400.73,746.76,500.91,970.08,624,970.08A223.53,223.53,0,0,0,690.71,960Z"/><path class="cls-2" d="M625.22,604.2C546.77,604.2,483,668,483,746.47s63.82,142.28,142.27,142.28,142.27-63.83,142.27-142.28S703.67,604.2,625.22,604.2Zm0,257.08A114.81,114.81,0,1,1,740,746.47,114.94,114.94,0,0,1,625.22,861.28Z"/><circle class="cls-9" cx="625.22" cy="746.47" r="114.81" transform="translate(-344.72 660.73) rotate(-45)"/><path class="cls-2" d="M614.4,825.24V807.15c-12.75-.58-25.13-4-32.37-8.19l5.72-22.28a67.2,67.2,0,0,0,31.61,8.38c10.85,0,18.28-4.19,18.28-11.81,0-7.23-6.1-11.81-20.19-16.57-20.37-6.85-34.27-16.37-34.27-34.84,0-16.76,11.8-29.9,32.18-33.9V669.85H634v16.76c12.76.57,21.32,3.24,27.61,6.28l-5.52,21.52c-5-2.09-13.71-6.47-27.42-6.47-12.38,0-16.38,5.33-16.38,10.66,0,6.28,6.66,10.28,22.85,16.38,22.66,8,31.8,18.47,31.8,35.61,0,16.94-12,31.41-33.89,35.22v19.43Z"/></svg>