<svg xmlns="http://www.w3.org/2000/svg" xmlns:xlink="http://www.w3.org/1999/xlink" viewBox="0 0 4680 3120"><defs><style>.cls-1{fill:#333;}.cls-2{fill:#fcc0a9;}.cls-3{fill:#ef4444;}.cls-4{fill:#fff;}.cls-5{opacity:0.13;}.cls-6{fill:#999;}.cls-7{fill:gray;}.cls-8{fill:#4d4d4d;}.cls-9{fill:#666;}.cls-10{fill:#ccc;}.cls-11{opacity:0.8;}.cls-12{fill:#b3b3b3;}.cls-13{fill:#1a1a1a;}.cls-14{fill:#2291f2;}.cls-15{fill:#0e1d73;}.cls-16{fill:#e6e6e6;}.cls-17{fill:#f2f2f2;}.cls-18{clip-path:url(#clip-path);}.cls-19{opacity:0.15;}.cls-20{clip-path:url(#clip-path-2);}.cls-21{fill:#0b1951;}.cls-22{opacity:0.3;}.cls-23{clip-path:url(#clip-path-3);}.cls-24{fill:#fc9a74;}.cls-25{fill:#d43c3c;}.cls-26{fill:#404040;}.cls-27{clip-path:url(#clip-path-4);}.cls-28{fill:#fdaf91;}.cls-29{fill:#bf3636;}.cls-30{fill:#c13434;}.cls-31{opacity:0.1;}.cls-32{clip-path:url(#clip-path-5);}.cls-33{clip-path:url(#clip-path-6);}</style><clipPath id="clip-path"><path class="cls-1" d="M1294.34,2527.26c-191.27,114.11-209.74,126.06-106.5,126.06h219.52s32.6,5.43,17.38-91.29S1294.34,2527.26,1294.34,2527.26Z"/></clipPath><clipPath id="clip-path-2"><path class="cls-1" d="M1744,2527.26c191.26,114.11,209.73,126.06,106.5,126.06H1631s-32.6,5.43-17.39-91.29S1744,2527.26,1744,2527.26Z"/></clipPath><clipPath id="clip-path-3"><path class="cls-2" d="M2064.85,1181.06c53.25-50.43,47.3-59,82.73-62.92s36,8.41,26.86,12.38c28.9-4.15,42.52-22.33,56.73-17.88s28.39,86.8-21.66,104-85.16-1.35-125.86,31.63C2037.62,1217.42,2064.85,1181.06,2064.85,1181.06Z"/></clipPath><clipPath id="clip-path-4"><path class="cls-2" d="M1183.49,1487.26c10.78,10.34,17.86,25.5,26.34,41.74,12.07,23,27,48.25,59.51,64.93,55.42,28.42,102.15-21.9,106.5-38.2,4.2-15.73-16.89-17.3-45.69-47.62a9.31,9.31,0,0,1-3.21-3.46q1.61,1.78,3.21,3.46c8,5.43,24.27,3.74,7.66-23-16.91-27.23-40.3-14.7-77.21-31.15a126.12,126.12,0,0,1-18.43-10.15Z"/></clipPath><clipPath id="clip-path-5"><path class="cls-3" d="M3365.25,742.31s60.78-10.13,104.67,8.44,11.82,86.94,20.85,179c87.2-.88,67.79,0,67.79,0s-12.66-36.33,33.76-78.54,92-156.17-19.41-198.37S3383.82,666.33,3365.25,742.31Z"/></clipPath><clipPath id="clip-path-6"><path class="cls-2" d="M3295.54,1039.28c47.82-76.62,33.35-108.42,63.57-129.87s43-27.16,51.1-21.19,43.15,24.91,23.89,47.17-30.43,46.29-40.21,72.92-22.28,21.73-35.32,43.47a264.18,264.18,0,0,0-20.1,41.29L3285.22,1067Z"/></clipPath></defs><g id="_5" data-name="5"><rect class="cls-4" width="4680" height="3120"/><g class="cls-5"><rect x="431.81" y="2338.23" width="3816.38" height="43.77"/><rect class="cls-6" x="1867.94" y="2187.65" width="695.43" height="270.47"/><path d="M2580.24,2475H1851.09V2170.79h729.15Zm-695.44-33.72h661.72V2204.5H1884.8Z"/><rect class="cls-6" x="1867.89" y="1917.17" width="695.43" height="270.47"/><path d="M2580.18,2204.5H1851V1900.31h729.15Zm-695.44-33.71h661.72V1934H1884.74Z"/><rect class="cls-6" x="3260.05" y="2187.65" width="695.43" height="270.47"/><path d="M3972.34,2475H3243.19V2170.79h729.15Zm-695.44-33.72h661.72V2204.5H3276.9Z"/><rect class="cls-6" x="3259.99" y="1917.17" width="695.43" height="270.47"/><path d="M3972.28,2204.5H3243.13V1900.31h729.15Zm-695.44-33.71h661.72V1934H3276.84Z"/><rect class="cls-6" x="2564.55" y="2187.65" width="695.43" height="270.47"/><path d="M3276.84,2475H2547.69V2170.79h729.15Zm-695.43-33.72h661.72V2204.5H2581.41Z"/><rect class="cls-6" x="2564.49" y="1917.17" width="695.43" height="270.47"/><path d="M3276.79,2204.5H2547.63V1900.31h729.16Zm-695.44-33.71h661.72V1934H2581.35Z"/><rect class="cls-1" x="3262.41" y="1634.41" width="104.07" height="266.98"/><rect class="cls-7" x="3283.49" y="1664.84" width="61.92" height="134.62"/><circle class="cls-7" cx="3314.45" cy="1843.29" r="22.48"/><rect class="cls-1" x="3153.37" y="1634.41" width="104.07" height="266.98"/><rect class="cls-7" x="3174.45" y="1664.84" width="61.92" height="134.62"/><circle class="cls-7" cx="3205.41" cy="1843.29" r="22.48"/><rect class="cls-1" x="3692" y="1875.25" width="104.07" height="266.98" transform="translate(1735.3 5752.78) rotate(-90)"/><rect class="cls-7" x="3677.34" y="1941.43" width="61.92" height="134.62" transform="translate(1699.56 5717.04) rotate(-90)"/><circle class="cls-7" cx="3819.43" cy="2008.74" r="22.48"/><rect class="cls-1" x="3692" y="1984.29" width="104.07" height="266.98" transform="translate(1626.26 5861.82) rotate(-90)"/><rect class="cls-7" x="3677.34" y="2050.47" width="61.92" height="134.62" transform="translate(1590.52 5826.08) rotate(-90)"/><circle class="cls-7" cx="3819.43" cy="2117.78" r="22.48"/><rect class="cls-8" x="2634.46" y="1972.61" width="100.57" height="197.67"/><rect class="cls-6" x="2634.46" y="2020.58" width="100.57" height="23.12"/><rect class="cls-6" x="2634.46" y="2099.19" width="100.57" height="23.12"/><rect class="cls-8" x="1984.2" y="2292.01" width="100.57" height="197.67" transform="translate(-356.36 4425.34) rotate(-90)"/><rect class="cls-6" x="1944.9" y="2379.29" width="100.57" height="23.12" transform="translate(-395.66 4386.04) rotate(-90)"/><rect class="cls-6" x="2023.51" y="2379.29" width="100.57" height="23.12" transform="translate(-317.06 4464.64) rotate(-90)"/><rect class="cls-8" x="2744.27" y="1972.61" width="78.61" height="197.67"/><rect class="cls-6" x="2736.23" y="2032.38" width="94.69" height="23.12" transform="translate(739.63 4827.52) rotate(-90)"/><rect class="cls-6" x="2763.54" y="2113.64" width="40.07" height="23.12" transform="translate(4908.78 -658.38) rotate(90)"/><rect class="cls-8" x="3316.38" y="2241.44" width="100.57" height="197.67"/><rect class="cls-6" x="3316.38" y="2289.41" width="100.57" height="23.12"/><rect class="cls-6" x="3316.38" y="2368.02" width="100.57" height="23.12"/><rect class="cls-8" x="3426.2" y="2241.44" width="78.61" height="197.67"/><rect class="cls-6" x="3418.16" y="2301.21" width="94.69" height="23.12" transform="translate(1152.74 5778.27) rotate(-90)"/><rect class="cls-6" x="3445.47" y="2382.47" width="40.07" height="23.12" transform="translate(5859.53 -1071.48) rotate(90)"/><rect class="cls-8" x="2994.93" y="2242.98" width="78.61" height="197.67" transform="translate(5376.05 -692.42) rotate(90)"/><rect class="cls-6" x="3014.39" y="2330.26" width="94.69" height="23.12"/><rect class="cls-6" x="2960.44" y="2330.26" width="40.07" height="23.12" transform="translate(5960.96 4683.63) rotate(180)"/><rect class="cls-9" x="2949.46" y="2381.12" width="228.88" height="59.53"/><rect class="cls-10" x="2962.95" y="2399.33" width="40.07" height="23.12" transform="translate(5393.87 -572.1) rotate(90)"/><rect class="cls-10" x="2997.63" y="2399.33" width="40.07" height="23.12" transform="translate(5428.55 -606.78) rotate(90)"/><rect class="cls-10" x="3032.31" y="2399.33" width="40.07" height="23.12" transform="translate(5463.23 -641.46) rotate(90)"/><rect class="cls-10" x="3069.3" y="2399.33" width="40.07" height="23.12" transform="translate(5500.22 -678.45) rotate(90)"/><rect class="cls-10" x="3107.83" y="2399.33" width="40.07" height="23.12" transform="translate(5538.75 -716.98) rotate(90)"/><rect class="cls-10" x="2994.54" y="2266.97" width="162.99" height="35.55"/><rect class="cls-8" x="3589.37" y="2244.34" width="78.61" height="197.67" transform="translate(7257.34 4686.36) rotate(180)"/><rect class="cls-6" x="3581.32" y="2359.12" width="94.69" height="23.12" transform="translate(5999.35 -1257.99) rotate(90)"/><rect class="cls-6" x="3608.63" y="2277.87" width="40.07" height="23.12" transform="translate(1339.25 5918.1) rotate(-90)"/><rect class="cls-9" x="3445.16" y="2298.94" width="228.88" height="59.53" transform="translate(5888.31 -1230.9) rotate(90)"/><rect class="cls-10" x="3539.56" y="2236.23" width="40.07" height="23.12" transform="translate(7119.2 4495.58) rotate(180)"/><rect class="cls-10" x="3539.56" y="2270.91" width="40.07" height="23.12" transform="translate(7119.2 4564.93) rotate(180)"/><rect class="cls-10" x="3539.56" y="2305.59" width="40.07" height="23.12" transform="translate(7119.2 4634.29) rotate(180)"/><rect class="cls-10" x="3539.56" y="2342.58" width="40.07" height="23.12" transform="translate(7119.2 4708.27) rotate(180)"/><rect class="cls-10" x="3539.56" y="2381.11" width="40.07" height="23.12" transform="translate(7119.2 4785.34) rotate(180)"/><rect class="cls-10" x="3604.25" y="2344.94" width="162.99" height="35.55" transform="translate(6048.46 -1323.03) rotate(90)"/><rect class="cls-8" x="2345.46" y="1972.61" width="78.61" height="197.67" transform="translate(4456.21 -313.32) rotate(90)"/><rect class="cls-6" x="2364.92" y="2059.89" width="94.69" height="23.12"/><rect class="cls-6" x="2310.98" y="2059.89" width="40.07" height="23.12" transform="translate(4662.03 4142.89) rotate(180)"/><rect class="cls-9" x="2300" y="2110.75" width="228.88" height="59.53"/><rect class="cls-10" x="2313.48" y="2128.96" width="40.07" height="23.12" transform="translate(4474.03 -193) rotate(90)"/><rect class="cls-10" x="2348.16" y="2128.96" width="40.07" height="23.12" transform="translate(4508.71 -227.68) rotate(90)"/><rect class="cls-10" x="2382.84" y="2128.96" width="40.07" height="23.12" transform="translate(4543.39 -262.36) rotate(90)"/><rect class="cls-10" x="2419.83" y="2128.96" width="40.07" height="23.12" transform="translate(4580.38 -299.35) rotate(90)"/><rect class="cls-10" x="2458.36" y="2128.96" width="40.07" height="23.12" transform="translate(4618.92 -337.88) rotate(90)"/><rect class="cls-10" x="2345.08" y="1996.6" width="162.99" height="35.55"/><rect class="cls-8" x="3040.78" y="1972.61" width="61.84" height="197.67"/><rect class="cls-6" x="3040.78" y="2020.58" width="61.84" height="23.12"/><rect class="cls-6" x="3040.78" y="2099.19" width="61.84" height="23.12"/><g class="cls-11"><rect class="cls-8" x="2969.59" y="1972.61" width="61.84" height="197.67"/><rect class="cls-6" x="2969.59" y="2020.58" width="61.84" height="23.12"/><rect class="cls-6" x="2969.59" y="2099.19" width="61.84" height="23.12"/></g><rect class="cls-10" x="1962.84" y="2297.17" width="199.41" height="43.49"/><path class="cls-9" d="M3508.89,1635c5,36.42-13.84,34,5.89,62.78s31.62,26.54,50.79,37.43,54.65-.67,60.08-15.82-7.74-17.56-7.55-39.51-41.94-41.28-63.08-44.38S3508.89,1635,3508.89,1635Z"/><path class="cls-1" d="M3535.63,1654.6a313.36,313.36,0,0,1,38,30.84,225.1,225.1,0,0,1,31.52,37.63c9,13.68,17,28.37,21.68,44.22a154.88,154.88,0,0,1,5.3,24.11,140.11,140.11,0,0,1,1.31,24.54.23.23,0,0,1-.24.23.26.26,0,0,1-.23-.2h0c-1.15-8.09-2.22-16.11-4.09-24l-.66-3c-.22-1-.4-2-.69-2.94l-1.6-5.83-.77-2.91-.93-2.87-1.87-5.73-.46-1.44-.54-1.4-1.07-2.82-2.11-5.64c-1.6-3.69-3.1-7.42-4.76-11.07l-2.65-5.43-1.32-2.71-.66-1.36-.74-1.32-3-5.25-1.49-2.63c-.26-.44-.49-.88-.76-1.31l-.82-1.27a222.8,222.8,0,0,0-30-38,327.06,327.06,0,0,0-36.59-32.11.24.24,0,0,1,.27-.39Z"/><path class="cls-1" d="M3522.51,1679c5.44,0,10.83.14,16.17-.1a79.32,79.32,0,0,0,7.91-.75,34.55,34.55,0,0,0,7.51-1.87,14.9,14.9,0,0,0,6.11-4,11.27,11.27,0,0,0,1.87-3,16.23,16.23,0,0,0,.86-3.59,28,28,0,0,0-.48-7.76c-.45-2.63-1.18-5.23-1.83-7.88a48.75,48.75,0,0,1,3.25,7.52,25,25,0,0,1,1.39,8.28,15.12,15.12,0,0,1-.73,4.33,13.67,13.67,0,0,1-2.15,4,17.44,17.44,0,0,1-7.21,5c-5.41,2-11,2.31-16.49,2.15A82.93,82.93,0,0,1,3522.51,1679Z"/><path class="cls-1" d="M3545,1704.68c5.91-1.12,11.85-1.93,17.7-3,2.92-.54,5.83-1.06,8.63-1.85a30,30,0,0,0,7.92-3.16,16.44,16.44,0,0,0,5.82-5.72,33.52,33.52,0,0,0,3.31-7.91c1.61-5.65,2.58-11.58,3.86-17.45a91.29,91.29,0,0,1-1.6,18,31.3,31.3,0,0,1-3.13,8.78,19.1,19.1,0,0,1-6.72,6.85,31.5,31.5,0,0,1-8.76,3.33,71.77,71.77,0,0,1-9,1.42A150.76,150.76,0,0,1,3545,1704.68Z"/><path class="cls-1" d="M3574.62,1717.21a18.08,18.08,0,0,1,6-1.47,55.54,55.54,0,0,1,6.18-.06c4,.08,8.11.3,11.13-1.43a9.85,9.85,0,0,0,3.63-3.75,22.68,22.68,0,0,0,2.09-5.32,108.27,108.27,0,0,0,2.19-11.89,40.19,40.19,0,0,1,.09,12.39,21.3,21.3,0,0,1-1.88,6.17,11.83,11.83,0,0,1-4.65,5,14.55,14.55,0,0,1-6.52,1.62,41.14,41.14,0,0,1-6.26-.48C3582.6,1717.45,3578.72,1716.69,3574.62,1717.21Z"/><path class="cls-9" d="M3648.38,1577.22c-11.35,28-6.56,29-16.63,49.76s3.14,37.45,2,67.34-12.47,53.55,10.45,60.27,31.19-1.34,43.68-17.78,32.08-77.33,14.62-120.13-41.45-60.22-41.45-60.22Z"/><path class="cls-1" d="M3648.14,1849.54c.82-10.42,1.81-20.81,2.87-31.18l1.61-15.56,1.67-15.55,1.76-15.53,1.86-15.52c1.32-10.34,2.48-20.69,3.56-31.06.54-5.18,1-10.37,1.5-15.55s.92-10.38,1.27-15.57c.8-10.39,1.38-20.78,1.66-31.18.09-2.61.16-5.21.17-7.8l0-3.91c0-1.29,0-2.59,0-3.89-.06-5.19-.3-10.42-.43-15.63-.28-10.44-.62-20.86-.6-31.31a.23.23,0,0,1,.24-.23.22.22,0,0,1,.23.22h0c.3,10.41,1,20.84,1.54,31.24.28,5.22.68,10.4.9,15.64.05,1.31.13,2.61.17,3.92l.08,3.92c.08,2.62.09,5.24.07,7.85-.05,10.46-.39,20.91-1,31.34-.23,5.22-.62,10.43-.92,15.65s-.73,10.42-1.15,15.62-.81,10.42-1.29,15.62-.89,10.4-1.39,15.6c-1,10.4-2.14,20.78-3.58,31.12s-2.95,20.67-4.67,31c-.86,5.15-1.73,10.3-2.68,15.44s-1.92,10.26-3,15.38a.24.24,0,0,1-.28.18A.25.25,0,0,1,3648.14,1849.54Z"/><path class="cls-1" d="M3646.86,1611.26c2.88,3.22,5.67,6.44,8.72,9.27a33.81,33.81,0,0,0,4.84,3.78,15.18,15.18,0,0,0,5.33,2.27c3.7.81,7.46-.75,10.55-3.4a59.56,59.56,0,0,0,8.38-9.42,32.67,32.67,0,0,1-6.79,11.13,16.43,16.43,0,0,1-5.63,3.94,12.16,12.16,0,0,1-3.49.87,12.78,12.78,0,0,1-3.6-.19,17.31,17.31,0,0,1-6.32-2.85,29,29,0,0,1-4.93-4.5A46.67,46.67,0,0,1,3646.86,1611.26Z"/><path class="cls-1" d="M3696.6,1638.47a138,138,0,0,1-11.41,16.28,57.78,57.78,0,0,1-7.05,7.21,25.41,25.41,0,0,1-9.07,5.11,15.4,15.4,0,0,1-10.63-.85,25.78,25.78,0,0,1-8.1-6.43,47.44,47.44,0,0,1-3.13-4c-.91-1.41-1.85-2.79-2.66-4.25a76,76,0,0,1-4.37-8.93c1.86,2.74,3.62,5.52,5.6,8.13a60.62,60.62,0,0,0,6.26,7.42,25.49,25.49,0,0,0,7.55,5.44,12.62,12.62,0,0,0,8.68.56,23.17,23.17,0,0,0,8.09-4.43,68.37,68.37,0,0,0,7.1-6.56C3688,1648.47,3692.15,1643.38,3696.6,1638.47Z"/><path class="cls-1" d="M3644.18,1689.72c2.57,4.11,5.24,8.15,8.62,11.3s7.6,5.08,12,4.65a20.63,20.63,0,0,0,6.52-1.6,43,43,0,0,0,6.21-3.2c4-2.47,7.84-5.41,11.75-8.31a57.21,57.21,0,0,1-10.44,10.24,36,36,0,0,1-6.4,3.87,22.83,22.83,0,0,1-7.44,2,16.07,16.07,0,0,1-7.73-1.38,18.86,18.86,0,0,1-6.14-4.63A34.6,34.6,0,0,1,3644.18,1689.72Z"/><path class="cls-1" d="M3687.27,1724.15c-3.71,2.93-7.18,6-10.85,9s-7.48,5.88-12.12,7.8a14.75,14.75,0,0,1-7.64,1,11.78,11.78,0,0,1-6.68-3.92,22.39,22.39,0,0,1-3.76-6.28,38.77,38.77,0,0,1-2-6.83c1.11,2.09,2.1,4.22,3.35,6.16a25.46,25.46,0,0,0,4.13,5.32,9.9,9.9,0,0,0,5.43,2.75,12.29,12.29,0,0,0,6.12-1,36.18,36.18,0,0,0,6-3.1c2-1.18,3.88-2.51,5.85-3.78A77.9,77.9,0,0,1,3687.27,1724.15Z"/><path class="cls-9" d="M3776.41,1671.7c-17,7.66-17.19,21.8-40.79,24.32s-41.39,37.07-41.77,51.14-3.92,45.67,30.79,34.67,35.21-55.11,42.64-62.8S3776.41,1671.7,3776.41,1671.7Z"/><path class="cls-1" d="M3698.38,1831.05a120.19,120.19,0,0,1,.59-17.9,177.33,177.33,0,0,1,2.78-17.72,155.63,155.63,0,0,1,11.82-33.88c.65-1.35,1.21-2.74,1.94-4l2.12-4c1.34-2.68,3-5.19,4.55-7.75,3.17-5.07,6.56-9.92,10-14.81s7-9.61,10.74-14.23c1.86-2.32,3.82-4.56,5.84-6.76,1-1.07,2.08-2.13,3.18-3.14.56-.5,1.11-1,1.71-1.46a9.94,9.94,0,0,1,1.94-1.25.23.23,0,0,1,.3.12.22.22,0,0,1-.09.29l-.06,0a17.53,17.53,0,0,0-3.29,2.79c-1,1.06-2,2.17-3,3.29-1.88,2.27-3.7,4.58-5.43,7-3.48,4.76-6.76,9.68-9.94,14.66s-6.38,10-9.28,15.08c-1.41,2.56-2.94,5.06-4.15,7.73l-1.91,4c-.66,1.31-1.15,2.7-1.74,4l-1.68,4.06-1.5,4.13c-.48,1.38-1,2.75-1.44,4.14l-1.28,4.2c-1.73,5.6-3.25,11.25-4.77,16.91-.72,2.84-1.5,5.67-2.12,8.54s-1.3,5.73-2,8.6c-1.21,5.76-2.37,11.56-3.39,17.41h0a.24.24,0,0,1-.47,0Z"/><path class="cls-1" d="M3733.56,1704.35c1.21,3.22,2.13,6.49,3.18,9.64a32,32,0,0,0,1.83,4.46,7,7,0,0,0,2.7,3.07,7.44,7.44,0,0,0,4.09.62,36.4,36.4,0,0,0,4.77-.78c3.23-.74,6.49-1.67,9.87-2.33a50.32,50.32,0,0,1-9.21,4.57,24.43,24.43,0,0,1-5.14,1.37,9.51,9.51,0,0,1-5.8-.82,8.15,8.15,0,0,1-2.36-2,12.18,12.18,0,0,1-1.47-2.47,23.4,23.4,0,0,1-1.53-5.1A53.45,53.45,0,0,1,3733.56,1704.35Z"/><path class="cls-1" d="M3711.35,1728.55a104.23,104.23,0,0,1,4.19,11.58c.64,1.93,1.22,3.86,1.94,5.71a26.85,26.85,0,0,0,2.46,5.24,11.71,11.71,0,0,0,1.64,2.12,7.36,7.36,0,0,0,2.05,1.41,8.41,8.41,0,0,0,5.16.17,27.54,27.54,0,0,0,5.47-2.14c1.83-.86,3.56-1.94,5.38-2.92a34.51,34.51,0,0,1-4.61,4.17,21.86,21.86,0,0,1-5.56,3.12,10.2,10.2,0,0,1-6.87.24,9.76,9.76,0,0,1-3.06-1.91,13.84,13.84,0,0,1-2.14-2.68c-2.28-3.83-3.26-7.92-4.11-11.94S3711.88,1732.65,3711.35,1728.55Z"/><path class="cls-1" d="M3707.33,1792.63h-93.28a7.21,7.21,0,0,0-7.13,8.29l13.85,91.66h-15.1l6.14,10.09h97.76l6.14-10.09h-15.1l13.85-91.66A7.21,7.21,0,0,0,3707.33,1792.63Z"/><circle class="cls-12" cx="960.29" cy="703.12" r="177.79" transform="translate(-215.92 884.97) rotate(-45)"/><path d="M960.29,892.94c-104.67,0-189.82-85.15-189.82-189.82S855.62,513.3,960.29,513.3s189.82,85.15,189.82,189.82S1065,892.94,960.29,892.94Zm0-355.57c-91.4,0-165.76,74.35-165.76,165.75s74.36,165.76,165.76,165.76S1126,794.52,1126,703.12,1051.69,537.37,960.29,537.37Z"/><path d="M896.93,766.05a12,12,0,0,1-6.23-22.33l57.56-34.79V572.74a12,12,0,0,1,24.06,0v143a12,12,0,0,1-5.81,10.3l-63.37,38.29A11.92,11.92,0,0,1,896.93,766.05Z"/><rect class="cls-7" x="2753.5" y="1040.04" width="314.48" height="424.4"/><path d="M3080.43,1476.88H2741.06V1027.6h339.37ZM2765.94,1452h289.6V1052.49h-289.6Z"/><path class="cls-8" d="M2910.74,1236.39h0a57.08,57.08,0,0,1,57.08,57.08v57.08a0,0,0,0,1,0,0H2853.66a0,0,0,0,1,0,0v-57.08A57.08,57.08,0,0,1,2910.74,1236.39Z"/><path d="M2968,1350.78h-114.6v-57.3a57.3,57.3,0,0,1,114.6,0Zm-114.17-.43h113.74v-56.87a56.87,56.87,0,0,0-113.74,0Z"/><circle class="cls-8" cx="2910.74" cy="1192.25" r="40.11" transform="translate(1081.64 3751.2) rotate(-76.72)"/><path d="M2910.74,1232.58a40.33,40.33,0,1,1,40.33-40.33A40.38,40.38,0,0,1,2910.74,1232.58Zm0-80.23a39.9,39.9,0,1,0,39.9,39.9A39.95,39.95,0,0,0,2910.74,1152.35Z"/><rect class="cls-7" x="3187.55" y="1052.98" width="298.72" height="403.13"/><path d="M3498.09,1467.92H3175.73V1041.16h322.36Zm-298.73-23.64h275.09V1064.8H3199.36Z"/><path class="cls-8" d="M3472.26,1297.93v71c-32.11-11.65-60.12-22.87-89.72-38.7-10.68-5.71-20.63-13.61-30.15-22.58,41.51-30.49,41.28-46.79,86.59-26.14C3455.25,1288.87,3457.52,1289.21,3472.26,1297.93Z"/><path d="M3472.67,1369.46l-.55-.2c-32.35-11.73-60-22.8-89.78-38.72-9.62-5.15-19.51-12.55-30.23-22.64l-.35-.33.39-.29c9.06-6.66,16-12.53,22.12-17.71,21.27-18,29.23-24.72,64.87-8.48,3.78,1.72,6.81,3.06,9.41,4.21a179.64,179.64,0,0,1,23.92,12.28l.2.12ZM3353,1307.64c10.52,9.87,20.24,17.13,29.7,22.18,29.57,15.81,57,26.83,89.12,38.47v-70.13a180.41,180.41,0,0,0-23.63-12.12c-2.6-1.15-5.63-2.49-9.41-4.21-35.18-16-42.44-9.88-64,8.36C3368.76,1295.3,3361.92,1301.09,3353,1307.64Z"/><path class="cls-13" d="M3486.27,1374v82.07H3187.54V1301.47c15.08-41.17,17.86-73.84,48.67-78.3,45.36-6.56,77.21,47.77,116.18,84.43,9.52,9,19.47,16.87,30.15,22.58C3412.14,1346,3454.16,1362.39,3486.27,1374Z"/><path d="M3486.68,1456.51H3187.14l0-155.18c3.1-8.47,5.64-16.44,8.1-24.16,9.39-29.51,16.17-50.83,40.89-54.41,34.16-4.93,60.36,24.06,88.11,54.75,9.15,10.11,18.6,20.57,28.41,29.8,10.66,10,20.5,17.4,30.06,22.51,30,16,72.92,32.68,103.68,43.83l.27.1Zm-298.73-.82h297.91v-81.37c-30.76-11.16-73.59-27.78-103.52-43.78-9.62-5.15-19.51-12.55-30.23-22.64-9.83-9.25-19.3-19.72-28.45-29.84-27.6-30.53-53.66-59.36-87.39-54.49-24.22,3.51-30.94,24.62-40.24,53.85-2.45,7.7-5,15.66-8.08,24.12Z"/></g><polygon class="cls-9" points="2165.68 2648.22 2217 2648.22 2636.8 565.41 2585.49 565.41 2165.68 2648.22"/><polygon class="cls-9" points="1565.31 2648.22 1616.63 2648.22 2036.43 565.41 1985.12 565.41 1565.31 2648.22"/><polygon class="cls-7" points="2450.27 2648.22 2398.96 2648.22 1979.15 565.41 2030.47 565.41 2450.27 2648.22"/><polygon class="cls-7" points="3050.64 2648.22 2999.33 2648.22 2579.52 565.41 2630.84 565.41 3050.64 2648.22"/><polygon class="cls-14" points="2981.05 1775.95 2122.06 1775.95 1857.39 462.86 2716.39 462.86 2981.05 1775.95"/><polygon class="cls-15" points="2160.67 819.25 2158.26 820.02 2156.99 817.11 2160.67 819.25"/><path class="cls-16" d="M2305.52,1448.53l-107.69-62.72c9.41-29.69,29.69-49.84,55.06-58.64Z"/><path class="cls-3" d="M2273.78,1447.39l-101.19,31.78c-13.78-31.81-17.47-66.8-7.77-97.42l107.69,62.72Z"/><polygon class="cls-17" points="2294.83 626.92 2029.1 626.92 2019.81 580.8 2285.53 580.8 2294.83 626.92"/><polygon class="cls-16" points="2817.97 1444.58 2504.23 1444.58 2499.13 1419.25 2812.86 1419.25 2817.97 1444.58"/><polygon class="cls-16" points="2826.35 1486.19 2512.62 1486.19 2507.51 1460.86 2821.25 1460.86 2826.35 1486.19"/><polygon class="cls-16" points="2834.74 1527.81 2521.01 1527.81 2515.9 1502.48 2829.64 1502.48 2834.74 1527.81"/><path class="cls-15" d="M2420.57,1515.55c-10,31.56-32.26,52.32-59.9,60.15-26,7.36-56.8,3.25-86.61-14.12-30.76-17.91-54.67-46.53-68.47-78.35l101.19-31.78,2.42-.77-3.68-2.15-52.63-121.36c27-9.34,59.76-5.87,91.45,12.59,30.76,17.91,54.66,46.55,68.46,78.36S2430.27,1484.92,2420.57,1515.55Z"/><polygon class="cls-3" points="2328.03 1100.77 2238.5 1100.39 2200.22 910.62 2289.74 911 2328.03 1100.77"/><polygon class="cls-17" points="2486.74 1101.44 2397.21 1101.07 2349.09 862.55 2438.62 862.93 2486.74 1101.44"/><polygon class="cls-15" points="2657.66 1102.17 2568.13 1101.79 2512.29 824.97 2601.82 825.35 2657.66 1102.17"/><polyline class="cls-1" points="2573.77 1130.9 2576.34 1148.52 2665.87 1148.9 2663.3 1131.28"/><polyline class="cls-1" points="2404.22 1134.14 2406.79 1151.76 2496.32 1152.14 2493.75 1134.52"/><polyline class="cls-1" points="2244.52 1134.14 2247.1 1151.76 2336.63 1152.14 2334.05 1134.52"/><path class="cls-3" d="M2068.54,886l-3-21.43c.95-.13,96.11-13.67,211.51-46.32,105.92-30,251.07-82.64,341-163.27l14.44,16.12c-41.25,37-96.69,71.29-164.77,102-54.14,24.41-116.41,46.64-185.09,66.06C2165.87,872.15,2069.5,885.85,2068.54,886Z"/><polygon class="cls-3" points="2643.97 696.95 2662.81 623.83 2590.06 644.06 2643.97 696.95"/><polygon class="cls-15" points="2981.05 1790.43 2110.21 1790.43 1843.2 465.72 1871.58 460 2133.91 1761.48 2981.05 1761.48 2981.05 1790.43"/><path class="cls-1" d="M1294.34,2527.26c-191.27,114.11-209.74,126.06-106.5,126.06h219.52s32.6,5.43,17.38-91.29S1294.34,2527.26,1294.34,2527.26Z"/><g class="cls-18"><path class="cls-6" d="M1203.77,2573a66.51,66.51,0,0,1,10.56,6.65l-.91-.71A68.32,68.32,0,0,1,1225.5,2591l-.71-.92a67,67,0,0,1,8.63,14.73c-.16-.36-.31-.72-.46-1.08.37.89.72,1.78,1.06,2.69a4.84,4.84,0,0,0,2.08,2.7,4.52,4.52,0,0,0,6.19-1.62,4.42,4.42,0,0,0,.46-3.49,69.65,69.65,0,0,0-9.79-18,75.59,75.59,0,0,0-7-8.07,73.84,73.84,0,0,0-8.22-6.95,65.23,65.23,0,0,0-9.41-5.78,4.76,4.76,0,0,0-3.49-.45,4.63,4.63,0,0,0-2.71,2.08c-1.08,2.05-.63,5.06,1.63,6.19Z"/><path class="cls-6" d="M1232.2,2554.83c1.21.84,2.39,1.7,3.55,2.6l-.91-.71a90.19,90.19,0,0,1,15.94,16l-.71-.91a89.62,89.62,0,0,1,11.59,19.81l-.45-1.08c.44,1,.86,2.1,1.26,3.16a4.83,4.83,0,0,0,2.08,2.7,4.52,4.52,0,0,0,6.19-1.62,4.46,4.46,0,0,0,.46-3.49,93.16,93.16,0,0,0-10.08-19.6,94.85,94.85,0,0,0-14.29-16.63,98,98,0,0,0-10-8,4.58,4.58,0,0,0-3.49-.46,4.63,4.63,0,0,0-2.71,2.08,4.58,4.58,0,0,0-.46,3.49,5.13,5.13,0,0,0,2.08,2.71Z"/><path class="cls-6" d="M1254.44,2534l.35.27-.91-.7a64.8,64.8,0,0,1,9.39,9.56c2.74,3.25,5.46,6.51,8.06,9.86l-.71-.91a84.25,84.25,0,0,1,11.28,18.33c-.16-.36-.31-.73-.46-1.09a46.26,46.26,0,0,1,3.23,11.52l-.17-1.2c.09.68.17,1.36.22,2a4.89,4.89,0,0,0,1.33,3.2,4.51,4.51,0,0,0,6.4,0,4.4,4.4,0,0,0,1.33-3.2,47.65,47.65,0,0,0-2.75-12.59,67.61,67.61,0,0,0-5.65-11.64c-4.42-7.25-9.89-13.81-15.35-20.3-1.57-1.87-3.16-3.73-4.85-5.5a51.59,51.59,0,0,0-6.17-5.46,4.49,4.49,0,0,0-3.49-.46,4.63,4.63,0,0,0-2.71,2.08,4.58,4.58,0,0,0-.45,3.49l.45,1.08a4.6,4.6,0,0,0,1.63,1.62Z"/></g><g class="cls-19"><path d="M1428.77,2608.18c-.4,48.64-21.41,45.14-21.41,45.14H1187.84c-16.29,0-29.54-.3-39.56-1.24q7.88-1.15,16.63-2.52C1265.86,2633.74,1376.05,2616.46,1428.77,2608.18Z"/></g><path class="cls-1" d="M1744,2527.26c191.26,114.11,209.73,126.06,106.5,126.06H1631s-32.6,5.43-17.39-91.29S1744,2527.26,1744,2527.26Z"/><g class="cls-20"><path class="cls-6" d="M1830,2565.16A70.36,70.36,0,0,0,1813.3,2577a70.31,70.31,0,0,0-17.68,27,4.54,4.54,0,0,0,.46,3.49,4.52,4.52,0,0,0,6.19,1.62,5.1,5.1,0,0,0,2.08-2.7c.34-.91.69-1.8,1.06-2.69l-.45,1.08a66.56,66.56,0,0,1,8.62-14.73l-.7.92a68.26,68.26,0,0,1,12.07-12.07l-.91.71a66.15,66.15,0,0,1,10.57-6.65,4.55,4.55,0,0,0,1.62-6.19,4.64,4.64,0,0,0-6.2-1.63Z"/><path class="cls-6" d="M1801.6,2547a93,93,0,0,0-16.51,14.57,94.56,94.56,0,0,0-12.61,17.94,96.6,96.6,0,0,0-5.31,11.73,4.59,4.59,0,0,0,.46,3.49,4.63,4.63,0,0,0,2.71,2.08,4.57,4.57,0,0,0,3.49-.46,5.15,5.15,0,0,0,2.08-2.7c.4-1.06.82-2.12,1.26-3.16-.16.36-.31.72-.46,1.08a89.62,89.62,0,0,1,11.59-19.81l-.7.91a90.13,90.13,0,0,1,15.93-16l-.91.71c1.16-.9,2.34-1.76,3.55-2.6a4.9,4.9,0,0,0,2.08-2.71,4.63,4.63,0,0,0-.46-3.49,4.54,4.54,0,0,0-2.7-2.08,4.48,4.48,0,0,0-3.49.46Z"/><path class="cls-6" d="M1779.36,2526.16a63.26,63.26,0,0,0-9.94,9.69c-2.68,3.14-5.32,6.31-7.88,9.55a130.76,130.76,0,0,0-7.72,10.7,71.43,71.43,0,0,0-5.93,11.54,48,48,0,0,0-3.3,14,4.53,4.53,0,0,0,7.73,3.2,5.07,5.07,0,0,0,1.33-3.2c.06-.68.13-1.36.22-2-.06.4-.11.8-.16,1.2a45.82,45.82,0,0,1,3.22-11.52l-.45,1.09a83.83,83.83,0,0,1,11.27-18.33l-.71.91c2.6-3.35,5.32-6.61,8.06-9.86a64.86,64.86,0,0,1,9.4-9.56l-.92.7.35-.27a5,5,0,0,0,2.08-2.7,4.62,4.62,0,0,0-.45-3.49,4.56,4.56,0,0,0-2.71-2.08,4.39,4.39,0,0,0-3.49.46Z"/></g><g class="cls-19"><path d="M1609.6,2608.18c.41,48.64,21.42,45.14,21.42,45.14h219.52c16.28,0,29.53-.3,39.56-1.24q-7.89-1.15-16.64-2.52C1772.52,2633.74,1662.32,2616.46,1609.6,2608.18Z"/></g><path class="cls-15" d="M1330.15,1508.11c-27.12,820.28-56.1,1029.29-56.1,1029.29s157.48,45.28,160.06,35.5,93.66-844.38,93.66-844.38L1602,2574.37s170.47-30.81,170.47-47.11S1691,1511.17,1691,1511.17Z"/><path class="cls-21" d="M1520,1682.33q-14.74,63.39-31.83,126.19c-5.63,21-11.52,41.83-17.46,62.69-2.94,10.45-6.08,20.83-9.15,31.23s-6.22,20.79-9.37,31.17q-9.62,31.1-19.79,62l-5.24,15.42c-1.74,5.14-3.49,10.27-5.3,15.39l-5.41,15.36-5.61,15.29c-7.57,20.36-15.54,40.58-24.38,60.45-4.5,9.9-9.15,19.74-14.37,29.29-2.58,4.79-5.39,9.47-8.42,14a66.43,66.43,0,0,1-5,6.48,25.44,25.44,0,0,1-2.9,2.88l-.81.64c-.27.2-.58.36-.87.54a3,3,0,0,1-1.94.52,3,3,0,0,0,1.87-.64c.27-.2.56-.37.81-.59l.75-.68a25.44,25.44,0,0,0,2.65-3,64.5,64.5,0,0,0,4.47-6.74c2.72-4.65,5.24-9.43,7.52-14.33,4.63-9.77,8.84-19.73,12.81-29.79,2-5,4-10.06,5.86-15.12s3.82-10.13,5.61-15.23,3.7-10.17,5.45-15.29l5.33-15.34q10.44-30.75,20.31-61.7c6.57-20.64,13.1-41.29,19.38-62,3.2-10.35,6.41-20.7,9.52-31.08l9.37-31.12c3.12-10.37,6.3-20.73,9.35-31.13l4.63-15.58,4.68-15.57C1494.91,1765.37,1507.17,1723.78,1520,1682.33Z"/><path class="cls-21" d="M1580.15,1927.13c4.55,21.64,8.76,43.25,13.47,64.73s9.94,42.81,16.19,63.78c1.59,5.24,3.12,10.49,4.92,15.65.87,2.59,1.66,5.21,2.61,7.77l2.78,7.69a293.44,293.44,0,0,0,13,29.94c2.48,4.83,5.16,9.56,8.09,14.1.74,1.13,1.45,2.29,2.21,3.41l2.37,3.29c.76,1.12,1.62,2.15,2.48,3.2s1.66,2.13,2.59,3.1a59.35,59.35,0,0,0,12,10.8,39.42,39.42,0,0,0,7.16,3.77,20.84,20.84,0,0,0,8,1.59,15.24,15.24,0,0,1-4.16.17c-.7,0-1.39-.16-2.09-.25l-2.06-.42a39.94,39.94,0,0,1-7.88-3.06c-1.25-.64-2.45-1.39-3.67-2.11l-3.48-2.42-3.3-2.65c-1.06-.94-2.09-1.9-3.13-2.85-8.09-7.89-14.62-17.17-20.23-26.84-2.8-4.85-5.44-9.79-7.77-14.86l-1.8-3.78-1.66-3.84c-1.08-2.57-2.27-5.11-3.26-7.7l-3-7.8c-1-2.6-1.85-5.24-2.78-7.87-1.87-5.24-3.45-10.56-5.09-15.87a536.4,536.4,0,0,1-14.71-64.82A659.59,659.59,0,0,1,1580.15,1927.13Z"/><path class="cls-21" d="M1605.47,2139.3c8.19,9.63,16.34,19.09,25.4,27.41,1.1,1.07,2.32,2,3.47,3s2.28,2,3.48,3l3.63,2.76c.6.45,1.18.95,1.81,1.37l1.89,1.24c1.27.81,2.48,1.71,3.77,2.48l3.91,2.21,1,.56,1,.47,2,1,2,1,2.07.78a58.31,58.31,0,0,0,17.12,4,56.86,56.86,0,0,0,17.58-1.56l2.18-.55c.73-.18,1.43-.45,2.15-.66s1.44-.44,2.14-.71l2.13-.79c.71-.25,1.42-.54,2.11-.86l2.09-.91c1.36-.68,2.76-1.32,4.09-2.07a88.71,88.71,0,0,0,15.44-10.43,52,52,0,0,1-6.17,7.27,67.23,67.23,0,0,1-7.28,6.28,63.25,63.25,0,0,1-17.21,9.13,55.22,55.22,0,0,1-19.6,3c-1.67-.06-3.34-.25-5-.38s-3.3-.55-5-.82a64,64,0,0,1-9.54-2.89,71.61,71.61,0,0,1-17.16-9.62l-2-1.44c-.65-.49-1.24-1-1.87-1.56l-3.68-3.17c-1.21-1.08-2.32-2.25-3.47-3.38s-2.3-2.26-3.35-3.47A138,138,0,0,1,1605.47,2139.3Z"/><g class="cls-22"><path d="M1699.35,1613.84l-93.12,47.84-75-102.15-51.07,122.8-155.42-17.16q2.67-74.54,5.4-157.06l360.84,3.06S1694.21,1550.57,1699.35,1613.84Z"/></g><path class="cls-2" d="M2064.85,1181.06c53.25-50.43,47.3-59,82.73-62.92s36,8.41,26.86,12.38c28.9-4.15,42.52-22.33,56.73-17.88s28.39,86.8-21.66,104-85.16-1.35-125.86,31.63C2037.62,1217.42,2064.85,1181.06,2064.85,1181.06Z"/><g class="cls-23"><path class="cls-24" d="M2181.68,1151c5.93-3.13,12-5.68,18.11-8.16s12.21-4.77,18.32-7.07l18.35-6.83c6.13-2.26,12.23-4.59,18.54-6.84a88.75,88.75,0,0,1-16.58,11.17,151.73,151.73,0,0,1-18.19,8.16,181,181,0,0,1-19,5.91A147.84,147.84,0,0,1,2181.68,1151Z"/><path class="cls-24" d="M2184.36,1172c6.21-2.42,12.3-4.7,18.44-6.93s12.31-4.34,18.54-6.3,12.55-3.77,19-5.27a117.77,117.77,0,0,1,19.59-3.12c-6,2.82-12.08,5.29-18.2,7.65s-12.28,4.53-18.54,6.5-12.6,3.71-19.06,5.09A94.45,94.45,0,0,1,2184.36,1172Z"/><path class="cls-24" d="M2186,1191.58c6.48-1.1,12.68-2.42,18.82-4s12.19-3.47,18.26-5.4,12.17-3.91,18.37-5.73a138.3,138.3,0,0,1,19-4.4c-5.69,3.3-11.47,6.18-17.37,8.86a168.6,168.6,0,0,1-18.2,7,106.62,106.62,0,0,1-19.21,4.29A60.23,60.23,0,0,1,2186,1191.58Z"/><path class="cls-24" d="M2129,1159.8a33.34,33.34,0,0,0,5.66-4,14.28,14.28,0,0,0,3.63-5c.86-1.89,1.46-4.08,2.45-6.42a19.8,19.8,0,0,1,1.91-3.58,12.69,12.69,0,0,1,3.12-3.22,17.71,17.71,0,0,1,7.75-2.86c2.52-.38,4.76-.49,7-.77a123.69,123.69,0,0,0,13.64-2.55l.35.69c-.51.12-1,.26-1.54.36.39-.37.79-.7,1.19-1l.35.69a37.66,37.66,0,0,1-13,6.7c-1.17.36-2.39.64-3.56.91s-2.29.47-3.36.72a15.16,15.16,0,0,0-5.34,2.06,11.82,11.82,0,0,0-3.42,4.32,59.14,59.14,0,0,1-3.53,6.35,15,15,0,0,1-2.75,3,14.81,14.81,0,0,1-3.34,2.07A18,18,0,0,1,2129,1159.8Z"/></g><path class="cls-24" d="M2224.56,1208.16a46.43,46.43,0,0,1-15,8.49c-50.05,17.21-85.16-1.35-125.86,31.62-46-30.85-18.8-67.22-18.8-67.22,8.38-7.93,15.28-14.82,21.12-20.82C2120.25,1208.91,2165,1226.06,2224.56,1208.16Z"/><path class="cls-15" d="M1646.57,1027.58c197.65,202.13,227,214.08,429.12,134.75,18.33,42.45,34.88,83.76,33.55,79.84-370.57,150-366.09,44-484.54-65.71C1588.84,1031.93,1646.57,1027.58,1646.57,1027.58Z"/><g class="cls-22"><path d="M2014.9,1277.68c-276.46,94.66-282.79-1.71-390.2-101.22q-1-4.17-2-8.18C1713.56,1246.63,1784.66,1319.12,2014.9,1277.68Z"/></g><path class="cls-14" d="M2110.06,1244.23l-1.29-1.29a1.23,1.23,0,0,1-.25-.42l-.45-1,1.76,0,.23,1Z"/><path class="cls-14" d="M2110.14,1244.43l-1.43-1.43a1.35,1.35,0,0,1-.27-.45l-.49-1.17,2,0,.24,1.06Z"/><path class="cls-25" d="M710.39,2143.1c-118.85-128.33-39.24-148.58-62.94-229.94s-70.73-150.23-29.22-200.49,16.54-96.93,20.33-174,129.53-54.25,125.21.23-15.35,97.87,24.2,130.94,74.66,74.31,38.26,167.62,60.24,71,49,167.34-51.44,66.55-41.18,171.09C736.3,2188.59,710.39,2143.1,710.39,2143.1Z"/><path class="cls-8" d="M782.53,2179.48a2.24,2.24,0,0,1-2.18-1.76c-.57-2.66-57.79-269.17-73.08-550.24a2.23,2.23,0,0,1,4.46-.24c15.27,280.7,72.41,546.87,73,549.53a2.25,2.25,0,0,1-1.71,2.66A2.61,2.61,0,0,1,782.53,2179.48Z"/><path class="cls-8" d="M723,1798.5a2.22,2.22,0,0,1-1.61-.69c-25-26.19-63.3-65.69-67.73-69a2.19,2.19,0,0,1-.65-.36,2.23,2.23,0,0,1-.37-3.14,2.33,2.33,0,0,1,1.68-.86c1.43-.07,2.22-.1,36.72,35.42,13.42,13.82,26.83,27.79,31.68,32.85,4.18-6.07,16.2-23.44,28.35-40.58,31.15-43.9,32.62-43.61,34.65-43.2a2.24,2.24,0,0,1,1.75,2.63,2.22,2.22,0,0,1-1.56,1.7c-5,3.84-39.92,53.47-61.07,84.24a2.26,2.26,0,0,1-1.66,1Zm-67-70.19Zm.17-.2a1.54,1.54,0,0,1-.17.19A1,1,0,0,0,656.17,1728.11Zm0,0h0Zm0,0Zm0,0Zm0,0Z"/><path class="cls-8" d="M738.34,1927.26a2.21,2.21,0,0,1-1.57-.65c-33.87-33.68-85.18-84.51-87.72-86.51a2.23,2.23,0,0,1,2.76-3.51c3.36,2.64,72.8,71.64,86,84.8l58.56-101.74a2.23,2.23,0,1,1,3.87,2.23l-60,104.26a2.28,2.28,0,0,1-1.64,1.1Z"/><path class="cls-8" d="M757.88,2047.92a2.24,2.24,0,0,1-1.57-.64c-29.75-29.31-74.72-73.41-78.49-76.53a2.24,2.24,0,0,1,.08-4c1.5-.74,1.76-.49,6.09,3.6,2.1,2,5.14,4.9,9,8.69,6.58,6.37,15.71,15.27,27.14,26.46,15.87,15.55,31.86,31.29,37.31,36.65L816.41,1951a2.23,2.23,0,0,1,3.75,2.43l-60.41,93.48a2.22,2.22,0,0,1-1.63,1Z"/><path class="cls-3" d="M766.81,2264.08c-67.39-146.79,8.3-141.66,10.9-219.87s-18.85-152.18,32-184.34,42.39-80.3,67.89-146.84,129.26-10.35,109.8,36.21S945.81,1830.71,971,1871.1s44.14,86.69-14.63,158.1,32.43,79.66-5.12,160.94-64.28,43.6-85.34,138.28C776.46,2311.44,766.81,2264.08,766.81,2264.08Z"/><path class="cls-8" d="M820.3,2317h-.23a2.24,2.24,0,0,1-2-2.45c.26-2.5,26.71-252.83,94.14-503.88a2.23,2.23,0,0,1,4.31,1.16c-67.34,250.7-93.75,500.69-94,503.18A2.23,2.23,0,0,1,820.3,2317Z"/><path class="cls-8" d="M877.67,1965.6a2.39,2.39,0,0,1-.53-.06,2.24,2.24,0,0,1-1.49-1.21c-14.41-30.1-36.57-75.67-39.56-80a2.25,2.25,0,0,1,.14-3.62,2.31,2.31,0,0,1,1.86-.3c1.37.38,2,.56,22.15,41.73,7.72,15.82,15.38,31.76,18.25,37.75,5.57-4.23,21-15.9,36.4-27.32,40-29.64,41.23-29,43-28a2.24,2.24,0,0,1,.84,3,2.34,2.34,0,0,1-2,1.13c-5.59,2.06-50.43,35.46-77.75,56.31A2.22,2.22,0,0,1,877.67,1965.6Zm-39-81.13a2.79,2.79,0,0,1-.34.18A2.79,2.79,0,0,0,838.7,1884.47Z"/><path class="cls-8" d="M854.06,2083a1.9,1.9,0,0,1-.41,0,2.2,2.2,0,0,1-1.58-1.18c-20-39.25-50.4-98.57-52.08-101.12a2.24,2.24,0,0,1,3.72-2.48c2.19,3.3,42,81.36,51,99l80.48-72.28a2.23,2.23,0,1,1,3,3.32l-82.64,74.23A2.22,2.22,0,0,1,854.06,2083Z"/><path class="cls-3" d="M818.28,2355c26.4-159.35-45.27-134.5-68.36-209.27S728.08,1994,670.53,1976.3s-62-66.32-104.12-123.81-127.44,24-96.42,63.83,61.59,67.65,47.91,113.24-19.78,95.25,55.71,148.68-10.33,85.39,47.27,153.93,73.49,25.15,118.71,111C821.43,2403.22,818.28,2355,818.28,2355Z"/><path class="cls-8" d="M780,2420.22a2.26,2.26,0,0,1-2.09-1.43c-.9-2.34-92.14-236.58-223.06-460.73a2.23,2.23,0,1,1,3.86-2.25c131.1,224.47,222.46,459,223.37,461.37a2.23,2.23,0,0,1-1.28,2.88A2.08,2.08,0,0,1,780,2420.22Z"/><path class="cls-8" d="M632.22,2096.26a2.25,2.25,0,0,1-.84-.17c-31.84-12.93-83.89-33.36-89.82-33.88a2.23,2.23,0,0,1-2.19-3.72c1.45-1.45,2.41-2.41,48.85,15.65,17.9,7,35.81,14.17,42.3,16.79,1.19-6.53,4.4-23.93,7.68-41.22,8.56-45,9.17-45.37,10.39-46.09a2.32,2.32,0,0,1,1.87-.21,2.24,2.24,0,0,1,1.42,2.83,2.36,2.36,0,0,1-.33.63c-1.76,4.92-11.15,54.72-17.13,87.56a2.24,2.24,0,0,1-1.12,1.55A2.2,2.2,0,0,1,632.22,2096.26Zm-89.7-34.61h0Zm106.54-54,.37.09A2.49,2.49,0,0,1,649.06,2007.65Z"/><path class="cls-8" d="M685.88,2203.3a2.37,2.37,0,0,1-1-.23l-99.25-49.88a2.23,2.23,0,0,1,2-4l96.66,48.57c4-19.37,21.94-105.16,23.19-108.91a2.23,2.23,0,1,1,4.24,1.4c-1,2.91-14.67,68.13-23.65,111.27a2.22,2.22,0,0,1-2.18,1.77Z"/><path class="cls-8" d="M732.15,2306.26a2.13,2.13,0,0,1-.89-.19l-94.1-41.36a2.23,2.23,0,0,1,1.8-4.09l91.58,40.26c1.51-7.1,5.8-27.16,10.09-47,3.12-14.43,5.63-25.94,7.47-34.2,1.09-4.9,1.95-8.71,2.56-11.3,1.25-5.35,1.36-5.79,3-6a2.24,2.24,0,0,1,2.27,3.26c-1.35,4.43-13.58,61.21-21.6,98.87a2.21,2.21,0,0,1-1.17,1.52A2.17,2.17,0,0,1,732.15,2306.26Z"/><polygon class="cls-9" points="982.55 2252.78 971.92 2252.78 585.06 2252.78 574.42 2252.78 580.21 2308.05 590.54 2308.05 625.45 2660 931.53 2660 966.43 2308.05 976.77 2308.05 982.55 2252.78"/><path class="cls-26" d="M955.64,2416.82,931.52,2660H625.44l-8.22-82.86C719.23,2594.33,788.2,2579.19,955.64,2416.82Z"/><path class="cls-15" d="M1324.76,1031.93c3.27-2.18,140.72-89.12,193.16-86.94,61.14,13,128.65,82.59,128.65,82.59s44.42,502.07,78.11,542.27l-118.45,60.86-75-102.15-51.07,122.8L1303,1631.8Z"/><g class="cls-22"><polygon points="1352.17 1637.23 1303.03 1631.8 1322.38 1097.75 1352.17 1637.23"/></g><path class="cls-14" d="M1208.76,1651.15,1062.7,1491.68a20.26,20.26,0,0,1,1.25-28.62l219.37-200.91a20.25,20.25,0,0,1,28.61,1.25L1458,1422.88a20.24,20.24,0,0,1-1.25,28.61l-219.36,200.92A20.26,20.26,0,0,1,1208.76,1651.15Z"/><g class="cls-19"><path d="M1456.74,1451.49,1237.37,1652.4a20.24,20.24,0,0,1-28.61-1.25l-119.35-130.32c153.62-7.08,265.15-30.62,366.46-100.28l2.12,2.33A20.24,20.24,0,0,1,1456.74,1451.49Z"/></g><path class="cls-14" d="M1303.22,1603.18a74.15,74.15,0,0,1-34.22-8.58c-35.55-18.23-50.09-46.37-62.92-71.2-7.07-13.69-13.75-26.62-23.11-35.59l1-1.09c9.55,9.15,16.28,22.18,23.41,36,12.73,24.62,27.15,52.54,62.27,70.55,26,13.32,48.85,8.37,63.48,1.87,22.92-10.19,39.35-29.88,41.94-39.6,2.3-8.63-3.33-12.65-14.55-20.68-8.06-5.75-18.84-13.46-31-26.22a10.28,10.28,0,0,1-3.33-3.64l-2.47-5,3.71,4.11q1.55,1.71,3.08,3.33a13.77,13.77,0,0,0,7.05,2.36c1.54.05,4.35-.24,5.75-2.67,1.3-2.26,2.23-8.08-6.22-21.68-10-16.13-22-18-38.67-20.61-15-2.35-33.69-5.27-56.73-20.46l.83-1.26c22.76,15,41.27,17.9,56.13,20.23,16.4,2.56,29.35,4.59,39.73,21.3,8.41,13.56,8,20.12,6.24,23.24-1.33,2.3-3.86,3.51-7.1,3.42a14.44,14.44,0,0,1-3.93-.7,203.42,203.42,0,0,0,27.77,23c11.42,8.16,17.71,12.65,15.14,22.29-2.67,10-19.44,30.21-42.79,40.59A75.5,75.5,0,0,1,1303.22,1603.18Z"/><path class="cls-2" d="M1183.49,1487.26c10.78,10.34,17.86,25.5,26.34,41.74,12.07,23,27,48.25,59.51,64.93,55.42,28.42,102.15-21.9,106.5-38.2,4.2-15.73-16.89-17.3-45.69-47.62a9.31,9.31,0,0,1-3.21-3.46q1.61,1.78,3.21,3.46c8,5.43,24.27,3.74,7.66-23-16.91-27.23-40.3-14.7-77.21-31.15a126.12,126.12,0,0,1-18.43-10.15Z"/><g class="cls-27"><path class="cls-24" d="M1302.54,1526.5c7.8,5.42,15.19,11.28,22.64,17s14.9,11.29,22.6,16.44a201,201,0,0,0,24,13.9,155.65,155.65,0,0,0,26.16,9.94,83.28,83.28,0,0,1-28-5.57,124.15,124.15,0,0,1-25.49-13.25,181.5,181.5,0,0,1-22.29-17.84A236.48,236.48,0,0,1,1302.54,1526.5Z"/><path class="cls-24" d="M1286.41,1544.15c7.77,4.8,15.16,10.08,22.43,15.46s14.39,10.74,22,15.15a169.14,169.14,0,0,0,24,11.26c8.33,3.27,16.91,6.18,25.35,9.67a174.91,174.91,0,0,1-26.86-5.17,109.12,109.12,0,0,1-25.58-10.54,133.5,133.5,0,0,1-21.92-16.71C1299.14,1557.14,1292.59,1550.88,1286.41,1544.15Z"/><path class="cls-24" d="M1265.83,1560a191.43,191.43,0,0,0,21.44,17.65,161.3,161.3,0,0,0,23.64,13.8,164.14,164.14,0,0,0,25.62,9.63,194.08,194.08,0,0,0,27.22,5.51,91.14,91.14,0,0,1-28.29-.89,109.57,109.57,0,0,1-51.09-24.31A91.3,91.3,0,0,1,1265.83,1560Z"/></g><path class="cls-24" d="M1260.35,1453.94h0s-14.7,42-50.76,75c-8.48-16.24-15.56-31.4-26.34-41.74l58.69-43.47A125.61,125.61,0,0,0,1260.35,1453.94Z"/><path class="cls-15" d="M1257.39,1443.79c-22.82,29.35-38,44.56-73.9,67.38-192.35-295.59-48.3-317.29,141.27-479.24,65.3-13,65.21,97.8,65.21,97.8C1241.28,1234.06,1109.59,1276.14,1257.39,1443.79Z"/><g class="cls-22"><path d="M1210,1492.86c-7.56,5.81-16.16,11.75-26.47,18.31-147.36-226.44-97.28-292.16,19.46-383.33C1099.53,1232,1054,1301.4,1210,1492.86Z"/></g><path class="cls-14" d="M2221.31,1224.18a1.21,1.21,0,0,1-.62-.19l-1.51-.86,2.53-1,.38.75a.9.9,0,0,1-.21,1.09A.84.84,0,0,1,2221.31,1224.18Zm0-1.68a.83.83,0,0,0-.55.22.77.77,0,0,0-.21.79l.57-.23v0l.44-.71h0l-.42.72.42-.72A.67.67,0,0,0,2221.3,1222.5Z"/><path class="cls-16" d="M1463.5,958.39c42.75,151.78,64.27,264.8,64.27,264.8,3.47-5.43,43.32-220.61,36.44-259.73C1512.61,945.05,1463.5,958.39,1463.5,958.39Z"/><path class="cls-16" d="M1527.51,1224.32l-.34-.9c-2.56-6.72-31.84-24.58-57.66-40.34-19.37-11.82-37.67-23-44.12-29a10.2,10.2,0,0,1-3.33-8.34c.77-14.73,26.74-35.56,32.16-39.74l-47.4-17.09-.09-.33c0-.18-1-5.67,10.1-109.35l1.28.14c-9.8,91.65-10.18,106.4-10.14,108.6l48.9,17.62-.95.72c-.31.23-31.76,24-32.58,39.49a8.83,8.83,0,0,0,2.93,7.34c6.35,5.9,24.59,17,43.91,28.82,26.25,16,53.36,32.56,57.78,40.13l84-80.39c-4.79-3.89-35.47-29.42-28.06-40.82,2.21-3.4,6-7.4,10-11.63,9.93-10.41,22.28-23.37,18.37-35.42-5.59-17.2-21.31-72.11-21.47-72.66l1.23-.35c.16.55,15.88,55.43,21.46,72.61,4.15,12.78-8.5,26-18.66,36.71-4,4.18-7.75,8.13-9.9,11.44-7.23,11.12,28,39.29,28.35,39.57l.57.46Z"/><polygon class="cls-14" points="1530.6 1528.57 1527.13 1223.2 1519.37 1005.5 1520.65 1005.46 1528.41 1223.17 1531.88 1528.55 1530.6 1528.57"/><path class="cls-6" d="M1417.47,979.33l-4.31,54.65q-1.1,13.65-2.07,27.31l-.93,13.65-.39,6.81c0,1.13-.11,2.27-.13,3.38l0,1.67c0,.27,0,.56,0,.8v.5s0,.19,0-.19l-1.44-1.6,24.21,8.35,24.19,8.42a2.9,2.9,0,0,1,1.78,3.69,3,3,0,0,1-.94,1.33l-.08.06a171,171,0,0,0-16.89,15.18,102.47,102.47,0,0,0-7.4,8.42,43.6,43.6,0,0,0-5.62,9.13,15.71,15.71,0,0,0-1.27,4.58,6.92,6.92,0,0,0,.59,3.79,7,7,0,0,0,1.1,1.51l.36.36.48.43c.32.28.68.56,1,.85,1.41,1.14,2.92,2.24,4.45,3.33,6.19,4.34,12.75,8.39,19.28,12.44,13.1,8.11,26.39,16,39.55,24.18,6.58,4.1,13.14,8.26,19.6,12.66,3.24,2.2,6.42,4.49,9.57,7,1.57,1.24,3.12,2.53,4.65,4a29.26,29.26,0,0,1,2.29,2.39,12.45,12.45,0,0,1,2.21,3.5l-6.06-1.37,42.7-40.64,42.86-40.47.23,4.8a177.91,177.91,0,0,1-17.19-16.2,90.32,90.32,0,0,1-7.55-9.3,43.53,43.53,0,0,1-3.19-5.3,20.9,20.9,0,0,1-2.14-6.27,12.25,12.25,0,0,1,0-3.73,17.48,17.48,0,0,1,.53-1.94,17,17,0,0,1,.95-1.76,46.67,46.67,0,0,1,3.82-4.81c2.66-2.95,5.41-5.68,8.1-8.44s5.33-5.51,7.79-8.37a58.38,58.38,0,0,0,6.55-9,22.7,22.7,0,0,0,3.24-10.06,15.63,15.63,0,0,0-.68-5.13l-1.64-5.58c-2.15-7.44-4.21-14.89-6.25-22.35l-6-22.41L1591.5,981l14.06,44.2c2.34,7.37,4.68,14.73,7.1,22.06l1.84,5.47a19.39,19.39,0,0,1,1.08,6.27,20.75,20.75,0,0,1-1,6.25,34,34,0,0,1-2.37,5.69,64,64,0,0,1-6.72,9.92c-2.49,3.07-5.11,6-7.74,8.83s-5.27,5.66-7.7,8.52a45.11,45.11,0,0,0-3.29,4.34c-.2.33-.25.54-.42.8s-.15.55-.2.85-.08.62,0,1a10.3,10.3,0,0,0,.12,1.07,16.24,16.24,0,0,0,1.73,4.61,38.64,38.64,0,0,0,2.89,4.56,83.82,83.82,0,0,0,7.25,8.52,174.89,174.89,0,0,0,16.85,15.24,3.2,3.2,0,0,1,.51,4.49,3.58,3.58,0,0,1-.26.29l0,0-42.33,41-42.49,40.86,0,0a3.69,3.69,0,0,1-5.22-.11,3.9,3.9,0,0,1-.81-1.29,6,6,0,0,0-.94-1.33,23.74,23.74,0,0,0-1.73-1.78c-1.28-1.2-2.7-2.38-4.16-3.53-2.93-2.3-6-4.48-9.18-6.65-6.29-4.32-12.77-8.47-19.28-12.56-13-8.19-26.29-16.14-39.43-24.35-6.56-4.14-13.09-8.32-19.51-12.93-1.6-1.16-3.19-2.36-4.77-3.68-.4-.34-.79-.66-1.19-1l-.59-.54-.67-.67a12.84,12.84,0,0,1-3.41-10.7,22.32,22.32,0,0,1,1.86-6.53,49,49,0,0,1,6.61-10.48,101.31,101.31,0,0,1,8-8.87,176.3,176.3,0,0,1,17.9-15.4l.76,5.08-24-9-24-9-.14,0a2.12,2.12,0,0,1-1.3-1.55,2.23,2.23,0,0,1-.07-.62v-.78c0-.33,0-.61,0-.91l.1-1.76c.06-1.16.16-2.3.24-3.46l.59-6.85q.64-6.84,1.36-13.66,1.5-13.64,3.12-27.25c1-9.07,2.22-18.14,3.37-27.2S1416.27,988.39,1417.47,979.33Z"/><path class="cls-6" d="M1520,1005.48c3.12,43.52,5.49,87.08,7.59,130.64,1.13,21.79,2,43.58,3,65.36,1.14,21.79,1.09,43.6,1.48,65.4l.54,65.41.11,32.71,0,16.35,0,16.36c-.06,43.61-.38,87.23-1.46,130.85-2.06-43.58-3.38-87.17-4.43-130.75l-.41-16.35-.32-16.34-.64-32.69-.94-65.39c-.24-21.8-.17-43.6-1.06-65.38-.57-21.79-1.27-43.58-1.7-65.37C1520.74,1092.71,1520,1049.11,1520,1005.48Z"/><path class="cls-2" d="M1480.17,854.07c5.79,70.27,2.17,84.76-16.67,104.32a412.84,412.84,0,0,1,56.51,47.09l44.2-42c-10.15-48.54-10.87-58-15.22-89.11S1480.17,854.07,1480.17,854.07Z"/><path class="cls-24" d="M1559.17,938.69c-27.25,1.15-57.1-26.55-77.72-67.57-.35-5.3-.79-11-1.28-17,0,0,64.48-10.87,68.82,20.28C1552.48,899.32,1553.63,910.32,1559.17,938.69Z"/><path class="cls-12" d="M1485.14,1038.56a46,46,0,0,1,.87-6.8,56.28,56.28,0,0,1,1.72-6.7,47,47,0,0,1,6.23-12.68,30.62,30.62,0,0,1,5-5.5,24.35,24.35,0,0,1,6.54-4.13,23.69,23.69,0,0,1,7.74-1.76,28.49,28.49,0,0,1,7.75.84l-2,0a46.08,46.08,0,0,1,7.24-1.4,36.88,36.88,0,0,1,7.5.06,29.27,29.27,0,0,1,23.22,16.59,27.14,27.14,0,0,1,2.17,6.79,19.62,19.62,0,0,1,.06,7,28.37,28.37,0,0,0-5.42-11.85,29.42,29.42,0,0,0-9.31-8.1,26.74,26.74,0,0,0-11.39-3.26,36.3,36.3,0,0,0-12,1.46,3.76,3.76,0,0,1-1.88,0l-.11,0a22,22,0,0,0-5.59-.7,17.78,17.78,0,0,0-5.39,1,24.6,24.6,0,0,0-9.53,6.71,58.2,58.2,0,0,0-7.45,10.45A118.77,118.77,0,0,0,1485.14,1038.56Z"/><path class="cls-14" d="M1336.19,1378.06l-2.18,2.17a.77.77,0,0,0,0,1.07.78.78,0,0,0,1.07,0l2.17-2.18a.75.75,0,0,0-1.06-1.06Z"/><path class="cls-2" d="M1455.53,820c31.8,97.32,134.12,153.5,149.61,26.22,15.58-128-46.73-160.24-99.62-146.48S1431.63,746.84,1455.53,820Z"/><path class="cls-1" d="M1504.8,723.66c44.19-44.92,70.27,63,99.25,58.68s65.21-54.69,23.91-85.3-44.19-27-60.13-22.65c-26.08-30.43-31.88-41.29-60.13-34s-15.94,23.91-36.23,40.57-28.64,5.25-52.88,28.26c-16.41,15.57-33.33,61.58-7.25,79.69s-10.14,41.3,19.56,48.54S1473.32,861,1473.32,861c-16.34-72.15,6.85-77.94,6.85-77.94s-8-67.38,24.63-59.41"/><path class="cls-28" d="M1470.39,822.73c-8-32.72-45.92-7.33-34,26.35s39.93,23.91,40.48,9.24S1474.19,838.22,1470.39,822.73Z"/><path class="cls-1" d="M1504.47,793.53a21.78,21.78,0,0,1,8.26-7.93,28.9,28.9,0,0,1,11.1-3.53,28.58,28.58,0,0,1,11.6,1.09,21.67,21.67,0,0,1,9.76,6,88.8,88.8,0,0,0-10.64-1.33,61.58,61.58,0,0,0-20,2.14A86.7,86.7,0,0,0,1504.47,793.53Z"/><path class="cls-1" d="M1572.56,790.07a18.62,18.62,0,0,1,4.59-8.62,17.43,17.43,0,0,1,9-5.14,18.82,18.82,0,0,1,2.7-.35,16.92,16.92,0,0,1,2.75.16,12.82,12.82,0,0,1,5.16,2,11.68,11.68,0,0,1,3.67,3.9,8.23,8.23,0,0,1,1.06,5,13.3,13.3,0,0,0-6.85-4.61,14.58,14.58,0,0,0-7.22-.12,24.6,24.6,0,0,0-7.25,2.91C1577.71,786.5,1575.32,788.28,1572.56,790.07Z"/><path class="cls-1" d="M1512.32,809a18.62,18.62,0,0,1,6-6.7,20.71,20.71,0,0,1,8.59-3.47,17.94,17.94,0,0,1,9.4,1,12.5,12.5,0,0,1,6.9,6.08,33.93,33.93,0,0,0-8-1.47,35.26,35.26,0,0,0-7.36.35,54.59,54.59,0,0,0-7.41,1.75C1517.88,807.27,1515.29,808.2,1512.32,809Z"/><path class="cls-1" d="M1572.87,805.23a8.76,8.76,0,0,1,.57-2.06,10.18,10.18,0,0,1,1-1.91,13.34,13.34,0,0,1,3-3.18,14.79,14.79,0,0,1,3.83-2.17,19.38,19.38,0,0,1,2.12-.68,20,20,0,0,1,2.19-.36,15.36,15.36,0,0,1,8.69,1.64,8.56,8.56,0,0,1,3.5,3.26,4.76,4.76,0,0,1,.3,4.48,5.22,5.22,0,0,0-2.49-2.48,9.42,9.42,0,0,0-2.94-.8,28,28,0,0,0-6.46-.09,23.73,23.73,0,0,0-3.21.49,30.13,30.13,0,0,0-3.23.84A37,37,0,0,0,1572.87,805.23Z"/><path class="cls-24" d="M1562.44,801.74c2.81,3.86,5.17,7.8,7.51,11.73s4.56,7.88,6.77,11.84l3.28,6a6.34,6.34,0,0,1,.64,1.47,3.91,3.91,0,0,1,.09,1.65,3.61,3.61,0,0,1-.76,1.66,4.51,4.51,0,0,1-.73.71l-.38.27-.71.49c-1,.67-1.91,1.31-2.87,2a83.62,83.62,0,0,1-12.25,6.82,84.33,84.33,0,0,1,9.27-10.52c.82-.81,1.66-1.61,2.5-2.39l.64-.59.29-.27s0,0-.12.1a2,2,0,0,0-.4.88,1.8,1.8,0,0,0,0,.8c.07.26.06.19-.13-.07-1.3-1.94-2.51-4-3.66-6a84.24,84.24,0,0,1-5.78-12.77A59.68,59.68,0,0,1,1562.44,801.74Z"/><path class="cls-17" d="M1568.54,859.86a12.48,12.48,0,0,0-9.34-.9,37.42,37.42,0,0,0-8.76,3.94,22.62,22.62,0,0,0-5.84,4.15c-3.3,3.62-3.84,9.3-1.86,13.78a17.73,17.73,0,0,0,10.87,9.25c7.19,2.31,15.83.28,20.54-5.62s3.83-17.72-5.61-24.6"/><path class="cls-1" d="M1532.9,802a6.12,6.12,0,0,0-6,2.09c-1.49,1.84-1.75,4.39-1.56,6.75a9.8,9.8,0,0,0,1.77,5.35,4.76,4.76,0,0,0,5,1.83,4.93,4.93,0,0,0,2.92-3.15,13.55,13.55,0,0,0,.58-4.4,15.75,15.75,0,0,0-.46-4.94,5.69,5.69,0,0,0-3.09-3.7"/><path class="cls-1" d="M1587.7,798.71a4.91,4.91,0,0,0-6,3.18,7.65,7.65,0,0,0,0,3.56,19.79,19.79,0,0,0,1.6,4.86c.59,1.23,1.49,2.52,2.83,2.68a3.17,3.17,0,0,0,1.92-.46c2.23-1.27,3.18-4,3.4-6.55a9.46,9.46,0,0,0-.88-5.34,4.93,4.93,0,0,0-4.45-2.68"/><path class="cls-24" d="M1522.62,835a3.13,3.13,0,1,1-2.12-3.88A3.13,3.13,0,0,1,1522.62,835Z"/><path class="cls-24" d="M1540.92,838.68a2.92,2.92,0,1,1-2-3.63A2.92,2.92,0,0,1,1540.92,838.68Z"/><path class="cls-24" d="M1531.71,849.36a2.44,2.44,0,1,1-1.66-3A2.43,2.43,0,0,1,1531.71,849.36Z"/><path class="cls-24" d="M1542.13,829.19a2.17,2.17,0,1,1-1.47-2.69A2.16,2.16,0,0,1,1542.13,829.19Z"/><path class="cls-24" d="M1517.85,851.28a1.7,1.7,0,1,1-1.16-2.11A1.71,1.71,0,0,1,1517.85,851.28Z"/><path class="cls-24" d="M1505.59,841.89c-.31,1.07-1.77,1.59-3.25,1.15s-2.43-1.65-2.12-2.72,1.77-1.58,3.25-1.15S1505.9,840.82,1505.59,841.89Z"/><path class="cls-24" d="M1506.87,828.73a1.56,1.56,0,1,1-1.07-1.94A1.57,1.57,0,0,1,1506.87,828.73Z"/><path class="cls-24" d="M1604.13,824.17a3.13,3.13,0,1,1-2.72-3.49A3.13,3.13,0,0,1,1604.13,824.17Z"/><path class="cls-24" d="M1602,841a1.7,1.7,0,1,1-1.48-1.9A1.69,1.69,0,0,1,1602,841Z"/><ellipse class="cls-24" cx="1585.64" cy="833.37" rx="2.02" ry="2.8" transform="translate(561.62 2303.12) rotate(-82.86)"/><path class="cls-24" d="M1587.58,820.52a1.56,1.56,0,1,1-1.35-1.74A1.55,1.55,0,0,1,1587.58,820.52Z"/><path class="cls-13" d="M3369.3,2378.25c77.37,97.2,75.69,122.07,53.89,200.05s-.51,75.06-.51,75.06l218.38-264.18c-60.44-50-143.54-54.65-160.25-84.06S3369.3,2378.25,3369.3,2378.25Z"/><path class="cls-1" d="M3388.59,2405.13c-29.36,139.27-52.54,155.93-137.3,193.61s-66.66,54.33-66.66,54.33H3577.3c0-89.83-56.51-166.63-42.74-202.85S3388.59,2405.13,3388.59,2405.13Z"/><path class="cls-1" d="M3388.59,2405.13c-29.36,139.27-52.54,155.93-137.3,193.61s-66.66,54.33-66.66,54.33H3577.3c0-89.83-56.51-166.63-42.74-202.85S3388.59,2405.13,3388.59,2405.13Z"/><g class="cls-19"><path d="M3540.1,2500.77c-28.69-6.43-132.54-7.13-175.17-7.13,5.64-15.23,10.86-33.25,16.11-54.89q3.75-15.51,7.55-33.62s153.34,8.5,146.59,42.93a12.16,12.16,0,0,1-.62,2.16C3529.84,2462.65,3533.4,2479.88,3540.1,2500.77Z"/></g><path class="cls-29" d="M3310.21,1288.15C3103.73,1920.62,3195,2277.07,3345,2433.55c141.27-160.83,126.06-139.1,126.06-139.1s-89.61-428.17-16.55-987.83C3362.37,1279.45,3310.21,1288.15,3310.21,1288.15Z"/><path class="cls-30" d="M3380.16,1746.74Q3375.89,1790,3369,1833c-1.16,7.15-2.33,14.31-3.57,21.45l-3.92,21.4c-1.34,7.13-2.88,14.22-4.31,21.33s-3.1,14.18-4.65,21.27c-6.7,28.24-14.19,56.37-24.38,83.66a293,293,0,0,1-17.87,39.85l-2.74,4.74-2.93,4.63c-1,1.54-2.08,3-3.11,4.51s-2.24,2.9-3.35,4.34a59.89,59.89,0,0,1-7.68,7.84c-.69.59-1.47,1.1-2.2,1.65s-1.54,1-2.33,1.44l-1.23.61c-.41.2-.85.34-1.27.52a8.14,8.14,0,0,1-2.66.54,7.83,7.83,0,0,0,2.58-.76c.4-.2.81-.37,1.2-.6l1.15-.7c.73-.51,1.46-1,2.15-1.6s1.38-1.15,2-1.79a59,59,0,0,0,7-8.17,130,130,0,0,0,10.84-18.58c.83-1.59,1.54-3.25,2.32-4.87s1.55-3.24,2.22-4.91c1.39-3.32,2.86-6.6,4.12-10l2-5c.66-1.67,1.24-3.38,1.86-5.07l1.84-5.07c.62-1.69,1.15-3.42,1.73-5.12,2.33-6.82,4.41-13.72,6.56-20.6s4.06-13.84,5.87-20.83,3.68-14,5.47-20.95,3.36-14,5-21.06,3.23-14.08,4.77-21.14l4.48-21.21,4.32-21.25c1.34-7.11,2.74-14.21,4.14-21.3C3369.8,1803.74,3374.83,1775.24,3380.16,1746.74Z"/><path class="cls-3" d="M3556.9,1306.62c57.59,396.66,0,1159.54,0,1159.54H3326.5l65.85-1156.9Z"/><path class="cls-30" d="M3540.1,1716.32l-2.51,9.33L3535,1735l-2.63,9.31c-.89,3.1-1.72,6.22-2.78,9.27l-6.15,18.35-3.12,9.17-3.51,9c-2.34,6-4.69,12-7.1,18s-5.26,11.8-7.89,17.71l-4,8.83-4.43,8.64-4.43,8.63c-1.49,2.88-2.91,5.78-4.58,8.56a376.73,376.73,0,0,1-44.08,63.91c-2.15,2.43-4.4,4.78-6.58,7.17s-4.32,4.83-6.74,7l-7,6.72c-1.14,1.15-2.42,2.17-3.64,3.23l-3.7,3.15c-10,8.24-20.67,15.78-32.44,21.1a169.79,169.79,0,0,0,30.48-23.32c9.46-8.62,17.81-18.35,26-28.1l5.85-7.59,2.95-3.78,1.47-1.89,1.38-2,5.51-7.85,2.75-3.92,1.38-2,1.27-2,10.3-16.18,9.56-16.64c1.66-2.74,3.1-5.6,4.58-8.43l4.45-8.52,4.45-8.51,4.08-8.7c2.73-5.79,5.56-11.55,8.21-17.39q3.74-8.87,7.59-17.68l3.81-8.84,3.48-9,7.06-17.94c1.24-3,2.27-6,3.35-9l3.26-9.08,3.3-9.07Z"/><path class="cls-30" d="M3380.16,2011.36a37.76,37.76,0,0,0,6.41,7.14,28.67,28.67,0,0,0,8,4.79c5.74,2.32,12,2.63,18.19,2a83.12,83.12,0,0,0,18.23-4.4,165.43,165.43,0,0,0,17.52-7.43,351.09,351.09,0,0,0,33.39-19c10.86-6.92,21.54-14.19,32.21-21.63a234.17,234.17,0,0,1-29.55,25.52,218.8,218.8,0,0,1-33.41,20.56c-3,1.42-6,2.78-9,4s-6.18,2.39-9.35,3.37a93.35,93.35,0,0,1-9.68,2.47,61.93,61.93,0,0,1-10,1.2,44.86,44.86,0,0,1-10.14-.66,33.52,33.52,0,0,1-9.64-3.33,28.52,28.52,0,0,1-7.88-6.27A31.64,31.64,0,0,1,3380.16,2011.36Z"/><path class="cls-30" d="M3497.73,1389.68c2.86,10.31,5.74,20.51,8.84,30.63s6.43,20.1,10.19,29.91q2.84,7.33,6.08,14.49c2.16,4.77,4.54,9.41,7.1,14a110.69,110.69,0,0,0,8.58,13.08,76.89,76.89,0,0,0,10.77,11.58,54,54,0,0,1-13-9.61,82.51,82.51,0,0,1-10.39-12.53,124.59,124.59,0,0,1-8.24-14c-2.42-4.84-4.59-9.79-6.55-14.81a212.34,212.34,0,0,1-9.14-30.89A186.62,186.62,0,0,1,3497.73,1389.68Z"/><path class="cls-16" d="M3450.72,978.43c-111.17,27.17-102.47,47.88-102.47,47.88s30.43,153.16-38,261.84c85.85,84.76,246.69,18.47,246.69,18.47s-38-96.72,13-173.88-29-167-119.22-154.31"/><g class="cls-31"><path d="M3569.94,1132.74c-51.08,77.16-13,173.88-13,173.88s-73.3,30.2-147.34,23.76c94.77-104.74,143.38-265.18,154.9-307.06C3588.44,1053.7,3595.08,1094.75,3569.94,1132.74Z"/></g><path class="cls-2" d="M3314.79,1081.47l-.52,1.07-10.68-6.56Z"/><path class="cls-2" d="M3402.13,1389.68c-101.06-22.82-144.08,14.75-149.51-15.68-10.95-61.32,32-119.84,64.19-97,26.08,18.47,28.81,31.18,75.54,32.27Z"/><path class="cls-24" d="M3402.13,1389.68c-101.06-22.82-144.08,14.75-149.51-15.68a112.2,112.2,0,0,1-1.73-18.17,110.42,110.42,0,0,0,3.84,13.67c9.9,28.09,45.7-11.64,143.84-9.07Z"/><path class="cls-16" d="M3564.46,1023.32c-103.66,14-21.69,264.64-81.46,271.25s-115.43-3.48-115.43-3.48l-10.64,114.5c368.4,46.73,351-58.76,215.6-370.53"/><path class="cls-12" d="M3440.55,1299.06a463.06,463.06,0,0,1-73.38-5.74l.81-4.46c.55.1,56,10,114.77,3.46,23.76-2.62,23.14-51.86,22.49-104-.46-36.47-1-77.79,6.64-109.6l4.4,1.06c-7.48,31.25-7,72.28-6.51,108.48.7,56.6,1.32,105.47-26.52,108.55A389.54,389.54,0,0,1,3440.55,1299.06Z"/><g class="cls-31"><path d="M3356.93,1405.59l2.82-30.37c272.51,76.3,292.87-15.21,239.05-278.52C3708.51,1360.67,3699.89,1449.09,3356.93,1405.59Z"/></g><path class="cls-2" d="M3413.09,872.29c12.31,102.15-20.29,115.2-35.5,129.69,24.63,52.88,112.29,6.52,133.3-16.67-34-55.78-15.94-122.44-15.94-122.44Z"/><g class="cls-31"><path d="M3558.56,929.74a2.69,2.69,0,0,0-.11-.3C3562.77,929.54,3558.56,929.74,3558.56,929.74Z"/></g><path class="cls-24" d="M3494.05,863c-9.72,16.1-19.72,38.38-36.64,56.4-16,17.06-33,23.17-44.86,29.6,3.72-17.67,4.72-42.06.54-76.69Z"/><path class="cls-2" d="M3492.71,681.53c-101.29-13.51-121.55,49-135.06,130.84C3344.19,894,3370.32,995.55,3474.14,885S3558.2,690.26,3492.71,681.53Z"/><path class="cls-3" d="M3365.25,742.31s60.78-10.13,104.67,8.44,11.82,86.94,20.85,179c87.2-.88,67.79,0,67.79,0s-12.66-36.33,33.76-78.54,92-156.17-19.41-198.37S3383.82,666.33,3365.25,742.31Z"/><g class="cls-32"><path class="cls-3" d="M3578.27,945.5a.76.76,0,0,0,0-1.51.76.76,0,0,0,0,1.51Z"/><path class="cls-24" d="M3415.35,684.76a164.65,164.65,0,0,0-20.79,32.75,166.86,166.86,0,0,0-12.64,36.68,162.57,162.57,0,0,0-3.24,21.72c-.08,1,1.43,1,1.51,0a163.27,163.27,0,0,1,7.63-37.63A165.35,165.35,0,0,1,3404,703.42a162.55,162.55,0,0,1,12.47-17.59c.61-.75-.45-1.82-1.07-1.07Z"/><path class="cls-24" d="M3408.29,700a230.8,230.8,0,0,0-15.4,45.68q-1.48,6.65-2.59,13.37c-.15,1,1.3,1.36,1.46.4a230.32,230.32,0,0,1,12.57-46.21q2.45-6.32,5.26-12.48c.4-.88-.9-1.65-1.3-.76Z"/><path class="cls-24" d="M3589.23,680.08c12.17,7.48,20.93,19.56,26.09,32.74,6,15.39,7.56,32.23,7.37,48.63a113.94,113.94,0,0,1-2.78,25.11c-1.93,8.1-5.29,15.68-8.8,23.19A185.29,185.29,0,0,0,3602,832a134.33,134.33,0,0,0-2.94,69.66q.64,2.87,1.43,5.7a.76.76,0,0,0,1.46-.4,132.24,132.24,0,0,1,.51-71.26,157,157,0,0,1,8.89-22.88c3.5-7.48,7.08-15,9.29-23a105.83,105.83,0,0,0,3.48-24.54c.6-16.45-.64-33.53-6-49.2-4.55-13.37-12.43-25.87-23.83-34.42q-2.09-1.56-4.31-2.92c-.82-.51-1.58.79-.76,1.3Z"/><path class="cls-24" d="M3600.36,720c4.78,10.12,6.2,21.45,5.74,32.54-.5,11.89-3.2,23.55-6,35.06-2.74,11-5.51,22.07-7.23,33.33a153.28,153.28,0,0,0-1.82,32.73,95.61,95.61,0,0,0,6.92,31.2c.51,1.23,1.06,2.45,1.63,3.65.41.88,1.71.11,1.3-.76a91.42,91.42,0,0,1-8.13-31.19,145.81,145.81,0,0,1,1.21-32.87,320.59,320.59,0,0,1,7-33.16c2.87-11.51,5.71-23.12,6.55-35,.79-11-.12-22.26-4.15-32.56-.49-1.26-1-2.51-1.62-3.74-.41-.88-1.71-.11-1.3.76Z"/><path class="cls-24" d="M3566.41,778c-1.75,11.31-6,22-10.16,32.6-4.23,10.76-8.25,21.62-11.61,32.69a227,227,0,0,0-7.72,33.76,157.57,157.57,0,0,0-1.39,33.41,120.88,120.88,0,0,0,6.61,32.36c.46,1.29,1,2.58,1.47,3.85.35.89,1.81.5,1.45-.4a116.32,116.32,0,0,1-7.71-32.15,151.81,151.81,0,0,1,.54-33,215.14,215.14,0,0,1,7.12-33.76c3.19-11,7-21.84,11.2-32.53s8.6-21.1,10.91-32.26c.28-1.38.53-2.77.75-4.16.14-1-1.31-1.36-1.46-.4Z"/><path class="cls-24" d="M3554.28,830.5c-3.49,5.3-5,11.56-6,17.75a168.33,168.33,0,0,0-2,20.17,174.34,174.34,0,0,0,3.26,40.65,171.8,171.8,0,0,0,6,22.19c.31.91,1.77.52,1.45-.4a172.37,172.37,0,0,1-7.68-79.59c1-6.94,2.35-14.06,6.27-20,.53-.82-.77-1.58-1.31-.77Z"/><path class="cls-24" d="M3500.79,868a204.12,204.12,0,0,0,7.07,52.5q2,7.26,4.47,14.35c.32.91,1.78.52,1.45-.4a203.17,203.17,0,0,1-7.12-25.4,198.66,198.66,0,0,1-3.76-26.15c-.39-5-.58-9.93-.6-14.9a.76.76,0,0,0-1.51,0Z"/><path class="cls-24" d="M3509.78,885.3a135.84,135.84,0,0,0,8.93,36.48q2,4.94,4.32,9.7c.42.87,1.73.11,1.3-.76a133.93,133.93,0,0,1-11.55-35c-.64-3.47-1.13-7-1.49-10.46-.1-1-1.61-1-1.51,0Z"/><path class="cls-24" d="M3495.59,885.34a134.84,134.84,0,0,0,12.21,45.59,132.37,132.37,0,0,0,6.29,11.89.75.75,0,0,0,1.3-.76,133.9,133.9,0,0,1-10.18-21.14,135.71,135.71,0,0,1-6.31-22.46,131.72,131.72,0,0,1-1.8-13.12c-.08-1-1.59-1-1.51,0Z"/></g><g class="cls-31"><path d="M3558.56,929.74a2.69,2.69,0,0,0-.11-.3C3562.77,929.54,3558.56,929.74,3558.56,929.74Z"/></g><g class="cls-31"><path d="M3613.82,826.15a144.53,144.53,0,0,1-21.5,25c-44,40-34.94,74.68-33.87,78.25-4.95-.14-21.11-.17-67.68.3-2.92-29.9-1.52-57.31.22-81.33C3526.86,854.69,3572.93,847.34,3613.82,826.15Z"/></g><path class="cls-28" d="M3475.83,851.2c40.52-67.19,74.29-27,57.4-11.82s-43.05,49.8-57.4,11.82"/><path class="cls-1" d="M3370,806a4.12,4.12,0,0,0-3.1,2.24,10.22,10.22,0,0,0-1,3.82,20.34,20.34,0,0,0,.68,9.41c.68,1.84,2.16,3.72,4.11,3.59s3.22-2.35,3.83-4.3a35.34,35.34,0,0,0,1.14-4.86,10.63,10.63,0,0,0-.44-6.25c-.9-1.92-3.12-3.36-5.14-2.74"/><path class="cls-1" d="M3420.31,806.72c-.52-.92-1.94-.6-2.8,0a10.35,10.35,0,0,0-4,7,18.53,18.53,0,0,0,.89,8.18,7.37,7.37,0,0,0,1.3,2.65c1.94,2.22,5.83,1.61,7.82-.57s2.5-5.31,2.56-8.26a11.74,11.74,0,0,0-1.36-6.6c-1.22-1.93-3.75-3.19-5.86-2.32"/><path class="cls-1" d="M3365.23,802.22a1.3,1.3,0,0,1,.42-.87,3.29,3.29,0,0,1,.84-.55,9.21,9.21,0,0,1,1.73-.57,11,11,0,0,1,3.57-.2,12.67,12.67,0,0,1,6.69,2.82,12.49,12.49,0,0,1,4.06,6,9.76,9.76,0,0,1-.33,7,41.09,41.09,0,0,0-3.39-5.15,24.56,24.56,0,0,0-3.68-3.79,26.19,26.19,0,0,0-4.44-2.91c-.82-.43-1.69-.82-2.63-1.2-.45-.2-1-.38-1.42-.56a2.34,2.34,0,0,0-.68-.17A1.06,1.06,0,0,0,3365.23,802.22Z"/><path class="cls-1" d="M3411.14,802.24a9.72,9.72,0,0,1,3.88-2.7,15.42,15.42,0,0,1,4.7-1,20.76,20.76,0,0,1,4.73.28,16.74,16.74,0,0,1,4.75,1.47,13.37,13.37,0,0,1,2.27,1.48,12.61,12.61,0,0,1,1.87,2,12.78,12.78,0,0,1,2.07,4.71,18.73,18.73,0,0,1-.48,9.25c-1.32-2.81-2.2-5.59-3.43-7.88a14.06,14.06,0,0,0-2.05-2.93,8.76,8.76,0,0,0-2.62-1.91,36,36,0,0,0-7.37-2.35A23,23,0,0,0,3411.14,802.24Z"/><path class="cls-1" d="M3366.21,783.26a4.71,4.71,0,0,1,2.44-2.37,14.16,14.16,0,0,1,3.06-1c1.89-.42,3.68-.7,5.38-1a45.8,45.8,0,0,0,4.9-1.06,22.87,22.87,0,0,0,5.19-2.14,7.91,7.91,0,0,1-3.16,5.75,12.8,12.8,0,0,1-6,2.65,18.28,18.28,0,0,1-6.18-.06c-1-.18-1.85-.41-2.72-.6A7.83,7.83,0,0,0,3366.21,783.26Z"/><path class="cls-1" d="M3404.41,789.48a23.36,23.36,0,0,1,8.71-8.08,29,29,0,0,1,11.63-3.52,30.84,30.84,0,0,1,6.15.16,17.48,17.48,0,0,1,3.17.71,10.89,10.89,0,0,1,3.1,1.56,12.66,12.66,0,0,1,4,5.05,22.81,22.81,0,0,1,1.68,5.72c-1.35-1.46-2.54-3-3.83-4.26a12.9,12.9,0,0,0-4-3,12.37,12.37,0,0,0-4.6-.84,48.55,48.55,0,0,0-5.26.11,47.73,47.73,0,0,0-10.41,2.05A66.52,66.52,0,0,0,3404.41,789.48Z"/><path class="cls-24" d="M3387.81,811a2.7,2.7,0,0,1,1.28.95,8,8,0,0,1,.8,1.42,18.31,18.31,0,0,1,1,2.95,20.38,20.38,0,0,1,.57,6.29,22.48,22.48,0,0,1-4.39,12c-1.32,1.76-2.7,3.12-3.72,4.45a13.12,13.12,0,0,0-2.24,4.35c-1,3.29-.95,7.12-.51,11.15a17.24,17.24,0,0,1-3.57-11.89,14.28,14.28,0,0,1,2.2-6.45c1.21-1.9,2.6-3.36,3.61-4.76a28,28,0,0,0,4.54-9.5,31.23,31.23,0,0,0,.94-5.44c.1-.94.11-1.89.14-2.87a7.06,7.06,0,0,0-.1-1.39A2.51,2.51,0,0,0,3387.81,811Z"/><path class="cls-3" d="M3375.83,878.14a36.29,36.29,0,0,1,9.83-6.59,48.13,48.13,0,0,1,11.3-3.65,47.49,47.49,0,0,1,11.84-.81,36.08,36.08,0,0,1,11.58,2.47c-3.94.67-7.7,1.11-11.41,1.67s-7.38,1.15-11,1.85-7.26,1.49-10.91,2.36S3379.72,877.29,3375.83,878.14Z"/><path class="cls-24" d="M3418.52,863a16.48,16.48,0,0,1,2.95,2.58,16.86,16.86,0,0,1,1.9,2.55,15.87,15.87,0,0,1,1.37,2.87,16.85,16.85,0,0,1,.89,3.82,6.76,6.76,0,0,1-4.06-1.14,8.81,8.81,0,0,1-3.94-6.56A6.8,6.8,0,0,1,3418.52,863Z"/><path class="cls-2" d="M3295.54,1039.28c47.82-76.62,33.35-108.42,63.57-129.87s43-27.16,51.1-21.19,43.15,24.91,23.89,47.17-30.43,46.29-40.21,72.92-22.28,21.73-35.32,43.47a264.18,264.18,0,0,0-20.1,41.29L3285.22,1067Z"/><g class="cls-33"><path class="cls-24" d="M3417.72,888.23c-5.51,4.88-11.22,9.34-17,13.75s-11.55,8.66-17.29,13c-2.86,2.15-5.71,4.31-8.48,6.52s-5.38,4.47-8,6.91-5.12,4.93-7.51,7.57c-1.22,1.3-2.35,2.68-3.44,4.09-.54.71-1.07,1.44-1.55,2.19a14.06,14.06,0,0,0-1.32,2.37,17.32,17.32,0,0,1,1.41-5.39,46.78,46.78,0,0,1,2.5-5,67.46,67.46,0,0,1,6.46-9.07,74.54,74.54,0,0,1,7.77-8c1.37-1.26,2.81-2.39,4.22-3.6l4.34-3.38a194.18,194.18,0,0,1,18.28-12.06A154.59,154.59,0,0,1,3417.72,888.23Z"/><path class="cls-24" d="M3429.83,893.66c-4.62,5.12-9.47,9.86-14.38,14.51s-9.91,9.18-14.91,13.68l-15.06,13.41c-5,4.49-10,8.92-15,13.72.75-1.54,1.57-3.06,2.41-4.58s1.87-2.89,2.81-4.34,2-2.77,3.07-4.15,2.15-2.68,3.28-4c2.21-2.63,4.59-5.08,7-7.54s4.9-4.78,7.45-7a194,194,0,0,1,15.92-12.82A138.21,138.21,0,0,1,3429.83,893.66Z"/><path class="cls-24" d="M3439.8,906c-4.12,4.74-8.45,9.13-12.8,13.47s-8.76,8.57-13.15,12.8-8.74,8.46-13,12.8c-2.12,2.17-4.2,4.37-6.23,6.64a79.35,79.35,0,0,0-5.8,7.18,34.06,34.06,0,0,1,3.35-8.86,67.64,67.64,0,0,1,5-8,109,109,0,0,1,12.42-14.08,143.52,143.52,0,0,1,14.26-12A105.68,105.68,0,0,1,3439.8,906Z"/></g><path class="cls-24" d="M3434.1,935.38c-19.26,22.27-30.43,46.29-40.21,72.92s-22.28,21.73-35.32,43.47a264.18,264.18,0,0,0-20.1,41.29l-23.68-11.59a270.78,270.78,0,0,1,23.43-38.12c15.05-20.39,27-14.33,39.29-39.9s25.69-48.43,47-68.75c20.45-19.53-9.22-40.75-18.26-48.36a11,11,0,0,1,4,1.88C3418.34,894.19,3453.36,913.14,3434.1,935.38Z"/><path class="cls-16" d="M3291.74,1023c66.83,28.79,85.85,36.94,85.85,36.94s-46.73,287.44-157,226C3116.77,1230,3291.74,1023,3291.74,1023Z"/><g class="cls-31"><path d="M3369.85,1098.32c-17.33,76.08-64.54,234.82-149.29,187.65-14.87-8-24-19.12-28.77-32.3a70.94,70.94,0,0,0,9,7.5C3277.31,1317,3342.22,1173.44,3369.85,1098.32Z"/></g></g></svg>