<svg xmlns="http://www.w3.org/2000/svg" xmlns:xlink="http://www.w3.org/1999/xlink" viewBox="0 0 4680 3120"><defs><style>.cls-1{fill:#ef4444;}.cls-2{fill:#fcc0a9;}.cls-3{fill:#0e1d73;}.cls-4{fill:#fff;}.cls-5{opacity:0.13;}.cls-6{fill:#1a1a1a;}.cls-7{fill:#333;}.cls-8{fill:gray;}.cls-9{opacity:0.3;}.cls-10{fill:#ccc;}.cls-11{fill:#b3b3b3;}.cls-12{fill:#4d4d4d;}.cls-13{fill:#999;}.cls-14{fill:#666;}.cls-15{fill:#fc9a74;}.cls-16{clip-path:url(#clip-path);}.cls-17{opacity:0.15;}.cls-18{clip-path:url(#clip-path-2);}.cls-19{fill:#2291f2;}.cls-20{clip-path:url(#clip-path-3);}.cls-21{clip-path:url(#clip-path-4);}.cls-22{clip-path:url(#clip-path-5);}.cls-23{clip-path:url(#clip-path-6);}.cls-24{clip-path:url(#clip-path-7);}.cls-25{fill:#f2f2f2;}.cls-26{opacity:0.6;}.cls-27{fill:#fdaf91;}.cls-28{fill:#0d143d;}</style><clipPath id="clip-path"><path class="cls-1" d="M3142.83,1562.35c-117.66,159.74-102.61,260.93-165.07,303.63s40.9,116.1,97.44,54.43S3179,1778.05,3182,1693.52,3142.83,1562.35,3142.83,1562.35Z"/></clipPath><clipPath id="clip-path-2"><path class="cls-1" d="M3019,1781.6c34.84,46.7,42.77,67.87,68.67,76.58s11.85,60-59.2,92.87-135.42-104.33-108-136.89S3008,1766.84,3019,1781.6Z"/></clipPath><clipPath id="clip-path-3"><path class="cls-2" d="M2955.73,1826.89c-29.11-19-25.32-29.63-37.28-79.27s33-49.45,50.42-38.65,49.25,26.88,42.78,71c0,0,7.55,8,7.39,24.77S2982.1,1844.06,2955.73,1826.89Z"/></clipPath><clipPath id="clip-path-4"><path class="cls-1" d="M3201.84,1530.59c6.55-2.61,39.36-8.61,46.41-8.75,73.21-1.45,123.08,18.8,163.16,82.65,16.72,26.63,38,92.35,48.32,122.06,38.71,111.46,27.59,218.78-27.84,323-.68-8.14-15.33-14.26-22.16-18.73-19.07-12.49-41.31-19.15-63.41-24.69-75.35-18.91-131.85-26.71-209.44-23.09,33.5-47,39.24-109.06,29.62-165.92s-.43-102.06-21.21-155.86c-6.21-16.09-12.26-32.49-14-49.65s1.2-35.41,11.55-49.21c13.66-18.21,37.12-25.51,59-31.76"/></clipPath><clipPath id="clip-path-5"><path class="cls-2" d="M3198.34,1238c127.51,61.3,85.66,172.46,22.07,222.32s-104.62,33.51-128.32,4.09-11.29-170.16,31.06-210.88C3165.65,1212.7,3198.34,1238,3198.34,1238Z"/></clipPath><clipPath id="clip-path-6"><path class="cls-3" d="M2812.86,2335.6c11.31-33.59,57-208.67,68.32-242.26,8.1-24.07,27.07-51.94,41.53-72.82a136.55,136.55,0,0,1,64.41-50c24.26-9,50.51-10.83,76.36-11.81,116.4-4.43,175.28,7,289.16,31.48,12.33,2.65,24.85,5.54,35.69,12,30.45,18,70.94,2.2,43.56,47.31-16.75,39.52-70.84,62.7-113.42,70.76-33.16,2.94-67.61,26.94-88,53.28s-32.74,57.86-43.84,89.25q-21.84,61.73-38.4,125.16c-52.75,9.35-106.81-2.64-158.4-17.09S2866.43,2336.7,2812.86,2335.6Z"/></clipPath><clipPath id="clip-path-7"><path class="cls-1" d="M3340.89,1566c28.61-24.78,80.76,21.11,94.38,54.61,2.28,5.61,17.14,28.14,20.12,41.4,4.24,18.92,13.83,40,20.15,61.35,15.54,52.42,37.75,103.55,42.71,159.91,1.56,17.74-1.86,40.18-16,53.56-10,9.44-25.45,12.17-38,13.56-21.8,2.43-42.57,1.42-63.56,2-42.68,1.22-79.16,16.88-115.39,38.2a530.08,530.08,0,0,0-34.44-70.56c39.49-17.73,72.57-44.55,108.69-68.1,14.28-44.68,4.44-68.26.7-110.29-3.11-34.88-19.39-46.88-26.11-83C3327.82,1624.38,3301,1600.58,3340.89,1566Z"/></clipPath></defs><g id="_10" data-name="10"><rect class="cls-4" width="4680" height="3120"/><g class="cls-5"><rect class="cls-6" x="2861.94" y="631.63" width="718.01" height="1880.88"/><rect class="cls-7" x="2949.27" y="1867.13" width="543.36" height="543.36"/><rect class="cls-8" x="2949.27" y="711.62" width="145.54" height="1004.97"/><rect class="cls-8" x="3347.08" y="711.62" width="145.54" height="1004.97"/><rect class="cls-8" x="3148.17" y="711.62" width="145.54" height="1004.97"/><rect class="cls-6" x="2907.22" y="857.78" width="627.45" height="39.31"/><rect class="cls-6" x="2907.22" y="1535.66" width="627.45" height="39.31"/><rect x="728.37" y="2499.59" width="3189.01" height="25.83"/><rect class="cls-8" x="1006.53" y="639.09" width="1282.17" height="819.35"/><path d="M2301.69,1471.43H993.54V626.1H2301.69Zm-1282.17-26H2275.71V652.09H1019.52Z"/><rect class="cls-6" x="1307.54" y="916.65" width="186.12" height="541.8"/><path d="M1494.11,1458.89h-187V916.2h187ZM1308,1458h185.22V917.09H1308Z"/><rect class="cls-6" x="1856.71" y="1091.28" width="160.85" height="367.17"/><path d="M2018,1458.89H1856.26V1090.83H2018Zm-160.85-.9h159.95V1091.73H1857.16Z"/><polygon class="cls-6" points="1718.85 1091.28 1718.85 859.2 1668.29 824.78 1668.29 755.03 1652.21 755.03 1652.21 824.78 1601.66 859.2 1601.66 1091.28 1567.19 1091.28 1567.19 1458.44 1753.31 1458.44 1753.31 1091.28 1718.85 1091.28"/><path d="M1753.76,1458.89h-187V1090.83h34.47V859l50.55-34.41v-70h17v70L1719.29,859v231.87h34.47Zm-186.12-.9h185.22V1091.73H1718.4V859.44L1667.85,825V755.48h-15.19V825l-50.55,34.42v232.29h-34.47Z"/><g class="cls-9"><polygon class="cls-10" points="1019.52 1054.51 1461.92 652.09 1670.78 652.09 1019.52 1285.7 1019.52 1054.51"/><path d="M1019.07,1286.76V1054.32l.15-.14,442.53-402.54h210.13l-.79.77Zm.9-232v229.92l649.7-632.1H1462.09Z"/></g><g class="cls-9"><polygon class="cls-10" points="1174.68 1445.45 2011.25 652.09 2256.93 652.09 1449.29 1445.45 1174.68 1445.45"/><path d="M1449.47,1445.9H1173.55l.82-.78,836.7-793.48h247l-.78.77Zm-273.67-.9h273.3l806.74-792.47H2011.43Z"/></g><circle class="cls-11" cx="2553.34" cy="859.84" r="68.18"/><rect class="cls-12" x="2542.48" y="461" width="21.72" height="269.72"/><polygon points="2733.13 859.85 2602.36 794.73 2603.45 794.73 2586.5 694.51 2520.18 694.51 2503.23 794.73 2504.32 794.73 2373.55 859.85 2733.13 859.85"/></g><polygon class="cls-6" points="3701.13 2655.62 3737.49 2655.62 3753.1 2347.07 3685.51 2347.07 3701.13 2655.62"/><polygon class="cls-7" points="3398.1 2655.62 3434.46 2655.62 3450.07 2347.07 3382.49 2347.07 3398.1 2655.62"/><polygon class="cls-6" points="3278.48 2655.62 3314.84 2655.62 3330.46 2347.07 3262.87 2347.07 3278.48 2655.62"/><polygon class="cls-7" points="2987.9 2655.62 3024.26 2655.62 3039.87 2347.07 2972.28 2347.07 2987.9 2655.62"/><path class="cls-13" d="M3968.39,1566.9l-48.48,534.81a89.63,89.63,0,0,1-89.63,89.62H3239.64a89.63,89.63,0,0,1-89.63-89.62l48.49-534.81a89.63,89.63,0,0,1,89.62-89.63h590.65A89.63,89.63,0,0,1,3968.39,1566.9Z"/><path class="cls-14" d="M3968.39,1566.9l-48.48,534.81a89.63,89.63,0,0,1-89.63,89.62h0a89.62,89.62,0,0,1-89.62-89.62l48.48-534.81a89.63,89.63,0,0,1,89.63-89.63h0A89.63,89.63,0,0,1,3968.39,1566.9Z"/><path class="cls-14" d="M2829.25,1857.87h306c56.08,0,109,31.15,118.27,69.57l97.55,405.89c9.24,38.43-28.74,69.57-84.83,69.57h-306c-56.09,0-109-31.14-118.28-69.57l-97.55-405.89C2735.18,1889,2773.16,1857.87,2829.25,1857.87Z"/><rect class="cls-15" x="3194.41" y="1906.94" width="151.51" height="546.56" rx="70.13" transform="translate(1089.95 5450.39) rotate(-90)"/><path class="cls-14" d="M3474.25,2402.9h306c56.09,0,109-31.14,118.28-69.57l97.55-405.89c9.23-38.42-28.75-69.57-84.84-69.57h-306c-56.08,0-109,31.15-118.27,69.57l-97.55,405.89C3380.18,2371.76,3418.16,2402.9,3474.25,2402.9Z"/><path class="cls-13" d="M2831.88,1857.87h0c57.54,0,111.86,32,121.34,71.37l76.67,319h380l76.67-319c9.48-39.42,63.8-71.37,121.34-71.37h0c57.54,0,96.51,32,87,71.37l-96.69,402.29c-8.37,34.83-51.77,63.82-101.46,70.1v1.27H2950.19v-.53c-52.64-4.25-99.89-34.33-108.66-70.84l-96.69-402.29C2735.37,1889.82,2774.34,1857.87,2831.88,1857.87Z"/><path class="cls-12" d="M3164.55,1215.5c100.38-10.3,235.46,101.36,173.37,107.74s4,35.92,38.7,58.26,74.19,47.09,25.81,52.68-43.55,19.15,6.45,38.3,29.83,36.72-206.43,72.63c-251.58-75.82-248.35-74.22-199.16-90.18s41.12-17.56,25-38.31-25-16.76,14.52-28.73S3055.7,1226.67,3164.55,1215.5Z"/><path class="cls-1" d="M3142.83,1562.35c-117.66,159.74-102.61,260.93-165.07,303.63s40.9,116.1,97.44,54.43S3179,1778.05,3182,1693.52,3142.83,1562.35,3142.83,1562.35Z"/><g class="cls-16"><path class="cls-15" d="M3191.41,1556.17c-17.84,9.41-31.6,24.55-42.47,41.3-11.59,17.89-20.16,37.5-28.89,56.88q-16.56,36.76-33.11,73.55l-16.62,36.91c-5.16,11.46-10.17,23-16.09,34.09a149.85,149.85,0,0,1-20.63,29.94,212.39,212.39,0,0,1-26.18,24.07q-3.57,2.83-7.21,5.57c-.78.59,0,1.93.78,1.33,18.91-14.3,36.63-30.16,49.11-50.55,6.4-10.45,11.58-21.58,16.62-32.73q8.25-18.27,16.46-36.56l33.12-73.55c9.15-20.33,17.83-41.06,29.14-60.32,10.23-17.43,23-33.89,40.28-44.85,2.1-1.34,4.27-2.58,6.47-3.75.88-.46.1-1.79-.78-1.33Z"/><path class="cls-15" d="M3176.34,1633.55c-15.85,11.81-24.72,30-33.08,47.39-8.75,18.21-17.16,36.58-25.75,54.87s-17.28,36.38-26.68,54.19a566.68,566.68,0,0,1-30.56,51.73,361.6,361.6,0,0,1-37.27,47c-1.7,1.79-3.41,3.56-5.15,5.31a.77.77,0,0,0,1.09,1.09,350.4,350.4,0,0,0,37.9-45.69,526.92,526.92,0,0,0,31.21-51c9.6-17.69,18.45-35.77,27.06-54s17-36.54,25.63-54.74c8.33-17.55,16.36-36.55,30.72-50.14a64.47,64.47,0,0,1,5.66-4.76c.78-.58,0-1.92-.78-1.33Z"/><path class="cls-15" d="M3185,1690.52c-7.32,7.51-13.33,16.14-19,24.9-6,9.24-11.82,18.65-17.47,28.14-11.24,18.86-21.95,38-33.1,56.94-10.71,18.16-21.83,36.12-34.18,53.22a350.85,350.85,0,0,1-37.4,44.22,234.77,234.77,0,0,1-45.2,35.39q-3.06,1.82-6.18,3.52c-.87.47-.1,1.8.78,1.33a227.79,227.79,0,0,0,46.12-33.79,332,332,0,0,0,38.24-43.15,598.05,598.05,0,0,0,34.38-51.93c11.33-18.9,22.09-38.13,33.24-57.13,5.59-9.53,11.28-19,17.19-28.34,5.75-9.08,11.57-18.22,18.49-26.46q2.52-3,5.23-5.77a.77.77,0,0,0-1.09-1.09Z"/></g><g class="cls-17"><path d="M3169.31,1765c-18.21,57.8-53.81,111.41-94.11,155.37-32.14,35-79.42,26.47-102.76,4.68,19.78,6.59,43.36,5.38,65-10.31C3090.68,1876.24,3140.68,1825.06,3169.31,1765Z"/></g><path class="cls-1" d="M3019,1781.6c34.84,46.7,42.77,67.87,68.67,76.58s11.85,60-59.2,92.87-135.42-104.33-108-136.89S3008,1766.84,3019,1781.6Z"/><g class="cls-18"><path class="cls-15" d="M2954.32,1778.39q-9.32,17.71-18.62,35.42c-5.62,10.74-11.09,21.87-12,34.16-.94,12.87,2.63,25.57,6.55,37.69q5.74,17.77,13.21,34.94t16.68,33.76c.75,1.35,1.52,2.71,2.29,4.06a.77.77,0,0,0,1.33-.78q-9.18-16-16.81-32.94t-13.65-34.7c-4-11.91-8-24.26-8.2-36.94a56.1,56.1,0,0,1,2.84-18.36,116.44,116.44,0,0,1,7.27-16.64c5.93-11.55,12.07-23,18.11-34.48l2.31-4.41c.46-.87-.87-1.65-1.33-.78Z"/><path class="cls-15" d="M2967,1807.4a132.91,132.91,0,0,0-11,31.52,144.22,144.22,0,0,0-3.07,33.15,148.64,148.64,0,0,0,4.52,33,144.2,144.2,0,0,0,11.87,31.23,133.72,133.72,0,0,0,18.78,27.29c.94,1,1.89,2.07,2.85,3.08.69.72,1.78-.37,1.09-1.09a131.2,131.2,0,0,1-19.52-26.58,141.72,141.72,0,0,1-12.53-30.4,146.15,146.15,0,0,1-5.36-32.5,143.16,143.16,0,0,1,2.09-32.94,132.61,132.61,0,0,1,9.82-31.35c.57-1.23,1.16-2.46,1.77-3.68.44-.88-.89-1.67-1.33-.78Z"/><path class="cls-15" d="M2989,1801.55a276.49,276.49,0,0,0,5.12,30c2.25,9.9,5,19.68,8.13,29.34s6.67,19.27,10.45,28.73,7.84,18.85,12.05,28.15,8.6,18.56,13,27.77l1.65,3.42c.43.89,1.76.11,1.33-.78-4.41-9.12-8.77-18.27-13-27.48s-8.36-18.63-12.21-28.09-7.38-18.83-10.59-28.41-6.07-19.3-8.44-29.13a280.08,280.08,0,0,1-5.54-29.72c-.16-1.25-.31-2.51-.45-3.76-.11-1-1.65-1-1.54,0Z"/><path class="cls-15" d="M2995.91,1787.68a283.95,283.95,0,0,1,46.4,54.44c6.1,9.34,11.43,19.09,16.77,28.87,4.87,8.91,9.88,17.81,16.08,25.87,6,7.75,13.11,14.7,21.83,19.25,1.09.57,2.19,1.1,3.32,1.59.9.39,1.68-.94.77-1.33-9-4-16.55-10.44-22.77-18-6.42-7.8-11.53-16.59-16.4-25.41-5.26-9.54-10.34-19.16-16.18-28.37a285.63,285.63,0,0,0-45.48-55c-1.08-1-2.16-2-3.25-3-.73-.66-1.83.42-1.09,1.09Z"/></g><g class="cls-17"><path d="M3028.51,1951.05c-69.75,32.27-133.05-99.34-109.46-135,8.37,50.93,58.86,125.49,113.27,100.31,33.22-15.37,54-34.78,64-52C3108.38,1881.28,3089.34,1922.92,3028.51,1951.05Z"/></g><path class="cls-19" d="M2907.67,1793.24l146.78-29.35c6.49-1.3,8.14-7.12,3.7-13l-137.58-182.16c-4.45-5.88-13.31-9.6-19.8-8.31L2754,1589.77c-6.49,1.29-8.14,7.12-3.7,13l137.59,182.16C2892.32,1790.82,2901.18,1794.54,2907.67,1793.24Z"/><g class="cls-9"><path d="M2821.51,1697.08l66.36,87.86c4.45,5.88,13.32,9.59,19.8,8.3l146.78-29.36c6.49-1.3,8.15-7.11,3.7-13l-22.29-29.52C2942.25,1728.76,2861.71,1709.45,2821.51,1697.08Z"/></g><path class="cls-2" d="M2955.73,1826.89c-29.11-19-25.32-29.63-37.28-79.27s33-49.45,50.42-38.65,49.25,26.88,42.78,71c0,0,7.55,8,7.39,24.77S2982.1,1844.06,2955.73,1826.89Z"/><g class="cls-20"><path class="cls-15" d="M2994.68,1710.44a77.32,77.32,0,0,0-3.13,8.14l-.67,2.05-.6,2.06c-.44,1.36-.74,2.76-1.12,4.13a153.26,153.26,0,0,0-3.17,16.71l-.51,4.23c-.21,1.41-.24,2.83-.39,4.25-.34,2.84-.39,5.69-.61,8.56-.14,1.44-.13,2.87-.19,4.32s-.12,2.89-.2,4.34c-.1,2.91-.1,5.82-.38,8.81-.94-2.81-1.67-5.69-2.34-8.58-.26-1.46-.51-2.92-.73-4.39s-.46-2.94-.53-4.42a78,78,0,0,1-.29-8.92c0-1.49,0-3,.19-4.48l.47-4.46a72.07,72.07,0,0,1,4.55-17.35c.6-1.38,1.14-2.77,1.87-4.09l1-2c.37-.65.76-1.3,1.15-1.93A33.48,33.48,0,0,1,2994.68,1710.44Z"/><path class="cls-15" d="M2974.16,1704.85a153.11,153.11,0,0,0-6.28,14,126.36,126.36,0,0,0-4.68,14.26,131,131,0,0,0-3,14.69c-.48,2.49-.64,5-1,7.56s-.42,5.11-.86,7.76c-.41-1.25-.74-2.53-1.07-3.81a30.86,30.86,0,0,1-.8-3.89,53.88,53.88,0,0,1-.62-7.93A59.86,59.86,0,0,1,2964,1717,42.39,42.39,0,0,1,2974.16,1704.85Z"/><path class="cls-15" d="M2945.33,1695.82c-1.33,5.43-2.65,10.71-3.86,16s-2.28,10.53-3.16,15.79a135.86,135.86,0,0,0-1.62,32.19c-.6-1.25-1.15-2.54-1.68-3.85a19.59,19.59,0,0,1-.74-2l-.56-2a41.89,41.89,0,0,1-1-4.13c-.21-1.39-.4-2.8-.57-4.2a67.71,67.71,0,0,1,.64-16.89,81.39,81.39,0,0,1,4.49-16.2A62,62,0,0,1,2945.33,1695.82Z"/></g><path class="cls-1" d="M3201.84,1530.59c6.55-2.61,39.36-8.61,46.41-8.75,73.21-1.45,123.08,18.8,163.16,82.65,16.72,26.63,38,92.35,48.32,122.06,38.71,111.46,27.59,218.78-27.84,323-.68-8.14-15.33-14.26-22.16-18.73-19.07-12.49-41.31-19.15-63.41-24.69-75.35-18.91-131.85-26.71-209.44-23.09,33.5-47,39.24-109.06,29.62-165.92s-.43-102.06-21.21-155.86c-6.21-16.09-12.26-32.49-14-49.65s1.2-35.41,11.55-49.21c13.66-18.21,37.12-25.51,59-31.76"/><g class="cls-21"><path class="cls-15" d="M3174,1520.28c-8,11.06-9.8,24.92-10.09,38.22-.36,16.21.43,32.51,1.36,48.69,1.89,33.1,5.47,66.08,9.4,99,4,33.11,8.28,66.19,11.62,99.37,1.67,16.5,3.09,33,4.11,49.58,1,16.3,1.82,32.67.93,49-1.58,29-9.51,59.31-30.79,80.28a80.22,80.22,0,0,1-8,6.91c-.6.45,0,1.47.59,1,22.16-16.62,33.59-43.36,37.62-70.12,2.4-16,2.46-32.23,1.83-48.36-.65-16.67-1.85-33.33-3.33-49.94-2.95-33.37-7.14-66.62-11.2-99.87s-8-66.78-10.48-100.32c-1.22-16.68-2.07-33.38-2.38-50.1-.26-14.38-.87-29.71,4.63-43.3a44.94,44.94,0,0,1,5.23-9.45c.45-.61-.57-1.2-1-.59Z"/><path class="cls-15" d="M3218.55,1542c-10.44,6.5-14.84,18.65-17.3,30.13-3.36,15.64-4.89,31.76-5.61,47.71-1.51,33.61,1.41,67.22,4.86,100.62,3.26,31.57,7.13,63.15,8.1,94.91.87,28.27-.4,56.78-5.86,84.59-5.35,27.26-14.9,53.86-30.26,77.13q-2.86,4.32-6,8.47c-.45.61.57,1.2,1,.6,16.3-21.9,27.17-47.26,33.65-73.7,6.61-27,8.89-54.84,8.83-82.54-.06-30.72-3.25-61.28-6.48-91.79-3.52-33.19-7.15-66.46-7.13-99.87a359.32,359.32,0,0,1,3.3-50.25c1.86-13.06,3.76-28.11,12.35-38.73a28.21,28.21,0,0,1,7.08-6.26c.65-.4.06-1.42-.59-1Z"/><path class="cls-15" d="M3262.26,1555.7c-9.28,8.66-12.72,21.28-14.36,33.47-2.09,15.44-2.56,31.18-2.61,46.74-.11,32.95,2.82,65.81,5.6,98.62,2.64,31,5.22,62.07,4.87,93.21-.31,28.11-2.87,56.32-9.44,83.69-6.46,26.89-16.94,52.93-32.65,75.79-.92,1.33-1.83,2.69-2.82,4a7.46,7.46,0,0,1-2,2c-1.31.75-4.48-.66-2.67-2.11.59-.48-.25-1.31-.83-.84-1.37,1.1-.82,3,.48,4,1.75,1.28,3.82.07,5.11-1.29,2.23-2.36,4-5.4,5.75-8.1q3-4.5,5.69-9.15a220.06,220.06,0,0,0,17.48-38.09c9.52-27.08,14.23-55.66,16.11-84.24,2-31,.57-62-1.79-92.95-2.63-34.31-6.28-68.56-7.39-103-.55-17.06-.47-34.15.68-51.18.94-14,1.8-29.34,9.15-41.7a36.4,36.4,0,0,1,6.46-8c.56-.51-.28-1.34-.83-.83Z"/><path class="cls-15" d="M3354.68,1516.7c-14.52-.28-22.75,15.18-28,26.49a194.24,194.24,0,0,0-14.65,47c-6.16,33.17-5.89,67.2-5.53,100.8.37,34.43,1.51,68.84,1.18,103.27s-2.09,68.8-7.82,102.71a383.22,383.22,0,0,1-11.44,48.83q-3.73,12.15-8.4,24c-2.8,7.09-5.51,15-10.69,20.8a15.15,15.15,0,0,1-9.39,5.3c-.74.09-.75,1.27,0,1.18,6.09-.76,10.4-5.08,13.51-10.1,4-6.4,6.58-13.81,9.24-20.83a346.22,346.22,0,0,0,14.36-48.55c7.28-33,10.27-66.79,11.35-100.52,1.09-34.39.21-68.81-.39-103.21-.59-34-1.59-68.37,2.09-102.26a238.54,238.54,0,0,1,10.27-49.4,168,168,0,0,1,9.91-23.72c3.4-6.61,7.64-13.4,14-17.54a18.23,18.23,0,0,1,10.46-3.11.59.59,0,0,0,0-1.17Z"/><path class="cls-15" d="M3453.84,1580c.86-5.47-5.36-9-10.22-7.86-7.32,1.73-10.8,10.82-13.85,16.76a518.56,518.56,0,0,0-22,49.44c-13.15,34.09-23,69.37-31,105-8.11,36-14.4,72.44-20.49,108.87s-12,73.19-19.34,109.55c-3.63,18.1-7.62,36.13-12.15,54-2,7.91-3.83,16-6.83,23.57-2.67,6.79-6.42,13.85-12.46,18.24a20,20,0,0,1-9.77,3.76c-.75.08-.76,1.25,0,1.17,13.57-1.43,20.65-14.73,24.65-26.33,2.67-7.76,4.5-15.85,6.48-23.81q3.28-13.22,6.21-26.53c7.81-35.35,13.94-71,19.91-106.74s11.78-71.65,18.93-107.24c7-35.07,15.4-69.92,26.56-103.92,5.62-17.14,12-34,19.17-50.58q5.4-12.39,11.46-24.48c1.94-3.88,3.85-7.82,6.06-11.56,2-3.4,4.92-7.37,9.09-8.13,3.84-.69,9.19,2,8.49,6.48-.12.74,1,1.06,1.13.31Z"/><path class="cls-15" d="M3477.4,1651.83c-8.44,6.34-13.48,15.69-16.65,25.58-3.69,11.51-5.26,23.64-7.29,35.52l-14.85,86.54-7.44,43.39c-2.36,13.71-4.73,27.43-7.78,41-5.69,25.28-14.19,49.66-27.43,72a220.46,220.46,0,0,1-46.2,55.07c-2.26,1.93-4.57,3.82-6.9,5.66-.6.47.24,1.3.83.83a221,221,0,0,0,47.77-52.12,230.75,230.75,0,0,0,29.88-68.1c7.17-27.14,11.14-55.1,15.88-82.73l14.85-86.54c2.24-13.1,4.12-26.32,6.95-39.32,2.31-10.65,5.69-21.68,12.92-30.11a37.5,37.5,0,0,1,6.06-5.68c.6-.45,0-1.47-.6-1Z"/><path class="cls-15" d="M3398.32,2068.94c3.78-32.37,22.27-60.1,40.71-86,9.4-13.2,19-26.27,27.54-40a402.8,402.8,0,0,0,23.31-43.38c13.71-29.63,24-60.77,31.8-92.45,7.89-32,13.26-64.62,17.2-97.34,4-33.23,6.51-66.62,8.52-100q.38-6.17.73-12.34c0-.75-1.14-.75-1.18,0-1.91,33.37-4.18,66.74-7.82,100s-8.69,66.64-16.19,99.37c-7.4,32.25-17.22,64-30.52,94.34a411,411,0,0,1-22.16,43.46c-8.26,14-17.58,27.34-27.05,40.57-18.19,25.39-37.5,51.78-44.25,82.89-.79,3.62-1.38,7.29-1.81,11-.09.75,1.09.74,1.17,0Z"/></g><g class="cls-17"><path d="M3431.89,2049.5c-.67-8.14-15.33-14.26-22.16-18.73-19.07-12.49-41.31-19.14-63.42-24.69-75.33-18.91-131.83-26.71-209.43-23.1,14.63-20.49,24-43.87,29-68.46,105.78-52.4,200.44-110.22,235.18-226.36,4.88-16.34,12.33-40.17,19.79-65.78,14.62,31.39,30.42,79.86,38.86,104.17C3498.44,1838,3487.32,1945.33,3431.89,2049.5Z"/></g><g class="cls-17"><path d="M3052.2,1970.16l-2.73,1.39A3,3,0,0,1,3052.2,1970.16Z"/></g><path class="cls-2" d="M3171.72,1464.46c20.54,18.69,21.24,54.94,1.44,74.4-2.25,2.21-4.77,4.31-6,7.22-1.39,3.34-.78,7.18.3,10.63a42.17,42.17,0,0,0,33.09,28.4c15.46,2.36,30.88-4.17,44.4-12a214.92,214.92,0,0,0,57.48-48.73c-21.18-.22-38.43-17-50.37-34.51a202.68,202.68,0,0,1-28.37-61.87"/><path class="cls-15" d="M3220.72,1449.32c-1,15.74-11,29.28-20.73,41.71a120.71,120.71,0,0,1-12.48,14.19,55.06,55.06,0,0,0-5.49-27,72.66,72.66,0,0,0,18-12.94c4.41-4.33,8.39-9.32,13.84-12.24Z"/><path class="cls-2" d="M3198.34,1238c127.51,61.3,85.66,172.46,22.07,222.32s-104.62,33.51-128.32,4.09-11.29-170.16,31.06-210.88C3165.65,1212.7,3198.34,1238,3198.34,1238Z"/><g class="cls-22"><path class="cls-7" d="M3188.17,1339.8c-.21-.35-.37-.71-.55-1.06l.26.35a38.22,38.22,0,0,0-9.82,1.09l-4.88,1c-1.62.32-3.12.65-4.56,1.07a26.79,26.79,0,0,0-4.1,1.53,33,33,0,0,0-4,2.28c-2.7,1.72-5.33,3.94-8.49,5.91a24.72,24.72,0,0,1,4.93-9.81,19.91,19.91,0,0,1,9.7-6.43,27.55,27.55,0,0,1,5.57-1,40.5,40.5,0,0,1,5.42-.12,22.42,22.42,0,0,1,5.56.95,13.53,13.53,0,0,1,5,2.71l.29.26,0,.1C3188.37,1339,3188.29,1339.41,3188.17,1339.8Z"/><path class="cls-7" d="M3163.56,1342.89a6.4,6.4,0,0,1,6.9,1.31,10,10,0,0,1,2.89,6.7,14.5,14.5,0,0,1-9,14.1c-2,.79-4.57,1-6.18-.47-1.82-1.67-1.55-4.56-1.15-7,.92-5.47,2.24-11.57,6.89-14.58"/><path class="cls-7" d="M3097.4,1323.46a13.37,13.37,0,0,1,8,1.65,17.2,17.2,0,0,1,8.81,13.62,13.16,13.16,0,0,1-1.75,8c-1.35-2.51-2.34-4.64-3.42-6.64s-2.12-3.83-3.25-5.61-2.35-3.48-3.74-5.24S3099.15,1325.72,3097.4,1323.46Z"/><path class="cls-7" d="M3102.64,1334.44c.82-.9,2.32-.08,3.09.86,2.49,3.06,3.18,7.18,3.52,11.11a15.26,15.26,0,0,1-.3,5.68,5.87,5.87,0,0,1-3.68,4.07,5.68,5.68,0,0,1-5.59-1.89,11.51,11.51,0,0,1-2.46-5.64,24.76,24.76,0,0,1,.55-11.54c.52-1.79,1.91-3.89,3.71-3.39"/><path class="cls-15" d="M3128.62,1332.39a38.54,38.54,0,0,1,3.36,18.88,49.3,49.3,0,0,1-5.1,18.87c-2.91,5.81-6.28,10.57-7.36,16a34,34,0,0,0-.61,8.64c.12,3,.56,6.06,1,9.22a34,34,0,0,1-4.29-8.61,26.33,26.33,0,0,1,1-19.8c1.28-3,2.82-5.79,4.12-8.44a73.16,73.16,0,0,0,5.91-16.57A80.54,80.54,0,0,0,3128.62,1332.39Z"/><path class="cls-7" d="M3182.4,1308.78c-2.67.84-4.84,1.56-7.13,2.2s-4.47,1.17-6.71,1.62-4.49.81-6.78,1.13-4.58.55-7.37.88a10.39,10.39,0,0,1,2.33-3.42,17.47,17.47,0,0,1,3.18-2.48,22.43,22.43,0,0,1,7.29-2.78,23.54,23.54,0,0,1,7.77-.28,17.26,17.26,0,0,1,3.88,1A10.06,10.06,0,0,1,3182.4,1308.78Z"/><path class="cls-7" d="M3121.2,1311.57a25.9,25.9,0,0,1-5.34-2.17c-1.49-.79-2.81-1.55-4.05-2.34l-3.69-2.33a53.23,53.23,0,0,0-4.69-2.71,7.6,7.6,0,0,1,5.89-2.51,11.3,11.3,0,0,1,6.09,1.77,12.83,12.83,0,0,1,4.23,4.35A11,11,0,0,1,3121.2,1311.57Z"/><path class="cls-1" d="M3149,1416.9a62.3,62.3,0,0,1-39,.44,70.68,70.68,0,0,0,4,17c1.47,3.94,3.72,8.13,7.74,9.36s8.21-1,11.66-3.36c9.08-6.25,17.11-14.47,21.41-24.62"/><path class="cls-15" d="M3176.13,1379.8a26.74,26.74,0,0,1,28.36-3.29,10.35,10.35,0,0,1,5.06,4.54c1.21,2.61.49,5.82-1.19,8.16a18.54,18.54,0,0,1-6.76,5.27c-9,4.63-20,6.32-29.24,2.31-2.32-1-4.71-2.63-5.2-5.11-.59-2.93,1.66-5.59,3.75-7.73"/><path class="cls-15" d="M3083.65,1357.22c8.44,4.08,12.93,16.48,12,23.89-.25,2.05-1.13,4.44-3.15,4.85a4.94,4.94,0,0,1-3.28-.82c-2.8-1.56-6.08-5.46-7.83-8.15"/></g><path class="cls-15" d="M3180.52,1290.73c64.55,25.85-31.51,21.54,12.41,44s61.3,30.66,43.91,38.6c-13.29,6.06,13,1.94,36,17.06,19.74-51.47,8.45-112.43-74.48-152.3,0,0-23.26-18-56.07.89a40.77,40.77,0,0,0-1.79,3.76C3214,1263.14,3115.94,1264.86,3180.52,1290.73Z"/><path class="cls-12" d="M3144.94,1237.45c65.66,19.39-21.91,21,35.77,45.55s-28.14,20.43,11.09,41.68,54.77,29.09,39.24,36.62,29.42-1.47,49,35.31c42.5-42.5,55.43-81.74,1.15-126.69S3161.84,1194.35,3144.94,1237.45Z"/><path class="cls-3" d="M3365.13,1334.18l-2.58-2.5a.59.59,0,0,0-.83.83l2.58,2.5a.6.6,0,0,0,.83,0,.59.59,0,0,0,0-.83Z"/><path class="cls-2" d="M2913.52,2544.16c-26.59,9.14-27.84,11.52-55.55,6.7-5.49-1-11.45-2.5-14.64-7.06-4.2-6-2.12-15.09-7-20.5-5.52-6.06-15.43-3.3-23-.11l-.43.17a133.74,133.74,0,0,0,7.66-20.15c6.48-21.09,11.22-42.67,15.72-64.26q7.22-34.48,13.68-69.13c34.1,13.66,59.33,25,77.15,33.64C2914.43,2449.74,2907.76,2497,2913.52,2544.16Z"/><path class="cls-1" d="M2929.82,2643.86c-4,4.58-10.59,5.67-16.63,6.41-70.58,8.6-114.37,5.43-185.28.23-15.88-1.17-31.93-2.46-47.13-7.24-3.82-1.22-8-3.08-9.35-6.87-1.22-3.49.5-7.28,2.46-10.42,12.33-19.7,34.48-30.58,55.13-41.28q21.77-11.27,42.92-23.69c13.43-7.89,27-16.46,36-29.22a67,67,0,0,0,5-8.42l.43-.17c7.56-3.19,17.47-6,23,.11,4.93,5.41,2.85,14.51,7,20.5,3.19,4.56,9.15,6.11,14.64,7.06,27.71,4.82,29,2.44,55.55-6.7.37,2.94.77,5.86,1.23,8.79,3.52,22.59,9.93,44.62,16.28,66.58C2933.38,2627.69,2935.41,2637.46,2929.82,2643.86Z"/><path class="cls-15" d="M2952.45,2327.77a785.32,785.32,0,0,0-25.38,75.69c-17.82-8.62-43.05-20-77.15-33.64q4.88-26,9.33-52.09Z"/><g class="cls-17"><path d="M2929.82,2643.86c-4,4.58-10.59,5.67-16.63,6.41-70.58,8.6-114.37,5.43-185.28.23-15.88-1.17-31.93-2.46-47.13-7.24-3.82-1.22-8-3.08-9.35-6.87-1.22-3.49.5-7.28,2.46-10.42,8.72-13.94,22.34-23.45,36.88-31.61,66.74,12.13,97.23,5.33,156.87-42,18.8,2.55,22.78-.29,45.88-8.23.37,2.94.77,5.86,1.23,8.79,3.52,22.59,9.93,44.62,16.28,66.58C2933.38,2627.69,2935.41,2637.46,2929.82,2643.86Z"/></g><path class="cls-2" d="M3064.08,2547.55c-26.59,9.13-27.84,11.51-55.56,6.7-5.48-1-11.44-2.51-14.63-7.07-4.2-6-2.12-15.09-7-20.49-5.52-6.07-15.43-3.31-23-.12l-.43.18a134.27,134.27,0,0,0,7.66-20.16c6.48-21.08,11.22-42.66,15.72-64.25q7.22-34.5,13.68-69.13c34.1,13.65,59.33,25,77.15,33.63C3065,2453.12,3058.32,2500.4,3064.08,2547.55Z"/><path class="cls-1" d="M3080.38,2647.24c-4,4.58-10.59,5.67-16.63,6.42-70.58,8.59-114.37,5.42-185.28.22-15.88-1.17-31.93-2.46-47.13-7.24-3.82-1.21-8-3.07-9.36-6.86-1.21-3.5.51-7.29,2.47-10.42,12.33-19.71,34.48-30.59,55.13-41.29q21.77-11.27,42.92-23.69c13.43-7.88,27-16.45,36-29.22a66.91,66.91,0,0,0,5-8.41l.43-.18c7.56-3.19,17.47-6,23,.12,4.93,5.4,2.85,14.5,7,20.49,3.19,4.56,9.15,6.11,14.63,7.07,27.72,4.81,29,2.43,55.56-6.7.37,2.93.77,5.85,1.23,8.78,3.52,22.59,9.93,44.62,16.28,66.59C3083.94,2631.08,3086,2640.85,3080.38,2647.24Z"/><path class="cls-15" d="M3103,2331.15c-9.57,24.8-22.54,66.26-29.53,91.86-17.82-8.61-45.37-2.51-79.47-16.17,3.25-17.34,12.83-68.34,15.8-85.73Z"/><path class="cls-3" d="M2812.86,2335.6c11.31-33.59,57-208.67,68.32-242.26,8.1-24.07,27.07-51.94,41.53-72.82a136.55,136.55,0,0,1,64.41-50c24.26-9,50.51-10.83,76.36-11.81,116.4-4.43,175.28,7,289.16,31.48,12.33,2.65,24.85,5.54,35.69,12,30.45,18,70.94,2.2,43.56,47.31-16.75,39.52-70.84,62.7-113.42,70.76-33.16,2.94-67.61,26.94-88,53.28s-32.74,57.86-43.84,89.25q-21.84,61.73-38.4,125.16c-52.75,9.35-106.81-2.64-158.4-17.09S2866.43,2336.7,2812.86,2335.6Z"/><g class="cls-23"><path class="cls-11" d="M2950.88,2053a110.75,110.75,0,0,0-2.31,15.48,106.36,106.36,0,0,0,2.27,31.91,96,96,0,0,0,5.31,16.21,86.54,86.54,0,0,0,8.07,14.76,89,89,0,0,0,11.86,14.05,96.34,96.34,0,0,0,15.66,12.14,114.08,114.08,0,0,0,19.68,9.68,143,143,0,0,0,23.5,6.66,200.06,200.06,0,0,0,28.77,3.41c2.52.12,5,.2,7.57.25a3,3,0,0,0,2.95-2.94,3,3,0,0,0-2.95-2.95c-5.08-.09-10.17-.33-15.23-.75q-3.54-.3-7.07-.72l-1.65-.21-.82-.11-.39-.05c-1.11-.15-2.21-.32-3.3-.49a153.4,153.4,0,0,1-24.38-5.84q-2.74-.9-5.44-1.94c-.87-.34-1.74-.68-2.61-1l-.61-.25-.34-.14.3.13-1.33-.58q-4.82-2.11-9.41-4.67c-2.92-1.64-5.77-3.42-8.52-5.34-.66-.47-1.32-.94-2-1.42l-.91-.69-.41-.3c-.39-.31.53.41.25.19l-.3-.23q-1.83-1.44-3.6-3a87.77,87.77,0,0,1-6.59-6.35q-1.5-1.61-2.92-3.29c-.47-.56-.94-1.13-1.4-1.7l-.64-.82c-.36-.46.48.63.08.1l-.35-.46a84.8,84.8,0,0,1-8.79-14.4c-.6-1.25-1.17-2.52-1.72-3.79-.15-.36.17.42.17.41s-.09-.22-.1-.26l-.19-.45c-.14-.33-.27-.67-.4-1-.26-.64-.5-1.28-.74-1.92q-1.39-3.78-2.46-7.67t-1.79-7.86c-.24-1.29-.45-2.59-.63-3.89,0-.15-.05-.31-.07-.46l0-.21c-.06-.46.1.77.06.42s-.09-.69-.14-1c-.07-.64-.15-1.28-.21-1.92a105.39,105.39,0,0,1-.44-15.49q.18-3.79.61-7.58c0-.29.07-.59.11-.88s.21-.87.12-1-.11.86-.06.49l0-.19.06-.49c0-.31.09-.62.14-.92.18-1.2.39-2.4.61-3.6s.45-2.32.71-3.47a2.94,2.94,0,0,0-5.67-1.57Z"/><path class="cls-11" d="M2958.18,2027.83a114.07,114.07,0,0,0,18.37,31.48,195.11,195.11,0,0,0,25.08,25.36A282.29,282.29,0,0,0,3098,2139c1.48.49,3,1,4.45,1.42a2.95,2.95,0,0,0,1.57-5.68c-5.88-1.84-11.71-3.82-17.46-6-2.82-1.08-5.61-2.2-8.39-3.37-.51-.22-.07,0,0,0l-.45-.19-1.13-.48-2.12-.93c-1.38-.61-2.76-1.22-4.13-1.85a282.07,282.07,0,0,1-32-17.33q-7.7-4.84-15.08-10.18c-1.22-.88-2.44-1.78-3.64-2.68l-1.76-1.33-.87-.66-.48-.38c.4.32,0,0-.18-.13q-3.57-2.77-7-5.66a212.06,212.06,0,0,1-25.6-24.72q-1.38-1.62-2.73-3.28l-1.32-1.66-.37-.47c-.29-.37.42.55,0-.06l-.72-.94q-2.62-3.48-5-7.14a106.12,106.12,0,0,1-8.33-15.51c0-.12-.23-.52,0,0l-.18-.44c-.14-.32-.27-.65-.4-1-.28-.69-.55-1.39-.81-2.09a3,3,0,0,0-3.62-2.06,3,3,0,0,0-2.05,3.62Z"/><path class="cls-11" d="M3002,2125.41c0,4.4,3.22,7.62,6.78,9.74a51.84,51.84,0,0,0,5.29,2.6q3.12,1.41,6.27,2.77c8.55,3.67,17.24,7.05,26.05,10.06q13,4.44,26.25,7.87t26.78,5.83c9.21,1.65,18.5,2.93,27.81,3.86l3.35.32a3,3,0,0,0,2.95-2.94,3,3,0,0,0-2.95-2.95q-6.71-.6-13.39-1.46l-1.61-.21h-.07c.42.05-.08,0-.18,0l-.92-.12-3.34-.48c-2.22-.33-4.44-.69-6.65-1.06q-13.23-2.22-26.27-5.43t-25.79-7.39q-12.79-4.2-25.26-9.35l-1.5-.62-.51-.21c.34.14,0,0-.07,0l-.54-.22-3.09-1.34c-2.06-.9-4.11-1.81-6.15-2.75a30.87,30.87,0,0,1-4.63-2.51c-.17-.12-.34-.26-.51-.37.68.42.14.11,0,0a11.37,11.37,0,0,1-1-.88c-.13-.14-.27-.29-.39-.44-.45-.53.26.41,0,0s-.41-.7-.62-1.05.21.6.1.25c0-.07-.06-.15-.08-.23a4.81,4.81,0,0,1-.16-.54c0-.11,0-.22-.07-.32-.09-.28.05.37,0,.37a3.91,3.91,0,0,0,0-.68,2.95,2.95,0,1,0-5.89,0Z"/></g><path class="cls-2" d="M3287.05,1918.41c-37.67,15.47-76.19,22.47-114.2,38-30.51,12.46-53.37,35.41-66.79,66-3.31,7.54-5.38,15.58-1.55,23.33,5.54,11.18,17.12,15.35,29.14,13.29s20.67-9.65,29.76-17.05,16.91-16,27.7-20.77c16.82-7.45,36.36-5.41,53.11-12.68,22.65-9.84,39.27-28.64,61.52-39.18"/><path class="cls-15" d="M3286.91,1918.67c6.32,16.87,12.62,33.63,18.79,50.63-22.18,10.68-38.84,29.39-61.5,39.25-16.75,7.29-36.26,5.18-53.08,12.71-10.79,4.83-18.72,13.17-27.69,20.82s-18.12,14-29.62,17.37a30.17,30.17,0,0,1-5.35.56c.39-.13.82-.18,1.21-.34,11.1-4.47,19.58-11.64,27.75-20.12s15.24-17.5,25.48-23.35c16-9.11,35.61-8.7,51.51-17.62,21.5-12.06,36.17-32.52,57.88-44.28-5.24-10.68-10.41-21.19-15.55-31.84A79.59,79.59,0,0,0,3286.91,1918.67Z"/><path class="cls-1" d="M3340.89,1566c28.61-24.78,80.76,21.11,94.38,54.61,2.28,5.61,17.14,28.14,20.12,41.4,4.24,18.92,13.83,40,20.15,61.35,15.54,52.42,37.75,103.55,42.71,159.91,1.56,17.74-1.86,40.18-16,53.56-10,9.44-25.45,12.17-38,13.56-21.8,2.43-42.57,1.42-63.56,2-42.68,1.22-79.16,16.88-115.39,38.2a530.08,530.08,0,0,0-34.44-70.56c39.49-17.73,72.57-44.55,108.69-68.1,14.28-44.68,4.44-68.26.7-110.29-3.11-34.88-19.39-46.88-26.11-83C3327.82,1624.38,3301,1600.58,3340.89,1566Z"/><g class="cls-24"><path class="cls-15" d="M3336,1583.35c15.54,27.78,28.49,56.92,39.75,86.68,11,29.14,20.68,58.86,29.67,88.69,4.33,14.35,7.82,29.26,7.67,44.33a85.36,85.36,0,0,1-11.09,41.71c-7.12,12.34-17.4,23.07-28.22,32.24a203.57,203.57,0,0,1-35,23.51,181.07,181.07,0,0,1-42.3,17.17c-15,4.26-30.3,7.6-44.93,13.12q-5.25,2-10.35,4.35c-.68.31-.09,1.33.6,1,14.59-6.78,30.22-10.69,45.72-14.81,15.14-4,29.86-8.69,43.91-15.7,25.18-12.56,48.94-29.08,66-51.8a84.61,84.61,0,0,0,16.12-39.68c1.94-14.57,0-29.36-3.54-43.55-3.71-15-8.8-29.72-13.52-44.43-4.89-15.27-10-30.47-15.48-45.54-10.9-29.94-23.3-59.38-38.27-87.53q-2.76-5.22-5.66-10.37c-.37-.66-1.38-.07-1,.6Z"/><path class="cls-15" d="M3350.05,1551c8.24,16.82,19.47,31.88,30.49,46.94s21.55,30.51,30,47.29c16.45,32.81,25.4,68.89,27.69,105.45a350.16,350.16,0,0,1-1,54.67q-1.29,14-3.55,27.85c-1.43,8.88-2.78,18-5.6,26.54s-8.07,16-14.06,22.71a107.44,107.44,0,0,1-20.08,17.45c-15.77,10.71-32.89,19.71-50.06,27.92-33.5,16-68.6,28.26-103,42q-6.72,2.68-13.4,5.45c-.69.28-.38,1.42.32,1.13,35-14.47,70.8-26.77,105.31-42.32a472,472,0,0,0,51.1-26.66,149.89,149.89,0,0,0,22-15.52,101.23,101.23,0,0,0,17-19.4c4.93-7.35,7.31-15.75,9-24.35,1.81-9.07,3.27-18.21,4.47-27.38a373.94,373.94,0,0,0,3.31-55.66c-.65-36.36-7.47-72.6-21.76-106.13a272.17,272.17,0,0,0-27.91-49.58c-10.91-15.49-22.8-30.34-32.5-46.66q-3.6-6-6.71-12.37c-.33-.68-1.35-.08-1,.59Z"/><path class="cls-15" d="M3409.11,1561.12c5.24,17.18,14.21,32.82,22.75,48.51,4.29,7.87,8.5,15.81,12.06,24a181.94,181.94,0,0,1,9.29,27.69c4.66,18.52,6.72,37.54,8.42,56.52,1.76,19.64,3.81,39.24,5.93,58.85,2.18,20.15,4,40.4,3.61,60.7-.16,9.46-.42,19.15-2.57,28.4a71.56,71.56,0,0,1-9.9,23.45,53.56,53.56,0,0,1-19.64,17.48c-8.2,4.46-16.91,8-25.33,12-18,8.53-35.78,17.46-53.5,26.52-35.64,18.22-71,37-107.16,54.19q-6.59,3.13-13.21,6.2c-.68.32-.09,1.34.6,1,36.74-17,72.6-35.84,108.59-54.36,18-9.23,35.95-18.39,54.11-27.2q13.83-6.71,27.8-13.1c7.53-3.45,15.09-7.28,21.17-13,11.74-11,17.9-27.84,19.31-43.6,1.86-20.73.83-41.65-1.05-62.34-1.83-20.09-4.48-40.08-6.26-60.17-1.67-18.87-3.08-37.81-6.47-56.46a199.28,199.28,0,0,0-17.4-53.42c-8.29-16.63-18.3-32.4-25.45-49.59q-2.58-6.21-4.57-12.66c-.22-.72-1.35-.41-1.13.31Z"/><path class="cls-15" d="M3387.88,1959c13.66-7.35,28-13.31,42.21-19.45,14-6,27.86-12.4,40.85-20.45a170.5,170.5,0,0,0,18.26-13,102.78,102.78,0,0,0,16-15.7,58.21,58.21,0,0,0,10.4-19.54c2.23-7.71,1.92-15.83,1.27-23.75-1.35-16.56-4.36-32.91-7.58-49.19-.39-2-.79-4-1.19-6-.15-.74-1.28-.43-1.14.31,3.23,16.22,6.46,32.46,8.18,48.92.83,7.94,1.67,16.13.48,24.07A50.75,50.75,0,0,1,3507,1886a87.19,87.19,0,0,1-15.18,16.41,161.64,161.64,0,0,1-17.92,13.44c-12.53,8.15-26,14.64-39.61,20.62-14,6.12-28.15,11.83-41.74,18.77q-2.64,1.35-5.25,2.75c-.67.36-.07,1.38.6,1Z"/></g><g class="cls-17"><path d="M3502.29,1936.75c-10,9.9-25.49,12.1-38,13.6-21.77,2.6-42.65,1.41-63.61,2-42.61,1.28-79.13,16.91-115.34,38.23-3-7.82-6.11-15.54-9.45-23.24,36.19-19.73,75.28-37,116.31-43.41,21.69-3.39,41-5.18,63.28-9.43,12.76-2.43,28-5.33,37.5-16.54,13.41-15.9,15.59-36,14.25-55.84-1.24-18.16-5.07-33.39-8.46-50.82,9,30.85,17,59.28,19.44,91.87C3519.63,1902.07,3516.45,1922.72,3502.29,1936.75Z"/></g><polygon class="cls-6" points="977.59 2650.51 941.38 2650.51 925.84 2343.3 993.13 2343.3 977.59 2650.51"/><polygon class="cls-7" points="1279.31 2650.51 1243.1 2650.51 1227.56 2343.3 1294.85 2343.3 1279.31 2650.51"/><polygon class="cls-6" points="1398.4 2650.51 1362.2 2650.51 1346.65 2343.3 1413.95 2343.3 1398.4 2650.51"/><polygon class="cls-7" points="1687.73 2650.51 1651.52 2650.51 1635.98 2343.3 1703.27 2343.3 1687.73 2650.51"/><path class="cls-13" d="M711.48,1566.51,759.76,2099A89.24,89.24,0,0,0,849,2188.24h588.08a89.24,89.24,0,0,0,89.23-89.24L1478,1566.51a89.23,89.23,0,0,0-89.24-89.24H800.72A89.24,89.24,0,0,0,711.48,1566.51Z"/><path class="cls-14" d="M711.48,1566.51,759.76,2099A89.24,89.24,0,0,0,849,2188.24h0A89.24,89.24,0,0,0,938.23,2099L890,1566.51a89.24,89.24,0,0,0-89.24-89.24h0A89.24,89.24,0,0,0,711.48,1566.51Z"/><path class="cls-14" d="M1845.69,1856.22H1541c-55.85,0-108.57,31-117.76,69.27l-97.13,404.13c-9.2,38.26,28.62,69.27,84.46,69.27h304.66c55.84,0,108.57-31,117.76-69.27l97.13-404.13C1939.35,1887.23,1901.54,1856.22,1845.69,1856.22Z"/><rect class="cls-15" x="1331.25" y="1905.08" width="150.86" height="544.2" rx="69.83" transform="translate(-770.49 3583.86) rotate(-90)"/><path class="cls-14" d="M1203.48,2398.89H898.83c-55.85,0-108.57-31-117.76-69.27l-97.13-404.13c-9.2-38.26,28.62-69.27,84.46-69.27h304.66c55.84,0,108.57,31,117.76,69.27L1288,2329.62C1297.14,2367.88,1259.33,2398.89,1203.48,2398.89Z"/><path class="cls-13" d="M1843.07,1856.22h0c-57.29,0-111.38,31.82-120.81,71.06l-76.34,317.63H1267.59l-76.34-317.63c-9.43-39.24-63.52-71.06-120.81-71.06h0c-57.29,0-96.09,31.82-86.66,71.06l96.27,400.55c8.34,34.68,51.55,63.54,101,69.79v1.27h544.2v-.53c52.41-4.23,99.46-34.18,108.19-70.53l96.27-400.55C1939.16,1888,1900.36,1856.22,1843.07,1856.22Z"/><path class="cls-1" d="M1465.12,1436.25c182.19,192.89,113.51,319.7,203.16,387.43,94.78,71.61-154.13,204.94-167.76,83.32s-35.4-470.75-35.4-470.75"/><g class="cls-9"><path d="M1465.12,1436.25s21.77,349.12,35.4,470.75c9.6,85.58,135.68,44.92,176.54-11.64-53.5,13.18-93-7.67-99.62-55.48-10.11-72.36-63.4-248.83-72.51-357.72C1487.74,1456.74,1491.78,1464.47,1465.12,1436.25Z"/></g><path class="cls-2" d="M1636.46,1866.07c64.54,13,90-28.41,97.18-70s-83-54.22-97.18-39.39-24.27,29.24-26.06,59S1593.05,1857.31,1636.46,1866.07Z"/><path class="cls-1" d="M1369.42,1404.89c238.35,0,140.54,396.21,163.6,521s-252.5,23.93-390,35.65C1092.65,1786.42,1105,1404.89,1369.42,1404.89Z"/><path class="cls-25" d="M1414.54,1458.24c-1.94,23.08-3.09,46.12-3.58,69.12s-.31,45.94,1,68.77l.2,4.28.31,4.27.63,8.53.3,4.27.41,4.25.84,8.5c.46,5.68,1.39,11.29,2.06,16.93s1.52,11.16,2.58,16.69c2.08,11.05,4.65,22.14,7.51,33.18s5.86,22.1,9,33.13c12.64,44.16,26.56,88.33,37.42,133.54,5.35,22.61,10.07,45.5,12.47,68.81a208.43,208.43,0,0,1,.91,35.16,112.6,112.6,0,0,1-2.55,17.45,59.23,59.23,0,0,1-6.46,16.26,62.8,62.8,0,0,0,3.82-16.71,110.3,110.3,0,0,0,.27-17.05,243.4,243.4,0,0,0-4.61-33.83c-4.5-22.39-10.73-44.47-17.31-66.47-13.23-44-28.24-87.63-41-132.3-6.29-22.36-12.25-44.93-16-68.32-.46-2.93-.9-5.86-1.26-8.82s-.62-5.87-.93-8.8c-.56-5.84-1.21-11.68-1.45-17.54-.79-11.69-1.06-23.39-1-35.07a618.67,618.67,0,0,1,4.29-69.72c1.33-11.55,3-23,5-34.47l1.57-8.56,1.68-8.54C1411.85,1469.51,1413,1463.84,1414.54,1458.24Z"/><g class="cls-9"><path d="M1143,1961.52c137.54-14.76,413.11,89.12,390-35.65-3.56-19.28-4.32-44.75-3.9-74.09-180.72,80-257-116.59-300.42-355.14C1142.65,1621.38,1108.64,1842,1143,1961.52Z"/></g><g class="cls-9"><path d="M1788.75,2470.36c20.16.12,44.49.38,74.55.86v-1.11C1829.3,2469.79,1806.62,2470,1788.75,2470.36Z"/></g><path class="cls-1" d="M1787.61,2536.87c7.93,2,17.24,6.68,25.85,13,15.56,11.38,46.38,3.88,102.59-34.14-12.09-26.37-22.5-61.82-31.17-110.56l-99.6,5.25S1795.66,2493.34,1787.61,2536.87Z"/><path class="cls-7" d="M1753.62,2650.51c11.53,2.1,291.68,0,291.68,0s11.54-32.5-41.94-53.47c-35-13.75-64.26-31.11-87.31-81.32-56.21,38-87,45.52-102.59,34.14-8.61-6.31-17.92-11-25.85-13-1.49,8-3.6,14.7-6.53,19.28C1758.31,2591.91,1752.18,2627.62,1753.62,2650.51Z"/><path class="cls-7" d="M1504.78,1956.28c511.66-11.54,444.56-119.4,444.56,514.94-130-2.1-153.08,0-194,0,12.58-475,26.21-337.41-250.59-341.61"/><g class="cls-9"><path d="M1505,1956.28v173.33c276.8,4.2,263.17-133.36,250.59,341.61,21.64,0,8.13-.34,38.28-.58,55.37-521.79-18.06-527.91-220.44-497.73v-18.09Q1541.05,1955.44,1505,1956.28Z"/></g><g class="cls-9"><path d="M1737.76,2471.22c17,0,31-.5,50.85-.86-20.84-.12-37.22-.07-50.84,0C1737.77,2470.66,1737.76,2470.94,1737.76,2471.22Z"/></g><path class="cls-1" d="M1554.79,2536.87c7.94,2,17.25,6.68,25.85,13,15.57,11.38,46.38,3.88,102.6-34.14-12.09-26.37-22.5-61.82-31.17-110.56l-99.61,5.25S1562.85,2493.34,1554.79,2536.87Z"/><path class="cls-7" d="M1526.31,2650.51c11.54,2.1,286.18,0,286.18,0S1824,2618,1770.55,2597c-35-13.75-64.26-31.11-87.31-81.32-56.22,38-87,45.52-102.6,34.14-8.6-6.31-17.91-11-25.85-13-1.48,8-3.59,14.7-6.52,19.28C1525.5,2591.91,1524.87,2627.62,1526.31,2650.51Z"/><path class="cls-7" d="M1271.61,1956.28c511.67-11.54,444.56-119.4,444.56,514.94-130-2.1-153.08,0-194,0,12.58-475,22.51-337.41-254.29-341.61,0,0-78.89-4.81-74.69-175.72Z"/><g class="cls-9"><path d="M1267.9,2129.61c225.39,3.42,284.56-119.34,259.21,238.35,75.58-425.62-4-231.14-232.73-268.81,0,0-66.39-14-56.24-143.89l-44.93-1.37C1189,2124.79,1267.9,2129.61,1267.9,2129.61Z"/></g><path class="cls-2" d="M1414.54,1147.89c44,1.14,70.6,16.62,87.88,37.9,16.89,20.8,24.9,47.15,31.66,71.06,1.42,5.05,2.8,10,4.19,14.76,14.67,50.33-8.39,124.77-47.19,118.48s-67.1,6.29-76.54,68.15c-72.34-51.38-66-52.42-66-52.42s25.93-47.19-.14-111.15S1333.81,1145.79,1414.54,1147.89Z"/><path class="cls-1" d="M1500.65,1114.5c-45.52-27-4.26,25.09-32.61,26.84,0,0-24.92-17.08-52-20.08s-153.94,26.28-131.41,73.59c-29.29,46.56-20.29,87.72,26.07,108.19,38.8,23.09,48.69,36.68,48.69,36.68l37.29-55.53c-15.73-57.67,41.94-50.33,41.94-50.33l-9.44-33c-9.43-33,84.93-15.23,84.93-15.23C1555,1189.6,1546.17,1141.53,1500.65,1114.5Z"/><g class="cls-26"><path class="cls-25" d="M1287.47,1278.11c-16.77-19-13.64-41.72-7.11-58.77,31.86-12.6,81.48-15.29,118-15.29,8.1,0,16.25.13,24.29.39,1.84,6.42,3.3,11.53,4.46,15.59C1375.1,1226.53,1319.58,1257.51,1287.47,1278.11Z"/></g><path class="cls-15" d="M1475.32,1295.57a45.12,45.12,0,0,1-7.68-1.67c-2.47-.74-4.88-1.6-7.24-2.54s-4.68-2-7-3.11-4.53-2.34-6.84-3.76a25.23,25.23,0,0,1,7.92.66,46.06,46.06,0,0,1,7.45,2.34,52.48,52.48,0,0,1,7,3.41A34.65,34.65,0,0,1,1475.32,1295.57Z"/><path class="cls-15" d="M1468,1303.47a45.11,45.11,0,0,1-7.68-1.66c-2.47-.74-4.87-1.6-7.24-2.55s-4.68-2-7-3.11-4.54-2.34-6.85-3.75a25.3,25.3,0,0,1,7.93.66,46.66,46.66,0,0,1,7.45,2.33,53.67,53.67,0,0,1,7,3.42A34.72,34.72,0,0,1,1468,1303.47Z"/><path class="cls-15" d="M1533.06,1253.26c2.66,5.39,4.63,10.78,6.68,16s4,10.42,6.28,15.31c.56,1.22,1.17,2.42,1.79,3.62s1.28,2.36,2,3.82a13.31,13.31,0,0,1,1.13,3,6.11,6.11,0,0,1-1,4.9,10.48,10.48,0,0,1-2.17,2.17c-.67.51-1.31.94-1.93,1.35-2.52,1.59-5,3-7.62,4.4-1.31.67-2.63,1.33-4.06,1.9a9.58,9.58,0,0,1-1.21.43l-.13,0a1.44,1.44,0,0,1-.23,0,1.14,1.14,0,0,1-.29,0,.89.89,0,0,1-.54-.35.79.79,0,0,1-.1-.8,1,1,0,0,1,.31-.42,3.71,3.71,0,0,1,.49-.37,19.55,19.55,0,0,1,2-1.13c-.36.67-.75,1.3-1.07,1.94-.07.16-.16.32-.2.45s0,.18,0,0,.17-.2-.1-.66a.75.75,0,0,0-.7-.34h-.1s0,0,0,0c.12-.16.41-.44.63-.68l2.9-3.19c1.94-2.13,4-4.23,6-6.25.49-.49,1-1,1.35-1.44a3.84,3.84,0,0,0,.71-1c0-.06-.1,0-.18.28a1.69,1.69,0,0,0-.08.51,10.68,10.68,0,0,1-.6-.94c-.7-1-1.52-2.37-2.3-3.66s-1.47-2.67-2.14-4a66.18,66.18,0,0,1-5.42-34.91Z"/><path class="cls-7" d="M1529.08,1334.21a25.37,25.37,0,0,1-10.45,6.41,35.87,35.87,0,0,1-11.78,1.93,35,35,0,0,1-11.81-1.91,26,26,0,0,1-10.44-6.43,70.51,70.51,0,0,1,11.57-1.7c1.81-.1,3.6-.26,5.37-.28.88,0,1.77-.08,2.65-.08s1.75,0,2.64,0c3.52,0,7,.11,10.69.4A77.78,77.78,0,0,1,1529.08,1334.21Z"/><ellipse class="cls-7" cx="1500.65" cy="1266.76" rx="9.24" ry="11.9" transform="translate(-334.13 566.6) rotate(-19.28)"/><path class="cls-7" d="M1508.66,1254.2c-1.68.2-3.19.34-4.65.64a33.68,33.68,0,0,0-4.1,1.13,41.48,41.48,0,0,0-7.41,3.59c-2.39,1.42-4.75,3.06-7.18,4.77s-4.91,3.5-7.73,5.28a22.32,22.32,0,0,1,4.3-8.81,26.69,26.69,0,0,1,7.4-6.61,20.91,20.91,0,0,1,9.8-3.06,16.39,16.39,0,0,1,5.14.66,12.21,12.21,0,0,1,2.35,1A10.57,10.57,0,0,1,1508.66,1254.2Z"/><path class="cls-7" d="M1508.66,1235.45a58.86,58.86,0,0,1-9.19,1.52c-3,.29-5.91.47-8.81.6s-5.75.24-8.61.42a60,60,0,0,0-8.89,1.1,11.71,11.71,0,0,1,3.42-3.59,19.43,19.43,0,0,1,4.37-2.3,30.35,30.35,0,0,1,9.42-1.88,37.77,37.77,0,0,1,9.38.76A27.65,27.65,0,0,1,1508.66,1235.45Z"/><path class="cls-15" d="M1491.08,1390.09c-38.79-15.73-55.92-24.82-67.45-36,7,42.29,11.7,50.55,11.7,50.55S1450.54,1382.75,1491.08,1390.09Z"/><path class="cls-2" d="M1317.48,1836.12c81.8-68.16,112.21-137.36,166.73-122.68s76.54,40.89,79.69,71.3-45.25,56.8-69.2,35.65-53.24-3.15-73.8,23.07-69.85,35.64-69.85,35.64Z"/><path class="cls-15" d="M1317.48,1836.11l33.57,43s49.28-9.44,69.85-35.65,49.84-44.22,73.8-23.07c12.52,11,31.72,9.12,46.74.41-15.29,4.94-32.5,3.65-43.06-7.44-22.48-23.66-54.6-9-78.59,14.85S1344,1856,1344,1856l-17.74-27.35Q1322,1832.38,1317.48,1836.11Z"/><path class="cls-1" d="M1291.19,1431.45c-153.32,14.41-268.78,444.09-245.72,493.37S1177.58,2045.4,1409.3,1864l-46.13-73.4s-102.76,56.62-134.21,46.14c5.24-95.42,41.59-168.71,39.5-289.29S1326.86,1428.1,1291.19,1431.45Z"/><g class="cls-9"><path d="M1045.47,1924.82c22.5,48.07,126.84,117.11,347.08-48-216.42,123.91-304.86,48.47-324.85-3.1-7.78-20-9.82-72.89,5.71-123.07C1050.6,1838.69,1034,1900.25,1045.47,1924.82Z"/></g><path class="cls-25" d="M1475.32,1446.06c1.89,6.34,3.58,12.74,5.17,19.16s3.09,12.88,4.42,19.38c.68,3.25,1.28,6.52,1.84,9.81s1.06,6.6,1.41,10c.16,1.71.3,3.44.32,5.29a21.93,21.93,0,0,1-.17,3,9.88,9.88,0,0,1-.5,2c-.09.23-.18.45-.28.67a8.78,8.78,0,0,1-.54.86l-.08.1-.16.18c-.11.12-.22.24-.34.35a7.47,7.47,0,0,1-.79.6,5.74,5.74,0,0,1-1.46.59l-.36.08-.25,0-.5,0h-.51l-.36,0q-.35,0-.69-.09c-.22,0-.35-.08-.54-.13l-.51-.13-.43-.15c-.28-.09-.57-.19-.8-.29a29.2,29.2,0,0,1-2.67-1.27c-1.62-.88-3.11-1.79-4.56-2.72-2.88-1.88-5.62-3.85-8.32-5.84s-5.35-4-8-6.09q-7.85-6.2-15.4-12.64t-15-13c-5-4.38-9.84-8.82-14.72-13.35l6.88.78c-12.37,7.32-24.81,14.64-37.13,22-6.17,3.7-12.32,7.41-18.36,11.21-3,1.89-6,3.81-8.85,5.77-.68.5-1.42,1-2,1.48s-1.28,1-1.74,1.37l-.25.23-.07.06-.19.2-.28.26c-.19.18-.39.34-.59.5a4.33,4.33,0,0,1-.72.45,6.09,6.09,0,0,1-1.85.61,7.16,7.16,0,0,1-1.85,0,7.57,7.57,0,0,1-1.31-.39l-.31-.12-.21-.11-.41-.24a7.37,7.37,0,0,1-1.25-.92,4.86,4.86,0,0,1-.45-.42l-.38-.4a16.27,16.27,0,0,1-1.17-1.47,40.38,40.38,0,0,1-3.08-5.3c-.86-1.72-1.62-3.43-2.35-5.14-1.46-3.42-2.78-6.84-4-10.28-2.5-6.87-4.76-13.77-6.9-20.7s-4.13-13.91-6-20.91L1313,1430.5c-.85-3.53-1.73-7-2.5-10.59l4.24,10,4.17,10,8.39,20c1.39,3.32,2.82,6.62,4.25,9.91s2.89,6.58,4.38,9.82,3,6.47,4.61,9.59c.8,1.56,1.63,3.08,2.47,4.55a31.91,31.91,0,0,0,2.58,3.93,5.16,5.16,0,0,0,.56.61l.09.08s.06.06,0,0,0,0-.16-.13l-.11-.06-.07,0-.14-.07a2,2,0,0,0-.67-.18,2.76,2.76,0,0,0-1.18,0,3.48,3.48,0,0,0-1.22.39l-.43.27a2.24,2.24,0,0,0-.34.27l-.15.15s-.13.16-.07.08l.17-.18.69-.74c.86-.85,1.62-1.52,2.38-2.15s1.51-1.2,2.27-1.81c3-2.28,6-4.4,9-6.48,6-4.13,12.12-8.1,18.25-12q18.4-11.62,37.17-22.53l3.72-2.16,3.16,2.94,14.42,13.39,14.53,13.29c4.87,4.39,9.73,8.79,14.65,13.07s9.88,8.55,15,12.34c1.26.94,2.53,1.85,3.76,2.63.6.37,1.22.75,1.72,1l.34.17.15.07.09,0c.12.09.08-.07-.78.11a2.91,2.91,0,0,0-.89.38,2.6,2.6,0,0,0-.54.4,2.73,2.73,0,0,0-.23.25l-.14.17a1.45,1.45,0,0,0-.2.34.3.3,0,0,0,0,.1c0,.06.08-.13.13-.37a13.82,13.82,0,0,0,.26-1.91c.11-1.45.13-3,.11-4.6-.14-6.37-.71-12.93-1.31-19.45s-1.33-13.09-2-19.65Z"/><path class="cls-27" d="M1397.05,1296.77c-46.47-55.57-61.51-35.4-61.17-6.29s47.87,53.47,61.17,39.84S1397.05,1296.77,1397.05,1296.77Z"/><path class="cls-11" d="M1983.25,1699.29H1695.77a37.4,37.4,0,0,0-31.46,17.17l-131.08,203.9h-172a17.49,17.49,0,0,0-17.49,17.49v18.36h496.76l153-238.06A12.24,12.24,0,0,0,1983.25,1699.29Z"/><g class="cls-17"><path d="M1690.17,1718.15l-153,238.06H1343.74v-18.35a17.51,17.51,0,0,1,17.5-17.51h172l131.07-203.89a37.44,37.44,0,0,1,21.3-15.76A12.26,12.26,0,0,1,1690.17,1718.15Z"/></g><ellipse class="cls-4" cx="1777.62" cy="1845.86" rx="28.07" ry="18" transform="translate(-717.21 1260.24) rotate(-32.87)"/><path class="cls-13" d="M1267.59,2244.91l-76.34-317.63c-9.43-39.24-63.52-71.06-120.81-71.06h0c-57.29,0-96.09,31.82-86.66,71.06l96.27,400.55c8.34,34.68,51.55,63.54,101,69.79v1.27"/><polygon class="cls-15" points="2190.89 2655.51 2158.95 2655.51 2210.36 2146.1 2242.29 2146.1 2190.89 2655.51"/><polygon class="cls-15" points="2566.72 2655.51 2598.66 2655.51 2547.25 2146.1 2515.32 2146.1 2566.72 2655.51"/><rect class="cls-28" x="2148.45" y="2099.29" width="449.92" height="89.67" rx="44.84"/><path class="cls-1" d="M2285,1819.44c-15.63,63.63-2.23,103.81,69.21,89.3C2344.17,1803.81,2285,1819.44,2285,1819.44Z"/><path class="cls-1" d="M2425.79,1765c-94.66,1.72-61.4,107.16-61.4,107.16S2449.76,1833.13,2425.79,1765Z"/><path class="cls-6" d="M2365.68,2012.12c-.11-.3-.67-1.35-1.16-2.27-3.38-6.32-12.36-23.09-15-50.58-3.28-34.18,4.09-73,21.88-115.37l5.8,2.43c-18.67,44.45-35.06,108.39-7.14,160.56,1.31,2.45,1.8,3.37,1.8,4.55h-6.28A2.44,2.44,0,0,0,2365.68,2012.12Z"/><polygon class="cls-8" points="2411.56 2098.5 2323.37 2098.5 2293.23 1950.04 2441.7 1950.04 2411.56 2098.5"/><path class="cls-13" d="M2441.69,1950l-30.13,148.46h-88.19l-7.52-37c27.3-17.84,73.35-54.15,103.84-111.48Z"/></g></svg>