<svg xmlns="http://www.w3.org/2000/svg" xmlns:xlink="http://www.w3.org/1999/xlink" viewBox="0 0 4680 3120"><defs><style>.cls-1{fill:#333;}.cls-2{fill:#ef4444;}.cls-3{fill:#fcc0a9;}.cls-4{fill:#ccc;}.cls-5{fill:#fff;}.cls-6{opacity:0.13;}.cls-7{fill:#1a1a1a;}.cls-8{fill:#999;}.cls-9{fill:gray;}.cls-10{opacity:0.4;}.cls-11{fill:#f2f2f2;}.cls-12{fill:#4d4d4d;}.cls-13{fill:#666;}.cls-14{opacity:0.8;}.cls-15{fill:#445ef2;}.cls-16{fill:#b7b7b7;}.cls-17{fill:#0e1d73;}.cls-18{fill:#ebebeb;}.cls-19{fill:#2291f2;}.cls-20{fill:#fc9a74;}.cls-21{opacity:0.15;}.cls-22{opacity:0.1;}.cls-23{opacity:0.3;}.cls-24{opacity:0.5;}.cls-25{fill:#f58d8d;}.cls-26{fill:#fdaf91;}.cls-27{fill:#b3b3b3;}.cls-28{clip-path:url(#clip-path);}.cls-29{clip-path:url(#clip-path-2);}.cls-30{clip-path:url(#clip-path-3);}.cls-31{clip-path:url(#clip-path-4);}.cls-32{clip-path:url(#clip-path-5);}.cls-33{clip-path:url(#clip-path-6);}.cls-34{clip-path:url(#clip-path-7);}.cls-35{clip-path:url(#clip-path-8);}</style><clipPath id="clip-path"><path class="cls-1" d="M2767.74,1384.14c-32.74,12.74-45.79,21.92-64.28,46.85s-29.23,54.75-36.8,84.84c-18.31,72.82-19.47,149.6-43.2,220.84a227.76,227.76,0,0,0,162.73,31.94q26.32-85.42,52.64-170.84c16.8-54.53,33.65-113.1,16.83-167.61-5.45-17.65-14.88-34.82-30.09-45.28S2782.67,1373.27,2767.74,1384.14Z"/></clipPath><clipPath id="clip-path-2"><path class="cls-2" d="M2760.26,1656.9C2656.77,1797.41,2670,1886.41,2615.07,1924s36,102.12,85.71,47.87,91.32-125.21,93.95-199.56S2760.26,1656.9,2760.26,1656.9Z"/></clipPath><clipPath id="clip-path-3"><path class="cls-2" d="M2651.38,1849.75c30.64,41.08,37.62,59.7,60.4,67.36s10.42,52.77-52.07,81.69-119.11-91.77-95-120.41S2641.7,1836.77,2651.38,1849.75Z"/></clipPath><clipPath id="clip-path-4"><path class="cls-3" d="M2595.69,1889.59c-25.6-16.67-22.26-26.06-32.79-69.73s29-43.49,44.35-34,43.32,23.65,37.63,62.48c0,0,6.64,7,6.5,21.8S2618.89,1904.69,2595.69,1889.59Z"/></clipPath><clipPath id="clip-path-5"><path class="cls-2" d="M2812.17,1629c5.76-2.3,34.62-7.57,40.81-7.7,64.4-1.27,108.27,16.54,143.52,72.7,14.71,23.42,33.43,81.23,42.5,107.36,34.05,98,24.27,192.44-24.49,284.06-.59-7.16-13.48-12.54-19.49-16.47-16.77-11-36.33-16.85-55.78-21.72-66.27-16.63-116-23.5-184.21-20.31,29.47-41.29,34.52-95.92,26-145.94s-.38-89.77-18.65-137.09c-5.47-14.15-10.79-28.58-12.33-43.67s1.06-31.15,10.16-43.29c12-16,32.65-22.43,51.91-27.93"/></clipPath><clipPath id="clip-path-6"><path class="cls-1" d="M2737,1397.24c19.8,11.73,33.22,31.83,43.05,52.63s16.78,42.92,27.48,63.29c11.5,21.88,13.54,42,29,61.22,13.63,17,25.54,34.73,64.08,49.09,38.26,14.25,52,17.7,72.31,39.94-7-93-40.57-184.31-104.08-252.63-7.35-7.9-15.07-15.57-24.1-21.47-31.11-20.32-74.36-15.76-104.92,5.37"/></clipPath><clipPath id="clip-path-7"><path class="cls-4" d="M2467.33,2375c9.94-29.54,62.24-224.57,72.19-254.12,7.13-21.17,14.41-42.65,27.13-61A120.17,120.17,0,0,1,2623.3,2016c21.34-7.9,44.43-9.53,67.17-10.39,102.38-3.9,154.17,6.18,254.34,27.69,10.84,2.33,21.85,4.87,31.39,10.52,26.78,15.85,56.84,4.7,23.81,82.66-14.73,34.76-50.22,60.46-88,59.19-29.17,2.59-59.47,23.7-77.38,46.87s-28.8,50.89-38.56,78.5q-19.21,54.3-33.77,110.09c-46.4,8.22-94-2.32-139.33-15S2514.44,2376,2467.33,2375Z"/></clipPath><clipPath id="clip-path-8"><path class="cls-2" d="M2934.47,1660.11c25.16-21.79,71,18.57,83,48,2,4.94,15.08,24.75,17.7,36.41,3.74,16.65,12.17,35.22,17.72,54,13.68,46.11,33.21,91.08,37.57,140.66,1.38,15.6-1.63,35.34-14.06,47.11-8.77,8.3-22.39,10.7-33.38,11.93-19.17,2.14-37.44,1.24-55.9,1.77-37.55,1.08-69.63,14.85-101.5,33.61a466.62,466.62,0,0,0-30.29-62.07c34.73-15.6,63.83-39.19,95.6-59.9,12.56-39.3,3.91-60,.61-97-2.73-30.67-17.05-41.23-23-73C2923,1711.46,2899.36,1690.53,2934.47,1660.11Z"/></clipPath></defs><g id="_6" data-name="6"><rect class="cls-5" width="4680" height="3120"/><g class="cls-6"><rect class="cls-7" x="2305.06" y="1991.03" width="525.43" height="525.43"/><rect class="cls-8" x="2351.29" y="2032.63" width="432.98" height="175.74"/><rect class="cls-8" x="2351.29" y="2251.64" width="432.98" height="175.74"/><polygon class="cls-7" points="2379.75 2573.39 2356.95 2573.39 2350.23 2516.46 2386.46 2516.46 2379.75 2573.39"/><polygon class="cls-7" points="2777.56 2573.39 2754.76 2573.39 2748.04 2516.46 2784.27 2516.46 2777.56 2573.39"/><rect class="cls-7" x="2513.27" y="2278.64" width="113.04" height="28.67" rx="14.34"/><rect class="cls-7" x="2513.27" y="2061.25" width="113.04" height="28.67" rx="14.34"/><rect class="cls-9" x="3045.07" y="806.54" width="836.38" height="758.36"/><path class="cls-7" d="M3859,829v713.52H3067.48V829H3859m44.84-44.83H3022.65v803.19h881.22V784.13Z"/><g class="cls-10"><polygon class="cls-11" points="3324.42 1587.32 3088.32 1587.32 3471.32 784.13 3707.42 784.13 3324.42 1587.32"/></g><g class="cls-10"><polygon class="cls-11" points="3759.76 1586.48 3545.91 1586.48 3903.87 784.13 3903.87 1252.83 3759.76 1586.48"/></g><path class="cls-12" d="M3386.09,784.13S3343,1243.2,3224.48,1296.49c118.52,635.1,80.81,607.33,80.81,607.33l-282.64,10.33v-1130Z"/><path class="cls-7" d="M3201.73,1916l-65.19-616.52,2.31-4.58c54.66-108.6,86.4-241.8,103.39-334.43,18.51-100.86,24-176.81,24.08-177.57l34.83,2.47c-.22,3.15-5.67,78.28-24.48,180.95-17.17,93.71-49.16,228.13-104.33,339.66l64.11,606.34Z"/><path class="cls-7" d="M3107.38,1915l-29.7-619.14.17-1.47c21.3-175.09,58.87-508.86,59.25-512.21l34.69,3.91c-.37,3.34-37.75,335.41-59.1,511.05l29.56,616.18Z"/><polygon class="cls-7" points="3022.65 1302.56 3229.03 1302.56 3240.78 1385.06 3022.65 1385.06 3022.65 1302.56"/><path class="cls-12" d="M3540.42,784.13s43.1,459.07,161.62,512.36c-118.52,635.1-80.81,607.33-80.81,607.33l282.64,10.33v-1130Z"/><path class="cls-7" d="M3724.78,1916l-34.72-3.68L3754.17,1306C3699,1194.44,3667,1060,3649.85,966.31c-18.82-102.67-24.27-177.8-24.49-180.95l34.83-2.47c0,.76,5.58,76.71,24.08,177.57,17,92.63,48.73,225.83,103.39,334.43l2.31,4.58Z"/><path class="cls-7" d="M3819.14,1915l-34.88-1.68,29.56-616.18c-21.34-175.64-58.72-507.71-59.1-511.05l34.7-3.91c.37,3.35,37.95,337.12,59.24,512.21l.18,1.47-.07,1.48Z"/><polygon class="cls-7" points="3903.87 1302.56 3697.49 1302.56 3685.73 1385.06 3903.87 1385.06 3903.87 1302.56"/><rect x="551.05" y="2424.57" width="3577.9" height="33.9"/><rect class="cls-8" x="2124.73" y="1053.97" width="675.46" height="262.71"/><path d="M2816.57,1333.05H2108.35V1037.6h708.22ZM2141.1,1300.3h642.72v-230H2141.1Z"/><rect class="cls-8" x="2124.67" y="791.26" width="675.46" height="262.71"/><path d="M2816.51,1070.34H2108.3V774.89h708.21ZM2141,1037.6h642.72v-230H2141Z"/><rect class="cls-12" x="2192.63" y="845.11" width="97.68" height="192"/><rect class="cls-8" x="2192.63" y="891.7" width="97.68" height="22.46"/><rect class="cls-8" x="2192.63" y="968.05" width="97.68" height="22.46"/><rect class="cls-12" x="2299.29" y="845.11" width="76.35" height="192"/><rect class="cls-8" x="2291.48" y="903.17" width="91.97" height="22.46" transform="translate(1423.07 3251.86) rotate(-90)"/><rect class="cls-8" x="2318" y="982.09" width="38.92" height="22.46" transform="translate(3330.78 -1344.15) rotate(90)"/><rect class="cls-12" x="2542.75" y="1107.72" width="76.35" height="192" transform="translate(3784.63 -1377.21) rotate(90)"/><rect class="cls-8" x="2561.65" y="1192.49" width="91.97" height="22.46"/><rect class="cls-8" x="2509.25" y="1192.49" width="38.92" height="22.46" transform="translate(5057.42 2407.43) rotate(180)"/><rect class="cls-13" x="2498.58" y="1241.89" width="222.31" height="57.82"/><rect class="cls-4" x="2511.68" y="1259.57" width="38.92" height="22.46" transform="translate(3801.94 -1260.35) rotate(90)"/><rect class="cls-4" x="2545.37" y="1259.57" width="38.92" height="22.46" transform="translate(3835.63 -1294.03) rotate(90)"/><rect class="cls-4" x="2579.05" y="1259.57" width="38.92" height="22.46" transform="translate(3869.31 -1327.71) rotate(90)"/><rect class="cls-4" x="2614.98" y="1259.57" width="38.92" height="22.46" transform="translate(3905.24 -1363.64) rotate(90)"/><rect class="cls-4" x="2652.41" y="1259.57" width="38.92" height="22.46" transform="translate(3942.67 -1401.07) rotate(90)"/><rect class="cls-4" x="2542.37" y="1131.01" width="158.31" height="34.53"/><rect class="cls-12" x="2587.28" y="845.11" width="60.07" height="192"/><rect class="cls-8" x="2587.28" y="891.7" width="60.07" height="22.46"/><rect class="cls-8" x="2587.28" y="968.05" width="60.07" height="22.46"/><g class="cls-14"><rect class="cls-12" x="2518.14" y="845.11" width="60.07" height="192"/><rect class="cls-8" x="2518.14" y="891.7" width="60.07" height="22.46"/><rect class="cls-8" x="2518.14" y="968.05" width="60.07" height="22.46"/></g></g><path class="cls-15" d="M3304.72,2167.28h539.06a0,0,0,0,1,0,0v22.93a32.32,32.32,0,0,1-32.32,32.32H3304.72a0,0,0,0,1,0,0v-55.25A0,0,0,0,1,3304.72,2167.28Z" transform="translate(7148.51 4389.82) rotate(180)"/><rect class="cls-1" x="3779.07" y="2220.65" width="18.01" height="438.85" transform="translate(7576.16 4880.15) rotate(180)"/><rect class="cls-1" x="3544.9" y="2220.65" width="18.01" height="438.85" transform="translate(7107.82 4880.15) rotate(180)"/><rect class="cls-1" x="3454.25" y="2454.97" width="18.01" height="187.22" transform="translate(6011.83 -914.68) rotate(90)"/><rect class="cls-1" x="3692.55" y="2454.97" width="18.01" height="187.22" transform="translate(6250.13 -1152.98) rotate(90)"/><rect class="cls-1" x="3598.94" y="2220.65" width="18.01" height="438.85" transform="translate(7215.9 4880.15) rotate(180)"/><rect class="cls-1" x="3364.77" y="2220.65" width="18.01" height="438.85" transform="translate(6747.55 4880.15) rotate(180)"/><polygon class="cls-15" points="3923.67 1712.5 3881.37 1712.5 3804.04 2220.65 3846.34 2220.65 3923.67 1712.5"/><polygon class="cls-15" points="3631.55 1712.5 3589.26 1712.5 3511.93 2220.65 3554.23 2220.65 3631.55 1712.5"/><polygon class="cls-15" points="3578.32 1784.39 3912.73 1784.39 3921.38 1727.51 3586.97 1727.51 3578.32 1784.39"/><polygon class="cls-15" points="3543.82 2011.09 3878.23 2011.09 3883.12 1978.94 3548.71 1978.94 3543.82 2011.09"/><polygon class="cls-15" points="3787.07 1737.75 3746.91 2001.69 3775.37 2001.69 3815.54 1737.75 3787.07 1737.75"/><polygon class="cls-15" points="3689.7 1737.75 3649.54 2001.69 3678 2001.69 3718.17 1737.75 3689.7 1737.75"/><path class="cls-15" d="M2566.42,2180.41h524.69a0,0,0,0,1,0,0v22.32a31.45,31.45,0,0,1-31.45,31.45H2566.42a0,0,0,0,1,0,0v-53.78A0,0,0,0,1,2566.42,2180.41Z" transform="translate(5657.53 4414.59) rotate(180)"/><rect class="cls-1" x="3028.12" y="2232.35" width="17.53" height="427.15" transform="translate(6073.78 4891.85) rotate(180)"/><rect class="cls-1" x="2800.19" y="2232.35" width="17.53" height="427.15" transform="translate(5617.92 4891.85) rotate(180)"/><rect class="cls-1" x="2711.96" y="2460.42" width="17.53" height="182.23" transform="translate(5272.26 -169.19) rotate(90)"/><rect class="cls-1" x="2943.91" y="2460.42" width="17.53" height="182.23" transform="translate(5504.21 -401.14) rotate(90)"/><rect class="cls-1" x="2852.79" y="2232.35" width="17.53" height="427.15" transform="translate(5723.12 4891.85) rotate(180)"/><rect class="cls-1" x="2624.86" y="2232.35" width="17.53" height="427.15" transform="translate(5267.26 4891.85) rotate(180)"/><polygon class="cls-15" points="3168.86 1737.75 3127.69 1737.75 3052.43 2232.35 3093.6 2232.35 3168.86 1737.75"/><polygon class="cls-15" points="2884.54 1737.75 2843.37 1737.75 2768.11 2232.35 2809.27 2232.35 2884.54 1737.75"/><polygon class="cls-15" points="2832.72 1807.73 3158.21 1807.73 3166.64 1752.36 2841.14 1752.36 2832.72 1807.73"/><polygon class="cls-15" points="2799.14 2028.38 3124.63 2028.38 3129.4 1997.08 2803.91 1997.08 2799.14 2028.38"/><polygon class="cls-15" points="3035.91 1762.33 2996.82 2019.23 3024.52 2019.23 3063.61 1762.33 3035.91 1762.33"/><polygon class="cls-15" points="2941.13 1762.33 2902.04 2019.23 2929.75 2019.23 2968.84 1762.33 2941.13 1762.33"/><rect class="cls-15" x="1116.07" y="940.1" width="98.61" height="1584.94" transform="translate(2330.75 3465.14) rotate(180)"/><rect class="cls-4" x="690.15" y="873.4" width="1142.62" height="919.35" transform="translate(2522.93 2666.15) rotate(180)"/><rect class="cls-16" x="609" y="873.4" width="1304.93" height="69.6" rx="34.8" transform="translate(2522.93 1816.4) rotate(180)"/><path class="cls-17" d="M905.81,2548.21a33.32,33.32,0,0,1,33.32-33.32h452.5a33.31,33.31,0,0,1,33.31,33.32v36.28h-19.39v28a18.85,18.85,0,1,1-37.7,0v-28H962.91v28a18.85,18.85,0,0,1-37.7,0v-28h-19.4Z"/><rect class="cls-5" x="780.46" y="984.11" width="946.79" height="697.93"/><rect class="cls-18" x="874.15" y="1177.83" width="757.2" height="10.44"/><rect class="cls-18" x="874.15" y="1255.79" width="757.2" height="10.44"/><rect class="cls-18" x="874.15" y="1333.76" width="757.2" height="10.44"/><rect class="cls-18" x="874.15" y="1411.72" width="757.2" height="10.44"/><rect class="cls-19" x="874.15" y="1486.45" width="761.8" height="6.58"/><rect class="cls-19" x="891.06" y="1422.57" width="28.18" height="67.16"/><rect class="cls-19" x="959.63" y="1422.57" width="28.18" height="67.16"/><rect class="cls-19" x="1028.21" y="1416.7" width="28.18" height="73.03"/><rect class="cls-19" x="1096.78" y="1402.61" width="28.18" height="87.12"/><rect class="cls-19" x="1165.35" y="1393.46" width="28.18" height="96.28"/><rect class="cls-19" x="1233.92" y="1382.18" width="28.18" height="107.55"/><rect class="cls-19" x="1302.49" y="1361.52" width="28.18" height="128.22"/><rect class="cls-19" x="1371.06" y="1343.67" width="28.18" height="146.07"/><rect class="cls-19" x="1439.64" y="1315.49" width="28.18" height="174.25"/><rect class="cls-19" x="1508.21" y="1287.31" width="28.18" height="202.43"/><rect class="cls-19" x="1576.78" y="1255.37" width="28.18" height="234.37"/><path class="cls-2" d="M982.76,1434.86l-8.68-5.79c1.86-2.79,69.77-104.19,70.46-105.21l1-1.49,71.21-23.42,1,.06c27.7,1.56,58.89,2.31,65.13,1,3-2.46,12.91-7.38,51.62-23.6,24.4-10.23,48.9-20.12,49.14-20.22l.41-.17,100.42-21.79.42,0,89.84-4.68,61-11.27,68.9-31.92.57,10.43L1537,1228.63l-61.07,11.27-90.09,4.69L1287.13,1266c-34.57,14-90.42,37.18-97.17,41.67-2,2.51-6.22,3.09-15.31,3.34-5.86.16-13.86.1-23.77-.18-14.45-.4-28.89-1.15-32.74-1.36l-65.93,21.68C1043.73,1343.81,984.49,1432.27,982.76,1434.86Z"/><polygon class="cls-17" points="1386.02 1324.51 1314.92 1241.87 1256.34 1272.68 1176.59 1299.13 1111.19 1197.68 1044.28 1315.85 978.22 1267.6 909.32 1313.36 900.99 1310.2 978.62 1258.65 1040.31 1303.7 1110.54 1179.65 1182.29 1290.97 1249.6 1268.64 1318.25 1232.54 1384.29 1309.3 1451.8 1197.43 1523.65 1247.79 1588.05 1226.99 1593.69 1231.39 1520.94 1254.89 1455.65 1209.12 1386.02 1324.51"/><rect class="cls-2" x="1042.13" y="1057.4" width="411.77" height="31.49"/><rect class="cls-18" x="1056.39" y="1563.06" width="574.97" height="16.46"/><rect class="cls-18" x="1056.39" y="1591.41" width="574.97" height="16.46"/><rect class="cls-18" x="1056.39" y="1619.76" width="574.97" height="16.46"/><rect class="cls-2" x="871.76" y="1563.06" width="156.45" height="16.46"/><rect class="cls-19" x="871.76" y="1591.41" width="156.45" height="16.46"/><rect class="cls-17" x="871.76" y="1619.76" width="156.45" height="16.46"/><path class="cls-3" d="M3445.16,1726.7c-12.8,108.21-204.6,208.5-65.16,203.43,121.29-4.41,57.14-9.2,81.2-61.34s36.82-57.24,58-142.09"/><path class="cls-20" d="M3461.21,1868.8c-24.07,52.13,40.09,56.92-81.21,61.33-5.42.2-10.34.23-14.79.12,1.4,0,2.84-.06,4.3-.12,121.3-4.41,57.15-9.2,81.21-61.33s36.82-57.25,58-142.1h10.48C3498,1811.55,3485.27,1816.66,3461.21,1868.8Z"/><path class="cls-2" d="M3501.29,1837.1c11.22,12.19,74.94-254.57,22.06-238-51.8,16.2-80.19,138.08-123.3,187Z"/><g class="cls-21"><path d="M3501.3,1837.11l-10.6-5.34c14.14-43.8,32.86-175.44,16.51-223.87a50.9,50.9,0,0,1,16.13-8.83C3576.23,1582.53,3512.51,1849.29,3501.3,1837.11Z"/></g><path class="cls-3" d="M3381,1879.54c6.14-3.26,89.91-11,91.09,7s14,38.84-8.85,39.17S3362,1944.83,3366,1910.9C3368.3,1887.65,3374.83,1882.81,3381,1879.54Z"/><path class="cls-1" d="M3439.15,2659.5s-16.32-44.56,0-66.31,56.63-1.33,59.14-96c1.3-29.41,3.52-79.53,3.52-79.53l91.81-1.43s-21.33,111.72-2.5,153.95,9.92,89.34,9.92,89.34Z"/><g class="cls-21"><path d="M3587.11,2460c-1.37,11.67-2.59,24.71-3.25,37.86-39.37,5.65-72.7-3.83-85.24-8.18.49-10.92,1.05-23.54,1.56-35.15Z"/></g><path class="cls-2" d="M3606.3,1584.6c-53.86,4.09-100,9.2-105,39.87s32.1,354.73-2,401.75,241.62,147.21,284.73,55.21,7-475.36-39.1-492.74S3606.3,1584.6,3606.3,1584.6Z"/><g class="cls-22"><path d="M3784,2081.42c-14.61,31.17-55.91,40.29-102.83,36.87,11.77-4.54,21.38-11.75,27.94-22.19,54.07-86,65-470.95,21.25-493.83-26.23-13.73-70.41-18.53-101.55-20.19,30.37-2.77,84.27-5.38,116.08,6.61C3791.05,1606.07,3827.14,1989.43,3784,2081.42Z"/></g><path class="cls-1" d="M3193.43,2393.33c-23,122.79-37.1,166.83-91.28,177.43q-5.59,1.08-11.78,1.72c-105.35,10.92-63.58,87-63.58,87h260.83s1.28-69.08-11.95-99.47c-27.32-62.77,14.59-166.7,14.59-166.7Z"/><g class="cls-23"><path d="M3278.43,2429.62a373.24,373.24,0,0,0-8.36,37.66c-15.74-1.28-61.13-5.2-89.63-9.94,2.87-12.56,5.73-26.39,8.71-41.58Z"/></g><path class="cls-17" d="M3230.94,2061c-16.08,27.22-21.33,64.78-29.33,112.35-25.39,151-30.24,204.81-47.17,262.34,73.35,17.26,126.51,18.55,126.51,18.55s36.33-316.84,122.37-295.27c121.31,20.14,179.83,41.71,226,30.21s96-169.19-9.94-185.32c-277.19-42.23-353.48-2-388.47,57.14"/><g class="cls-21"><path d="M3629.35,2189.18c-46.21,11.51-104.73-10.06-226-30.2-60.06-15.06-95.9,134.77-112.06,226.64,4.17-77.69,22.1-288.08,93.65-277,122.64,8.95,182.89,25.08,227.85,9.4,23.11-8.06,43.63-54.7,43.57-99C3710.87,2062.92,3668.81,2179.35,3629.35,2189.18Z"/></g><g class="cls-21"><path d="M3291.26,2385.62c-.94,17.49-1.19,28.26-1.19,28.26l-3.52.18C3287.87,2405.52,3289.44,2395.94,3291.26,2385.62Z"/></g><path class="cls-11" d="M3145.15,2595.23a57.17,57.17,0,0,0-7.67-10.89,40.38,40.38,0,0,0-10-8,33.91,33.91,0,0,0-5.81-2.66c-1-.4-2-.65-3.07-1-.52-.14-1-.25-1.57-.38s-1.05-.27-1.59-.36a79,79,0,0,0-13.31-1.18,34.73,34.73,0,0,1,13.7-1.82,30.32,30.32,0,0,1,7,1.22c1.15.3,2.25.77,3.37,1.18s2.17,1,3.21,1.6a31.68,31.68,0,0,1,10.43,9.53A30.48,30.48,0,0,1,3145.15,2595.23Z"/><path class="cls-11" d="M3132.88,2558.22a33.3,33.3,0,0,1,10.85-2.85,36,36,0,0,1,11.36.64,26.17,26.17,0,0,1,10.49,4.86,19.72,19.72,0,0,1,6.58,9.21,34.39,34.39,0,0,0-8.29-6.69,36.13,36.13,0,0,0-9.64-3.6,65.09,65.09,0,0,0-10.44-1.38C3140.23,2558.2,3136.62,2558.18,3132.88,2558.22Z"/><path class="cls-11" d="M3152.52,2536.83a29.8,29.8,0,0,1,9.78-3.81,35.83,35.83,0,0,1,10.6-.63,29.53,29.53,0,0,1,10.33,2.82c.8.42,1.58.84,2.36,1.27s1.46,1.05,2.17,1.58l1,.82c.32.32.64.62.94.95.61.64,1.21,1.28,1.76,2-.83-.34-1.61-.7-2.38-1.07-.39-.18-.76-.38-1.13-.57l-1.19-.44-2.31-.92c-.8-.23-1.59-.47-2.36-.72a48.92,48.92,0,0,0-9.58-1.81,76.81,76.81,0,0,0-9.85-.22C3159.36,2536.17,3156,2536.46,3152.52,2536.83Z"/><path class="cls-11" d="M3165.14,2510.72a54,54,0,0,1,9-.73c3,0,5.95.1,8.9.36s5.89.65,8.82,1.19a54,54,0,0,1,8.72,2.3,54.88,54.88,0,0,1-9,.74c-3,0-5.94-.11-8.89-.37s-5.89-.65-8.82-1.2A54,54,0,0,1,3165.14,2510.72Z"/><path class="cls-11" d="M3174,2483.24a48.64,48.64,0,0,1,8.45-.77,83,83,0,0,1,8.35.34A79.84,79.84,0,0,1,3199,2484a48.6,48.6,0,0,1,8.18,2.27,47.77,47.77,0,0,1-8.45.77,82.9,82.9,0,0,1-8.35-.34,80.45,80.45,0,0,1-8.28-1.17A48.72,48.72,0,0,1,3174,2483.24Z"/><path class="cls-17" d="M3762.18,2016.53c-188.67-56.14-232.52-17.53-263,278.8-22.06,214.07-24.44,177.64-24.69,177.46h0c1.27.26,80,15.34,126.17,11.06,19.74-71.91.84-325,112.46-298.44C3793.12,2204.46,3838.82,2039.33,3762.18,2016.53Z"/><g class="cls-21"><path d="M3474.44,2472.77c.12,0,.84.17,2.11.4-1.62,4.85-2-.31-2.11-.38S3474.43,2472.77,3474.44,2472.77Z"/></g><g class="cls-21"><path d="M3506.8,2229q-2,28.2-3.66,60c-6.74,131.49-11,174-13.39,186.5-6.1-1-10.7-1.83-13.2-2.3,2.69-8.09,8.79-44,22.58-177.84Q3502.79,2259.71,3506.8,2229Z"/></g><g class="cls-21"><path d="M3713.07,2185.4c-46.7-11.12-70.55,26.71-83.94,79.76,9.84-63.72,31.41-112.54,82.4-102.16,52.8,10.76,87.17-60.71,83.1-117.38C3818.69,2099.22,3776.74,2200.56,3713.07,2185.4Z"/></g><g class="cls-21"><path d="M3487.08,2477.61l2.12.33c-1.38,5.18-2-.25-2.12-.31S3487.07,2477.61,3487.08,2477.61Z"/></g><path class="cls-3" d="M3649.07,1927.27c-24.76.2-64.08-16.69-86.24-17.15s-69.25,30.72-61.43,48.62,48.36,8.56,77.42,4.88,21,20.14,76.54,6.34,161.48,49.69,234.61,13.61-22.95-184.34-38.44-220.73-77.14-124.2-84.78-64.06-25,74.37,8.13,146.91C3820.42,1945.5,3743.31,1926.49,3649.07,1927.27Z"/><path class="cls-20" d="M3889.51,1982.86c-71.47,39.25-179-28.23-234.4-12.83s-45-11.66-77.14-6.29-59.35,9.56-79.85-3.78c-1.72-1.12,1.82-2.81-.12-3.73,26.82,1.5,37.67,1.23,65.65-3.6,39.63-6.84,22.89,21.07,78.54,5.84s165,48.55,236.38,12.33c71-36-19.8-188.06-42.6-237.64,5.76,7.52,8.37,15.19,12.72,24.55C3872.29,1808.57,3961,1943.6,3889.51,1982.86Z"/><path class="cls-2" d="M3722.36,1583.86c87.31,13.25,119.5,131.18,152.8,203.32-35.26,28.32-85.91,50.72-130.66,60.55,2.19-37.94-4.49-96.71-17.17-127.93S3650.84,1573,3722.36,1583.86Z"/><path class="cls-20" d="M3553.89,1966.82a30.08,30.08,0,0,1,.62-15.83,20,20,0,0,1,4.26-7.35c.52-.51,1-1.05,1.6-1.52s1.15-.93,1.79-1.31a20.31,20.31,0,0,1,1.94-1.07c.67-.28,1.37-.6,2-.83a39.88,39.88,0,0,1,16-1.77,95.41,95.41,0,0,1,15.35,2.72c-5.18.85-10.37.88-15.37,1.25a55.62,55.62,0,0,0-14.33,2.58,15,15,0,0,0-5.58,3.3,19.8,19.8,0,0,0-4,5.51C3556,1956.75,3554.84,1961.7,3553.89,1966.82Z"/><path class="cls-20" d="M3532.8,1968a32.85,32.85,0,0,1-.15-10A49,49,0,0,1,3546,1930.8a27.53,27.53,0,0,1,8.76-6.11,46.56,46.56,0,0,1,9.86-2.9,31,31,0,0,1,10.31,0,60.35,60.35,0,0,1,9.67,2.57c-3.33,0-6.63-.24-9.84-.1a34.51,34.51,0,0,0-9.27,1.44,59,59,0,0,0-8.79,3.39,26.58,26.58,0,0,0-7.15,5.32,53.76,53.76,0,0,0-5.95,7.18,71.46,71.46,0,0,0-4.85,8.15A58.66,58.66,0,0,0,3532.8,1968Z"/><path class="cls-3" d="M3551.63,1518.16c18.59,45,27.81,66.31,13.87,70.4s-2.11,52.82,28,50.22c60.42-4.08,68.93-58.79,68.93-58.79s-29.42-.5-41-83.3S3551.63,1518.16,3551.63,1518.16Z"/><path class="cls-20" d="M3625.17,1463.59c-3.59,77.17-21.46,85.9-61.69,91.37-3.68-11.35-8.95-16.12-15.52-32.11,1-1.07,1.65-1.67,1.65-1.67l74.37-51.66C3624.4,1470.45,3624.8,1462.55,3625.17,1463.59Z"/><path class="cls-11" d="M3626,1468.09c-.29,1.47-.58,2.94-.87,4.37-.37-1-.77-2-1.19-2.94Z"/><path class="cls-3" d="M3486.45,1373.75c15.13,184.58,26.31,187.76,73.86,179.5s60.7-30.61,69.81-88.55,34.4-119.83,0-124S3483.41,1336.62,3486.45,1373.75Z"/><path class="cls-20" d="M3572.75,1468.82a2.87,2.87,0,1,1-2.87-2.87A2.86,2.86,0,0,1,3572.75,1468.82Z"/><circle class="cls-20" cx="3578.53" cy="1458.92" r="2.55"/><path class="cls-20" d="M3597.61,1467.49a2.87,2.87,0,1,1-2.87-2.86A2.87,2.87,0,0,1,3597.61,1467.49Z"/><path class="cls-20" d="M3587.6,1473.89a2.21,2.21,0,1,1-2.2-2.21A2.2,2.2,0,0,1,3587.6,1473.89Z"/><path class="cls-20" d="M3580.9,1467a1.19,1.19,0,1,1-1.18-1.19A1.18,1.18,0,0,1,3580.9,1467Z"/><circle class="cls-20" cx="3499.78" cy="1462.21" r="2.55"/><path class="cls-20" d="M3518.86,1470.78a2.87,2.87,0,1,1-2.87-2.86A2.87,2.87,0,0,1,3518.86,1470.78Z"/><path class="cls-20" d="M3508.85,1477.18a2.21,2.21,0,1,1-2.2-2.21A2.19,2.19,0,0,1,3508.85,1477.18Z"/><path class="cls-20" d="M3502.16,1470.25a1.19,1.19,0,1,1-1.19-1.19A1.19,1.19,0,0,1,3502.16,1470.25Z"/><path class="cls-2" d="M3678,1382.69c29.68-69.46-97.13-105.91-139.62-106.59s-95.1,26.13-50.78,111.43c0,0,77.09-15,124.78-12.48,42-10.92,65.62,7.64,65.62,7.64"/><g class="cls-24"><path class="cls-11" d="M3494.38,1359.68a62.77,62.77,0,0,1-3.08-6.27c-.93-2.14-1.76-4.32-2.51-6.54a84,84,0,0,1-3.42-13.68,57.39,57.39,0,0,1-.57-14.44,32.08,32.08,0,0,1,4.71-14.45,30,30,0,0,1,11.61-10,46.1,46.1,0,0,1,14-4.28,65.72,65.72,0,0,1,14.2-.52c2.34.17,4.67.43,7,.83a50.9,50.9,0,0,1,6.81,1.56c-4.64.16-9.21.48-13.71,1a93.07,93.07,0,0,0-13.17,2.46,50.82,50.82,0,0,0-12,4.73,31.32,31.32,0,0,0-5,3.58c-.37.34-.77.66-1.12,1l-1,1.08a19.39,19.39,0,0,0-1.74,2.31,28.81,28.81,0,0,0-4,11.44,69.84,69.84,0,0,0-.54,13.07A193.55,193.55,0,0,0,3494.38,1359.68Z"/></g><g class="cls-24"><path class="cls-11" d="M3508.85,1347.13a35.17,35.17,0,0,1-2.76-7.89,41.87,41.87,0,0,1-1-8.39,30.71,30.71,0,0,1,4.3-16.87,16,16,0,0,1,1.3-1.87l.7-.91c.24-.29.51-.57.77-.85a23.93,23.93,0,0,1,3.42-3,24.8,24.8,0,0,1,8.06-3.8,33,33,0,0,1,16.81.08,66.66,66.66,0,0,0-15.28,4.23,26.52,26.52,0,0,0-6.22,3.85,22.9,22.9,0,0,0-4.64,5.37,35.6,35.6,0,0,0-4.67,14A103.69,103.69,0,0,0,3508.85,1347.13Z"/></g><path class="cls-25" d="M3678,1381.88s-32.38,108.66-47.89,82-17.73-58.63-17.73-58.63v-31S3649.85,1362.37,3678,1381.88Z"/><path class="cls-26" d="M3621.15,1451.17c16.27-44.27,32.66-21.51,34.51-12.84,4.22,19.78-9.72,57.33-26.43,45.14C3613.6,1472.07,3621.15,1451.17,3621.15,1451.17Z"/><circle class="cls-1" cx="3514.32" cy="1455.76" r="6.34"/><circle class="cls-1" cx="3569.64" cy="1450.85" r="6.34"/><path class="cls-1" d="M3537.38,1497.42a8,8,0,0,1-5.48-1.86c-2.65-2.34-3.35-6.42-2.14-12.49,2.76-13.81,4.15-22.91.13-32.77a2.32,2.32,0,0,1,4.3-1.76c4.51,11,3,21.2.13,35.44-.83,4.12-.59,7,.65,8.1s3.58.91,7.21-.3a2.32,2.32,0,0,1,1.47,4.41A20.14,20.14,0,0,1,3537.38,1497.42Z"/><path class="cls-1" d="M3522.84,1441.5a2.33,2.33,0,0,1-2.14-1.41c-1.67-3.9-12.67-3.71-20.49-.83a2.32,2.32,0,1,1-1.61-4.36c9-3.33,23.21-4,26.37,3.36a2.32,2.32,0,0,1-1.22,3A2.29,2.29,0,0,1,3522.84,1441.5Z"/><path class="cls-1" d="M3548,1437.14a2.27,2.27,0,0,1-1.54-.59,2.32,2.32,0,0,1-.2-3.28c5.83-6.56,19.52-9,30.51-8.55a2.32,2.32,0,0,1-.2,4.64c-9.89-.42-22.26,1.85-26.83,7A2.31,2.31,0,0,1,3548,1437.14Z"/><path class="cls-2" d="M3537.69,1517c-3.6,0-6-.13-6.31-.14a2.33,2.33,0,0,1,.26-4.65c.19,0,18.85,1,31-2.71a2.32,2.32,0,1,1,1.36,4.44C3555.52,1516.49,3544.51,1517,3537.69,1517Z"/><path class="cls-1" d="M3552.6,1478.81a8.22,8.22,0,0,1-7.9-6.7l-2.78-14.65a8.59,8.59,0,0,1,1.47-6.84,7,7,0,0,1,5.09-2.76l34.71-2.63a7,7,0,0,1,5.45,2,8.55,8.55,0,0,1,2.49,6.54l-.54,14.9a8.19,8.19,0,0,1-7.35,7.88l-30.08,2.28Zm31.14-31.28-.37,0-34.71,2.63a4.7,4.7,0,0,0-3.42,1.85,6.31,6.31,0,0,0-1,5l2.79,14.65a5.91,5.91,0,0,0,6,4.79l30.08-2.28a5.9,5.9,0,0,0,5.2-5.64l.55-14.91a6.24,6.24,0,0,0-1.78-4.77A4.7,4.7,0,0,0,3583.74,1447.53Z"/><path class="cls-1" d="M3492.88,1484.69a8,8,0,0,1-7.5-6.74l-2.68-14.66a8.87,8.87,0,0,1,1.51-7,6.45,6.45,0,0,1,4.65-2.55l32.37-2.45a6.68,6.68,0,0,1,6.25,3.41,9.39,9.39,0,0,1,1.27,5.11l-.43,14.9c-.12,4.11-3.15,7.56-6.9,7.85l-28,2.12Zm28.84-31.11-.32,0-32.36,2.45a4.11,4.11,0,0,0-3,1.65,6.51,6.51,0,0,0-1.06,5.17l2.68,14.66c.52,2.85,3,5,5.53,4.82l28.05-2.12c2.53-.19,4.66-2.71,4.74-5.6l.44-14.9a7,7,0,0,0-.95-3.84A4.39,4.39,0,0,0,3521.72,1453.58Z"/><path class="cls-1" d="M3527.3,1456.11l-1.64-1.64c.07-.08,7.49-7.27,18-1.47l-1.13,2C3533.53,1450.07,3527.36,1456.05,3527.3,1456.11Z"/><path class="cls-1" d="M3604.77,2001.69a30.72,30.72,0,0,0-6.52,1.28,50,50,0,0,0-6.21,2.25,66,66,0,0,0-11.43,6.49,90.62,90.62,0,0,0-18.73,18.27,143.3,143.3,0,0,0-14,22.23,221.81,221.81,0,0,0-10.45,24.22c-.76,2.07-1.43,4.17-2.16,6.25s-1.46,4.16-2.06,6.29c-1.25,4.24-2.57,8.45-3.64,12.74l-1.71,6.41c-.54,2.15-1,4.31-1.51,6.47l-1.48,6.47-1.33,6.52c-3.52,17.38-6.12,35-8.56,52.64a396.15,396.15,0,0,1,4.83-53.32l1.06-6.63,1.33-6.58c.46-2.2.86-4.4,1.36-6.58l1.57-6.55c2.1-8.71,4.79-17.3,7.75-25.79a213,213,0,0,1,10.94-24.7A133.17,133.17,0,0,1,3559,2027.6c.7-.89,1.48-1.71,2.25-2.55l2.3-2.5c.77-.82,1.62-1.58,2.42-2.38s1.61-1.59,2.49-2.32a86,86,0,0,1,10.89-8.12,63.61,63.61,0,0,1,12.25-5.75A38.91,38.91,0,0,1,3604.77,2001.69Z"/><path class="cls-11" d="M3476.55,2577.06a55.92,55.92,0,0,1,16.39-5,63.88,63.88,0,0,1,17.31-.45,54,54,0,0,1,16.76,4.62,44.78,44.78,0,0,1,14,10,82.12,82.12,0,0,0-15.14-7.15,75.12,75.12,0,0,0-16.07-3.57,98.18,98.18,0,0,0-16.55-.41A133.46,133.46,0,0,0,3476.55,2577.06Z"/><path class="cls-11" d="M3499,2551.24a39.49,39.49,0,0,1,12.37-4.75,46.14,46.14,0,0,1,13.38-.88,38.82,38.82,0,0,1,13.05,3.37,31.7,31.7,0,0,1,10.7,7.89,66,66,0,0,0-11.8-5,57.18,57.18,0,0,0-12.28-2.35,77,77,0,0,0-12.61,0A117.75,117.75,0,0,0,3499,2551.24Z"/><path class="cls-11" d="M3508.78,2523.27a25,25,0,0,1,10.09-6.06,35.31,35.31,0,0,1,11.82-1.76,39.29,39.29,0,0,1,5.94.68c1,.22,2,.35,2.91.64s1.89.6,2.83.91a18.06,18.06,0,0,1,2.74,1.11l2.66,1.27a51.76,51.76,0,0,1,4.91,3.21c-1.95-.38-3.76-1-5.61-1.44l-2.76-.63c-.46-.1-.92-.22-1.37-.33s-.92-.15-1.38-.25c-.92-.16-1.83-.32-2.74-.5s-1.84-.23-2.75-.35a21,21,0,0,0-2.74-.27l-2.75-.17a56.78,56.78,0,0,0-10.95.82A50.3,50.3,0,0,0,3508.78,2523.27Z"/><path class="cls-11" d="M3513.55,2492.53a66.18,66.18,0,0,1,9.78-1.52c3.26-.29,6.53-.42,9.78-.42s6.53.13,9.79.41a64.92,64.92,0,0,1,9.78,1.53,64.92,64.92,0,0,1-9.78,1.53c-3.26.28-6.53.41-9.79.41s-6.52-.13-9.78-.42A66.18,66.18,0,0,1,3513.55,2492.53Z"/><path class="cls-27" d="M3147.51,1774.29h260.68a33.92,33.92,0,0,1,28.53,15.58l118.86,184.88h156a15.87,15.87,0,0,1,15.87,15.87v16.64H3276.94L3138.18,1791.4A11.1,11.1,0,0,1,3147.51,1774.29Z"/><g class="cls-21"><path d="M3413.27,1791.4,3552,2007.26H3727.4v-16.64a15.87,15.87,0,0,0-15.86-15.87h-156l-118.85-184.88a33.91,33.91,0,0,0-19.32-14.3A11.12,11.12,0,0,0,3413.27,1791.4Z"/></g><path class="cls-5" d="M3312.1,1906c4.18,10.73,17.36,20,29.44,20.65s18.48-7.47,14.3-18.2-17.36-20-29.44-20.65S3307.92,1895.25,3312.1,1906Z"/><g class="cls-21"><path d="M3727.39,1990.62v16.64H3352.88c57.47-45.56,71.84-113.28,88.93-209.47l113.77,177h156A15.85,15.85,0,0,1,3727.39,1990.62Z"/></g><path class="cls-1" d="M2767.74,1384.14c-32.74,12.74-45.79,21.92-64.28,46.85s-29.23,54.75-36.8,84.84c-18.31,72.82-19.47,149.6-43.2,220.84a227.76,227.76,0,0,0,162.73,31.94q26.32-85.42,52.64-170.84c16.8-54.53,33.65-113.1,16.83-167.61-5.45-17.65-14.88-34.82-30.09-45.28S2782.67,1373.27,2767.74,1384.14Z"/><g class="cls-28"><path class="cls-1" d="M3044.71,1578.61c-.1,21-.82,42-1.49,63s-1.4,41.93-1.85,62.87-.66,41.9-.41,62.84.94,41.9,2,62.91a543.07,543.07,0,0,1-6.87-62.74c-1.16-21-1.37-42.1-.91-63.14s1.6-42,3.2-63S3042,1599.48,3044.71,1578.61Z"/><path class="cls-2" d="M2832.39,1368c-26.43,4-49.22,20.46-65.6,41-18.66,23.46-28.89,52.28-36.57,80.92-8.75,32.67-15.85,65.85-22.8,98.93q-5.31,25.24-10.17,50.58c-3,15.56-5.67,31.17-8.75,46.7-5.58,28.18-12.9,56.93-29.08,81.09q-3.12,4.65-6.65,9c-.41.51.31,1.25.73.73,17.9-22.13,27-49.52,33.13-76.93,3.26-14.48,5.78-29.11,8.48-43.7q4.71-25.37,9.87-50.64c6.8-33.29,14.11-66.49,22.17-99.49,7.33-30,16-60.64,33.26-86.69,14.75-22.26,36.38-41.41,62.56-48.53a86.42,86.42,0,0,1,9.69-2c.66-.1.38-1.1-.27-1Z"/><path class="cls-2" d="M2823.94,1375.23c-25.89,6.13-43.22,29.09-54.77,51.57-13.66,26.57-21.33,55.68-26.81,84.91-5.65,30.14-9.13,60.63-14.67,90.79A816.33,816.33,0,0,1,2670.51,1787q-2.4,5.4-4.89,10.76c-.27.6.62,1.13.9.52a816.46,816.46,0,0,0,59.33-180.83c6.06-29.86,9.81-60.09,14.81-90.14,4.91-29.53,11.23-59.15,23.15-86.74,10.4-24.11,25.71-50.38,50.93-61.25a57.14,57.14,0,0,1,9.48-3.11c.65-.15.37-1.15-.28-1Z"/><path class="cls-2" d="M2844.55,1382.29c-17.52,19.91-29.49,43.94-38,68.93-9.44,27.9-14.51,57-19.72,85.92-5.35,29.72-11.65,59.1-20.28,88-8.48,28.44-18.6,56.36-29.56,83.93-11.12,28-23.09,55.57-35.17,83.12q-2.22,5.09-4.45,10.16c-.27.6.63,1.13.89.52,11.86-27,23.71-54.06,34.84-81.39,11.2-27.49,21.67-55.29,30.62-83.6a731.22,731.22,0,0,0,21.55-86.5c5.49-29.46,10-59.2,18.52-88,7.56-25.73,18.32-50.91,34.75-72.29,2.13-2.78,4.37-5.48,6.69-8.12.44-.5-.29-1.23-.73-.73Z"/><path class="cls-2" d="M2734.51,1436.2c-13.88,18.27-21.55,40.22-26.82,62.33-5.51,23.07-9.16,46.6-13,70-4,24-7.77,47.93-12.27,71.79-4.46,23.58-9.59,47.06-16.24,70.13a428.63,428.63,0,0,1-25.42,67.69q-2,4.05-4,8.05c-.3.6.59,1.12.89.53a409.12,409.12,0,0,0,26.63-66.23,686,686,0,0,0,17.2-69.8c4.72-23.8,8.62-47.76,12.55-71.7,3.87-23.56,7.58-47.2,12.54-70.56,4.77-22.52,11.29-45.21,23.95-64.7,1.55-2.39,3.2-4.72,4.92-7,.41-.53-.49-1-.89-.52Z"/><path class="cls-2" d="M2736.64,1383.49c.26,2.22,3.15.25,2.56-1.35-.47-1.24-2.23-1-3.12-.45-1.71,1-2.73,3.16-3.78,4.78a269.44,269.44,0,0,0-14.18,25,366.27,366.27,0,0,0-21.19,53.15c-2.91,9.17-5.55,18.43-8,27.73-2.6,9.91-4.88,19.91-7.77,29.73a178.15,178.15,0,0,1-11.24,28.63c-4.48,9.07-9.5,17.87-14.59,26.61q-15.42,26.42-32.92,51.53-2.21,3.17-4.44,6.3c-.39.55.51,1.06.89.52q16.62-23.34,31.46-47.89c9.71-16.07,19.48-32.44,26.5-49.89s10.5-36.16,15.53-54.25a445.15,445.15,0,0,1,17.33-51.18,278.5,278.5,0,0,1,25-47.71c.6-.9,1.56-2.44,2.8-2.41,1.53,0,.15.76.2,1.18-.08-.65-1.12-.66-1,0Z"/><path class="cls-2" d="M2711.91,1401.74q-6.54,21-13.06,42l-13.11,42.16c-4.29,13.8-8.47,27.65-12.9,41.42a118.49,118.49,0,0,1-7.49,18.79,93.74,93.74,0,0,1-10.1,14.89c-7.26,9-15.45,17.51-20.84,27.87-.67,1.3-1.3,2.63-1.87,4-.26.61.63,1.13.89.52,4.66-10.92,12.74-19.75,20.22-28.79a120.44,120.44,0,0,0,10.41-14.11,92.1,92.1,0,0,0,8.06-17.74c2.32-6.64,4.3-13.39,6.39-20.09q3.25-10.5,6.53-21l13.11-42.16,13.11-42.16,1.64-5.3c.2-.63-.8-.91-1-.27Z"/></g><path class="cls-2" d="M2760.26,1656.9C2656.77,1797.41,2670,1886.41,2615.07,1924s36,102.12,85.71,47.87,91.32-125.21,93.95-199.56S2760.26,1656.9,2760.26,1656.9Z"/><g class="cls-29"><path class="cls-20" d="M2803,1651.47c-15.7,8.28-27.8,21.59-37.36,36.33-10.2,15.73-17.74,33-25.41,50l-29.13,64.7L2696.48,1835c-4.54,10.08-8.94,20.24-14.15,30a131.92,131.92,0,0,1-18.15,26.33,185.38,185.38,0,0,1-23,21.17c-2.09,1.66-4.21,3.29-6.34,4.9-.69.52,0,1.7.68,1.17,16.64-12.57,32.22-26.53,43.2-44.46,5.63-9.19,10.18-19,14.62-28.79q7.26-16.07,14.48-32.16l29.13-64.69c8.05-17.88,15.68-36.11,25.63-53.06,9-15.32,20.26-29.81,35.43-39.44q2.78-1.77,5.69-3.3c.77-.41.09-1.58-.68-1.17Z"/><path class="cls-20" d="M2789.74,1719.53c-13.94,10.39-21.75,26.4-29.1,41.68-7.7,16-15.09,32.18-22.64,48.26s-15.2,32-23.48,47.67a498.34,498.34,0,0,1-26.88,45.5,317,317,0,0,1-32.78,41.35c-1.49,1.58-3,3.13-4.53,4.67-.61.62.35,1.58,1,1a307.4,307.4,0,0,0,33.33-40.19,462.8,462.8,0,0,0,27.46-44.84c8.44-15.56,16.23-31.46,23.8-47.45s14.95-32.14,22.55-48.15c7.32-15.44,14.39-32.15,27-44.1a55.32,55.32,0,0,1,5-4.19c.69-.51,0-1.69-.68-1.17Z"/><path class="cls-20" d="M2797.35,1769.64c-6.44,6.6-11.73,14.19-16.76,21.9-5.31,8.13-10.4,16.41-15.37,24.75-9.88,16.59-19.3,33.45-29.11,50.09-9.42,16-19.2,31.76-30.06,46.8a309.44,309.44,0,0,1-32.9,38.91,206.7,206.7,0,0,1-39.76,31.12c-1.79,1.06-3.61,2.09-5.44,3.09-.76.42-.08,1.59.69,1.17a199.7,199.7,0,0,0,40.57-29.72,291.43,291.43,0,0,0,33.63-38,522.35,522.35,0,0,0,30.24-45.68c10-16.62,19.43-33.53,29.24-50.25,4.92-8.38,9.92-16.71,15.12-24.93,5.06-8,10.17-16,16.27-23.26,1.47-1.75,3-3.45,4.6-5.08.61-.63-.35-1.59-1-1Z"/></g><g class="cls-21"><path d="M2783.55,1835.18c-16,50.84-47.32,98-82.77,136.66-28.27,30.84-69.86,23.28-90.39,4.12,17.4,5.79,38.14,4.74,57.19-9.07C2714.39,1933,2758.37,1888,2783.55,1835.18Z"/></g><path class="cls-2" d="M2651.38,1849.75c30.64,41.08,37.62,59.7,60.4,67.36s10.42,52.77-52.07,81.69-119.11-91.77-95-120.41S2641.7,1836.77,2651.38,1849.75Z"/><g class="cls-30"><path class="cls-20" d="M2594.45,1846.93q-8.17,15.58-16.37,31.15c-4.95,9.45-9.76,19.24-10.55,30.05-.82,11.32,2.32,22.49,5.77,33.15q5.05,15.65,11.62,30.73t14.67,29.69c.66,1.2,1.34,2.39,2,3.58a.68.68,0,0,0,1.17-.69q-8.09-14.11-14.79-29t-12-30.52c-3.53-10.48-7-21.34-7.21-32.49a49.17,49.17,0,0,1,2.5-16.15,101.69,101.69,0,0,1,6.39-14.64c5.22-10.16,10.62-20.22,15.93-30.33.68-1.29,1.36-2.58,2-3.87.41-.78-.76-1.46-1.17-.69Z"/><path class="cls-20" d="M2605.62,1872.45a116.28,116.28,0,0,0-9.65,27.72,125.82,125.82,0,0,0-2.7,29.16,130.31,130.31,0,0,0,4,29.07,127,127,0,0,0,10.44,27.47,118.25,118.25,0,0,0,16.52,24c.82.92,1.66,1.82,2.51,2.71.6.63,1.56-.33,1-1a115.12,115.12,0,0,1-17.17-23.38,124.84,124.84,0,0,1-11-26.74,129.37,129.37,0,0,1-4.71-28.59,125,125,0,0,1,1.84-29,116.36,116.36,0,0,1,8.64-27.57c.5-1.09,1-2.17,1.55-3.24.39-.78-.78-1.46-1.17-.68Z"/><path class="cls-20" d="M2625,1867.3a245,245,0,0,0,4.51,26.35c2,8.71,4.4,17.31,7.15,25.81s5.86,17,9.19,25.27,6.9,16.58,10.6,24.76,7.56,16.32,11.46,24.43l1.45,3c.38.78,1.55.1,1.17-.69-3.88-8-7.71-16.06-11.42-24.16s-7.35-16.39-10.74-24.71-6.5-16.56-9.32-25-5.33-17-7.42-25.62a244.1,244.1,0,0,1-4.87-26.15c-.14-1.1-.27-2.2-.4-3.3-.1-.86-1.45-.87-1.36,0Z"/><path class="cls-20" d="M2631,1855.1a250.44,250.44,0,0,1,21.91,22.64,247.91,247.91,0,0,1,19,25.36c5.34,8.18,10,16.73,14.69,25.3,4.29,7.85,8.71,15.7,14.18,22.8,5.24,6.79,11.52,12.88,19.18,16.88,1,.49,1.91,1,2.89,1.38.79.35,1.48-.82.68-1.17-7.94-3.48-14.55-9.17-20-15.83-5.66-6.87-10.16-14.63-14.46-22.41-4.62-8.38-9.09-16.84-14.23-24.93a251.29,251.29,0,0,0-40-48.36c-.94-.88-1.88-1.75-2.84-2.62-.64-.58-1.6.37-.95,1Z"/></g><g class="cls-21"><path d="M2659.71,1998.8c-61.35,28.38-117-87.38-96.28-118.73,7.36,44.8,51.77,110.38,99.63,88.23,29.22-13.52,47.48-30.59,56.31-45.71C2730,1937.43,2713.21,1974.05,2659.71,1998.8Z"/></g><path class="cls-19" d="M2553.42,1860l129.11-25.82c5.7-1.14,7.16-6.26,3.25-11.44l-121-160.22c-3.91-5.18-11.7-8.45-17.41-7.31L2418.24,1681c-5.7,1.14-7.15,6.26-3.24,11.44l121,160.22C2539.92,1857.86,2547.72,1861.13,2553.42,1860Z"/><g class="cls-23"><path d="M2477.64,1775.41l58.37,77.28c3.91,5.17,11.71,8.44,17.41,7.3l129.11-25.82c5.7-1.14,7.16-6.26,3.25-11.43l-19.6-26C2583.84,1803.27,2513,1786.29,2477.64,1775.41Z"/></g><path class="cls-3" d="M2595.69,1889.59c-25.6-16.67-22.26-26.06-32.79-69.73s29-43.49,44.35-34,43.32,23.65,37.63,62.48c0,0,6.64,7,6.5,21.8S2618.89,1904.69,2595.69,1889.59Z"/><g class="cls-31"><path class="cls-20" d="M2630,1787.16a67.48,67.48,0,0,0-2.75,7.16l-.59,1.8-.53,1.82c-.38,1.19-.65,2.42-1,3.62a134.22,134.22,0,0,0-2.79,14.71l-.45,3.72c-.18,1.23-.21,2.49-.34,3.74-.3,2.49-.34,5-.54,7.53-.12,1.26-.11,2.52-.16,3.79s-.11,2.54-.19,3.82c-.08,2.56-.08,5.12-.33,7.75-.82-2.48-1.47-5-2.06-7.55-.23-1.28-.44-2.56-.63-3.86s-.41-2.58-.47-3.88a68.56,68.56,0,0,1-.25-7.85c0-1.31,0-2.63.16-3.94l.42-3.92a63.18,63.18,0,0,1,4-15.27c.53-1.21,1-2.43,1.65-3.59l.91-1.76c.33-.57.68-1.13,1-1.69A29.25,29.25,0,0,1,2630,1787.16Z"/><path class="cls-20" d="M2611.9,1782.24a135.19,135.19,0,0,0-5.52,12.35,111.36,111.36,0,0,0-4.12,12.54,116.21,116.21,0,0,0-2.67,12.93c-.42,2.19-.57,4.4-.89,6.64-.22,1.13-.21,2.25-.34,3.39s-.23,2.28-.42,3.44c-.36-1.1-.65-2.22-.93-3.35a31,31,0,0,1-.71-3.42,46.44,46.44,0,0,1-.54-7,52.61,52.61,0,0,1,7.18-26.88A37.46,37.46,0,0,1,2611.9,1782.24Z"/><path class="cls-20" d="M2586.54,1774.3c-1.16,4.78-2.33,9.42-3.39,14.06s-2,9.25-2.78,13.89a139.1,139.1,0,0,0-1.55,14,135,135,0,0,0,.13,14.34,40.71,40.71,0,0,1-4-14.24,59.12,59.12,0,0,1,.57-14.86,71,71,0,0,1,3.94-14.24A54.4,54.4,0,0,1,2586.54,1774.3Z"/></g><path class="cls-3" d="M2555.86,2558.49c-23.39,8-24.49,10.13-48.86,5.9-4.83-.84-10.07-2.21-12.87-6.22-3.7-5.27-1.87-13.27-6.21-18-4.85-5.33-13.57-2.91-20.22-.1l-.37.16a119.55,119.55,0,0,0,6.73-17.73c5.7-18.55,9.87-37.53,13.83-56.52q6.34-30.33,12-60.81c30,12,52.18,22,67.86,29.59C2556.66,2475.43,2550.8,2517,2555.86,2558.49Z"/><path class="cls-2" d="M2570.2,2646.18c-3.53,4-9.31,5-14.63,5.64-62.08,7.56-100.6,4.78-163,.2-14-1-28.08-2.16-41.45-6.37-3.36-1.06-7.07-2.7-8.23-6-1.07-3.07.45-6.4,2.16-9.16,10.86-17.33,30.33-26.9,48.5-36.31q19.15-9.91,37.75-20.84c11.82-6.94,23.79-14.48,31.64-25.7a61.08,61.08,0,0,0,4.36-7.4l.37-.16c6.65-2.81,15.37-5.23,20.22.1,4.34,4.76,2.51,12.76,6.21,18,2.8,4,8,5.38,12.87,6.22,24.37,4.23,25.47,2.14,48.86-5.9.32,2.58.68,5.15,1.08,7.73,3.1,19.87,8.74,39.24,14.32,58.57C2573.33,2632,2575.11,2640.56,2570.2,2646.18Z"/><path class="cls-20" d="M2590.11,2368.16a690.62,690.62,0,0,0-22.33,66.57c-15.68-7.58-37.87-17.57-67.86-29.59q4.29-22.87,8.21-45.82Z"/><g class="cls-21"><path d="M2570.19,2646.18c-3.52,4-9.31,5-14.62,5.64-62.08,7.56-100.6,4.78-163,.2-14-1-28.08-2.16-41.45-6.37-3.36-1.06-7.07-2.7-8.23-6-1.07-3.07.45-6.4,2.16-9.16,7.68-12.26,19.66-20.63,32.45-27.8,58.7,10.66,85.52,4.68,138-36.92,16.54,2.24,20-.26,40.35-7.24.32,2.58.68,5.15,1.08,7.73,3.1,19.87,8.74,39.24,14.32,58.57C2573.33,2632,2575.11,2640.56,2570.19,2646.18Z"/></g><path class="cls-2" d="M2812.17,1629c5.76-2.3,34.62-7.57,40.81-7.7,64.4-1.27,108.27,16.54,143.52,72.7,14.71,23.42,33.43,81.23,42.5,107.36,34.05,98,24.27,192.44-24.49,284.06-.59-7.16-13.48-12.54-19.49-16.47-16.77-11-36.33-16.85-55.78-21.72-66.27-16.63-116-23.5-184.21-20.31,29.47-41.29,34.52-95.92,26-145.94s-.38-89.77-18.65-137.09c-5.47-14.15-10.79-28.58-12.33-43.67s1.06-31.15,10.16-43.29c12-16,32.65-22.43,51.91-27.93"/><g class="cls-32"><path class="cls-20" d="M2787.7,1619.9c-7,9.72-8.61,21.92-8.87,33.62-.31,14.26.38,28.59,1.19,42.82,1.67,29.12,4.82,58.13,8.28,87.08,3.48,29.13,7.27,58.22,10.22,87.41,1.46,14.51,2.72,29,3.61,43.6.89,14.34,1.61,28.74.82,43.1-1.39,25.5-8.37,52.17-27.08,70.61a68.26,68.26,0,0,1-7.08,6.07c-.52.4,0,1.3.53.9,19.49-14.62,29.54-38.14,33.08-61.68,2.12-14.07,2.17-28.35,1.62-42.54-.57-14.66-1.64-29.31-2.93-43.93-2.6-29.35-6.29-58.59-9.86-87.84s-7.06-58.74-9.22-88.24c-1.07-14.67-1.82-29.36-2.09-44.07-.23-12.64-.76-26.13,4.07-38.08a39.47,39.47,0,0,1,4.61-8.31c.39-.54-.51-1.06-.9-.52Z"/><path class="cls-20" d="M2826.87,1639c-9.19,5.72-13,16.41-15.22,26.51a254,254,0,0,0-4.94,42c-1.33,29.56,1.24,59.12,4.28,88.5,2.87,27.77,6.27,55.55,7.13,83.48.75,24.87-.36,49.94-5.16,74.4-4.71,24-13.11,47.37-26.62,67.85q-2.51,3.8-5.24,7.45c-.4.53.5,1,.9.52,14.33-19.26,23.9-41.57,29.6-64.82,5.81-23.71,7.81-48.24,7.76-72.6-.05-27-2.86-53.9-5.7-80.74-3.09-29.19-6.28-58.45-6.27-87.84a315.73,315.73,0,0,1,2.91-44.2c1.63-11.49,3.3-24.73,10.85-34.07a25.25,25.25,0,0,1,6.24-5.51c.56-.35,0-1.24-.52-.89Z"/><path class="cls-20" d="M2865.31,1651.06c-8.16,7.61-11.19,18.71-12.63,29.44-1.84,13.57-2.25,27.42-2.29,41.1-.1,29,2.47,57.89,4.92,86.75,2.32,27.26,4.59,54.6,4.29,82-.28,24.72-2.53,49.53-8.31,73.61-5.68,23.65-14.9,46.55-28.72,66.66-.8,1.17-1.6,2.36-2.48,3.49a6.26,6.26,0,0,1-1.75,1.73c-1.15.66-3.94-.58-2.35-1.85.52-.42-.22-1.15-.73-.74-1.21,1-.72,2.68.42,3.52,1.54,1.13,3.36.06,4.5-1.14a51.82,51.82,0,0,0,5.06-7.12q2.61-4,5-8a193.28,193.28,0,0,0,15.38-33.5c8.37-23.82,12.51-49,14.17-74.1,1.79-27.25.5-54.55-1.58-81.76-2.31-30.17-5.52-60.3-6.5-90.56-.48-15-.41-30,.6-45,.83-12.31,1.58-25.81,8.05-36.68a32.14,32.14,0,0,1,5.68-7c.49-.46-.24-1.19-.73-.73Z"/><path class="cls-20" d="M2946.6,1616.75c-12.77-.24-20,13.36-24.67,23.3a171,171,0,0,0-12.88,41.39c-5.42,29.17-5.19,59.11-4.87,88.66.32,30.28,1.33,60.55,1,90.83s-1.84,60.52-6.88,90.35a336.15,336.15,0,0,1-10.06,42.94q-3.29,10.69-7.39,21.1c-2.47,6.24-4.85,13.21-9.41,18.29a13.3,13.3,0,0,1-8.25,4.66c-.65.08-.66,1.12,0,1,5.36-.67,9.14-4.47,11.88-8.88,3.5-5.64,5.79-12.15,8.13-18.33a304.92,304.92,0,0,0,12.63-42.7c6.4-29,9-58.75,10-88.41,1-30.26.19-60.53-.34-90.78-.52-29.93-1.4-60.14,1.84-90a209.37,209.37,0,0,1,9-43.46,146.34,146.34,0,0,1,8.72-20.86c3-5.81,6.72-11.78,12.3-15.43a16.11,16.11,0,0,1,9.2-2.73.52.52,0,0,0,0-1Z"/><path class="cls-20" d="M3033.82,1672.46c.75-4.81-4.72-7.91-9-6.91-6.45,1.52-9.51,9.51-12.19,14.74a456.61,456.61,0,0,0-19.38,43.49c-11.57,30-20.21,61-27.26,92.35-7.14,31.7-12.67,63.72-18,95.76s-10.58,64.38-17,96.36c-3.2,15.92-6.71,31.78-10.69,47.53-1.76,6.95-3.38,14-6,20.73-2.35,6-5.65,12.18-11,16a17.8,17.8,0,0,1-8.6,3.31c-.65.07-.66,1.1,0,1,11.94-1.26,18.17-13,21.68-23.17,2.35-6.82,4-13.93,5.71-20.93q2.88-11.64,5.46-23.34c6.86-31.09,12.26-62.49,17.51-93.89s10.36-63,16.65-94.32c6.19-30.85,13.55-61.5,23.36-91.41,4.95-15.07,10.52-29.95,16.86-44.49q4.76-10.9,10.08-21.53c1.71-3.41,3.39-6.88,5.33-10.16,1.78-3,4.33-6.49,8-7.16,3.37-.61,8.08,1.77,7.46,5.7-.1.65.9.93,1,.27Z"/><path class="cls-20" d="M3054.55,1735.61c-7.43,5.57-11.86,13.8-14.65,22.5-3.24,10.12-4.63,20.79-6.42,31.24q-6.53,38.06-13.06,76.12l-6.54,38.16c-2.07,12.06-4.16,24.13-6.85,36.07-5,22.24-12.47,43.69-24.12,63.36a194,194,0,0,1-40.63,48.43q-3,2.55-6.08,5c-.52.41.22,1.14.73.73a194.68,194.68,0,0,0,42-45.85,202.89,202.89,0,0,0,26.28-59.89c6.31-23.87,9.79-48.46,14-72.77l13.06-76.12c2-11.52,3.63-23.15,6.11-34.58,2-9.37,5-19.08,11.37-26.49a32.71,32.71,0,0,1,5.33-5c.53-.4,0-1.3-.52-.9Z"/><path class="cls-20" d="M2985,2102.49c3.32-28.47,19.58-52.86,35.8-75.66,8.27-11.61,16.7-23.1,24.23-35.21a353.36,353.36,0,0,0,20.5-38.16c12.06-26.06,21.11-53.45,28-81.31a715.86,715.86,0,0,0,15.12-85.62c3.52-29.23,5.72-58.6,7.5-88,.22-3.62.43-7.23.63-10.85,0-.66-1-.66-1,0-1.68,29.35-3.68,58.7-6.88,87.93a763.57,763.57,0,0,1-14.24,87.4c-6.51,28.37-15.15,56.31-26.85,83a359.59,359.59,0,0,1-19.49,38.23c-7.26,12.34-15.46,24-23.79,35.68-16,22.33-33,45.55-38.92,72.91-.7,3.19-1.22,6.41-1.6,9.66-.07.66,1,.65,1,0Z"/></g><g class="cls-21"><path d="M3014.51,2085.39c-.59-7.16-13.48-12.54-19.49-16.48-16.77-11-36.33-16.83-55.78-21.71-66.26-16.63-116-23.5-184.21-20.32,12.86-18,21.08-38.59,25.53-60.21,93-46.09,176.29-97,206.85-199.11,4.3-14.37,10.85-35.33,17.41-57.85,12.86,27.6,26.76,70.23,34.18,91.62C3073.05,1899.37,3063.27,1993.77,3014.51,2085.39Z"/></g><g class="cls-21"><path d="M2680.55,2015.61c-.81.4-1.61.8-2.4,1.22A2.6,2.6,0,0,1,2680.55,2015.61Z"/></g><path class="cls-3" d="M2785.68,1570.8c18.06,16.44,18.67,48.32,1.26,65.44-2,2-4.2,3.8-5.26,6.35-1.22,2.94-.69,6.32.27,9.35a37.07,37.07,0,0,0,29.1,25c13.6,2.08,27.16-3.67,39-10.58a189.33,189.33,0,0,0,50.56-42.87c-18.63-.19-33.8-15-44.3-30.35a178.22,178.22,0,0,1-25-54.42"/><path class="cls-20" d="M2828.77,1557.49c-.88,13.84-9.69,25.75-18.23,36.68a106.37,106.37,0,0,1-11,12.48,48.4,48.4,0,0,0-4.83-23.75,64.43,64.43,0,0,0,15.82-11.38c3.88-3.81,7.38-8.2,12.17-10.77Z"/><path class="cls-3" d="M2785.16,1390c-33.92-1.36-64.18,25.56-76.15,57.33s-9.08,67.16-2.73,100.51c3.9,20.47,10.95,43.21,29.67,52.38,11.78,5.76,25.83,4.69,38.46,1.15,41.5-11.62,73.93-50.39,78.05-93.29,1.12-11.62.34-23.35-1.28-34.9-4.79-34.24-20.29-71-52.38-83.92"/><path class="cls-2" d="M2724.82,1557.49a25.16,25.16,0,0,0,4.36,1.11c1.41.27,2.79.54,4.13.76.66.12,1.32.2,1.93.29a9.23,9.23,0,0,0,1.58.07h.14l.06,0,.22,0c.27-.05.54-.12.81-.19.55-.14,1.12-.29,1.7-.5s1.19-.39,1.8-.63,1.27-.46,1.95-.7c1.35-.48,2.78-1,4.22-1.33a31.09,31.09,0,0,1,9.19-1.18,31.62,31.62,0,0,1-6.76,6.33,44.57,44.57,0,0,1-3.76,2.42c-.66.38-1.37.72-2.09,1.08s-1.51.63-2.32.91a20.52,20.52,0,0,1-2.57.61c-.45.07-.91.12-1.37.15a7.69,7.69,0,0,1-1.78-.06,11.42,11.42,0,0,1-2.74-.77,16.14,16.14,0,0,1-2.24-1.12,18.54,18.54,0,0,1-3.85-3,13.85,13.85,0,0,1-1.58-1.9A6.24,6.24,0,0,1,2724.82,1557.49Z"/><path class="cls-3" d="M2715,1536.26a6.75,6.75,0,0,1-4,2.51,23.89,23.89,0,0,1-6.11,1c-.74-4.36-1.41-8.74-2-13.14a28.71,28.71,0,0,1,9.7,3.11l1.46,2.43C2715.5,1532.71,2715.82,1534.89,2715,1536.26Z"/><path class="cls-17" d="M2714.5,1536a6.74,6.74,0,0,1-4,2.37,23.88,23.88,0,0,1-5.64.84l.5.38q-1.11-6.48-2-13l-.65.5a29.21,29.21,0,0,1,5.82,1.4,28.59,28.59,0,0,1,2.85,1.2,4.63,4.63,0,0,1,.7.36s0-.1,0,0a2.05,2.05,0,0,1,.26.43c.26.42.51.85.77,1.28a2.63,2.63,0,0,0,.58.84,3,3,0,0,1,.7.49,2.32,2.32,0,0,1,.42.9,2.8,2.8,0,0,1-.35,2,.52.52,0,0,0,.9.52,3.67,3.67,0,0,0-.24-4.2,2.74,2.74,0,0,0-.77-.58s.12.19,0,0a1.16,1.16,0,0,1-.14-.24l-.87-1.44a2.28,2.28,0,0,0-.78-.95,23.14,23.14,0,0,0-3-1.34,28.87,28.87,0,0,0-6.66-1.72c-.29,0-.7.12-.65.5q.86,6.66,2,13.28a.54.54,0,0,0,.5.38,25.26,25.26,0,0,0,6.34-1,7.37,7.37,0,0,0,4.24-2.73C2715.76,1536,2714.87,1535.44,2714.5,1536Z"/><path class="cls-3" d="M2707.39,1487.75a17.42,17.42,0,0,1,13.64,3.77c.51.43,1.25-.3.74-.73a18.59,18.59,0,0,0-14.66-4c-.65.1-.37,1.1.28,1Z"/><path class="cls-1" d="M2701.13,1489.47a5.37,5.37,0,0,1,3.45-3.18,7.42,7.42,0,0,1,8.26,2.71,5.31,5.31,0,0,1,.89,4.61c-1.72-.36-2.85-.55-3.87-.74a18.64,18.64,0,0,1-2.65-.66,21,21,0,0,1-2.52-1C2703.75,1490.71,2702.73,1490.19,2701.13,1489.47Z"/><path class="cls-1" d="M2743.41,1490.79a26,26,0,0,1,8-6.2,35.35,35.35,0,0,1,9.54-3.28,34.42,34.42,0,0,1,10.08-.45,21.76,21.76,0,0,1,5.09,1.05,9.55,9.55,0,0,1,4.39,2.95,17.17,17.17,0,0,0-4.77.08c-1.5.21-3,.5-4.54.8l-9.09,1.68-9.08,1.76C2750,1489.76,2746.86,1490.41,2743.41,1490.79Z"/><path class="cls-1" d="M2749.35,1505.55a8.08,8.08,0,0,1,2.26-3.74,11.38,11.38,0,0,1,3.83-2.4,13.58,13.58,0,0,1,9.14-.13,14.93,14.93,0,0,1,7.19,5.28,13.18,13.18,0,0,1,2.73,8c-2.28-1.76-4.2-3.28-6.15-4.53a25.74,25.74,0,0,0-5.77-2.89,19,19,0,0,0-6.11-1A18.37,18.37,0,0,0,2749.35,1505.55Z"/><path class="cls-1" d="M2706.75,1505.73a2.12,2.12,0,0,1-.21-1.78,3.47,3.47,0,0,1,1.11-1.67,4.48,4.48,0,0,1,2-.9,6.2,6.2,0,0,1,2.06,0,9.63,9.63,0,0,1,3.29,1.21,11.84,11.84,0,0,1,2.57,2,11.28,11.28,0,0,1,2.89,5.73,9.76,9.76,0,0,1,0,3.19,7.56,7.56,0,0,1-1.21,3c-1.32-1.78-2.33-3.11-3.33-4.34s-1.94-2.28-2.9-3.32l-1.48-1.52-1.42-1.37a5.43,5.43,0,0,0-.58-.52,1.82,1.82,0,0,0-.65-.39,2.09,2.09,0,0,0-1,0A1.78,1.78,0,0,0,2706.75,1505.73Z"/><path class="cls-20" d="M2726,1500.63a15.49,15.49,0,0,1,6,10.5,20.83,20.83,0,0,1-.23,6.32,44.06,44.06,0,0,1-1.53,5.81l-1.88,5.3a38.76,38.76,0,0,0-1.38,5.09,22.27,22.27,0,0,0-.42,5.22,12.76,12.76,0,0,0,1.41,5.32,10.05,10.05,0,0,1-3.94-4.68,16.05,16.05,0,0,1-1.26-6.17,24.35,24.35,0,0,1,.72-6.17c.47-2,1.08-3.82,1.66-5.62a41.07,41.07,0,0,0,2.64-10.26A23,23,0,0,0,2726,1500.63Z"/><path class="cls-1" d="M2760.34,1502.54c.45-.42-.43-1-1-.87-2.65.56-3.75,3.72-4,6.41-.35,3.43,0,7.22,2.32,9.76s7.18,2.8,8.88-.2c.94-1.64.7-3.68.43-5.55-.35-2.4-.72-4.89-2.07-6.91s-4-3.4-6.25-2.54"/><path class="cls-1" d="M2715.44,1505.74c-1.4-1-3.46-.06-4.32,1.41a9.5,9.5,0,0,0-.81,5c.05,2.49.13,5.09,1.35,7.26s4,3.71,6.24,2.73a5.22,5.22,0,0,0,2.75-4.85,15.18,15.18,0,0,0-1.48-5.67c-.92-2.27-1.88-4.62-3.64-6.33"/><path class="cls-2" d="M2796.35,1521.62a29.28,29.28,0,0,0-22.7,7.06,3,3,0,0,0-1.22,1.9,2.45,2.45,0,0,0,.49,1.47c1.29,1.91,3.65,2.78,5.9,3.21a24.6,24.6,0,0,0,19.3-4.6,6.79,6.79,0,0,0,2.84-3.79c.31-1.59-.77-3.52-2.38-3.51"/><path class="cls-2" d="M2715,1536.26a6.75,6.75,0,0,1-4,2.51,23.89,23.89,0,0,1-6.11,1c-.74-4.36-1.41-8.74-2-13.14a28.71,28.71,0,0,1,9.7,3.11l1.46,2.43C2715.5,1532.71,2715.82,1534.89,2715,1536.26Z"/><path class="cls-20" d="M2743.59,1404.68a119.77,119.77,0,0,1,27,37.69c4.83,10.62,8.08,21.88,11.82,32.93,4.8,14.14,10.43,28,16.06,41.83,3.75,9.22,7.51,18.46,12.33,27.16,5.67,10.23,12.94,19.8,22.46,26.61,10.41,7.43,22.92,11.18,35.19,14.82q-29.76-67.44-57.18-135.86c-2.49-6.23-5-12.5-8.6-18.15-4.4-6.91-10.33-12.69-16.32-18.27-6.36-5.91-13.11-11.83-21.37-14.51s-18.43-1.3-23.83,5.49Z"/><path class="cls-1" d="M2737,1397.24c19.8,11.73,33.22,31.83,43.05,52.63s16.78,42.92,27.48,63.29c11.5,21.88,13.54,42,29,61.22,13.63,17,25.54,34.73,64.08,49.09,38.26,14.25,52,17.7,72.31,39.94-7-93-40.57-184.31-104.08-252.63-7.35-7.9-15.07-15.57-24.1-21.47-31.11-20.32-74.36-15.76-104.92,5.37"/><g class="cls-33"><path class="cls-19" d="M2742,1385.38l3,1.49a.52.52,0,0,0,.52-.9l-3-1.49a.53.53,0,0,0-.71.19.52.52,0,0,0,.18.71Z"/><path class="cls-2" d="M2724.44,1381.12a138.25,138.25,0,0,1,54.49,29.48,163,163,0,0,1,38.57,50.74,191.1,191.1,0,0,1,11.86,30.26,293.57,293.57,0,0,1,7.73,34.82c3.86,22.67,6.42,45.69,13.11,67.76,5.79,19.12,14.66,37.83,28.83,52.2,1.72,1.74,3.51,3.4,5.36,5,.51.43,1.24-.3.74-.73-15.7-13.5-25.76-32.12-32.27-51.53-7.29-21.74-10.15-44.58-13.8-67.13a350.05,350.05,0,0,0-7.26-35.56,196.23,196.23,0,0,0-10.93-30.42,167,167,0,0,0-36.61-52,141.89,141.89,0,0,0-52.14-31.68c-2.45-.82-4.92-1.55-7.4-2.22a.51.51,0,0,0-.28,1Z"/><path class="cls-2" d="M2743.75,1381c17.14,1.92,33,10,45.91,21.24,13.8,12,24,27.45,31.32,44.11,7.92,18,12.61,37.17,16.27,56.4,4,20.9,6.8,42,11.54,62.79,3.91,17.17,8.84,35.56,21.1,48.84a53.6,53.6,0,0,0,4.63,4.41c.51.42,1.25-.31.74-.74-14.13-11.89-20-30.31-24.25-47.63-5.09-20.76-8-42-11.83-63-3.57-19.6-8-39.19-15.62-57.66-6.91-16.8-16.51-32.6-29.74-45.18-12.25-11.64-27.43-20.56-44.14-23.76-2-.38-3.94-.67-5.93-.89-.66-.07-.65,1,0,1Z"/><path class="cls-2" d="M2782.34,1372a98.71,98.71,0,0,1,61.91,31.76c16.52,18.16,27.15,41.17,36.86,63.45a543.26,543.26,0,0,1,26.19,74.45c3.44,12.65,6.28,25.43,9,38.24s5.65,25.78,10,38.24c7.07,20.39,18.7,40.34,37.19,52.31a66.19,66.19,0,0,0,6.87,3.88c.59.29,1.12-.6.52-.9-20.29-10-33.69-29.68-41.64-50.27-4.75-12.3-7.88-25.14-10.71-38s-5.51-25.81-8.85-38.59a546.86,546.86,0,0,0-25.33-74.43c-5-11.73-10.27-23.35-16.18-34.64a175.72,175.72,0,0,0-19.19-29.84,100.73,100.73,0,0,0-58.55-35.48q-4-.76-8.09-1.21c-.66-.08-.65,1,0,1Z"/><path class="cls-2" d="M2839.27,1370.12a225.27,225.27,0,0,1,49.46,45.92,193.38,193.38,0,0,1,32.32,59.33,184,184,0,0,1,7.75,36.17c1.63,13.9,2.16,27.89,3.19,41.84a321.92,321.92,0,0,0,5.59,41.25c2.68,13,5.92,26.24,11.07,38.53a74.39,74.39,0,0,0,20.52,28.39c8.8,7.46,19,13.08,29.49,17.81,2.5,1.13,5,2.21,7.57,3.26.61.25.88-.75.27-1-10.88-4.5-21.6-9.65-31.17-16.56a73.86,73.86,0,0,1-23.45-27.25c-5.88-12-9.24-25.2-12.16-38.14a306.32,306.32,0,0,1-6.33-41.74c-2.2-26.26-2.32-52.75-9.9-78.21a191.31,191.31,0,0,0-29.8-58.89,223.51,223.51,0,0,0-47.14-46.81c-2.22-1.64-4.48-3.23-6.76-4.79-.55-.38-1.07.52-.52.89Z"/><path class="cls-2" d="M2867.07,1471.69c7.88,12.66,13.59,26.51,18,40.73s7.56,29,10.54,43.62c2.87,14.09,5.57,28.22,9.17,42.15a232.06,232.06,0,0,0,13.49,39.14,130.06,130.06,0,0,0,22.14,34q1.72,1.86,3.52,3.63a.52.52,0,0,0,.73-.73,123.83,123.83,0,0,1-23.54-33.31,215,215,0,0,1-14.28-39c-3.73-13.72-6.5-27.67-9.31-41.61-3-14.68-6-29.37-10.15-43.76-4.09-14.09-9.32-27.91-16.6-40.68-.9-1.58-1.84-3.15-2.8-4.69-.35-.57-1.25-.05-.9.52Z"/></g><path class="cls-17" d="M2955.8,1456.21l-2.28-2.2a.52.52,0,1,0-.73.73l2.27,2.2a.52.52,0,1,0,.74-.73Z"/><path class="cls-3" d="M2688.29,2561.47c-23.39,8-24.49,10.13-48.86,5.89-4.83-.84-10.07-2.2-12.88-6.21-3.69-5.27-1.86-13.28-6.2-18-4.85-5.33-13.57-2.91-20.22-.1l-.37.15a118.72,118.72,0,0,0,6.73-17.73c5.7-18.54,9.87-37.52,13.83-56.51q6.34-30.34,12-60.81c30,12,52.18,22,67.86,29.59C2689.09,2478.41,2683.23,2520,2688.29,2561.47Z"/><path class="cls-2" d="M2702.62,2649.16c-3.52,4-9.31,5-14.62,5.64-62.08,7.56-100.6,4.77-163,.2-14-1-28.08-2.17-41.45-6.37-3.36-1.07-7.07-2.7-8.23-6-1.07-3.07.44-6.41,2.16-9.16,10.86-17.34,30.33-26.91,48.5-36.32q19.14-9.9,37.75-20.83c11.82-6.94,23.79-14.48,31.64-25.7a61.2,61.2,0,0,0,4.36-7.41l.37-.15c6.65-2.81,15.37-5.23,20.22.1,4.34,4.75,2.51,12.76,6.2,18,2.81,4,8,5.37,12.88,6.21,24.37,4.24,25.47,2.15,48.86-5.89q.48,3.87,1.08,7.72c3.1,19.88,8.74,39.25,14.32,58.57C2705.76,2634.94,2707.54,2643.53,2702.62,2649.16Z"/><path class="cls-20" d="M2722.54,2371.13c-8.42,21.81-19.83,58.28-26,80.8-15.68-7.58-39.91-2.21-69.9-14.22,2.86-15.26,11.29-60.12,13.89-75.41Z"/><path class="cls-4" d="M2467.33,2375c9.94-29.54,62.24-224.57,72.19-254.12,7.13-21.17,14.41-42.65,27.13-61A120.17,120.17,0,0,1,2623.3,2016c21.34-7.9,44.43-9.53,67.17-10.39,102.38-3.9,154.17,6.18,254.34,27.69,10.84,2.33,21.85,4.87,31.39,10.52,26.78,15.85,56.84,4.7,23.81,82.66-14.73,34.76-50.22,60.46-88,59.19-29.17,2.59-59.47,23.7-77.38,46.87s-28.8,50.89-38.56,78.5q-19.21,54.3-33.77,110.09c-46.4,8.22-94-2.32-139.33-15S2514.44,2376,2467.33,2375Z"/><g class="cls-34"><path class="cls-4" d="M2590.77,2126.91c-2.52,4.69-.8,10.18,1.09,14.77,1.95,4.74,4.1,9.41,6.44,14A148.15,148.15,0,0,0,2615,2181.5a110.66,110.66,0,0,0,22.25,21,92.89,92.89,0,0,0,27.71,13.29,76.7,76.7,0,0,0,30.28,2.56q1.89-.24,3.75-.57c.66-.11.38-1.11-.27-1a73.7,73.7,0,0,1-29.94-1.07A90.39,90.39,0,0,1,2641,2203.8a106,106,0,0,1-22.54-19.78,141.48,141.48,0,0,1-17.08-24.84q-3.61-6.61-6.65-13.51c-1-2.37-2.1-4.75-2.93-7.2a18.07,18.07,0,0,1-1.16-7.52,9.24,9.24,0,0,1,1.07-3.51c.32-.59-.58-1.12-.89-.53Z"/><path class="cls-27" d="M2595.14,2104.34A100.42,100.42,0,0,0,2611.3,2132a171,171,0,0,0,22.06,22.31,248.27,248.27,0,0,0,84.79,47.75l3.91,1.24a2.59,2.59,0,0,0,1.38-5c-5.17-1.62-10.3-3.36-15.36-5.3-2.48-1-4.93-1.94-7.38-3-.45-.19-.06,0,0,0l-.4-.17-1-.42-1.87-.82c-1.21-.53-2.42-1.08-3.62-1.63a245.53,245.53,0,0,1-28.14-15.24q-6.78-4.26-13.27-9c-1.08-.77-2.14-1.56-3.2-2.35l-1.55-1.17-.77-.58-.42-.33-.16-.12q-3.14-2.45-6.2-5a186.48,186.48,0,0,1-22.51-21.74c-.82-1-1.62-1.91-2.4-2.89-.4-.48-.78-1-1.17-1.46l-.32-.41c-.26-.33.37.48,0,0l-.63-.83q-2.31-3.06-4.4-6.28a92.88,92.88,0,0,1-7.34-13.65c0-.1-.2-.45,0,.05,0-.13-.1-.25-.16-.38l-.35-.87c-.24-.61-.48-1.22-.71-1.84a2.65,2.65,0,0,0-3.18-1.81,2.63,2.63,0,0,0-1.81,3.19Z"/><path class="cls-27" d="M2633.7,2190.16c0,3.83,2.76,6.64,5.85,8.51a44.41,44.41,0,0,0,4.69,2.32c1.83.83,3.66,1.64,5.51,2.43q11.27,4.85,22.87,8.84,11.45,3.91,23.17,6.95t23.64,5.16q12.14,2.16,24.42,3.38l3,.28a2.59,2.59,0,0,0,2.58-2.59,2.65,2.65,0,0,0-2.58-2.59q-5.9-.53-11.75-1.28l-1.46-.19c-.31,0,.09,0,.12,0l-.34,0-.78-.11-2.93-.42q-2.92-.43-5.83-.92-11.65-2-23.14-4.79T2678,2208.6q-11.22-3.67-22.16-8.19l-1.36-.57-.31-.13s-.38-.16-.11-.05-.08,0-.11,0l-.42-.18c-.91-.39-1.81-.77-2.71-1.17q-2.72-1.18-5.39-2.41a26.55,26.55,0,0,1-4.13-2.24,3,3,0,0,0-.43-.3l.18.14-.27-.22a8.07,8.07,0,0,1-.8-.75c-.11-.11-.22-.24-.33-.36-.31-.33.3.46-.05-.05-.19-.29-.36-.59-.52-.89s.14.47,0,0a5.34,5.34,0,0,1-.16-.53c0-.1-.12-.64-.05-.21s0-.22,0-.32a2.59,2.59,0,0,0-5.18,0Z"/></g><g class="cls-21"><path d="M3001.22,2128.65c-15.14,34.58-50.93,59.86-88.65,58.14-29.19,2.23-59.75,23-77.93,45.94s-29.41,50.55-39.51,78q-19.85,54.08-35.08,109.69c-46.49,7.66-93.92-3.46-139.14-16.7l-5.84-1.71c44.13,6.65,89.54,10,131.93-3.19q7.59-60,20.11-119.26c6.35-30.06,13.84-60.4,29-86.83s43.11-52.25,72.28-58.55c38.33-3.33,71-34.57,81.41-72.75,2.57-9.35,4.51-17.48,5.89-24.59,7.94,2,15.74,4.6,22.72,8.84C3005,2061.89,3035.19,2051.1,3001.22,2128.65Z"/></g><path class="cls-3" d="M2887.12,1970.08c-33.14,13.62-67,19.77-100.45,33.43-26.83,11-46.94,31.14-58.75,58.07-2.91,6.63-4.73,13.71-1.36,20.52,4.87,9.83,15.05,13.51,25.63,11.69s18.18-8.49,26.17-15,14.88-14.07,24.37-18.27c14.8-6.56,32-4.76,46.71-11.16,19.92-8.66,34.55-25.19,54.11-34.46"/><path class="cls-20" d="M2887,1970.32c5.55,14.84,11.09,29.57,16.52,44.53-19.51,9.4-34.16,25.85-54.09,34.52-14.74,6.41-31.89,4.55-46.69,11.18-9.49,4.25-16.47,11.58-24.36,18.31s-15.93,12.35-26.05,15.28a26.71,26.71,0,0,1-4.71.5c.35-.12.72-.17,1.07-.31,9.76-3.92,17.22-10.24,24.4-17.69s13.41-15.4,22.42-20.54c14-8,31.32-7.66,45.3-15.5,18.91-10.6,31.82-28.6,50.91-38.95-4.61-9.39-9.15-18.64-13.67-28A71.23,71.23,0,0,0,2887,1970.32Z"/><path class="cls-2" d="M2934.47,1660.11c25.16-21.79,71,18.57,83,48,2,4.94,15.08,24.75,17.7,36.41,3.74,16.65,12.17,35.22,17.72,54,13.68,46.11,33.21,91.08,37.57,140.66,1.38,15.6-1.63,35.34-14.06,47.11-8.77,8.3-22.39,10.7-33.38,11.93-19.17,2.14-37.44,1.24-55.9,1.77-37.55,1.08-69.63,14.85-101.5,33.61a466.62,466.62,0,0,0-30.29-62.07c34.73-15.6,63.83-39.19,95.6-59.9,12.56-39.3,3.91-60,.61-97-2.73-30.67-17.05-41.23-23-73C2923,1711.46,2899.36,1690.53,2934.47,1660.11Z"/><g class="cls-35"><path class="cls-20" d="M2930.15,1675.37a564.86,564.86,0,0,1,35,76.24c9.7,25.64,18.19,51.78,26.1,78,3.81,12.62,6.88,25.73,6.75,39a75.1,75.1,0,0,1-9.76,36.69c-6.26,10.85-15.3,20.29-24.82,28.35a178.42,178.42,0,0,1-30.81,20.68,183.32,183.32,0,0,1-17.8,8.6,188.94,188.94,0,0,1-19.41,6.51c-13.2,3.74-26.66,6.68-39.52,11.53q-4.62,1.74-9.1,3.83c-.61.28-.08,1.17.52.89,12.84-6,26.58-9.4,40.21-13,13.32-3.54,26.27-7.65,38.63-13.82,22.15-11,43.05-25.57,58-45.56a74.44,74.44,0,0,0,14.17-34.9c1.71-12.82,0-25.83-3.11-38.31-3.26-13.19-7.74-26.14-11.89-39.07-4.31-13.43-8.8-26.81-13.62-40.06-9.58-26.34-20.5-52.23-33.66-77q-2.43-4.59-5-9.12a.52.52,0,0,0-.9.52Z"/><path class="cls-20" d="M2942.53,1647c7.25,14.79,17.12,28,26.82,41.28s19,26.84,26.35,41.6c14.47,28.86,22.34,60.59,24.36,92.76a310,310,0,0,1-.87,48.08q-1.16,12.3-3.13,24.5c-1.26,7.81-2.45,15.8-4.92,23.34s-7.11,14.06-12.37,20a95,95,0,0,1-17.66,15.35c-13.87,9.42-28.93,17.33-44,24.55-29.46,14.08-60.33,24.86-90.62,37q-5.91,2.36-11.78,4.79c-.61.25-.34,1.25.28,1,30.74-12.74,62.27-23.55,92.63-37.23a415.78,415.78,0,0,0,44.94-23.45,132.42,132.42,0,0,0,19.33-13.65,88.8,88.8,0,0,0,15-17.06c4.34-6.47,6.44-13.85,7.94-21.43,1.59-8,2.87-16,3.93-24.07a329.9,329.9,0,0,0,2.92-49c-.58-32-6.57-63.86-19.15-93.35a238.44,238.44,0,0,0-24.54-43.61c-9.6-13.63-20.06-26.69-28.59-41-2.11-3.55-4.09-7.17-5.9-10.88-.3-.6-1.19-.08-.9.52Z"/><path class="cls-20" d="M2994.48,1655.82c4.61,15.11,12.5,28.87,20,42.67,3.77,6.93,7.48,13.9,10.61,21.15a159.46,159.46,0,0,1,8.16,24.36c4.11,16.29,5.92,33,7.42,49.71,1.54,17.28,3.34,34.51,5.21,51.76,1.92,17.73,3.48,35.55,3.17,53.4-.14,8.32-.37,16.84-2.25,25a63.16,63.16,0,0,1-8.71,20.62,47.19,47.19,0,0,1-17.28,15.38c-7.21,3.92-14.87,7.06-22.28,10.57-15.82,7.51-31.47,15.36-47.06,23.33-31.35,16-62.46,32.52-94.25,47.66q-5.8,2.76-11.62,5.46c-.6.28-.08,1.17.52.89,32.32-15,63.86-31.52,95.52-47.81,15.79-8.12,31.62-16.18,47.6-23.92q12.16-5.91,24.45-11.52c6.62-3,13.27-6.42,18.62-11.45,10.32-9.7,15.74-24.49,17-38.35,1.63-18.24.73-36.64-.92-54.84-1.61-17.66-3.94-35.25-5.51-52.92-1.47-16.6-2.71-33.25-5.69-49.66a174.89,174.89,0,0,0-15.31-47c-7.28-14.63-16.09-28.51-22.38-43.62-1.51-3.65-2.86-7.36-4-11.14-.2-.64-1.2-.37-1,.27Z"/><path class="cls-20" d="M2975.8,2005.79c12-6.47,24.61-11.71,37.13-17.11,12.32-5.31,24.51-10.9,35.93-18a149.55,149.55,0,0,0,16.06-11.41,90.47,90.47,0,0,0,14.06-13.81,51.11,51.11,0,0,0,9.15-17.19c2-6.78,1.7-13.92,1.12-20.89-1.19-14.56-3.83-29-6.66-43.27l-1.05-5.29c-.13-.65-1.13-.38-1,.27,2.83,14.27,5.67,28.55,7.19,43,.73,7,1.47,14.19.42,21.18a44.7,44.7,0,0,1-7.59,18.26,76.46,76.46,0,0,1-13.35,14.43,140.59,140.59,0,0,1-15.77,11.82c-11,7.17-22.82,12.89-34.84,18.14-12.29,5.38-24.75,10.41-36.71,16.51-1.55.79-3.08,1.6-4.61,2.42-.59.32-.07,1.21.52.9Z"/></g><g class="cls-21"><path d="M3076.44,1986.21c-8.78,8.71-22.43,10.65-33.41,12-19.15,2.29-37.52,1.24-56,1.79-37.48,1.12-69.6,14.87-101.45,33.63-2.62-6.89-5.37-13.68-8.32-20.45,31.84-17.36,66.22-32.54,102.31-38.18,19.08-3,36.08-4.56,55.66-8.29,11.22-2.14,24.66-4.69,33-14.55,11.79-14,13.71-31.69,12.53-49.12-1.09-16-4.46-29.37-7.45-44.7,8,27.14,15,52.14,17.11,80.8C3091.69,1955.71,3088.89,1973.88,3076.44,1986.21Z"/></g><path class="cls-1" d="M1997.84,2619.8l-5.16,2.58v9.55h51.62s-.52-4.39,8.26-8,10.32,8,10.32,8h205.38v-6.46l-2-1s18.59-12.39-57.3-29.42-120.78-29.42-122.33-96l-79.5,26.32c2.62,12.77,2,21.47-.19,28.45-4.65,15-16.3,22-17.36,44.34C1989.14,2607.41,1997.84,2619.8,1997.84,2619.8Z"/><path class="cls-7" d="M1997.84,2619.8l-5.16,2.58v9.55h51.62s-.52-4.39,8.26-8,10.32,8,10.32,8h103c-92.26-25.37-123.21-47.59-158.9-78.15-4.65,15-16.3,22-17.36,44.34C1989.14,2607.41,1997.84,2619.8,1997.84,2619.8Z"/><path class="cls-7" d="M2007.21,2552.84c21.47-3.21,65.21-9.6,89.17-11.94-5.7-10.38-9-23.1-9.66-39-1.77-.41-3.61-.78-5.5-1.1l-74.09,24.53C2009.63,2537.54,2009.16,2546,2007.21,2552.84Z"/><path class="cls-1" d="M1818.61,2499.67c-1.55,66.59-9.81,77.95-26.33,82.08-66.07,16.52-41.87,43.36-41.87,43.36l-2,1v6.45H1862s-.13-7.87,6.19-7.76c4.71.09,5.62,7.76,5.62,7.76H1904V2623l-2.38-2.58s6.2-12.9,5.76-22.19c-1.55-32.65-18.58-30.46-10.32-70.72"/><path class="cls-7" d="M1896.58,2560.07c-2.09-7.41-2.76-16.67.49-32.52l-9.49-3.37-70.2,2.79c-1.06,14.67-2.71,25.3-5,33.1Z"/><path class="cls-7" d="M1870.29,2625.44c2.92,1.83,3.55,7.15,3.55,7.15H1904V2623l-2.38-2.58s6.2-12.9,5.76-22.19c-.74-15.67-5-23.32-8.41-31.47C1892.94,2586.53,1883.6,2608.44,1870.29,2625.44Z"/><path class="cls-20" d="M2357.77,1129.29c16.26-22.45,37.94-6.19,51.88-13.94s13.93-16.67,21.68-13.75,13.93,16.44-6.2,32.9-47.08,26.1-61.94,10.55S2357.77,1129.29,2357.77,1129.29Z"/><path class="cls-3" d="M2316,1206c28.65-86,33.29-86.72,67.36-86.72,33.1,0,54.2,29,76.65,15.27s24.78-35.71,36.4-32.61,16.26,22.89-20.14,56-76.65-5.42-97.56,22.45-33.29,66.59-33.29,66.59l-39.49-16.26Z"/><path class="cls-20" d="M2305.89,1230.72l39.49,16.26s12.39-38.71,33.29-66.59,61.17,10.7,97.56-22.45l.67-.61c-39.57,28.82-77.08-12.35-100.58,13.48-23.64,26-39.5,63.52-39.5,63.52l-26.9-13.53Z"/><path class="cls-17" d="M2305.89,1185.81c-65,158.73-70.72,130.08-196.41,27.88-42.07,66.59-14.2,129.3-14.2,129.3s188.16,278.49,281.07-119.28Z"/><g class="cls-21"><path d="M2088,1315.41c2.64,17,7.32,27.58,7.32,27.58s176.09,260.63,271.68-82.49C2242.94,1557.31,2111.62,1356,2088,1315.41Z"/></g><path class="cls-2" d="M1784.58,1221c-46.36,8.11-93.22,318.5-185.69,165.8L1535.72,1440c163.88,217.39,279.51,26.87,300.58-100.89C1851.66,1246.06,1784.58,1221,1784.58,1221Z"/><path class="cls-9" d="M1833.13,1535.42C1797,1949.26,1783,2526.88,1783,2537.72c71.23,9.29,113,12.39,123.88,17,24.78-289.58,40.27-681.37,52.66-718.53,1,6.06,2.28,27.84,3.8,60.28,8.2,174.68,22.52,658.25,22.52,658.25s100.66-24.77,120.79-31c7.74-365.46-1.55-867.94-15.48-988.36C2002.92,1535.79,1833.13,1535.42,1833.13,1535.42Z"/><path class="cls-12" d="M1981.46,1571.41c-.17,16.66-.85,33.26-1.62,49.86-.35,8.31-.85,16.6-1.28,24.9l-1.5,24.87-1.72,24.86-1,12.43c-.29,4.14-.64,8.28-1,12.42-1.38,16.56-2.92,33.12-4.92,49.65-.23-16.65.13-33.28.73-49.9.25-8.31.7-16.61,1.07-24.91l1.44-24.9c.59-8.29,1.15-16.58,1.8-24.87s1.33-16.57,2.17-24.84C1977.23,1604.42,1979.07,1587.89,1981.46,1571.41Z"/><path class="cls-1" d="M1826.22,1611.13c55.67,5.26,218.33,4.58,278.37,0q-.59-14.44-1.18-27.87c-126.51,19.31-248,4.64-275.23.85Q1827.18,1597.55,1826.22,1611.13Z"/><rect class="cls-9" x="1941.74" y="1586.75" width="53.43" height="33.68" rx="6.56" transform="translate(3936.91 3207.18) rotate(180)"/><path class="cls-12" d="M1959.56,1836.22c6.09,23.74,11.85,47.54,17.8,71.28,3,11.86,6,23.74,9.09,35.56s6.21,23.65,9.57,35.39,6.72,23.49,10.46,35.1,7.71,23.14,12.24,34.42c2.28,5.64,4.77,11.18,7.52,16.56q2,4,4.42,7.9a63.14,63.14,0,0,0,5.2,7.31,31,31,0,0,0,6.44,6,14.46,14.46,0,0,0,8.14,2.55,18.54,18.54,0,0,0,8.44-2.53c2.68-1.42,5.18-3.22,7.76-4.88-2.42,1.88-4.74,3.88-7.35,5.58a19.56,19.56,0,0,1-8.77,3.32,15.89,15.89,0,0,1-9.3-2.26,33.27,33.27,0,0,1-7.34-6,62.83,62.83,0,0,1-5.8-7.37q-2.65-3.85-4.94-7.91c-3.08-5.38-5.76-11-8.28-16.59-10-22.59-17.26-46.12-24-69.71q-4.92-17.75-9.32-35.61c-2.87-11.92-5.69-23.86-8.24-35.85C1968.1,1884.49,1963.47,1860.42,1959.56,1836.22Z"/><path class="cls-12" d="M1916.42,2120.77a134.51,134.51,0,0,1-11.26,30.08,118.48,118.48,0,0,1-8.5,13.83c-1.52,2.25-3.28,4.33-5,6.45-.85,1.07-1.82,2-2.72,3l-1.38,1.51c-.47.5-1,1-1.45,1.45a76,76,0,0,1-27.36,17.77,62.56,62.56,0,0,1-15.93,3.6,53.73,53.73,0,0,1-8.12.14,37.39,37.39,0,0,1-8-1.23,51.08,51.08,0,0,0,7.93-.26,61.2,61.2,0,0,0,7.76-1.26,71,71,0,0,0,14.73-4.9,81.41,81.41,0,0,0,13.37-7.71,88.1,88.1,0,0,0,11.79-10,110.82,110.82,0,0,0,10.25-11.68c3.23-4.08,6.08-8.46,8.92-12.87A289.63,289.63,0,0,0,1916.42,2120.77Z"/><path class="cls-11" d="M1958.69,1187.36c33.17,1,111.82,12.91,124.21,20.13,1,150.73,20.13,356.69,21.68,363.92S1991,1632.32,1832,1565.73c-12.39-171.89-77.43-335.52-22.2-351S1958.69,1187.36,1958.69,1187.36Z"/><path class="cls-20" d="M1991.56,1243.54c-6,22.3-11.45,22-21.44,21.79-9.56-.19-13.82.73-21.43-22.28,7.32-6.91,15.82-16.12,22.84-19.34C1981.85,1230.29,1991.56,1243.54,1991.56,1243.54Z"/><path class="cls-20" d="M1977.54,1255.76c4.9,48.84,17.16,307,18.71,319.19s-25.55,35.69-25.55,35.69-25.55-22.54-26.72-32.87,18.59-322,18.59-322Z"/><path class="cls-20" d="M1932.8,1268.33l-1.09-2.41c-1-2.18-24.33-53.46-26.15-68.84l2.14-.26c1.57,13.25,20.29,55.58,24.93,65.92,8.49-18.9,37-39,38.28-39.91l.4-.28.48.12c9.71,2.45,29.6,32.36,35,41.56,3.38-3.41,8.24-37.29,11.1-69.27l2.14.19c-1,11.19-6.3,67.23-12.38,71.11a1.94,1.94,0,0,1-1.74.22l-.38-.13-.19-.35c-6.36-11.19-25.16-38.17-33.59-41.1-3.77,2.71-31.68,23.23-38,40.93Z"/><g class="cls-21"><path d="M2009.52,1535.59c9.51,100.69,27.64,199,62.89,268.12,11.84-2.25,22.34-4.45,31.64-6.56q-.24-8.69-.47-17.18c-7.68,1.68-16.1,3.4-25.34,5.15-33.09-64.82-51.08-155.42-61-249.54-12.39-117.1-12.31-239.66-13.29-324.86C2001,1275.63,1998.13,1415.1,2009.52,1535.59Z"/></g><path class="cls-17" d="M2003.66,1191.54c2.32,148.91-2.84,441.81,74.59,593.57,89.82-17,102.21-31,102.21-31s-63-154.86-71-540.45C2070.12,1197,2003.66,1191.54,2003.66,1191.54Z"/><g class="cls-21"><path d="M1815.23,1778.07c41.76,9.69,86.41,11.26,86.41,11.26,12.47-70.54,17.45-163.09,18.64-253.77,1.79-136.62-5-269-7.76-315.73,1.4,55.52,3.47,184.77-2.69,315.71-4.1,87.22-11.86,175.19-25.93,242.6a541.14,541.14,0,0,1-68.06-9.66C1815.64,1771.67,1815.43,1774.86,1815.23,1778.07Z"/></g><path class="cls-17" d="M1911.69,1191.54s14.25,385.08-27.79,586.6c0,0-105.69-7-142.85-39.48,8.9-41,52.26-133.26,36-514.95C1856,1192.78,1911.69,1191.54,1911.69,1191.54Z"/><path class="cls-20" d="M2016,1512.15l-2.15,0c.67-37.6,33-144.51,42.12-165.16,6.49-14.67-5-22.83-13.45-28.79-3-2.1-5.52-3.91-6.91-5.71a4.47,4.47,0,0,1-1-3.67c.76-4.08,6.94-7.84,12.91-11.49,3.55-2.16,6.9-4.2,8.19-5.81,2.44-4.24-16.17-61.18-28.49-96.07l2-.71c.08.23,8.2,23.26,15.72,46.64,15.36,47.8,13.3,50.38,12.42,51.48-1.53,1.91-4.87,4-8.75,6.31-5,3.08-11.33,6.91-11.91,10a2.35,2.35,0,0,0,.54,2c1.19,1.54,3.63,3.27,6.45,5.26,8.52,6,21.38,15.14,14.18,31.42C2048.81,1368.38,2016.64,1474.77,2016,1512.15Z"/><path class="cls-20" d="M1910.32,1498c-6.43-54.53-31.34-122.52-43.3-155.19-3.12-8.52-5.18-14.15-5.83-16.59-2.27-8.5,9.07-11.63,19.08-14.39,5.08-1.41,9.88-2.73,11.73-4.48a1.44,1.44,0,0,0,.52-1.25c-.31-3.52-9.79-9.76-16.71-14.32a98.06,98.06,0,0,1-9.65-6.85c-1.33-1.18-4.86-4.31,7.15-48.5,5.86-21.55,12.66-42.62,12.72-42.83l2,.66c-.07.21-6.85,21.24-12.69,42.74-10.82,39.8-8.71,45.52-7.81,46.32A97.08,97.08,0,0,0,1877,1290c8.49,5.59,17.27,11.38,17.67,15.94a3.58,3.58,0,0,1-1.18,3c-2.24,2.12-7.06,3.45-12.64,5-9,2.49-19.29,5.32-17.58,11.76.63,2.35,2.79,8.25,5.78,16.41,12,32.75,37,100.9,43.42,155.68Z"/><path class="cls-12" d="M1804.15,2251.23c1.09.85,2.1,1.72,3.1,2.59.52.42,1,.88,1.5,1.29l1.57,1.2c1,.8,2,1.65,3.08,2.41s2.13,1.49,3.18,2.25a136.92,136.92,0,0,0,13.21,8.05q6.82,3.64,14,6.86c4.77,2.15,9.61,4.2,14.59,6.33a58,58,0,0,1-16-2.35,75.75,75.75,0,0,1-15.09-6.11,63.57,63.57,0,0,1-13.31-9.51c-1-1-1.94-1.93-2.88-2.92s-1.75-2.11-2.6-3.17l-1.23-1.62c-.39-.56-.73-1.16-1.08-1.75C1805.44,2253.61,1804.76,2252.44,1804.15,2251.23Z"/><path class="cls-3" d="M1566.81,1455.29c-59.65-102.16-99,18.62-160.87-56.76s-3.21-46.93,17.65-32.75,58.92-16.64,58.92-16.64-34.34-1.18-34.23-18.09,7.49,2.76,42.81-8.45c51.58-16.36,79.89,46.78,107.2,83"/><path class="cls-20" d="M1444,1424.27c42.13,7.27,76.32-48.65,122.84,31l31.49-49.69c-2.84-3.76-5.68-7.8-8.57-12L1571.06,1436C1511.6,1366.93,1485.78,1421,1444,1424.27Z"/><path class="cls-17" d="M1784.58,1221c-46.36,8.11-93.22,318.5-185.69,165.8L1535.72,1440c163.88,217.39,279.51,26.87,300.58-100.89C1851.66,1246.06,1784.58,1221,1784.58,1221Z"/><g class="cls-21"><path d="M1548.4,1456.14c157.15,191.4,267.38,7.42,287.91-117a151.25,151.25,0,0,0,1.67-39.35,155.07,155.07,0,0,1-1.88,23.77C1817.59,1443.43,1711,1616.72,1548.4,1456.14Z"/></g><path class="cls-20" d="M1482.51,1349.14a65.48,65.48,0,0,1,7.69-.39c2.5,0,5,.06,7.4.13l7.33.21,7.57.05a18.56,18.56,0,0,1-7.2,3.31,31.28,31.28,0,0,1-7.82.73,36.37,36.37,0,0,1-7.71-1.08A25.77,25.77,0,0,1,1482.51,1349.14Z"/><path class="cls-20" d="M1480,1398.5c-6.16,3.4-12.35,6.75-19.22,9-.84.31-1.73.52-2.6.76a23.52,23.52,0,0,1-2.67.61l-2.71.45-2.77.21a18.71,18.71,0,0,1-2.8,0,17.43,17.43,0,0,1-2.79-.25c-.92-.16-1.85-.31-2.77-.49l-2.7-.82a17.19,17.19,0,0,1-2.6-1c-.84-.41-1.72-.74-2.52-1.21l-2.36-1.46c-.39-.25-.8-.47-1.17-.74l-1.08-.85-2.14-1.72c-.72-.57-1.32-1.25-2-1.87l-1.94-1.91c-.61-.61-1.12-1.23-1.73-1.77-2.35-2.18-5.21-4-8.19-3.25a8.91,8.91,0,0,0-4.12,2.36,18.55,18.55,0,0,0-3.18,4.07,15.26,15.26,0,0,1,2.28-4.85,10.15,10.15,0,0,1,4.38-3.6,9.09,9.09,0,0,1,6-.08,16.44,16.44,0,0,1,5,2.79c.76.55,1.45,1.22,2.13,1.78l1.92,1.67c.65.54,1.24,1.15,1.93,1.63l2,1.45,1,.74c.35.23.71.41,1.07.63l2.14,1.24c.72.41,1.49.68,2.23,1a13.36,13.36,0,0,0,2.27.89l2.32.73,2.4.45a14,14,0,0,0,2.42.3,22.33,22.33,0,0,0,2.45.12,44.14,44.14,0,0,0,10-1.2C1466.54,1402.75,1473.15,1400.26,1480,1398.5Z"/><path class="cls-20" d="M1471.17,1385.12c-6.16,3.49-12.76,6.39-20.07,7.48A29.18,29.18,0,0,1,1440,1392a48.7,48.7,0,0,1-10.16-4.12l-9.29-5c-1.53-.79-3.07-1.69-4.61-2.36l-2.3-1.06-2.35-.91a20.68,20.68,0,0,0-9.67-1.28,10.79,10.79,0,0,0-4.45,1.9,10.69,10.69,0,0,0-3.23,4,9.74,9.74,0,0,1,2.42-4.82,11.69,11.69,0,0,1,4.73-3.07,17.09,17.09,0,0,1,5.62-.71l1.42.06a12.76,12.76,0,0,1,1.38.21,24.4,24.4,0,0,1,2.73.54l2.67.75c.86.31,1.7.66,2.55,1,1.74.65,3.28,1.44,4.93,2.17,3.2,1.53,6.34,3.19,9.42,4.79a57.18,57.18,0,0,0,9.28,4,29,29,0,0,0,9.76,1.2C1457.53,1388.89,1464.34,1387,1471.17,1385.12Z"/><path class="cls-20" d="M1460.88,1373.71c-1.21.56-2.43,1.11-3.66,1.63l-1.84.79-1.88.71a78.27,78.27,0,0,1-7.67,2.54l-2,.47a16.54,16.54,0,0,1-2,.37l-2.09.27c-.69.09-1.42,0-2.13.08h-1.08c-.36,0-.72-.08-1.09-.13-.71-.11-1.45-.16-2.15-.34l-2.11-.57c-.69-.21-1.33-.51-2-.76a60.71,60.71,0,0,1-7.27-3.8c-2.3-1.34-4.55-2.7-6.83-4l-3.42-2c-1.16-.62-2.3-1.27-3.45-1.91-2.28-1.3-4.66-2.42-7-3.71l.11,0c-.78-.27-1.56-.58-2.35-.84l-1.2-.26-.6-.14c-.2,0-.4,0-.6,0l-1.21-.11-1.19.1a5.16,5.16,0,0,0-1.17.23l-.59.15c-.19.07-.36.17-.55.24a10.28,10.28,0,0,0-4,3,15.3,15.3,0,0,0-1.52,2.17,15.68,15.68,0,0,0-1.2,2.43,14.28,14.28,0,0,1,1.73-5.28,11.34,11.34,0,0,1,4-4.22c.22-.13.43-.28.66-.39l.7-.29a7.41,7.41,0,0,1,1.44-.49l1.5-.32,1.51-.08c.25,0,.51,0,.76,0l.74.09,1.49.18c1,.21,1.89.48,2.85.73h0l.12,0c2.46,1,4.92,2.11,7.33,3.28,1.21.6,2.42,1.17,3.62,1.78l3.54,1.9c2.34,1.31,4.66,2.66,6.92,4l3.38,2,1.67.91c.56.31,1.12.61,1.68.85s1.11.55,1.68.76l1.71.57c.57.19,1.17.24,1.75.38.3,0,.59.13.89.16s.61,0,.91.06a33.34,33.34,0,0,0,7.55-.35C1450.44,1375.9,1455.62,1374.67,1460.88,1373.71Z"/><path class="cls-20" d="M2016.64,1046.29c4.74-34.12,24.89-18.6,24.93-8.85s-5.88,38.89-18.43,36.58S2016.64,1046.29,2016.64,1046.29Z"/><path class="cls-3" d="M1992.68,1114.82c-3.83,51.74-4.85,71,2.56,76.89-9.5,15.17-23.71,32-23.71,32s-37.9-28.6-49.39-30.83c10.92-14.09,14.48-41.12,11-94.75C1924.58,1018,1992.68,1114.82,1992.68,1114.82Z"/><path class="cls-20" d="M1934.24,1144.13c15.66,8.44,40.18,17.41,55.68,14.22.23-6.26.65-13.56,1.22-22.06-7.84-3.53-8.51,1.55-15.61,3.58s-10.84-1.55-22.71-8.77c-10.43-6.35-10.9-10.69-18.72-14.81C1934.49,1126.73,1934.53,1136,1934.24,1144.13Z"/><path class="cls-1" d="M2036.77,968.17c4.31,27.17,2.32,40.3-6.53,48s-19-44.5-10.84-48S2036.77,968.17,2036.77,968.17Z"/><path class="cls-3" d="M2024.82,953.53c21.5,82.54,18.93,206-60,176.54s-67.7-85.18-70-103.76-6.19-61.17,12.39-72.78S2020,935.16,2024.82,953.53Z"/><path class="cls-3" d="M2024.82,953.53c21.5,82.54,18.93,206-60,176.54s-67.7-85.18-70-103.76-6.19-61.17,12.39-72.78S2020,935.16,2024.82,953.53Z"/><path class="cls-20" d="M1894.74,1026.31c2.33,18.58-8.94,74.33,70,103.76,18.88,7,33.38,5.33,44.25-2.46a76.64,76.64,0,0,1-11-2.5c-80.69-24.37-73-80.72-76.45-99.12s-10-60.65,7.76-73.42c4.62-3.31,14.36-6.62,26.35-9.39-21.27,1.78-41.07,5.66-48.57,10.35C1888.55,965.14,1892.42,1007.73,1894.74,1026.31Z"/><path class="cls-1" d="M1943,984.11c98.4-1.81,107.11-21.29,112.53-46.07,0,0-8.52,7.74-19.36,5.42,3.94-13.35,3.94-28.84.65-34.88-15.49,38.75-27.22-6.68-83,2.56C1844.61,929.2,1865,978,1900.61,979.51,1911.11,980,1943,984.11,1943,984.11Z"/><path class="cls-1" d="M1926.49,970.56c14.28,45.05-15.49,50.45-17.81,66.26s-2.32,22.78,0,41.37c-41-25.55-59.12-73.15-55.87-94.08s4.77-29,23.35-30.58S1917.63,954.86,1926.49,970.56Z"/><path class="cls-1" d="M2005.9,1037c.61,5.84,4.48,10.23,8.62,9.79s7-5.53,6.39-11.38-4.48-10.23-8.62-9.79S2005.28,1031.13,2005.9,1037Z"/><path class="cls-1" d="M1954.1,1042.44c.62,5.85,4.48,10.24,8.63,9.8s7-5.53,6.39-11.38-4.48-10.23-8.63-9.8S1953.49,1036.6,1954.1,1042.44Z"/><path class="cls-20" d="M1995.24,1027.47a98.57,98.57,0,0,0-1.63,12.7,28.61,28.61,0,0,0,1.47,11.76,13.82,13.82,0,0,0,3,4.66l.24.26.3.31.62.63c.39.44.79.88,1.15,1.37a12.47,12.47,0,0,1,1.85,3.21,7.87,7.87,0,0,1,.54,3.92,6.87,6.87,0,0,1-1.6,3.53,10.81,10.81,0,0,1-5.92,3.34,13.07,13.07,0,0,0,4.17-4.52,4.82,4.82,0,0,0-.26-4.86,11.26,11.26,0,0,0-1.68-2.18c-.32-.35-.7-.67-1-1l-.56-.49-.29-.25-.34-.31a15.93,15.93,0,0,1-4.15-6,20.74,20.74,0,0,1-1.4-7,29.11,29.11,0,0,1,.58-6.82A34.78,34.78,0,0,1,1995.24,1027.47Z"/><path class="cls-1" d="M1902.64,1078.19c10.23-10.46-11.77-53.43,13.4-62.52.9,34.64,9.29,74.13,29,87.68s12-9.11,13.62-17,20.68-6.52,36.55-6.2,25.43-6.09,25.09,6.63c-.32,11.65,2,17.33,4.65,20.48,3.68-8.39,6.9-20.74,6.9-20.74,2.36,14.06,2.37,23,.69,28.86-5.76,29.81-41,44.91-78.4,31.75S1892.42,1088.64,1902.64,1078.19Z"/><path class="cls-1" d="M2021.34,1015.67c-1.85.43-3.34.67-4.79,1.08s-2.82.81-4.23,1.29l-4.3,1.47a45,45,0,0,1-4.88,1.38,10.81,10.81,0,0,1,3.18-4.3A14.21,14.21,0,0,1,2011,1014a12.61,12.61,0,0,1,5.43-.57A8.61,8.61,0,0,1,2021.34,1015.67Z"/><path class="cls-1" d="M1978.37,1020.89c-3-.26-5.81-.66-8.61-1s-5.55-.78-8.29-1.13-5.47-.55-8.24-.72-5.52-.08-8.54,0a20.36,20.36,0,0,1,8.32-3.35,32.89,32.89,0,0,1,9-.18,38,38,0,0,1,8.63,2.14A27.66,27.66,0,0,1,1978.37,1020.89Z"/><path class="cls-20" d="M1911.9,1052.28c-13.16-34.07-30.2-13.16-27.87-3.1s15.48,38.72,27.87,33.3S1911.9,1052.28,1911.9,1052.28Z"/><path class="cls-11" d="M2007.81,1088.68c-8.09,3.73-23.09,1.23-36.34-1.88C1975.64,1121.34,2008.74,1130.37,2007.81,1088.68Z"/><path class="cls-20" d="M1939.48,1060.36c0,3.53,4.07,6.39,9.1,6.39s9.1-2.86,9.1-6.39-4.08-6.39-9.1-6.39S1939.48,1056.83,1939.48,1060.36Z"/><path class="cls-20" d="M2018.85,1057.56c.85,3.42,5.49,5.22,10.36,4s8.15-5,7.3-8.38-5.49-5.23-10.37-4S2018,1054.13,2018.85,1057.56Z"/><path class="cls-5" d="M2693.29,471.2c-142.31,0-257.67,115.37-257.67,257.68A256.54,256.54,0,0,0,2491.43,889L2449,981.23,2556,947a256.49,256.49,0,0,0,137.28,39.59c142.32,0,257.68-115.37,257.68-257.68S2835.61,471.2,2693.29,471.2Z"/><path class="cls-4" d="M2429.14,998.84,2479,890.45a268.21,268.21,0,1,1,75.59,68.21Zm128.36-63.59,4.22,2.67a246.26,246.26,0,0,0,131.57,37.94c136.19,0,247-110.79,247-247s-110.79-247-247-247-247,110.79-247,247a244.31,244.31,0,0,0,53.49,153.49l4.09,5.15-35,76.11Z"/><path class="cls-15" d="M2654.9,825.51q-6.2,4-12.06,7.51A124.08,124.08,0,0,0,2813.56,718.1a124.91,124.91,0,0,0-1.6-20C2750.78,755,2698.08,797.74,2654.9,825.51Z"/><path class="cls-15" d="M2856.8,616.78c-15.26,6.8-36.09,13.31-52.05,14.22l16.33,7.87q-11.17,10.8-22,21A124.05,124.05,0,0,0,2572,757.76c-24.22,21.36-45.6,52-42.37,69.92a23.44,23.44,0,0,0,16.58,18.83,36.74,36.74,0,0,0,11.23,1.61c19.45,0,47.66-11.82,84.14-35.28,51.27-33,116-87.07,192.36-160.82l7.51,16.49C2842.71,652.57,2849.67,631.89,2856.8,616.78ZM2551.83,829a5.24,5.24,0,0,1-4.1-4.59c-1.89-10.47,9.49-32.35,31.21-50.15A123.75,123.75,0,0,0,2608,811.54C2570.6,832.1,2555.86,830.29,2551.83,829Z"/></g></svg>