<svg xmlns="http://www.w3.org/2000/svg" xmlns:xlink="http://www.w3.org/1999/xlink" viewBox="0 0 4680 3120"><defs><style>.cls-1{fill:#fff;}.cls-2{fill:#4f4f4f;}.cls-3{opacity:0.13;}.cls-4{fill:#1a1a1a;}.cls-5{fill:gray;}.cls-6{fill:#b3b3b3;}.cls-7{fill:#999;}.cls-8{fill:#333;}.cls-9{fill:#4d4d4d;}.cls-10{fill:#666;}.cls-11{fill:#ccc;}.cls-12{opacity:0.8;}.cls-13{fill:#EC221F;}.cls-14{mask:url(#mask);}.cls-15{opacity:0.5;}.cls-16{fill:#303030;}.cls-17{fill:#0e1d73;}.cls-18{opacity:0.3;}.cls-19{fill:#fcc0a9;}.cls-20{fill:#fc9a74;}.cls-21{opacity:0.15;}.cls-22{fill:#f2f2f2;}.cls-23{fill:#2291f2;}.cls-24{mask:url(#mask-2);}.cls-25{fill:#e38c74;}.cls-26{fill:#EC221F;}</style><mask id="mask" x="2776.93" y="1063.3" width="286.63" height="287.37" maskUnits="userSpaceOnUse"><path class="cls-1" d="M2879.71,1138.3c29,44.47,98,71.43,37.74,170.33l121.83,24.75s111.8-236.23-144.41-264.86S2879.71,1138.3,2879.71,1138.3Z"/></mask><mask id="mask-2" x="2641.52" y="959.54" width="257.31" height="220.21" maskUnits="userSpaceOnUse"><path class="cls-2" d="M2874.78,1018.71c-15.9-36.65-173.45-102.44-227.73-18.06-11.44,23-1.59,46.2-1.59,46.2,5.64-3.84,4.59-34.35,34.34-17.84,70.24-29.49,99.84,31.52,141.21,81.68-5.87,29.22-4.53,69.06-4.53,69.06,40.62-9,67.34-16,72.15-55.59h0C2893.3,1092.91,2885.38,1043.13,2874.78,1018.71Z"/></mask></defs><g id="_9" data-name="9"><rect class="cls-1" width="4680" height="3120"/><g class="cls-3"><rect class="cls-4" x="755.95" y="483.79" width="1754.01" height="49.49"/><path d="M2510.38,533.71H755.53V483.37H2510.38Zm-1754-.85H2509.54V484.22H756.38Z"/><rect class="cls-5" x="814.57" y="532.49" width="1643.15" height="1053.15"/><rect class="cls-4" x="755.95" y="1586.44" width="1754.01" height="49.49"/><path d="M2510.38,1636.35H755.53V1586H2510.38Zm-1754-.85H2509.54v-48.64H756.38Z"/><rect class="cls-4" x="902.31" y="654.04" width="358.31" height="39.59"/><path d="M1260.78,693.79H902.15V653.88h358.63Zm-358.31-.32h358V654.2h-358Z"/><rect class="cls-4" x="1442.95" y="654.04" width="358.31" height="39.59"/><path d="M1801.42,693.79H1442.79V653.88h358.63Zm-358.31-.32h358V654.2h-358Z"/><rect class="cls-4" x="1977.45" y="654.04" width="358.31" height="39.59"/><path d="M2335.91,693.79H1977.29V653.88h358.62Zm-358.31-.32h358V654.2h-358Z"/><path d="M1364.06,1462c2.11,0,3.85-2.06,4.48-3.92.42-1.23.87-4.46-1.33-4.46s-3.84,2.06-4.48,3.92c-.42,1.24-.86,4.46,1.33,4.46Z"/><path d="M1364.06,658.23c2.11,0,3.85-2.06,4.48-3.92.42-1.24.87-4.46-1.33-4.46s-3.84,2.06-4.48,3.92c-.42,1.23-.86,4.46,1.33,4.46Z"/><path d="M1886.79,1462c2.1,0,3.84-2.06,4.48-3.92.42-1.23.86-4.46-1.33-4.46s-3.85,2.06-4.48,3.92c-.42,1.24-.87,4.46,1.33,4.46Z"/><path d="M1886.79,658.23c2.1,0,3.84-2.06,4.48-3.92.42-1.24.86-4.46-1.33-4.46s-3.85,2.06-4.48,3.92c-.42,1.23-.87,4.46,1.33,4.46Z"/><path d="M881.07,756.3H2301.78c19.2,0,38.4.2,57.6,0h2.51c3.57,0,7.08-8.38,3.16-8.38H944.34c-19.2,0-38.4-.19-57.6,0h-2.51c-3.57,0-7.08,8.38-3.16,8.38Z"/><circle class="cls-6" cx="3117.81" cy="648.07" r="176.61" transform="translate(454.93 2394.44) rotate(-45)"/><path d="M3117.81,836.64c-104,0-188.57-84.59-188.57-188.57s84.59-188.57,188.57-188.57,188.57,84.59,188.57,188.57S3221.79,836.64,3117.81,836.64Zm0-353.23c-90.79,0-164.66,73.87-164.66,164.66S3027,812.73,3117.81,812.73s164.66-73.87,164.66-164.66S3208.6,483.41,3117.81,483.41Z"/><path d="M3180.75,710.58a11.85,11.85,0,0,1-6.17-1.72l-62.95-38.05a11.93,11.93,0,0,1-5.78-10.23v-142a12,12,0,0,1,23.91,0V653.84l57.18,34.56a12,12,0,0,1-6.19,22.18Z"/><rect x="685.09" y="2525.23" width="3309.81" height="32.54"/><rect class="cls-7" x="1857.53" y="2311.98" width="661.58" height="257.31"/><path d="M2535.14,2585.32H1841.49V2295.94h693.65Zm-661.57-32.07h629.5V2328h-629.5Z"/><rect class="cls-7" x="1857.47" y="2054.67" width="661.58" height="257.31"/><path d="M2535.09,2328H1841.44V2038.64h693.65Zm-661.58-32.08H2503V2070.71h-629.5Z"/><rect class="cls-7" x="3181.86" y="2311.98" width="661.58" height="257.31"/><path d="M3859.47,2585.32H3165.82V2295.94h693.65Zm-661.58-32.07H3827.4V2328H3197.89Z"/><rect class="cls-7" x="3181.8" y="2054.67" width="661.58" height="257.31"/><path d="M3859.41,2328H3165.76V2038.64h693.65Zm-661.57-32.08h629.5V2070.71h-629.5Z"/><rect class="cls-7" x="2520.22" y="2311.98" width="661.58" height="257.31"/><path d="M3197.84,2585.32H2504.19V2295.94h693.65Zm-661.58-32.07h629.5V2328h-629.5Z"/><rect class="cls-7" x="2520.17" y="2054.67" width="661.58" height="257.31"/><path d="M3197.78,2328H2504.13V2038.64h693.65Zm-661.58-32.08h629.51V2070.71H2536.2Z"/><rect class="cls-8" x="3184.1" y="1785.68" width="99.01" height="253.98"/><rect class="cls-5" x="3204.15" y="1814.63" width="58.91" height="128.07"/><circle class="cls-5" cx="3233.61" cy="1984.39" r="21.38" transform="translate(-456.07 2867.72) rotate(-45)"/><rect class="cls-8" x="3080.37" y="1785.68" width="99.01" height="253.98"/><rect class="cls-5" x="3100.42" y="1814.63" width="58.91" height="128.07"/><circle class="cls-5" cx="3129.88" cy="1984.39" r="21.38" transform="translate(-486.45 2794.37) rotate(-45)"/><rect class="cls-8" x="3592.78" y="2014.8" width="99.01" height="253.98" transform="translate(1500.5 5784.07) rotate(-90)"/><rect class="cls-5" x="3578.83" y="2077.75" width="58.91" height="128.07" transform="translate(1466.5 5750.07) rotate(-90)"/><circle class="cls-5" cx="3714" cy="2141.78" r="21.38" transform="translate(-426.66 3253.51) rotate(-45)"/><rect class="cls-8" x="3592.78" y="2118.53" width="99.01" height="253.98" transform="translate(1396.77 5887.8) rotate(-90)"/><rect class="cls-5" x="3578.83" y="2181.48" width="58.91" height="128.07" transform="translate(1362.77 5853.8) rotate(-90)"/><circle class="cls-5" cx="3714" cy="2245.52" r="21.38" transform="translate(-500.01 3283.89) rotate(-45)"/><rect class="cls-9" x="2586.72" y="2107.41" width="95.67" height="188.05"/><rect class="cls-7" x="2586.72" y="2153.05" width="95.67" height="21.99"/><rect class="cls-7" x="2586.72" y="2227.83" width="95.67" height="21.99"/><rect class="cls-9" x="1968.13" y="2411.27" width="95.67" height="188.05" transform="translate(-489.32 4521.25) rotate(-90)"/><rect class="cls-7" x="1930.74" y="2494.29" width="95.67" height="21.99" transform="translate(-526.71 4483.87) rotate(-90)"/><rect class="cls-7" x="2005.52" y="2494.29" width="95.67" height="21.99" transform="translate(-451.93 4558.64) rotate(-90)"/><rect class="cls-9" x="2691.19" y="2107.41" width="74.78" height="188.05"/><rect class="cls-7" x="2683.54" y="2164.28" width="90.08" height="21.99" transform="translate(553.31 4903.86) rotate(-90)"/><rect class="cls-7" x="2709.52" y="2241.58" width="38.12" height="21.99" transform="translate(4981.16 -476.01) rotate(90)"/><rect class="cls-9" x="3235.45" y="2363.15" width="95.67" height="188.05"/><rect class="cls-7" x="3235.45" y="2408.79" width="95.67" height="21.99"/><rect class="cls-7" x="3235.45" y="2483.57" width="95.67" height="21.99"/><rect class="cls-9" x="3339.92" y="2363.15" width="74.78" height="188.05"/><rect class="cls-7" x="3332.27" y="2420.01" width="90.08" height="21.99" transform="translate(946.3 5808.32) rotate(-90)"/><rect class="cls-7" x="3358.25" y="2497.31" width="38.12" height="21.99" transform="translate(5885.62 -869) rotate(90)"/><rect class="cls-9" x="2929.65" y="2364.62" width="74.78" height="188.05" transform="translate(5425.68 -508.39) rotate(90)"/><rect class="cls-7" x="2948.16" y="2447.65" width="90.08" height="21.99"/><rect class="cls-7" x="2896.84" y="2447.65" width="38.12" height="21.99" transform="translate(5831.8 4917.29) rotate(180)"/><rect class="cls-10" x="2886.39" y="2496.03" width="217.74" height="56.63"/><rect class="cls-11" x="2899.22" y="2513.35" width="38.12" height="21.99" transform="translate(5442.63 -393.93) rotate(90)"/><rect class="cls-11" x="2932.21" y="2513.35" width="38.12" height="21.99" transform="translate(5475.62 -426.92) rotate(90)"/><rect class="cls-11" x="2965.2" y="2513.35" width="38.12" height="21.99" transform="translate(5508.61 -459.91) rotate(90)"/><rect class="cls-11" x="3000.39" y="2513.35" width="38.12" height="21.99" transform="translate(5543.8 -495.1) rotate(90)"/><rect class="cls-11" x="3037.05" y="2513.35" width="38.12" height="21.99" transform="translate(5580.46 -531.76) rotate(90)"/><rect class="cls-11" x="2929.28" y="2387.44" width="155.06" height="33.82"/><rect class="cls-9" x="3495.14" y="2365.92" width="74.78" height="188.05" transform="translate(7065.07 4919.88) rotate(180)"/><rect class="cls-7" x="3487.49" y="2475.11" width="90.08" height="21.99" transform="translate(6018.64 -1046.43) rotate(90)"/><rect class="cls-7" x="3513.47" y="2397.81" width="38.12" height="21.99" transform="translate(1123.73 5941.34) rotate(-90)"/><rect class="cls-10" x="3357.96" y="2417.85" width="217.74" height="56.63" transform="translate(5913 -1020.65) rotate(90)"/><rect class="cls-11" x="3447.76" y="2358.2" width="38.12" height="21.99" transform="translate(6933.65 4738.39) rotate(180)"/><rect class="cls-11" x="3447.76" y="2391.19" width="38.12" height="21.99" transform="translate(6933.65 4804.37) rotate(180)"/><rect class="cls-11" x="3447.76" y="2424.18" width="38.12" height="21.99" transform="translate(6933.65 4870.35) rotate(180)"/><rect class="cls-11" x="3447.76" y="2459.37" width="38.12" height="21.99" transform="translate(6933.65 4940.73) rotate(180)"/><rect class="cls-11" x="3447.76" y="2496.02" width="38.12" height="21.99" transform="translate(6933.65 5014.04) rotate(180)"/><rect class="cls-11" x="3509.3" y="2461.62" width="155.06" height="33.82" transform="translate(6065.35 -1108.31) rotate(90)"/><rect class="cls-9" x="2311.8" y="2107.41" width="74.78" height="188.05" transform="translate(4550.63 -147.75) rotate(90)"/><rect class="cls-7" x="2330.31" y="2190.44" width="90.08" height="21.99"/><rect class="cls-7" x="2278.99" y="2190.44" width="38.12" height="21.99" transform="translate(4596.11 4402.88) rotate(180)"/><rect class="cls-10" x="2268.54" y="2238.83" width="217.74" height="56.63"/><rect class="cls-11" x="2281.37" y="2256.15" width="38.12" height="21.99" transform="translate(4567.58 -33.29) rotate(90)"/><rect class="cls-11" x="2314.37" y="2256.15" width="38.12" height="21.99" transform="translate(4600.57 -66.28) rotate(90)"/><rect class="cls-11" x="2347.36" y="2256.15" width="38.12" height="21.99" transform="translate(4633.56 -99.27) rotate(90)"/><rect class="cls-11" x="2382.55" y="2256.15" width="38.12" height="21.99" transform="translate(4668.75 -134.46) rotate(90)"/><rect class="cls-11" x="2419.2" y="2256.15" width="38.12" height="21.99" transform="translate(4705.41 -171.12) rotate(90)"/><rect class="cls-11" x="2311.43" y="2130.23" width="155.06" height="33.82"/><rect class="cls-9" x="2973.27" y="2107.41" width="58.83" height="188.05"/><rect class="cls-7" x="2973.27" y="2153.05" width="58.83" height="21.99"/><rect class="cls-7" x="2973.27" y="2227.83" width="58.83" height="21.99"/><g class="cls-12"><rect class="cls-9" x="2905.54" y="2107.41" width="58.83" height="188.05"/><rect class="cls-7" x="2905.54" y="2153.05" width="58.83" height="21.99"/><rect class="cls-7" x="2905.54" y="2227.83" width="58.83" height="21.99"/></g><rect class="cls-11" x="1947.8" y="2416.17" width="189.7" height="41.37"/><path class="cls-10" d="M3418.58,1786.19c4.76,34.65-13.16,32.33,5.61,59.73s30.08,25.24,48.31,35.61,52-.64,57.16-15.06-7.37-16.7-7.18-37.58-39.9-39.27-60-42.22S3418.58,1786.19,3418.58,1786.19Z"/><path class="cls-8" d="M3444,1804.89a306.4,306.4,0,0,1,36.13,29.33,214.35,214.35,0,0,1,30,35.8c8.59,13,16.15,27,20.62,42.07a143.39,143.39,0,0,1,6.29,46.28.21.21,0,0,1-.23.21.21.21,0,0,1-.21-.19h0q-.45-2.9-.81-5.76l-.38-2.87c-.13-1-.34-1.9-.51-2.85l-1-5.69c-.33-1.89-.81-3.76-1.21-5.64l-.63-2.81c-.2-.93-.38-1.87-.65-2.79l-1.52-5.55-.74-2.77-.88-2.73-1.78-5.45-.44-1.37-.51-1.34-1-2.68-2-5.37c-1.52-3.5-2.95-7-4.54-10.53l-2.51-5.16-1.26-2.58-.63-1.29-.7-1.25-2.85-5c-1-1.65-1.83-3.38-2.92-5a211.57,211.57,0,0,0-28.56-36.16,304,304,0,0,0-34.8-30.55.21.21,0,0,1-.05-.31A.22.22,0,0,1,3444,1804.89Z"/><path class="cls-8" d="M3431.54,1828.06c5.18,0,10.31.14,15.38-.1a75,75,0,0,0,7.53-.71,33.27,33.27,0,0,0,7.15-1.78,14.18,14.18,0,0,0,5.8-3.78,10.73,10.73,0,0,0,1.78-2.89,14.86,14.86,0,0,0,.82-3.42,26.14,26.14,0,0,0-.46-7.39c-.42-2.5-1.11-5-1.74-7.49a46.37,46.37,0,0,1,3.1,7.15,23.74,23.74,0,0,1,1.32,7.88,14.36,14.36,0,0,1-.7,4.12,13.33,13.33,0,0,1-2,3.76,16.62,16.62,0,0,1-6.86,4.72c-5.14,1.88-10.48,2.19-15.68,2A79.54,79.54,0,0,1,3431.54,1828.06Z"/><path class="cls-8" d="M3453,1852.52c5.63-1.06,11.28-1.82,16.84-2.8,2.78-.53,5.55-1,8.22-1.77a28.57,28.57,0,0,0,7.52-3,15.63,15.63,0,0,0,5.54-5.45,31,31,0,0,0,3.15-7.52c1.53-5.37,2.46-11,3.68-16.6a87,87,0,0,1-1.53,17.14,29.69,29.69,0,0,1-3,8.36,18.12,18.12,0,0,1-6.39,6.51,29.89,29.89,0,0,1-8.33,3.16,68.75,68.75,0,0,1-8.57,1.36A142.49,142.49,0,0,1,3453,1852.52Z"/><path class="cls-8" d="M3481.11,1864.45a17.14,17.14,0,0,1,5.75-1.4,52.58,52.58,0,0,1,5.88-.06c3.82.08,7.71.29,10.59-1.36s4.47-5.06,5.44-8.63a102.44,102.44,0,0,0,2.08-11.31,37.82,37.82,0,0,1,.09,11.78,19.93,19.93,0,0,1-1.79,5.88,11.57,11.57,0,0,1-4.43,4.76,13.75,13.75,0,0,1-6.2,1.53,37.48,37.48,0,0,1-6-.45C3488.71,1864.68,3485,1864,3481.11,1864.45Z"/><path class="cls-10" d="M3551.28,1731.28c-10.79,26.64-6.24,27.59-15.82,47.33s3,35.63,1.88,64.06-11.86,50.94,9.95,57.34,29.67-1.28,41.55-16.92,30.52-73.57,13.91-114.28-39.44-57.29-39.44-57.29Z"/><path class="cls-8" d="M3551.06,1990.33c.78-9.91,1.71-19.79,2.73-29.66l1.53-14.8,1.59-14.79,1.67-14.78,1.77-14.76q1.88-14.76,3.38-29.55c.52-4.93,1-9.86,1.43-14.79s.88-9.87,1.21-14.82c.76-9.87,1.31-19.77,1.58-29.66.09-2.47.15-5,.16-7.42s0-5,0-7.42c-.05-4.93-.29-9.91-.41-14.87-.26-9.92-.58-19.84-.56-29.78a.22.22,0,0,1,.22-.22.21.21,0,0,1,.22.21h0c.28,9.91.9,19.82,1.46,29.72.27,5,.65,9.89.86,14.87.14,2.49.2,5,.24,7.47s.08,5,.07,7.46c-.05,10-.38,19.89-.92,29.82-.22,5-.59,9.92-.87,14.88s-.7,9.91-1.1,14.87c-1.6,19.8-3.21,39.62-6,59.3-1.35,9.84-2.81,19.67-4.44,29.46-.82,4.9-1.65,9.8-2.55,14.69s-1.83,9.76-2.86,14.63a.22.22,0,0,1-.44-.07Z"/><path class="cls-8" d="M3549.84,1763.66c2.73,3.06,5.39,6.12,8.3,8.81a31.71,31.71,0,0,0,4.59,3.6,14.5,14.5,0,0,0,5.08,2.16c3.52.8,7.1-.73,10-3.24a57.06,57.06,0,0,0,8-9,31.42,31.42,0,0,1-6.46,10.59,15.8,15.8,0,0,1-5.36,3.75,11.93,11.93,0,0,1-6.74.65,16.34,16.34,0,0,1-6-2.72,27,27,0,0,1-4.69-4.28A44.41,44.41,0,0,1,3549.84,1763.66Z"/><path class="cls-8" d="M3597.15,1789.54A129.65,129.65,0,0,1,3586.3,1805a53.71,53.71,0,0,1-6.71,6.87,24,24,0,0,1-8.63,4.86,14.63,14.63,0,0,1-10.11-.82,24.64,24.64,0,0,1-7.71-6.1,46.67,46.67,0,0,1-3-3.79c-.87-1.34-1.76-2.65-2.53-4a71.83,71.83,0,0,1-4.16-8.5c1.77,2.61,3.44,5.26,5.33,7.74a56.38,56.38,0,0,0,6,7.06,24.19,24.19,0,0,0,7.19,5.17,12,12,0,0,0,8.25.53,21.81,21.81,0,0,0,7.7-4.2,65,65,0,0,0,6.75-6.25C3588.93,1799.06,3592.92,1794.21,3597.15,1789.54Z"/><path class="cls-8" d="M3547.29,1838.3c2.45,3.91,5,7.74,8.2,10.74s7.23,4.83,11.43,4.43,8.29-2.26,12.11-4.57,7.47-5.14,11.18-7.9a54.86,54.86,0,0,1-9.93,9.74,34.37,34.37,0,0,1-6.09,3.68,21.45,21.45,0,0,1-7.08,1.89,15.24,15.24,0,0,1-7.35-1.31,18,18,0,0,1-5.85-4.4A33,33,0,0,1,3547.29,1838.3Z"/><path class="cls-8" d="M3588.28,1871.05c-3.53,2.79-6.83,5.73-10.33,8.55a47.58,47.58,0,0,1-11.52,7.42,14.1,14.1,0,0,1-7.27,1,11.29,11.29,0,0,1-6.35-3.74,21.21,21.21,0,0,1-3.58-6,35.9,35.9,0,0,1-1.94-6.5c1.06,2,2,4,3.19,5.86a23.88,23.88,0,0,0,3.92,5.06,9.54,9.54,0,0,0,5.17,2.62,11.77,11.77,0,0,0,5.82-1,34.6,34.6,0,0,0,5.69-2.95c1.88-1.12,3.69-2.39,5.56-3.6A74.86,74.86,0,0,1,3588.28,1871.05Z"/><path class="cls-10" d="M3673.08,1821.16c-16.22,7.28-16.35,20.73-38.8,23.13s-39.37,35.26-39.74,48.65-3.73,43.44,29.29,33,33.5-52.43,40.57-59.74S3673.08,1821.16,3673.08,1821.16Z"/><path class="cls-8" d="M3598.85,1972.74c-.5-11.37.92-22.73,3.2-33.88a148.66,148.66,0,0,1,11.25-32.23c.62-1.29,1.15-2.61,1.85-3.86l2-3.77c1.27-2.55,2.86-4.93,4.33-7.38,3-4.82,6.24-9.43,9.46-14.08s6.66-9.14,10.22-13.54c1.77-2.21,3.64-4.34,5.55-6.43,1-1,2-2,3-3a16.66,16.66,0,0,1,3.47-2.58.23.23,0,0,1,.3.11.21.21,0,0,1-.09.28l-.06,0a16.49,16.49,0,0,0-3.13,2.65c-1,1-1.9,2.06-2.81,3.12-1.79,2.16-3.52,4.37-5.16,6.64-3.31,4.54-6.43,9.22-9.46,14s-6.07,9.49-8.83,14.34c-1.34,2.45-2.8,4.82-3.94,7.37l-1.82,3.75c-.63,1.25-1.1,2.56-1.66,3.84l-1.6,3.85-1.42,3.93c-.46,1.32-1,2.62-1.37,4l-1.22,4c-1.65,5.32-3.09,10.7-4.54,16.08-.68,2.71-1.42,5.4-2,8.13s-1.23,5.45-1.87,8.18c-1.15,5.48-2.25,11-3.22,16.56h0a.22.22,0,0,1-.26.18A.22.22,0,0,1,3598.85,1972.74Z"/><path class="cls-8" d="M3632.31,1852.22c1.16,3.06,2,6.17,3,9.16a30.77,30.77,0,0,0,1.74,4.24,6.53,6.53,0,0,0,2.57,2.92,7,7,0,0,0,3.89.6,36,36,0,0,0,4.54-.74c3.07-.71,6.18-1.59,9.39-2.22a48.63,48.63,0,0,1-8.76,4.35,23.43,23.43,0,0,1-4.89,1.3,9.11,9.11,0,0,1-5.52-.78,7.85,7.85,0,0,1-2.25-1.9,11.34,11.34,0,0,1-1.39-2.35,21.69,21.69,0,0,1-1.46-4.85A51.35,51.35,0,0,1,3632.31,1852.22Z"/><path class="cls-8" d="M3611.19,1875.24a96.07,96.07,0,0,1,4,11c.61,1.83,1.16,3.67,1.85,5.43a25.41,25.41,0,0,0,2.34,5,11.33,11.33,0,0,0,1.55,2,7.19,7.19,0,0,0,2,1.32,8,8,0,0,0,4.91.17c3.52-.91,6.91-2.91,10.32-4.81a33.13,33.13,0,0,1-4.39,4,20.7,20.7,0,0,1-5.29,3,9.76,9.76,0,0,1-6.53.23,9.1,9.1,0,0,1-2.9-1.83,13.21,13.21,0,0,1-2-2.54c-2.17-3.64-3.1-7.53-3.91-11.36S3611.69,1879.14,3611.19,1875.24Z"/><path class="cls-8" d="M3607.36,1936.19h-88.73a6.87,6.87,0,0,0-6.79,7.89l13.18,87.19h-14.37l5.84,9.61h93l5.85-9.61H3601l13.18-87.19A6.87,6.87,0,0,0,3607.36,1936.19Z"/></g><path class="cls-13" d="M1180,954.09a157,157,0,0,0-78.66,21L1180,1111.86l-156.83-17.27a161.37,161.37,0,0,0-.94,17.27A157.77,157.77,0,1,0,1180,954.09Z"/><path class="cls-5" d="M1070.67,953.29a157.82,157.82,0,0,0-78.16,119.53l156.83,17.26Z"/><rect class="cls-5" x="1013.09" y="1351.57" width="318.63" height="26.12"/><rect class="cls-9" x="1013.09" y="1305.37" width="166.93" height="26.12"/><rect class="cls-5" x="1013.09" y="1399.99" width="318.63" height="26.12"/><path class="cls-4" d="M2879.71,1138.3c29,44.47,98,71.43,37.74,170.33l121.83,24.75s111.8-236.23-144.41-264.86S2879.71,1138.3,2879.71,1138.3Z"/><g class="cls-14"><g class="cls-15"><path class="cls-1" d="M2936.11,1331.05l-1.13-.7c28.62-46.09,37.77-84.1,28-116.21-15.86-51.93-80.06-80.79-142.16-108.71l-9-4,.55-1.21,9,4c62.36,28,126.85,57,142.88,109.53C2974.14,1246.25,2964.94,1284.62,2936.11,1331.05Z"/><path class="cls-1" d="M2980.53,1346.46l-1.32-.09c1.36-20.77,3.5-40.19,5.39-57.33,5.86-53.16,10.1-91.57-11.72-123-22.84-32.86-73.4-56.3-169.05-78.36l.3-1.29c96,22.14,146.8,45.74,169.84,78.9,22.1,31.8,17.84,70.42,12,123.87C2984,1306.31,2981.89,1325.71,2980.53,1346.46Z"/><path class="cls-1" d="M3013.27,1350.67l-1.33,0c.57-35.81,2.87-65.52,4.9-91.73,4.86-62.87,7.54-97.5-21.52-121.44-30.33-25-95.85-37.36-214-52.74l.18-1.31c118.36,15.4,184.05,27.84,214.63,53,29.59,24.38,26.73,61.34,22,122.58C3016.14,1285.22,3013.84,1314.9,3013.27,1350.67Z"/></g></g><path class="cls-4" d="M2881.53,1141c5,6.09,10.1,12.11,14.85,18.44a207.16,207.16,0,0,1,13.23,19.79,150.09,150.09,0,0,1,10.47,21.52,116.17,116.17,0,0,1,6.35,23.26,91.69,91.69,0,0,1,.55,24.21,83.83,83.83,0,0,1-6.28,23.36,91.22,91.22,0,0,1-12.49,20.48l-3.83,4.58-4.15,4.27c-.71.7-1.38,1.42-2.1,2.1l-2.23,2-4.48,3.87,3.91-4.44,2-2.18c.63-.75,1.22-1.54,1.83-2.31l3.66-4.59,3.32-4.81a55.07,55.07,0,0,0,3.12-4.92,56.07,56.07,0,0,0,2.86-5.06c.84-1.74,1.76-3.44,2.58-5.18l2.19-5.34a88.4,88.4,0,0,0,4.33-45.19,116.74,116.74,0,0,0-5.81-22.32,173.41,173.41,0,0,0-9.39-21.29c-3.61-6.91-7.55-13.67-11.74-20.3S2885.6,1147.76,2881.53,1141Z"/><path class="cls-4" d="M2807.63,1181.86c4.08.52,8.09,1.14,12.12,1.53s8,.64,12,.68c7.94,0,15.8-1,22.94-3.77a45.27,45.27,0,0,0,18.44-13.46c5.05-6,8.83-13.17,12.28-20.62a56.88,56.88,0,0,1-9,23.12,43.73,43.73,0,0,1-8.64,9.45,42,42,0,0,1-11.17,6.46,53.56,53.56,0,0,1-25.09,2.94,78.45,78.45,0,0,1-12.25-2.25A88.76,88.76,0,0,1,2807.63,1181.86Z"/><path class="cls-4" d="M2845.13,1068.8a81.28,81.28,0,0,1,18.06-5.65,137,137,0,0,1,18.74-2.13c6.23-.36,12.4-.41,18.43-.94a50.88,50.88,0,0,0,17.65-4.44,27.57,27.57,0,0,1-7.83,5.49,43.4,43.4,0,0,1-9.17,3.08,121.46,121.46,0,0,1-18.79,2.11c-6.21.34-12.36.53-18.5,1S2851.44,1068.3,2845.13,1068.8Z"/><rect class="cls-16" x="2771.64" y="2045.81" width="33.72" height="487.12"/><path class="cls-17" d="M2976.82,2654c0-104-84.31-124.91-188.32-124.91S2600.19,2550,2600.19,2654"/><path class="cls-17" d="M2721.35,1973.27l187.73-587a52.84,52.84,0,0,1,52.85-52.84h310.33a52.84,52.84,0,0,1,52.85,52.84l-208,650.46h-.45a46.85,46.85,0,0,1-46.39,40.35h-563.5a46.84,46.84,0,0,1-46.84-46.84v-56.93Z"/><g class="cls-18"><path d="M2721.73,1972.06h275.4a46.83,46.83,0,0,0,46.39-40.36h.45l191.35-598.32H2961.93a52.83,52.83,0,0,0-52.84,52.85Z"/></g><g class="cls-18"><path d="M2942.71,1972.84l-7.71-1.57c41.85-205.57,95.14-368.5,132.48-469,40.47-108.94,71.49-170.1,71.8-170.71l7,3.58c-.31.6-31.17,61.46-71.5,170C3037.57,1605.38,2984.45,1767.85,2942.71,1972.84Z"/><path d="M2825.34,1973l-7.64-1.89c82.41-334.66,204.86-636.2,206.09-639.21l7.28,3C3029.85,1337.87,2907.61,1638.91,2825.34,1973Z"/><path d="M3253.67,1608.12,3161,1566.2c-36.58-4-97.92-7.54-108.79-.54l-1.5,1-1.71-.49c-34.51-9.89-103.36-4.55-104.05-4.5l-.6,0-.58-.13c-19-4.29-71.68-13-86.78-2.16l-4.6-6.39c20.23-14.57,82.86-1.4,92.53.75,7.25-.55,69.83-5,104.69,4.39,20.28-9.44,103.21-.75,112.87.3l.62.06.57.26,93.21,42.18Z"/><path d="M3184.19,1825.65l-93.32-40c-6.82-.8-73.9-8.4-105.84-4.46l-.68.08-.67-.15c-54.86-12.45-106.3-6.6-106.81-6.54l-.45,0-.46,0c-.67-.08-67.17-7.58-88.29-1.6l-2.15-7.57c21.92-6.2,84.49.59,90.9,1.3,5.35-.56,55.19-5.34,108.34,6.59,34.69-4,104.62,4.24,107.6,4.6l.56.07.52.22,93.85,40.18Z"/></g><path class="cls-19" d="M2185.79,2559.32c35.87,16.91,52.94,57.63,52.94,57.63s54.13-128.49,99.1-153.63c-19.25-71.72-13.1-169.28,7-215l-68.51-14.15c6.63,26.52-8,161.77-47.73,258.57C2218.23,2517.9,2202.44,2540.08,2185.79,2559.32Z"/><path class="cls-13" d="M2129.12,2651.87c61,9.28,119.34-13.26,155.14-39.78,8.28-6.14,18.53-11.39,28.91-16.71,2.93,19.94-7.69,51.19-7.69,51.19h15.91c-1.92-6.69.89-33.62,9.16-60.4,27.5-15.65,48.25-35.71,24-79.72-6.91-12.53-12.44-27.19-16.71-43.13-45,25.14-99.1,153.63-99.1,153.63s-17.07-40.72-52.94-57.63C2138.36,2614.15,2084,2645,2129.12,2651.87Z"/><path class="cls-19" d="M2826.9,1273S2796,1222.7,2796,1180.87c0,0-46.91,35.59-63.73,31.47s36.66,67.91,23.4,99.84c-10.17,24.5,35.24,50.5,48.5,28S2851.06,1316.63,2826.9,1273Z"/><path class="cls-20" d="M2793.26,1348.15c3.76.15,7.56-2.18,10.95-7.93,13.26-22.44,46.85-23.6,22.69-67.23,0,0-20-54.28-30.65-86.73,0,0-10.56,18.7-16.79,26.81,10.89,30.38,35.29,69.74,35.29,69.74C2838.21,1325.18,2807.22,1327.5,2793.26,1348.15Z"/><path class="cls-13" d="M2633.09,1365.66c-32.93,26.52-64.76,326-137.69,280.35s-124.64,49.82-62.32,75c47.48,19.19,170.69,37.65,202.29-58.33s87.66-271.85-2.28-297"/><g class="cls-21"><path d="M2433.08,1721c47.48,19.19,170.69,37.65,202.29-58.32,17.62-53.47,42.81-131.75,46.11-195-10.46,51.79-30.66,106.75-45.89,147.39-35.79,95.54-174.76,77.68-229.3,58.58C2402.25,1691.92,2409.51,1711.5,2433.08,1721Z"/></g><path class="cls-19" d="M2468.88,1662.7c-62.32-45.1-76.9-53.19-104.75-61.8s-70.46-6.6-84.86,45.11,26.52,69.71,45.08,41.87,23.87-23.87,94.15-2.66S2468.88,1662.7,2468.88,1662.7Z"/><path class="cls-20" d="M2324.35,1687.88c18.57-27.85,23.87-23.87,94.15-2.66s50.38-22.51,50.38-22.51l-4.73-3.43c-2.23,10.38-13.28,19.28-52.28,5.53C2337,1638.41,2335.6,1651.79,2324.35,1687.88Z"/><path class="cls-20" d="M2311.85,1698.88c5.64-.36,10.25-3.77,12.5-11A29.88,29.88,0,0,1,2311.85,1698.88Z"/><path class="cls-13" d="M2996.89,2035.84a28.59,28.59,0,0,1-19.16-6.79c-4.14-3.53-9.46-7.62-15.63-12.34-57.36-44-191.68-147-174.81-424.23,5.47-89.92,26.66-191.72,63-302.56l.15-.47.48.13c10.49,2.91,24.61,4.45,45.77,5l0,1c-20.93-.54-35-2-45.54-4.9-36.21,110.57-57.33,212.12-62.78,301.84-16.85,276.71,117.17,379.46,174.4,423.33,6.18,4.74,11.51,8.83,15.67,12.38,6.17,5.27,14,7.38,23.17,6.26,64.22-7.82,180.44-169,181.6-170.59l.84.6c-.29.41-29.63,41.22-66.57,82.47-49.64,55.45-88.58,85.24-115.75,88.54A39.77,39.77,0,0,1,2996.89,2035.84Z"/><path class="cls-22" d="M2826.9,1273s-56.94,64.24-71.19,39.19c-71.9,33-60.82,36.83-77.91,38s44.35,380.12-32.56,425.2c-35,20.53,269.18,4,293-45.08s6.63-387.19-9.28-407.08S2838.1,1295.38,2826.9,1273Z"/><polygon class="cls-17" points="2815.08 1354.9 2778.3 1313.21 2780.62 1311.15 2814.56 1349.61 2849.43 1289.3 2852.11 1290.86 2815.08 1354.9"/><path class="cls-17" d="M2710.36,1784.26l-2.61-1.69c43.47-66.83,66.88-418.09,69.84-465.27l-29.18,39.3-2.3-38.41,3.1-.19,1.78,29.91,30.32-40.82-.3,5.18c-.06,1-6,101-17.53,208.51C2747.92,1665.35,2730,1754,2710.36,1784.26Z"/><path class="cls-13" d="M2732.31,1325.69c-7.51,65.61.45,571.69-140.11,620.75,0,0-47.73-78.12-58.34-160.39,53-54.42,210.39,108.68,99.23-420.39Z"/><path class="cls-20" d="M2716.55,1600.9c12.13-126.45,27.72-253.21,31.11-282.8l-50.72,21.84c-7.55,27.4-15.19,53.57-24.74,65.06,22.1,25.63,31.78,35.3,23,42.43C2681.84,1458.26,2669.72,1453.61,2716.55,1600.9Z"/><path class="cls-19" d="M2332,2559.32c35.87,16.91,52.94,57.63,52.94,57.63s54.12-128.49,99.1-153.63c-19.25-71.72-13.1-169.28,7-215l-68.51-14.15c6.63,26.52-7.95,161.77-47.73,258.57C2364.4,2517.9,2348.61,2540.08,2332,2559.32Z"/><path class="cls-20" d="M2419.22,2314.79c15.59,4.1,37.66,10,54.51,14.83a339,339,0,0,1,8.66-55.39l-52-25.46-6.56,13.11C2423.43,2276.12,2421.9,2294.31,2419.22,2314.79Z"/><path class="cls-13" d="M2984.4,2004.81c-278.46-38.45-419.93-59.58-439.82,305.07-162.41-26.89-305.84-15.59-305.84-15.59s33.38-528.9,167.52-532.1c161.39-3.86,516.71,1.45,516.71,1.45Z"/><g class="cls-21"><path d="M2504.71,2304c6,1.88,33.22,3.85,39.87,5.92,19.89-364.65,161.36-343.52,439.82-305.07L2861.46,1904C2605.36,1879,2500.91,1920.81,2504.71,2304Z"/></g><path class="cls-13" d="M3183.59,1864.23s-151.16,210.84-205.53,164.43-308.95-184.32-127.29-738.58c62.32,17.24,228.07-22.54,184.31,72.93s-169.72,151.16,148.51,495.92"/><path class="cls-20" d="M2787.81,1592.52c27-47.19,88.48-131.66,101.65-142.88,16.6-14.14-24.55-27.85-28.52-36.69s64.53-52.15,56.57-60.7c-6.89-7.39-12.12-25.37-20.85-57.16-17.68-.46-33.75-1.65-45.89-5C2811.8,1409,2792.9,1508.73,2787.81,1592.52Z"/><path class="cls-19" d="M2696.07,1627.76s-115.29-38.31-131.71-43.31c-61-18.56-115.34,23.11-151.17,43.31-37.13,21-31,78.51-15.06,83.82s113.19-22.29,153-63.66c123.75,49.68,145,53.22,145,53.22Z"/><path class="cls-20" d="M2412.58,1711.52c32.83-4.4,105.49-29.25,138.52-63.61,123.75,49.69,145,53.23,145,53.23v-28.76s-33.24,5.85-164-43.83C2505,1655.24,2451.56,1691,2412.58,1711.52Z"/><path class="cls-13" d="M3031.19,1311.74c49.43,45.23,47.65,92.58-37.21,217.78s-118,227.31-153.82,224.66-175-34.48-193.59-33.15c13.26-90.17,39.78-120.13,39.78-120.13s105,53.83,128.76,16.7S2993.31,1277.07,3031.19,1311.74Z"/><g class="cls-21"><path d="M2646.57,1721c18.56-1.33,157.79,30.49,193.59,33.15s69-99.45,153.82-224.66c21.42-31.62,37.55-58.26,48.91-81.17-9.93,11.8-21.19,24.43-33.89,38-103.17,110.61-146.25,233.29-181.21,225.13-25.74-6-117.21-28.76-171.12-41A466.87,466.87,0,0,0,2646.57,1721Z"/></g><path class="cls-13" d="M2275.29,2651.87c61,9.28,119.34-13.26,155.14-39.78,8.28-6.14,18.53-11.39,28.91-16.71,2.93,19.94-7.69,51.19-7.69,51.19h15.91c-1.92-6.69.89-33.62,9.16-60.4,27.5-15.65,48.25-35.71,24-79.72-6.91-12.53-12.44-27.19-16.71-43.13-45,25.14-99.1,153.63-99.1,153.63s-17.07-40.72-52.94-57.63C2284.53,2614.15,2230.13,2645,2275.29,2651.87Z"/><path class="cls-20" d="M2419.22,2314.79c-126.34-33.23-102.26-30.16,54.51,14.83"/><path class="cls-6" d="M1951.63,1490.77h297.73a38.74,38.74,0,0,1,32.59,17.79l135.75,211.16h178.12a18.12,18.12,0,0,1,18.12,18.12v19H2099.46L1941,1510.3A12.67,12.67,0,0,1,1951.63,1490.77Z"/><g class="cls-21"><path d="M2255.17,1510.3l158.49,246.55h200.28v-19a18.11,18.11,0,0,0-18.11-18.12H2417.69L2282,1508.56a38.69,38.69,0,0,0-22.07-16.33A12.69,12.69,0,0,0,2255.17,1510.3Z"/></g><rect class="cls-5" x="2045.69" y="1783.02" width="31.02" height="877.48"/><rect class="cls-8" x="1640.94" y="1757.17" width="1007.15" height="51.7"/><rect class="cls-5" x="2529.76" y="1783.02" width="31.02" height="877.48"/><rect class="cls-5" x="2858.6" y="1783.02" width="31.02" height="877.48"/><rect class="cls-5" x="1716.84" y="1774.42" width="31.02" height="877.48"/><rect x="2611.57" y="1757.17" width="365.97" height="51.7"/><polygon points="2792.46 1641.68 2775.9 1527.95 2747.68 1509.84 2751.59 1503.75 2782.59 1523.64 2799.63 1640.64 2792.46 1641.68"/><path class="cls-22" d="M2837.2,1755.79h-48.39a11.89,11.89,0,0,1-11.85-11l-12.41-159.58h96.91l-12.41,159.58A11.89,11.89,0,0,1,2837.2,1755.79Z"/><rect class="cls-23" x="2755.71" y="1576.63" width="114.59" height="15.47"/><rect class="cls-23" x="2768.97" y="1569.69" width="88.07" height="20.2"/><path class="cls-13" d="M1823.92,1746.08a8.8,8.8,0,0,1-8.68-7.45l-31.61-204.46a8.79,8.79,0,0,1,17.37-2.69l31.62,204.46a8.79,8.79,0,0,1-7.35,10A8.88,8.88,0,0,1,1823.92,1746.08Z"/><path class="cls-13" d="M1752.24,1524c8.62,15,16.93,30.14,25.27,45.27l12.35,22.76,12.12,22.88c4,7.64,8.33,15.13,12.55,22.67a204.52,204.52,0,0,1,11.13,23.35q4.81,12,8.71,24.49a188.36,188.36,0,0,1,6.22,25.66l-1.59.75a188.37,188.37,0,0,1-15.87-21.11q-7.17-10.9-13.37-22.28a203.79,203.79,0,0,1-11-23.43c-3.14-8-6.19-16.14-9.53-24.09l-10-23.89-9.73-24c-6.39-16-12.8-32.09-18.91-48.27Z"/><rect class="cls-23" x="1825.29" y="1469.6" width="34.84" height="243.78" transform="translate(3423.61 3443.31) rotate(-171.3)"/><rect class="cls-17" x="1770.02" y="1591.5" width="107.53" height="165.35" transform="translate(3647.57 3348.34) rotate(180)"/><path class="cls-23" d="M1760.19,1784.84c.51.13.92-.11,1.22-.68C1760,1784.45,1759.55,1784.69,1760.19,1784.84Z"/><path class="cls-23" d="M1770,1709.09v47.76h107.53V1632.52C1838.64,1686.87,1794.4,1703.81,1770,1709.09Z"/><ellipse class="cls-1" cx="2164.59" cy="1642.57" rx="18.65" ry="29.07" transform="translate(-389.79 2569.19) rotate(-57.13)"/><path class="cls-19" d="M2651.09,1017.91c-31.14,142.55-2,233.47,44.58,241.22,26.57,4.42,46-6.3,67-26.28,79.46-75.36,60-151.93,60.76-172.29S2665,954.27,2651.09,1017.91Z"/><path class="cls-20" d="M2826.07,1060.12c-.73,19.57,13.83,87.69-52.44,163.22,46.07-79.55,40.74-141.86.25-184-3.73-3.87,23.83-2.52,11.44-13.2C2809,1039.45,2826.31,1053.39,2826.07,1060.12Z"/><path class="cls-8" d="M2874.78,1018.71c-15.9-36.65-173.45-102.44-227.73-18.06-11.44,23-1.59,46.2-1.59,46.2,5.64-3.84,10.21-36.54,40-20,70.24-29.5,94.22,33.7,135.59,83.86-5.87,29.22-4.53,69.06-4.53,69.06,40.62-9,67.34-16,72.15-55.59h0C2893.3,1092.91,2885.38,1043.13,2874.78,1018.71Z"/><g class="cls-24"><path class="cls-1" d="M2686.5,1040.1l-1.26-.44c.78-2.23.48-6.52.09-12-1-14.59-2.61-36.64,14.29-50.94,20.2-17.08,62.18-18,124.76-2.88l-.31,1.29c-62.16-15.07-103.74-14.19-123.59,2.61-16.39,13.86-14.85,35.5-13.82,49.82C2687.05,1033.2,2687.37,1037.61,2686.5,1040.1Z"/><path class="cls-1" d="M2719.56,1039.63l-1.32-.14c0-.36,4.29-36.56,48.42-43.41,46.55-7.22,89.88-1.71,115.9,14.75l-.71,1.12c-25.37-16.05-69.44-21.62-115-14.56C2723.77,1004.08,2719.6,1039.27,2719.56,1039.63Z"/><path class="cls-1" d="M2749.46,1055l-.78-1.07a263.25,263.25,0,0,1,52.07-27.74c27.16-10.59,65.9-19.21,96.24-.17l-.7,1.13c-29.87-18.75-68.17-10.2-95,.27A261.6,261.6,0,0,0,2749.46,1055Z"/><path class="cls-1" d="M2789.6,1077.71a19,19,0,0,1-5.43-.55l.4-1.26-.2.63.2-.63c.1,0,10.15,3,37.19-6.48,16.34-5.72,33.6-13.44,48.83-20.25,10.31-4.6,20-9,27.77-11.89l.47,1.24c-7.69,2.92-17.41,7.27-27.69,11.87-15.26,6.81-32.55,14.54-48.94,20.28C2805.47,1076.52,2795.19,1077.71,2789.6,1077.71Z"/><path class="cls-1" d="M2792.25,1091.1l-.23-1.31c.84-.14,84.11-14.76,96.26-40l1.2.58C2877,1076.22,2795.7,1090.51,2792.25,1091.1Z"/><path class="cls-1" d="M2827.89,1140.82l-.55-1.21c4.48-2,8.71-3.79,12.79-5.51,32.19-13.54,49.93-21,51.19-88.31l1.33,0c-1.28,68.17-20.37,76.2-52,89.5C2836.57,1137,2832.35,1138.81,2827.89,1140.82Z"/></g><path class="cls-20" d="M2816.76,1114.34c27.41-32.41,50.26-14.42,49.87,5.23s-46.11,65.93-60.49,32C2800.6,1135.84,2816.76,1114.34,2816.76,1114.34Z"/><path class="cls-25" d="M2682,1109.45a15.18,15.18,0,0,1,2.17,5.07,31.49,31.49,0,0,1,.79,5.53,54.19,54.19,0,0,1-.73,11,97,97,0,0,1-6.11,21c-.72,1.7-1.39,3.31-2.3,5.1l-.24.43-.15.26-.31.54c-.2.36-.4.71-.58,1.07-.37.71-.7,1.42-1,2.11a7.34,7.34,0,0,0-.72,3.34,1.38,1.38,0,0,0,.42.82,4.48,4.48,0,0,0,1.46.92,22.38,22.38,0,0,0,4.61,1.22c1.68.29,3.43.53,5.19.76,3.52.5,7.11.9,10.66,1.72-3.58.64-7.11,1.1-10.71,1.5-1.8.18-3.62.32-5.49.33a22.83,22.83,0,0,1-5.89-.61,10,10,0,0,1-3.28-1.51,7.12,7.12,0,0,1-2.55-3.5,9.13,9.13,0,0,1-.33-3.91,16.79,16.79,0,0,1,.73-3.21,23.34,23.34,0,0,1,1.12-2.8c.2-.44.42-.88.64-1.3l.33-.64.16-.32.08-.16c.65-1.41,1.37-3.09,2-4.68,2.61-6.45,5.09-13,7.14-19.62a90.79,90.79,0,0,0,2.56-10.05A27.55,27.55,0,0,0,2682,1109.45Z"/><path class="cls-1" d="M2716.37,1186.84c-29.89,10.34-47.27,3.79-47.27,3.79S2682.5,1254.45,2716.37,1186.84Z"/><path class="cls-26" d="M2644.87,1092.17a13.24,13.24,0,0,1,5.76-2.84,18.8,18.8,0,0,1,6-.42,17.7,17.7,0,0,1,5.93,1.57,13.3,13.3,0,0,1,2.76,1.77,7.46,7.46,0,0,1,1.19,1.25,4.6,4.6,0,0,1,.83,1.56,29.62,29.62,0,0,0-3.1.27c-.94.11-1.86.2-2.78.26a33.92,33.92,0,0,1-5.43-.07,31.34,31.34,0,0,1-5.47-1A24.13,24.13,0,0,1,2644.87,1092.17Z"/><path class="cls-26" d="M2700.5,1094.94a25.58,25.58,0,0,1,7.8-6.19,35.46,35.46,0,0,1,9.29-3.4,31.52,31.52,0,0,1,10-.46,19.6,19.6,0,0,1,9.4,3.75c-3.42.55-6.37,1-9.33,1.47l-8.74,1.74c-2.91.62-5.86,1.23-8.89,1.8A84.63,84.63,0,0,1,2700.5,1094.94Z"/><path class="cls-20" d="M2734,1145.93a2.75,2.75,0,1,1-3.17-2.25A2.74,2.74,0,0,1,2734,1145.93Z"/><path class="cls-20" d="M2749.87,1141.79a2.57,2.57,0,1,1-3-2.1A2.57,2.57,0,0,1,2749.87,1141.79Z"/><path class="cls-20" d="M2746.72,1153.79a2.15,2.15,0,1,1-2.48-1.75A2.15,2.15,0,0,1,2746.72,1153.79Z"/><path class="cls-20" d="M2747.16,1133.82a1.91,1.91,0,1,1-2.21-1.56A1.91,1.91,0,0,1,2747.16,1133.82Z"/><path class="cls-20" d="M2736.51,1160.67a1.5,1.5,0,1,1-1.74-1.22A1.5,1.5,0,0,1,2736.51,1160.67Z"/><path class="cls-20" d="M2723.19,1158c.16,1-.79,1.94-2.13,2.17s-2.56-.36-2.73-1.33.79-1.94,2.13-2.17S2723,1157,2723.19,1158Z"/><path class="cls-20" d="M2719.1,1147.09a1.38,1.38,0,1,1-1.59-1.12A1.37,1.37,0,0,1,2719.1,1147.09Z"/><path class="cls-20" d="M2647.1,1162.38a2,2,0,1,1-2.69.61A1.95,1.95,0,0,1,2647.1,1162.38Z"/><path class="cls-20" d="M2652.48,1152.05a1.82,1.82,0,1,1-2.52.57A1.82,1.82,0,0,1,2652.48,1152.05Z"/><path class="cls-20" d="M2657.3,1159.41a1.53,1.53,0,1,1-2.11.47A1.52,1.52,0,0,1,2657.3,1159.41Z"/><path class="cls-20" d="M2647,1149.69a1.36,1.36,0,1,1-1.87.42A1.36,1.36,0,0,1,2647,1149.69Z"/><path class="cls-20" d="M2656.06,1168.05a1,1,0,0,1,.33,1.46,1.06,1.06,0,1,1-.33-1.46Z"/><path d="M2709.34,1121.7a17.67,17.67,0,0,1,6.59-6.62,22.78,22.78,0,0,1,18.51-2.2,20.8,20.8,0,0,1,4.31,1.91,12.1,12.1,0,0,1,1.93,1.34,19.93,19.93,0,0,1,1.77,1.52c-1.62,0-3.06-.28-4.52-.39s-2.84-.3-4.25-.27a46.36,46.36,0,0,0-8.1.28,47.21,47.21,0,0,0-8,1.61C2714.94,1119.63,2712.26,1120.58,2709.34,1121.7Z"/><path d="M2732.32,1128.41c-1,7.27-6.39,12.66-12,12s-9.39-7-8.38-14.28,6.39-12.66,12-12S2733.33,1121.14,2732.32,1128.41Z"/><path d="M2669.34,1126c-2.29-1.44-4.33-2.75-6.36-3.91a34.43,34.43,0,0,0-6-2.77,25,25,0,0,0-3-.83,25.44,25.44,0,0,0-3.21-.34,13.68,13.68,0,0,0-1.7,0c-.57,0-1.17.06-1.78.07-1.22,0-2.43.29-3.85.27a14.79,14.79,0,0,1,1.4-1.46,7.78,7.78,0,0,1,1.6-1.27c.58-.35,1.19-.69,1.81-1a4.28,4.28,0,0,1,1-.39c.33-.1.67-.21,1-.3a14.78,14.78,0,0,1,4.26-.54c.71.07,1.43.17,2.15.26a17,17,0,0,1,2.09.56,16.74,16.74,0,0,1,6.94,4.59A14.79,14.79,0,0,1,2669.34,1126Z"/><path d="M2646.18,1127.13c-.17,6.12,3.36,11.19,7.89,11.31s8.34-4.73,8.51-10.85-3.37-11.18-7.89-11.31S2646.35,1121,2646.18,1127.13Z"/><path class="cls-13" d="M1986.29,1397.3l-36.71-59.44-97.37-35.12-32.77-65.64-63.26-194.5-62.24-34.09L1661,1065.35l-62.38,227.14-1.21.8c-34.38,22.92-90.38,61.35-94.28,66.87a2.86,2.86,0,0,0,.42-1.59h-7.74c0-2.8,0-5,49.46-39.23,20.63-14.27,41.49-28.25,46.65-31.69l61.88-225.32.25-.43L1691,998.09l71.58,39.19.47,1.46,63.64,195.69,31,62.08,97,35,30.2,48.9,29.48-70.75,29-16.12,38.16-58.83,64.68-42,38.13-20.8,31.66,46.65,35.69,17.07-3.34,7-37.59-18L2181.94,1182l-31.83,17.37-62.92,40.89-38.31,59.06-28.34,15.75Z"/><path class="cls-17" d="M1503,1390.9l-6.56-4.12,61.88-98.37,35.36-107.67,68.5-40.63,60.46-183.76,40.71-31.45,31.55,129.53,26.92,47.51.08.19,36.61,84.94,25.52-48.85,40.47,9.89,33,61.46L1986,1171l65-48.24,31.83-66.3,34.66,24.26c3.15.11,12.26.43,21.29.87,6.55.32,11.79.64,15.56,1,6.73.55,10.11.83,10.63,4.4a4,4,0,0,1-.57,2.69c1.58,5.8,13,26,24.84,45.31l19.08-35.78,45,70.93-6.54,4.15L2209,1114.54l-19.14,35.88-3.55-5.66c-.08-.13-7.86-12.55-15.3-25.45-10.21-17.67-13.46-25.13-14.27-28.79-7.07-.73-24.6-1.59-40.56-2.1l-1.15,0L2085.91,1068l-28.71,59.8-65.63,48.7L1956.42,1224l-37.12-69.18-31.22-7.63-30.25,57.9-43-99.69-27.25-48.08-29-119L1729.24,961l-60.62,184.26-68.5,40.62-34.75,105.82Zm656.65-306.84h0Z"/><polygon class="cls-23" points="1825.66 1361.15 1783.04 1180.85 1757.86 1162.75 1718.71 1073.15 1705.51 1091.14 1668.61 1198.63 1628.9 1223.45 1559.17 1250.39 1530.04 1277.98 1503.27 1340.97 1496.14 1337.94 1523.54 1273.47 1554.95 1243.71 1625.42 1216.49 1662.18 1193.51 1698.57 1087.51 1720.42 1057.72 1764.11 1157.7 1789.91 1176.25 1830.14 1346.44 1842.46 1335.02 1894.74 1286.21 1918.49 1229.21 1918.76 1228.85 1978.03 1147.15 1978.46 1146.81 2050.35 1090.9 2050.56 1090.77 2147.74 1033.42 2248.05 971.33 2252.12 977.91 2151.75 1040.05 2054.71 1097.32 1983.65 1152.59 1925.29 1233.03 1901.25 1290.73 1847.73 1340.69 1825.66 1361.15"/><circle class="cls-9" cx="1499.71" cy="866.29" r="10.36"/><circle class="cls-9" cx="1499.71" cy="1419.11" r="10.36"/><circle class="cls-9" cx="2272.39" cy="1419.11" r="10.36"/><polygon class="cls-9" points="2272.39 1424.64 1494.18 1424.64 1494.18 866.29 1505.24 866.29 1505.24 1413.58 2272.39 1413.58 2272.39 1424.64"/></g></svg>