<?xml version="1.0" encoding="UTF-8"?>
<svg xmlns="http://www.w3.org/2000/svg" version="1.1" viewBox="0 0 64 64">
  <!-- Generator: Adobe Illustrator 28.7.1, SVG Export Plug-In . SVG Version: 1.2.0 Build 142)  -->
  <g>
    <g id="Outline">
      <g>
        <path d="M18,34c-1.6543,0-3,1.3457-3,3v6c0,.55273.44775,1,1,1s1-.44727,1-1v-2h2v2c0,.55273.44775,1,1,1s1-.44727,1-1v-6c0-1.6543-1.3457-3-3-3ZM17,39v-2c0-.55176.44873-1,1-1s1,.44824,1,1v2h-2Z" fill="#010101"/>
        <path d="M25,34h-2c-.55225,0-1,.44727-1,1v8c0,.55273.44775,1,1,1h2c1.6543,0,3-1.3457,3-3v-4c0-1.6543-1.3457-3-3-3ZM26,41c0,.55176-.44873,1-1,1h-1v-6h1c.55127,0,1,.44824,1,1v4Z" fill="#010101"/>
        <path d="M32,36c.55127,0,1,.44824,1,1,0,.55273.44775,1,1,1s1-.44727,1-1c0-1.6543-1.3457-3-3-3s-3,1.3457-3,3,1.3457,3,3,3c.55127,0,1,.44824,1,1s-.44873,1-1,1-1-.44824-1-1c0-.55273-.44775-1-1-1s-1,.44727-1,1c0,1.6543,1.3457,3,3,3s3-1.3457,3-3-1.3457-3-3-3c-.55127,0-1-.44824-1-1s.44873-1,1-1Z" fill="#010101"/>
        <path d="M56.87988,23.36133s-8.54834-15.82426-8.55519-15.83694c-.2599-.48107-.87092-.6667-1.35497-.40427l-3.51953,1.90137c-.48633.2627-.66699.86914-.40479,1.35547l.13275.24573-8.05231,8.57874-6.89539,3.72534c-.48633.2627-.66699.86914-.40479,1.35547l2.54871,4.71777H8c-.55225,0-1,.44727-1,1v18c0,.55273.44775,1,1,1h34c.55225,0,1-.44727,1-1,0,0,0-10.74219.02734-10.73926.47797,0,.96034-.11521,1.4022-.35344,1.61676-.87168,2.04203-3.08616.87124-4.49715l-3.88403-4.6803,10.05115-1.7616.13269.2456c.26123.48353.87267.66388,1.35498.4043l3.51953-1.90137c.48633-.2627.66699-.86914.40479-1.35547ZM35.33984,21.35938l2.85156,5.27832-5.2793,2.85156-2.85156-5.27832,5.2793-2.85156ZM41,47H9v-16h22.4549l.17303.32031c.26115.48342.87224.66411,1.35498.4043l2.79797-1.51166,4.96228,5.97943c.07733.0932.17047.16516.25684.24664v10.56097ZM43.96384,34.48399c-.05292.27154-.22079.52046-.48533.66348-.40039.21484-.9043.12012-1.19629-.23242l-4.70679-5.67163,1.72491-.93195s4.46136,5.37604,4.46235,5.37722c.19272.23285.25377.52526.20114.7953ZM40.08362,25.93219l-3.11688-5.76953,7.21344-7.68506,6.28534,11.63501-10.3819,1.81958ZM52.88477,24.38281l-7.60449-14.07715,1.76025-.9502,7.60449,14.07715-1.76025.9502Z" fill="#010101"/>
        <path d="M8,51c-.55225,0-1,.44727-1,1v4c0,.55273.44775,1,1,1s1-.44727,1-1v-4c0-.55273-.44775-1-1-1Z" fill="#010101"/>
        <path d="M12,51c-.55225,0-1,.44727-1,1v4c0,.55273.44775,1,1,1s1-.44727,1-1v-4c0-.55273-.44775-1-1-1Z" fill="#010101"/>
        <path d="M42,53h-16.18427c-.41412-1.1615-1.51379-2-2.81573-2s-2.40161.8385-2.81573,2h-4.18427c-.55225,0-1,.44727-1,1s.44775,1,1,1h4.18433c.41412,1.1615,1.51373,2,2.81567,2s2.40161-.8385,2.81573-2h16.18427c.55225,0,1-.44727,1-1s-.44775-1-1-1ZM23,55c-.55127,0-1-.44824-1-1s.44873-1,1-1,1,.44824,1,1-.44873,1-1,1Z" fill="#010101"/>
      </g>
    </g>
  </g>
</svg>