<?xml version="1.0" encoding="UTF-8"?>
<svg xmlns="http://www.w3.org/2000/svg" version="1.1" viewBox="0 0 64 64">
  <!-- Generator: Adobe Illustrator 28.7.1, SVG Export Plug-In . SVG Version: 1.2.0 Build 142)  -->
  <g>
    <g id="Outline">
      <g>
        <path d="M30,35h-3c-1.6543,0-3-1.3457-3-3s1.3457-3,3-3h3c.55273,0,1-.44727,1-1s-.44727-1-1-1h-3c-2.75684,0-5,2.24316-5,5s2.24316,5,5,5h3c.55273,0,1-.44727,1-1s-.44727-1-1-1Z" fill="#010101"/>
        <path d="M37,27h-3c-.55273,0-1,.44727-1,1s.44727,1,1,1h3c1.6543,0,3,1.3457,3,3s-1.3457,3-3,3h-3c-.55273,0-1,.44727-1,1s.44727,1,1,1h3c2.75684,0,5-2.24316,5-5s-2.24316-5-5-5Z" fill="#010101"/>
        <path d="M26,32c0,.55273.44727,1,1,1h10c.55273,0,1-.44727,1-1s-.44727-1-1-1h-10c-.55273,0-1,.44727-1,1Z" fill="#010101"/>
        <path d="M46,32c0-4.96289-4.03711-9-9-9h-10c-4.96289,0-9,4.03711-9,9s4.03711,9,9,9h10c4.96289,0,9-4.03711,9-9ZM37,39h-10c-3.85938,0-7-3.14062-7-7s3.14062-7,7-7h10c3.85938,0,7,3.14062,7,7s-3.14062,7-7,7Z" fill="#010101"/>
        <path d="M52.42328,40.1709c1.04376-2.58997,1.57672-5.33301,1.57672-8.1709s-.53296-5.58093-1.57672-8.1709c2.72852-1.54773,4.57672-4.47424,4.57672-7.8291,0-4.96289-4.03711-9-9-9-3.35486,0-6.28137,1.84821-7.8291,4.57672-2.58997-1.04376-5.33301-1.57672-8.1709-1.57672s-5.58093.53296-8.1709,1.57672c-1.54773-2.72852-4.47424-4.57672-7.8291-4.57672-4.96289,0-9,4.03711-9,9,0,3.35486,1.84821,6.28137,4.57672,7.8291-1.04376,2.58997-1.57672,5.33301-1.57672,8.1709s.53296,5.58093,1.57672,8.1709c-2.72852,1.54773-4.57672,4.47424-4.57672,7.8291,0,4.96289,4.03711,9,9,9,3.35486,0,6.28137-1.84821,7.8291-4.57672,2.58997,1.04376,5.33301,1.57672,8.1709,1.57672s5.58093-.53296,8.1709-1.57672c1.54773,2.72852,4.47424,4.57672,7.8291,4.57672,4.96289,0,9-4.03711,9-9,0-3.35486-1.84821-6.28137-4.57672-7.8291ZM47,14c0-.55176.44824-1,1-1s1,.44824,1,1-.44824,1-1,1-1-.44824-1-1ZM48,17c2.20605,0,4,1.79395,4,4v.73608c-1.13513.79407-2.51288,1.26392-4,1.26392s-2.86487-.46985-4-1.26398v-.73602c0-2.20605,1.79395-4,4-4ZM48,9c3.85938,0,7,3.14062,7,7,0,1.3963-.41553,2.69537-1.12299,3.78882-.38513-1.87164-1.64771-3.42188-3.33411-4.21545.28491-.45874.45709-.99475.45709-1.57336,0-1.6543-1.3457-3-3-3s-3,1.3457-3,3c0,.57861.17218,1.11462.45709,1.57336-1.6864.79358-2.94891,2.34375-3.33405,4.21539-.70746-1.09344-1.12305-2.39252-1.12305-3.78876,0-3.85938,3.14062-7,7-7ZM9,16c0-3.85938,3.14062-7,7-7s7,3.14062,7,7c0,1.3963-.41553,2.69537-1.12299,3.78882-.38513-1.87164-1.64771-3.42188-3.33411-4.21545.28491-.45874.45709-.99475.45709-1.57336,0-1.6543-1.3457-3-3-3s-3,1.3457-3,3c0,.57861.17218,1.11462.45709,1.57336-1.6864.79358-2.94891,2.34375-3.33405,4.21539-.70746-1.09344-1.12305-2.39252-1.12305-3.78876ZM12,21.73602v-.73602c0-2.20605,1.79395-4,4-4s4,1.79395,4,4v.73608c-1.13513.79407-2.51288,1.26392-4,1.26392s-2.86487-.46985-4-1.26398ZM15,14c0-.55176.44824-1,1-1s1,.44824,1,1-.44824,1-1,1-1-.44824-1-1ZM9,48c0-3.85938,3.14062-7,7-7s7,3.14062,7,7c0,1.3963-.41553,2.69537-1.12299,3.78882-.38513-1.87164-1.64771-3.42188-3.33411-4.21545.28491-.45874.45709-.99475.45709-1.57336,0-1.6543-1.3457-3-3-3s-3,1.3457-3,3c0,.57861.17218,1.11462.45709,1.57336-1.6864.79358-2.94891,2.34375-3.33405,4.21539-.70746-1.09344-1.12305-2.39252-1.12305-3.78876ZM15,46c0-.55176.44824-1,1-1s1,.44824,1,1-.44824,1-1,1-1-.44824-1-1ZM12,53.73602v-.73602c0-2.20605,1.79395-4,4-4s4,1.79395,4,4v.73608c-1.13513.79407-2.51288,1.26392-4,1.26392s-2.86487-.46985-4-1.26398ZM32,52c-2.56458,0-5.03638-.50104-7.37659-1.43787.24194-.81293.37659-1.67169.37659-2.56213,0-4.96289-4.03711-9-9-9-.89044,0-1.74921.13464-2.56213.37659-.93683-2.34021-1.43787-4.81201-1.43787-7.37659s.50104-5.03638,1.43787-7.37659c.81293.24194,1.67169.37659,2.56213.37659,4.96289,0,9-4.03711,9-9,0-.89044-.13464-1.74921-.37659-2.56213,2.34021-.93683,4.81201-1.43787,7.37659-1.43787s5.03638.50104,7.37659,1.43787c-.24194.81293-.37659,1.67169-.37659,2.56213,0,4.96289,4.03711,9,9,9,.89044,0,1.74921-.13464,2.56213-.37659.93683,2.34021,1.43787,4.81201,1.43787,7.37659s-.50104,5.03638-1.43787,7.37659c-.81293-.24194-1.67169-.37659-2.56213-.37659-4.96289,0-9,4.03711-9,9,0,.89044.13464,1.74921.37659,2.56213-2.34021.93683-4.81201,1.43787-7.37659,1.43787ZM44,53.73602v-.73602c0-2.20605,1.79395-4,4-4s4,1.79395,4,4v.73608c-1.13513.79407-2.51288,1.26392-4,1.26392s-2.86487-.46985-4-1.26398ZM47,46c0-.55176.44824-1,1-1s1,.44824,1,1-.44824,1-1,1-1-.44824-1-1ZM53.87701,51.78882c-.38513-1.87164-1.64771-3.42188-3.33411-4.21545.28491-.45874.45709-.99475.45709-1.57336,0-1.6543-1.3457-3-3-3s-3,1.3457-3,3c0,.57861.17218,1.11462.45709,1.57336-1.6864.79358-2.94891,2.34375-3.33405,4.21539-.70746-1.09344-1.12305-2.39252-1.12305-3.78876,0-3.85938,3.14062-7,7-7s7,3.14062,7,7c0,1.3963-.41553,2.69537-1.12299,3.78882Z" fill="#010101"/>
      </g>
    </g>
  </g>
</svg>