<?xml version="1.0" encoding="UTF-8"?>
<svg xmlns="http://www.w3.org/2000/svg" version="1.1" viewBox="0 0 64 64">
  <!-- Generator: Adobe Illustrator 28.7.1, SVG Export Plug-In . SVG Version: 1.2.0 Build 142)  -->
  <g>
    <g id="Outline">
      <path d="M56.88,23.35999s-8.52002-15.78003-8.56-15.84003c-.25-.45996-.88-.64996-1.35004-.39996l-3.51996,1.89996c-.48999.26001-.66998.87006-.40002,1.36005l.13.23999-3.17999,3.39001c-.03998-.03003-.08002-.06-.10999-.08002-.76001-.42999-1.39001-1.06-1.83002-1.82001-.60999-1.07001-1.5-1.95001-2.57001-2.57001-1.07001-.60999-2.27997-.92999-3.48999-.92999-.88,0-1.73999-.22998-2.5-.67999-2.09998-1.22003-4.89001-1.22003-7,.01001-.76001.44-1.62.66998-2.5.66998-1.21002,0-2.41998.32001-3.5.92999-1.06.62-1.95001,1.5-2.57001,2.57001-.42999.76001-1.06,1.39001-1.82001,1.83002-1.07001.60999-1.95001,1.5-2.57001,2.57001-.60999,1.06995-.92999,2.27997-.92999,3.48999,0,.88-.22998,1.73999-.66998,2.5-.62,1.04999-.94,2.26001-.94,3.5s.32001,2.45001.94,3.5c.44.76001.66998,1.62.66998,2.5,0,1.20996.32001,2.41998.92999,3.5.62,1.06,1.5,1.95001,2.57001,2.57001.76001.42999,1.39001,1.06,1.83002,1.82001.28998.50995.65002.97998,1.06,1.38995v7.72003c0,.38.21002.71997.54999.89001l3.45001,1.72998v4.38c0,.66998.67999,1.15997,1.32001.95001l5.67999-1.90002,5.67999,1.90002c.64001.20996,1.32001-.28003,1.32001-.95001v-4.38l3.45001-1.72998c.33997-.17004.54999-.51001.54999-.89001v-7.72003c.40997-.40997.77002-.88,1.07001-1.38995.42999-.76001,1.06-1.39001,1.83002-1.83002.57996-.34003,1.10999-.77002,1.56995-1.26001.47003.28998,1.01001.46002,1.56006.46002.47998,0,.95996-.11005,1.39996-.35004,1.62-.88,2.04999-3.08002.87-4.5l-3.88-4.67999,10.04999-1.76001.13.23999c.26001.48004.88.66003,1.36005.41003l3.51996-1.90002c.48004-.26996.66003-.87.40002-1.35999ZM19,49.38l-2-1v-5.67999c.64001.29999,1.31.50995,2,.60999v6.07001ZM25,53.27997l-4,1.33002v-11.10999c.52002.10999,1.03003.28998,1.5.57001.76001.44,1.62.72998,2.5.84998v8.35999ZM31,54.60999l-4-1.33002v-8.35999c.88-.12,1.73999-.40997,2.5-.85999.46997-.27002.97998-.45001,1.5-.56v11.10999ZM35,48.38l-2,1v-6.07001c.69-.10004,1.35999-.31,2-.60999v5.67999ZM38.89001,36.32996c-1.06.61005-1.95001,1.5-2.54999,2.56006-.45001.75995-1.08002,1.39996-1.83002,1.82996-.78003.44-1.64001.67004-2.51001.67004-1.22998,0-2.44.32996-3.5.93994-1.52002.89001-3.47998.89001-5,.01001-1.06-.62-2.27002-.94995-3.5-.94995-.87,0-1.72998-.23004-2.5-.67004-.76001-.42999-1.39001-1.07001-1.83002-1.82996-.60999-1.06006-1.5-1.95001-2.56-2.55005-.76001-.44995-1.39996-1.07996-1.82996-1.82996-.44-.78003-.67004-1.64001-.67004-2.51001,0-1.23004-.32996-2.44-.95001-3.5-.42999-.75-.65997-1.60999-.65997-2.5s.22998-1.75.65997-2.5c.62006-1.06.95001-2.27002.95001-3.5,0-.87.23004-1.73004.67004-2.5.42999-.76001,1.06995-1.39001,1.82996-1.83002,1.06-.60999,1.95001-1.5,2.54999-2.56.45001-.76001,1.08002-1.40002,1.83002-1.83002.78003-.44,1.64001-.66998,2.51001-.66998,1.22998,0,2.44-.33002,3.5-.94,1.52002-.89001,3.47998-.89001,5-.01001,1.06.62,2.27002.95001,3.5.95001.87,0,1.72998.22998,2.5.66998.76001.42999,1.39001,1.07001,1.83002,1.83002.56.96002,1.33997,1.77002,2.28998,2.37l-1.70001,1.79999c-2.63995-3.32001-6.63-5.27997-10.91998-5.27997-7.71997,0-14,6.27997-14,14s6.28003,14,14,14c5.03003,0,9.62-2.70001,12.10999-6.98999l1.94,2.34998c-.33997.37-.71997.71997-1.15997.96997ZM27.83002,24.27997s3.77997,7,3.79999,7.04004c.25.46997.88.65997,1.34998.39996l2.80005-1.51001.94995,1.15002c-2.01996,4.04999-6.16998,6.64001-10.72998,6.64001-6.62,0-12-5.38-12-12s5.38-12,12-12c3.78003,0,7.28003,1.77997,9.53998,4.76001l-.40997.44-6.90002,3.72998c-.48999.26001-.66998.87-.39996,1.34998ZM32.90997,29.48999l-2.84998-5.28003,5.28003-2.84998,2.84998,5.28003-5.28003,2.84998ZM43.76001,33.69c.20001.22998.26001.51996.20001.78998-.05005.28003-.22003.52002-.48004.66998-.39996.21002-.90997.12-1.19995-.22998l-4.70001-5.67999,1.71997-.92999,4.46002,5.38ZM40.08002,25.92999l-3.11005-5.77002,7.21002-7.67999,6.28998,11.63-10.38995,1.82001ZM52.88,24.38l-7.59998-14.07001,1.75995-.95001,7.61005,14.07001-1.77002.95001Z" fill="#010101"/>
    </g>
  </g>
</svg>