<?xml version="1.0" encoding="UTF-8"?>
<svg xmlns="http://www.w3.org/2000/svg" version="1.1" viewBox="0 0 64 64">
  <!-- Generator: Adobe Illustrator 28.7.1, SVG Export Plug-In . SVG Version: 1.2.0 Build 142)  -->
  <g>
    <g id="Outline">
      <g>
        <path d="M56.04102,26.00098c-2.42285-.09961-3.87109-2.13818-3.87109-4.05078,0-1.00342.37207-1.93848,1.07568-2.70312.36279-.39453.35059-1.00488-.02832-1.38379l-7.06982-7.07959c-.36475-.36475-1.01416-.37842-1.39453-.0293-1.18457,1.09131-2.78027,1.37646-4.26855.75928-1.48828-.61572-2.41748-1.94482-2.48535-3.55566-.02246-.53564-.46289-.95801-.99902-.95801h-10c-.53613,0-.97705.42285-.99902.95898-.09961,2.42285-2.13818,3.87109-4.05078,3.87109-1.00342,0-1.93848-.37207-2.70312-1.07568-.37988-.34961-1.03027-.33643-1.39453.0293l-7.06982,7.07959c-.37891.37891-.39111.98926-.02832,1.38379.70361.76465,1.07568,1.69971,1.07568,2.70312,0,1.9126-1.44824,3.95117-3.87109,4.05078-.53613.02197-.95898.46289-.95898.99902v5c0,.55225.44775,1,1,1h11c.55225,0,1-.44775,1-1,0-6.6167,5.3833-12,12-12s12,5.3833,12,12c0,.55225.44775,1,1,1h11c.55225,0,1-.44775,1-1v-5c0-.53613-.42285-.97705-.95898-.99902ZM55,31h-9.03516c-.51514-7.25439-6.58154-13-13.96484-13s-13.44971,5.74561-13.96484,13h-9.03516v-3.1123c3.04346-.59375,4.83008-3.34277,4.83008-5.9375,0-1.1748-.35303-2.31738-1.00781-3.29932l5.82373-5.83154c.98291.65674,2.12793,1.01074,3.3042,1.01074,2.59473,0,5.34375-1.78662,5.9375-4.83008h8.22803c.3916,1.95459,1.71191,3.5791,3.604,4.36182,1.89307.7832,3.97607.56592,5.63428-.54248l5.82373,5.83154c-.65479.98193-1.00781,2.12451-1.00781,3.29932,0,2.59473,1.78662,5.34375,4.83008,5.9375v3.1123Z" fill="#010101"/>
        <path d="M38,32c0-.34473-.17773-.66504-.47021-.84814,0,0-7.93438-4.95899-7.9996-4.99975-.66062-.41289-1.53018.08167-1.53019.84789v9.99983c0,.76789.88014,1.25432,1.52979.84832l8-5c.29248-.18311.47021-.50342.47021-.84814ZM30,35.1958v-6.3916l5.11328,3.1958-5.11328,3.1958Z" fill="#010101"/>
        <path d="M53,48h-3v-3c0-.55225-.44775-1-1-1h-16v-2.05066c5.04633-.50342,9-4.77271,9-9.94934,0-5.51416-4.48584-10-10-10s-10,4.48584-10,10c0,5.17664,3.95367,9.44592,9,9.94934v2.05066H15c-.55225,0-1,.44775-1,1v3h-3c-.55225,0-1,.44775-1,1v7c0,.55225.44775,1,1,1h8c.55225,0,1-.44775,1-1v-7c0-.55225-.44775-1-1-1h-3v-2h15v2h-3c-.55225,0-1,.44775-1,1v7c0,.55225.44775,1,1,1h8c.55225,0,1-.44775,1-1v-7c0-.55225-.44775-1-1-1h-3v-2h15v2h-3c-.55225,0-1,.44775-1,1v7c0,.55225.44775,1,1,1h8c.55225,0,1-.44775,1-1v-7c0-.55225-.44775-1-1-1ZM24,32c0-4.41113,3.58887-8,8-8s8,3.58887,8,8-3.58887,8-8,8-8-3.58887-8-8ZM18,55h-6v-5h6v5ZM35,55h-6v-5h6v5ZM52,55h-6v-5h6v5Z" fill="#010101"/>
      </g>
    </g>
  </g>
</svg>