<?xml version="1.0" encoding="UTF-8"?>
<svg xmlns="http://www.w3.org/2000/svg" version="1.1" viewBox="0 0 64 64">
  <!-- Generator: Adobe Illustrator 28.7.1, SVG Export Plug-In . SVG Version: 1.2.0 Build 142)  -->
  <g>
    <g id="Outline">
      <g>
        <path d="M52.12598,38.1084c-.52441-.18945-1.09277.08496-1.27734.60547-2.71692,7.61365-9.78516,12.81976-17.79333,13.24457l1.54431-1.15863c.44238-.33105.53223-.95801.2002-1.39941-.33105-.44336-.95801-.53125-1.39941-.2002l-3.99999,2.99999c-.5283.39622-.5284,1.20434,0,1.59962,0,0,4,3,4,3,.44087.33065,1.06915.23885,1.39941-.2002.33203-.44141.24219-1.06836-.2002-1.39941l-1.64966-1.23761c8.89539-.38623,16.77045-6.13593,19.78149-14.57684.18555-.52051-.08496-1.0918-.60547-1.27734Z" fill="#010101"/>
        <path d="M11.87439,25.89173c.51528.18509,1.09526-.09462,1.27697-.6056,2.71692-7.61365,9.78516-12.81976,17.79333-13.24457l-1.54431,1.15863c-.4423.33099-.53219.95777-.20039,1.39916.30529.40612.96176.52883,1.39961.20045l4-3c.25195-.18848.40039-.48535.40039-.7998s-.14844-.61133-.40039-.7998l-4-3c-.44141-.33105-1.06738-.24219-1.39941.2002-.33203.44141-.24219,1.06836.2002,1.39941l1.64966,1.23761c-8.89539.38623-16.77045,6.13593-19.78149,14.57684-.18555.52051.08496,1.0918.60584,1.27748Z" fill="#010101"/>
        <path d="M25.28613,50.84863c-7.61365-2.71692-12.81976-9.78516-13.24457-17.79333,0,0,1.15863,1.54431,1.15866,1.54434.32903.44031.96228.52799,1.39939.20016.44238-.33105.53223-.95801.2002-1.39941l-3-4c-.37695-.50391-1.22266-.50391-1.59961,0l-3,4c-.33203.44141-.24219,1.06836.2002,1.39941.44238.33203,1.06836.24316,1.39941-.2002l1.23761-1.64966c.38623,8.89539,6.13593,16.77045,14.57731,19.78166.51747.18582,1.0928-.08923,1.27688-.60564.18555-.52051-.08496-1.0918-.60547-1.27734Z" fill="#010101"/>
        <path d="M56.59961,29.2002c-.44141-.33105-1.06738-.24219-1.39941.2002l-1.23761,1.64966c-.38623-8.89539-6.13593-16.77045-14.57684-19.78149-.52246-.19043-1.09277.08496-1.27734.60547-.18555.52051.08496,1.0918.60547,1.27734,7.61365,2.71692,12.81976,9.78516,13.24457,17.79333l-1.15863-1.54431c-.33105-.44336-.95898-.53223-1.39941-.2002-.44238.33105-.53223.95801-.2002,1.39941l3,4c.39567.52755,1.20419.52859,1.59961,0l3-4c.33203-.44141.24219-1.06836-.2002-1.39941Z" fill="#010101"/>
        <path d="M17,32c0,8.27148,6.72852,15,15,15s15-6.72852,15-15-6.72852-15-15-15-15,6.72852-15,15ZM45,32c0,7.16797-5.83203,13-13,13s-13-5.83203-13-13,5.83203-13,13-13,13,5.83203,13,13Z" fill="#010101"/>
        <path d="M28.60547,23.55273c-.1377.27637-.41504.44727-.72363.44727h-1.07324c-1.54883,0-2.80859,1.25977-2.80859,2.80859v7.19141c0,4.41113,3.58887,8,8,8s8-3.58887,8-8v-8c0-2.20605-1.79395-4-4-4h-4.88184c-1.07129,0-2.03418.59473-2.5127,1.55273ZM32,40c-3.30859,0-6-2.69141-6-6v-1.2796l2.31641-.77216c.25098-.08301.45898-.26367.57812-.50098l.85059-1.70215,1.25488-.62695,1.55273.77637c.28125.14062.61328.14062.89453,0l.96875-.48438.63574,1.90625c.09863.29883.33301.5332.63184.63184l2.31641.77216v1.2796c0,3.30859-2.69141,6-6,6ZM38,26v4.61243l-1.20898-.40344-.84277-2.52538c-.19142-.5736-.8553-.84824-1.39551-.57813l-1.55273.77637-1.55273-.77637c-.28125-.14062-.61328-.14062-.89453,0l-2,1c-.19336.09668-.35059.25391-.44727.44727l-.81445,1.62988-1.29102.43036v-3.80438c0-.44629.3623-.80859.80859-.80859h1.07324c1.07129,0,2.03418-.59473,2.5127-1.55273.1377-.27637.41504-.44727.72363-.44727h4.88184c1.10254,0,2,.89746,2,2Z" fill="#010101"/>
      </g>
    </g>
  </g>
</svg>