<?xml version="1.0" encoding="UTF-8"?>
<svg xmlns="http://www.w3.org/2000/svg" version="1.1" viewBox="0 0 64 64">
  <!-- Generator: Adobe Illustrator 28.7.1, SVG Export Plug-In . SVG Version: 1.2.0 Build 142)  -->
  <g>
    <g id="Outline">
      <g>
        <path d="M56.7694,25.37049c-.1824-.22348-.45793-.37049-.7694-.37049h-9V8c0-.54999-.45001-1-1-1h-4c-.54999,0-1,.45001-1,1v.29999l-13.16998,4.70001h-7.83002c-.54999,0-1,.45001-1,1v8c0,.54999.45001,1,1,1h3.15002l.33997,2h-9.48999c-.47998,0-.89001.33997-.97998.79999,0,0-5.99278,29.96392-5.99999,29.99997-.12242.6121.35655,1.20004.97997,1.20004h42c.47998,0,.89001-.34003.97998-.79999,0,0,5.98358-29.91792,5.99997-29.99983.0612-.306-.02807-.60611-.21054-.82969ZM43,9h2v18h-2V9ZM29,14.70001l12-4.28003v15.15997l-12-4.27997v-6.59998ZM28.63001,31.87c.09875.59208-.36231,1.13-.96002,1.13-.47998,0-.88-.34003-.95996-.81l-1.53003-9.19h1.97003s1.47547,8.84295,1.47998,8.87ZM21,21v-6h6v6h-6ZM49.17999,55H9.21997l5.60004-28h9l.91998,5.51996c.23998,1.43996,1.46996,2.47998,2.92987,2.48004,1.80429.00007,3.24189-1.67286,2.93012-3.46002l-1.32996-8.02997,11.72998,4.19v.29999c0,.54999.45001,1,1,1h4c.54999,0,1-.45001,1-1v-1h7.78003l-5.60004,28Z" fill="#010101"/>
        <path d="M32.24121,43.8374l-13.50879-14.51855c-.37695-.40479-1.00879-.42627-1.41406-.05078-.4043.37598-.42676,1.00879-.05078,1.41309l9.88959,10.62891-15.68842,9.84277c-.46771.29342-.60934.91048-.31555,1.37823.29291.46635.91238.60818,1.37805.3161l16.01294-10.04639s2.85034,3.06348,2.85047,3.06361c.35006.37517.93058.42608,1.33972.11315l3.37341-2.57733s9.17567,9.29774,9.1803,9.30243c.36227.36709,1.01133.40695,1.41406.00928.39355-.38818.39746-1.021.00977-1.41455l-9.00165-9.1214,14.89716-11.38153c.43848-.33496.52246-.96289.1875-1.40137-.33594-.43896-.96191-.52246-1.40234-.1875l-19.15137,14.63184Z" fill="#010101"/>
      </g>
    </g>
  </g>
</svg>