<?xml version="1.0" encoding="UTF-8"?>
<svg xmlns="http://www.w3.org/2000/svg" version="1.1" viewBox="0 0 64 64">
  <!-- Generator: Adobe Illustrator 28.7.1, SVG Export Plug-In . SVG Version: 1.2.0 Build 142)  -->
  <g>
    <g id="Outline">
      <path d="M56.8042,23.49365l-11.88184-16.08789c-.32715-.44385-.95361-.53955-1.39844-.20996l-3.21776,2.37646c-.44199.32643-.53602.95732-.20997,1.39845l.17529.23737-5.07117,7.5473c-1.17468-2.25928-3.52448-3.75537-6.20032-3.75537h-4.43994c-1.93408,0-3.73242.96191-4.81201,2.5752-.17725.26611-.47559.4248-.79785.4248-1.62695,0-2.9502,1.32324-2.9502,2.9502v6.21875c-.41895.14697-.79834.38672-1.1084.70508-.57471.56055-.8916,1.31543-.8916,2.12598s.31689,1.56543.87402,2.1084c.35254.36182.78223.62109,1.25439.76367.43457,2.22461,1.52832,4.28857,3.12207,5.87305.37518.3775.78186.72034,1.20599,1.03949-.07959,1.06787-.47162,2.09991-1.1059,3.31012l-4.83447.80908c-4.35498.72363-7.51611,4.45654-7.51611,8.87598v3.22021c0,.55225.44775,1,1,1h36c.55225,0,1-.44775,1-1v-3.22021c0-4.41943-3.16113-8.15234-7.51514-8.87598l-4.83545-.80908c-.63422-1.21008-1.02618-2.24207-1.1059-3.30981.42261-.31812.8277-.65961,1.20111-1.0354,1.25305-1.24463,2.18109-2.74164,2.73486-4.39459l4.94678,4.49176c1.00718.91454,2.6193,1.02445,3.74941.19002,1.48282-1.09486,1.59454-3.3365.23155-4.57429l-4.47076-4.06012,11.86603-3.58136.17553.23767c.30562.4138.95029.54179,1.39844.20996l3.21776-2.37646c.44143-.32601.53682-.95624.20997-1.39845ZM31.73145,33.30957l-3.56445-4.82617,4.82617-3.56494,3.56494,4.82617-4.82666,3.56494ZM18,20.9502c0-.52393.42627-.9502.9502-.9502.99268,0,1.91309-.4917,2.46094-1.31396.70654-1.05566,1.88379-1.68604,3.14893-1.68604h4.43994c2.32111,0,4.28656,1.57904,4.83118,3.79297l-1.36108,2.0257-2.77533,2.04993c-1.13654-.22656-2.16748-.75537-2.98773-1.57562-.39062-.39062-1.02344-.39062-1.41406,0-1.08496,1.08496-2.58789,1.70703-4.12305,1.70703h-3.16992v-4.0498ZM31.12207,44.479c.14697.26953.41016.45654.71289.50732l5.3208.89014c3.38623.5625,5.84424,3.46582,5.84424,6.90332v2.22021H9v-2.22021c0-3.4375,2.45801-6.34082,5.84521-6.90332l5.31982-.89014c.30273-.05078.56592-.23779.71289-.50732.57031-1.04584,1.16046-2.22943,1.44177-3.54822,1.11212.54053,2.31396.90387,3.55432,1.0614.04199.00537.08398.00781.12598.00781s.08398-.00244.12598-.00781c1.2406-.15753,2.44263-.521,3.55438-1.06116.28137,1.31866.8714,2.5022,1.44171,3.54797ZM31.33057,37.33496c-1.44336,1.45264-3.28418,2.36914-5.33057,2.65625-2.04639-.28711-3.88721-1.20361-5.33496-2.66064-1.48242-1.47314-2.40674-3.35986-2.67285-5.45654-.06348-.49951-.48877-.87402-.99219-.87402-.2666,0-.51318-.10205-.71191-.30566-.18597-.18109-.28802-.42757-.28809-.69407-.00014-.54361.45742-1.00027,1-1.00027.26514,0,.51953-.10547.70703-.29297s.29297-.44189.29297-.70703v-1h3.16992c1.74512,0,3.45947-.59863,4.82812-1.6665.52313.41107,1.09497.74591,1.70062,1.00934l-1.52435,1.12592c-.44434.32812-.53809.9541-.20996,1.39844l4.75244,6.43506c.31062.4206.94393.5454,1.39844.20996l1.02997-.76068c-.45343.94946-1.05237,1.82629-1.81464,2.58344ZM43.37387,36.70299c-.01403.27631-.14455.54664-.38657.72523-.36719.27051-.87988.24414-1.2168-.06201l-5.45648-4.95502.84998-.62769.72711-.53693s5.17138,4.69629,5.17154,4.69643c.22314.20243.32522.48419.31122.75998ZM38.34204,28.79395l-3.91541-5.30109,7.10651-10.57654,9.00739,12.19592-12.19849,3.6817ZM52.99268,25.06592l-10.69385-14.479,1.60889-1.18848,10.69385,14.479-1.60889,1.18848Z" fill="#010101"/>
    </g>
  </g>
</svg>