<?xml version="1.0" encoding="UTF-8"?>
<svg xmlns="http://www.w3.org/2000/svg" version="1.1" viewBox="0 0 64 64">
  <!-- Generator: Adobe Illustrator 28.7.1, SVG Export Plug-In . SVG Version: 1.2.0 Build 142)  -->
  <g>
    <g id="Outline">
      <g>
        <path d="M54.28613,7h-5.04199c-.95508,0-1.82227.49609-2.2627,1.29492-.08594.15625-.29102.26074-.51074.26074h-.91992c-1.40625,0-2.55078,1.08008-2.55078,2.40723v2.03711h-6c-.55273,0-1,.44727-1,1v10h-5v-1c0-.55273-.44727-1-1-1h-13c-5.51367,0-10,4.48633-10,10s4.48633,10,10,10h13c.55273,0,1-.44727,1-1v-1h5v10c0,.55273.44727,1,1,1h6.02441c.24982,3.34631,3.27911,6,6.97559,6,3.85938,0,7-2.89062,7-6.44434v-7c0-1.40918-1.21777-2.55566-2.71387-2.55566h-5.04199c-.95508,0-1.82227.49609-2.2627,1.29492-.08594.15625-.29102.26074-.51074.26074h-.91992c-1.40625,0-2.55078,1.08008-2.55078,2.40723v4.03711h-5v-10c0-.55273-.44727-1-1-1h-6v-1c0-.55273-.44727-1-1-1h-13c-2.20605,0-4-1.79395-4-4s1.79395-4,4-4h13c.55273,0,1-.44727,1-1v-1h6c.55273,0,1-.44727,1-1v-10h5v1.55566c0,3.55371,3.14062,6.44434,7,6.44434s7-2.89062,7-6.44434v-7c0-1.40918-1.21777-2.55566-2.71387-2.55566ZM50,55c-2.62518,0-4.76093-1.81427-4.96112-4.10266l1.82245-.55164c.24902-.0752.45996-.24609.58594-.47461l.69727-1.26465.99805-.45312,1.30176.59082c.26367.11914.56445.11914.82617,0l.7334-.33301.48633,1.32227c.1084.29492.34863.52148.64844.6123l1.82245.55164c-.2002,2.28839-2.33594,4.10266-4.96112,4.10266ZM45.55078,44.55566h.91992c.95605,0,1.82324-.49707,2.2627-1.2959.08594-.15527.29102-.25977.51074-.25977h5.04199c.38672,0,.71387.25488.71387.55566v5.26398l-.80469-.24347-.68554-1.86523c-.20028-.54493-.82298-.80021-1.35156-.56641l-1.30078.59082-1.30176-.59082c-.26367-.11914-.56445-.11914-.82617,0l-1.71387.77734c-.19629.08984-.3584.23926-.46289.42871l-.66113,1.19922-.8916.26978v-3.85669c0-.2207.25195-.40723.55078-.40723ZM29,40h-2v-2h2v2ZM11,32c0,3.30859,2.69141,6,6,6h8v2h-8c-4.41113,0-8-3.58887-8-8s3.58887-8,8-8h8v2h-8c-3.30859,0-6,2.69141-6,6ZM29,26h-2v-2h2v2ZM45,10.96289c0-.2207.25195-.40723.55078-.40723h.91992c.95605,0,1.82324-.49707,2.2627-1.2959.08594-.15527.29102-.25977.51074-.25977h5.04199c.38672,0,.71387.25488.71387.55566v5.26398l-.80469-.24347-.68555-1.86523c-.20018-.54465-.823-.8002-1.35156-.56641l-1.30078.59082-1.30176-.59082c-.26367-.11914-.56445-.11914-.82617,0l-1.71387.77734c-.19629.08984-.3584.23926-.46289.42871l-.66113,1.19922-.8916.26978v-3.85669ZM50,21c-2.62518,0-4.76093-1.81427-4.96112-4.10266l1.82245-.55164c.24902-.0752.45996-.24609.58594-.47461l.69727-1.26465.99805-.45312,1.30176.59082c.26367.11914.56445.11914.82617,0l.7334-.33301.48633,1.32227c.1084.29492.34863.52148.64844.6123l1.82245.55164c-.2002,2.28839-2.33594,4.10266-4.96112,4.10266Z" fill="#010101"/>
        <path d="M54.28613,24h-5.04199c-.95508,0-1.82227.49609-2.2627,1.29492-.08594.15625-.29102.26074-.51074.26074h-.91992c-1.40625,0-2.55078,1.08008-2.55078,2.40723v3.03711h-11c-.55273,0-1,.44727-1,1s.44727,1,1,1h11v.55566c0,3.55371,3.14062,6.44434,7,6.44434s7-2.89062,7-6.44434v-7c0-1.40918-1.21777-2.55566-2.71387-2.55566ZM45.55078,27.55566h.91992c.95605,0,1.82324-.49707,2.2627-1.2959.08594-.15527.29102-.25977.51074-.25977h5.04199c.38672,0,.71387.25488.71387.55566v5.26398l-.80469-.24347-.68554-1.86522c-.20039-.54523-.82527-.7992-1.35157-.56642l-1.30078.59082-1.30176-.59082c-.26367-.11914-.56445-.11914-.82617,0l-1.71387.77734c-.19629.08984-.3584.23926-.46289.42871l-.66113,1.19922-.8916.26978v-3.85669c0-.2207.25195-.40723.55078-.40723ZM50,38c-2.62518,0-4.76093-1.81427-4.96112-4.10266l1.82245-.55164c.24902-.0752.45996-.24609.58594-.47461l.69727-1.26465.99805-.45312,1.30176.59082c.26367.11914.56445.11914.82617,0l.7334-.33301.48633,1.32227c.1084.29492.34863.52148.64844.6123l1.82245.55164c-.2002,2.28839-2.33594,4.10266-4.96112,4.10266Z" fill="#010101"/>
      </g>
    </g>
  </g>
</svg>