<?xml version="1.0" encoding="UTF-8"?>
<svg xmlns="http://www.w3.org/2000/svg" version="1.1" viewBox="0 0 64 64">
  <!-- Generator: Adobe Illustrator 28.7.1, SVG Export Plug-In . SVG Version: 1.2.0 Build 142)  -->
  <g>
    <g id="Outline">
      <g>
        <path d="M25,37c4.7746,0,9.19714-2.24402,12.02368-6.04865,2.01831,1.29034,4.4082,2.04865,6.97632,2.04865,7.16846,0,13-5.83203,13-13s-5.83154-13-13-13c-3.5481,0-6.76569,1.43195-9.11371,3.74432-2.73041-2.4137-6.19745-3.74432-9.88629-3.74432-8.271,0-15,6.72852-15,15,0,4.04242,1.61456,7.70929,4.22345,10.40936l-6.68828,11.58866c-1.09259,1.89311-.41871,4.37359,1.46532,5.4678,1.88634,1.08799,4.37376.41446,5.46582-1.46582l6.65192-11.52759c1.24054.33319,2.53748.52759,3.88177.52759ZM33.05066,21h6.05042c.46466,2.2793,2.4845,4,4.89893,4,1.01746,0,1.96259-.30908,2.75317-.83319l4.28064,4.28101c-1.90833,1.59161-4.36035,2.55219-7.03381,2.55219-5.72791,0-10.44183-4.4021-10.94934-10ZM31,20c0,2.37146.6488,4.58978,1.76263,6.50598-1.60156,2.77679-4.51971,4.49402-7.76263,4.49402-4.9624,0-9-4.03711-9-9s4.0376-9,9-9c2.54657,0,4.9353,1.07922,6.65076,2.96033-.4176,1.27307-.65076,2.62878-.65076,4.03967ZM44,17c1.6543,0,3,1.3457,3,3s-1.3457,3-3,3-3-1.3457-3-3,1.3457-3,3-3ZM54.94934,21c-.20697,2.28284-1.11084,4.36639-2.50146,6.03375l-4.28076-4.28113c.34753-.52435.60193-1.1156.73181-1.75262h6.05042ZM54.94934,19h-6.05042c-.39874-1.95605-1.94287-3.50018-3.89893-3.89893v-6.05042c5.26801.4776,9.47174,4.68134,9.94934,9.94934ZM43,9.05066v6.05042c-1.95605.39874-3.50018,1.94287-3.89893,3.89893h-6.05042c.4776-5.26801,4.68134-9.47174,9.94934-9.94934ZM25,9c3.20367,0,6.21381,1.15802,8.58142,3.25793-.40332.54126-.77081,1.10938-1.08734,1.71069-2.03137-1.89526-4.6842-2.96863-7.49408-2.96863-6.06543,0-11,4.93457-11,11s4.93457,11,11,11c3.64813,0,6.97644-1.76544,9.01031-4.69373.4267.51233.89929.98315,1.39862,1.4245-2.44952,3.30371-6.26807,5.26923-10.40894,5.26923-7.16846,0-13-5.83203-13-13s5.83154-13,13-13ZM12.73535,46.99805c-.55513.95597-1.78445,1.28412-2.73314.73648-.94029-.5428-1.28132-1.79529-.73609-2.73452l6.47644-11.22107c1.04614.82397,2.19672,1.52112,3.43982,2.04614l-6.44702,11.17297Z" fill="#010101"/>
        <path d="M28,51h-4c-.55225,0-1,.44727-1,1v4c0,.55273.44775,1,1,1h4c.55225,0,1-.44727,1-1v-4c0-.55273-.44775-1-1-1ZM27,55h-2v-2h2v2Z" fill="#010101"/>
        <path d="M56,51h-24c-.55225,0-1,.44727-1,1v4c0,.55273.44775,1,1,1h24c.55225,0,1-.44727,1-1v-4c0-.55273-.44775-1-1-1ZM55,55h-22v-2h22v2Z" fill="#010101"/>
        <path d="M28,43h-4c-.55225,0-1,.44727-1,1v4c0,.55273.44775,1,1,1h4c.55225,0,1-.44727,1-1v-4c0-.55273-.44775-1-1-1ZM27,47h-2v-2h2v2Z" fill="#010101"/>
        <path d="M56,43h-24c-.55225,0-1,.44727-1,1v4c0,.55273.44775,1,1,1h24c.55225,0,1-.44727,1-1v-4c0-.55273-.44775-1-1-1ZM55,47h-22v-2h22v2Z" fill="#010101"/>
        <path d="M36,35c-.55225,0-1,.44727-1,1v4c0,.55273.44775,1,1,1h4c.55225,0,1-.44727,1-1v-4c0-.55273-.44775-1-1-1h-4ZM39,39h-2v-2h2v2Z" fill="#010101"/>
        <path d="M56,35h-12c-.55225,0-1,.44727-1,1v4c0,.55273.44775,1,1,1h12c.55225,0,1-.44727,1-1v-4c0-.55273-.44775-1-1-1ZM55,39h-10v-2h10v2Z" fill="#010101"/>
      </g>
    </g>
  </g>
</svg>