<?xml version="1.0" encoding="UTF-8"?>
<svg xmlns="http://www.w3.org/2000/svg" version="1.1" viewBox="0 0 64 64">
  <!-- Generator: Adobe Illustrator 28.7.1, SVG Export Plug-In . SVG Version: 1.2.0 Build 142)  -->
  <g>
    <g id="Outline">
      <g>
        <path d="M51,23h-3.66998l-8.36005-15.48004c-.25995-.47998-.87-.65997-1.34998-.39996l-3.51998,1.89994c-.49334.26628-.65614.86781-.41001,1.36007l.14001.23999-8.06,8.58002-6.89001,3.72998c-.03998.01001-.06.04999-.09003.07001h-5.78998c-.54999,0-1,.45001-1,1v6c0,.54999.45001,1,1,1h1v3c0,.28998.13.57001.34998.76001l12.65002,10.69995v7.54004c0,.41998.26001.78998.65002.94,0,0,8,3,8.00003,3.00001.63751.2317,1.34995-.25602,1.34995-.94001v-10.54004l12.65002-10.69995c.21997-.19.34998-.47003.34998-.76001v-3h1c.54999,0,1-.45001,1-1v-6c0-.54999-.45001-1-1-1ZM37.69,9.34998l7.59998,14.08002-1.75995.95001-7.60004-14.07001,1.76001-.96002ZM34.83002,12.47998l6.27997,11.63-10.38,1.82001-3.12-5.77002,7.22003-7.67999ZM34.40997,33.69c.38243.46132.23744,1.17079-.27997,1.45996-.41003.22003-.91003.12-1.20001-.22998l-4.71002-5.67999,1.73004-.92999s4.4571,5.37655,4.45996,5.38ZM25.98999,21.35999l2.85004,5.28003-5.28003,2.84998-2.84998-5.28003,5.27997-2.84998ZM14,29v-4h4.85999l2.16003,4h-7.02002ZM48,33.53998l-12.65002,10.70001c-.21997.19-.34998.46997-.34998.76001v9.56l-6-2.25v-7.31c0-.29004-.13-.57001-.34998-.76001l-12.65002-10.70001v-2.53998h6.09998l.18005.32c.2576.45783.88181.68091,1.34998.39997l2.79999-1.51001,4.96002,5.98004c.89048,1.0736,2.46152,1.37507,3.68993.72001,1.62866-.8685,2.03666-3.08787.87007-4.50004l-1.16998-1.40997h13.21997v2.53998ZM50,29h-16.88l-1.06-1.27002,10.06-1.76001.13.23999c.25219.46554.8531.67515,1.34998.41003l3-1.62h3.40002v4Z" fill="#010101"/>
        <path d="M22,47h-2v-5c0-.55225-.44727-1-1-1h-4c-.55273,0-1,.44775-1,1v5h-2c-.36328,0-.69824.19727-.875.51514-.17578.31787-.16602.70654.02734,1.01465l4.99998,7.99997c.38546.61673,1.31048.6164,1.69533.00003l5-8c.19336-.30811.20312-.69678.02734-1.01465-.17676-.31787-.51172-.51514-.875-.51514ZM17,54.11328l-3.19531-5.11328h1.19531c.55273,0,1-.44775,1-1v-5h2v5c0,.55225.44727,1,1,1h1.19531l-3.19531,5.11328Z" fill="#010101"/>
        <path d="M52.875,47.51514c-.17676-.31787-.51172-.51514-.875-.51514h-2v-5c0-.55225-.44727-1-1-1h-4c-.55273,0-1,.44775-1,1v5h-2c-.36328,0-.69824.19727-.875.51514-.17578.31787-.16602.70654.02734,1.01465l4.99998,7.99997c.38582.61731,1.30945.61806,1.69533.00003l5-8c.19336-.30811.20312-.69678.02734-1.01465ZM47,54.11328l-3.19531-5.11328h1.19531c.55273,0,1-.44775,1-1v-5h2v5c0,.55225.44727,1,1,1h1.19531l-3.19531,5.11328Z" fill="#010101"/>
      </g>
    </g>
  </g>
</svg>