<?xml version="1.0" encoding="UTF-8"?>
<svg xmlns="http://www.w3.org/2000/svg" version="1.1" viewBox="0 0 64 64">
  <!-- Generator: Adobe Illustrator 28.7.1, SVG Export Plug-In . SVG Version: 1.2.0 Build 142)  -->
  <g>
    <g id="Outline">
      <g>
        <path d="M22,19c.55176,0,1,.44873,1,1,0,.55225.44727,1,1,1s1-.44775,1-1c0-1.30194-.8385-2.40161-2-2.81573v-.18427c0-.55225-.44727-1-1-1s-1,.44775-1,1v.18427c-1.1615.41412-2,1.51379-2,2.81573,0,1.6543,1.3457,3,3,3,.55176,0,1,.44873,1,1s-.44824,1-1,1-1-.44873-1-1c0-.55225-.44727-1-1-1s-1,.44775-1,1c0,1.30194.8385,2.40155,2,2.81567v.18433c0,.55225.44727,1,1,1s1-.44775,1-1v-.18427c1.1615-.41412,2-1.51379,2-2.81573,0-1.6543-1.3457-3-3-3-.55176,0-1-.44873-1-1s.44824-1,1-1Z" fill="#010101"/>
        <path d="M48,19c-4.96289,0-9,4.0376-9,9v8c0,3.51947,2.61377,6.43225,6,6.9201v1.0799c0,1.30194.8385,2.40155,2,2.81567v4.68433c0,1.92969-1.57031,3.5-3.5,3.5s-3.5-1.57031-3.5-3.5v-3.5c0-2.75684-2.24316-5-5-5s-5,2.24316-5,5v3.5c0,1.92969-1.57031,3.5-3.5,3.5s-3.5-1.57031-3.5-3.5v-5.5h1c.55273,0,1-.44775,1-1v-5h1.99998c.77443,0,1.25943-.87368.84768-1.52979l-1.35229-2.16364c6.16223-1.94049,10.50464-7.74579,10.50464-14.30658,0-8.271-6.72852-15-15-15s-15,6.729-15,15c0,6.56079,4.34241,12.36609,10.50464,14.30658l-1.35229,2.16362c-.41202.65922.07204,1.5298.84765,1.5298h2v5c0,.55225.44727,1,1,1h1v5.5c0,3.03271,2.46777,5.5,5.5,5.5s5.5-2.46729,5.5-5.5v-3.5c0-1.6543,1.3457-3,3-3s3,1.3457,3,3v3.5c0,3.03271,2.46777,5.5,5.5,5.5s5.5-2.46729,5.5-5.5v-4.68427c1.1615-.41412,2-1.51379,2-2.81573v-1.0799c3.38623-.48785,6-3.40063,6-6.9201v-8c0-4.9624-4.03711-9-9-9ZM22.84766,30.47021c-.36523-.58496-1.33008-.58496-1.69531,0l-.28003.44806c-4.45728-.56201-7.87231-4.367-7.87231-8.91827,0-4.9624,4.03711-9,9-9s9,4.0376,9,9c0,4.55127-3.41504,8.35626-7.87231,8.91827l-.28003-.44806ZM9,22c0-7.16846,5.83203-13,13-13s13,5.83154,13,13c0,5.86328-4.00464,11.02161-9.61005,12.53796l-1.1181-1.789c5.00336-1.05664,8.72815-5.495,8.72815-10.74896,0-6.06543-4.93457-11-11-11s-11,4.93457-11,11c0,5.25397,3.72479,9.69232,8.72815,10.74896l-1.1181,1.789c-5.60541-1.51636-9.61005-6.67468-9.61005-12.53796ZM20,38h-1.19531l3.19531-5.11328,2.07928,3.32739c.00238.00385.0047.00751.00708.01129l1.10895,1.7746h-1.19531c-.55273,0-1,.44775-1,1v5h-2v-5c0-.55225-.44727-1-1-1ZM48,21c3.85938,0,7,3.14014,7,7v5h-14v-5c0-3.85986,3.14062-7,7-7ZM41,36v-1h6v6h-1c-2.75684,0-5-2.24316-5-5ZM49,44c0,.55127-.44824,1-1,1s-1-.44873-1-1v-1h2v1ZM50,41h-1v-6h6v1c0,2.75684-2.24316,5-5,5Z" fill="#010101"/>
      </g>
    </g>
  </g>
</svg>