<?xml version="1.0" encoding="UTF-8"?>
<svg xmlns="http://www.w3.org/2000/svg" version="1.1" viewBox="0 0 64 64">
  <!-- Generator: Adobe Illustrator 28.7.1, SVG Export Plug-In . SVG Version: 1.2.0 Build 142)  -->
  <g>
    <g id="Outline">
      <g>
        <path d="M56.96997,39.76001l-2-8c-.10999-.45001-.50995-.76001-.96997-.76001h-5.14001l-.5-3.25c-.57996-3.72003-2.89996-6.85004-6.23999-8.53003.04999-5.88-4.06-11.02997-9.91998-12.20001-.13-.02997-.27002-.02997-.40002,0-5.85999,1.17004-9.96997,6.32001-9.91998,12.20001-3.34003,1.67999-5.66003,4.81-6.23999,8.53003l-.5,3.25h-5.14001c-.46002,0-.85999.31-.96997.76001l-2,8c-.14769.59076.28677,1.23999.96997,1.23999h8v15c0,.54999.45001,1,1,1h7c.54999,0,1-.45001,1-1s-.45001-1-1-1h-6v-10h28v10h-18c-.54999,0-1,.45001-1,1s.45001,1,1,1h19c.54999,0,1-.45001,1-1v-15s8,0,8.00056,0c.65012-.00037,1.12859-.60324.96941-1.23999ZM41.96997,21.40997c2.36005,1.46002,3.98004,3.85004,4.41003,6.64001l.45001,2.95001h-5.73004l.87-9.59003ZM45.71997,39h-27.43994l1.5-6h24.43994l1.5,6ZM32,9.01996c2.63.58002,4.83002,2.13,6.27002,4.20001-1.88,1.17004-4.03003,1.78003-6.27002,1.78003s-4.39001-.60999-6.27002-1.78003c1.44-2.07001,3.64001-3.62,6.27002-4.20001ZM24.75,14.96997c2.17999,1.33002,4.65997,2.03003,7.25,2.03003s5.07001-.70001,7.25-2.03003c.67999,1.54999.98999,3.29004.83002,5.10004l-.98999,10.92999h-14.18005l-.98999-10.92999c-.15997-1.81.15002-3.55005.83002-5.10004ZM16.21997,39h-6.93994l1.5-6h6.93994l-1.5,6ZM17.16998,31l.45001-2.95001c.42999-2.78998,2.04999-5.17999,4.41003-6.64001l.87,9.59003h-5.73004ZM46,43h-28v-2h28v2ZM47.78003,39l-1.5-6h6.93994l1.5,6h-6.93994Z" fill="#010101"/>
        <path d="M32,29c2.20605,0,4-2.24316,4-5s-1.79395-5-4-5-4,2.24316-4,5,1.79395,5,4,5ZM32,21c1.08398,0,2,1.37402,2,3s-.91602,3-2,3-2-1.37402-2-3,.91602-3,2-3Z" fill="#010101"/>
      </g>
    </g>
  </g>
</svg>