<?xml version="1.0" encoding="UTF-8"?>
<svg xmlns="http://www.w3.org/2000/svg" version="1.1" viewBox="0 0 64 64">
  <!-- Generator: Adobe Illustrator 28.7.1, SVG Export Plug-In . SVG Version: 1.2.0 Build 142)  -->
  <g>
    <g id="Outline">
      <g>
        <path d="M25,37c6.13739,0,11.41888-3.70905,13.73883-9h11.26117c3.30859,0,6-2.69141,6-6s-2.69141-6-6-6h-11.26117c-2.31995-5.29095-7.60144-9-13.73883-9-8.271,0-15,6.729-15,15,0,4.04218,1.61456,7.70911,4.22351,10.40924,0,0-6.68835,11.58881-6.68836,11.58882-1.0972,1.89035-.41498,4.37719,1.46535,5.46826,1.88812,1.08901,4.37376.41469,5.46581-1.46631l6.65192-11.52765c1.24054.33325,2.53748.52765,3.88177.52765ZM54,22c0,2.20557-1.79443,4-4,4h-2v-8h2c2.20557,0,4,1.79443,4,4ZM46,18v8h-6.55811c.35394-1.2757.55811-2.61316.55811-4s-.20416-2.7243-.55811-4h6.55811ZM25,9c7.16846,0,13,5.83154,13,13s-5.83154,13-13,13-13-5.83154-13-13,5.83154-13,13-13ZM12.73535,46.99805c-.55512.95595-1.78342,1.2846-2.73309.73748-.91159-.52518-1.28644-1.78857-.73615-2.73553l6.4765-11.22119c1.0462.82404,2.19672,1.52112,3.43976,2.0462l-6.44702,11.17303Z" fill="#010101"/>
        <path d="M25,33c6.06543,0,11-4.93457,11-11s-4.93457-11-11-11-11,4.93457-11,11,4.93457,11,11,11ZM25,13c4.9624,0,9,4.0376,9,9s-4.0376,9-9,9-9-4.0376-9-9,4.0376-9,9-9Z" fill="#010101"/>
        <path d="M22.89317,25.50694c.38861.3885,1.02551.38835,1.41396-.0001l5.6001-5.59961c.39062-.39062.39062-1.02344,0-1.41406s-1.02344-.39062-1.41406,0l-4.89307,4.89258-2.09326-2.09277c-.39062-.39062-1.02344-.39062-1.41406,0s-.39062,1.02393,0,1.41406c0,0,2.80029,2.7998,2.80039,2.79991Z" fill="#010101"/>
        <path d="M56,55h-3v-15c0-.54999-.45001-1-1-1h-6c-.54999,0-1,.45001-1,1v15h-2v-9c0-.54999-.45001-1-1-1h-6c-.54999,0-1,.45001-1,1v9h-2v-11c0-.54999-.45001-1-1-1h-6c-.54999,0-1,.45001-1,1v11h-3c-.54999,0-1,.45001-1,1s.45001,1,1,1h34c.54999,0,1-.45001,1-1s-.45001-1-1-1ZM31,55h-4v-10h4v10ZM41,55h-4v-8h4v8ZM51,55h-4v-14h4v14Z" fill="#010101"/>
        <path d="M44,35c-.33447,0-.64648.16699-.83203.44531l-3.70312,5.55469h-4.16211l-2.74805-1.83203c-.16406-.10938-.35742-.16797-.55469-.16797h-9c-.55225,0-1,.44775-1,1s.44775,1,1,1h8.69727l2.74805,1.83203c.16406.10938.35742.16797.55469.16797h5c.33447,0,.64648-.16699.83203-.44531l3.70312-5.55469h11.46484c.55225,0,1-.44775,1-1s-.44775-1-1-1h-12Z" fill="#010101"/>
      </g>
    </g>
  </g>
</svg>