<?xml version="1.0" encoding="UTF-8"?>
<svg xmlns="http://www.w3.org/2000/svg" version="1.1" viewBox="0 0 64 64">
  <!-- Generator: Adobe Illustrator 28.7.1, SVG Export Plug-In . SVG Version: 1.2.0 Build 142)  -->
  <g>
    <g id="Outline">
      <g>
        <path d="M27.16113,24.94922c-.28709-.4317-.91471-.59453-1.38672-.27881l-3.33008,2.21484c-.45996.30566-.58496.92627-.2793,1.38623l.16339.24573-8.3653,11.21265-6.51684,4.33313c-.45774.30436-.58446.92645-.2793,1.38623l4.42966,6.66159c.30471.45824.92975.58305,1.38674.27884l2.64813-1.76105,5.48761,5.50128c.98288.98533,2.57919,1.14474,3.73624.37457,1.53272-1.02023,1.75913-3.25268.45712-4.5567l-4.26653-4.27637,12.02881-2.99152.16351.24591c.30408.45731.93111.5821,1.38672.27881l3.331-2.21481c.44642-.29683.57405-.94226.27935-1.38627,0,0-11.05394-16.6238-11.07422-16.6543ZM12.70898,50.1709l-3.32227-4.99658,4.99591-3.32214,3.32147,4.99646-4.99512,3.32227ZM24.1673,54.13382c-.02756.27598-.17043.54033-.41926.70554-.37988.25244-.88965.20166-1.21289-.12158l-5.20544-5.21844,1.63214-1.08539s4.92991,4.94168,4.93477,4.94656c.21102.21152.29815.4982.27067.77332ZM19.53357,45.98669l-3.6485-5.48804,7.61957-10.21246,8.39459,12.62561-12.36566,3.07489ZM34.35059,42.98584l-9.96582-14.98926,1.66406-1.10693,9.9668,14.98877-1.66504,1.10742Z" fill="#010101"/>
        <path d="M17,27c1.15234,0,2.27539-.19482,3.33984-.57959.51953-.1875.78809-.76074.60059-1.28027-.1875-.52002-.76172-.78564-1.28027-.60059-.8457.30566-1.74023.46045-2.66016.46045-4.41113,0-8-3.58887-8-8s3.58887-8,8-8,8,3.58887,8,8v2.5c0,.82715-.67285,1.5-1.5,1.5s-1.5-.67285-1.5-1.5v-6.5c0-.55225-.44727-1-1-1s-1,.44775-1,1v.02557c-.83826-.63458-1.87006-1.02557-3-1.02557-2.75684,0-5,2.24316-5,5s2.24316,5,5,5c1.24506,0,2.37109-.47394,3.24731-1.22968.5105,1.30194,1.77209,2.22968,3.25269,2.22968,1.92969,0,3.5-1.57031,3.5-3.5v-2.5c0-5.51416-4.48633-10-10-10s-10,4.48584-10,10,4.48633,10,10,10ZM17,20c-1.6543,0-3-1.3457-3-3s1.3457-3,3-3,3,1.3457,3,3-1.3457,3-3,3Z" fill="#010101"/>
        <path d="M34.0078,28.87605c-.0795.63944.47433,1.19919,1.11622,1.11613l4.06055-.50732c1.7832.99219,3.78613,1.51514,5.81543,1.51514,6.61719,0,12-5.3833,12-12s-5.38281-12-12-12-12,5.3833-12,12c0,2.02881.52246,4.03223,1.51465,5.81543,0,0-.50684,4.06055-.50685,4.06062ZM45,9c5.51367,0,10,4.48584,10,10s-4.48633,10-10,10c-1.78516,0-3.54688-.48682-5.09668-1.4082-.15527-.09229-.33203-.14062-.51074-.14062-.04102,0-.08301.00244-.12402.00781l-3.11719.38916.38965-3.1167c.02734-.2207-.01953-.44434-.13281-.63525-.9209-1.54883-1.4082-3.31104-1.4082-5.09619,0-5.51416,4.48633-10,10-10Z" fill="#010101"/>
        <circle cx="45" cy="19" r="1" fill="#010101"/>
        <circle cx="49" cy="19" r="1" fill="#010101"/>
        <circle cx="41" cy="19" r="1" fill="#010101"/>
        <path d="M51.31348,39c-1.20801,0-2.35547.40088-3.31348,1.14453-.95801-.74365-2.10547-1.14453-3.31348-1.14453-3.13574,0-5.68652,2.74805-5.68652,6.12598,0,5.57471,8.07324,11.43945,8.4162,11.68616.35037.25141.82016.24942,1.16779-.00013.34277-.24658,8.41602-6.11133,8.41602-11.68604,0-3.37793-2.55078-6.12598-5.68652-6.12598ZM48,54.75c-2.38867-1.85742-7-6.15723-7-9.62402,0-2.2749,1.65332-4.12598,3.68652-4.12598.96777,0,1.88281.41748,2.5752,1.17578.37891.41504,1.09766.41504,1.47656,0,.69238-.7583,1.60742-1.17578,2.5752-1.17578,2.0332,0,3.68652,1.85107,3.68652,4.12598,0,3.4668-4.61133,7.7666-7,9.62402Z" fill="#010101"/>
      </g>
    </g>
  </g>
</svg>