<?xml version="1.0" encoding="UTF-8"?>
<svg xmlns="http://www.w3.org/2000/svg" version="1.1" viewBox="0 0 64 64">
  <!-- Generator: Adobe Illustrator 28.7.1, SVG Export Plug-In . SVG Version: 1.2.0 Build 142)  -->
  <g>
    <g id="Outline">
      <g>
        <path d="M12.24268,16.48535l-1.41406,1.41406c-.5487.5487-.2701,1.50738.48193,1.68164,0,0,9.19238,2.12158,9.19252,2.12161.70044.16013,1.36095-.497,1.19957-1.19974l-2.12158-9.19238c-.08203-.354-.34961-.63574-.69873-.73633-.34863-.09863-.72559-.00342-.98291.25439l-1.41406,1.41406-4.94971-4.94971c-.39062-.39062-1.02344-.39062-1.41406,0l-2.82861,2.82861c-.39062.39062-.39062,1.02344,0,1.41406l4.94971,4.94971ZM10.82861,9.41406l4.94971,4.94971c.39062.39062,1.02344.39062,1.41406,0l.84521-.84521,1.35596,5.875-5.875-1.35596.84521-.84521c.39062-.39062.39062-1.02344,0-1.41406l-4.94971-4.94971,1.41455-1.41455Z" fill="#010101"/>
        <path d="M42.56494,21.43506c.24406.24406.59766.34409.93213.26758l9.19233-2.12157c.75601-.17448,1.02988-1.1348.48198-1.68165l-1.41406-1.41406,4.94971-4.94971c.39062-.39062.39062-1.02344,0-1.41406l-2.82861-2.82861c-.39062-.39062-1.02344-.39062-1.41406,0l-4.94971,4.94971-1.41404-1.41404c-.54013-.54013-1.51024-.25785-1.68166.48191l-2.12158,9.19238c-.07714.3359.0239.68839.26758.93213ZM45.9624,13.51855l.84521.84521c.39062.39062,1.02344.39062,1.41406,0l4.94971-4.94971,1.41455,1.41455-4.94971,4.94971c-.39062.39062-.39062,1.02344,0,1.41406l.84521.84521-5.875,1.35596,1.35596-5.875Z" fill="#010101"/>
        <path d="M51.75732,47.51465l1.41406-1.41406c.25732-.25684.35449-.6333.25439-.98291-.10059-.34912-.38232-.6167-.73633-.69873l-9.19238-2.12158c-.33594-.07666-.68848.02393-.93213.26758s-.34473.59619-.26758.93213l2.12158,9.19237c.17345.75151,1.13464,1.03104,1.68164.48195l1.41406-1.41406s4.94971,4.94971,4.94975,4.94975c.38716.38711,1.02685.38712,1.41402-.00005l2.82861-2.82861c.39062-.39062.39062-1.02344,0-1.41406l-4.94971-4.94971ZM53.17139,54.58594l-4.94963-4.94963c-.36882-.36882-1.02056-.39365-1.41414-.00007l-.84521.84521-1.35596-5.875,5.875,1.35596-.84521.84521c-.39062.39062-.39062,1.02344,0,1.41406l4.94971,4.94971-1.41455,1.41455Z" fill="#010101"/>
        <path d="M21.43506,42.56494c-.24365-.24463-.59668-.34473-.93213-.26758l-9.19238,2.12158c-.354.08203-.63574.34961-.73633.69873-.1001.34961-.00293.72607.25439.98291l1.41406,1.41406-4.94971,4.94971c-.39062.39062-.39062,1.02344,0,1.41406l2.82861,2.82861c.3701.3701,1.01857.39551,1.41407,0l4.94971-4.94971,1.41404,1.41404c.52502.52502,1.50474.28163,1.68167-.48191l2.12158-9.19238c.07715-.33594-.02393-.68848-.26758-.93213ZM18.0376,50.48145l-.84521-.84521c-.39062-.39062-1.02344-.39062-1.41406,0l-4.94971,4.94971-1.41455-1.41455,4.94971-4.94971c.39062-.39062.39062-1.02344,0-1.41406l-.84521-.84521,5.875-1.35596-1.35596,5.875Z" fill="#010101"/>
        <path d="M22.76562,10.94385c2.90576-1.29004,6.0127-1.94385,9.23438-1.94385s6.32861.65381,9.23454,1.94392c.50061.22238,1.09696-.00669,1.31966-.50838.22412-.50488-.00342-1.0957-.5083-1.31982-3.1626-1.40381-6.54297-2.11572-10.0459-2.11572s-6.8833.71191-10.0459,2.11572c-.50488.22412-.73242.81494-.5083,1.31982s.81543.73145,1.31982.5083Z" fill="#010101"/>
        <path d="M41.23438,53.05615c-2.90576,1.29004-6.0127,1.94385-9.23438,1.94385s-6.32861-.65381-9.23438-1.94385c-.50244-.22363-1.09521.00342-1.31982.5083-.22412.50488.00342,1.0957.5083,1.31982,3.1626,1.40381,6.54297,2.11572,10.0459,2.11572s6.8833-.71191,10.0459-2.11572c.50488-.22412.73242-.81494.5083-1.31982-.22461-.50537-.81592-.73389-1.31982-.5083Z" fill="#010101"/>
        <path d="M10.03022,42.63693c.13682.00161.27498-.0248.40532-.08273.50488-.22412.73242-.81494.5083-1.31982-1.29004-2.90576-1.94385-6.0127-1.94385-9.23438s.65381-6.32861,1.94385-9.23438c.22412-.50488-.00342-1.0957-.5083-1.31982-.50244-.22266-1.09521.00391-1.31982.5083-1.40381,3.1626-2.11572,6.54297-2.11572,10.0459s.71187,6.88308,2.11558,10.04559c.16171.36432.53293.58685.91464.59134Z" fill="#010101"/>
        <path d="M53.56445,21.4458c-.50488.22412-.73242.81494-.5083,1.31982,1.29004,2.90576,1.94385,6.0127,1.94385,9.23438s-.65381,6.32861-1.94385,9.23438c-.22411.50485.00339,1.09562.5082,1.31978.47822.21235,1.09397.00097,1.31993-.50826,1.40381-3.1626,2.11572-6.54297,2.11572-10.0459s-.71191-6.8833-2.11572-10.0459c-.22461-.50488-.81592-.73291-1.31982-.5083Z" fill="#010101"/>
        <path d="M23.71582,14.8999c2.60059-1.26074,5.38818-1.8999,8.28418-1.8999s5.68359.63916,8.28448,1.90005c.49449.23929,1.09595.03042,1.33563-.46401.24072-.49658.0332-1.09521-.46387-1.33594-2.87451-1.39355-5.95557-2.1001-9.15625-2.1001s-6.28174.70654-9.15625,2.1001c-.49707.24072-.70459.83936-.46387,1.33594.2417.49756.84131.7041,1.33594.46387Z" fill="#010101"/>
        <path d="M40.28418,49.1001c-2.60059,1.26074-5.38818,1.8999-8.28418,1.8999s-5.68359-.63916-8.28418-1.8999c-.49561-.23877-1.09473-.0332-1.33594.46387-.24072.49658-.0332,1.09521.46387,1.33594,2.87451,1.39355,5.95557,2.1001,9.15625,2.1001s6.28174-.70654,9.15625-2.1001c.49707-.24072.70459-.83936.46387-1.33594-.24023-.49707-.83936-.70215-1.33594-.46387Z" fill="#010101"/>
        <path d="M14.43604,22.37988c-.49609-.23975-1.09473-.03369-1.33594.46387-1.39355,2.87451-2.1001,5.95557-2.1001,9.15625s.70654,6.28172,2.10008,9.15622c.22947.47334.83497.70653,1.33595.46389.49707-.24072.70459-.83936.46387-1.33594-1.26074-2.60059-1.8999-5.38818-1.8999-8.28418s.63916-5.68359,1.8999-8.28418c.24072-.49658.0332-1.09521-.46387-1.33594Z" fill="#010101"/>
        <path d="M49.56412,41.62019c.49157.23797,1.09719.02821,1.33578-.46394,1.39355-2.87451,2.1001-5.95557,2.1001-9.15625s-.70654-6.28174-2.1001-9.15625c-.24072-.49756-.84082-.70264-1.33594-.46387-.49707.24072-.70459.83936-.46387,1.33594,1.26074,2.60059,1.8999,5.38818,1.8999,8.28418s-.63916,5.68359-1.8999,8.28418c-.24072.49658-.0332,1.09521.46402,1.33601Z" fill="#010101"/>
        <path d="M46,32c0-7.71973-6.28027-14-14-14s-14,6.28027-14,14,6.28027,14,14,14,14-6.28027,14-14ZM32,44c-6.6167,0-12-5.3833-12-12s5.3833-12,12-12,12,5.3833,12,12-5.3833,12-12,12Z" fill="#010101"/>
        <path d="M32,22c-5.51416,0-10,4.48584-10,10s4.48584,10,10,10,10-4.48584,10-10-4.48584-10-10-10ZM27.0437,38.26776c.22211-2.38672,2.21277-4.26776,4.65649-4.26776h.59961c2.44373,0,4.43439,1.88104,4.65649,4.26776-1.36432,1.08118-3.08435,1.73224-4.9563,1.73224s-3.59198-.65106-4.9563-1.73224ZM32,32c-1.10303,0-2-.89697-2-2s.89697-2,2-2,2,.89697,2,2-.89697,2-2,2ZM38.61725,36.4892c-.61145-1.74127-1.91876-3.15466-3.591-3.90344.59845-.6994.97375-1.59534.97375-2.58575,0-2.20557-1.79443-4-4-4s-4,1.79443-4,4c0,.99042.37531,1.88635.97375,2.58575-1.67224.74878-2.97955,2.16217-3.591,3.90344-.87183-1.28094-1.38275-2.82629-1.38275-4.4892,0-4.41113,3.58887-8,8-8s8,3.58887,8,8c0,1.6629-.51093,3.20825-1.38275,4.4892Z" fill="#010101"/>
      </g>
    </g>
  </g>
</svg>