<?xml version="1.0" encoding="UTF-8"?>
<svg xmlns="http://www.w3.org/2000/svg" version="1.1" viewBox="0 0 64 64">
  <!-- Generator: Adobe Illustrator 28.7.1, SVG Export Plug-In . SVG Version: 1.2.0 Build 142)  -->
  <g>
    <g id="Outline">
      <g>
        <path d="M56,7h-26c-.55225,0-1,.44727-1,1v11H8c-.55225,0-1,.44727-1,1v24c0,.55273.44775,1,1,1h44c.55225,0,1-.44727,1-1v-19h3c.55225,0,1-.44727,1-1V8c0-.55273-.44775-1-1-1ZM51,43H9v-22h20v3c0,.55273.44775,1,1,1h21v18ZM55,23h-24v-14h24v14Z" fill="#010101"/>
        <path d="M34,21c.55225,0,1-.44727,1-1v-2h2v2c0,.55273.44775,1,1,1s1-.44727,1-1v-6c0-1.6543-1.3457-3-3-3s-3,1.3457-3,3v6c0,.55273.44775,1,1,1ZM36,13c.55127,0,1,.44824,1,1v2h-2v-2c0-.55176.44873-1,1-1Z" fill="#010101"/>
        <path d="M41,21h2c1.6543,0,3-1.3457,3-3v-4c0-1.6543-1.3457-3-3-3h-2c-.55225,0-1,.44727-1,1v8c0,.55273.44775,1,1,1ZM42,13h1c.55127,0,1,.44824,1,1v4c0,.55176-.44873,1-1,1h-1v-6Z" fill="#010101"/>
        <path d="M50,19c-.55127,0-1-.44824-1-1,0-.55273-.44775-1-1-1s-1,.44727-1,1c0,1.6543,1.3457,3,3,3s3-1.3457,3-3-1.3457-3-3-3c-.55127,0-1-.44824-1-1s.44873-1,1-1,1,.44824,1,1c0,.55273.44775,1,1,1s1-.44727,1-1c0-1.6543-1.3457-3-3-3s-3,1.3457-3,3,1.3457,3,3,3c.55127,0,1,.44824,1,1s-.44873,1-1,1Z" fill="#010101"/>
        <path d="M22.47412,23.14941c-.29443.18262-.47412.50391-.47412.85059v15.99995c0,.7439.78548,1.22432,1.44727.89458,0,0,15.90476-7.95238,15.99957-7.99979.72994-.36497.72725-1.42481.00043-1.78928l-16-8c-.31006-.1543-.67871-.13867-.97314.04395ZM24,25.61816l12.76416,6.38184-12.76416,6.38184v-12.76367Z" fill="#010101"/>
        <path d="M12,47c-2.75684,0-5,2.24316-5,5s2.24316,5,5,5,5-2.24316,5-5-2.24316-5-5-5ZM12,55c-1.6543,0-3-1.3457-3-3s1.3457-3,3-3,3,1.3457,3,3-1.3457,3-3,3Z" fill="#010101"/>
        <path d="M52,51h-22v-1c0-.55273-.44775-1-1-1s-1,.44727-1,1v1h-8c-.55225,0-1,.44727-1,1s.44775,1,1,1h8v1c0,.55273.44775,1,1,1s1-.44727,1-1v-1h22c.55225,0,1-.44727,1-1s-.44775-1-1-1Z" fill="#010101"/>
        <circle cx="12" cy="52" r="1" fill="#010101"/>
      </g>
    </g>
  </g>
</svg>