<?xml version="1.0" encoding="UTF-8" standalone="no"?>
<svg width="192" height="192" viewBox="0 0 192 192" version="1.1" xmlns="http://www.w3.org/2000/svg">
  <!-- Fondo cuadrado con bordes redondeados -->
  <rect x="0" y="0" width="192" height="192" rx="45" ry="45" style="fill:#dd1f26;"/>

  <!-- Logo centrado y escalado -->
  <g transform="translate(96, 96) scale(0.14)">
    <path d="M715.128,354.292c0,-96.549 0,-101.937 61.033,-107.266c3.327,0 6.036,-12.091 -0.687,-11.394c-21.423,2.669 -54.3,4.004 -82.456,4.004c-39.55,0 -70.405,-0.667 -99.228,-4.004c-6.703,-0.697 -2.679,11.394 -0.667,11.394c59.648,6.703 63.025,6.703 63.025,107.266l0,201.126c0,144.824 -21.453,199.144 -114.656,239.381c-2.012,0.667 -0.667,13.396 4.691,11.384c128.729,-50.266 168.946,-118.659 168.946,-250.765l0,-201.126Zm-278.193,0c0,-96.549 0,-101.937 60.973,-107.266c3.396,0 6.046,-12.091 -0.637,-11.394c-21.473,2.669 -54.34,4.004 -82.466,4.004c-39.58,0 -70.445,-0.667 -99.258,-4.004c-6.703,-0.697 -2.679,11.394 -0.667,11.394c59.678,6.703 63.015,6.703 63.015,107.266l0,201.126c0,144.824 -21.443,199.144 -114.626,239.381c-2.012,0.667 -0.687,13.396 4.691,11.384c128.729,-50.266 168.976,-118.659 168.976,-250.765l0,-201.126Z" style="fill:#fff;fill-rule:nonzero;"/>
  </g>
</svg>
