<svg xmlns="http://www.w3.org/2000/svg" xmlns:xlink="http://www.w3.org/1999/xlink" viewBox="0 0 4680 3120"><defs><style>.cls-1{fill:#EC221F;}.cls-2{fill:#fff;}.cls-3{fill:#4f4f4f;}.cls-4{opacity:0.13;}.cls-5{fill:gray;}.cls-6{fill:#333;}.cls-7{fill:#1a1a1a;}.cls-8{fill:#999;}.cls-9{fill:#ed1c24;}.cls-10{fill:#666;}.cls-11{opacity:0.15;}.cls-12{mask:url(#mask);}.cls-13{fill:#b3b3b3;}.cls-14{fill:#f2f2f2;}.cls-15{fill:#777;}.cls-16{fill:#2291f2;}.cls-17{fill:#445ef2;}.cls-18{fill:#535353;}.cls-19{fill:#e6e6e6;}.cls-20{fill:#4d4d4d;}.cls-21{fill:#0e1d73;}.cls-22{fill:#fcc0a9;}.cls-23{fill:#fc9a74;}.cls-24{fill:red;}.cls-25{opacity:0.3;}.cls-26{mask:url(#mask-2);}.cls-27{opacity:0.5;}.cls-28{mask:url(#mask-3);}.cls-29{fill:#e38c74;}.cls-30{fill:#d97559;}.cls-31{opacity:0.1;}.cls-32{fill:#ccc;}.cls-33{fill:#1c1c1c;}.cls-34{mask:url(#mask-4);}.cls-35{opacity:0.2;}.cls-36{fill:#231f20;}</style><mask id="mask" x="2363.16" y="1675.73" width="1644.79" height="133.83" maskUnits="userSpaceOnUse"><rect class="cls-1" x="2393.53" y="1729.41" width="1564.49" height="80.16" rx="40.08" transform="translate(6351.55 3538.97) rotate(-180)"/></mask><mask id="mask-2" x="2975.73" y="886.99" width="218.48" height="219.05" maskUnits="userSpaceOnUse"><path class="cls-2" d="M3054.07,944.16c22.11,33.89,74.68,54.45,28.77,129.83l92.87,18.87S3260.92,912.79,3065.63,891,3054.07,944.16,3054.07,944.16Z"/></mask><mask id="mask-3" x="2872.51" y="807.89" width="196.14" height="167.86" maskUnits="userSpaceOnUse"><path class="cls-3" d="M3050.31,853c-12.12-27.94-132.21-78.09-173.59-13.77-8.71,17.56-1.21,35.22-1.21,35.22,4.3-2.93,3.5-26.18,26.18-13.6,53.54-22.48,76.1,24,107.64,62.26-4.48,22.27-3.46,52.64-3.46,52.64,31-6.82,51.33-12.19,55-42.37h0C3064.43,909.56,3058.39,871.61,3050.31,853Z"/></mask><mask id="mask-4" x="1020.98" y="588.52" width="267.99" height="104.11" maskUnits="userSpaceOnUse"><path class="cls-2" d="M1076.08,690.18c101.21-10.25,221.14,29.88,180.16-39.28s-65.75-63.18-74.29-61.48-15.37,18.79-72.57,11.1S1024,633,1029.12,655.17,1058.35,692,1076.08,690.18Z"/></mask></defs><g id="_7" data-name="7"><rect class="cls-2" width="4680" height="3120"/><g class="cls-4"><rect x="672.05" y="2386.12" width="3301.97" height="43.78"/><rect x="2963.44" y="618.09" width="376.48" height="477.97"/><rect class="cls-5" x="3020.07" y="674.72" width="263.23" height="364.72"/><path class="cls-6" d="M3283.3,892.91v146.53H3020.07V975.5c98.1-57.11,113.21-54,153.5-89.17C3207,857.23,3256.16,869.65,3283.3,892.91Z"/><circle class="cls-6" cx="3135.15" cy="803.59" r="32.67" transform="translate(-68.87 1260.94) rotate(-22.5)"/><rect class="cls-6" x="3189.2" y="752.86" width="52.39" height="4.55" transform="translate(193.93 2089.22) rotate(-37.04)"/><rect class="cls-6" x="3155.37" y="720.35" width="34.92" height="4.55" transform="matrix(0.29, -0.96, 0.96, 0.29, 1571.07, 3555.19)"/><rect class="cls-6" x="3116.93" y="705.39" width="4.55" height="34.48" transform="translate(-82.13 778.08) rotate(-14.04)"/><rect class="cls-6" x="3059.44" y="761.11" width="4.55" height="34.87" transform="translate(1022.94 3191.76) rotate(-64.07)"/><rect class="cls-6" x="3087.66" y="734.98" width="4.55" height="40.32" transform="translate(201.3 2086.94) rotate(-38.49)"/><rect class="cls-6" x="3059.79" y="826.36" width="32.08" height="4.55" transform="translate(-24.23 1561.45) rotate(-28.38)"/><rect class="cls-6" x="3068.47" y="866.65" width="42.94" height="4.55" transform="translate(579.46 2868.99) rotate(-54.25)"/><rect x="3410.98" y="800.45" width="376.48" height="477.97"/><rect class="cls-5" x="3467.6" y="857.07" width="263.23" height="364.72"/><path class="cls-6" d="M3730.84,1075.27V1221.8H3467.61v-63.94c98.09-57.11,113.21-54,153.5-89.17C3654.52,1039.59,3703.7,1052,3730.84,1075.27Z"/><circle class="cls-6" cx="3582.69" cy="985.95" r="32.67" transform="translate(1799.98 4246.27) rotate(-76.72)"/><rect class="cls-6" x="3636.73" y="935.22" width="52.39" height="4.55" transform="translate(174.37 2395.55) rotate(-37.04)"/><rect class="cls-6" x="3602.91" y="902.71" width="34.92" height="4.55" transform="translate(1715.68 4114.08) rotate(-73.34)"/><rect class="cls-6" x="3564.47" y="887.75" width="4.55" height="34.48" transform="translate(-113 892.11) rotate(-14.04)"/><rect class="cls-6" x="3506.97" y="943.46" width="4.55" height="34.87" transform="translate(1110.81 3696.89) rotate(-64.07)"/><rect class="cls-6" x="3535.2" y="917.34" width="4.55" height="40.32" transform="translate(185.03 2405.05) rotate(-38.48)"/><rect class="cls-6" x="3507.32" y="1008.72" width="32.08" height="4.55" transform="translate(-57.05 1796.38) rotate(-28.38)"/><rect class="cls-6" x="3516.01" y="1049.01" width="42.94" height="4.55" transform="translate(617.53 3308.02) rotate(-54.25)"/><rect class="cls-7" x="1220.28" y="610.99" width="1560.41" height="44.03"/><path d="M2781.07,655.4H1219.91V610.62H2781.07Zm-1560.41-.76H2780.32V611.37H1220.66Z"/><rect class="cls-5" x="1269.59" y="655.02" width="1461.79" height="936.91"/><rect class="cls-7" x="1220.28" y="1591.93" width="1560.41" height="44.03"/><path d="M2781.07,1636.34H1219.91v-44.78H2781.07Zm-1560.41-.76H2780.32v-43.27H1220.66Z"/><rect class="cls-7" x="1350.48" y="762.45" width="318.76" height="35.22"/><path d="M1669.39,797.81H1350.34v-35.5h319.05Zm-318.77-.28h318.49V762.59H1350.62Z"/><rect class="cls-7" x="1831.45" y="762.45" width="318.76" height="35.22"/><path d="M2150.35,797.81h-319v-35.5h319Zm-318.76-.28h318.48V762.59H1831.59Z"/><rect class="cls-7" x="2306.95" y="762.45" width="318.76" height="35.22"/><path d="M2625.85,797.81h-319v-35.5h319Zm-318.76-.28h318.48V762.59H2307.09Z"/><path d="M1509.69,764.08v686c0,9.26-.18,18.54,0,27.81,0,.4,0,.81,0,1.21,0,1.8,1.49,2.47,3,1.73a5.94,5.94,0,0,0,2.89-5v-686c0-9.26.18-18.55,0-27.81,0-.4,0-.81,0-1.21,0-1.81-1.49-2.47-3-1.73a5.93,5.93,0,0,0-2.88,5Z"/><path d="M1761.27,1481.19c1.87,0,3.42-1.83,4-3.49.37-1.1.77-4-1.19-4s-3.42,1.83-4,3.49c-.38,1.1-.77,4,1.18,4Z"/><path d="M1761.27,766.18c1.87,0,3.42-1.83,4-3.49.37-1.1.77-4-1.19-4s-3.42,1.83-4,3.49c-.38,1.1-.77,4,1.18,4Z"/><path d="M2226.3,1481.19c1.87,0,3.42-1.83,4-3.49.37-1.1.77-4-1.19-4s-3.42,1.83-4,3.49c-.38,1.1-.77,4,1.18,4Z"/><path d="M2226.3,766.18c1.87,0,3.42-1.83,4-3.49.37-1.1.77-4-1.19-4s-3.42,1.83-4,3.49c-.38,1.1-.77,4,1.18,4Z"/><path d="M1331.59,853.43h1264c17.05,0,34.12.17,51.17,0H2649c3.17,0,6.29-7.46,2.8-7.46h-1264c-17,0-34.11-.17-51.17,0h-2.23c-3.18,0-6.3,7.46-2.81,7.46Z"/><path class="cls-6" d="M1642.12,2189.41s26.51,326.31,101,326.31h95.85c74.44,0,101-326.31,101-326.31Z"/><path class="cls-8" d="M1801.47,1998.92c-139-43.42-101-91.78-59.14-157S1779,1744.1,1779,1744.1s95.86-52.12,107.07-79.65c79.54,92.79,79.54,77.32,64.25,117.18s9.17,110.22-7.14,144.89S1817.79,2004,1801.47,1998.92Z"/><path class="cls-6" d="M1800.45,2236.33a2.86,2.86,0,0,1-2.86-2.71c-5.74-104-2.48-191.91,10-268.87,10.23-63.25,26.58-119.18,51.45-176a2.87,2.87,0,1,1,5.26,2.31c-37.48,85.66-74,205.2-61,442.27a2.87,2.87,0,0,1-2.71,3Z"/><path class="cls-6" d="M1816.78,1933.47a2.87,2.87,0,0,1-1.85-5.07c2.51-2.12,62-51.91,96.84-62.75a2.88,2.88,0,0,1,1.71,5.49c-33.73,10.5-94.25,61.15-94.86,61.66A2.84,2.84,0,0,1,1816.78,1933.47Z"/><path class="cls-6" d="M1825,1898.07a2.87,2.87,0,0,1-2.58-1.61c-28.26-57.57-48.74-61.69-48.94-61.73a2.85,2.85,0,0,1-2.44-3.22,2.89,2.89,0,0,1,3.25-2.47c.94.13,23.28,3.76,53.29,64.89a2.87,2.87,0,0,1-2.58,4.14Z"/><path class="cls-6" d="M1844.76,1834.77a2.88,2.88,0,0,1-.76-5.65c.38-.1,37.69-10.56,61.26-41a2.87,2.87,0,1,1,4.54,3.52c-24.78,32-62.69,42.6-64.29,43A2.78,2.78,0,0,1,1844.76,1834.77Z"/><path class="cls-6" d="M1852.82,1813.76a2.86,2.86,0,0,1-2.06-.88c-1.34-1.37-32.73-34-28.57-59.9a2.88,2.88,0,0,1,5.68.91c-3.71,23,26.7,54.67,27,55a2.88,2.88,0,0,1-2.06,4.88Z"/><path class="cls-8" d="M1696.35,1949.15c-29.54-36.46-89.19-31.34-123.39-56.38-18.35,86.68,28.55,99.93,9.18,148.88s18.35,112.17,75.46,108.09,67.3,9.18,67.3,9.18,11.43-22.43,42.59-59.14S1744.28,2008.29,1696.35,1949.15Z"/><path class="cls-6" d="M1740.54,2319.85a2.88,2.88,0,0,1-2.87-2.67c-4.4-63.33-7.94-96.3-10.79-122.8-2.75-25.57-4.92-45.76-6.89-82.21-2.14-39.62-29.76-81.67-52.55-110a439.8,439.8,0,0,0-43.37-46.61,2.87,2.87,0,0,1,3.83-4.28,446.67,446.67,0,0,1,44,47.28c23.32,29,51.59,72.14,53.81,113.28,2,36.3,4.13,56.42,6.87,81.91,2.85,26.54,6.4,59.58,10.81,123a2.88,2.88,0,0,1-2.67,3.07Z"/><path class="cls-6" d="M1669.14,2003.26c-5.36,0-43.41-.57-62.34-16.52a2.87,2.87,0,1,1,3.7-4.39c18.33,15.43,58.74,15.19,59.15,15.16a2.84,2.84,0,0,1,2.9,2.84,2.87,2.87,0,0,1-2.84,2.91Z"/><path class="cls-6" d="M1688.53,2028.72a2.79,2.79,0,0,1-1-.2,2.86,2.86,0,0,1-1.63-3.72c.12-.32,12.62-32.8,9.68-58.28a2.87,2.87,0,1,1,5.71-.66c3.11,26.91-9.5,59.65-10,61A2.88,2.88,0,0,1,1688.53,2028.72Z"/><path class="cls-6" d="M1714.09,2080.24c-8,0-46.53-1-89.2-18.6a2.87,2.87,0,1,1,2.19-5.31c45.76,18.9,87.9,18.16,88.32,18.15a2.87,2.87,0,1,1,.13,5.74C1715.37,2080.23,1714.88,2080.24,1714.09,2080.24Z"/><path class="cls-6" d="M1721.38,2102.23a2.88,2.88,0,0,1-2.57-4.14c.22-.46,22.46-46,18.88-71.85a2.88,2.88,0,0,1,5.7-.79c3.81,27.58-18.48,73.24-19.43,75.18A2.88,2.88,0,0,1,1721.38,2102.23Z"/><path class="cls-9" d="M1957.42,2051.54c-4.7,0-7.78-.08-8.35-.09l.08-2.61c.7,0,69.94,1.86,83.8-13.45l1.93,1.75C2023.09,2050.16,1976.68,2051.54,1957.42,2051.54Z"/><path class="cls-8" d="M2078.62,1930.44c-70,52.78-128.54,33.83-155.52,41.43s-54,11.26-76.48,54.79-31.32,102.26-3.46,142.94c0,0,65.88,5.35,102.3,6.58s33.14-61.77,57-79.72,48.92-54.44,59.78-102.56S2078.62,1930.44,2078.62,1930.44Z"/><path class="cls-6" d="M1801.15,2271.15a3,3,0,0,1-1.12-.23,2.88,2.88,0,0,1-1.52-3.77c1.72-4.06,42.56-99.54,69-122.75,16.26-14.27,35.66-39.46,60.23-71.35,10.8-14,23-29.91,36.3-46.51,4.74-5.93,9.23-11.48,13.73-17a2.87,2.87,0,1,1,4.44,3.64c-4.48,5.47-9,11-13.68,16.92-13.23,16.56-25.45,32.43-36.23,46.42-24.77,32.15-44.32,57.54-61,72.17-25.48,22.35-67.11,119.7-67.52,120.68A2.89,2.89,0,0,1,1801.15,2271.15Z"/><path class="cls-6" d="M1959.41,2039.89a2.86,2.86,0,0,1-2.79-2.19c-.31-1.26-7.31-31,5-55.55a2.87,2.87,0,1,1,5.14,2.57c-11.3,22.63-4.58,51.34-4.51,51.63a2.86,2.86,0,0,1-2.12,3.46A2.56,2.56,0,0,1,1959.41,2039.89Z"/><path class="cls-6" d="M1911.42,2101.71a2.88,2.88,0,0,1-2.85-2.5c-.31-2.34-7.48-57.64-3.21-86.5a2.88,2.88,0,1,1,5.69.85c-4.16,28.06,3.14,84.34,3.22,84.9a2.87,2.87,0,0,1-2.48,3.23Z"/><path class="cls-6" d="M1895.68,2134.83c-6.88,0-11.51-.07-11.64-.07a2.87,2.87,0,0,1-2.84-2.91,2.84,2.84,0,0,1,2.92-2.83c.39,0,39.31.52,60.25-1.51a2.87,2.87,0,1,1,.56,5.72C1930.9,2134.59,1909,2134.83,1895.68,2134.83Z"/><path class="cls-10" d="M1922.34,2325.21c-15.43,89.59-42,190.51-83.41,190.51h-95.86c-15.7,0-29.26-14.51-40.91-37.43C1797,2456.18,1866.18,2390.14,1922.34,2325.21Z"/><rect class="cls-6" x="2393.53" y="1729.41" width="1564.49" height="80.16" rx="40.08" transform="translate(6351.55 3538.97) rotate(-180)"/><polygon points="3824.68 2504.92 3845.15 2504.92 3868.87 1809.57 3800.95 1809.57 3824.68 2504.92"/><g class="cls-11"><polygon points="3800.95 1809.56 3801.96 1838.95 3867.86 1838.95 3868.87 1809.56 3800.95 1809.56"/></g><polygon points="3605.44 2504.92 3625.91 2504.92 3649.63 1809.57 3581.72 1809.57 3605.44 2504.92"/><g class="cls-11"><polygon points="3581.72 1809.56 3582.72 1838.95 3648.63 1838.95 3649.63 1809.56 3581.72 1809.56"/></g><polygon points="2735.16 2504.92 2755.63 2504.92 2779.36 1809.57 2711.44 1809.57 2735.16 2504.92"/><g class="cls-11"><polygon points="2711.43 1809.56 2712.44 1838.95 2778.34 1838.95 2779.36 1809.56 2711.43 1809.56"/></g><polygon points="2511.53 2504.92 2532 2504.92 2555.72 1809.57 2487.81 1809.57 2511.53 2504.92"/><g class="cls-11"><polygon points="2487.81 1809.56 2488.82 1838.95 2554.72 1838.95 2555.73 1809.56 2487.81 1809.56"/></g><rect x="2521.77" y="1974.44" width="1313.14" height="39.65" transform="translate(6356.68 3988.53) rotate(180)"/><g class="cls-12"><rect class="cls-13" x="2363.16" y="1771.02" width="296.67" height="4.58"/><rect class="cls-13" x="2396.28" y="1756.17" width="237.3" height="4.58"/><rect class="cls-13" x="3433.98" y="1792.07" width="540.04" height="4.58"/><rect class="cls-13" x="3204.76" y="1777.67" width="318.84" height="4.58"/><rect class="cls-13" x="3433.98" y="1767.19" width="137.7" height="4.58"/><rect class="cls-13" x="3523.6" y="1750.9" width="180.4" height="4.58"/><rect class="cls-13" x="3204.76" y="1750.9" width="280.88" height="4.58"/><path class="cls-13" d="M2721.53,1796.65l-.16-4.58c126.41-4.29,152.33-27.31,229.27-95.65,7.4-6.57,15.05-13.37,23.39-20.69l3,3.45c-8.33,7.31-16,14.1-23.37,20.67C2875.82,1769,2849.59,1792.31,2721.53,1796.65Z"/><path class="cls-13" d="M2762.09,1771.77l-.31-4.57c57-3.81,77.09-27.45,104.88-60.16,6.26-7.36,12.73-15,20.12-23l3.36,3.11c-7.32,7.92-13.76,15.5-20,22.83C2842.71,1742.31,2821,1767.83,2762.09,1771.77Z"/><path class="cls-13" d="M2725,1760.68c-15.09,0-28.38-2.38-37.7-4-2.61-.47-4.86-.87-6.83-1.17-26.92-4.1-23.07-57.52-22.89-59.8l4.57.36c0,.51-3.73,51.45,19,54.91,2,.31,4.31.72,6.95,1.19,30.51,5.46,94,16.83,135.11-57.39l4,2.22c-18.35,33.13-43.52,53.57-74.79,60.76A122.12,122.12,0,0,1,2725,1760.68Z"/><path class="cls-13" d="M3851.72,1775.62a327,327,0,0,1-50.33-3.87c-17.59-2.74-30.59-10-38.64-21.57-12.73-18.3-8.39-40.55-8.2-41.49l4.49.91c0,.21-4.12,21.34,7.49,38,7.31,10.48,19.28,17.08,35.57,19.62,48,7.48,122.3,7.77,203.79-33.36L4008,1738a349,349,0,0,1-111,34.63A340.11,340.11,0,0,1,3851.72,1775.62Z"/><path class="cls-13" d="M3873.84,1760.75c-1.53,0-3.07,0-4.61-.06-29.8-.75-47.39-3.42-58.8-8.91-12.55-6-18.21-15.69-18.36-31.28l4.58,0c.13,13.8,4.85,21.93,15.77,27.19s27.81,7.72,56.93,8.46c53.47,1.37,103.19-22,103.69-22.27l2,4.13C3974.52,1738.21,3926.65,1760.75,3873.84,1760.75Z"/><rect class="cls-13" x="2908.7" y="1792.07" width="174.6" height="4.58"/></g><path class="cls-13" d="M3455,1430l68.59,255.09h122.62a44.5,44.5,0,0,1,44.5,44.51H3256.13l-78.34-291.32a16.06,16.06,0,0,1,15.51-20.22h246.12A16.14,16.14,0,0,1,3455,1430Z"/><polygon class="cls-14" points="3280.55 1657.03 3497.54 1657.03 3438.64 1443.01 3221.64 1443.01 3280.55 1657.03"/><path class="cls-8" d="M3194.28,1418.07l75.74,267h184.09a32.41,32.41,0,0,1,32.41,32.41v12.1H3256.13l-78.08-290.37a16.8,16.8,0,0,1,16.23-21.17Z"/><polygon points="3082.21 1618.24 3075.22 1617.22 3091.85 1503.03 3122.11 1483.61 3125.92 1489.56 3098.37 1507.24 3082.21 1618.24"/><path class="cls-10" d="M3038.55,1729.61h47.23a11.6,11.6,0,0,0,11.57-10.7l12.11-155.76h-94.59L3027,1718.91A11.6,11.6,0,0,0,3038.55,1729.61Z"/><rect class="cls-15" x="3006.24" y="1554.75" width="111.84" height="15.1" transform="translate(6124.33 3124.59) rotate(180)"/><rect class="cls-15" x="3019.18" y="1547.97" width="85.96" height="19.72" transform="translate(6124.33 3115.66) rotate(180)"/><path class="cls-10" d="M3040.66,2023.93h530.48a0,0,0,0,1,0,0v22.6a31.76,31.76,0,0,1-31.76,31.76H3040.66a0,0,0,0,1,0,0v-54.37A0,0,0,0,1,3040.66,2023.93Z" transform="translate(6611.8 4102.23) rotate(180)"/><rect class="cls-6" x="3507.46" y="2076.45" width="17.73" height="431.86" transform="translate(7032.64 4584.76) rotate(180)"/><rect class="cls-6" x="3277.01" y="2076.45" width="17.73" height="431.86" transform="translate(6571.76 4584.76) rotate(180)"/><rect class="cls-6" x="3187.81" y="2307.03" width="17.73" height="184.24" transform="translate(5595.82 -797.52) rotate(90)"/><rect class="cls-6" x="3422.31" y="2307.03" width="17.73" height="184.24" transform="translate(5830.33 -1032.02) rotate(90)"/><rect class="cls-6" x="3330.19" y="2076.45" width="17.73" height="431.86" transform="translate(6678.11 4584.76) rotate(180)"/><rect class="cls-6" x="3099.75" y="2076.45" width="17.73" height="431.86" transform="translate(6217.23 4584.76) rotate(180)"/><polygon class="cls-10" points="3649.75 1576.39 3608.13 1576.39 3532.03 2076.45 3573.66 2076.45 3649.75 1576.39"/><polygon class="cls-10" points="3362.29 1576.39 3320.66 1576.39 3244.57 2076.45 3286.2 2076.45 3362.29 1576.39"/><polygon class="cls-10" points="3309.9 1647.14 3638.98 1647.14 3647.5 1591.16 3318.42 1591.16 3309.9 1647.14"/><polygon class="cls-10" points="3275.95 1870.23 3605.04 1870.23 3609.85 1838.59 3280.77 1838.59 3275.95 1870.23"/><polygon class="cls-10" points="3515.33 1601.23 3475.81 1860.98 3503.82 1860.98 3543.34 1601.23 3515.33 1601.23"/><polygon class="cls-10" points="3419.51 1601.23 3379.99 1860.98 3408 1860.98 3447.52 1601.23 3419.51 1601.23"/></g><path class="cls-1" d="M1586,1672.34l-194.38-15.56c16.31-42.92,15.3-191,15.3-191l214.83,17.2S1615.74,1644.22,1586,1672.34Z"/><circle class="cls-6" cx="1514.5" cy="1476.4" r="23.39" transform="translate(-526.31 920.93) rotate(-29.04)"/><path class="cls-1" d="M1487.75,1632.68a52.91,52.91,0,1,1,70.43-25.29A53,53,0,0,1,1487.75,1632.68Z"/><circle class="cls-14" cx="1510.32" cy="1584.82" r="52.91"/><path class="cls-1" d="M1490.28,1615.48l3.55-7.54c-5.2-2.75-9.69-6.61-11.88-9.78l6.76-8.16a30.9,30.9,0,0,0,11.53,9.7c4.52,2.14,8.44,1.85,9.94-1.32s-.22-6.12-5.16-10.88c-7.15-6.86-11.07-13.56-7.44-21.26,3.3-7,10.8-10.14,20.08-7.8l3.55-7.54,7.78,3.67-3.29,7a31.62,31.62,0,0,1,10.27,8l-6.53,7.88a29.18,29.18,0,0,0-10.16-8.09c-5.15-2.43-7.87-1-8.92,1.23-1.23,2.62.76,5.59,6.31,11.32,7.87,7.78,9.62,14,6.25,21.09s-11.17,10.74-21.05,8l-3.82,8.1Z"/><path class="cls-16" d="M1704.86,850.29l168.49-13.49c-14.13-37.21-13.26-165.61-13.26-165.61L1673.86,686.1S1679.11,825.91,1704.86,850.29Z"/><circle class="cls-6" cx="1766.86" cy="680.43" r="20.28" transform="translate(-66 1155.21) rotate(-35.58)"/><path class="cls-14" d="M1722.92,805.88a3.22,3.22,0,0,0,4.45.82l30-20.7a3.19,3.19,0,0,0,.81-4.44L1750,769.74a3.2,3.2,0,0,0-4.44-.81l-30,20.7a3.19,3.19,0,0,0-.81,4.44Z"/><path class="cls-14" d="M1821.57,762.5a35.37,35.37,0,1,1,.73-11.7,35.37,35.37,0,0,1-.73,11.7m-9.33-2.18a25.43,25.43,0,0,0,.54-8.53h0a25.76,25.76,0,1,0-.54,8.53Z"/><path class="cls-16" d="M1832.67,1629.73l180.43-14.44C1998,1575.45,1998.9,1438,1998.9,1438l-199.41,16S1805.1,1603.63,1832.67,1629.73Z"/><circle class="cls-6" cx="1899.07" cy="1447.85" r="21.71" transform="translate(-486.48 1338.89) rotate(-34.71)"/><path class="cls-1" d="M1933.76,1495.8a50.86,50.86,0,1,0,15.34,70.28A50.92,50.92,0,0,0,1933.76,1495.8Zm-49.63,77.35a41,41,0,1,1,56.7-12.38A41.09,41.09,0,0,1,1884.13,1573.15Z"/><circle class="cls-14" cx="1906.29" cy="1538.61" r="41.04" transform="translate(-504.28 1974.97) rotate(-49.17)"/><path class="cls-1" d="M1887.81,1560.18l3.5-5.44a27.51,27.51,0,0,1-8.16-8.71l6-5.6a24.06,24.06,0,0,0,7.89,8.62c3.26,2.1,6.31,2.27,7.78,0s.44-4.73-2.88-8.88c-4.8-6-7.15-11.55-3.58-17.1,3.23-5,9.32-6.72,16.22-4l3.5-5.44,5.61,3.6-3.24,5a24.56,24.56,0,0,1,7.1,7.23l-5.82,5.4a22.55,22.55,0,0,0-7-7.24c-3.72-2.39-6-1.56-7,0-1.21,1.89,0,4.38,3.71,9.34,5.27,6.78,6,11.69,2.69,16.85s-9.67,7.13-17,4l-3.75,5.84Z"/><path class="cls-1" d="M1706.8,1086.76l-171.24-13.71c14.36-37.81,13.47-168.31,13.47-168.31l189.27,15.15S1733,1062,1706.8,1086.76Z"/><circle class="cls-6" cx="1643.79" cy="914.14" r="20.61" transform="translate(361.65 2290.29) rotate(-76.1)"/><polygon class="cls-14" points="1575.3 1041.34 1569.36 1038.39 1598.39 979.84 1644.81 1022.98 1690.66 960.79 1696.01 964.73 1645.74 1032.9 1600.38 990.75 1575.3 1041.34"/><polygon class="cls-14" points="1699.39 970.71 1701.53 951.64 1683.94 959.32 1699.39 970.71"/><path class="cls-13" d="M1502.61,950.15,1341.73,959c8.58-37-8.74-158.12-8.74-158.12l177.82-9.83S1523.8,923.82,1502.61,950.15Z"/><circle class="cls-6" cx="1412.84" cy="792.74" r="19.33" transform="translate(473.54 2112.68) rotate(-83.86)"/><path class="cls-17" d="M1411.15,905.54c-1.15.74-2.27,1.44-3.36,2.09a34.51,34.51,0,0,0,47.48-32,35,35,0,0,0-.44-5.55C1437.81,885.93,1423.16,897.82,1411.15,905.54Z"/><path class="cls-17" d="M1467.3,847.49c-4.25,1.89-10,3.7-14.48,4l4.54,2.19q-3.1,3-6.12,5.84a34.5,34.5,0,0,0-63.15,27.22c-6.74,5.94-12.68,14.48-11.78,19.45a6.49,6.49,0,0,0,4.61,5.23,10.13,10.13,0,0,0,3.12.45c5.41,0,13.26-3.29,23.4-9.81,14.26-9.17,32.26-24.22,53.5-44.73l2.09,4.59C1463.38,857.45,1465.31,851.69,1467.3,847.49Zm-84.82,59a1.47,1.47,0,0,1-1.14-1.27c-.53-2.91,2.64-9,8.68-14a34.36,34.36,0,0,0,2.67,4.4,34.89,34.89,0,0,0,5.41,6C1387.7,907.38,1383.6,906.87,1382.48,906.51Z"/><path class="cls-18" d="M1543.37,1299.89a493.37,493.37,0,0,1,89.85,107.92c1.83,3,6.72-3.42,5-6.14a497.69,497.69,0,0,0-90.82-108.82c-2.28-2.06-6.63,4.73-4.07,7Z"/><path class="cls-18" d="M1614.84,1309.08q-31.68,42-65.7,82.22c-2.69,3.19-.5,8.36,3,4.23q34-40.17,65.69-82.22c2.48-3.29.28-8.57-3-4.23Z"/><path class="cls-18" d="M1658.29,1351.27c30.83,9.92,63.42,1.12,91.09-13.8,14.42-7.77,27.89-17.15,41.28-26.55,6.72-4.71,13.42-9.44,20.24-14,7.35-4.92,14.78-9.64,23.72-10.9,2.5-.35,4.61-6.56,1.14-6.08-15.33,2.16-28.59,13.76-40.87,22.38-12.93,9.06-25.81,18.25-39.49,26.16-28,16.17-61.75,27.23-93.73,16.94-2.72-.88-5.82,5.06-3.38,5.85Z"/><path class="cls-18" d="M1799.53,1272.8l32.7,10.24c2.73.85,5.82-5.09,3.38-5.85l-32.7-10.25c-2.73-.85-5.82,5.09-3.38,5.86Z"/><path class="cls-18" d="M1833.52,1281.16a155.12,155.12,0,0,0-4.37,24.95c-.4,4.39,4.47,1.73,4.74-1.21a153.91,153.91,0,0,1,4.37-24.94c1.11-4.26-4-1.54-4.74,1.2Z"/><path class="cls-18" d="M1857.1,1244a269.34,269.34,0,0,1,18.72,47.45c1.68,5.8,9.56-2.83,8.31-7.14a280.61,280.61,0,0,0-19.61-49.35c-2.26-4.42-9.55,4.87-7.42,9Z"/><path class="cls-18" d="M1884.17,1288.94a277.54,277.54,0,0,1,111.59-80.73,8.57,8.57,0,0,0,5.21-6.44c.31-1.83-.44-5.39-3.18-4.32a292.59,292.59,0,0,0-118,85.27c-1.45,1.74-3.22,5.52-1.51,7.63s4.6.17,5.91-1.41Z"/><path class="cls-1" d="M2631.11,741a93,93,0,1,1,22.27-2.7,92.82,92.82,0,0,1-22.27,2.7Z"/><path class="cls-1" d="M2631.18,599.85a48.16,48.16,0,1,1-11.53,1.41,48.12,48.12,0,0,1,11.53-1.41m0-89.85a138,138,0,1,0,84.4,28.86,138.24,138.24,0,0,0-84.4-28.86Z"/><path class="cls-19" d="M2631.18,599.85a48.16,48.16,0,1,1-11.53,1.41,48.12,48.12,0,0,1,11.53-1.41m0-67.39a115.52,115.52,0,1,0,70.65,24.17,115.77,115.77,0,0,0-70.65-24.17Z"/><path class="cls-1" d="M2631.18,599.85a48.16,48.16,0,1,1-11.53,1.41,48.12,48.12,0,0,1,11.53-1.41m0-44.92a93,93,0,1,0,22.2,183.37,93,93,0,0,0,68.1-112.57,93,93,0,0,0-90.3-70.8Z"/><path class="cls-19" d="M2631.18,599.85a48.16,48.16,0,1,1-11.53,1.41,48.12,48.12,0,0,1,11.53-1.41m0-22.46a70.59,70.59,0,1,0,43.17,14.78,70.49,70.49,0,0,0-43.17-14.78Z"/><polygon class="cls-6" points="2625.95 649.24 2670.24 602.5 2665.93 629.14 2917.81 567.15 2928.57 530.07 2938.76 527.56 2928.01 564.64 2938.21 562.13 2948.96 525.05 2959.17 522.54 2948.41 559.62 2958.61 557.11 2969.37 520.03 2979.57 517.51 2968.81 554.6 2979.19 552.04 2983.95 571.38 2973.57 573.94 3000.31 601.79 2990.11 604.3 2963.37 576.45 2953.17 578.96 2979.91 606.81 2969.71 609.33 2942.97 581.47 2932.77 583.98 2959.51 611.84 2949.31 614.35 2922.57 586.49 2670.7 648.49 2686.88 670.08 2625.95 649.24"/><rect class="cls-5" x="2065.22" y="913.4" width="575.73" height="0.89"/><rect class="cls-5" x="2065.22" y="968.23" width="575.73" height="0.89"/><rect class="cls-5" x="2065.22" y="1023.07" width="575.73" height="0.89"/><rect class="cls-5" x="2065.22" y="1077.9" width="575.73" height="0.89"/><rect class="cls-5" x="2065.22" y="1132.73" width="575.73" height="0.89"/><rect class="cls-5" x="2065.22" y="1187.57" width="575.73" height="0.89"/><rect class="cls-5" x="2065.22" y="1242.4" width="575.73" height="0.89"/><rect class="cls-5" x="2065.22" y="1297.23" width="575.73" height="0.89"/><rect class="cls-5" x="2065.22" y="1352.06" width="575.73" height="0.89"/><polygon class="cls-20" points="2650.37 1455.06 2058 1455.06 2058.67 887.76 2073.09 887.78 2072.44 1440.64 2650.37 1440.64 2650.37 1455.06"/><polygon class="cls-16" points="2113.04 1391.67 2105.72 1385.19 2301.84 1163.46 2397.81 1102.49 2493.98 1046.22 2591.25 924.04 2598.89 930.12 2500.49 1053.74 2402.82 1110.88 2308.24 1170.96 2113.04 1391.67"/><circle class="cls-16" cx="2109.63" cy="1389.55" r="12.15"/><circle class="cls-16" cx="2305.32" cy="1167.9" r="12.15"/><circle class="cls-16" cx="2498.78" cy="1049.11" r="12.14" transform="translate(1062.96 3347.57) rotate(-80.78)"/><circle class="cls-16" cx="2595.07" cy="927.08" r="12.15"/><polygon class="cls-21" points="2225.28 1306.69 2105.61 1203.73 2113.14 1194.98 2222.03 1288.66 2330.18 1092.48 2408.9 1193.1 2496.82 1151.31 2597.73 1203.68 2592.41 1213.93 2496.59 1164.2 2405.5 1207.5 2331.85 1113.37 2225.28 1306.69"/><circle class="cls-21" cx="2329.61" cy="1102.92" r="12.15"/><circle class="cls-21" cx="2407.53" cy="1200.3" r="12.15"/><circle class="cls-21" cx="2498.78" cy="1157.76" r="12.15"/><circle class="cls-21" cx="2595.07" cy="1208.86" r="12.14" transform="translate(986.13 3576.78) rotate(-80.78)"/><polygon class="cls-1" points="2594.15 1412.14 2496 1393.27 2400.56 1383.74 2299.69 1329.87 2207.42 1213.85 2105.3 1018.21 2113.96 1013.69 2215.65 1208.5 2306.08 1322.2 2403.45 1374.21 2497.41 1383.59 2497.63 1383.63 2595.99 1402.54 2594.15 1412.14"/><circle class="cls-1" cx="2109.63" cy="1015.95" r="12.15"/><circle class="cls-1" cx="2211.86" cy="1212.44" r="12.15"/><circle class="cls-1" cx="2302.78" cy="1326.53" r="12.15"/><circle class="cls-1" cx="2402.25" cy="1378.42" r="12.15" transform="translate(-344.64 1024.22) rotate(-22.5)"/><circle class="cls-1" cx="2595.07" cy="1407.34" r="12.15"/><circle class="cls-21" cx="2109.38" cy="1200.3" r="12.15"/><path class="cls-13" d="M1935.93,1088.66l-160.62-12.85C1788.79,1040.34,1788,918,1788,918l177.52,14.21S1960.47,1065.43,1935.93,1088.66Z"/><rect class="cls-16" x="1819.77" y="1001.49" width="15.6" height="45.75" transform="translate(84.88 -138.55) rotate(4.44)"/><rect class="cls-6" x="1848.21" y="983.07" width="15.6" height="66.35" transform="translate(84.33 -140.77) rotate(4.44)"/><rect class="cls-1" x="1876.16" y="967.12" width="15.6" height="84.44" transform="translate(83.88 -142.95) rotate(4.44)"/><rect class="cls-6" x="1902.95" y="993.95" width="15.6" height="59.74" transform="translate(85.08 -144.98) rotate(4.44)"/><circle class="cls-6" cx="1876.82" cy="926.76" r="19.33" transform="translate(-152.89 1438.23) rotate(-40.42)"/><path class="cls-22" d="M2743.64,1268.49c-32.88,45-70.38,70.69-70.38,70.69s-136.75-42.26-154.06-57.91c-38.95-51.14-91.57-42.83-110.78-43.35-58-1.57-71.94,28.42-51.69,47s54.49,31.09,54.49,31.09,6.57,8.42,74.12-1.41c0,0,193.11,157.91,261.49,67.9s73-91.39,73-91.39Z"/><path class="cls-23" d="M2819.81,1291.07s-4.61,1.37-73,91.38-261.49-67.89-261.49-67.89c-27.49,4-44.88,5-55.83,4.74,10.94-1.49,27.48-5.1,52.37-12.81,0,0,215.65,141.61,269.34,35.3,13.38-26.51,23.69-46.54,31.64-61.67Z"/><path class="cls-1" d="M2856.3,1112.07S2751,1260.19,2736.88,1277.4c35.49,32.89,92.17,55.72,106.88,52.26S2997.73,1180.24,2856.3,1112.07Z"/><g class="cls-11"><path d="M2843.77,1329.66c-2.2.51-5.91,0-10.73-1.35,39.17-41.66,113.95-152,41.92-222.21C2999.54,1176.68,2858.12,1326.28,2843.77,1329.66Z"/></g><path class="cls-22" d="M2451.48,1239.67c-26.66-2-51.33,1.28-52.63,10.37s41.54,4.32,48.9,17.74"/><path class="cls-24" d="M3328.78,2513.15l-.69-.73c27.39-26.15,57.34-106.48,72.75-152l1,.33C3386.36,2406.35,3356.34,2486.85,3328.78,2513.15Z"/><path class="cls-22" d="M3143.22,2003.88c53,139.46,193.63,268.81,246.29,313.81a39.65,39.65,0,0,1,11.81,42.85c-14.46,42.75-45.06,125.69-72.88,152.25-38.09,36.35-24.24-65.78-20.78-147.14s-60.58-86.55-275.22-342.73Z"/><path class="cls-6" d="M3401.32,2360.54c-14.46,42.75-45.06,125.68-72.88,152.25-30.32,28.94-27.72-29.91-23.66-96.16,16.73-4.42,38.61-8.34,44.43-5.11,6.95,3.86,31.77-64.51,32.16-100.85,2.9,2.52,5.63,4.87,8.14,7A39.65,39.65,0,0,1,3401.32,2360.54Z"/><path class="cls-23" d="M3166.61,2055.06c-18.44,6.88-57.13,17-86.28,23.79q-9.42-10.76-19.3-22.25l92.11-28.92Q3159.38,2041.46,3166.61,2055.06Z"/><path class="cls-22" d="M2980.51,2021.19c-37.8,361.27-22.1,499.1-6,551.49a26.5,26.5,0,0,1-24,34.3c-96.68,4.86-317.19,10.93-188.12-44,162.72-69.24,117.71-53.67,100.4-593.73Z"/><path class="cls-23" d="M2976.55,2060.26q-2.51,25.48-4.64,49.37c-23.25,6.47-68,12.84-102.87,15q-1.38-28.54-2.71-60Z"/><path class="cls-6" d="M2950.52,2607c-96.69,4.86-317.19,10.93-188.12-44,21.88-9.32,40-17.1,54.95-24.9,7,9.4,14.08,19.93,14.73,24.46,0,0,95.74-9.07,132.72-36.1,2.87,20.15,6.26,35.12,9.67,46.24A26.48,26.48,0,0,1,2950.52,2607Z"/><g class="cls-25"><path d="M2950.52,2607c-68,3.41-197.11,7.43-223-9.57,52.21,4.16,161-10.66,223.11-20.18a29.31,29.31,0,0,0,21.13-14.36c.9,3.57,1.81,6.83,2.73,9.81A26.5,26.5,0,0,1,2950.52,2607Z"/></g><path class="cls-21" d="M3152.25,1464.62c56.31,290.43-52.77,247.59,42,565.66-328,82.65-368.69,62.31-368.69,62.31-1.3-170.07-70.11-323.26-10.81-628Z"/><g class="cls-11"><path d="M2820.52,2092.63c-.41-53.92-7.71-106.62-15.45-162.41-16.78-121-35.8-258.23,4.74-466.56l9.94,1.93c-40.22,206.68-21.32,343-4.65,463.24,7.78,56.13,15.13,109.14,15.55,163.72Z"/></g><g class="cls-11"><path d="M3194.29,2030.27q-23.43,5.89-44.91,11.11c-86.66-315.76,17.91-277.31-37.47-576.75h40.34C3208.57,1755.05,3099.47,1712.2,3194.29,2030.27Z"/></g><path class="cls-1" d="M2985.7,1064a859.45,859.45,0,0,0-110.13,31.19,34.57,34.57,0,0,0-19.07,48.65c22.76,43.16,51.73,122.08,15,199.72-54.53,115.11-65.71,126.36-72.63,148,0,0,102.11,112.51,375.06,20.77-8.72-143.24-97.84-174.82-15.65-380.3a34.64,34.64,0,0,0-24-46.55C2991.9,1051,2985.7,1064,2985.7,1064Z"/><g class="cls-11"><path d="M3173.89,1512.28c-8.73-143.24-97.84-174.82-15.65-380.3a34.65,34.65,0,0,0-18.86-44.89,42.62,42.62,0,0,1-2.54,36.38C3110.59,1170.36,3102,1229,3068,1249.9c.06-1.18-38.68,29.79-75.46-3-47.23-22.29-77.87,41.54-104.47-2.62,0,0-.23,18.63.32,35.81,7.77,20.83,32,48.23,58.16,49.74,38.37,2.21,103.55,24.78,125.82,44.35,5.07,49.93,17.13,97,12.91,162.34A767.92,767.92,0,0,0,3173.89,1512.28Zm-93.95-124.62c-.66,3.83-1,1.27-1-5.45A8.91,8.91,0,0,1,3079.94,1387.66Z"/></g><g class="cls-11"><path d="M3079.94,1387.66c-.66,3.83-1,1.27-1-5.45A8.91,8.91,0,0,1,3079.94,1387.66Z"/></g><path d="M3079.94,1387.66c-.66,3.83-1,1.27-1-5.45A8.91,8.91,0,0,1,3079.94,1387.66Z"/><path class="cls-1" d="M3155.62,1101l102.71,183.66s-121.55,41.38-149.73,51.92c-2.09-130.57-67-202.71,16.62-249.49C3130.1,1084.36,3146.18,1085.24,3155.62,1101Z"/><path class="cls-16" d="M2910.16,1299.15c103.57-17.09,207.43-30.11,207.43-30.11l36.35,293.44L2940.74,1604Z"/><path class="cls-22" d="M3154.62,1320.62c43.8,107.64,43.13,106-155.07,127.61-89.39-35.64-98.34-12.1-87.28,38.91,9.63,44.42,29.35,33.85,87.33,13.08s196.61-5,246-43.13-9.35-164.76-9.35-164.76Z"/><path class="cls-23" d="M3245.55,1457.09c-49.34,38.08-188,22.36-246,43.13-14.13,5.06-26,9.52-36,12.72,7.43-3.93,15.77-8.57,25.21-13.69,54.31-29.45,193.81-33.47,237-79.23,25.93-27.49,8.59-81.82-9.4-120.82l19.79-6.87S3294.88,1419,3245.55,1457.09Z"/><path class="cls-22" d="M2947.11,990.14c13.86,37.85,15.46,71.44-12.26,86.36,8.53,72.5,94.89-3.2,103.42-8.53-35.72-39.45-38.38-71.2-29.85-110.88S2947.11,990.14,2947.11,990.14Z"/><path class="cls-23" d="M3038.27,1068c-1.87,1.16,1.89-1.3-5.87,4.35-33.64-40-45.23-66.23-36.37-107.25,2.38-11-.82-14.09-6.91-12.52,12.86-9,22.84-11.94,19.29,4.53C2999.89,996.77,3002.56,1028.53,3038.27,1068Z"/><path class="cls-7" d="M3054.07,944.16c22.11,33.89,74.68,54.45,28.77,129.83l92.87,18.87S3260.92,912.79,3065.63,891,3054.07,944.16,3054.07,944.16Z"/><g class="cls-26"><g class="cls-27"><path class="cls-2" d="M3097.06,1091.08l-.86-.54c21.82-35.12,28.79-64.1,21.32-88.58-12.09-39.58-61-61.58-108.36-82.86l-6.84-3.07.42-.93,6.84,3.08c47.53,21.37,96.69,43.46,108.91,83.49C3126.05,1026.44,3119,1055.69,3097.06,1091.08Z"/><path class="cls-2" d="M3130.92,1102.83l-1-.07c1-15.84,2.67-30.64,4.11-43.7,4.47-40.52,7.7-69.8-8.93-93.73-17.41-25.06-56-42.92-128.86-59.73l.23-1c73.18,16.88,111.89,34.86,129.46,60.14,16.85,24.24,13.6,53.68,9.11,94.42C3133.59,1072.22,3132,1087,3130.92,1102.83Z"/><path class="cls-2" d="M3155.88,1106h-1c.43-27.3,2.18-49.94,3.73-69.92,3.7-47.92,5.75-74.32-16.4-92.57-23.12-19-73.06-28.48-163.09-40.2l.13-1c188.82,24.58,187.69,39.14,180.37,133.85C3158.06,1056.14,3156.31,1078.77,3155.88,1106Z"/></g></g><path class="cls-7" d="M3055.45,946.2c3.83,4.64,7.71,9.23,11.33,14.06a157,157,0,0,1,10.08,15.08,114.66,114.66,0,0,1,8,16.41,89.66,89.66,0,0,1,4.84,17.72,70.43,70.43,0,0,1,.41,18.46,64,64,0,0,1-4.78,17.8,69.54,69.54,0,0,1-9.52,15.61l-2.92,3.5-3.17,3.25c-.54.53-1.05,1.08-1.6,1.6l-1.7,1.5-3.42,3,3-3.38,1.5-1.67c.48-.57.93-1.17,1.4-1.75l2.78-3.5,2.54-3.67c.88-1.19,1.62-2.48,2.38-3.75s1.56-2.51,2.17-3.86,1.34-2.62,2-4l1.67-4.07a67.34,67.34,0,0,0,3.3-34.44,88.63,88.63,0,0,0-4.43-17,131.26,131.26,0,0,0-7.16-16.22c-2.75-5.27-5.75-10.42-8.95-15.48S3058.56,951.36,3055.45,946.2Z"/><path class="cls-7" d="M2999.12,977.36c3.12.4,6.18.86,9.25,1.16s6.11.49,9.14.52a47.11,47.11,0,0,0,17.48-2.87,34.38,34.38,0,0,0,14.06-10.26c3.85-4.58,6.73-10,9.35-15.72a43.24,43.24,0,0,1-6.83,17.63A34,34,0,0,1,3045,975a31.21,31.21,0,0,1-8.51,4.93,41,41,0,0,1-19.13,2.24A61.33,61.33,0,0,1,2999.12,977.36Z"/><path class="cls-7" d="M3027.71,891.18a61.83,61.83,0,0,1,13.77-4.3,101.71,101.71,0,0,1,14.28-1.63c4.75-.28,9.45-.31,14-.72a38.79,38.79,0,0,0,13.45-3.38,20.73,20.73,0,0,1-6,4.18,33.52,33.52,0,0,1-7,2.35,92.74,92.74,0,0,1-14.32,1.61c-4.73.26-9.41.41-14.1.73S3032.52,890.8,3027.71,891.18Z"/><path class="cls-22" d="M2879.8,852.39c-23.73,108.66-1.49,178,34,183.87,20.26,3.37,35-4.8,51.09-20,60.57-57.45,45.75-115.81,46.32-131.33S2890.4,803.88,2879.8,852.39Z"/><path class="cls-23" d="M3013.18,884.56c-.55,14.92,10.54,66.85-40,124.41,35.11-60.63,31.05-108.13.19-140.24-2.84-3,18.16-1.92,8.72-10.06C3000.2,868.81,3013.37,879.43,3013.18,884.56Z"/><path class="cls-6" d="M3050.31,853c-12.12-27.94-132.21-78.09-173.59-13.77-8.71,17.56-1.21,35.22-1.21,35.22,4.3-2.93,7.78-27.85,30.46-15.27,53.54-22.48,71.82,25.7,103.36,63.93-4.48,22.27-3.46,52.64-3.46,52.64,31-6.82,51.33-12.19,55-42.37h0C3064.43,909.56,3058.39,871.61,3050.31,853Z"/><g class="cls-28"><path class="cls-2" d="M2906.79,869.3l-.95-.33c.59-1.71.36-5,.06-9.11-.79-11.13-2-27.93,10.9-38.83,15.39-13,47.39-13.76,95.09-2.2l-.23,1c-47.38-11.49-79.07-10.82-94.21,2-12.49,10.57-11.31,27.07-10.54,38C2907.22,864,2907.46,867.4,2906.79,869.3Z"/><path class="cls-2" d="M2932,868.94l-1-.1c0-.28,3.27-27.87,36.91-33.09,35.48-5.51,68.51-1.3,88.35,11.24l-.55.85c-19.34-12.23-52.92-16.48-87.65-11.09C2935.21,841.84,2932,868.67,2932,868.94Z"/><path class="cls-2" d="M2954.78,880.65l-.59-.82a200.17,200.17,0,0,1,39.7-21.15c20.69-8.07,50.22-14.64,73.35-.12l-.53.85C3023.07,832,2955.46,880.16,2954.78,880.65Z"/><path class="cls-2" d="M2985.38,898a14.81,14.81,0,0,1-4.14-.42l.31-1c.08,0,7.74,2.27,28.35-4.94,12.45-4.36,25.61-10.24,37.22-15.43,7.86-3.51,15.28-6.83,21.16-9.07l.36,1c-5.86,2.23-13.26,5.54-21.11,9-11.62,5.2-24.8,11.09-37.29,15.46C2997.48,897.07,2989.64,898,2985.38,898Z"/><path class="cls-2" d="M2987.4,908.18l-.17-1c.64-.11,64.11-11.25,73.38-30.49l.91.43C3052,896.84,2990,907.73,2987.4,908.18Z"/><path class="cls-2" d="M3014.57,946.08l-.41-.92c3.41-1.54,6.63-2.9,9.74-4.21,24.54-10.32,38.06-16,39-67.31l1,0c-1,52-15.52,58.09-39.63,68.23C3021.19,943.19,3018,944.54,3014.57,946.08Z"/></g><path class="cls-23" d="M3006.09,925.89c20.89-24.7,38.31-11,38,4S3009,980.13,2998,954.25C2993.77,942.28,3006.09,925.89,3006.09,925.89Z"/><path class="cls-29" d="M2903.36,922.16A11.39,11.39,0,0,1,2905,926a24,24,0,0,1,.61,4.22,41.41,41.41,0,0,1-.56,8.41,74,74,0,0,1-4.65,16c-.55,1.3-1.06,2.52-1.76,3.89l-.3.52-.23.41c-.16.27-.3.55-.44.82-.28.54-.54,1.08-.76,1.6a5.53,5.53,0,0,0-.54,2.55,1.09,1.09,0,0,0,.32.63,3.27,3.27,0,0,0,1.11.7,17.71,17.71,0,0,0,3.51.93c1.28.22,2.61.4,4,.58,2.68.38,5.42.69,8.12,1.31-2.73.48-5.42.84-8.16,1.14-1.37.14-2.76.24-4.18.25a17,17,0,0,1-4.49-.46,7.82,7.82,0,0,1-2.5-1.15,5.37,5.37,0,0,1-2-2.67,7,7,0,0,1-.25-3,11.89,11.89,0,0,1,.56-2.45,17.5,17.5,0,0,1,.85-2.13l.48-1,.26-.48.12-.24.06-.13c.5-1.07,1.05-2.35,1.53-3.56,2-4.92,3.88-9.91,5.44-15a68.27,68.27,0,0,0,2-7.66A21.36,21.36,0,0,0,2903.36,922.16Z"/><path class="cls-2" d="M2929.56,981.16c-22.78,7.88-36,2.88-36,2.88S2903.75,1032.69,2929.56,981.16Z"/><path class="cls-30" d="M2875.06,909a10.07,10.07,0,0,1,4.4-2.16,14.14,14.14,0,0,1,4.58-.32,13.43,13.43,0,0,1,4.52,1.2,9.44,9.44,0,0,1,2.1,1.34,5.19,5.19,0,0,1,.91,1,3.57,3.57,0,0,1,.64,1.18c-.93,0-1.62.12-2.36.21s-1.43.15-2.12.2a26.13,26.13,0,0,1-4.15-.05,23.68,23.68,0,0,1-4.16-.76A18.77,18.77,0,0,1,2875.06,909Z"/><path class="cls-30" d="M2917.46,911.1a19.85,19.85,0,0,1,6-4.72,27.44,27.44,0,0,1,7.08-2.59,23.85,23.85,0,0,1,7.64-.34,15,15,0,0,1,7.17,2.85c-2.61.42-4.86.73-7.11,1.13l-6.67,1.32c-2.22.48-4.46.94-6.78,1.37A63,63,0,0,1,2917.46,911.1Z"/><path class="cls-23" d="M2943,950a2.1,2.1,0,1,1-2.42-1.71A2.09,2.09,0,0,1,2943,950Z"/><path class="cls-23" d="M2955.1,946.81a2,2,0,1,1-3.86.67,2,2,0,0,1,3.86-.67Z"/><path class="cls-23" d="M2952.7,956a1.64,1.64,0,1,1-1.89-1.34A1.63,1.63,0,0,1,2952.7,956Z"/><path class="cls-23" d="M2953,940.74a1.46,1.46,0,1,1-1.68-1.19A1.46,1.46,0,0,1,2953,940.74Z"/><path class="cls-23" d="M2944.91,961.21a1.14,1.14,0,1,1-1.32-.93A1.14,1.14,0,0,1,2944.91,961.21Z"/><path class="cls-23" d="M2934.76,959.17c.13.73-.6,1.47-1.62,1.65a1.68,1.68,0,0,1-2.08-1c-.13-.73.6-1.47,1.62-1.65S2934.63,958.43,2934.76,959.17Z"/><path class="cls-23" d="M2931.65,950.86a1.06,1.06,0,0,1-.86,1.21,1.05,1.05,0,0,1-.36-2.07A1.07,1.07,0,0,1,2931.65,950.86Z"/><path class="cls-23" d="M2876.76,962.51a1.49,1.49,0,1,1-2.05.46A1.48,1.48,0,0,1,2876.76,962.51Z"/><path class="cls-23" d="M2880.86,954.64a1.38,1.38,0,1,1-1.91.43A1.38,1.38,0,0,1,2880.86,954.64Z"/><path class="cls-23" d="M2884.54,960.24a1.17,1.17,0,0,1-1.25,2,1.17,1.17,0,0,1,1.25-2Z"/><path class="cls-23" d="M2876.69,952.84a1,1,0,1,1-1.43.32A1,1,0,0,1,2876.69,952.84Z"/><path class="cls-23" d="M2883.6,966.83a.82.82,0,0,1,.25,1.12.81.81,0,1,1-1.37-.87A.82.82,0,0,1,2883.6,966.83Z"/><path d="M2924.2,931.5a13.62,13.62,0,0,1,5-5,16.92,16.92,0,0,1,6.87-2.34,16.71,16.71,0,0,1,7.24.67,14.53,14.53,0,0,1,6.1,3.64c-1.23,0-2.32-.24-3.44-.3s-2.17-.23-3.24-.21a38,38,0,0,0-12.24,1.44C2928.47,929.92,2926.43,930.65,2924.2,931.5Z"/><path d="M2941.73,936.62c-.77,5.54-4.88,9.65-9.17,9.18s-7.16-5.34-6.39-10.88,4.87-9.65,9.17-9.18S2942.49,931.08,2941.73,936.62Z"/><path d="M2893.72,934.75c-1.75-1.1-3.31-2.1-4.85-3a26.56,26.56,0,0,0-4.57-2.11A21,21,0,0,0,2882,929a21.62,21.62,0,0,0-2.45-.25,9.32,9.32,0,0,0-1.3,0c-.43,0-.88,0-1.35,0-.94,0-1.85.22-2.94.21a12.55,12.55,0,0,1,1.07-1.12,6,6,0,0,1,1.22-1c.44-.26.9-.52,1.38-.76a2.81,2.81,0,0,1,.74-.3l.77-.23a11,11,0,0,1,3.24-.41c.55,0,1.1.13,1.65.2a12.4,12.4,0,0,1,1.59.42,12.83,12.83,0,0,1,5.29,3.5A11.34,11.34,0,0,1,2893.72,934.75Z"/><path d="M2876.06,935.64c-.13,4.67,2.57,8.53,6,8.62s6.35-3.6,6.48-8.27-2.56-8.52-6-8.62S2876.19,931,2876.06,935.64Z"/><g class="cls-11"><path d="M3007.56,2025.54c-11.74-13.83-26-34.21-31.95-69.28-5.71-33.5-3.53-77.6,6.66-134.81l8,1.42c-20.73,116.46-5.6,163.15,23.5,197.43Z"/></g><g class="cls-11"><path d="M2878.31,1806.09c-9.11,0-13.36-2.11-13.9-2.4l1.92-3.56,1.85-3.61c.1,0,10.51,4.9,36.18-3.06,23.9-7.41,66.07-27.69,131.32-82.22l5.19,6.21C2949.09,1794.16,2900,1806.09,2878.31,1806.09Z"/></g><path class="cls-21" d="M1252,959.74c93.28,45.64,111,254,127.48,266s22.93,93.55,19.26,97.22-65.53,34.07-81.12,10.23-63.78-150.55-82.13-217.5"/><g class="cls-31"><path d="M1230.18,1075.77a162.16,162.16,0,0,0,5.29,39.88c18.35,66.95,66.54,193.65,82.13,217.5s77.45-6.56,81.12-10.23c.86-.86,1.17-6,.92-13.49-13.47,6-30.55,9.27-40.68-3.88-17.73-23-100.58-141.06-123.16-206.89A136.9,136.9,0,0,1,1230.18,1075.77Z"/></g><path class="cls-22" d="M1435.41,1241.29c35.76-9.17,208.18-67.86,241.2-83.45,35.77,59.61,0,72.45,0,72.45s-211.86,59.61-221.95,79.79C1428.07,1271.56,1435.41,1241.29,1435.41,1241.29Z"/><path class="cls-23" d="M1454.66,1310.08c10.09-20.18,221.95-79.79,221.95-79.79a23.77,23.77,0,0,0,8.62-6.25c-40.78,7.91-223.42,44.23-234.25,61.43-9.59-15.11-14.2-28.72-16.22-39.82C1433.82,1255.34,1434.05,1280.23,1454.66,1310.08Z"/><path class="cls-32" d="M1377.63,1244.05c-1.48-27.52,51.75-22.13,48.08-14.17.92,4.59,29.87-.82,29.87-.82s25.68,96.61,17.43,100.28-31.18,19.26-50.44,16.51c-8.26,24.76-40.7,19.19-44,4.58S1377.63,1244.05,1377.63,1244.05Z"/><path class="cls-23" d="M1705.5,1180.76c19.65-2,30.15,15.92,53.46,15.92s39.23-4,36.42,5,2.19,19.34-44.78,11.85S1705.5,1180.76,1705.5,1180.76Z"/><path class="cls-22" d="M1676.61,1157.84c39.19-6.1,57.92,44.45,102.85,57.56s67.41-18.45,76.77-8.29-19.66,32.63-62.72,38.25-79.37-26-116.9-15.07S1676.61,1157.84,1676.61,1157.84Z"/><path class="cls-32" d="M1223.29,2312c-5.41,132.69,65,157.06,124.57,176s92.07,65.9,92.07,106.52H1199.52s-2.4-28.89-18-28.89v28.89h-90.86s-9-61.38,16.24-116.75S1124.91,2312,1124.91,2312Z"/><g class="cls-11"><path d="M1125.84,2350.91h98.23q-1.15-12.84-1-27.49h-97.59C1125.67,2330.26,1125.9,2339.77,1125.84,2350.91Z"/></g><path class="cls-33" d="M1090.61,2594.52h90.87v-28.89c15.65,0,18,28.89,18,28.89h240.4c0-40.62-32.5-87.54-92.07-106.5-34.41-10.95-72.43-23.71-97.37-58.12-34.85,26.18-67.1,69.47-101.09,54.09-21.44-9.71-31.43-18.21-36.06-23.79a138.37,138.37,0,0,1-6.49,17.58C1081.59,2533.15,1090.61,2594.52,1090.61,2594.52Z"/><path class="cls-32" d="M888.69,2312c5.41,132.69-65,157.06-124.57,176s-92.06,65.9-92.06,106.52h240.4s2.41-28.89,18-28.89v28.89h90.87s9-61.38-16.25-116.75-18-165.78-18-165.78Z"/><g class="cls-11"><path d="M985.92,2349.38H887.69c.77-8.56,1.13-17.71,1-27.5h97.6C986.09,2328.72,985.86,2338.24,985.92,2349.38Z"/></g><path class="cls-33" d="M1021.38,2594.52H930.5v-28.89c-15.64,0-18,28.89-18,28.89H672.05c0-40.62,32.5-87.54,92.07-106.5,34.41-10.95,72.44-23.71,97.37-58.12,34.85,26.18,67.1,69.47,101.09,54.09,21.44-9.71,31.44-18.21,36.06-23.79a136.85,136.85,0,0,0,6.5,17.58C1030.39,2533.15,1021.38,2594.52,1021.38,2594.52Z"/><path class="cls-6" d="M841.61,2433.46l71.81-1053.63,198.7,5.45h151.33c-11,345.3-10.39,1047.32-10.39,1047.32H1096.45l-11-761.55L1012.87,2444Z"/><g class="cls-11"><polygon points="841.61 2433.46 884.27 2436.08 935.14 1380.43 913.41 1379.84 841.61 2433.46"/></g><g class="cls-11"><polygon points="1085.41 1671.05 1096.44 2432.6 1145.39 2432.6 1085.41 1671.05"/></g><path class="cls-21" d="M1115.33,934.06C1234.56,944.15,1252,959.74,1252,959.74s0,217.36,11.47,274.22c7.67,38.09,3.23,96.26-.82,178.42-49.81-1.66-97.77-21.6-147.3-11.51s-182.25,15.77-196.92-35.59,24.5-155.17,17.17-225.79c0,0,11-157.82,9.17-183.92S1115.33,934.06,1115.33,934.06Z"/><g class="cls-31"><path d="M917.46,1373.05c14.68,51.36,148.35,37.91,197.87,27.82s89.33,11,146.19,12.8c-.19-7-1.93-8.92,1.93-13.36-41.37-9.34-54.46-15.35-93.78-9.56-54.68,8-204.48,14.82-216.86-44.22s25.47-162.38,22.45-242.69l-39.68,35.65C942.91,1210.11,902.79,1321.69,917.46,1373.05Z"/></g><path class="cls-22" d="M1161.27,807.83c-6.08,25.61-13.39,114.5,0,130.93-25.56,34.58-31.12,43-31.12,43s-39.56-30.22-67.56-48c28-64.73,25.39-133.39,25.39-133.39Z"/><polygon class="cls-32" points="1183.1 1014.76 1125.68 984.91 1054.75 1014.19 1025.83 936.07 1031.21 934.08 1058.06 1006.63 1125.96 978.59 1178.78 1006.06 1189.67 942.73 1195.32 943.71 1183.1 1014.76"/><path class="cls-32" d="M1136.75,1399.56l-5.24-2.32c.13-.3,13.1-30.45-.07-66-13.78-37.22-8.71-336.81-8.49-349.55l5.73.1c0,3.11-5.27,311.24,8.14,347.46C1150.82,1367.06,1137.33,1398.25,1136.75,1399.56Z"/><path class="cls-21" d="M947.67,949.71c33.65-26,37.89,157.69,26.88,167.31s-118.31,163.71-128.62,179.53-145.61-28.83-96.09-94.87S856.69,1019.9,947.67,949.71Z"/><g class="cls-31"><path d="M819.88,1279.85c11,14.91,22.38,22.34,26,16.7,10.31-15.82,117.62-169.9,128.62-179.53,2.72-2.36,5.22-11.34,6.77-24.13-2.07,5.75-4.15,9.59-6.06,10.95C963.41,1112.29,854.45,1238.89,819.88,1279.85Z"/></g><path class="cls-32" d="M868.61,1252.88c-29.3,29.09-67.34,79.57-67.34,79.57s-32.12,6.63-35.53-21c-18.32-1.92-61.14-12.31-37.25-68,29.49-68.73,71.41-73.13,119.87-35.92l.58.09C873.5,1211.59,884.36,1237.24,868.61,1252.88Z"/><g class="cls-11"><path d="M868.6,1252.88c-29.29,29.09-67.33,79.57-67.33,79.57s-32.11,6.63-35.53-21c-16.54-1.74-53.1-10.39-42.38-53.08-.82,27.8,45.17,43,45.17,43s72.43-22.55,86.13-80.4c.9-3.77,1.81-7.45,2.59-11C875.74,1217.65,882.45,1239.14,868.6,1252.88Z"/></g><path class="cls-22" d="M993.36,1433.54C955.09,1395.2,868,1302.72,863.82,1270.17s-90.65-15.39-94,16.21,105.51,111.39,149,168.31C966.65,1517.26,993.36,1433.54,993.36,1433.54Z"/><path class="cls-23" d="M979.51,1461c-12.45,17.15-33,29.86-60.65-6.31-15.11-19.77-38.11-42.32-61.56-64.65,29.12,19,58.44,38.4,78.24,56.37C955,1464.05,969.21,1466.1,979.51,1461Z"/><g class="cls-31"><path d="M917.59,1460.86c-.65-1-1.28-2-1.89-3.19C916.32,1458.79,916.94,1459.85,917.59,1460.86Z"/></g><g class="cls-31"><path d="M1376.9,1322.54c.21,13,.69,23.67,1.64,27.89,3.33,14.6,35.77,20.18,44-4.58,19.26,2.75,42.18-12.84,50.44-16.51,3-1.34,1.51-15-1.59-31.8-13.85,5.56-32.9,12.14-49.77,10.26C1414.18,1325.13,1391.38,1327.62,1376.9,1322.54Z"/></g><rect class="cls-14" x="1020.69" y="1491.75" width="191.36" height="5.73" transform="translate(-470.24 2475.87) rotate(-84.98)"/><path class="cls-14" d="M1258.21,1488.08a2.83,2.83,0,0,1-1.72-.58c-1.07-.8-26.31-20.13-40.2-56.25a2.87,2.87,0,0,1,5.35-2.06c13.28,34.52,38,53.55,38.3,53.74a2.86,2.86,0,0,1-1.73,5.15Z"/><path class="cls-14" d="M934.66,1493.22a2.87,2.87,0,0,1-.76-5.63c20.49-5.65,36.24-17.06,46.8-33.92a71.91,71.91,0,0,0,9.82-23.9,2.87,2.87,0,1,1,5.66.9c-.07.49-2,12.22-10.48,25.82-7.8,12.54-22.86,29.07-50.28,36.63A2.84,2.84,0,0,1,934.66,1493.22Z"/><path class="cls-23" d="M1153.86,899.72c-17.62-3.89-29.38-13.87-67.74-60,.24-2.44.46-4.78.66-7L1156,845.58A471.43,471.43,0,0,0,1153.86,899.72Z"/><path class="cls-22" d="M1197.32,654.32c26.47,161.69,1.62,221.58-35,225.84-41,4.76-91.36-14.62-118.25-106.87S1099.34,563.8,1197.32,654.32Z"/><path class="cls-33" d="M1076.08,690.18c101.21-10.25,112.3,30.62,159.39-34.54,27.52-38.08-86.49-68.83-95-67.12s-.27,28.61-57.47,20.93-59,23.52-53.85,45.72S1058.35,692,1076.08,690.18Z"/><g class="cls-34"><g class="cls-27"><g class="cls-35"><path class="cls-2" d="M1021,665.49c1.41-2.28,2.89-4.51,4.34-6.78s3.09-4.38,4.69-6.55a139.73,139.73,0,0,1,10.45-12.41c1.84-2,3.86-3.86,5.84-5.75,1-1,2.08-1.8,3.13-2.7L1051,630c.54-.43,1.1-.84,1.65-1.26a75.25,75.25,0,0,1,14.32-8.77,71.75,71.75,0,0,1,16.18-5.34c1.39-.29,2.78-.57,4.19-.75l2.1-.3.53-.07.61-.06c.41,0,.82-.07,1.2-.08,3.08-.14,5.82,0,8.58.14,10.9.72,21.36,2,31.89,3,5.24.53,10.48,1,15.71,1.35s10.46.69,15.67.87a216.9,216.9,0,0,0,31-.86c10.2-1.14,20.32-3.28,29.42-7.77a52.37,52.37,0,0,0,6.54-3.85,49.6,49.6,0,0,0,5.9-4.86,46.47,46.47,0,0,0,9-12.8,44.1,44.1,0,0,1-2.46,7.72,42.17,42.17,0,0,1-9.53,13.48A53.39,53.39,0,0,1,1227,615a66.52,66.52,0,0,1-7.25,4.23,80.13,80.13,0,0,1-7.69,3.3,103.31,103.31,0,0,1-16,4.38c-2.7.54-5.42,1-8.13,1.34s-5.45.64-8.17.86c-5.45.48-10.89.62-16.32.67s-10.84-.17-16.23-.43-10.76-.75-16.1-1.24-10.67-1.13-16-1.75-10.55-1.3-15.68-1.83c-2.55-.25-5.13-.47-7.37-.46l-.79,0H1091l-.46,0-1.86.16c-1.25.08-2.47.26-3.7.43a70.32,70.32,0,0,0-14.39,3.65l-1.74.68a18.57,18.57,0,0,0-1.73.72l-3.43,1.56-3.36,1.77c-1.12.59-2.2,1.28-3.3,1.92a113.2,113.2,0,0,0-12.65,8.94c-4.13,3.22-8,6.79-11.92,10.35-1.94,1.81-3.82,3.69-5.75,5.53S1022.92,663.62,1021,665.49Z"/></g><g class="cls-25"><path class="cls-2" d="M1021,677.16a187.52,187.52,0,0,1,29.39-18.67c1.28-.71,2.64-1.25,4-1.85l4-1.78c2.71-1.07,5.45-2.09,8.19-3.1s5.57-1.78,8.39-2.57,5.66-1.44,8.51-2.1a216,216,0,0,1,34.71-4.35c11.65-.7,23.3-.37,34.92,0l17.39,1.07,8.63.48c1.44.08,2.88.18,4.32.23l4.32.08,8.64.17c2.88,0,5.76-.11,8.64-.16l4.32-.1c1.44,0,2.87-.17,4.31-.24l8.63-.53a249.37,249.37,0,0,0,34.14-5.24c11.22-2.57,22.36-6,32.57-11.49a86.73,86.73,0,0,1-15.55,7.82,168.15,168.15,0,0,1-16.55,5.53,225.78,225.78,0,0,1-34.32,6.41l-8.71.76c-1.45.11-2.9.27-4.36.32l-4.36.17c-2.91.1-5.82.25-8.74.3l-8.73,0-4.37,0c-1.46,0-2.91-.14-4.36-.2l-8.73-.44-17.31-1c-11.52-.44-23.07-.77-34.57-.21a231.48,231.48,0,0,0-34.27,3.64,148.52,148.52,0,0,0-32.86,10.15c-2.61,1.21-5.28,2.32-7.81,3.7l-3.85,2-3.77,2.14C1030.73,670.9,1025.86,674,1021,677.16Z"/></g><g class="cls-31"><path class="cls-2" d="M1038.89,682.66a63.9,63.9,0,0,1,7.19-3.28c2.47-.93,5-1.69,7.55-2.42a144.16,144.16,0,0,1,15.55-3.15,289.85,289.85,0,0,1,31.53-2.59c10.52-.43,21-.34,31.53-.3l31.42.48c10.46.21,20.89.28,31.28,0a199.47,199.47,0,0,0,30.83-2.65,57.29,57.29,0,0,0,14.38-4.39,26.11,26.11,0,0,0,3.19-1.79c1-.64,2.09-1.46,3.16-2.21l3.25-2.31c1.1-.74,2.24-1.44,3.36-2.15a61.25,61.25,0,0,1,14.43-6.91,23.2,23.2,0,0,1,8-.94c.67.15,1.35.22,2,.43a8.87,8.87,0,0,1,1.86.83,6.25,6.25,0,0,1,2.67,2.88,6,6,0,0,0-2.9-2.45,8.61,8.61,0,0,0-1.81-.55c-.62-.11-1.26-.1-1.88-.16a21.76,21.76,0,0,0-7.38,1.67l-3.48,1.61-3.37,1.88c-2.16,1.41-4.35,2.76-6.39,4.36-1,.78-2.09,1.51-3.1,2.31l-3,2.46c-1,.82-2,1.61-3.12,2.5a31.8,31.8,0,0,1-3.52,2.31,59.08,59.08,0,0,1-15.32,5.59c-2.62.63-5.25,1.11-7.89,1.57s-5.28.76-7.92,1c-5.28.59-10.57.95-15.85,1.22-10.56.46-21.09.44-31.6.33s-21-.51-31.45-.83-20.91-.61-31.34-.79c-5.22-.08-10.44,0-15.65,0s-10.41.29-15.6.65-10.36.92-15.5,1.75A80.05,80.05,0,0,0,1038.89,682.66Z"/></g></g></g><path class="cls-33" d="M1073.51,675.66c16.66,19.43-10.24,70.87,0,98.19-29.45-.56-13.27,39.06-13.27,39.06s-38.81-19.42-62.72-83.46,30.74-91.36,50.38-77.69S1047.9,645.78,1073.51,675.66Z"/><g class="cls-31"><path class="cls-2" d="M1062.59,662.62a19.51,19.51,0,0,0-9,.71,23.63,23.63,0,0,0-7.49,4.2A44.94,44.94,0,0,0,1035.37,681a50.42,50.42,0,0,0-5.63,15.85,25.42,25.42,0,0,0-.3,3.8l0,4.71c0,3.07-.07,6,.18,8.82a54.39,54.39,0,0,0,1.22,8.35,66,66,0,0,0,2.42,8.24,128.77,128.77,0,0,0,7.35,16.32c5.65,10.82,12.36,21.39,18.51,32.59A136,136,0,0,1,1045,766.75,134.25,134.25,0,0,1,1032.64,752a91.57,91.57,0,0,1-9.84-17.1,66.25,66.25,0,0,1-3.28-9.67,57.2,57.2,0,0,1-1.6-10.22,83.29,83.29,0,0,1,0-10l.27-4.69a32.48,32.48,0,0,1,.79-5.52,44.79,44.79,0,0,1,3.52-9.91,55,55,0,0,1,5.29-8.76,43.62,43.62,0,0,1,15.34-13.29,24.26,24.26,0,0,1,9.92-2.58,17.87,17.87,0,0,1,5,.54A17.36,17.36,0,0,1,1062.59,662.62Z"/></g><g class="cls-35"><path class="cls-2" d="M1056.22,786.73c-5.76-4.8-11.6-9.48-17.18-14.55-2.76-2.55-5.46-5.19-8.07-7.94s-5.07-5.64-7.42-8.63a116.64,116.64,0,0,1-12.27-19.24c-1.72-3.4-3.26-6.9-4.67-10.44l-1-2.66c-.32-.93-.67-1.84-1-2.78a48.6,48.6,0,0,1-1.46-5.7,49.6,49.6,0,0,1,1.05-23.38,53.47,53.47,0,0,1,30.17-33.55,36.84,36.84,0,0,1,11.16-2.71,26.06,26.06,0,0,1,5.72.22,20.28,20.28,0,0,1,5.39,1.7h0a22.57,22.57,0,0,0-10.94-.51,37,37,0,0,0-10.29,3.59,53.06,53.06,0,0,0-16.7,13.68,51.07,51.07,0,0,0-9.81,18.91,45.81,45.81,0,0,0-.66,21c.37,1.74.76,3.47,1.29,5.18.25.85.56,1.69.84,2.54l1,2.57q2,5.14,4.37,10.1c1.57,3.31,3.27,6.56,5.14,9.73s3.87,6.24,6,9.26,4.38,5.93,6.72,8.8,4.79,5.65,7.32,8.38C1045.86,775.87,1051.27,781.08,1056.22,786.73Z"/></g><path class="cls-23" d="M1067.63,780.66c-18.59-19.37-48.85-15.32-46.52.17s13.94,41.43,49.58,30C1085.42,802.82,1067.63,780.66,1067.63,780.66Z"/><path class="cls-6" d="M1202.57,743.22c-2.42-.23-4.45-.56-6.38-.85s-3.68-.51-5.36-.62a24.56,24.56,0,0,0-5,.17,55.41,55.41,0,0,0-6.06,1.3,9.54,9.54,0,0,1,4.23-5.77,11.9,11.9,0,0,1,7.25-1.84,14.19,14.19,0,0,1,6.81,2.3A11.77,11.77,0,0,1,1202.57,743.22Z"/><path class="cls-6" d="M1149.18,741.67c-3.4-.48-6.49-1.08-9.54-1.6s-6-1-8.89-1.21a38.89,38.89,0,0,0-17.68,2.3,15.42,15.42,0,0,1,7.74-6.87,22.07,22.07,0,0,1,10.44-1.56,28.23,28.23,0,0,1,9.9,2.76A23.41,23.41,0,0,1,1149.18,741.67Z"/><path class="cls-23" d="M1162.93,806a1.95,1.95,0,0,1-.54-3.82s5.81-1.78,7.63-6c.92-2.12.68-4.63-.73-7.45-.55-1.1-1.2-2.27-1.88-3.51-4-7.29-9.55-17.28-4.22-30.75a2,2,0,0,1,3.63,1.44c-4.65,11.76.15,20.44,4,27.42.71,1.28,1.37,2.48,2,3.66,2,3.91,2.22,7.53.81,10.77-2.56,5.87-9.8,8.05-10.11,8.14A2.09,2.09,0,0,1,1162.93,806Z"/><path class="cls-23" d="M1181.2,826.61s-20.33,1.18-53.6-1.23C1127.6,825.38,1169.21,851.17,1181.2,826.61Z"/><path class="cls-6" d="M1181.2,770.82a11.77,11.77,0,0,1,3.58-5.93,14.67,14.67,0,0,1,6.17-3.41,12.65,12.65,0,0,1,7.26.16,10,10,0,0,1,5.58,4.31c-2.48.24-4.37.16-6.2.48a34.59,34.59,0,0,0-5.08,1c-1.66.44-3.37,1-5.2,1.55S1183.54,770.22,1181.2,770.82Z"/><path class="cls-6" d="M1145.28,771.5a1.7,1.7,0,0,0-.21-1,2.6,2.6,0,0,0-.59-.73,8.08,8.08,0,0,0-1.58-1.06,17.67,17.67,0,0,0-3.58-1.38,30.87,30.87,0,0,0-7.51-1.07,49.2,49.2,0,0,0-7.84.53c-2.7.39-5.49,1-8.65,1.48a18.46,18.46,0,0,1,7.17-6.08,20.63,20.63,0,0,1,9.47-2.07,18,18,0,0,1,9.47,2.88,12.15,12.15,0,0,1,3.61,3.6,6.65,6.65,0,0,1,1,2.48,3.56,3.56,0,0,1,0,1.38A1.86,1.86,0,0,1,1145.28,771.5Z"/><path class="cls-36" d="M1129.74,771.5c0,4.31,2.39,7.8,5.35,7.8s5.35-3.49,5.35-7.8-2.4-7.8-5.35-7.8S1129.74,767.19,1129.74,771.5Z"/><ellipse class="cls-36" cx="1191.81" cy="771.82" rx="5.01" ry="7.31"/><g class="cls-35"><ellipse class="cls-9" cx="1112.37" cy="794.77" rx="11.26" ry="9.29"/></g><g class="cls-35"><path class="cls-9" d="M1207.89,789.8a13,13,0,0,0-5.32-1.1c-6.22,0-11.26,4.15-11.26,9.28s5,9.29,11.26,9.29a13.26,13.26,0,0,0,4-.6Z"/></g></g></svg>