<svg xmlns="http://www.w3.org/2000/svg" xmlns:xlink="http://www.w3.org/1999/xlink" viewBox="0 0 4680 3120"><defs><style>.cls-1{fill:#EC221F;}.cls-2{fill:#2291f2;}.cls-3{fill:#ccc;}.cls-4{fill:#4d4d4d;}.cls-5{fill:#fff;}.cls-6{opacity:0.13;}.cls-7{fill:#333;}.cls-8{fill:gray;}.cls-9{fill:#1a1a1a;}.cls-10{fill:#b3b3b3;}.cls-11{fill:#e88e6b;}.cls-12{fill:#445ef2;}.cls-13{fill:#fcc0a9;}.cls-14{fill:#fc9a74;}.cls-15{opacity:0.15;}.cls-16{clip-path:url(#clip-path);}.cls-17{fill:#0e1d73;}.cls-18{clip-path:url(#clip-path-2);}.cls-19{clip-path:url(#clip-path-3);}.cls-20{clip-path:url(#clip-path-4);}.cls-21{clip-path:url(#clip-path-5);}.cls-22{clip-path:url(#clip-path-6);}.cls-23{fill:#081444;}.cls-24{fill:#fdaf91;}.cls-25{opacity:0.3;}.cls-26{clip-path:url(#clip-path-7);}.cls-27{fill:#f2f2f2;}.cls-28{fill:#999;}.cls-29{fill:#EC221F;}.cls-30{mask:url(#mask);}</style><clipPath id="clip-path"><path class="cls-2" d="M1796.72,1127.06c-38.86,15.13-54.36,26-76.3,55.62s-34.71,65-43.69,100.73c-21.75,86.45-23.12,177.6-51.29,262.18,56.56,36.3,127.11,50.15,193.19,37.91l62.49-202.82c19.94-64.73,40-134.27,20-199-6.47-21-17.66-41.33-35.73-53.75S1814.45,1114.15,1796.72,1127.06Z"/></clipPath><clipPath id="clip-path-2"><path class="cls-1" d="M1797,1441.22c-15.3,11.39-33.94,34.14-42.42,51.08a2253,2253,0,0,0-97.89,225.39c-5.51,14.84-11.2,30.28-22.58,41.41-19.15,18.73-49.71,20.56-76.1,15s-51.28-17.11-77.93-21.31a144.89,144.89,0,0,0-102.28,22.63c-10.49,7.08-21,19.93-14.77,30.87,3.91,6.9,12.66,9.23,20.49,10.91,11.58,2.49,23.25,5,35.1,5.16,20.5.3,40.62-6.38,61.12-6,51.68.9,94.08,45.34,145.66,48.57,32.21,2,63.73-12.85,87.54-34.33s40.9-49.11,56.31-77c25.81-46.79,48-96.22,57.31-148.67s4.91-108.46-20.16-155.63"/></clipPath><clipPath id="clip-path-3"><path class="cls-1" d="M1849.46,1417.72c6.84-2.72,41.11-9,48.47-9.13,76.45-1.52,128.53,19.63,170.38,86.3,17.46,27.81,39.68,96.43,50.45,127.45,40.43,116.4,28.81,228.47-29.07,337.24-.71-8.5-16-14.89-23.14-19.56-19.91-13-43.13-20-66.22-25.78-78.67-19.74-137.67-27.89-218.7-24.11,35-49,41-113.88,30.93-173.26s-.45-106.57-22.14-162.75c-6.49-16.81-12.81-33.93-14.64-51.85s1.26-37,12.07-51.39c14.26-19,38.76-26.63,61.61-33.16"/></clipPath><clipPath id="clip-path-4"><path class="cls-1" d="M1988.65,1457.43c19.68-21.08,28.62-35.57,107.15,47,13.15,13.83,22.74,30.61,32.26,47.16q20.37,35.41,39.57,71.5c31.47,59.16,61.15,122.08,62.32,189.09.37,21.07-3.59,44.82-20.76,57-12.11,8.63-28,9.4-42.89,8.73a293.19,293.19,0,0,1-76.38-13.79c-50.22-16.18-99.27-46.36-151.54-39.23a401.31,401.31,0,0,0-.2-81.71c35.62,1,86.58,2.47,122.16.51,23.74-44-10.54-73.64-20-105.78-7.83-26.66-36.14-54.89-46.41-80.71C1984.22,1532.8,1961.18,1486.84,1988.65,1457.43Z"/></clipPath><clipPath id="clip-path-5"><path class="cls-2" d="M1760.26,1142.62c23.5,13.91,39.43,37.78,51.1,62.48s19.93,51,32.63,75.13c13.64,26,16.07,49.81,34.46,72.69,16.18,20.13,30.32,41.23,76.08,58.27,45.42,16.92,61.71,21,85.84,47.42-8.26-110.44-48.16-218.81-123.57-299.92-8.72-9.38-17.89-18.49-28.61-25.49-36.92-24.13-88.27-18.71-124.55,6.37"/></clipPath><clipPath id="clip-path-6"><path class="cls-3" d="M1440.08,2303.45c11.81-35.07,73.89-266.61,85.7-301.69,8.46-25.13,17.11-50.64,32.21-72.44a142.64,142.64,0,0,1,67.26-52.17c25.33-9.37,52.74-11.31,79.74-12.33,121.54-4.63,183,7.33,302,32.87,12.87,2.76,25.94,5.78,37.27,12.49,31.79,18.82,67.47,5.59,28.26,98.13-17.49,41.27-59.62,71.78-104.42,70.28-34.63,3.07-70.61,28.13-91.86,55.64s-34.2,60.42-45.79,93.19q-22.8,64.47-40.09,130.7c-55.09,9.76-111.54-2.76-165.41-17.85S1496,2304.6,1440.08,2303.45Z"/></clipPath><clipPath id="clip-path-7"><path class="cls-4" d="M2503,1099.84c29.34-25.3,71.13-28.54,109.82-30.59q-2.68,16.32-5.36,32.63c13.28.9,25.16,8.2,36.43,15.3,9.3,5.86,18.83,11.92,25.42,20.74,10,13.38,11.77,31.23,10.4,47.87q4.7-11.85,9.4-23.71c8.72-22,17.56-44.46,18.58-68.07,1.46-33.47-14.05-67.25-40.39-88s-62.81-27.82-95-18.51-59.24,34.78-70.46,66.35c-5.24,14.73-7.07,31.38-1.18,45.87"/></clipPath><mask id="mask" x="1143.2" y="1748.36" width="1694.91" height="181.92" maskUnits="userSpaceOnUse"><rect class="cls-1" x="1195.08" y="1820.97" width="1611.74" height="109.31" rx="54.03"/></mask></defs><g id="_3" data-name="3"><rect class="cls-5" width="4680" height="3120"/><g class="cls-6"><rect class="cls-7" x="768.39" y="734.09" width="1658.5" height="61.72"/><rect class="cls-8" x="848.9" y="795.82" width="1497.48" height="708.48"/><rect class="cls-7" x="915.1" y="940.29" width="161.02" height="27.43"/><rect class="cls-7" x="915.1" y="1072.53" width="161.02" height="13.72"/><rect class="cls-7" x="915.1" y="1107.12" width="161.02" height="13.72"/><rect class="cls-7" x="915.1" y="1141.71" width="161.02" height="13.72"/><rect class="cls-7" x="915.1" y="1176.3" width="161.02" height="13.72"/><rect class="cls-7" x="915.1" y="1210.89" width="161.02" height="13.72"/><rect class="cls-7" x="915.1" y="1280.07" width="161.02" height="13.72"/><rect class="cls-7" x="915.1" y="1314.66" width="101.68" height="13.72"/><rect class="cls-7" x="915.1" y="1245.48" width="161.02" height="13.72"/><rect class="cls-7" x="915.1" y="983.52" width="80.51" height="13.72"/><rect class="cls-7" x="2095.9" y="1048.38" width="161.02" height="13.72"/><rect class="cls-7" x="2095.9" y="1082.97" width="161.02" height="13.72"/><rect class="cls-7" x="2095.9" y="1117.56" width="161.02" height="13.72"/><rect class="cls-7" x="2095.9" y="1152.15" width="161.02" height="13.72"/><rect class="cls-7" x="2095.9" y="1186.73" width="161.02" height="13.72"/><rect class="cls-7" x="2095.9" y="1255.91" width="161.02" height="13.72"/><rect class="cls-7" x="2095.9" y="1290.5" width="101.68" height="13.72"/><rect class="cls-7" x="2095.9" y="1221.32" width="161.02" height="13.72"/><rect class="cls-9" x="1318.31" y="1255.3" width="56.33" height="165.19"/><rect x="1418.41" y="1180.93" width="56.33" height="239.57"/><rect x="1517.07" y="1115.62" width="56.33" height="304.88"/><rect class="cls-7" x="1617.57" y="1204.82" width="56.33" height="215.68"/><rect x="1712.04" y="1014.1" width="56.33" height="406.4"/><rect class="cls-7" x="1812.54" y="1066.36" width="56.33" height="354.14"/><polygon class="cls-9" points="1339.43 1169.44 1331.78 1155.59 1441.87 1094.76 1545.95 996.51 1632.22 1101.1 1738.31 883.35 1842.06 1001.63 1871.57 981.73 1880.41 994.84 1839.35 1022.54 1742.1 911.67 1635.66 1130.14 1544.51 1019.62 1451.27 1107.64 1339.43 1169.44"/><polygon class="cls-9" points="1883.23 1010.99 1903.29 969.87 1857.65 973.06 1883.23 1010.99"/><rect class="cls-9" x="2962.95" y="741.66" width="700.59" height="1835.23" transform="translate(6626.48 3318.55) rotate(180)"/><rect class="cls-7" x="3048.15" y="1947.17" width="530.17" height="530.17" transform="translate(6626.48 4424.52) rotate(180)"/><rect class="cls-8" x="3436.32" y="819.71" width="142.01" height="980.59" transform="translate(7014.64 2620) rotate(180)"/><rect class="cls-8" x="3048.15" y="819.71" width="142.01" height="980.59" transform="translate(6238.32 2620) rotate(180)"/><rect class="cls-8" x="3242.23" y="819.71" width="142.01" height="980.59" transform="translate(6626.48 2620) rotate(180)"/><rect class="cls-9" x="3007.13" y="962.32" width="612.23" height="38.35"/><rect class="cls-9" x="3007.13" y="1623.75" width="612.23" height="38.35"/><rect x="779.37" y="2564.29" width="2925.85" height="25.2"/><circle class="cls-10" cx="2711.77" cy="849.17" r="66.53"/><rect class="cls-4" x="2701.17" y="460" width="21.2" height="263.17" transform="translate(5423.54 1183.17) rotate(180)"/><polygon points="2536.34 849.17 2663.94 785.63 2662.88 785.63 2679.41 687.85 2744.13 687.85 2760.66 785.63 2759.59 785.63 2887.19 849.17 2536.34 849.17"/></g><polygon class="cls-11" points="1510.79 2644.82 1488.62 2644.82 1462.93 1907.35 1536.48 1907.35 1510.79 2644.82"/><path class="cls-12" d="M1523.53,2074h627a0,0,0,0,1,0,0v27.73a36.53,36.53,0,0,1-36.53,36.53H1523.53a0,0,0,0,1,0,0V2074A0,0,0,0,1,1523.53,2074Z" transform="translate(3674.05 4212.26) rotate(180)"/><rect class="cls-7" x="2075.25" y="2136.07" width="20.95" height="510.44" transform="translate(4171.46 4782.57) rotate(180)"/><rect class="cls-7" x="1802.88" y="2136.07" width="20.95" height="510.44" transform="translate(3626.72 4782.57) rotate(180)"/><rect class="cls-7" x="1697.44" y="2408.61" width="20.95" height="217.76" transform="translate(4225.41 809.57) rotate(90)"/><rect class="cls-7" x="1974.62" y="2408.61" width="20.95" height="217.76" transform="translate(4502.58 532.39) rotate(90)"/><rect class="cls-7" x="1865.74" y="2136.07" width="20.95" height="510.44" transform="translate(3752.43 4782.57) rotate(180)"/><rect class="cls-7" x="1593.37" y="2136.07" width="20.95" height="510.44" transform="translate(3207.68 4782.57) rotate(180)"/><polygon class="cls-12" points="2243.43 1545.03 2194.24 1545.03 2104.3 2136.07 2153.49 2136.07 2243.43 1545.03"/><polygon class="cls-12" points="1903.67 1545.03 1854.47 1545.03 1764.54 2136.07 1813.73 2136.07 1903.67 1545.03"/><polygon class="cls-12" points="1841.75 1628.65 2230.71 1628.65 2240.78 1562.49 1851.82 1562.49 1841.75 1628.65"/><polygon class="cls-12" points="1801.63 1892.33 2190.58 1892.33 2196.28 1854.93 1807.32 1854.93 1801.63 1892.33"/><polygon class="cls-12" points="2084.56 1574.39 2037.84 1881.39 2070.95 1881.39 2117.66 1574.39 2084.56 1574.39"/><polygon class="cls-12" points="1971.3 1574.39 1924.59 1881.39 1957.7 1881.39 2004.41 1574.39 1971.3 1574.39"/><path class="cls-13" d="M1545.18,2521.24c-27.77,9.54-29.07,12-58,7-5.73-1-12-2.62-15.28-7.38-4.39-6.25-2.21-15.76-7.36-21.4-5.77-6.33-16.12-3.46-24-.12l-.44.18a140.51,140.51,0,0,0,8-21.05c6.77-22,11.71-44.55,16.42-67.09q7.53-36,14.29-72.19c35.6,14.26,61.94,26.12,80.55,35.12C1546.13,2422.64,1539.17,2472,1545.18,2521.24Z"/><path class="cls-1" d="M1562.2,2625.34c-4.18,4.79-11,5.93-17.36,6.7-73.7,9-119.43,5.67-193.47.24-16.59-1.22-33.34-2.57-49.21-7.56-4-1.27-8.4-3.21-9.78-7.17-1.26-3.65.53-7.61,2.57-10.88,12.88-20.58,36-31.94,57.57-43.11q22.74-11.78,44.82-24.74c14-8.23,28.24-17.18,37.56-30.51a69.86,69.86,0,0,0,5.18-8.79l.44-.18c7.89-3.34,18.24-6.21,24,.12,5.15,5.64,3,15.15,7.36,21.4,3.33,4.76,9.55,6.38,15.28,7.38,28.94,5,30.25,2.54,58-7,.38,3.06.79,6.11,1.27,9.17,3.68,23.6,10.38,46.6,17,69.54C1565.93,2608.47,1568,2618.67,1562.2,2625.34Z"/><path class="cls-14" d="M1585.84,2295.28a821.67,821.67,0,0,0-26.51,79c-18.61-9-44.95-20.86-80.55-35.12q5.09-27.17,9.73-54.4Z"/><g class="cls-15"><path d="M1562.2,2625.34c-4.18,4.79-11,5.93-17.36,6.7-73.7,9-119.43,5.67-193.47.24-16.59-1.22-33.34-2.57-49.21-7.56-4-1.27-8.4-3.21-9.78-7.17-1.26-3.65.53-7.61,2.57-10.88,9.11-14.55,23.33-24.49,38.52-33,69.69,12.67,101.53,5.56,163.81-43.82,19.63,2.65,23.79-.31,47.9-8.6.39,3.06.8,6.11,1.28,9.17,3.68,23.6,10.38,46.6,17,69.54C1565.92,2608.47,1568,2618.67,1562.2,2625.34Z"/></g><path class="cls-2" d="M1796.72,1127.06c-38.86,15.13-54.36,26-76.3,55.62s-34.71,65-43.69,100.73c-21.75,86.45-23.12,177.6-51.29,262.18,56.56,36.3,127.11,50.15,193.19,37.91l62.49-202.82c19.94-64.73,40-134.27,20-199-6.47-21-17.66-41.33-35.73-53.75S1814.45,1114.15,1796.72,1127.06Z"/><g class="cls-16"><path class="cls-7" d="M2125.54,1357.93c-.12,25-1,49.9-1.76,74.81s-1.67,49.77-2.2,74.64-.79,49.74-.5,74.61,1.13,49.74,2.36,74.68a643.55,643.55,0,0,1-8.15-74.49c-1.38-25-1.64-50-1.09-75s1.9-49.92,3.8-74.8S2122.37,1382.71,2125.54,1357.93Z"/><path class="cls-17" d="M1873.47,1107.94c-31.37,4.79-58.43,24.29-77.87,48.73-22.16,27.85-34.31,62.07-43.42,96.07-10.39,38.78-18.81,78.17-27.07,117.45q-6.3,30-12.07,60c-3.54,18.46-6.74,37-10.39,55.44-6.62,33.45-15.31,67.58-34.52,96.26q-3.7,5.54-7.9,10.71c-.49.61.37,1.49.87.87,21.24-26.28,32-58.79,39.33-91.33,3.87-17.19,6.86-34.56,10.07-51.88q5.6-30.11,11.72-60.12,12.09-59.28,26.31-118.11c8.71-35.67,19-72,39.49-102.92,17.51-26.42,43.19-49.16,74.27-57.62a105,105,0,0,1,11.51-2.42c.78-.11.45-1.3-.33-1.18Z"/><path class="cls-17" d="M1863.45,1116.49c-30.74,7.28-51.31,34.54-65,61.22-16.22,31.54-25.32,66.1-31.83,100.8-6.71,35.78-10.83,72-17.41,107.79a969.78,969.78,0,0,1-67.88,219.06q-2.86,6.41-5.81,12.77c-.33.71.73,1.34,1.07.62A969.26,969.26,0,0,0,1747,1404.07c7.19-35.46,11.65-71.34,17.58-107,5.83-35.07,13.34-70.22,27.48-103,12.36-28.61,30.53-59.81,60.47-72.7a68.57,68.57,0,0,1,11.25-3.7c.77-.18.45-1.36-.32-1.18Z"/><path class="cls-17" d="M1887.91,1124.87c-20.8,23.63-35,52.16-45.05,81.83-11.21,33.13-17.22,67.68-23.41,102-6.36,35.28-13.83,70.16-24.08,104.54-10.07,33.76-22.09,66.91-35.09,99.64-13.2,33.19-27.42,66-41.75,98.68l-5.29,12.06c-.32.71.74,1.34,1.06.62,14.08-32.09,28.15-64.18,41.36-96.63C1769,1495,1781.38,1462,1792,1428.36a865.59,865.59,0,0,0,25.59-102.69c6.51-35,11.92-70.29,22-104.48,9-30.54,21.75-60.44,41.25-85.82,2.54-3.3,5.2-6.51,8-9.63.52-.6-.35-1.47-.87-.87Z"/><path class="cls-17" d="M1757.27,1188.87c-16.47,21.69-25.58,47.75-31.84,74-6.54,27.38-10.87,55.32-15.46,83.08-4.69,28.43-9.21,56.9-14.56,85.22-5.29,28-11.39,55.87-19.28,83.26S1658.41,1569,1646,1594.8q-2.33,4.8-4.77,9.55c-.36.71.7,1.33,1.06.62a485.47,485.47,0,0,0,31.61-78.62c8.41-27.2,14.89-54.95,20.42-82.86,5.6-28.26,10.24-56.7,14.9-85.13,4.59-28,9-56,14.88-83.76,5.67-26.74,13.41-53.68,28.44-76.81,1.84-2.84,3.8-5.61,5.84-8.3.48-.63-.58-1.24-1.06-.62Z"/><path class="cls-17" d="M1759.8,1126.29c.31,2.63,3.75.29,3-1.6-.56-1.47-2.65-1.18-3.71-.54-2,1.23-3.24,3.76-4.48,5.68a313.69,313.69,0,0,0-16.83,29.64,435,435,0,0,0-25.16,63.1c-3.46,10.89-6.59,21.88-9.49,32.92-3.09,11.77-5.79,23.63-9.23,35.3a211.44,211.44,0,0,1-13.34,34c-5.32,10.76-11.27,21.22-17.32,31.58q-18.3,31.37-39.08,61.19-2.62,3.75-5.27,7.48c-.46.64.6,1.26,1.06.62q19.73-27.72,37.35-56.86c11.52-19.08,23.12-38.52,31.45-59.24s12.48-42.92,18.45-64.4a527.29,527.29,0,0,1,20.56-60.75,331.35,331.35,0,0,1,29.68-56.65c.71-1.07,1.85-2.89,3.31-2.85,1.83,0,.19.89.24,1.39-.09-.77-1.32-.78-1.23,0Z"/><path class="cls-17" d="M1730.44,1148q-7.76,24.91-15.5,49.83l-15.57,50c-5.09,16.39-10,32.84-15.31,49.18a139.35,139.35,0,0,1-8.9,22.3,110.77,110.77,0,0,1-12,17.68c-8.62,10.72-18.35,20.8-24.74,33.09-.8,1.55-1.55,3.12-2.23,4.73-.31.72.75,1.34,1.06.62,5.53-13,15.13-23.46,24-34.19a144.22,144.22,0,0,0,12.36-16.74,109.26,109.26,0,0,0,9.56-21.07c2.76-7.87,5.11-15.89,7.59-23.85q3.87-12.46,7.75-24.92,7.79-25,15.56-50.05l15.57-50,1.95-6.29c.24-.75-.95-1.08-1.18-.32Z"/></g><path class="cls-1" d="M1797,1441.22c-15.3,11.39-33.94,34.14-42.42,51.08a2253,2253,0,0,0-97.89,225.39c-5.51,14.84-11.2,30.28-22.58,41.41-19.15,18.73-49.71,20.56-76.1,15s-51.28-17.11-77.93-21.31a144.89,144.89,0,0,0-102.28,22.63c-10.49,7.08-21,19.93-14.77,30.87,3.91,6.9,12.66,9.23,20.49,10.91,11.58,2.49,23.25,5,35.1,5.16,20.5.3,40.62-6.38,61.12-6,51.68.9,94.08,45.34,145.66,48.57,32.21,2,63.73-12.85,87.54-34.33s40.9-49.11,56.31-77c25.81-46.79,48-96.22,57.31-148.67s4.91-108.46-20.16-155.63"/><g class="cls-18"><path class="cls-1" d="M1831.78,1432.19c-16.9,8.39-31.08,21.15-42.91,35.71-12.14,14.94-22,31.58-31.14,48.45-10.35,19-20.4,38.29-29.92,57.75-9.9,20.24-19.06,40.89-26.24,62.26a314.79,314.79,0,0,0-9.12,32.58q-1.79,8.1-3.06,16.29c-.41,2.64-.83,5.29-1.1,7.94a14.75,14.75,0,0,0,.35,5.92,5.9,5.9,0,0,0,3,3.74c.71.34,1.34-.72.63-1.07-4.29-2.08-2.8-8.64-2.29-12.33q1.14-8.22,2.83-16.35a302.92,302.92,0,0,1,8.4-31.76c6.78-21.12,15.56-41.53,25.17-61.5,9.36-19.48,19.42-38.64,29.61-57.69,8.88-16.61,18.23-33.08,29.62-48.12,11.17-14.76,24.49-28.14,40.6-37.46q3-1.74,6.17-3.3c.71-.35.08-1.41-.62-1.06Z"/><path class="cls-14" d="M1827.92,1449.14c-15.12,9.94-26.15,24.53-35.19,40-10.48,17.9-19.24,36.87-28.55,55.4q-31,61.63-61.94,123.27c-10,20-19.8,40.09-30.21,59.86-9.31,17.66-20,35.07-35,48.49-14.08,12.57-31.78,21.27-50.93,21.26-20.05,0-38.83-8.58-56.51-17.19-8.85-4.32-17.64-8.8-26.69-12.7a194,194,0,0,0-28.89-9.84,196.28,196.28,0,0,0-61.45-5.61q-7.5.51-14.93,1.6c-.78.11-.45,1.3.32,1.19a194.32,194.32,0,0,1,94.41,9.78,288.63,288.63,0,0,1,27.94,12.38c17.34,8.51,35,17.82,54.36,20.73,18.12,2.73,35.81-1.54,51.14-11.46,16.16-10.46,28.37-25.67,38.26-42,11.11-18.33,20.14-38,29.75-57.07L1756,1563.56c10-19.86,19.75-39.85,30-59.57,8.46-16.28,17.92-32.54,31.49-45.12a85.05,85.05,0,0,1,11.07-8.67c.66-.43,0-1.49-.62-1.06Z"/><path class="cls-14" d="M1817.08,1509.82c-19.84,29.85-37.29,61.19-53.89,92.92s-32.44,64-49.13,95.78c-8.32,15.82-16.85,31.53-25.8,47q-6.63,11.46-13.59,22.72a210.73,210.73,0,0,1-14.81,21.58,85.18,85.18,0,0,1-18,17,80.06,80.06,0,0,1-21,10.1c-14.95,4.74-30.87,5.65-46.44,4.66-35.8-2.29-70-15.56-105.92-16.77-4.57-.16-9.15-.1-13.71.18-.79,0-.79,1.27,0,1.22,37.23-2.24,72.64,11.37,109.19,15.65,30.39,3.55,64.08.65,87.5-21.17,12.47-11.62,21.26-26.73,30-41.2,9.32-15.5,18.16-31.29,26.71-47.23,17.08-31.81,33-64.21,49.56-96.3s33.76-64,53.23-94.47q3.55-5.58,7.22-11.09c.44-.66-.62-1.27-1.06-.62Z"/><path class="cls-14" d="M1834.82,1575.84c-23.34,11.91-36,36.33-47,58.94-6.67,13.81-13.39,27.58-20.63,41.1q-11.23,21-23.65,41.41a818.51,818.51,0,0,1-53.81,78.24c-8.84,11.34-18.26,22.34-29.16,31.76a106.85,106.85,0,0,1-38.3,21.74c-29.28,9-60.76,5.17-90.41.26-3.63-.6-7.25-1.23-10.87-1.86-.77-.14-1.1,1-.32,1.18,29.56,5.17,60.33,10.31,90.2,4.53a104.73,104.73,0,0,0,40.25-16.92c11.74-8.21,21.85-18.5,31.06-29.41,9.75-11.56,18.75-23.79,27.54-36.09q14-19.52,26.8-39.79a855.94,855.94,0,0,0,46.71-83.78c11.34-23.33,22.1-49.82,44-65.34a66.5,66.5,0,0,1,8.13-4.91c.7-.36.08-1.42-.62-1.06Z"/></g><g class="cls-15"><path d="M1813.92,1654.48c-11.29,34.32-27.14,67.31-44.66,99.07-15.42,28-32.52,55.58-56.32,77.06s-55.33,36.35-87.54,34.33c-51.57-3.23-94-47.67-145.65-48.57-20.51-.35-40.63,6.33-61.13,6-11.85-.18-23.53-2.67-35.09-5.15-7.83-1.69-16.59-4-20.5-10.92-6.19-10.94,4.28-23.79,14.78-30.87.72-.49,1.46-1,2.19-1.45,20.45,3,41.49-.28,61.92,3.08,52.73,8.72,89.59,59.11,141.88,70.11,32.65,6.89,67.07-3,94.57-20.69s49-42.37,68.91-67.68C1772.9,1726.2,1796.55,1691.68,1813.92,1654.48Z"/></g><path class="cls-1" d="M1849.46,1417.72c6.84-2.72,41.11-9,48.47-9.13,76.45-1.52,128.53,19.63,170.38,86.3,17.46,27.81,39.68,96.43,50.45,127.45,40.43,116.4,28.81,228.47-29.07,337.24-.71-8.5-16-14.89-23.14-19.56-19.91-13-43.13-20-66.22-25.78-78.67-19.74-137.67-27.89-218.7-24.11,35-49,41-113.88,30.93-173.26s-.45-106.57-22.14-162.75c-6.49-16.81-12.81-33.93-14.64-51.85s1.26-37,12.07-51.39c14.26-19,38.76-26.63,61.61-33.16"/><g class="cls-19"><path class="cls-14" d="M1820.42,1407c-8.36,11.55-10.23,26-10.53,39.92-.37,16.92.45,33.94,1.42,50.83,2,34.57,5.71,69,9.82,103.39,4.13,34.57,8.64,69.11,12.13,103.76,1.74,17.23,3.23,34.49,4.3,51.77,1,17,1.9,34.12,1,51.16-1.65,30.27-9.94,61.94-32.16,83.83a82.59,82.59,0,0,1-8.4,7.22c-.62.46,0,1.53.63,1.06,23.13-17.36,35.07-45.29,39.27-73.23,2.51-16.7,2.58-33.66,1.92-50.5-.68-17.41-1.94-34.8-3.48-52.15-3.09-34.85-7.46-69.56-11.7-104.28s-8.38-69.74-10.94-104.77c-1.28-17.41-2.17-34.85-2.48-52.31-.28-15-.91-31,4.83-45.21a46.62,46.62,0,0,1,5.46-9.87c.47-.64-.6-1.25-1.06-.62Z"/><path class="cls-14" d="M1866.92,1429.67c-10.91,6.79-15.5,19.48-18.07,31.46-3.51,16.33-5.11,33.16-5.86,49.82-1.58,35.09,1.48,70.19,5.08,105.07,3.4,33,7.45,65.94,8.46,99.1.9,29.53-.42,59.3-6.12,88.34-5.59,28.47-15.56,56.24-31.61,80.54-2,3-4.06,6-6.21,8.85-.48.63.59,1.25,1.06.62,17-22.87,28.37-49.35,35.14-77,6.9-28.15,9.28-57.27,9.22-86.2-.07-32.07-3.39-64-6.77-95.85-3.67-34.65-7.46-69.4-7.44-104.29a372.59,372.59,0,0,1,3.45-52.46c1.93-13.65,3.91-29.37,12.89-40.45a29.45,29.45,0,0,1,7.4-6.54c.67-.42,0-1.48-.62-1.06Z"/><path class="cls-14" d="M1912.56,1443.94c-9.69,9-13.28,22.22-15,35-2.18,16.12-2.67,32.56-2.72,48.81-.11,34.41,2.94,68.72,5.85,103,2.75,32.38,5.45,64.83,5.09,97.35-.33,29.34-3,58.8-9.87,87.38-6.74,28.08-17.68,55.27-34.09,79.14-1,1.4-1.91,2.81-2.94,4.15a7.88,7.88,0,0,1-2.09,2.06c-1.36.78-4.67-.69-2.78-2.21.61-.49-.26-1.36-.87-.87-1.43,1.15-.85,3.18.5,4.17,1.83,1.35,4,.08,5.34-1.34,2.33-2.47,4.14-5.64,6-8.46q3.09-4.69,5.93-9.55a230,230,0,0,0,18.26-39.78c9.94-28.27,14.86-58.12,16.82-88,2.13-32.36.59-64.77-1.87-97.07-2.74-35.82-6.55-71.59-7.72-107.52-.57-17.81-.49-35.66.71-53.45,1-14.6,1.89-30.63,9.56-43.54a38,38,0,0,1,6.75-8.36c.58-.54-.29-1.41-.87-.87Z"/><path class="cls-14" d="M2009.06,1403.21c-15.16-.28-23.75,15.86-29.28,27.67a202.75,202.75,0,0,0-15.3,49.13c-6.43,34.63-6.15,70.18-5.78,105.26.39,36,1.58,71.88,1.24,107.83s-2.19,71.85-8.17,107.26a401.37,401.37,0,0,1-11.94,51q-3.9,12.68-8.78,25c-2.93,7.41-5.75,15.69-11.16,21.72a15.83,15.83,0,0,1-9.8,5.53c-.78.1-.79,1.33,0,1.23,6.36-.79,10.85-5.31,14.1-10.54,4.15-6.69,6.87-14.43,9.65-21.75a362.4,362.4,0,0,0,15-50.71c7.6-34.45,10.72-69.74,11.85-104.95,1.14-35.92.22-71.86-.41-107.78-.62-35.53-1.66-71.39,2.19-106.78,1.9-17.48,5.16-34.88,10.72-51.59a173.66,173.66,0,0,1,10.35-24.77c3.55-6.9,8-14,14.61-18.32a19.12,19.12,0,0,1,10.91-3.24.62.62,0,0,0,0-1.23Z"/><path class="cls-14" d="M2112.62,1469.36c.89-5.71-5.61-9.4-10.68-8.21-7.65,1.81-11.28,11.3-14.46,17.5a537.39,537.39,0,0,0-23,51.63c-13.74,35.6-24,72.44-32.38,109.64-8.47,37.63-15,75.65-21.4,113.68-6.39,38.19-12.56,76.43-20.18,114.4-3.8,18.9-8,37.73-12.69,56.42-2.09,8.26-4,16.67-7.14,24.61-2.79,7.1-6.71,14.46-13,19a20.91,20.91,0,0,1-10.2,3.92c-.78.09-.79,1.32,0,1.23,14.17-1.5,21.57-15.38,25.74-27.5,2.79-8.1,4.7-16.55,6.76-24.86q3.43-13.8,6.49-27.7c8.15-36.91,14.56-74.18,20.79-111.46s12.31-74.82,19.77-112c7.35-36.61,16.08-73,27.73-108.52,5.88-17.89,12.49-35.55,20-52.81q5.64-12.95,12-25.56c2-4,4-8.17,6.33-12.07,2.11-3.55,5.14-7.7,9.5-8.49,4-.73,9.59,2.09,8.86,6.76-.12.77,1.06,1.11,1.19.33Z"/><path class="cls-14" d="M2137.22,1544.33c-8.82,6.61-14.08,16.37-17.39,26.7-3.85,12-5.49,24.69-7.62,37.09q-7.76,45.18-15.5,90.37l-7.77,45.31c-2.46,14.32-4.94,28.64-8.13,42.82-5.94,26.41-14.81,51.86-28.63,75.21a230.23,230.23,0,0,1-48.25,57.5q-3.54,3-7.21,5.92c-.62.49.25,1.35.87.87a231.19,231.19,0,0,0,49.89-54.44c14.35-21.83,24.53-45.87,31.2-71.1,7.49-28.34,11.63-57.54,16.58-86.39q7.74-45.18,15.5-90.37c2.35-13.68,4.31-27.49,7.26-41.06,2.41-11.12,5.95-22.64,13.49-31.44a39.49,39.49,0,0,1,6.33-5.93c.62-.47,0-1.54-.62-1.06Z"/><path class="cls-14" d="M2054.64,1979.88c3.94-33.8,23.25-62.76,42.51-89.82,9.81-13.78,19.82-27.42,28.75-41.81a419.5,419.5,0,0,0,24.35-45.29c14.32-31,25.06-63.46,33.21-96.54,8.23-33.44,13.84-67.48,18-101.65,4.17-34.7,6.79-69.56,8.89-104.44q.39-6.45.76-12.88c0-.79-1.18-.79-1.23,0-2,34.84-4.37,69.68-8.17,104.39s-9.07,69.58-16.9,103.76c-7.73,33.68-18,66.84-31.87,98.51a431.26,431.26,0,0,1-23.14,45.39c-8.62,14.65-18.36,28.54-28.25,42.35-19,26.52-39.15,54.08-46.21,86.56-.82,3.79-1.44,7.62-1.89,11.47-.09.78,1.14.78,1.23,0Z"/></g><g class="cls-15"><path d="M2089.69,1959.58c-.7-8.5-16-14.89-23.14-19.56-19.91-13-43.14-20-66.22-25.78-78.67-19.74-137.67-27.89-218.69-24.12,15.27-21.4,25-45.82,30.3-71.49,110.46-54.71,209.3-115.1,245.58-236.37,5.1-17.07,12.88-42,20.66-68.69,15.27,32.78,31.77,83.39,40.58,108.77C2159.18,1738.74,2147.58,1850.81,2089.69,1959.58Z"/></g><g class="cls-15"><path d="M1693.21,1876.73c-1,.48-1.91,1-2.85,1.45A3.13,3.13,0,0,1,1693.21,1876.73Z"/></g><path class="cls-13" d="M1972.61,1758.21c-42.57-5.78-81.25-11.37-124.11-14.18a125.43,125.43,0,0,0-94.27,34.68c-6.09,5.91-11.85,13.09-12.39,21.56-.79,12.22,10.08,22.79,22,25.65s24.38-.21,36-4,23.35-8.28,35.59-8.37c19.1-.14,36.85,10.48,55.91,11.57,25.78,1.48,50.62-14.55,76.19-11"/><path class="cls-14" d="M1972.6,1758.21l-5.06,55.93c-25.57-3.53-50.42,12.51-76.2,11-19-1.09-36.8-11.71-55.89-11.57-12.25.09-24,4.61-35.61,8.36s-24.12,6.83-36,4a30.59,30.59,0,0,1-5.27-1.79c.43.08.86.16,1.29.22,12.12,1.72,24.24-2.51,35.49-7.35s22.46-10.44,34.65-11.69c19-2,37.66,7,56.74,6.24,25.81-1,49-19.28,74.82-18.18l-.16-36.68Z"/><path class="cls-1" d="M1988.65,1457.43c19.68-21.08,28.62-35.57,107.15,47,13.15,13.83,22.74,30.61,32.26,47.16q20.37,35.41,39.57,71.5c31.47,59.16,61.15,122.08,62.32,189.09.37,21.07-3.59,44.82-20.76,57-12.11,8.63-28,9.4-42.89,8.73a293.19,293.19,0,0,1-76.38-13.79c-50.22-16.18-99.27-46.36-151.54-39.23a401.31,401.31,0,0,0-.2-81.71c35.62,1,86.58,2.47,122.16.51,23.74-44-10.54-73.64-20-105.78-7.83-26.66-36.14-54.89-46.41-80.71C1984.22,1532.8,1961.18,1486.84,1988.65,1457.43Z"/><g class="cls-20"><path class="cls-14" d="M1989.88,1473.33q28.26,48.6,56.5,97.2l27.95,48.08c8.91,15.33,18.31,30.5,26.24,46.38,7.31,14.63,13.17,30.35,14,46.83.7,14.42-2.29,29.4-10.71,41.35-16.54,23.44-48,26.55-74.17,22.56-32.31-4.93-62.05-21.39-95.06-22.77a96.58,96.58,0,0,0-12.5.27c-.78.07-.79,1.3,0,1.23,34.91-3,66.53,14.34,99.89,21.14,25.28,5.16,55.83,5,75.84-13.72,10.58-9.87,16.18-23.7,17.63-37.93,1.6-15.63-1.77-31.16-7.54-45.64-6.41-16.07-15.45-30.93-24.12-45.85q-14.28-24.56-28.55-49.11l-57.4-98.75q-3.46-5.94-6.91-11.89a.62.62,0,0,0-1.07.62Z"/><path class="cls-14" d="M2002.82,1437.1c8.5,19,21.24,35.66,34.48,51.62s26.72,31.67,38.71,48.64c23.58,33.37,43,70.15,54.43,109.5a260.08,260.08,0,0,1,10.26,59.3,225.46,225.46,0,0,1-.42,29.52,175.29,175.29,0,0,1-4.87,30.73c-2.6,9.76-7.06,18.75-14.77,25.46-7.18,6.26-16.14,10.2-25.23,12.77-20,5.65-41.45,5.73-62,3.64-42.83-4.37-84-18.69-127-21.91q-7.9-.6-15.85-.63a.61.61,0,0,0,0,1.22c44.34.18,86.79,14.71,130.35,21,20.79,3,42,4,62.8.53,17.85-3,37-10,46.72-26.37,5.22-8.79,7.34-19,9-29a218.78,218.78,0,0,0,2.78-30.34,246.39,246.39,0,0,0-6.2-59.41c-9.1-40.37-27.1-78.43-49.64-113a511.45,511.45,0,0,0-37-49.19c-13.71-16.32-27.83-32.52-38.51-51a149.67,149.67,0,0,1-7-13.65c-.33-.73-1.39-.1-1.07.62Z"/><path class="cls-14" d="M2062.91,1445.11c6.15,19.43,17.83,36.28,29.77,52.56,6.09,8.3,12.29,16.52,18,25.09a252.49,252.49,0,0,1,15.89,27.59c9.83,19.82,17.28,40.72,23.69,61.86,6.5,21.41,12.21,43.1,17.65,64.81,5.86,23.39,10.87,47.17,12,71.33a174.46,174.46,0,0,1-1.31,33.65c-1.39,9.36-4,18.81-9.09,26.87-5.7,9-14.35,14.57-24.33,17.8-10.45,3.38-21.61,5-32.49,6.29-22.88,2.65-46,2.23-68.92.49-46.25-3.52-92-12.39-138.45-13.52q-8.34-.21-16.68,0a.62.62,0,0,0,0,1.23c47.22-.9,93.84,7.74,140.68,12.31,23.18,2.25,46.53,3.52,69.79,2a256,256,0,0,0,33.68-4.37c10-2,20.3-4.77,28.47-11.16,15.15-11.86,18.78-32.62,19.81-50.7,1.36-24-2-47.89-7-71.26-4.92-22.92-11.13-45.61-17.44-68.18-5.93-21.22-12.5-42.3-21.06-62.62a284.07,284.07,0,0,0-31.73-56.3c-12-16.64-25.1-32.81-34-51.44a112.42,112.42,0,0,1-5.77-14.6c-.24-.75-1.43-.43-1.19.33Z"/><path class="cls-14" d="M2071.33,1864.85c18.83-.9,37.71-1.81,56.37-4.65,16.93-2.57,33.67-6.79,49.33-13.83,14.7-6.61,28.8-15.8,39.46-28,5.32-6.11,9.66-13.16,11.58-21.1,2.13-8.81,1.55-18,.83-27a308.32,308.32,0,0,0-9.56-55.28q-.91-3.36-1.89-6.7a.61.61,0,0,0-1.18.33A306.5,306.5,0,0,1,2227,1763c.48,4.59.87,9.2,1.12,13.81a88.09,88.09,0,0,1-.14,13.59,44.61,44.61,0,0,1-3.13,12.7,50.09,50.09,0,0,1-6,10.29,87.21,87.21,0,0,1-17.17,16.94A124.28,124.28,0,0,1,2181.3,1843c-14.94,7.4-31.1,12-47.47,15-18.37,3.26-37,4.41-55.64,5.33l-6.86.33c-.78,0-.79,1.27,0,1.23Z"/></g><g class="cls-15"><path d="M2209.19,1869.27c-12.12,8.63-28,9.41-42.89,8.73a293.27,293.27,0,0,1-76.38-13.79c-50.22-16.18-99.27-46.36-151.54-39.23q1.3-13,1.75-26.1c47.93-5.77,95.65,19,143.44,31.14a282.07,282.07,0,0,0,77.25,8.54c14.86-.42,30.67-2.43,42.07-12.33,16.15-14,18.21-39,16.17-60.94a287.68,287.68,0,0,0-12-58.7c13.19,34,22.24,69.24,22.88,105.63C2230.32,1833.29,2226.37,1857,2209.19,1869.27Z"/></g><path class="cls-13" d="M1818,1348.67c21.44,19.51,22.17,57.36,1.5,77.69-2.35,2.3-5,4.5-6.24,7.54-1.45,3.49-.82,7.49.31,11.09a44,44,0,0,0,34.55,29.66c16.15,2.47,32.24-4.36,46.36-12.57a224.53,224.53,0,0,0,60-50.89c-22.12-.23-40.13-17.76-52.6-36a211.77,211.77,0,0,1-29.63-64.61"/><path class="cls-14" d="M1869.18,1332.86c-1,16.43-11.51,30.57-21.65,43.55a126.11,126.11,0,0,1-13,14.82,57.48,57.48,0,0,0-5.73-28.2,76.36,76.36,0,0,0,18.77-13.51c4.61-4.53,8.77-9.74,14.46-12.79Z"/><path class="cls-13" d="M1817.41,1134c-40.28-1.61-76.2,30.34-90.4,68.06s-10.8,79.73-3.25,119.33c4.62,24.3,13,51.29,35.22,62.17,14,6.85,30.67,5.58,45.66,1.38,49.27-13.8,87.78-59.83,92.67-110.76,1.32-13.79.39-27.71-1.53-41.43-5.68-40.66-24.09-84.34-62.18-99.64"/><path class="cls-1" d="M1745.77,1332.86a16.12,16.12,0,0,0,2.62.79c.87.18,1.7.37,2.55.53,1.68.33,3.32.64,4.91.9.79.14,1.56.24,2.29.34a11.87,11.87,0,0,0,1.88.08h.16l.07,0h.06l.2,0c.32-.07.64-.13,1-.22.65-.16,1.32-.36,2-.58,1.38-.45,2.86-1,4.45-1.59s3.31-1.14,5-1.58a37.5,37.5,0,0,1,10.92-1.4,37.29,37.29,0,0,1-8,7.52c-1.45,1-2.91,2-4.46,2.88a28,28,0,0,1-5.24,2.35,20.9,20.9,0,0,1-3.05.74c-.53.08-1.07.15-1.62.18a10.16,10.16,0,0,1-2.12-.07,13.48,13.48,0,0,1-3.25-.92,21.29,21.29,0,0,1-2.66-1.33,23.1,23.1,0,0,1-4.57-3.54,17.14,17.14,0,0,1-1.87-2.26A7.28,7.28,0,0,1,1745.77,1332.86Z"/><path class="cls-13" d="M1734.05,1307.66c-1,1.62-2.93,2.44-4.77,3a28.25,28.25,0,0,1-7.25,1.13q-1.33-7.76-2.35-15.6a34.2,34.2,0,0,1,11.51,3.7l1.73,2.88C1734.7,1303.44,1735.08,1306,1734.05,1307.66Z"/><path class="cls-17" d="M1733.52,1307.35c-1.06,1.6-3,2.3-4.75,2.8a28.46,28.46,0,0,1-6.74,1l.59.45q-1.32-7.69-2.33-15.44l-.78.6a34.87,34.87,0,0,1,6.9,1.66,33.39,33.39,0,0,1,3.44,1.45,5.75,5.75,0,0,1,.82.42s-.07-.15,0,0a3.06,3.06,0,0,1,.3.49l1,1.59a2.64,2.64,0,0,0,.72,1,2.68,2.68,0,0,1,.82.64,2.6,2.6,0,0,1,.45,1.07,3.34,3.34,0,0,1-.43,2.33c-.41.67.65,1.29,1.06.62a4.5,4.5,0,0,0,.33-4,3.27,3.27,0,0,0-1.23-1.52c-.1-.07-.49-.26-.23,0,0,0,0-.06,0-.08s-.18-.3-.27-.45c-.46-.76-.87-1.61-1.4-2.33a1.9,1.9,0,0,0-.74-.5c-.48-.25-1-.48-1.45-.7-.92-.42-1.85-.8-2.81-1.14a35.31,35.31,0,0,0-6.89-1.66c-.34,0-.83.15-.78.59q1,7.9,2.37,15.77a.63.63,0,0,0,.6.45,29.05,29.05,0,0,0,7.51-1.18,8.71,8.71,0,0,0,5-3.24C1735,1307.3,1734,1306.69,1733.52,1307.35Z"/><path class="cls-13" d="M1725.08,1250.06a20.68,20.68,0,0,1,16.2,4.49c.6.5,1.47-.36.86-.87a22,22,0,0,0-17.39-4.8c-.78.12-.45,1.3.33,1.18Z"/><path class="cls-7" d="M1717.65,1252.1a6.32,6.32,0,0,1,4.09-3.76,8.81,8.81,0,0,1,9.81,3.21,6.33,6.33,0,0,1,1,5.48c-2-.44-3.39-.66-4.59-.88a25,25,0,0,1-3.15-.78,25.3,25.3,0,0,1-3-1.25C1720.76,1253.58,1719.55,1253,1717.65,1252.1Z"/><path class="cls-7" d="M1767.84,1253.67a31.21,31.21,0,0,1,9.5-7.36,41.75,41.75,0,0,1,11.33-3.88,41.09,41.09,0,0,1,12-.55,26.5,26.5,0,0,1,6,1.25,11.4,11.4,0,0,1,5.2,3.51,20.39,20.39,0,0,0-5.65.09c-1.79.25-3.56.59-5.4,1l-10.79,2-10.78,2.09C1775.61,1252.45,1771.93,1253.22,1767.84,1253.67Z"/><path class="cls-7" d="M1774.9,1271.19a9.58,9.58,0,0,1,2.67-4.43,13.68,13.68,0,0,1,4.55-2.85,16.15,16.15,0,0,1,10.85-.16,17.8,17.8,0,0,1,8.54,6.27,15.7,15.7,0,0,1,3.24,9.53c-2.7-2.09-5-3.9-7.3-5.39a31.34,31.34,0,0,0-6.85-3.43,22.53,22.53,0,0,0-7.25-1.17A22.12,22.12,0,0,0,1774.9,1271.19Z"/><path class="cls-7" d="M1724.32,1271.41a2.5,2.5,0,0,1-.26-2.11,4.21,4.21,0,0,1,1.32-2,5.24,5.24,0,0,1,2.36-1.07,7.42,7.42,0,0,1,2.44,0,11.74,11.74,0,0,1,3.91,1.44,14.06,14.06,0,0,1,3.05,2.43,13.35,13.35,0,0,1,3.43,6.79,12.11,12.11,0,0,1,0,3.8,8.84,8.84,0,0,1-1.45,3.54c-1.56-2.11-2.75-3.69-4-5.15s-2.3-2.7-3.44-3.94l-1.75-1.8-1.69-1.63a7.55,7.55,0,0,0-.69-.62,2.56,2.56,0,0,0-.77-.47,2.5,2.5,0,0,0-1.2,0A2.15,2.15,0,0,0,1724.32,1271.41Z"/><path class="cls-14" d="M1747.15,1265.36a18.37,18.37,0,0,1,7.15,12.46,24.46,24.46,0,0,1-.27,7.51,51.43,51.43,0,0,1-1.81,6.89l-2.24,6.3a46.57,46.57,0,0,0-1.64,6,26.23,26.23,0,0,0-.49,6.19,15.13,15.13,0,0,0,1.67,6.33,12,12,0,0,1-4.68-5.56,19.33,19.33,0,0,1-1.5-7.33,29.35,29.35,0,0,1,.86-7.33c.56-2.33,1.28-4.53,2-6.66,1.48-4.23,2.83-8.18,3.14-12.18A27.32,27.32,0,0,0,1747.15,1265.36Z"/><path class="cls-7" d="M1787.94,1267.62c.53-.49-.51-1.17-1.22-1-3.15.66-4.45,4.41-4.78,7.6-.42,4.08,0,8.58,2.76,11.59s8.52,3.33,10.54-.23c1.11-2,.83-4.37.51-6.6-.41-2.85-.86-5.81-2.46-8.2s-4.72-4-7.42-3"/><path class="cls-7" d="M1734.64,1271.42c-1.67-1.14-4.11-.06-5.13,1.68s-1,3.88-1,5.9c.06,3,.15,6,1.59,8.62s4.7,4.41,7.41,3.23c2.15-.92,3.27-3.41,3.27-5.75a18.06,18.06,0,0,0-1.76-6.73c-1.09-2.7-2.23-5.48-4.32-7.51"/><path class="cls-1" d="M1830.69,1290.27a34.73,34.73,0,0,0-26.94,8.39,3.59,3.59,0,0,0-1.46,2.26,2.88,2.88,0,0,0,.59,1.74c1.52,2.27,4.32,3.3,7,3.81a29.25,29.25,0,0,0,22.91-5.45c1.52-1.17,3-2.63,3.37-4.51s-.91-4.17-2.83-4.17"/><path class="cls-1" d="M1734.05,1307.66c-1,1.62-2.93,2.44-4.77,3a28.25,28.25,0,0,1-7.25,1.13q-1.33-7.76-2.35-15.6a34.2,34.2,0,0,1,11.51,3.7l1.73,2.88C1734.7,1303.44,1735.08,1306,1734.05,1307.66Z"/><path class="cls-14" d="M1768.05,1151.45a142.34,142.34,0,0,1,32.12,44.74c5.73,12.61,9.58,26,14,39.09,5.7,16.8,12.38,33.24,19.06,49.67,4.45,10.94,8.92,21.91,14.64,32.24,6.74,12.15,15.36,23.51,26.67,31.59,12.36,8.82,27.21,13.28,41.77,17.6q-35.31-80.07-67.88-161.3c-3-7.39-5.93-14.84-10.21-21.55-5.23-8.19-12.26-15.06-19.38-21.68-7.54-7-15.56-14-25.36-17.23s-21.89-1.54-28.3,6.52Z"/><path class="cls-2" d="M1760.26,1142.62c23.5,13.91,39.43,37.78,51.1,62.48s19.93,51,32.63,75.13c13.64,26,16.07,49.81,34.46,72.69,16.18,20.13,30.32,41.23,76.08,58.27,45.42,16.92,61.71,21,85.84,47.42-8.26-110.44-48.16-218.81-123.57-299.92-8.72-9.38-17.89-18.49-28.61-25.49-36.92-24.13-88.27-18.71-124.55,6.37"/><g class="cls-21"><path class="cls-2" d="M1766.17,1128.53l3.54,1.77a.62.62,0,0,0,.84-.22.62.62,0,0,0-.22-.84l-3.54-1.77a.61.61,0,1,0-.62,1.06Z"/><path class="cls-17" d="M1745.32,1123.48a164,164,0,0,1,64.69,35c19.19,16.7,34.52,37.48,45.79,60.24a226.84,226.84,0,0,1,14.08,35.92,351.34,351.34,0,0,1,9.18,41.34c4.57,26.91,7.61,54.23,15.56,80.44,6.88,22.7,17.41,44.92,34.23,62,2,2.07,4.16,4,6.36,5.94.6.51,1.48-.36.87-.87-18.63-16-30.58-38.13-38.3-61.17-8.66-25.82-12-52.93-16.39-79.7a415.5,415.5,0,0,0-8.61-42.22,233.73,233.73,0,0,0-13-36.11c-10.52-23-25.06-44.29-43.47-61.71a168.18,168.18,0,0,0-61.9-37.61q-4.35-1.45-8.78-2.64a.61.61,0,0,0-.33,1.18Z"/><path class="cls-17" d="M1768.25,1123.34c20.34,2.27,39.18,11.87,54.5,25.21,16.38,14.26,28.46,32.58,37.18,52.36,9.4,21.33,15,44.13,19.32,67,4.72,24.82,8.07,49.9,13.69,74.54,4.65,20.39,10.5,42.23,25.06,58a60.39,60.39,0,0,0,5.5,5.23c.6.51,1.47-.36.87-.87-16.77-14.11-23.75-36-28.79-56.55-6-24.64-9.5-49.81-14-74.74-4.25-23.28-9.51-46.52-18.54-68.46-8.22-20-19.61-38.7-35.32-53.64-14.53-13.81-32.56-24.4-52.39-28.2-2.34-.45-4.68-.8-7-1.06-.79-.09-.78,1.14,0,1.23Z"/><path class="cls-17" d="M1814.06,1112.69a117.23,117.23,0,0,1,73.5,37.7c19.61,21.55,32.22,48.88,43.76,75.33a644.14,644.14,0,0,1,31.08,88.38c4.09,15,7.46,30.19,10.73,45.4s6.7,30.61,11.84,45.4c8.39,24.2,22.19,47.89,44.14,62.1a79.82,79.82,0,0,0,8.16,4.61c.71.34,1.33-.72.62-1.06-24.09-11.83-40-35.25-49.44-59.69-5.64-14.6-9.35-29.85-12.71-45.12s-6.54-30.64-10.51-45.81a646.15,646.15,0,0,0-30.07-88.36c-5.89-13.92-12.19-27.72-19.21-41.12-6.52-12.45-13.86-24.54-22.78-35.43-17.66-21.57-42-36.79-69.51-42.12-3.18-.61-6.38-1.08-9.6-1.44-.79-.09-.78,1.14,0,1.23Z"/><path class="cls-17" d="M1881.64,1110.42a267.07,267.07,0,0,1,58.72,54.52,229.41,229.41,0,0,1,38.37,70.43,219.5,219.5,0,0,1,9.21,42.94c1.92,16.5,2.55,33.11,3.78,49.67a384.62,384.62,0,0,0,6.63,49c3.19,15.46,7,31.15,13.14,45.75a88.4,88.4,0,0,0,24.37,33.7c10.45,8.86,22.57,15.53,35,21.14,3,1.35,6,2.63,9,3.87.74.31,1.05-.88.33-1.18-12.91-5.34-25.64-11.46-37-19.67a87.6,87.6,0,0,1-27.83-32.35c-7-14.18-11-29.91-14.44-45.27a363.54,363.54,0,0,1-7.52-49.56c-2.61-31.17-2.75-62.62-11.75-92.85a226.78,226.78,0,0,0-35.38-69.91,265.61,265.61,0,0,0-56-55.57q-4-2.92-8-5.69c-.65-.45-1.27.62-.62,1.06Z"/><path class="cls-17" d="M1914.65,1231c9.36,15,16.13,31.47,21.35,48.35s9,34.39,12.52,51.79c3.4,16.73,6.61,33.51,10.89,50,4.1,15.87,9.14,31.56,16,46.46,6.74,14.64,15.33,28.49,26.29,40.36q2,2.2,4.17,4.31c.56.56,1.43-.31.87-.86a146.89,146.89,0,0,1-27.94-39.55c-7.31-14.76-12.64-30.43-17-46.3-4.43-16.29-7.72-32.86-11-49.4-3.52-17.43-7.1-34.87-12-52-4.85-16.72-11.07-33.13-19.71-48.29-1.07-1.88-2.18-3.73-3.33-5.57-.41-.67-1.48-.05-1.06.62Z"/></g><path class="cls-17" d="M2020,1212.62l-2.7-2.61a.62.62,0,0,0-.87,0,.63.63,0,0,0,0,.87l2.7,2.61a.62.62,0,0,0,.87,0,.62.62,0,0,0,0-.87Z"/><path class="cls-13" d="M1702.4,2524.78c-27.77,9.54-29.07,12-58,7-5.73-1-12-2.62-15.28-7.37-4.39-6.26-2.21-15.76-7.36-21.41-5.77-6.33-16.12-3.45-24-.12l-.45.18a138.26,138.26,0,0,0,8-21c6.78-22,11.72-44.55,16.43-67.1q7.51-36,14.28-72.19c35.61,14.26,62,26.13,80.56,35.13C1703.35,2426.17,1696.39,2475.54,1702.4,2524.78Z"/><path class="cls-1" d="M1719.42,2628.88c-4.18,4.78-11.05,5.92-17.36,6.7-73.7,9-119.43,5.67-193.48.23-16.58-1.22-33.34-2.57-49.21-7.56-4-1.27-8.39-3.21-9.77-7.17-1.27-3.65.53-7.61,2.57-10.88,12.88-20.57,36-31.93,57.57-43.11q22.74-11.76,44.82-24.73c14-8.24,28.24-17.19,37.56-30.52a69.79,69.79,0,0,0,5.17-8.79l.45-.18c7.89-3.33,18.24-6.21,24,.12,5.15,5.65,3,15.15,7.36,21.41,3.33,4.75,9.55,6.38,15.28,7.37,28.94,5,30.24,2.55,58-7,.39,3.06.8,6.11,1.28,9.17,3.68,23.59,10.38,46.59,17,69.53C1723.14,2612,1725.26,2622.2,1719.42,2628.88Z"/><path class="cls-14" d="M1743.06,2298.81c-10,25.89-23.54,69.19-30.84,95.93-18.61-9-47.38-2.63-83-16.89,3.39-18.11,13.39-71.37,16.49-89.53Z"/><path class="cls-3" d="M1440.08,2303.45c11.81-35.07,73.89-266.61,85.7-301.69,8.46-25.13,17.11-50.64,32.21-72.44a142.64,142.64,0,0,1,67.26-52.17c25.33-9.37,52.74-11.31,79.74-12.33,121.54-4.63,183,7.33,302,32.87,12.87,2.76,25.94,5.78,37.27,12.49,31.79,18.82,67.47,5.59,28.26,98.13-17.49,41.27-59.62,71.78-104.42,70.28-34.63,3.07-70.61,28.13-91.86,55.64s-34.2,60.42-45.79,93.19q-22.8,64.47-40.09,130.7c-55.09,9.76-111.54-2.76-165.41-17.85S1496,2304.6,1440.08,2303.45Z"/><g class="cls-22"><path class="cls-3" d="M1586.62,2008.88c-3,5.63-.88,12.25,1.39,17.75s4.86,11.13,7.63,16.53a176.24,176.24,0,0,0,19.72,30.55,130.92,130.92,0,0,0,26.4,24.94,110.1,110.1,0,0,0,33,15.79,91.05,91.05,0,0,0,36,3c1.45-.18,2.9-.4,4.34-.66.78-.14.45-1.32-.33-1.19a87.68,87.68,0,0,1-35.59-1.28,107.1,107.1,0,0,1-33-14.19,125.26,125.26,0,0,1-26.77-23.51,167.28,167.28,0,0,1-20.27-29.5c-2.84-5.2-5.44-10.52-7.84-15.93-1.24-2.81-2.5-5.64-3.49-8.56a21.82,21.82,0,0,1-1.39-8.9,11.06,11.06,0,0,1,1.28-4.23c.37-.7-.69-1.32-1.07-.62Z"/><path class="cls-10" d="M1591.81,1982.08a119.4,119.4,0,0,0,19.19,32.86,203.57,203.57,0,0,0,26.19,26.49,296,296,0,0,0,31.11,23.36,291.9,291.9,0,0,0,33.44,18.82,296.4,296.4,0,0,0,36.11,14.5l4.64,1.48a3.08,3.08,0,0,0,1.64-5.93c-6.14-1.92-12.23-4-18.23-6.29q-4.41-1.7-8.76-3.52c-.54-.22-.08,0,0,0l-.46-.2-1.18-.51-2.22-1-4.3-1.94a293.26,293.26,0,0,1-33.41-18.09q-8-5.07-15.75-10.64c-1.28-.92-2.54-1.85-3.8-2.79l-1.84-1.39-.91-.7-.5-.38c.42.32,0,0-.19-.15q-3.72-2.89-7.36-5.91a221,221,0,0,1-26.73-25.81q-1.44-1.7-2.85-3.42c-.46-.58-.93-1.16-1.38-1.74l-.38-.49c-.31-.39.43.58-.05-.06l-.75-1q-2.74-3.64-5.23-7.46a110.18,110.18,0,0,1-8.7-16.2c-.06-.12-.24-.54,0,.06-.07-.15-.13-.3-.19-.46l-.42-1q-.43-1.1-.84-2.19a3.08,3.08,0,0,0-5.93,1.64Z"/><path class="cls-10" d="M1637.59,2084c0,4.59,3.36,8,7.08,10.17a53.23,53.23,0,0,0,5.52,2.71q3.25,1.49,6.54,2.89,13.41,5.76,27.22,10.51,13.53,4.64,27.41,8.22t28,6.09q14.43,2.58,29,4c1.16.11,2.33.23,3.5.33a3.08,3.08,0,0,0,3.07-3.07,3.16,3.16,0,0,0-3.07-3.08q-7-.63-14-1.53l-1.68-.22h-.07c.43.06-.09,0-.19,0l-1-.13c-1.16-.17-2.32-.33-3.48-.51q-3.48-.51-6.94-1.1-13.82-2.31-27.43-5.67t-26.93-7.72q-13.37-4.38-26.38-9.76l-1.57-.65-.53-.22c.36.15,0,0-.08,0l-.56-.24-3.23-1.39q-3.21-1.41-6.42-2.88a31.28,31.28,0,0,1-4.83-2.62c-.18-.13-.35-.27-.54-.39.72.44.16.12,0,0a10.89,10.89,0,0,1-1-.93,6,6,0,0,1-.42-.46c-.47-.55.28.44,0,0s-.43-.74-.65-1.1.22.63.1.26a2.34,2.34,0,0,0-.09-.24,4.74,4.74,0,0,1-.16-.57c0-.11,0-.23-.07-.33-.1-.29,0,.38,0,.39a4.18,4.18,0,0,0,0-.71,3.08,3.08,0,1,0-6.15,0Z"/></g><g class="cls-15"><path d="M2073.91,2010.94c-18,41-60.46,71.06-105.25,69-34.65,2.65-70.93,27.28-92.52,54.54s-34.9,60-46.9,92.63q-23.57,64.18-41.65,130.22c-55.19,9.1-111.5-4.11-165.18-19.83l-6.94-2c52.39,7.89,106.3,11.92,156.63-3.78q9-71.3,23.87-141.59c7.55-35.69,16.44-71.7,34.43-103.08s51.18-62,85.81-69.51c45.51-4,84.24-41,96.66-86.37,3-11.1,5.35-20.76,7-29.2,9.42,2.43,18.68,5.46,27,10.51C2078.39,1931.68,2114.23,1918.87,2073.91,2010.94Z"/></g><path class="cls-12" d="M2370.1,2041.15h627a0,0,0,0,1,0,0v27.73a36.53,36.53,0,0,1-36.53,36.53H2370.1a0,0,0,0,1,0,0v-64.26A0,0,0,0,1,2370.1,2041.15Z" transform="translate(5367.2 4146.56) rotate(180)"/><rect class="cls-7" x="2921.83" y="2103.22" width="20.95" height="543.28" transform="translate(5864.61 4749.73) rotate(180)"/><rect class="cls-7" x="2649.46" y="2103.22" width="20.95" height="543.28" transform="translate(5319.87 4749.73) rotate(180)"/><rect class="cls-7" x="2544.02" y="2408.61" width="20.95" height="217.76" transform="translate(5071.98 -37.01) rotate(90)"/><rect class="cls-7" x="2821.19" y="2408.61" width="20.95" height="217.76" transform="translate(5349.16 -314.18) rotate(90)"/><rect class="cls-7" x="2712.31" y="2103.22" width="20.95" height="543.28" transform="translate(5445.58 4749.73) rotate(180)"/><rect class="cls-7" x="2439.94" y="2103.22" width="20.95" height="543.28" transform="translate(4900.84 4749.73) rotate(180)"/><polygon class="cls-12" points="3095.08 1513.57 3040.81 1512.18 2950.87 2103.22 3000.07 2103.22 3095.08 1513.57"/><polygon class="cls-12" points="2750.25 1512.18 2701.05 1512.18 2611.11 2103.22 2660.31 2103.22 2750.25 1512.18"/><polygon class="cls-12" points="2688.32 1595.8 3077.28 1595.8 3087.35 1562.49 2698.39 1529.64 2688.32 1595.8"/><polygon class="cls-12" points="2648.2 1859.48 3037.16 1859.48 3042.85 1822.08 2653.89 1822.08 2648.2 1859.48"/><polygon class="cls-12" points="2931.13 1541.55 2884.42 1848.55 2917.53 1848.55 2964.24 1541.55 2931.13 1541.55"/><polygon class="cls-12" points="2817.88 1541.55 2771.16 1848.55 2804.27 1848.55 2850.99 1541.55 2817.88 1541.55"/><path class="cls-13" d="M2534,1539.53c-6.19,59.45-15.66,88.87-29.32,133-3.38,10.92-6.94,22.09-14,31.08-11.05,14.08-29,20.77-46.47,24.65-108.77,24.16-164.27-29.71-266.93,13.6-15.16,6.39-30.79,16.71-34.22,32.79-5.08,23.82,20.62,44.4,44.92,46.22s47.74-8.14,71.76-12.23c17.26-2.94-29.21-8.19-11.7-8.07l118.56.8c58.22.4,117.34.68,173.43-14.95,12.6-3.51,25.45-8.09,34.7-17.34s13.71-21.81,17.69-34.12A747,747,0,0,0,2627,1553.74"/><path class="cls-13" d="M2534,1539.53c-6.19,59.45-15.66,88.87-29.32,133-3.38,10.92-6.94,22.09-14,31.08-11.05,14.08-29,20.77-46.47,24.65-108.77,24.16-164.27-29.71-266.93,13.6-15.16,6.39-30.79,16.71-34.22,32.79-5.08,23.82,20.62,44.4,44.92,46.22s47.74-8.14,71.76-12.23c17.26-2.94-29.21-8.19-11.7-8.07l118.56.8c58.22.4,117.34.68,173.43-14.95,12.6-3.51,25.45-8.09,34.7-17.34s13.71-21.81,17.69-34.12A747,747,0,0,0,2627,1553.74"/><path class="cls-14" d="M2621.28,1609.58q.38-2.68.73-5.37c.3-2.3.6-4.59.89-6.89.22-1.77.42-3.53.63-5.29q.42-3.65.81-7.28c.1-.86.2-1.72.29-2.59h0q1.47-14.17,2.41-28.42l-4.48-.69c-1.44,9.56-3.08,19.08-4.85,28.57-6.65-.67-13.3-1.7-19.87-2.74l-51.31-8.11c-5.34-.85-10.7-1.7-16-2.84-2.4,16.42-5.16,30.49-8.33,43.73a299.32,299.32,0,0,0,84.27,21,826,826,0,0,1-30,94.49c-4.9,12.7-10.41,25.71-20.23,34.71s-23.09,13-35.92,15.83c-57.13,12.45-116.08,7.92-174.12,3.33-39.4-3.11-14.7-.86-54.1-4-17.46-1.37-35-2.75-52.47-.89-24.27,2.59-48.41,11.43-72.51,7.77a54.2,54.2,0,0,1-23.75-10.22c-.08.31-.16.64-.23,1-5.08,23.82,20.63,44.39,44.92,46.22s47.73-8.15,71.76-12.23c17.27-2.94-29.21-8.19-11.71-8.08l118.57.81c58.23.4,117.34.68,173.43-14.94,12.6-3.52,25.46-8.11,34.7-17.35s13.71-21.81,17.68-34.11a746.38,746.38,0,0,0,27-113.35c.24-1.5.45-3,.68-4.5C2620.55,1614.59,2620.93,1612.08,2621.28,1609.58Z"/><path class="cls-17" d="M2630.16,1635.16c-23.37-.73-45.68-11-66-22.82-18.31-10.62-36-22.73-55.29-31.22,11-37.74,13-77.6,19.86-116.4,7.29-41.53,21.44-84.21,53-112.16a135.19,135.19,0,0,1,20.43-14.8,196.53,196.53,0,0,1,20.34,40,252,252,0,0,1,9.2,31.55C2648.52,1483.11,2640.37,1559.85,2630.16,1635.16Z"/><path class="cls-17" d="M2973.25,1567.58c-8.91-56-27.45-111.28-60.14-157.66s-80.37-83.37-135.43-97.09c-51.09-12.72-116.47-.61-168.29,16.42-14.13,12.38-27,26.43-29.14,35.91-3,13.25-1.34,27.06.33,40.55q13.58,109.49,27.14,219c4.33,34.9,8.66,70,6.66,105.12-1.57,27.64-15.31,70.87-30.73,102.2,70.26,5.5,109,34.3,176.34,55,13.79,4.24,58.44-6.78,72.13-2.23l31.08,10.33c29.18,9.69,58.41,19.41,86.82,31.14a370.5,370.5,0,0,0,9.91-38.65c4-20,9.14-40.85,12.55-60.92,4.3-25.35,6.94-50.31,6.93-89.29C2981.82,1680.71,2982.16,1623.62,2973.25,1567.58Z"/><path class="cls-23" d="M2670.92,1681.49l-3,4a1.22,1.22,0,0,0,0,1.24c2.42,4.65,7.56,6.37,12.48,6.77,5.65.46,11.42-.61,17-1.48a247.15,247.15,0,0,0,36.42-8.52,256.09,256.09,0,0,0,34.7-13.81A252.59,252.59,0,0,0,2800.8,1651a248.49,248.49,0,0,0,29.26-23.39q1.68-1.56,3.32-3.15c1.14-1.1-.6-2.84-1.74-1.74a243.44,243.44,0,0,1-28.1,23.38,251.6,251.6,0,0,1-65,33.28,249.27,249.27,0,0,1-35.43,9.22,153.63,153.63,0,0,1-17.47,2.47c-4.45.29-10,.19-13.56-2.93a9,9,0,0,1-2-2.63v1.24l3-4a1.23,1.23,0,1,0-2.12-1.24Z"/><path class="cls-23" d="M2640.53,1624a123.39,123.39,0,0,0,20.17,7.73,129.22,129.22,0,0,0,42.84,4.68,127.73,127.73,0,0,0,21.4-3.07,123.81,123.81,0,0,0,20.64-6.73c.82-.35,1.64-.71,2.45-1.08a1.23,1.23,0,0,0-1.24-2.12,122.54,122.54,0,0,1-40.9,10.38,127,127,0,0,1-41.95-3.72,121.63,121.63,0,0,1-22.17-8.19,1.25,1.25,0,0,0-1.68.44,1.23,1.23,0,0,0,.44,1.68Z"/><path class="cls-24" d="M2926.26,1520.36A246.54,246.54,0,0,1,2881,1581q-7.61,7.47-15.84,14.26a1.24,1.24,0,0,0,0,1.74,1.27,1.27,0,0,0,1.74,0,247.16,247.16,0,0,0,27.42-26.43,250.61,250.61,0,0,0,23.13-30.38q5.85-9,10.9-18.57c.74-1.39-1.38-2.64-2.12-1.24Z"/><path class="cls-23" d="M2950.93,1604.06c-8.71,11.79-20.88,20.35-33.06,28.2-12.73,8.22-25.57,16.29-38.59,24s-26.37,15.23-40.09,21.83a283.4,283.4,0,0,1-42,16.53,194.09,194.09,0,0,1-43.85,8q-2.85.16-5.7.24a1.23,1.23,0,0,0,0,2.46,192.11,192.11,0,0,0,44.77-6.76,272.19,272.19,0,0,0,42.7-15.81c14-6.44,27.5-13.8,40.77-21.58s26.43-16.09,39.48-24.39c12.31-7.84,24.81-16,34.34-27.23,1.18-1.39,2.3-2.82,3.38-4.28.95-1.27-1.19-2.5-2.12-1.24Z"/><g class="cls-25"><path d="M2979.41,1737.41c0,39-2.63,63.93-6.93,89.28-3.41,20.07-8.57,41-12.56,60.92a370.41,370.41,0,0,1-9.89,38.65c-27.11-11.19-55-20.56-82.82-29.8,7.24-14.4,14.74-29,21.23-43.37,11.2-24.86,20.69-49.75,31.52-89.71,18.08-57.48,34.28-115.91,41.27-175.68a509,509,0,0,0,3.55-61.45c3.47,13.65,6.26,27.47,8.47,41.33C2982.16,1623.62,2981.82,1680.71,2979.41,1737.41Z"/></g><path class="cls-13" d="M2857.53,1557.17a495,495,0,0,1,48.33,143.41c1,5.94,1.68,12.85-2.47,17.24-3.65,3.85-9.57,4.17-14.87,4.23l-90.61,1.09c-18.44.22-37.11.41-55-3.93-14.06-3.4-27.34-9.53-41.39-12.92-23.7-5.73-48.62-3.47-72.56,1.12-15.69,3-31.55,7.17-44.75,16.15s-23.45,23.64-23.46,39.61,12.58,32.06,28.54,32.6c7.5.25,14.69-2.68,22.06-4.11,21.35-4.17,42.83,4.27,64.06,9,30.79,6.91,62.73,6.1,94.28,5.25l141.47-3.79c42.09-1.12,84.33-2.26,125.91-8.93,6.1-1,12.85-2.49,16.31-7.61,3.7-5.49,2.12-12.84.34-19.22-21.52-77-45.69-151.48-84.58-221.35"/><path class="cls-14" d="M3053.69,1766.38c-18.42-65.94-38.8-130-68.69-190.91-.32-.67-.64-1.33-1-2q-4.72-9.54-9.76-19a.16.16,0,0,0,0-.07h0c-1.68-3.14-3.38-6.29-5.12-9.41l-9.19,1c1.69,3.28,3.33,6.56,4.95,9.85-34.41,5-69.3,6.6-104.13,7.62a491.2,491.2,0,0,1,20,45.58,537.11,537.11,0,0,1,101.83-14.15c22.34,53.27,38.44,108.56,53.07,165.17,1.66,6.42,3.08,13.79-.79,19.2-3.61,5-10.47,6.39-16.68,7.23-42.23,5.7-85,5.88-127.63,6l-143.27.52c-31.95.11-64.3.18-95.3-7.43-21.38-5.25-42.93-14.17-64.63-10.51-7.48,1.27-14.83,4-22.42,3.6l-.33,0c4.91,9.49,14,16.71,24.63,17.06,7.5.26,14.69-2.66,22.06-4.1,21.35-4.17,42.83,4.26,64.06,9,30.79,6.91,62.72,6.1,94.28,5.25l141.47-3.79c42.09-1.13,84.33-2.26,125.91-8.93,6.1-1,12.85-2.49,16.31-7.61C3057.06,1780.1,3055.47,1772.76,3053.69,1766.38Z"/><path class="cls-17" d="M3001.6,1569.68a598.18,598.18,0,0,0-178.28,45.56q-35.79-112.74-60.25-228.66c-3.83-18.15-6.42-39.88,7-52.65,12.71-12.07,33.14-9.48,49.9-4.33C2921,1360.6,2950.1,1440.39,3001.6,1569.68Z"/><path class="cls-13" d="M2607.62,1238.77c7.78,14,13.6,29.37,14.69,45.34s-2.89,32.65-12.92,45.14c5.43,12,12,25.12,24.3,29.86,7.91,3,16.75,2,25.09.42,18.46-3.39,36.75-8.85,52.95-18.34s29.26-16.42,37-33.53c-18.62-1.32-30.14-26.14-38.24-43a310.68,310.68,0,0,1-24.27-71.53c-.9-4.34-1.92-9.06-5.33-11.88-4.2-3.47-10.36-2.75-15.71-1.68-14.42,2.88-29,7.13-40.52,16.32s-19.24,24.27-16.14,38.64"/><path class="cls-14" d="M2670.2,1203.26c-1.19,14.91-21.39,53.94-14.14,40.85.9-1.63-8.77,14.29-17.72,25.78-2.3,2.95-13.36,11.6-16,14.27v-.05a97.19,97.19,0,0,0-7-29.3c17.09-12,29.75-30.32,34.2-50.74Z"/><path class="cls-13" d="M2609.32,1036.08c-27.64-4.93-57.14,4.63-77.72,23.72s-32.24,47-32.91,75.1c-.37,15.3,2.33,30.49,5.39,45.48,3.47,17,7.5,34.06,15.53,49.41,7.58,14.52,18.48,27,29.27,39.32,4.9,5.6,10,11.33,16.61,14.68,12.53,6.32,27.81,2.81,40.57-3,35.48-16.27,61.86-49.69,72.69-87.19s6.81-78.51-7.95-114.64c-7.1-17.4-18.32-35.21-36.33-40.56"/><path class="cls-4" d="M2503,1099.84c29.34-25.3,71.13-28.54,109.82-30.59q-2.68,16.32-5.36,32.63c13.28.9,25.16,8.2,36.43,15.3,9.3,5.86,18.83,11.92,25.42,20.74,10,13.38,11.77,31.23,10.4,47.87q4.7-11.85,9.4-23.71c8.72-22,17.56-44.46,18.58-68.07,1.46-33.47-14.05-67.25-40.39-88s-62.81-27.82-95-18.51-59.24,34.78-70.46,66.35c-5.24,14.73-7.07,31.38-1.18,45.87"/><g class="cls-26"><path class="cls-7" d="M2596.13,1076.66a69.58,69.58,0,0,1,25.49-7.21,106.7,106.7,0,0,1,26.83,1.14,186.76,186.76,0,0,1,27,6.71c9.28,2.93,18.42,6.25,27.65,9.31a230.3,230.3,0,0,0,28.15,7.74c1.18.23,2.37.44,3.56.65.77.13,1.1-1.06.33-1.19a202.84,202.84,0,0,1-28.51-7.34c-9.38-3-18.64-6.4-28-9.45a206.7,206.7,0,0,0-27.34-7.19,113.16,113.16,0,0,0-27.06-1.81,73.61,73.61,0,0,0-25.72,6.13c-1,.46-2,.94-3,1.45-.71.36-.09,1.42.62,1.06Z"/><path class="cls-7" d="M2606.39,1078.82a76,76,0,0,1,30.75-1.9,75.12,75.12,0,0,1,8.54,1.74.62.62,0,0,0,.33-1.19,77.45,77.45,0,0,0-40,.16.62.62,0,0,0,.33,1.19Z"/><path class="cls-7" d="M2584.11,1076.84a137.17,137.17,0,0,1,2.21-32.49c1.84-9.7,4.49-19.58,9.31-28.26a45.41,45.41,0,0,1,8.52-11.15,44.29,44.29,0,0,1,11.14-7.52c8.42-4,17.83-5.64,27.12-5.67,11.07,0,22,2.07,32.78,4.36l4,.86c.77.16,1.1-1,.32-1.19-11-2.36-22-4.74-33.28-5.18-9.65-.39-19.45.76-28.45,4.4a47.85,47.85,0,0,0-11.74,6.72,43,43,0,0,0-9.45,10.41c-5.43,8.29-8.43,18-10.56,27.61a138.45,138.45,0,0,0-3.29,33c0,1.38.08,2.75.15,4.13,0,.78,1.27.79,1.23,0Z"/><path class="cls-7" d="M2590.28,1076.25a92.78,92.78,0,0,1,2-27.75,94.83,94.83,0,0,1,10-25.77,92.26,92.26,0,0,1,8.92-13c.5-.6-.37-1.48-.87-.87a94.25,94.25,0,0,0-14.39,24.13,96.28,96.28,0,0,0-6.74,27.34,92.89,92.89,0,0,0-.13,15.91c.06.78,1.29.79,1.23,0Z"/><path class="cls-7" d="M2604.86,972.85c-9.55,5-19.11,10-28.27,15.71a147.15,147.15,0,0,0-24.36,18.51,92.58,92.58,0,0,0-17.42,22.35,66.81,66.81,0,0,0-8.16,27.23,54,54,0,0,0,5.17,27.71c.52,1.05,1.08,2.08,1.68,3.08a.61.61,0,0,0,1.06-.62,51.23,51.23,0,0,1-6.82-27,64.09,64.09,0,0,1,6.8-27.28A88.38,88.38,0,0,1,2551,1010a137.31,137.31,0,0,1,23.33-18.55c8.9-5.74,18.23-10.76,27.6-15.68l3.52-1.84c.7-.37.08-1.43-.62-1.06Z"/><path class="cls-7" d="M2552.23,1020.62a14.43,14.43,0,0,0-4.8,4.56,54.68,54.68,0,0,0-3.51,5.64,63.23,63.23,0,0,0-5.08,12.27,65.28,65.28,0,0,0-2.25,26.4,61.9,61.9,0,0,0,3.56,14.58c.27.74,1.46.42,1.18-.32a62.36,62.36,0,0,1-3.88-25.45,63.47,63.47,0,0,1,6.59-25,59.93,59.93,0,0,1,3.63-6.26,15,15,0,0,1,5.18-5.31c.7-.37.08-1.43-.62-1.06Z"/><path class="cls-7" d="M2575.09,978.88a85.24,85.24,0,0,0-20.24,16.24,195.44,195.44,0,0,0-16.48,20.58c-5.3,7.41-10.29,15.13-13.86,23.55a58.54,58.54,0,0,0-5.06,24.73c.26,8,2.45,16,7.15,22.5.56.78,1.16,1.53,1.78,2.26s1.38-.27.87-.87c-5.13-6-7.8-13.72-8.43-21.53a55,55,0,0,1,3.82-24.16c3.22-8.41,8-16.14,13.12-23.5a211.93,211.93,0,0,1,15.95-20.5A89.69,89.69,0,0,1,2573,981.55c.9-.56,1.82-1.09,2.74-1.61a.61.61,0,0,0-.62-1.06Z"/><path class="cls-7" d="M2598.77,1079.74c6.67-7.67,13.3-15.38,20-23,5.83-6.66,12.06-13.19,20.14-17.1,7.9-3.83,16.77-5.07,25.47-5.12a125.08,125.08,0,0,1,13.13.67c4.29.43,8.58,1,12.81,1.78,8.4,1.58,16.76,4.19,23.87,9q1.3.88,2.55,1.89c.61.49,1.49-.38.87-.87-6.8-5.45-15-8.62-23.45-10.53a126,126,0,0,0-13-2.15c-4.44-.52-8.89-.91-13.36-1-8.81-.24-17.85.55-26.12,3.77a45,45,0,0,0-11.37,6.48,77.81,77.81,0,0,0-9.84,9.37c-3.29,3.63-6.47,7.37-9.68,11.07q-5.17,6-10.36,11.93l-2.56,3c-.52.6.35,1.47.86.87Z"/><path class="cls-7" d="M2595,1073.74c5.45-4.53,9.78-10.18,13.9-15.89s8.15-11.65,13.1-16.75a45.11,45.11,0,0,1,8-6.63,42.71,42.71,0,0,1,11.31-4.94,80.84,80.84,0,0,1,12.44-2.4c4-.49,8-.88,12-1,7.75-.24,15.88.5,22.73,4.41.82.47,1.62,1,2.39,1.53s1.26-.6.62-1.06c-6.47-4.61-14.49-6-22.3-6.14a103.41,103.41,0,0,0-12.05.66,108.19,108.19,0,0,0-12.65,1.92,50.85,50.85,0,0,0-12.05,4.21,41.32,41.32,0,0,0-9,6.3c-5.29,4.81-9.48,10.68-13.63,16.46s-8.4,11.78-13.71,16.69c-.65.61-1.33,1.19-2,1.77s.26,1.37.86.87Z"/><path class="cls-7" d="M2530.58,995.81c-6.45,12.7-12.95,25.5-17,39.19-3.73,12.46-5.3,25.69-3,38.57a55.41,55.41,0,0,0,7.58,19.81c.42.67,1.49.06,1.06-.62-6.79-10.69-9.1-23.57-8.41-36.09.75-13.54,5.06-26.58,10.49-38.91,3.19-7.24,6.77-14.29,10.35-21.33.35-.71-.71-1.33-1.07-.62Z"/><path class="cls-7" d="M2512.54,1011.69q-1.41,9.28-2.83,18.59c-.93,6.15-1.93,12.3-2.74,18.47-1.53,11.55-2.21,23.44.84,34.81a46,46,0,0,0,7.62,16c.48.62,1.54,0,1.07-.62-6.46-8.48-9.14-19.17-9.55-29.68-.48-12.3,1.8-24.52,3.64-36.63q1.57-10.29,3.14-20.58c.12-.77-1.07-1.11-1.19-.32Z"/><path class="cls-7" d="M2503.33,1069.73a42,42,0,0,0,4.54,21.56,40.61,40.61,0,0,0,3.36,5.44c.46.63,1.53,0,1.06-.62a40.7,40.7,0,0,1-7.64-20.2,39.86,39.86,0,0,1-.09-6.18c.05-.79-1.18-.79-1.23,0Z"/></g><path class="cls-7" d="M2496.69,1154.24a9.63,9.63,0,0,1,4.83-3.74,13.42,13.42,0,0,1,11.95,1.41,9.43,9.43,0,0,1,3.82,4.77c-2-.49-3.73-.91-5.39-1.24s-3.22-.58-4.81-.77-3.19-.32-4.87-.38S2498.79,1154.24,2496.69,1154.24Z"/><path class="cls-7" d="M2554.23,1151.15a43.05,43.05,0,0,1,9.69-9.74,54.63,54.63,0,0,1,12.13-6.66,53.87,53.87,0,0,1,13.44-3.32c1.16-.09,2.29-.21,3.46-.24a21.39,21.39,0,0,1,3.57.16,13.25,13.25,0,0,1,3.5,1,7.51,7.51,0,0,1,2.82,2.13,11,11,0,0,0-6.33-.67,57.19,57.19,0,0,0-6.3,1.47c-4.22,1.18-8.33,2.54-12.37,4.1s-8,3.37-11.89,5.35S2558.23,1148.89,2554.23,1151.15Z"/><path class="cls-7" d="M2528.5,1164.86a21.67,21.67,0,0,1,3.94,2.91,27.23,27.23,0,0,1,3.26,3.76,32.09,32.09,0,0,1,4.36,9c2,6.48,2,13.36,1.14,19.85-.43,3.26-1,6.45-1.78,9.6s-1.68,6.16-1.58,8.81a10.54,10.54,0,0,0,3.62,7.27,49.33,49.33,0,0,0,7.55,5.68,30.61,30.61,0,0,1-9.07-3.8,15.68,15.68,0,0,1-3.83-3.6,11.64,11.64,0,0,1-2.12-5.15,18.64,18.64,0,0,1,.07-5.34c.22-1.7.54-3.23.79-4.8.55-3.12,1.08-6.22,1.47-9.3a58.8,58.8,0,0,0,0-18.3A33.28,33.28,0,0,0,2528.5,1164.86Z"/><path class="cls-27" d="M2553.43,1241.48q10.5-4.1,20.84-8.55c8.49-3.67,17.24-7.78,23-15a161.19,161.19,0,0,1,.73,18.64c-.11,5.83-.58,11.82-3.14,17s-7.64,9.61-13.46,9.76c-4,.11-7.73-1.69-11.24-3.55-5.58-3-16.44-12-16.71-18.31"/><path class="cls-4" d="M2526.32,1169.45a22.94,22.94,0,0,0-11.64-10.09,19.91,19.91,0,0,0-15.16.47,18.74,18.74,0,0,0-10.07,11.4c-1.75,5.16-1.64,10.78-.9,16.11,1.47,10.7,6.69,21.61,16.88,26.43a21.6,21.6,0,0,0,15.68,1.48,15,15,0,0,0,7-4.51,18.63,18.63,0,0,0,3.59-7.3,37.9,37.9,0,0,0,.37-15.48,66.94,66.94,0,0,0-4.25-15.09c-.47-1.15-1-2.29-1.51-3.42a1.86,1.86,0,0,0-2.52-.66,1.88,1.88,0,0,0-.66,2.52c.23.48.45,1,.67,1.45.1.23.2.45.29.67l.07.16.21.52c.44,1.09.85,2.18,1.23,3.28a69.36,69.36,0,0,1,2.07,7.19,53.59,53.59,0,0,1,1.16,7,35.35,35.35,0,0,1,0,6.9c0,.11-.09.81,0,.46,0,.27-.07.53-.11.8-.11.66-.24,1.32-.39,2a20.83,20.83,0,0,1-1.06,3.45c.08-.21,0,.09-.05.11l-.17.36c-.14.29-.29.59-.45.87a13.52,13.52,0,0,1-1,1.49l-.07.1-.32.37c-.2.22-.41.44-.62.65a8,8,0,0,1-1.23,1,12.06,12.06,0,0,1-3.18,1.57,17,17,0,0,1-1.7.45l-.88.17-.19,0-.49,0a16.83,16.83,0,0,1-6.72-.66,21,21,0,0,1-6.13-2.91,19.15,19.15,0,0,1-2.65-2.11,24.11,24.11,0,0,1-2.53-2.72,29.92,29.92,0,0,1-3.74-6.24,34.31,34.31,0,0,1-1.27-3.29c-.4-1.21-.74-2.44-1-3.68a42.16,42.16,0,0,1-1.09-7.37c-.08-1.2-.11-2.41-.08-3.62q0-.86.09-1.71c0-.3.05-.6.08-.9s.06-.52.09-.7a25.69,25.69,0,0,1,.76-3.48,16,16,0,0,1,1.19-3c.27-.52.56-1,.88-1.52a12.09,12.09,0,0,1,.94-1.29c.35-.41.72-.8,1.11-1.18q.3-.3.63-.57l.36-.31c.27-.22-.08.05.23-.17a17.67,17.67,0,0,1,2.93-1.74l.35-.15.09,0,.8-.3c.57-.19,1.15-.36,1.74-.5q.42-.11.84-.18l.38-.07c.07,0,.47-.07.17,0a16.2,16.2,0,0,1,1.71-.14c.57,0,1.14,0,1.71,0l.76.06.18,0,.56.1a16.59,16.59,0,0,1,6.17,2.37,16.32,16.32,0,0,1,2.52,1.87,20.65,20.65,0,0,1,2.38,2.48l.24.3c-.16-.21.08.11.11.16.17.23.34.46.5.7.32.48.62,1,.9,1.46a1.84,1.84,0,1,0,3.18-1.86Z"/><path class="cls-4" d="M2585.44,1140.88c-5.3-.69-10.81.81-15.49,3.27a27.16,27.16,0,0,0-11.5,11.31,36.24,36.24,0,0,0-4.29,18.39,31.29,31.29,0,0,0,5.46,16.43,28.54,28.54,0,0,0,13.44,10.63,26.56,26.56,0,0,0,17.49.3,25.32,25.32,0,0,0,13.33-10.86,32,32,0,0,0,4.53-17.46,45.53,45.53,0,0,0-5-19.26c-2.79-5.55-7.3-10.56-13.48-12.23a15.29,15.29,0,0,0-4.52-.52,1.85,1.85,0,1,0,0,3.69,10.74,10.74,0,0,1,3.94.5,13.48,13.48,0,0,1,3.46,1.6,19.15,19.15,0,0,1,5.56,5.6,36.27,36.27,0,0,1,3.73,7.58,44,44,0,0,1,2.31,9.17,35,35,0,0,1,0,8.91,29.9,29.9,0,0,1-.81,3.81c-.17.59-.36,1.18-.56,1.76-.11.31-.22.61-.34.91l-.18.45c-.05.12-.05.12,0,0-.05.12-.1.24-.16.36a26,26,0,0,1-1.82,3.42c-.34.55-.7,1.09-1.08,1.61s-.64.82-1.1,1.35a20.34,20.34,0,0,1-5.88,4.75,18.3,18.3,0,0,1-3.43,1.45c-.64.2-1.29.37-1.94.52l-1,.2-.39.07-.4.06c.12,0,.12,0,0,0a23.78,23.78,0,0,1-11.81-1.49c-.36-.14-1-.41-1.49-.67s-1.25-.67-1.85-1-1-.64-1.51-1a15.24,15.24,0,0,1-1.35-1,27.44,27.44,0,0,1-2.72-2.67c-.21-.23-.42-.47-.62-.72l-.36-.44s-.22-.27-.07-.08c-.43-.55-.83-1.13-1.21-1.71a30.34,30.34,0,0,1-1.89-3.33c-.14-.29-.27-.58-.4-.87l-.15-.35-.11-.27c-.24-.59-.45-1.19-.65-1.8a28.28,28.28,0,0,1-1-3.86,31.33,31.33,0,0,1,1.89-16.69,28.57,28.57,0,0,1,3.77-6.9c-.23.3.13-.15.14-.16l.22-.27.58-.66c.42-.46.86-.9,1.31-1.32s.85-.77,1.29-1.13.77-.6,1.39-1a28.89,28.89,0,0,1,3.17-1.9c.55-.29,1.11-.55,1.68-.8.34-.16.15-.07.07,0l.52-.21.95-.36a26.47,26.47,0,0,1,3.61-1l.88-.17.36-.06.28,0c-.26,0,.31,0,.29,0l.35,0c.35,0,.7-.06,1.05-.08a19.59,19.59,0,0,1,3.42.15,1.86,1.86,0,0,0,1.84-1.85,1.89,1.89,0,0,0-1.84-1.84Z"/><path class="cls-4" d="M2526.67,1172.9l.25-.32.45-.52c.34-.39.7-.76,1.08-1.12a13.75,13.75,0,0,1,2-1.6,21.59,21.59,0,0,1,2.55-1.47,16,16,0,0,1,2.38-1,30,30,0,0,1,12.94-1.14,65.32,65.32,0,0,1,7.82,1.38,1.89,1.89,0,0,0,2.27-1.29,1.85,1.85,0,0,0-1.29-2.26c-9.28-2.12-19.72-3.11-28.12,2.31a20.71,20.71,0,0,0-5.49,5.15,1.84,1.84,0,0,0,3.18,1.86Z"/><path class="cls-4" d="M2602.72,1155.58l29.37-3.34,29.36-3.35L2678,1147a1.9,1.9,0,0,0,1.84-1.84,1.86,1.86,0,0,0-1.84-1.85l-29.37,3.35-29.36,3.35-16.57,1.89a1.89,1.89,0,0,0-1.84,1.84,1.85,1.85,0,0,0,1.84,1.84Z"/><path class="cls-24" d="M2665,1150.47a92.65,92.65,0,0,1,10.16-13,31.45,31.45,0,0,1,8.11-6.67,18.84,18.84,0,0,1,26,9.23c1.89,4.4,2,9.33,1.82,14.11-.38,8.06-1.79,16.22-5.49,23.39s-9.94,13.29-17.68,15.58-16.94.18-22-6.1a23.43,23.43,0,0,1-4.27-9.23,34,34,0,0,1,2.5-22.63"/><path class="cls-7" d="M2514.81,1172.16c-2.52,1-3.23,4.26-3.16,7a26.47,26.47,0,0,0,3.35,12.26c1.15,2,3,4.13,5.34,3.85a4.47,4.47,0,0,0,3.45-3.19,11.37,11.37,0,0,0,.18-4.93,53.11,53.11,0,0,0-2-9.22,10.51,10.51,0,0,0-3-5.19c-1.57-1.28-4.13-1.54-5.5,0"/><path class="cls-4" d="M2571.51,1160.06a.62.62,0,0,0,0-1.23.62.62,0,0,0,0,1.23Z"/><path class="cls-7" d="M2571.56,1157.05c-3.75-.52-7.18,2.86-8,6.56s.39,7.53,1.82,11a14.53,14.53,0,0,0,3.59,5.74c1.73,1.48,4.37,2.14,6.34,1,2.29-1.35,2.76-4.41,3-7.06.31-3.56.61-7.23-.43-10.64s-3.79-6.57-7.33-7"/><path class="cls-14" d="M2411.07,2347.1c7.56,26.28,14.74,53.48,18.38,80.67l86.36,9.37c-4.7-28.63-4.7-58.09-4.66-87.2"/><path class="cls-4" d="M2580,2628.54c-5.88,7.24-16.16,8.76-25.44,9.76-84.41,9.08-169.68,18.17-254,8.2-8.81-1.05-17.95-2.43-25.22-7.49s-12-14.94-8.38-23c2.6-5.89,8.68-9.34,14.44-12.22a352.94,352.94,0,0,1,60.77-23.64c21.83-6.24,45.51-11,61.74-26.92,8.33-8.16,14-18.65,18-29.65,13.22,17.39,28.14,33.56,48.07,41.71,9.48,3.87,19.66,5.7,29.82,7,23.19,2.94,47.38,2.94,69.82-2.95,4,8.66,7.74,17.44,11,26.42C2584.46,2606.51,2587.22,2619.64,2580,2628.54Z"/><path class="cls-28" d="M2569.62,2569.29c-22.44,5.89-46.63,5.89-69.82,2.95-10.16-1.29-20.34-3.12-29.82-7-19.93-8.15-34.85-24.32-48.07-41.71q1-2.72,1.88-5.46a167.65,167.65,0,0,0,6.58-30.07,165.48,165.48,0,0,0,24.86,6.29c8.37,1.44,16.83,2.23,25.24,3.36,14.85,2,29.59,5.06,44.55,5.75a112.68,112.68,0,0,0,11.91,0C2547.18,2525.58,2559.33,2547.05,2569.62,2569.29Z"/><path class="cls-13" d="M2536.93,2503.38a112.68,112.68,0,0,1-11.91,0c-15-.69-29.7-3.76-44.55-5.75-8.41-1.13-16.87-1.92-25.24-3.36a165.48,165.48,0,0,1-24.86-6.29c2.52-19.83,1.77-40-.92-60.24,13.16-.53,26.5,1.23,39.63,3l37.44,5.05c3.08.42,6.19.85,9.29,1.32a233.33,233.33,0,0,0,5.75,26A277.71,277.71,0,0,0,2536.93,2503.38Z"/><g class="cls-15"><path d="M2580,2628.54c-5.88,7.24-16.16,8.76-25.44,9.76-53.5,5.75-107.34,11.52-161.06,12.43,19.58-5.63,46.68-7.17,70-22,32.33-20.57,32.33-47.15,65.09-145,2.57,6.64,5.41,13.18,8.4,19.66,10.25,22.2,22.4,43.67,32.69,65.91,4,8.66,7.74,17.44,11,26.42C2584.46,2606.51,2587.22,2619.64,2580,2628.54Z"/></g><path class="cls-4" d="M2241.8,2281.52a.62.62,0,0,0,0-1.23.62.62,0,0,0,0,1.23Z"/><path class="cls-1" d="M2760.89,2019c5.61-11,7.49-23.58,8.81-35.89a487,487,0,0,0,1.57-86.06,131.3,131.3,0,0,0-3.23-22.73c-25.65-8.3-50.54-18.81-76.07-27.46a552,552,0,0,0-295-16c-16.55,3.68-33.34,8.31-47.14,18.16-22.19,15.84-33.65,43.4-36.19,70.54s2.72,54.35,8,81.09c26.8,135.59,52.06,323.1,69.29,402.7,66.77-1.93,92.24,0,151.78,0-5.8-105.62-13.09-203.26-23.44-311-1.58-16.46.34-41.49,13.28-51.78,10-7.95,53.95-4,66.64-2.59,41.59,4.72,83.46,12.79,125.08,14C2739.75,2044.39,2753.17,2034.15,2760.89,2019Z"/><g class="cls-15"><path d="M2769.7,1983.07c-1.32,12.32-3.2,24.84-8.81,35.88-7.73,15.2-21.14,25.44-36.61,33-41.61-1.19-83.48-9.25-125.07-14-12.69-1.44-56.65-5.38-66.64,2.58-12.94,10.29-14.87,35.33-13.28,51.78,10.35,107.71,17.64,205.35,23.44,311-59.55,0-85-1.93-151.78,0-.23-1-.43-2-.66-3.06,62.89-6.23,88.62-6.24,146.54-10.41-13.37-104.94-27.66-201.8-45.72-308.49-2.75-16.29-2.64-41.41,9.53-52.59,9.39-8.65,53.51-7.9,66.27-7.37,41.84,1.71,84.18,6.75,125.77,5,14.87-8.68,27.52-19.87,34.14-35.58,4.8-11.41,5.77-24,6.2-36.43a486.34,486.34,0,0,0-4.61-85.94c-.41-2.94-.88-5.91-1.45-8.88,13.62,5.13,27.23,10.26,41.08,14.73a132.27,132.27,0,0,1,3.23,22.73A486,486,0,0,1,2769.7,1983.07Z"/></g><path class="cls-4" d="M2597.62,2413a.62.62,0,0,0,0-1.23.62.62,0,0,0,0,1.23Z"/><path class="cls-4" d="M2730.69,2618.09c-4.19,6.66-12.11,9.3-19.44,11.32-37.67,10.4-76.22,16.76-114.69,23.1-29.76,4.9-60,9.82-89.91,6.29-13.87-1.65-30-7.48-33.39-21.75-2.13-9,1.74-18.34,6.84-25.83C2497,2586.37,2526,2575,2552,2561.31a337.25,337.25,0,0,0,61.51-41.84l1.72-1.47c5.81,18.66,24.68,30.66,43,38.37a239.4,239.4,0,0,0,71.91,17.77c.55,5.51,1.27,11.06,2.13,16.59C2733.64,2600,2735.61,2610.28,2730.69,2618.09Z"/><path class="cls-28" d="M2730.06,2574.14a239.4,239.4,0,0,1-71.91-17.77c-18.27-7.71-37.14-19.71-43-38.37,9.34-8.1,18.24-16.88,25.09-27.38q2.45-3.75,4.52-7.72a158.77,158.77,0,0,0,84,43h0A326.19,326.19,0,0,0,2730.06,2574.14Z"/><path class="cls-14" d="M2665.32,2365.87a275.83,275.83,0,0,1-6,73.75l30.56,33.63,45.11,1.28a399.76,399.76,0,0,1,11.91-46.11c3.22-10,9.62-29.33,12.82-39.32"/><path class="cls-13" d="M2735,2474.53a355.48,355.48,0,0,0-6.26,51.33,158.77,158.77,0,0,1-84-43c5.32-10.09,9-21.14,11.93-32.3q1.43-5.46,2.62-11c19.42,8.13,36.77,21.8,56.6,29.42A122.1,122.1,0,0,0,2735,2474.53Z"/><path class="cls-1" d="M2937.51,1903.84c-21.88-24.73-47.23-36.15-77.35-49.69-38-17.11-82-16.9-122.8-8.09-14,3-28.28,7.26-39.4,16.34-19.71,16.1-25.3,43.42-29.64,68.5-27.64,159.85-33.13,318.8-53.51,479.72,18.66,8.36,56.23,21.89,75.75,27.19,41.69,11.32,56.37,7,97.84,19.11,62.81-457.49,14.13-409.4,111.94-399.07,23.08,2.44,33.7-35.71,38.5-58.42C2945.37,1968.51,2958.46,1927.5,2937.51,1903.84Z"/><path class="cls-29" d="M2683.16,2053.34c1.71,6.91,6.68,12.59,12.71,16.19,7,4.17,15.34,5.38,23.38,5a103.9,103.9,0,0,0,24.72-4.41,171.51,171.51,0,0,0,23.48-8.92c7.58-3.48,15-7.38,22.24-11.45l2.69-1.51a1.85,1.85,0,0,0-1.86-3.19c-7.06,4-14.19,7.86-21.51,11.36a176.22,176.22,0,0,1-22.32,9,113.5,113.5,0,0,1-23.38,5.12,57.85,57.85,0,0,1-12.27,0,38.19,38.19,0,0,1-5.72-1.11c-1-.26-1.93-.56-2.87-.91l-1-.41c-.29-.12.21.09-.08,0l-.26-.11-.6-.27a31.29,31.29,0,0,1-4.32-2.47,24.4,24.4,0,0,1-3.6-3c-.6-.59-1.16-1.21-1.7-1.85l-.35-.43s-.19-.24-.08-.11l-.14-.18c-.24-.32-.47-.65-.69-1a24.1,24.1,0,0,1-1.27-2.14c-.18-.35-.36-.71-.52-1.07,0-.07-.21-.48-.11-.24l-.27-.69a20.33,20.33,0,0,1-.7-2.3,1.85,1.85,0,1,0-3.56,1Z"/><path class="cls-14" d="M2714,1851c-9.73,5.38-21.32,9.89-27.11,20-6.8,11.91-9.73,25.58-13.06,38.75-3.56,14.07-7.07,28.15-10.27,42.31s-6.07,28.34-8.34,42.66a417.84,417.84,0,0,0-4.71,43.23c-.1,1.78-.18,3.57-.25,5.35-.09,2.38,3.6,2.37,3.69,0a390.49,390.49,0,0,1,4.05-42.49c2.09-14.15,4.8-28.2,7.87-42.17s6.48-27.91,10-41.81c1.7-6.74,3.35-13.5,5.16-20.22a116,116,0,0,1,6.4-18.56,41.81,41.81,0,0,1,4.45-7.91,27.92,27.92,0,0,1,5.22-5.14c4.47-3.44,9.61-5.94,14.56-8.57,1.42-.75,2.82-1.5,4.22-2.28,2.08-1.15.22-4.33-1.86-3.18Z"/><g class="cls-15"><path d="M2938.84,1999.43c-4.79,22.72-15.41,60.85-38.5,58.42-94-9.93-52.67-54.77-105.15,348.32,34.35-424.75-7.21-376.54,88.59-371.37,23.17,1.25,31.83-37.39,35.45-60.31,4.48-28.28,13.89-65.1-.82-88.54a137.8,137.8,0,0,1,19.1,17.89C2958.46,1927.5,2945.37,1968.51,2938.84,1999.43Z"/></g><g class="cls-15"><path d="M2795.19,2406.17q-1.3,16-2.74,32.92l-1.57-.37Q2793.14,2422,2795.19,2406.17Z"/></g><path class="cls-29" d="M2441.36,1993.51q14.82,18.93,29.76,37.77t29.86,37.37q8.49,10.54,17,21a1.85,1.85,0,0,0,2.61,0,1.88,1.88,0,0,0,0-2.6q-15.15-18.68-30.16-37.46t-29.75-37.46q-8.37-10.62-16.71-21.27a1.85,1.85,0,0,0-2.61,0,1.9,1.9,0,0,0,0,2.61Z"/><path class="cls-29" d="M2514.06,2042.05l-.91-1.14-.23-.31-.14-.18c-.16-.2.3.4.1.13l-.54-.7c-.85-1.12-1.69-2.24-2.53-3.38-2.19-3-4.34-5.93-6.48-8.92q-3.95-5.49-7.82-11-4.34-6.16-8.64-12.36-4.42-6.36-8.81-12.74-4.23-6.15-8.43-12.33-3.78-5.55-7.53-11.13-3-4.49-6-9c-1.5-2.3-3-4.61-4.41-7-3.9-6.47-7.48-13.15-8.63-20.7,0-.26-.09-.64-.13-1s-.08-.88-.1-1.32c0-1,0-1.92,0-2.88l-2.34,1.78a65.06,65.06,0,0,1,7.1,2.39l.85.35c-.08,0-.28-.12.06,0l.42.18c.59.26,1.17.52,1.75.8,1.1.52,2.18,1.07,3.25,1.65a68.14,68.14,0,0,1,6.38,3.92,62,62,0,0,1,5.56,4.3,74,74,0,0,1,5.35,5.13c.86.91,1.69,1.84,2.5,2.79l1.11,1.34.51.65c.12.14.23.29.34.43l.16.21a70.14,70.14,0,0,1,7.66,12.64c.29.61.56,1.22.83,1.83l.1.23.21.51.37.93c.5,1.28,1,2.57,1.39,3.87a65.21,65.21,0,0,1,2,8.15,1.86,1.86,0,0,0,2.27,1.29,1.89,1.89,0,0,0,1.29-2.27,68.82,68.82,0,0,0-12-27.72,73.13,73.13,0,0,0-22.61-20.52,67.55,67.55,0,0,0-15.91-6.67,1.87,1.87,0,0,0-2.33,1.78c-.34,7.9,2.56,15.46,6.23,22.32,1.92,3.58,4.06,7,6.27,10.45q2.72,4.2,5.5,8.35c2.37,3.57,4.77,7.12,7.17,10.66q4.15,6.12,8.33,12.21,4.39,6.39,8.81,12.77t8.79,12.61q4,5.77,8.13,11.51,3.41,4.77,6.86,9.5c1.74,2.38,3.49,4.74,5.3,7.06l.89,1.12a1.87,1.87,0,0,0,2.61,0,1.88,1.88,0,0,0,0-2.61Z"/><path class="cls-29" d="M2501.89,1946.12c-3,2.7-1.51,7.12-.53,10.38q1.71,5.71,3.81,11.3a184,184,0,0,0,10,22q3.2,6,6.83,11.67a1.88,1.88,0,0,0,2.52.66,1.86,1.86,0,0,0,.66-2.52,179.64,179.64,0,0,1-11.09-20.18,175.88,175.88,0,0,1-8.29-21.21c-.62-2-1.31-4-1.75-6-.05-.22-.08-.43-.13-.64,0,0,0-.31,0-.12s0-.19,0-.22a7.57,7.57,0,0,1,0-1.26c0-.22,0,0,0,.06s0-.22.07-.33a1.82,1.82,0,0,1,.07-.25s.13-.35.05-.17,0-.06,0-.08.12-.2.18-.29c-.17.26.2-.19.28-.26a1.87,1.87,0,0,0,0-2.61,1.88,1.88,0,0,0-2.61,0Z"/><g class="cls-15"><path d="M2730.69,2618.09c-4.19,6.66-12.11,9.3-19.44,11.32-37.67,10.4-76.22,16.76-114.69,23.1-29.76,4.9-60,9.82-89.91,6.29a63.23,63.23,0,0,1-14.76-3.46c190.62-26.9,211.62-68.9,237.42-138.36-.22,3-.39,5.92-.54,8.88h0a326.19,326.19,0,0,0,1.29,48.27c.55,5.51,1.27,11.06,2.13,16.59C2733.64,2600,2735.61,2610.28,2730.69,2618.09Z"/></g><polygon class="cls-11" points="2692.51 2637.62 2671.01 2637.62 2646.09 1907.21 2717.43 1907.21 2692.51 2637.62"/><path class="cls-4" d="M2761.89,1907.21H1225.61a42.1,42.1,0,0,1-42.1-42.1h0a42.1,42.1,0,0,1,42.1-42.1H2761.89a42.1,42.1,0,0,1,42.1,42.1h0A42.1,42.1,0,0,1,2761.89,1907.21Z"/><polygon class="cls-14" points="1318.28 2637.62 1296.78 2637.62 1271.86 1907.21 1343.2 1907.21 1318.28 2637.62"/><g class="cls-15"><polygon points="1343.21 1907.2 1342.15 1938.08 1272.92 1938.08 1271.86 1907.2 1343.21 1907.2"/></g><polygon class="cls-14" points="2495.59 2637.62 2474.08 2637.62 2449.16 1907.21 2520.51 1907.21 2495.59 2637.62"/><g class="cls-15"><polygon points="2520.51 1907.2 2519.45 1938.08 2450.22 1938.08 2449.16 1907.2 2520.51 1907.2"/></g><rect class="cls-14" x="1302.85" y="2080.39" width="1173.44" height="41.65"/><g class="cls-30"><rect class="cls-14" x="2532.48" y="1878.13" width="305.63" height="5.43"/><rect class="cls-14" x="2559.52" y="1857.87" width="244.47" height="5.43"/><rect class="cls-14" x="1178.6" y="1906.82" width="556.35" height="5.43"/><rect class="cls-14" x="1642.62" y="1887.19" width="328.47" height="5.43"/><rect class="cls-14" x="1593.09" y="1872.91" width="141.86" height="5.43"/><rect class="cls-14" x="1456.78" y="1850.69" width="185.85" height="5.43"/><rect class="cls-14" x="1681.73" y="1850.69" width="289.36" height="5.43"/><path class="cls-14" d="M2468.88,1912.25c-132.26-5.93-159.31-37.74-239.62-132.16-7.62-9-15.5-18.22-24.08-28.19l4.11-3.54c8.6,10,16.48,19.25,24.1,28.21,79.17,93.07,105.83,124.43,235.74,130.26Z"/><path class="cls-14" d="M2427.05,1878.33c-61.05-5.4-83.41-40.25-111.73-84.37-6.41-10-13.05-20.33-20.6-31.14l4.46-3.11c7.61,10.9,14.27,21.28,20.71,31.32,28.59,44.54,49.24,76.72,107.64,81.89Z"/><path class="cls-14" d="M2465.38,1863.21a97.43,97.43,0,0,1-28.53-4.09c-32.35-9.84-58.33-37.73-77.23-82.87l5-2.1c42.29,101,107.3,85.63,138.54,78.22,2.73-.64,5.08-1.2,7.19-1.63,19.33-3.89,20.57-55.73,19.41-75.38l5.42-.32a243.22,243.22,0,0,1-1.1,37.62c-3,26.38-10.64,41-22.66,43.41-2,.4-4.33,1-7,1.59C2494.78,1860,2481,1863.21,2465.38,1863.21Z"/><path class="cls-14" d="M1304.6,1883.58a266.87,266.87,0,0,1-46.78-4.16c-39.59-7.05-78.16-23-114.62-47.33l3-4.51c83.72,55.93,160,55.55,209.31,45.38,22.52-4.64,36.8-19.24,42.45-43.37a106.8,106.8,0,0,0,1.72-35.84l5.37-.82a110.17,110.17,0,0,1-1.76,37.74c-6.06,26.1-22.2,42.56-46.68,47.61A256.75,256.75,0,0,1,1304.6,1883.58Z"/><path class="cls-14" d="M1281.67,1863.31c-54.52,0-102.45-29.87-104.52-31.18l2.9-4.59c.51.32,51.53,32.09,106.36,30.26,57.57-1.94,74.3-12.93,74.56-49l5.43,0c-.15,20.94-6,33.93-18.83,42.14-11.88,7.57-30.11,11.24-61,12.27C1285,1863.28,1283.3,1863.31,1281.67,1863.31Z"/><rect class="cls-14" x="2096.22" y="1906.82" width="179.87" height="5.43"/></g><path class="cls-10" d="M1998.83,1520.57h340.33a44.28,44.28,0,0,1,37.24,20.33l155.17,241.38h203.61A20.72,20.72,0,0,1,2755.9,1803v21.73H2167.8L1986.63,1542.9A14.49,14.49,0,0,1,1998.83,1520.57Z"/><g class="cls-15"><path d="M2345.79,1542.9,2527,1824.72H2755.9V1803a20.72,20.72,0,0,0-20.71-20.72H2531.57L2376.4,1540.9a44.27,44.27,0,0,0-25.22-18.66A14.51,14.51,0,0,0,2345.79,1542.9Z"/></g><ellipse class="cls-5" cx="2242.25" cy="1694.09" rx="21.31" ry="33.23" transform="translate(-397.55 2657.99) rotate(-57.13)"/><g class="cls-15"><path d="M2755.89,1803v21.72H2266.94c75-59.48,93.79-147.89,116.11-273.48l148.52,231h203.61A20.71,20.71,0,0,1,2755.89,1803Z"/></g><path class="cls-10" d="M1252.18,1583.18h270.26a35.17,35.17,0,0,1,29.58,16.15L1675.25,1791h161.69a16.44,16.44,0,0,1,16.45,16.45v17.25h-467l-143.87-223.8A11.51,11.51,0,0,1,1252.18,1583.18Z"/><g class="cls-15"><path d="M1527.71,1600.92l143.87,223.8h181.81v-17.25A16.46,16.46,0,0,0,1837,1791h-161.7L1552,1599.33a35.15,35.15,0,0,0-20-14.82A11.53,11.53,0,0,0,1527.71,1600.92Z"/></g><ellipse class="cls-5" cx="1445.49" cy="1720.98" rx="16.93" ry="26.39" transform="translate(-784.48 2001.07) rotate(-57.13)"/><g class="cls-15"><path d="M1853.38,1807.47v17.25H1465.09c59.59-47.23,74.49-117.44,92.21-217.18l118,183.48h161.69A16.44,16.44,0,0,1,1853.38,1807.47Z"/></g><path class="cls-1" d="M3149.89,1879.72c14.24,103.71-39.41,96.76,16.78,178.77s90,75.54,144.6,106.56,155.62-1.9,171.07-45.06-22-50-21.48-112.48S3341.42,1890,3281.24,1881.15,3149.89,1879.72,3149.89,1879.72Z"/><path class="cls-7" d="M3226,1935.68c9.47,6.7,19.07,13.23,28.33,20.24,9.39,6.84,18.44,14.12,27.57,21.31q27.09,21.94,52.31,46.18a676.36,676.36,0,0,1,47.77,51,624.62,624.62,0,0,1,41.95,56.12q9.77,14.58,18.61,29.78l2.24,3.78L3447,2168l4.28,7.68c1.46,2.54,2.8,5.15,4.14,7.76l4,7.81c1.38,2.59,2.56,5.28,3.84,7.92l3.76,8c1.22,2.67,2.33,5.39,3.5,8.08s2.34,5.39,3.44,8.12l3.14,8.22,1.58,4.12.78,2.06.71,2.08,2.82,8.35,1.41,4.17,1.29,4.21c1.66,5.64,3.37,11.25,4.79,16.95l2.23,8.51c.66,2.86,1.34,5.72,2,8.58q3.81,17.18,6.26,34.59a401,401,0,0,1,3.53,69.89.67.67,0,0,1-1.34.06c-2.9-23-6.55-45.83-11.47-68.29l-2-8.38c-.65-2.8-1.24-5.6-2-8.37-1.44-5.56-2.79-11.13-4.45-16.62-.81-2.75-1.56-5.51-2.33-8.27l-2.54-8.2c-1.62-5.49-3.54-10.89-5.38-16.3a679.16,679.16,0,0,0-25.49-63.7l-3.64-7.78c-1.21-2.6-2.41-5.2-3.74-7.74l-3.88-7.67-1.94-3.84-2.06-3.78q-8.16-15.13-17.25-29.78a615.35,615.35,0,0,0-39.85-56.29,670.59,670.59,0,0,0-45.61-52q-24-24.92-50.22-47.75c-8.81-7.48-17.56-15.06-26.66-22.22-8.92-7.39-18.2-14.31-27.37-21.4h0a.67.67,0,0,1,.79-1.08Z"/><path class="cls-7" d="M3188.68,2005c15.49.06,30.84.42,46-.32l5.68-.35,2.83-.16,2.82-.28,5.62-.54,5.57-.78c1.87-.22,3.68-.61,5.51-.94l2.74-.52c.91-.17,1.79-.44,2.68-.65a76.85,76.85,0,0,0,10.46-3.2l2.5-1c.42-.17.84-.32,1.25-.51l1.18-.61,2.36-1.21a25.18,25.18,0,0,0,2.23-1.38A34.89,34.89,0,0,0,3296,1986a32.92,32.92,0,0,0,5.3-8.66,43,43,0,0,0,2.47-10.21,67.72,67.72,0,0,0,.11-10.95,104.61,104.61,0,0,0-1.46-11.16c-1.27-7.49-3.36-14.9-5.21-22.42a140.22,140.22,0,0,1,9.26,21.39,87.85,87.85,0,0,1,3,11.48c.32,2,.65,4,.78,6a56.34,56.34,0,0,1,.23,6.11,45.61,45.61,0,0,1-2.09,12.35,38.37,38.37,0,0,1-6.14,11.26c-.64.86-1.42,1.6-2.14,2.39a20.14,20.14,0,0,1-2.3,2.23l-2.44,2.06c-.83.67-1.73,1.2-2.59,1.8l-1.32.87a11.65,11.65,0,0,1-1.34.81l-2.76,1.45-1.38.72c-.47.23-.94.4-1.42.61l-2.84,1.17a97.14,97.14,0,0,1-23.41,5.36l-5.9.56c-2,.11-3.93.16-5.89.24l-2.94.11-2.94,0-5.86-.09c-1.95,0-3.89-.22-5.84-.32s-3.89-.22-5.82-.41c-3.87-.42-7.73-.79-11.57-1.34l-5.75-.91c-1.91-.32-3.83-.55-5.73-1C3196.24,2006.69,3192.45,2005.91,3188.68,2005Z"/><path class="cls-7" d="M3252.78,2078.25c16.84-3.18,33.75-5.46,50.4-8.43,8.32-1.49,16.59-3.1,24.59-5.27l3-.82c1-.29,2-.62,2.94-.93s2-.59,2.92-1l2.86-1.08,1.43-.53,1.38-.61,2.77-1.21,2.65-1.37,1.33-.69c.42-.25.83-.52,1.25-.78a47.73,47.73,0,0,0,16.57-16.31,94.1,94.1,0,0,0,9.4-22.52c2.33-8,4.16-16.27,5.88-24.59s3.3-16.71,5.15-25.08c0,8.57-.39,17.11-1,25.67a202.73,202.73,0,0,1-3.52,25.64,88.77,88.77,0,0,1-8.95,25c-.54,1-1.2,1.94-1.81,2.91l-.93,1.44c-.33.47-.69.92-1,1.38-.71.9-1.39,1.84-2.14,2.72l-2.35,2.55a31.64,31.64,0,0,1-2.53,2.38,31.14,31.14,0,0,1-2.65,2.22l-2.78,2.06c-1,.62-1.93,1.22-2.91,1.82-.49.3-1,.61-1.46.89l-1.52.78-3,1.54-3.1,1.32-1.55.67-1.57.56-3.15,1.1c-1.05.36-2.12.63-3.18,1s-2.11.63-3.17.92l-3.2.76a204.38,204.38,0,0,1-25.65,4.06c-8.55.88-17.1,1.38-25.65,1.66S3261.35,2078.48,3252.78,2078.25Z"/><path class="cls-7" d="M3337.05,2113.94c.66-.29,1.34-.58,2-.85s1.37-.59,2.07-.8c1.41-.41,2.84-.9,4.29-1.18l2.18-.49,2.2-.34c1.48-.25,3-.37,4.44-.52a159.46,159.46,0,0,1,17.6-.22c5.78.14,11.46.34,16.88-.07a46.87,46.87,0,0,0,7.83-1.25,33.23,33.23,0,0,0,3.63-1.12c.59-.2,1.13-.51,1.7-.76a11,11,0,0,0,1.64-.84,27.93,27.93,0,0,0,10.32-10.66,65.63,65.63,0,0,0,5.94-15.16c3-10.81,4.5-22.29,6.25-33.86a114.91,114.91,0,0,1,.3,35.28,59.9,59.9,0,0,1-5.38,17.59c-.79,1.38-1.55,2.79-2.45,4.14l-1.46,2-.74,1c-.25.33-.55.61-.83.92l-1.73,1.78a18.56,18.56,0,0,1-1.91,1.62,20.92,20.92,0,0,1-2,1.52l-2.14,1.31a16.6,16.6,0,0,1-2.23,1.12c-.76.32-1.51.71-2.28,1a38.45,38.45,0,0,1-4.69,1.37c-.78.16-1.57.35-2.36.48l-2.35.31a23.21,23.21,0,0,1-2.33.22l-2.32.12a114.08,114.08,0,0,1-17.84-1.32c-5.77-.8-11.42-1.72-17.08-2.27-1.42-.14-2.84-.28-4.26-.34l-2.14-.12-2.14,0A70.21,70.21,0,0,0,3337.05,2113.94Z"/><path class="cls-1" d="M3547.05,1715.36c-32.29,79.75-18.67,82.59-47.35,141.67s9,106.63,5.63,191.73-35.49,152.47,29.77,171.61,88.8-3.81,124.38-50.62,91.34-220.19,41.61-342-118-171.47-118-171.47Z"/><path class="cls-7" d="M3546.39,2490.72c1.06-14.85,2.45-29.65,3.81-44.44l2.13-22.19c.69-7.39,1.49-14.77,2.23-22.16l4.58-44.3,2.42-22.13,2.34-22.14,5-44.23,5.31-44.18q5.61-44.16,10.12-88.42c.79-7.38,1.46-14.76,2.16-22.14l2.07-22.15,1.85-22.17.92-11.08.79-11.09c2.32-29.57,4-59.17,4.84-88.78l.33-11.11c.08-3.7.08-7.4.12-11.1l.1-11.1c0-3.71-.12-7.4-.16-11.1l-.21-11.1-.36-11.13-.68-22.27c-.84-29.71-1.77-59.39-1.64-89.15a.67.67,0,0,1,1.33,0v0c.36,14.8,1.18,29.65,1.95,44.47s1.6,29.65,2.47,44.47l1.33,22.24.68,11.11.52,11.17c.16,3.72.38,7.44.49,11.17l.22,11.17c.07,3.72.18,7.45.21,11.17v11.17c-.12,29.77-1.06,59.53-2.65,89.24l-.57,11.14-.7,11.14-1.4,22.26-1.63,22.25c-.55,7.41-1.06,14.83-1.71,22.24-1.2,14.82-2.3,29.65-3.66,44.46l-1.91,22.22c-.64,7.41-1.37,14.81-2,22.21l-2.18,22.2c-.8,7.39-1.6,14.77-2.46,22.16l-2.64,22.14-2.91,22.11c-4,29.45-8.41,58.86-13.3,88.18-2.44,14.67-4.94,29.32-7.63,43.94s-5.49,29.23-8.55,43.8a.67.67,0,0,1-1.32-.19Z"/><path class="cls-7" d="M3542.74,1812.28c8.18,9.16,16.12,18.32,24.85,26.36a96.15,96.15,0,0,0,13.75,10.77,53.92,53.92,0,0,0,7.43,4,17.32,17.32,0,0,0,1.91.77l1.93.72c.64.2,1.3.35,1.95.53a15,15,0,0,0,2,.46,29,29,0,0,0,15.67-1.13c5.13-1.7,9.9-4.9,14.35-8.56a103.69,103.69,0,0,0,12.48-12.57l2.9-3.46,2.86-3.54,5.64-7.23c-.54,1.44-1.14,2.85-1.71,4.28l-1.92,4.21c-.66,1.39-1.39,2.75-2.09,4.13s-1.52,2.7-2.28,4a79.51,79.51,0,0,1-11.31,15l-1.7,1.7c-.57.56-1.2,1.08-1.8,1.62a47.76,47.76,0,0,1-3.83,3,23.53,23.53,0,0,1-2,1.38c-.71.44-1.4.9-2.13,1.3a42.22,42.22,0,0,1-4.55,2.17,36,36,0,0,1-9.93,2.48,32.94,32.94,0,0,1-5.16.06,33.36,33.36,0,0,1-5.1-.62,47.55,47.55,0,0,1-18-8.12,72.91,72.91,0,0,1-7.45-6c-1.14-1.1-2.29-2.18-3.41-3.3l-3.18-3.46c-1.09-1.13-2-2.4-3-3.59s-2-2.4-2.87-3.68l-2.73-3.76-2.55-3.87A139.41,139.41,0,0,1,3542.74,1812.28Z"/><path class="cls-7" d="M3684.34,1889.76c-9.83,16.07-20.32,31.72-32.45,46.36a163,163,0,0,1-20.09,20.55c-7.43,6.19-15.92,11.72-25.82,14.57a49.71,49.71,0,0,1-7.6,1.44,43.22,43.22,0,0,1-7.8.09,41.87,41.87,0,0,1-7.65-1.38,44.84,44.84,0,0,1-7.23-2.63,61,61,0,0,1-12.65-8,87.19,87.19,0,0,1-10.48-10.2,131.26,131.26,0,0,1-8.84-11.37c-2.73-3.92-5.23-8-7.62-12.06a220.87,220.87,0,0,1-12.41-25.47c5.22,7.85,10.36,15.69,15.91,23.18,2.79,3.73,5.62,7.41,8.57,11s6.05,7,9.28,10.17c6.45,6.4,13.6,12.06,21.52,15.45a36.41,36.41,0,0,0,24.71,1.66,52.41,52.41,0,0,0,11.93-5.11,87.8,87.8,0,0,0,11.11-7.52,197.35,197.35,0,0,0,20.18-18.73C3659.74,1918.24,3671.69,1903.73,3684.34,1889.76Z"/><path class="cls-7" d="M3535.1,2035.67c1,1.45,1.87,2.92,2.8,4.37l1.34,2.2c.47.72,1,1.42,1.44,2.14,1,1.41,1.88,2.85,2.82,4.27l3,4.13a107.6,107.6,0,0,0,13.16,15,52.94,52.94,0,0,0,16,10.44,39.56,39.56,0,0,0,18.23,2.83l2.34-.19c.78-.09,1.56-.24,2.34-.36a45.15,45.15,0,0,0,4.67-1,21.61,21.61,0,0,0,2.32-.64l2.31-.7c1.53-.53,3-1.13,4.58-1.69a126,126,0,0,0,17.68-9.12c11.49-7,22.35-15.38,33.47-23.63a165.94,165.94,0,0,1-29.72,29.18,102.38,102.38,0,0,1-18.24,11c-1.65.72-3.33,1.41-5,2.06l-2.59.88a25.79,25.79,0,0,1-2.63.8,51.27,51.27,0,0,1-5.39,1.21c-.92.15-1.83.33-2.75.45l-2.79.25-1.4.11h-1.41l-2.82,0c-.93,0-1.87-.17-2.81-.25a24,24,0,0,1-2.81-.37,43.19,43.19,0,0,1-5.49-1.37l-2.69-.87c-.87-.36-1.72-.76-2.58-1.14a53.56,53.56,0,0,1-17.52-13.15C3545.33,2061.71,3539.24,2048.84,3535.1,2035.67Z"/><path class="cls-7" d="M3657.8,2133.7c-10.58,8.34-20.47,17.15-30.9,25.62-5.21,4.23-10.56,8.37-16.22,12.2a97,97,0,0,1-18.29,10,51.34,51.34,0,0,1-10.48,2.94,35.05,35.05,0,0,1-11.29,0,30.83,30.83,0,0,1-10.65-4,37.57,37.57,0,0,1-8.38-7.13,63.61,63.61,0,0,1-10.71-17.89,107,107,0,0,1-5.78-19.47c3.08,6,6,12,9.52,17.57a71.92,71.92,0,0,0,11.78,15.13,34.35,34.35,0,0,0,7.29,5.26,24.49,24.49,0,0,0,8.16,2.57,27.85,27.85,0,0,0,8.67-.31,44.53,44.53,0,0,0,8.76-2.57,78.56,78.56,0,0,0,8.61-4c2.84-1.48,5.63-3.14,8.43-4.84,5.57-3.41,11.07-7.11,16.62-10.8s11.16-7.39,16.94-10.86A144.63,144.63,0,0,1,3657.8,2133.7Z"/><path class="cls-1" d="M3911.61,1984.37c-48.56,21.8-49,62.05-116.15,69.24s-117.84,105.54-118.92,145.61-11.17,130,87.67,98.71S3864.45,2141,3885.6,2119.12,3911.61,1984.37,3911.61,1984.37Z"/><path class="cls-7" d="M3689.42,2438.06c-.92-17,0-34,1.67-51a468.6,468.6,0,0,1,7.92-50.45,384.54,384.54,0,0,1,14-49.21q8.66-24.11,19.58-47.3a408.74,408.74,0,0,1,24.47-45l3.45-5.39,3.53-5.27,7.08-10.53c2.33-3.52,4.78-7,7.18-10.45s4.8-7,7.25-10.42c9.84-13.76,19.93-27.36,30.6-40.51l4-4.92,4.13-4.84c2.72-3.24,5.62-6.35,8.47-9.48l4.44-4.56c1.52-1.5,3.07-2.95,4.61-4.41s3.18-2.84,4.89-4.14c.82-.68,1.71-1.29,2.59-1.9.42-.32.91-.59,1.37-.88a7.23,7.23,0,0,1,.73-.4,6.19,6.19,0,0,1,.81-.38.67.67,0,0,1,.53,1.22l-.08,0a17.66,17.66,0,0,0-2.48,1.64c-.81.64-1.62,1.27-2.38,2-1.58,1.34-3,2.86-4.53,4.31s-2.87,3-4.27,4.6l-4.12,4.75c-2.64,3.26-5.35,6.46-7.88,9.81l-3.85,5-3.73,5.08c-9.91,13.57-19.23,27.58-28.31,41.74-2.28,3.53-4.5,7.11-6.75,10.66s-4.52,7.1-6.69,10.7l-6.57,10.78-3.29,5.38-3.13,5.41a402.11,402.11,0,0,0-22.3,44.7,439.27,439.27,0,0,0-16.77,47.09q-7.2,23.94-13.52,48.15c-8.48,32.3-15.38,65.09-21.28,98.38v0a.68.68,0,0,1-1.34-.08Z"/><path class="cls-7" d="M3789.58,2077.33c3.45,9.16,6.08,18.47,9.09,27.43a89.13,89.13,0,0,0,5.18,12.7,29.71,29.71,0,0,0,3.42,5.23,14.89,14.89,0,0,0,4.28,3.51,14.1,14.1,0,0,0,5.35,1.65,29.71,29.71,0,0,0,6.29.14,98.85,98.85,0,0,0,13.56-2.26c9.22-2.07,18.51-4.73,28.12-6.61-2.07,1.32-4.17,2.56-6.3,3.74s-4.28,2.33-6.46,3.42a134.87,134.87,0,0,1-13.46,5.88A71.44,71.44,0,0,1,3824,2136a34.77,34.77,0,0,1-8.12.17,22.26,22.26,0,0,1-8.39-2.5,22.83,22.83,0,0,1-6.73-5.68c-.44-.56-.82-1.14-1.23-1.71-.2-.29-.41-.57-.59-.87l-.52-.88c-.33-.59-.69-1.18-1-1.77l-.84-1.8a66.91,66.91,0,0,1-4.38-14.51A153.83,153.83,0,0,1,3789.58,2077.33Z"/><path class="cls-7" d="M3726.36,2146.24c4.91,10.71,8.39,22,11.94,33,1.77,5.51,3.53,11,5.51,16.27a85.36,85.36,0,0,0,7,14.94c2.78,4.49,6.24,8.24,10.53,10a18,18,0,0,0,7,1.41,31.91,31.91,0,0,0,7.7-.94,77.41,77.41,0,0,0,15.6-6c5.14-2.54,10.17-5.45,15.31-8.33-1,1.08-2,2.13-3.06,3.18s-2.12,2-3.22,3c-2.16,2-4.47,3.86-6.83,5.67a62.89,62.89,0,0,1-15.85,8.9,34.29,34.29,0,0,1-9.44,2,24.76,24.76,0,0,1-10.12-1.38,26.19,26.19,0,0,1-8.72-5.45,39.33,39.33,0,0,1-6.11-7.61,75.62,75.62,0,0,1-7.37-16.81,169.36,169.36,0,0,1-4.35-17.21C3729.52,2169.37,3727.87,2157.9,3726.36,2146.24Z"/><path class="cls-7" d="M3714.91,2328.68H3449.32a20.54,20.54,0,0,0-20.31,23.6l39.44,261h-43l17.49,28.76h278.35l17.49-28.76h-43l39.44-261A20.53,20.53,0,0,0,3714.91,2328.68Z"/></g></svg>