<svg xmlns="http://www.w3.org/2000/svg" xmlns:xlink="http://www.w3.org/1999/xlink" viewBox="0 0 4680 3120"><defs><style>.cls-1{fill:#EC221F;}.cls-2{fill:#fff;}.cls-3{fill:#303030;}.cls-4{opacity:0.3;}.cls-5{opacity:0.15;}.cls-6{fill:#4d4d4d;}.cls-7{fill:#999;}.cls-8{fill:#666;}.cls-9{fill:#ccc;}.cls-10{fill:#333;}.cls-11{fill:#f2f2f2;}.cls-12{fill:#b3b3b3;}.cls-13{fill:#0e1d73;}.cls-14{fill:#fcc0a9;}.cls-15{fill:#fc9a74;}.cls-16{clip-path:url(#clip-path);}.cls-17{opacity:0.7;}.cls-18{opacity:0.8;}.cls-19{clip-path:url(#clip-path-2);}.cls-20{opacity:0.6;}.cls-21{fill:#fdaf91;}.cls-22{fill:#e6e6e6;}.cls-23{fill:#848484;}.cls-24{fill:#1a3089;}.cls-25{fill:#EC221F;}.cls-26{fill:#EC221F;}.cls-27{fill:#2291f2;}.cls-28{fill:#091751;}.cls-29{fill:#e2e2e2;}</style><clipPath id="clip-path"><path class="cls-1" d="M1567.32,926.52c-13.5-95-76-119-123-105s-132,30-153,161-24,311.09-87,340.1c182,149,368.1,11,368.1,11C1514,1075,1540.31,940.52,1567.32,926.52Z"/></clipPath><clipPath id="clip-path-2"><path class="cls-1" d="M1401.27,951.53s108-45,166-25c-26-146-109-97-126-90S1396.27,872.5,1401.27,951.53Z"/></clipPath></defs><g id="_2" data-name="2"><rect class="cls-2" width="4680" height="3120"/><rect class="cls-3" x="2942.61" y="2120.79" width="29.34" height="423.83"/><path class="cls-1" d="M3121.13,2650c0-90.49-73.36-108.67-163.85-108.67s-163.84,18.18-163.84,108.67"/><path class="cls-1" d="M2898.85,2053.51l163.34-510.76a46,46,0,0,1,46-46h270a46,46,0,0,1,46,46l-181,565.93h-.4a40.76,40.76,0,0,1-40.36,35.11H2712.14a40.74,40.74,0,0,1-40.75-40.75v-49.53Z"/><g class="cls-4"><path d="M2899.19,2052.45H3138.8a40.75,40.75,0,0,0,40.36-35.11h.4L3346,1496.77H3108.18a46,46,0,0,0-46,46Z"/></g><g class="cls-4"><path d="M3091.45,2053.13l-6.71-1.36c36.42-178.86,82.78-320.62,115.27-408,35.21-94.78,62.2-148,62.47-148.52l6.1,3.11c-.27.52-27.12,53.48-62.21,147.93C3174,1733.43,3127.76,1874.77,3091.45,2053.13Z"/><path d="M2989.33,2053.27l-6.65-1.64c71.71-291.18,178.25-553.54,179.31-556.15l6.34,2.58C3167.27,1500.67,3060.91,1762.59,2989.33,2053.27Z"/><path d="M3362,1735.8l-80.6-36.47c-31.82-3.43-85.19-6.56-94.65-.46l-1.31.84-1.49-.43c-30-8.61-89.92-4-90.53-3.91l-.51,0-.51-.12c-16.55-3.73-62.37-11.34-75.51-1.88l-4-5.55c17.6-12.68,72.09-1.23,80.51.64,6.31-.47,60.75-4.3,91.09,3.82,17.64-8.2,89.8-.65,98.2.27l.54.06,81.59,36.92Z"/><path d="M3301.55,1925.07l-81.19-34.76c-5.93-.69-64.3-7.31-92.08-3.88l-.6.07-.58-.13c-47.73-10.84-92.48-5.74-92.93-5.69l-.4,0-.39,0c-.59-.07-58.44-6.59-76.83-1.4l-1.86-6.58c19.07-5.39,73.51.51,79.08,1.14,4.66-.5,48-4.66,94.26,5.72,30.19-3.52,91,3.7,93.63,4l.49.06.45.19,81.65,35Z"/></g><g class="cls-5"><rect class="cls-6" x="1971.49" y="1486.52" width="535.61" height="48.64"/><rect class="cls-6" x="2061.21" y="1276.96" width="84.26" height="211.88" transform="translate(3486.24 -720.44) rotate(90)"/><rect class="cls-7" x="2082.07" y="1370.51" width="101.5" height="24.78"/><rect class="cls-7" x="2024.25" y="1370.51" width="42.95" height="24.78" transform="translate(4091.45 2765.81) rotate(180)"/><rect class="cls-8" x="2012.48" y="1425.03" width="245.34" height="63.81"/><rect class="cls-9" x="2026.93" y="1444.55" width="42.95" height="24.78" transform="translate(3505.35 -591.47) rotate(90)"/><rect class="cls-9" x="2064.1" y="1444.55" width="42.95" height="24.78" transform="translate(3542.52 -628.64) rotate(90)"/><rect class="cls-9" x="2101.28" y="1444.55" width="42.95" height="24.78" transform="translate(3579.69 -665.82) rotate(90)"/><rect class="cls-9" x="2140.93" y="1444.55" width="42.95" height="24.78" transform="translate(3619.34 -705.47) rotate(90)"/><rect class="cls-9" x="2182.23" y="1444.55" width="42.95" height="24.78" transform="translate(3660.64 -746.77) rotate(90)"/><rect class="cls-9" x="2060.8" y="1302.67" width="174.71" height="38.1"/><rect class="cls-6" x="2059.2" y="1183.06" width="535.61" height="48.64"/><path class="cls-10" d="M2260.34,1151.42V1029.71a68.93,68.93,0,0,0-68.93-68.93h0a68.93,68.93,0,0,0-68.93,68.93v121.71h-8.77v33.26h155.41v-33.26Z"/><circle class="cls-11" cx="2193.57" cy="1026.3" r="44.81" transform="translate(-225.77 917.57) rotate(-22.5)"/><path class="cls-6" d="M2217.7,1046.2a2.14,2.14,0,0,1-1.2-.37l-23.95-16.12a2.15,2.15,0,0,1-1-1.79V995a2.16,2.16,0,0,1,4.32,0v31.75l23,15.48a2.16,2.16,0,0,1-1.21,4Z"/><polygon class="cls-8" points="2501.65 1148.24 2501.65 1002.35 2387.26 1002.35 2387.26 1148.24 2366.26 1148.24 2366.26 1183.06 2387.26 1183.06 2501.65 1183.06 2522.66 1183.06 2522.66 1148.24 2501.65 1148.24"/><rect class="cls-11" x="2411.78" y="1024.94" width="65.36" height="2.7"/><rect class="cls-11" x="2411.78" y="1042.69" width="65.36" height="2.7"/><rect class="cls-11" x="2411.78" y="1060.43" width="65.36" height="2.7"/><rect class="cls-11" x="2411.78" y="1078.17" width="65.36" height="2.7"/><rect class="cls-11" x="2411.78" y="1095.91" width="65.36" height="2.7"/><path class="cls-10" d="M2401.16,1447.27c8.85-46.41,12.66-66.81,36.12-92.29-21-38.61-42-31.6-42-31.6s-21-7-42,31.6c23.46,25.48,27.28,45.88,36.13,92.29a39.7,39.7,0,0,0-33.79,39.25H2435A39.7,39.7,0,0,0,2401.16,1447.27Z"/><path class="cls-10" d="M2395.26,1288.36c-23.34,4.67,0,35,0,35S2418.61,1293,2395.26,1288.36Z"/><rect x="686.85" y="2524.36" width="3306.3" height="18.31"/><path class="cls-7" d="M892.38,2001.26l351.88,30.81s13-334,19.45-364.86c-139.45-4.86-358.36-13-358.36-13Z"/><path class="cls-6" d="M1252.36,1518c0,82.7-11.21,148.39-11.21,148.39S941,1655.86,879.4,1654.24c1.63-66.48,21.08-110.26,13-136.21C1080.48,1529.38,1252.36,1518,1252.36,1518Z"/><rect class="cls-7" x="1117.77" y="1567.97" width="133.1" height="7.06"/><rect class="cls-7" x="885.77" y="1588.7" width="166.33" height="7.06"/><line class="cls-11" x1="968.94" y1="1628.7" x2="1245.39" y2="1635.59"/><rect class="cls-7" x="1103.63" y="1493.88" width="7.06" height="276.54" transform="translate(-552.07 2698.29) rotate(-88.57)"/><rect x="1056.96" y="1768.68" width="198.61" height="7.06"/><rect x="899.48" y="1807.58" width="196.4" height="7.06"/><rect x="899.48" y="1839.62" width="98.2" height="7.06"/><polygon points="865.23 2616.31 804.75 2616.31 865.23 2356.52 925.7 2356.52 865.23 2616.31"/><polygon points="2310.24 2616.31 2370.71 2616.31 2310.24 2356.52 2249.77 2356.52 2310.24 2616.31"/><path class="cls-10" d="M2366.25,2419.6h-1557a49.29,49.29,0,0,1-49-43.71l-38-333.42a49.28,49.28,0,0,1,49-54.86h1633a49.28,49.28,0,0,1,49,54.86l-38,333.42A49.29,49.29,0,0,1,2366.25,2419.6Z"/><rect class="cls-8" x="876.18" y="2050.69" width="390.8" height="305.83"/><rect x="1403.28" y="2230.6" width="390.8" height="125.92"/><rect x="1403.28" y="2050.69" width="390.8" height="124.63"/><rect class="cls-8" x="1908.49" y="2050.69" width="390.8" height="305.83"/><circle class="cls-12" cx="2769.34" cy="773.65" r="135.24"/><path d="M2769.34,918c-79.62,0-144.4-64.77-144.4-144.39s64.78-144.39,144.4-144.39S2913.73,694,2913.73,773.65,2849,918,2769.34,918Zm0-270.47a126.09,126.09,0,1,0,126.08,126.08A126.23,126.23,0,0,0,2769.34,647.57Z"/><path d="M2721.14,821.52a9.15,9.15,0,0,1-4.74-17l43.78-26.46V674.48a9.16,9.16,0,1,1,18.31,0V783.23a9.15,9.15,0,0,1-4.42,7.84l-48.2,29.13A9.15,9.15,0,0,1,2721.14,821.52Z"/></g><path class="cls-13" d="M1598,1146.59c76.79,24.11,50.39,83,121.41,177s149,68.22,149,68.22c-2,51.81-3,69.82-59,60.81s-112-22.89-159.05-111-52.39-95-52.39-95Z"/><g class="cls-4"><path d="M1644.32,1330.35c-41.47-77.46-46.38-83.74-46.38-83.74v-100a125,125,0,0,1,13.43,5l-2.17,5.4s2.89,8.58,17.81,109.46C1630.7,1291.47,1636.65,1312.45,1644.32,1330.35Z"/></g><path class="cls-14" d="M1376.27,2434.94c-3,130-1,121-45,146s-82,53-59,56,146-5,174-9,1-22-6-69-2-124-4-124Z"/><path class="cls-13" d="M1348.26,2560s36,13,35,47c36-3,65.47-40.52,65.47-40.52s28.45,67.84,10,71.18-189.5,17.35-206.51,4.34S1348.26,2560,1348.26,2560Z"/><path class="cls-15" d="M1374.31,2506s-.38,11.87-1.37,20.07c46.34-2.07,64.33,0,64.33,0l-.69-20.07Z"/><path class="cls-14" d="M1635.72,2434.94c3,130,1,121,45,146s82,53,59,56-146-5-174-9-1-22,6-69,2-124,4-124Z"/><path class="cls-13" d="M1663.73,2560s-36,13-35,47c-36-3-66.78-31.92-66.78-31.92s-27.14,59.24-8.69,62.58,189.5,17.35,206.5,4.34S1663.73,2560,1663.73,2560Z"/><path class="cls-15" d="M1637.67,2506s.39,11.87,1.37,20.07c-46.33-2.07-64.32,0-64.32,0l.68-20.07Z"/><path class="cls-1" d="M1567.32,926.52c-13.5-95-76-119-123-105s-132,30-153,161-24,311.09-87,340.1c182,149,368.1,11,368.1,11C1514,1075,1540.31,940.52,1567.32,926.52Z"/><g class="cls-16"><g class="cls-17"><path class="cls-15" d="M1377.92,837.49a32.88,32.88,0,0,0-6.2,9.65,59.88,59.88,0,0,0-3.38,10.88c-.41,1.87-.78,3.74-1.11,5.64l-.9,5.7-.45,2.85-.36,2.86-.72,5.72a430.35,430.35,0,0,0-2.18,46c0,30.76,1.88,61.9.19,93.44a458.38,458.38,0,0,1-5,47,359.63,359.63,0,0,1-10.58,46.14,290.36,290.36,0,0,1-17.21,44,242,242,0,0,1-24.63,40c14.1-27.87,24-57.11,30.88-87,3.43-14.92,6.09-30,8.1-45.19s3.29-30.48,4.06-45.8c1.89-30.58.74-61.68,2.92-93.07a298.64,298.64,0,0,1,6.58-46.78l1.45-5.75.74-2.86.84-2.84,1.71-5.65q.91-2.82,2-5.61a58,58,0,0,1,5.29-10.72A32.23,32.23,0,0,1,1377.92,837.49Z"/></g><path class="cls-15" d="M1545.82,824.24c-2.45,17.14-7.29,34-13,50.36s-12.23,32.42-18.12,48.51-11.12,32.27-14.19,48.75a167.87,167.87,0,0,0-2.86,24.83,172.94,172.94,0,0,0,.8,25,208.9,208.9,0,0,0,3.82,24.88c1.77,8.23,3.85,16.42,6.38,24.51s5.31,16.11,8.36,24.06,6.36,15.83,9.85,23.61a293.37,293.37,0,0,0,24.39,44.82c9.53,14.09,20.8,27.15,34.37,37.93-14.93-8.8-28-20.86-39.06-34.44s-20.27-28.66-28.21-44.22c-4-7.78-7.67-15.68-11.14-23.72s-6.55-16.25-9.35-24.59a259.88,259.88,0,0,1-7.1-25.46,207.94,207.94,0,0,1-4.27-26.24,172.47,172.47,0,0,1,2.94-53.19c3.68-17.41,9.67-34,16.52-50s14.4-31.52,21.47-47.2S1541.05,840.89,1545.82,824.24Z"/><path class="cls-15" d="M1471.2,920.24c-9.11,19.59-14.48,40.68-17.36,62s-3.26,43-2.78,64.47c1.15,43.09,5,86.1,6.55,129.26.22,5.39.33,10.79.48,16.18s.21,10.8.19,16.2c.08,10.81-.17,21.61-.6,32.41s-1.27,21.58-2.35,32.33l-.95,8.05-.49,4-.58,4c-.4,2.67-.76,5.35-1.19,8l-1.39,8c-2,10.63-4.25,21.21-7.17,31.62-1.34,5.24-3,10.37-4.62,15.54-.86,2.56-1.78,5.11-2.66,7.66l-1.35,3.82-1.48,3.77a271.74,271.74,0,0,1-13.39,29.5l-3.89,7.1c-1.31,2.36-2.78,4.63-4.17,6.94l-2.1,3.46c-.71,1.15-1.5,2.24-2.25,3.37l-4.53,6.7,4.39-6.8c.72-1.14,1.49-2.25,2.17-3.41l2-3.49c1.34-2.34,2.76-4.63,4-7l3.75-7.16a279.16,279.16,0,0,0,12.88-29.61l1.42-3.78,1.29-3.82,2.55-7.66c1.49-5.17,3.14-10.3,4.41-15.53,2.8-10.39,5-21,6.84-31.54l1.32-8c.41-2.66.75-5.33,1.13-8l.55-4,.46-4,.9-8c1-10.72,1.79-21.46,2.19-32.22s.61-21.52.5-32.3c0-5.38-.14-10.77-.22-16.15s-.27-10.77-.49-16.16c-1.53-43.08-5.23-86.1-6-129.3-.3-21.59.4-43.27,3.51-64.67S1461.66,939.62,1471.2,920.24Z"/><path class="cls-15" d="M1339.68,1407.58c1.57-17.19,6.78-33.81,12.44-50l4.29-12.17c1.43-4.06,2.78-8.14,4.18-12.21s2.82-8.13,4.13-12.22l3.91-12.29,2-6.15,1.83-6.18,3.65-12.37c.63-2,1.19-4.13,1.75-6.21l1.68-6.22c1.11-4.15,2.29-8.29,3.34-12.45,4.16-16.68,8.13-33.42,11.28-50.31.81-4.22,1.65-8.44,2.42-12.67l2.08-12.72,1-6.36c.37-2.11.59-4.25.89-6.38l1.72-12.77c.64-4.25,1-8.54,1.44-12.81l1.32-12.82.93-12.86c.3-4.29.67-8.57.77-12.87a624.34,624.34,0,0,0-3.42-103,565.87,565.87,0,0,1,5.31,103.1c-.06,4.31-.39,8.61-.66,12.91l-.82,12.9-1.24,12.87c-.45,4.29-.76,8.59-1.38,12.86l-1.67,12.82c-.3,2.14-.52,4.29-.88,6.41l-1,6.38-2.06,12.77c-.76,4.24-1.61,8.47-2.41,12.7-3.18,17-7.2,33.72-11.45,50.43-1.08,4.17-2.28,8.31-3.42,12.46l-1.72,6.23c-.58,2.08-1.15,4.15-1.8,6.21l-3.76,12.36-1.89,6.18-2,6.14-4.06,12.27c-1.36,4.09-2.87,8.12-4.29,12.19s-2.88,8.12-4.37,12.16l-4.5,12.1C1347.28,1374,1341.72,1390.44,1339.68,1407.58Z"/><path class="cls-15" d="M1386.47,1083.57c6.24,30,5.77,60.74,2,90.88-4.22,30.08-11.84,59.89-25.76,87.17,2.91-30.41,7.74-59.59,11.47-89.08C1378.34,1143.1,1381.33,1113.68,1386.47,1083.57Z"/><path class="cls-15" d="M1379.17,1013.38a670.37,670.37,0,0,1-12.58,95.58A749.71,749.71,0,0,1,1341,1202c-10.44,30.4-21.86,60.32-30.25,91.09a449.93,449.93,0,0,0-15.13,94.51,359.53,359.53,0,0,1,9.64-95.91c7.47-31.45,18.63-61.73,28.93-92q15.74-45.33,26.93-92T1379.17,1013.38Z"/><g class="cls-18"><path class="cls-15" d="M1335,991.53c3.29,28.29.26,57.25-7.75,84.64s-20.74,53.38-36.52,77.14-34.71,45.41-55.18,65.23a294.69,294.69,0,0,1-32.42,27.86c-11.55,8.35-24.1,15.47-37.61,20,13.34-5,25.62-12.39,36.92-20.94a315.51,315.51,0,0,0,31.79-28.27c20.15-20,38.74-41.62,54.5-65.21s28.57-49.16,36.72-76.34S1337.36,1019.91,1335,991.53Z"/></g><path class="cls-15" d="M1313.42,1130.61a150.25,150.25,0,0,1-16.56,36.82,211,211,0,0,1-24.64,32.11c-18.4,19.83-39.59,36.75-61.65,52.11,20.93-16.89,41.7-34,59.88-53.74a236.89,236.89,0,0,0,24.82-31.49A178.25,178.25,0,0,0,1313.42,1130.61Z"/><path class="cls-15" d="M1500,1161c4.65,21.11,6.87,42.7,8.58,64.22s2.94,43.09,5.62,64.47,6.93,42.56,14.17,62.82,17.6,39.5,32.17,55.52a138,138,0,0,1-19.86-25.6,176.35,176.35,0,0,1-14.09-29.27c-7.64-20.32-12.07-41.71-14.77-63.18C1506.53,1247,1507.47,1203.58,1500,1161Z"/><path class="cls-15" d="M1528,1283.65a186.76,186.76,0,0,0,28.68,83,130.09,130.09,0,0,1-28.68-83Z"/></g><path class="cls-13" d="M1497.3,1127.57c-157,5-138,47-137,66s82.13,163.05,54.07,221.06c158,34,197,0,197,0s-14-24,6-260.07C1540,1120.44,1497.3,1127.57,1497.3,1127.57Z"/><path class="cls-14" d="M1162.21,1481.67c-79,37-57,18-106,31s-21,27-70,57-22,63,42,38,55-56,129-73C1184.21,1505.68,1162.21,1481.67,1162.21,1481.67Z"/><path class="cls-15" d="M1157.21,1534.69c-69.68,16-65.78,44.43-118.5,68.56,54.08-34.21,42.38-62.55,110.79-91,7.32-11.14,9.28-20.8,8.64-28.7,1.32-.63,2.68-1.25,4.07-1.91C1162.21,1481.67,1184.22,1505.68,1157.21,1534.69Z"/><path class="cls-13" d="M1382.72,1146.59c-84.43,36.47-66.47,174.44-142.49,245.26s-84.12,75.94-121,95.82c18,68,31,74,31,74s128-76,158-141,61.2-109.11,76.11-166.09S1382.72,1146.59,1382.72,1146.59Z"/><g class="cls-4"><path d="M1375.63,1282.1c-16.53,44.7-42.37,84.36-67.38,138.56-30,65-158,141-158,141s-4.61-2.12-12.16-18.25c30.3-18.46,124.76-78.74,155.48-130.06C1324.33,1361.88,1354.41,1325.09,1375.63,1282.1Z"/></g><path class="cls-7" d="M1414.33,1414.65C1286.24,1655.72,1307.25,2506,1307.25,2506h193s18-647.18,37-755.21c8,110-6.77,755.21-6.77,755.21s164.81,19,217.83-12c-63-306.08-45-899.25-137-1079.3C1567.32,1447.46,1414.33,1414.65,1414.33,1414.65Z"/><g class="cls-5"><path d="M1427.94,1417.47c-122.53,233.68-78.26,1009.31-73.38,1088.49h-47.31s-21-850.24,107.07-1091.31c0,0,7,1.5,18.47,3.55C1429.65,1417.74,1427.94,1417.47,1427.94,1417.47Z"/></g><path class="cls-14" d="M1456.18,1010.54c-.14,1.44,1,18.49.88,19.88-8.68,85.51-3.92,93.48-40.39,105.29,93,59,123,21.84,144-1.17-54-20-53.34-91-53.34-91C1464.29,1047.55,1456.18,1010.54,1456.18,1010.54Z"/><path class="cls-15" d="M1508.75,1060.34c-8-.87-19-5.56-29.34-21,7.07,3.4,16.2,5.34,27.9,4.26A138.11,138.11,0,0,0,1508.75,1060.34Z"/><path class="cls-15" d="M1479.41,1039.29c7.07,3.4,16.2,5.34,27.9,4.26"/><path class="cls-14" d="M1469.29,853.5c-77,15-54,98-43,126s42,72,81,64,54-44,43-134S1469.29,853.5,1469.29,853.5Z"/><path class="cls-1" d="M1401.27,951.53s108-45,166-25c-26-146-109-97-126-90S1396.27,872.5,1401.27,951.53Z"/><g class="cls-19"><path class="cls-15" d="M1458.52,805.78a53.13,53.13,0,0,1,21.33,6.48,67.38,67.38,0,0,1,9.38,6.25,74.16,74.16,0,0,1,15.16,16.65,96,96,0,0,1,5.67,9.76,122,122,0,0,1,8,21c4.22,14.45,5.65,29.39,8.79,43.84a103.92,103.92,0,0,0,6.65,21.1,52.19,52.19,0,0,0,13,17.78,50.15,50.15,0,0,1-14.07-17.27,98,98,0,0,1-7.44-21.18c-3.52-14.57-5.07-29.43-9.26-43.61a125.16,125.16,0,0,0-7.75-20.68,84.77,84.77,0,0,0-12-18.43,75.38,75.38,0,0,0-7.8-7.78,69.45,69.45,0,0,0-9-6.45A55.54,55.54,0,0,0,1458.52,805.78Z"/><g class="cls-20"><path class="cls-15" d="M1524.56,856.42c4.92,7.54,8.3,16,11,24.44s4.64,17,6.94,25.25a188.34,188.34,0,0,0,7.83,24.17,99,99,0,0,0,12.48,22.54c-8-4.28-14.47-11.29-19.21-19.1a98,98,0,0,1-10.39-25.13,248.77,248.77,0,0,1-5-26.05C1526.91,873.88,1525.92,865.29,1524.56,856.42Z"/></g><path class="cls-15" d="M1458.67,812.25a8.28,8.28,0,0,0-4,2.39,14.69,14.69,0,0,0-2.56,3.85,31.29,31.29,0,0,0-1.65,4.36c-.42,1.54-.87,3.07-1.27,4.61a142.2,142.2,0,0,0-3.36,18.73c-1.47,12.6-1.63,25.37-1.81,38.27s-.61,26-2.68,39a110.82,110.82,0,0,1-4.77,19.15,78.32,78.32,0,0,1-8.68,17.57c4.71-12.14,6.82-24.73,7.82-37.39s.9-25.5,1.1-38.45.85-26.07,3.45-39a101.86,101.86,0,0,1,5.62-18.95c.64-1.52,1.34-3,2-4.51a30.17,30.17,0,0,1,2.55-4.35,15.29,15.29,0,0,1,3.56-3.62A8.5,8.5,0,0,1,1458.67,812.25Z"/><path class="cls-15" d="M1452.24,875.25c-3,17.34-3.21,34.88-5.4,52.4a138.43,138.43,0,0,1-5.59,25.9,73.66,73.66,0,0,1-12.34,23.33A89.37,89.37,0,0,0,1439.44,953a166.23,166.23,0,0,0,5-25.64c1.13-8.67,1.86-17.42,2.92-26.16A168,168,0,0,1,1452.24,875.25Z"/><path class="cls-15" d="M1475.46,811.86c-4.58,7.92-6.58,16.48-7.47,25.11a170.86,170.86,0,0,0-.18,26.3c.37,8.92.84,18.06-.06,27.27a69.62,69.62,0,0,1-2.64,13.62,46.84,46.84,0,0,1-5.83,12.48c2.49-8.78,3-17.55,2.8-26.34s-1-17.64-1.47-26.69-.21-18.42,1.81-27.56a54.27,54.27,0,0,1,4.68-13.19A38.44,38.44,0,0,1,1475.46,811.86Z"/><path class="cls-15" d="M1420.69,906.61c3,11.92,2.42,24.68-.6,36.67s-8.78,23.42-17.22,32.39a170.59,170.59,0,0,0,17.82-69.06Z"/><path class="cls-15" d="M1489.51,845.42c3.18,17.69,5.62,35.47,7.9,53.26,1.11,8.9,2.23,17.77,4,26.51a112.09,112.09,0,0,0,8.08,25.48,88.77,88.77,0,0,1-9.93-25.07A239.13,239.13,0,0,1,1495,899C1492.83,881.17,1490.81,863.35,1489.51,845.42Z"/><path class="cls-15" d="M1502.59,891.51c1.35,8.47,2.64,16.83,4.39,25.12s3.84,16.49,6,24.8a103.08,103.08,0,0,1-10.35-49.92Z"/></g><path class="cls-21" d="M1429.28,951.53c-52-16.56-29,38-15,41s32.79,7.53,29-8C1439.1,967.61,1429.28,951.53,1429.28,951.53Z"/><path class="cls-14" d="M1553.42,974.3h0a161,161,0,0,1-1.79,16.32l-.18,0c-6.33,1.09-12.09-1.64-12.87-6.13s3.7-9,10-10.13A16,16,0,0,1,1553.42,974.3Z"/><path class="cls-1" d="M1408.34,948.75c-3.2,1.21-5.41,2.09-6.42,2.51A14.61,14.61,0,0,1,1408.34,948.75Z"/><path class="cls-21" d="M1408.34,948.75c-3.2,1.21-5.41,2.09-6.42,2.51A14.61,14.61,0,0,1,1408.34,948.75Z"/><path class="cls-10" d="M1488.38,955.68c1.24,4.6-1,9.2-4.93,10.28s-8.2-1.78-9.45-6.38,1-9.2,4.93-10.28S1487.13,951.08,1488.38,955.68Z"/><path class="cls-10" d="M1526.34,953.64c-1.14,4.21.88,8.42,4.52,9.4s7.5-1.63,8.64-5.83-.88-8.42-4.52-9.4S1527.48,949.43,1526.34,953.64Z"/><path class="cls-10" d="M1459.93,939.77a3.2,3.2,0,0,0,.94-.66l.9-.74c.6-.5,1.22-1,1.85-1.43a34.63,34.63,0,0,1,4-2.46,31.73,31.73,0,0,1,8.94-3.11,24.7,24.7,0,0,1,9.69,0,19.13,19.13,0,0,1,4.62,1.65,14.13,14.13,0,0,1,3.84,3c-1.63-.14-3.11-.28-4.57-.33s-2.87,0-4.27.07a70.56,70.56,0,0,0-8.3,1.07c-2.77.5-5.57,1.13-8.45,1.74-1.45.31-2.91.61-4.42.87-.76.13-1.52.26-2.32.34A6.41,6.41,0,0,1,1459.93,939.77Z"/><path class="cls-10" d="M1523.7,936.68a10.77,10.77,0,0,1,3.9-4.95,14,14,0,0,1,5.85-2.43,14.56,14.56,0,0,1,3.23-.17,12.8,12.8,0,0,1,3.18.68,10,10,0,0,1,5.1,3.77c-2.23.32-4,.31-5.72.55-.84,0-1.67.22-2.47.27s-1.6.22-2.4.38c-1.6.27-3.22.57-4.95.91S1525.88,936.39,1523.7,936.68Z"/><path class="cls-15" d="M1516.7,944.77c-.67,4-1.32,7.7-1.71,11.4a49.07,49.07,0,0,0-.19,10.74,28.2,28.2,0,0,0,1,5.05l.38,1.23.09.31.13.38.25.76a20,20,0,0,1,.76,3.12,14.41,14.41,0,0,1-.34,6.46,9.75,9.75,0,0,1-1.38,2.91,7,7,0,0,1-2.23,2.16,11,11,0,0,0,.9-5.43,16.36,16.36,0,0,0-1.19-5c-.13-.41-.35-.8-.51-1.2s-.36-.79-.56-1.18l-.3-.59-.15-.29-.16-.37-.65-1.48a23.44,23.44,0,0,1-1.56-6.23,30.73,30.73,0,0,1,7.43-22.73Z"/><path class="cls-22" d="M1494.69,1002.43s17.75,3.75,26,0C1513.69,1038.94,1494.69,1002.43,1494.69,1002.43Z"/><path class="cls-10" d="M1463.94,956a5.82,5.82,0,0,1,.38-1c.17-.32.34-.66.53-1a13.26,13.26,0,0,1,1.29-1.76,19.32,19.32,0,0,1,3.17-3,21.25,21.25,0,0,1,7.93-3.63,19.5,19.5,0,0,1,8.86,0,15,15,0,0,1,7.43,4.5c-3-.12-5.46-.27-7.92-.15a48,48,0,0,0-7.14,1,65.57,65.57,0,0,0-7.09,2c-1.19.42-2.42.85-3.64,1.32S1465.25,955.39,1463.94,956Z"/><path class="cls-10" d="M1522.08,953.78a14.8,14.8,0,0,1,3.29-6.64,15.59,15.59,0,0,1,6.2-4.57,12.15,12.15,0,0,1,4.11-.86,10,10,0,0,1,4.22.84,8.81,8.81,0,0,1,3.27,2.46,8.92,8.92,0,0,1,1.79,3.4,19.8,19.8,0,0,0-6.24-1.65,12.09,12.09,0,0,0-5.12,1,41.79,41.79,0,0,0-5.4,2.7C1526.31,951.51,1524.38,952.67,1522.08,953.78Z"/><ellipse class="cls-15" cx="1469.26" cy="982.54" rx="11.63" ry="8.25" transform="translate(-147.23 267.65) rotate(-9.91)"/><path class="cls-15" d="M1553.42,974.3h0a161,161,0,0,1-1.79,16.32l-.18,0c-6.33,1.09-12.09-1.64-12.87-6.13s3.7-9,10-10.13A16,16,0,0,1,1553.42,974.3Z"/><path class="cls-23" d="M1338.65,2061.83c8.88,12.52,17.47,25,26.65,37.05a311.29,311.29,0,0,0,29.44,34l4.08,3.79c.68.62,1.34,1.28,2,1.88l2.12,1.79,2.11,1.8,1.06.9,1.1.84,4.39,3.37a102.63,102.63,0,0,0,19,11c1.68.7,3.38,1.34,5.09,2l2.61.81,1.31.42,1.32.33,2.66.66,2.7.47c.9.19,1.81.29,2.72.39s1.82.24,2.73.26a48.36,48.36,0,0,0,11.07-.41c.92-.15,1.84-.31,2.76-.49s1.83-.41,2.73-.69a30.88,30.88,0,0,0,5.35-1.94,33.79,33.79,0,0,1-10.29,5.37,47.38,47.38,0,0,1-11.6,2.25c-1,.13-2,.07-3,.11a29.59,29.59,0,0,1-3,0l-3-.18-3-.39-1.49-.2-1.46-.3L1434,2166c-1.92-.53-3.85-1-5.73-1.67a92.24,92.24,0,0,1-21.18-10.65c-1.61-1.12-3.2-2.29-4.79-3.44l-1.2-.86-1.14-.93-2.29-1.85-2.27-1.87c-.75-.62-1.45-1.31-2.18-2l-4.32-4a207.76,207.76,0,0,1-29-36.21A262.36,262.36,0,0,1,1338.65,2061.83Z"/><path class="cls-23" d="M1527.17,1680.73c3.69,12.24,6.94,24.57,10.36,36.86l10,36.88,10.09,36.85c3.31,12.29,6.78,24.53,10.15,36.81q10.32,36.75,20.92,73.44l5.4,18.32,2.69,9.17,2.76,9.14c3.61,12.22,7.36,24.4,11.14,36.61-5.51-11.54-10.31-23.4-15-35.28s-9-23.91-13.18-36c-8.37-24.14-15.84-48.58-22.74-73.17l-5-18.5c-1.67-6.16-3.2-12.36-4.75-18.55-3.14-12.38-6-24.82-8.75-37.3s-5.22-25-7.73-37.51C1531.25,1705.94,1529.06,1693.36,1527.17,1680.73Z"/><path class="cls-23" d="M1440.68,1445.61c-.08.47-.18.89-.25,1.33l-.17,1.36-.4,2.69c-.3,1.79-.63,3.59-1,5.36l-.63,2.66c-.23.88-.5,1.76-.74,2.64-.48,1.76-1.09,3.48-1.69,5.21a94.38,94.38,0,0,1-9.82,19.67l-3.16,4.54c-1.17,1.43-2.32,2.88-3.51,4.29s-2.48,2.74-3.77,4.06a46.76,46.76,0,0,1-4,3.8q-2.12,1.79-4.28,3.5c-1.49,1.08-3.06,2.07-4.6,3.07l-2.33,1.45c-.83.42-1.65.83-2.48,1.22q-2.49,1.21-5,2.22,1.79-2.13,3.63-4.08l1.85-1.92,1.73-2,3.5-3.94q1.63-2.07,3.3-4c1.16-1.29,2.14-2.73,3.21-4.09s2.17-2.68,3.12-4.13,2-2.8,3-4.2l2.87-4.3c3.79-5.77,7.37-11.7,10.84-17.8.86-1.52,1.75-3,2.59-4.59s1.74-3.09,2.6-4.65,1.74-3.13,2.67-4.69A34.52,34.52,0,0,1,1440.68,1445.61Z"/><path class="cls-24" d="M1575.07,1343.77c-5.45.31-10.9.87-16.38,1s-11,.21-16.44,0a230.1,230.1,0,0,1-32.78-3.37,177,177,0,0,1-31.92-8.65,129.66,129.66,0,0,1-15.09-6.85,95.39,95.39,0,0,1-13.81-9c5.07,2.14,10.1,4.13,15.19,5.91s10.25,3.34,15.42,4.78c10.35,2.85,20.84,5.11,31.43,7s21.26,3.41,32,4.79l16.15,2c2.7.34,5.41.66,8.12,1A78.07,78.07,0,0,1,1575.07,1343.77Z"/><path class="cls-1" d="M1797.92,1510.47H1661c-6,0-8.58-4.92-5.65-11l90.72-188c2.93-6.08,10.21-11,16.26-11h136.92c6,0,8.57,4.93,5.64,11l-90.72,188C1811.25,1505.55,1804,1510.47,1797.92,1510.47Z"/><path class="cls-11" d="M1798.39,1391.38a26.9,26.9,0,0,0-10,2.15l-3.4-14-4.9,2.65,3.35,13.85a37.91,37.91,0,0,0-14.63,15.4c-5.33,11-.74,20,10.26,20s24.24-9,29.57-20S1809.39,1391.38,1798.39,1391.38Z"/><path class="cls-14" d="M1868.4,1382.43c-22.41,29.72-27-.78-41,31.22s-31,71,5,61S1894.41,1429.77,1868.4,1382.43Z"/><path class="cls-15" d="M1878.15,1428.6c-4,23.29-22.86,39.71-45.75,46.07-35.52,9.86-19.45-28-5.57-59.72-5.39,31.27-8.17,62.54,21,46.56C1861.62,1453.92,1872.7,1442.4,1878.15,1428.6Z"/><path class="cls-2" d="M1951,471c-145.53,0-263.52,118-263.52,263.52a262.36,262.36,0,0,0,57.08,163.77l-43.37,94.3,109.42-35A262.28,262.28,0,0,0,1951,998c145.54,0,263.52-118,263.52-263.52S2096.53,471,1951,471Z"/><path class="cls-9" d="M1680.86,1010.54l51-110.84a274.28,274.28,0,1,1,77.31,69.76Zm131.26-65,4.32,2.73A251.85,251.85,0,0,0,1951,987c139.27,0,252.58-113.3,252.58-252.57S2090.26,481.89,1951,481.89,1698.42,595.2,1698.42,734.47a249.85,249.85,0,0,0,54.7,157l4.19,5.27-35.8,77.83Z"/><path class="cls-13" d="M2755.57,1390.67c-173.81,184-108.29,305-193.82,369.62-90.42,68.31,147,195.51,160.05,79.48s33.77-449.1,33.77-449.1"/><g class="cls-4"><path d="M2755.57,1390.68s-20.77,333.06-33.77,449.09c-9.16,81.65-129.44,42.86-168.42-11.1,51,12.57,88.67-7.32,95-52.93,9.64-69,60.48-237.38,69.17-341.27C2734,1410.23,2730.13,1417.6,2755.57,1390.68Z"/></g><path class="cls-14" d="M2592.11,1800.73c-61.58,12.43-85.9-27.1-92.72-66.81s79.15-51.73,92.72-37.58,23.15,27.9,24.86,56.31S2633.52,1792.37,2592.11,1800.73Z"/><path class="cls-13" d="M2530,2548.58c-7.57,1.88-16.45,6.38-24.66,12.39-14.85,10.87-44.24,3.71-97.87-32.56,11.53-25.16,21.46-59,29.73-105.48l95,5S2522.31,2507.05,2530,2548.58Z"/><path class="cls-10" d="M2562.22,2649c-11,2-278.07,8-278.07,8s-11-31,40-51c33.44-13.11,61.31-29.67,83.3-77.57,53.63,36.27,83,43.43,97.87,32.56,8.21-6,17.09-10.51,24.66-12.39,1.42,7.66,3.44,14,6.23,18.39C2558,2601.09,2563.6,2627.16,2562.22,2649Z"/><path class="cls-13" d="M2752.1,2548.58c-7.57,1.88-16.45,6.38-24.66,12.39-14.85,10.87-44.25,3.71-97.87-32.56,11.53-25.16,21.46-59,29.73-105.48l95,5S2744.42,2507.05,2752.1,2548.58Z"/><path class="cls-10" d="M2784.33,2649c-11,2-278.08,8-278.08,8s-11-31,40-51c33.43-13.11,61.3-29.67,83.3-77.57,53.62,36.27,83,43.43,97.87,32.56,8.21-6,17.09-10.51,24.66-12.39,1.42,7.66,3.43,14,6.22,18.39C2780.05,2601.09,2785.71,2627.16,2784.33,2649Z"/><path class="cls-13" d="M2846.87,1360.76c-227.4,0-134.08,378-156.08,497s324.09,201,372.1,34S3099.14,1360.76,2846.87,1360.76Z"/><g class="cls-4"><path d="M3062.89,1891.79c-48,167-394.11,85-372.1-34,3.4-18.4,4.12-42.7,3.72-70.69,172.41,76.37,245.18-111.22,286.61-338.8C3063.21,1567.29,3095.65,1777.8,3062.89,1891.79Z"/></g><path class="cls-1" d="M2778.81,1434.66c13,54,16.34,60,16.34,60s-28.34,333.09-45.35,369.1,26,80,29,79,56-40,61-68-14-385.11-14-385.11l14.84-55-36.85-23Z"/><path class="cls-10" d="M2799.82,1886.79c-488.14-11-424.12-6-424.12,599.16,124-2,146,0,185.05,0-12-453.12-25-429.8,239.07-433.8"/><g class="cls-4"><path d="M2446.82,2485.13c-19.23.11-42.44.36-71.12.82v-1C2408.14,2484.59,2429.77,2484.81,2446.82,2485.13Z"/></g><g class="cls-4"><path d="M2799.62,1886.79v165.36c-264.07,4-251.07-19.32-239.06,433.8-20.65,0-7.75-.32-36.53-.55-52.82-497.79,17.24-611.54,210.31-582.75V1885.4Q2765.21,1886,2799.62,1886.79Z"/></g><g class="cls-4"><path d="M2495.47,2486c-16.25,0-29.55-.47-48.51-.82,19.88-.11,35.51-.07,48.5,0C2495.46,2485.42,2495.47,2485.69,2495.47,2486Z"/></g><path class="cls-10" d="M3022.26,1886.79c-488.13-11-424.12-6-424.12,599.16,124-2,146,0,185.06,0-12-453.12-21.48-429.8,242.59-433.8,0,0,75.26-4.59,71.26-167.64Z"/><g class="cls-4"><path d="M3025.8,2052.15c-215,3.27-248.7-11.6-247.29,227.38-34.85-229.48,3.85-220.5,222-256.44,0,0,63.34-13.34,53.66-137.28l42.85-1.3C3101.06,2047.55,3025.8,2052.15,3025.8,2052.15Z"/></g><path class="cls-14" d="M2803.82,1115.57c-42,1.09-67.36,15.86-83.84,36.16-16.11,19.85-23.75,45-30.2,67.8-1.36,4.82-2.67,9.53-4,14.07-14,48,8,119,45,113s64,6,73,65c69-49,63-50,63-50s-24.75-45,.13-106S2880.84,1113.57,2803.82,1115.57Z"/><path class="cls-15" d="M2745.84,1256.46a33.12,33.12,0,0,1,6.08-4.45,50.77,50.77,0,0,1,6.67-3.26,45.17,45.17,0,0,1,7.11-2.23,24.13,24.13,0,0,1,7.56-.62c-2.2,1.34-4.34,2.5-6.53,3.58s-4.4,2.06-6.66,3-4.55,1.72-6.9,2.43A43.14,43.14,0,0,1,2745.84,1256.46Z"/><path class="cls-15" d="M2752.78,1264a33.66,33.66,0,0,1,6.09-4.45,51.3,51.3,0,0,1,6.66-3.26,44.43,44.43,0,0,1,7.11-2.22,24.14,24.14,0,0,1,7.56-.63c-2.2,1.35-4.34,2.5-6.53,3.58s-4.4,2.06-6.66,3-4.55,1.72-6.9,2.42A42.2,42.2,0,0,1,2752.78,1264Z"/><path class="cls-15" d="M2690.76,1216.1a63.36,63.36,0,0,1-5.18,33.3c-.64,1.31-1.3,2.61-2,3.86s-1.53,2.5-2.19,3.49a9.94,9.94,0,0,1-.57.89,2.7,2.7,0,0,0-.08-.48c-.07-.23-.18-.32-.18-.27a3.68,3.68,0,0,0,.68,1c.38.43.83.9,1.29,1.37,1.87,1.92,3.83,3.93,5.67,6l2.77,3c.21.24.49.51.61.65s0,0,0,0h-.1a.58.58,0,0,0-.2,0,.78.78,0,0,0-.47.3c-.25.45-.09.6-.1.64s.05,0,0,0-.13-.28-.2-.43c-.3-.61-.68-1.21-1-1.85a20.63,20.63,0,0,1,1.88,1.07,3.68,3.68,0,0,1,.47.36,1,1,0,0,1,.3.41.78.78,0,0,1-.09.76.91.91,0,0,1-.53.33.63.63,0,0,1-.27,0,.81.81,0,0,1-.22,0l-.13,0a9.8,9.8,0,0,1-1.15-.41c-1.36-.54-2.62-1.17-3.87-1.81-2.51-1.31-4.86-2.68-7.27-4.2-.6-.39-1.2-.8-1.84-1.29a9.93,9.93,0,0,1-2.07-2.06,6.05,6.05,0,0,1-1-2.15,6,6,0,0,1,0-2.53,12.48,12.48,0,0,1,1.07-2.86c.68-1.4,1.33-2.47,1.9-3.65s1.17-2.28,1.7-3.46c2.17-4.65,4.07-9.57,6-14.6S2688.21,1221.24,2690.76,1216.1Z"/><path class="cls-10" d="M2694.55,1293.33a74.08,74.08,0,0,1,11-1.62c3.48-.28,6.84-.35,10.2-.37.84,0,1.68,0,2.52,0s1.68.05,2.53.08c1.68,0,3.39.17,5.11.27a66.91,66.91,0,0,1,11,1.62,24.86,24.86,0,0,1-10,6.13,33.45,33.45,0,0,1-11.27,1.83,34.19,34.19,0,0,1-11.24-1.85A24.15,24.15,0,0,1,2694.55,1293.33Z"/><ellipse class="cls-10" cx="2721.67" cy="1228.98" rx="11.36" ry="8.81" transform="translate(662.88 3392.13) rotate(-70.72)"/><path class="cls-10" d="M2714,1217a10.76,10.76,0,0,1,2-1.34,11.42,11.42,0,0,1,2.25-1,15.46,15.46,0,0,1,4.9-.63,20,20,0,0,1,9.35,2.91,25.63,25.63,0,0,1,7.06,6.31,21.47,21.47,0,0,1,4.11,8.41c-2.7-1.7-5-3.4-7.38-5s-4.57-3.19-6.85-4.55a39.16,39.16,0,0,0-7.08-3.43,30.18,30.18,0,0,0-3.91-1.07C2717.08,1217.32,2715.64,1217.19,2714,1217Z"/><path class="cls-10" d="M2714,1199.11a26.35,26.35,0,0,1,8.5-3.21,35.28,35.28,0,0,1,8.95-.72,28.2,28.2,0,0,1,9,1.8,19.43,19.43,0,0,1,4.16,2.2,11.2,11.2,0,0,1,3.27,3.4,58.49,58.49,0,0,0-8.49-1c-2.72-.2-5.45-.27-8.21-.4s-5.56-.32-8.4-.58A56.89,56.89,0,0,1,2714,1199.11Z"/><path class="cls-10" d="M2708.79,1151.58s90-16.95,81,14.53l-9,31.48s55-7,40,48l35.58,53h0s9.44-13,46.45-35c46-27.38,32.48-100.31-3-135C2857.31,1087,2755.81,1086.56,2708.79,1151.58Z"/><path class="cls-21" d="M2820.51,1257.61c44.33-53,58.68-33.78,58.35-6s-28.19,45.91-40.88,32.91A80.8,80.8,0,0,1,2820.51,1257.61Z"/><path class="cls-15" d="M2730.8,1346.64c37-15,53.35-23.68,64.35-34.35-6.67,40.35-11.17,48.23-11.17,48.23S2769.48,1339.63,2730.8,1346.64Z"/><path class="cls-14" d="M2896.42,1772.15c-78-65-107.05-131-159.06-117s-73,39-76,68,43.17,54.18,66,34,50.79-3,70.41,22,66.63,34,66.63,34Z"/><path class="cls-15" d="M2896.42,1772.15l-32,41s-47-9-66.63-34-47.56-42.18-70.41-22c-11.94,10.54-30.26,8.7-44.59.39,14.59,4.71,31,3.49,41.08-7.1,21.45-22.57,52.09-8.55,75,14.17s72.34,26.53,72.34,26.53l16.92-26.1C2890.79,1767.4,2893.58,1769.78,2896.42,1772.15Z"/><path class="cls-13" d="M2921.5,1386.1c146.27,13.74,256.42,423.66,234.42,470.68s-126,115-347.1-58l44-70s98,54,128,44c-5-91-39.68-161-37.68-276S2887.47,1382.9,2921.5,1386.1Z"/><g class="cls-4"><path d="M3155.92,1856.78c-21.47,45.86-121,111.72-331.12-45.78,206.47,118.21,290.84,46.24,309.91-3,7.42-19.13,9.37-69.54-5.45-117.41C3151,1774.61,3166.88,1833.34,3155.92,1856.78Z"/></g><path class="cls-1" d="M2745.84,1400c-1.3,12.56-2.83,25.06-4,37.54-.56,6.22-1.11,12.48-1.24,18.56,0,1.5,0,3,.1,4.38a14.5,14.5,0,0,0,.25,1.83c.05.23.13.41.12.35a.15.15,0,0,0,0-.09,1,1,0,0,0-.19-.32l-.13-.17a2.4,2.4,0,0,0-.22-.24,2.17,2.17,0,0,0-.52-.38,2.73,2.73,0,0,0-.84-.36c-.82-.17-.86,0-.74-.11l.08,0,.14-.07.33-.15a17.73,17.73,0,0,0,1.64-1c1.18-.75,2.39-1.61,3.59-2.51,4.83-3.61,9.55-7.71,14.26-11.77s9.33-8.28,14-12.46l13.85-12.69,13.76-12.78,3-2.8,3.55,2.07q17.94,10.42,35.46,21.48c5.85,3.71,11.65,7.5,17.41,11.43,2.87,2,5.72,4,8.58,6.19.72.58,1.43,1.1,2.16,1.73a26.58,26.58,0,0,1,2.27,2l.66.7.16.18c.06.07,0,0-.06-.08l-.15-.15a2.78,2.78,0,0,0-.32-.26l-.42-.25a3.09,3.09,0,0,0-1.16-.37,2.81,2.81,0,0,0-1.12,0,2.34,2.34,0,0,0-.64.18l-.14.07-.06,0-.11.06c-.19.14-.14.11-.15.12s0,0,.05,0l.09-.08a6.79,6.79,0,0,0,.53-.58,30.5,30.5,0,0,0,2.46-3.75c.8-1.4,1.59-2.86,2.36-4.34,1.53-3,3-6,4.39-9.15,2.85-6.19,5.56-12.5,8.24-18.83,5.43-12.63,10.56-25.43,16-38.14-3,13.51-6.73,26.82-10.71,40.08-2,6.62-4.2,13.2-6.58,19.76-1.2,3.27-2.47,6.53-3.85,9.8-.7,1.63-1.43,3.27-2.25,4.9a38.19,38.19,0,0,1-2.93,5.06,15.22,15.22,0,0,1-1.12,1.4l-.37.38a4.19,4.19,0,0,1-.42.4,6.67,6.67,0,0,1-1.2.88l-.39.23-.19.1-.3.12a7.8,7.8,0,0,1-1.25.37,6.55,6.55,0,0,1-1.77,0,6.22,6.22,0,0,1-1.77-.58,4.77,4.77,0,0,1-.68-.43l-.56-.47-.27-.26-.18-.19-.06-.05-.25-.22c-.43-.37-1-.84-1.65-1.31s-1.3-.94-1.95-1.41c-2.71-1.87-5.57-3.7-8.45-5.51-5.76-3.62-11.63-7.16-17.51-10.69-11.76-7.06-23.62-14-35.43-21l6.57-.74c-4.65,4.32-9.31,8.55-14,12.74s-9.47,8.34-14.31,12.42-9.71,8.11-14.69,12.05-10.06,7.78-15.53,11.38c-1.38.89-2.8,1.76-4.34,2.6-.8.41-1.58.82-2.55,1.21l-.77.28-.41.14-.48.13c-.18,0-.3.08-.52.12l-.66.09a3.31,3.31,0,0,1-.34,0h-.48l-.48,0-.24,0-.35-.08a5.07,5.07,0,0,1-1.39-.56,5.93,5.93,0,0,1-.75-.57l-.33-.33-.15-.18-.08-.1a8.63,8.63,0,0,1-.51-.82c-.09-.2-.19-.42-.27-.63a8.93,8.93,0,0,1-.47-1.92,18.56,18.56,0,0,1-.16-2.88c0-1.76.14-3.4.3-5,.33-3.25.8-6.41,1.34-9.55s1.11-6.26,1.77-9.36C2739.29,1424.41,2742.26,1412.15,2745.84,1400Z"/><path class="cls-25" d="M3609.58,2177.52c-110.93-119.78-36.62-138.69-58.74-214.63s-66-140.23-27.28-187.14,15.44-90.48,19-162.42,120.91-50.63,116.88.22-14.33,91.35,22.58,122.22,69.69,69.37,35.72,156.46,56.23,66.31,45.75,156.2-48,62.11-38.44,159.69C3633.77,2220,3609.58,2177.52,3609.58,2177.52Z"/><path class="cls-6" d="M3608.76,1696.12l2.84,32.26q1.46,16.13,3.05,32.24,3,32.24,6.58,64.42c2.42,21.44,4.79,42.89,7.43,64.31s5.29,42.84,8.17,64.22,5.81,42.77,8.92,64.13,6.36,42.69,9.62,64,6.77,42.63,10.41,63.91q2.64,16,5.45,31.92l5.7,31.84-3.47-15.78-3.32-15.85q-3.27-15.87-6.37-31.77-6.08-31.81-11.57-63.75c-3.72-21.28-7.06-42.62-10.35-64s-6.26-42.75-9.15-64.16-5.49-42.85-7.95-64.31-4.74-42.94-6.69-64.45-3.82-43-5.43-64.57q-1.14-16.15-2.12-32.32l-1-16.17Z"/><path class="cls-6" d="M3679.53,1774.33c-.26,0-.45.22-.64.38a6.88,6.88,0,0,0-.54.54c-.35.38-.68.77-1,1.17-.64.8-1.26,1.62-1.87,2.44-1.23,1.64-2.42,3.32-3.6,5q-3.54,5-7,10.12L3651,1814.32l-13.9,20.34-14,20.29-1.45,2.11-1.75-1.85c-5.22-5.53-10.51-11-15.71-16.54s-10.43-11.06-15.6-16.64l-15.51-16.71-7.74-8.38-3.9-4.17-2-2.06-1-1c-.17-.17-.34-.33-.52-.48s-.36-.36-.58-.37c.23,0,.42.19.62.31s.39.28.58.42l1.12.9,2.18,1.85c1.44,1.25,2.85,2.53,4.26,3.81,2.83,2.55,5.59,5.17,8.36,7.77q8.28,7.88,16.39,15.9c5.43,5.33,10.77,10.75,16.12,16.16s10.6,10.9,15.9,16.36l-3.2.26c4.65-6.78,9.39-13.49,14.11-20.22s9.57-13.38,14.47-20l7.38-9.88,7.53-9.78c2.56-3.23,5.12-6.45,7.76-9.61,1.33-1.58,2.66-3.14,4-4.68.7-.76,1.4-1.51,2.13-2.25.36-.36.73-.72,1.12-1.06.2-.17.39-.34.6-.49A1.25,1.25,0,0,1,3679.53,1774.33Z"/><path class="cls-6" d="M3691.69,1876.65c-4.28,8.33-8.71,16.58-13.13,24.83s-8.94,16.45-13.48,24.63-9.13,16.34-13.7,24.5l-13.9,24.39-1.35,2.36-1.92-1.92-20.37-20.37c-6.73-6.85-13.53-13.63-20.22-20.52s-13.4-13.77-20.07-20.68l-10-10.41-5-5.22c-1.66-1.74-3.29-3.51-5-5.18,3.69,3.08,7.24,6.33,10.79,9.56l10.6,9.78q10.51,9.86,20.92,19.82c7,6.62,13.8,13.35,20.7,20l20.51,20.24-3.26.44,14.1-24.27c4.76-8.06,9.48-16.14,14.31-24.16s9.65-16,14.52-24S3686.63,1884.53,3691.69,1876.65Z"/><path class="cls-6" d="M3580.18,2014.81c3.4,2.59,6.55,5.54,9.77,8.36s6.37,5.76,9.55,8.65c6.31,5.81,12.61,11.65,18.83,17.55s12.42,11.84,18.61,17.78l18.43,18-3.21.35,14.19-21.75c4.79-7.21,9.52-14.46,14.38-21.63s9.71-14.35,14.61-21.49,9.87-14.24,15-21.25c-4.31,7.52-8.78,14.94-13.24,22.37s-9,14.79-13.59,22.14-9.2,14.67-13.8,22l-14,21.87-1.39,2.17-1.82-1.81L3634.19,2070c-6-6.09-12.13-12.13-18.12-18.27s-12-12.26-18-18.41l-8.93-9.27-4.46-4.64-2.23-2.33A26.58,26.58,0,0,0,3580.18,2014.81Z"/><path class="cls-1" d="M3662.25,2346.15c-62.9-137,7.75-132.23,10.18-205.24s-17.6-142,29.89-172.06,39.57-74.95,63.37-137.06,120.66-9.66,102.49,33.8-38.84,76-15.33,113.75,41.2,80.91-13.66,147.57,30.27,74.36-4.78,150.22-60,40.7-79.66,129.08C3671.26,2390.36,3662.25,2346.15,3662.25,2346.15Z"/><path class="cls-6" d="M3800,1923.48l-3.44,14.56-3.52,14.53-3.52,14.53-3.29,14.59-6.71,29.13-6.29,29.23-3.14,14.61-3,14.65-6,29.28c-3.75,19.57-7.73,39.1-11.21,58.72-7.32,39.18-14,78.47-20.34,117.83-1.6,9.84-3.09,19.69-4.64,29.54l-4.41,29.57c-3,19.71-5.68,39.46-8.3,59.23q1.28-14.89,2.92-29.77c1.05-9.92,2.22-19.82,3.36-29.73l3.82-29.68c1.36-9.88,2.67-19.77,4.08-29.64s2.85-19.75,4.38-29.6l4.7-29.55c3.33-19.67,6.66-39.35,10.33-59s7.56-39.17,11.46-58.74l6.28-29.26,3.16-14.63,3.42-14.56,6.86-29.13,7.29-29,3.74-14.49,4-14.42,4-14.42Z"/><path class="cls-6" d="M3839.59,2012.47a2.6,2.6,0,0,0-1.3.47c-.41.24-.81.49-1.21.75-.79.51-1.56,1.06-2.33,1.61-1.55,1.1-3.07,2.22-4.59,3.36-3,2.28-6,4.57-9,6.9l-18,13.89-18,13.87L3767,2067.1h0a2.06,2.06,0,0,1-2.89-.39,2.26,2.26,0,0,1-.22-.37c-3-6.35-6.06-12.66-9-19s-6-12.71-8.88-19.1l-8.76-19.15-4.36-9.59-2.2-4.78-1.12-2.39-.6-1.17-.32-.57c-.12-.17-.2-.42-.4-.5.21.06.33.3.47.45l.38.54.73,1.11,1.39,2.24c.91,1.51,1.79,3,2.67,4.56,1.75,3,3.43,6.14,5.13,9.22,3.34,6.18,6.64,12.39,9.85,18.64s6.37,12.52,9.52,18.8,6.17,12.62,9.25,18.93l-3.12-.75c6-4.62,12.13-9.14,18.21-13.68s12.24-9,18.45-13.35l9.34-6.54,9.43-6.39c3.18-2.09,6.36-4.17,9.59-6.17,1.63-1,3.26-2,4.91-2.93.83-.46,1.66-.92,2.52-1.35.42-.21.86-.42,1.29-.6A2.71,2.71,0,0,1,3839.59,2012.47Z"/><path class="cls-6" d="M3820.83,2105.75c-6.13,6.11-12.37,12.09-18.61,18.07s-12.55,11.89-18.89,17.77-12.69,11.72-19,17.58l-19.2,17.41a2.07,2.07,0,0,1-2.93-.15,2.26,2.26,0,0,1-.31-.45l-12-23.74c-3.92-7.95-7.94-15.86-11.81-23.84s-7.77-15.94-11.62-23.93l-5.71-12-2.84-6c-1-2-1.86-4-2.88-6,2.37,3.76,4.55,7.63,6.75,11.48l6.52,11.61q6.42,11.66,12.7,23.39c4.22,7.8,8.29,15.68,12.43,23.52l12.18,23.66-3.24-.6,19.37-17.23c6.5-5.7,13-11.43,19.52-17.07s13.1-11.27,19.68-16.87S3814.1,2111.19,3820.83,2105.75Z"/><path class="cls-1" d="M3710.29,2375.3c24.64-148.74-42.26-125.54-63.81-195.33s-20.38-141.67-74.1-158.14-57.89-61.91-97.19-115.57-118.94,22.43-90,59.58,57.48,63.14,44.72,105.7-18.47,88.9,52,138.78S3472.27,2290,3526,2354s68.59,23.48,110.81,103.57C3713.23,2420.32,3710.29,2375.3,3710.29,2375.3Z"/><path class="cls-6" d="M3466.23,2003.75l7.84,12.74,7.77,12.78,7.74,12.82,7.5,12.94,14.88,26c4.86,8.71,9.58,17.5,14.38,26.25l7.17,13.14,6.94,13.26,13.83,26.55c8.94,17.84,17.94,35.66,26.57,53.65,4.31,9,8.66,18,12.83,27s8.48,18.06,12.6,27.15l12.24,27.32c4.05,9.12,8,18.28,11.94,27.45,15.7,36.68,30.7,73.69,44.12,111.27q-23.85-54.88-48.7-109.25l-12.48-27.16-12.63-27.08c-8.52-18-16.93-36.08-25.7-54-8.5-18-17.46-35.81-26.2-53.72l-13.4-26.7-6.71-13.36-6.83-13.29L3508.28,2083l-13.94-26.44-6.92-13.25-7.12-13.15-7.07-13.18Z"/><path class="cls-6" d="M3451.42,2100a2.77,2.77,0,0,1,1.43-.09c.47,0,1,.12,1.42.21.94.16,1.88.36,2.81.56,1.87.43,3.71.91,5.56,1.4,3.68,1,7.32,2.1,11,3.2l10.86,3.51c3.6,1.21,7.18,2.48,10.77,3.73s7.16,2.55,10.72,3.87l10.67,4q10.65,4.08,21.2,8.37l-4.35,2.39c1.28-6.91,2.6-13.81,4-20.69s2.84-13.76,4.43-20.61,3.19-13.7,4.91-20.53c.91-3.4,1.77-6.81,2.76-10.2.49-1.69,1-3.38,1.5-5.07l.83-2.52c.14-.41.29-.83.45-1.25l.25-.61c.1-.19.16-.44.36-.55-.17.13-.17.39-.24.59l-.13.64-.22,1.3-.39,2.61-.73,5.22-1.45,10.44c-1,7-2,13.91-3.1,20.84s-2.22,13.86-3.36,20.79-2.37,13.84-3.61,20.74a3.19,3.19,0,0,1-3.7,2.58,3.62,3.62,0,0,1-.61-.17l0,0q-10.55-4.23-21.06-8.58l-10.49-4.39c-3.5-1.46-7-2.91-10.48-4.42l-10.46-4.46-10.44-4.5c-3.47-1.53-7-3-10.45-4.5-1.74-.75-3.49-1.48-5.25-2.17-.88-.36-1.76-.71-2.65-1-.45-.16-.89-.31-1.35-.44A2.59,2.59,0,0,0,3451.42,2100Z"/><path class="cls-6" d="M3494.06,2185.08c8,3.25,15.94,6.76,23.86,10.25s15.76,7.12,23.57,10.81,15.61,7.43,23.41,11.16,15.52,7.61,23.24,11.47l-4.57,2.21q2.71-13,5.59-26l3-13,1.48-6.49,1.55-6.47c1.05-4.31,2.06-8.63,3.14-12.93l3.28-12.91c1.16-4.29,2.27-8.58,3.47-12.86s2.38-8.57,3.81-12.79c-.38,2.19-.7,4.39-1,6.59l-1,6.58-2.11,13.15-2.24,13.12-2.36,13.09-1.19,6.55-1.25,6.53-2.5,13.06q-2.58,13-5.3,26.07h0a3.19,3.19,0,0,1-3.78,2.48,3.36,3.36,0,0,1-.79-.28q-11.57-5.84-23.08-11.81c-7.64-4-15.33-8-22.92-12.12s-15.19-8.25-22.74-12.46S3501.47,2189.58,3494.06,2185.08Z"/><path class="cls-6" d="M3650.26,2234.91c-.44,1.9-.68,3.89-1,5.85l-.92,5.87-1.91,11.75c-1.33,7.81-2.68,15.62-4.14,23.41s-3,15.56-4.47,23.34-3.16,15.52-4.79,23.27a3.21,3.21,0,0,1-3.79,2.47,3.43,3.43,0,0,1-.64-.21q-11-4.83-21.89-9.8l-10.89-5-5.44-2.52-5.41-2.59c-3.6-1.73-7.23-3.42-10.82-5.19l-10.76-5.31c-7.14-3.62-14.29-7.23-21.32-11.1,7.61,2.56,15.09,5.39,22.59,8.21l11.19,4.34c3.73,1.45,7.43,3,11.14,4.46l5.56,2.24,5.54,2.3,11.07,4.62q11.05,4.66,22,9.51l-4.42,2.26c1.67-7.74,3.36-15.48,5.15-23.2s3.56-15.44,5.52-23.12,3.9-15.37,5.95-23c1.08-3.82,2.11-7.65,3.24-11.46S3648.8,2238.59,3650.26,2234.91Z"/><polygon class="cls-8" points="3863.63 2279.89 3853.7 2279.89 3492.6 2279.89 3482.67 2279.89 3482.67 2321.91 3492.6 2321.91 3492.6 2660 3853.7 2660 3853.7 2321.91 3863.63 2321.91 3863.63 2279.89"/><g class="cls-4"><path d="M3853.69,2412.17V2660h-361.1v-92.78C3606.1,2585.69,3684,2569.41,3853.69,2412.17Z"/></g><path class="cls-12" d="M2187.7,1572.44H2462a35.68,35.68,0,0,1,30,16.39L2617,1783.35H2781.1a16.69,16.69,0,0,1,16.69,16.69v17.51H2323.87l-146-227.11A11.68,11.68,0,0,1,2187.7,1572.44Z"/><g class="cls-5"><path d="M2467.3,1590.44l146,227.11h184.49V1800a16.69,16.69,0,0,0-16.68-16.7H2617l-125-194.51a35.69,35.69,0,0,0-20.33-15A11.7,11.7,0,0,0,2467.3,1590.44Z"/></g><rect class="cls-8" x="2274.34" y="1841.66" width="28.58" height="816.73"/><rect class="cls-1" x="1901.51" y="1817.85" width="927.74" height="47.63"/><rect class="cls-8" x="2720.25" y="1841.66" width="28.58" height="816.73"/><rect class="cls-8" x="3023.16" y="1841.66" width="28.58" height="816.73"/><rect class="cls-8" x="1971.42" y="1841.66" width="28.58" height="816.73"/><rect class="cls-26" x="2795.61" y="1817.85" width="337.12" height="47.63"/><path class="cls-1" d="M2070.06,1807.62a8.09,8.09,0,0,1-8-6.86L2033,1612.42a8.09,8.09,0,1,1,16-2.47l29.12,188.34a8.1,8.1,0,0,1-6.76,9.24A8.86,8.86,0,0,1,2070.06,1807.62Z"/><path class="cls-1" d="M2004,1603.07c7.94,13.81,15.6,27.76,23.28,41.7l11.38,21,11.16,21.07c3.7,7,7.68,13.94,11.56,20.88a188.22,188.22,0,0,1,10.25,21.51q4.44,11.07,8,22.56a171.89,171.89,0,0,1,5.74,23.63l-1.47.7a173.26,173.26,0,0,1-14.61-19.45q-6.62-10-12.32-20.52a189,189,0,0,1-10.1-21.58c-2.9-7.41-5.71-14.87-8.79-22.2l-9.18-22-9-22.11c-5.88-14.78-11.79-29.55-17.41-44.46Z"/><rect class="cls-27" x="2071.33" y="1552.95" width="32.09" height="224.56" transform="translate(3898.97 3626.92) rotate(-171.3)"/><rect class="cls-13" x="2020.41" y="1665.23" width="99.05" height="152.32" transform="translate(4139.87 3482.78) rotate(180)"/><path class="cls-27" d="M2011.35,1843.34a1,1,0,0,0,1.13-.63C2011.19,1843,2010.76,1843.19,2011.35,1843.34Z"/><path class="cls-28" d="M2020.41,1773.55v44h99V1703C2083.62,1753.09,2042.86,1768.69,2020.41,1773.55Z"/><ellipse class="cls-2" cx="2383.87" cy="1712.28" rx="17.18" ry="26.78" transform="translate(-348.07 2785.25) rotate(-57.13)"/><rect class="cls-29" x="1781.8" y="839.55" width="326.07" height="4.09"/><rect class="cls-29" x="1794.26" y="779.14" width="30.2" height="60.41"/><rect class="cls-29" x="1847.92" y="751.94" width="30.2" height="87.61"/><rect class="cls-29" x="1900.81" y="728.06" width="30.2" height="111.49"/><rect class="cls-29" x="1954.69" y="760.68" width="30.2" height="78.87"/><rect class="cls-29" x="2005.34" y="690.93" width="30.2" height="148.62"/><rect class="cls-29" x="2059.22" y="710.04" width="30.2" height="129.5"/><polygon class="cls-1" points="1805.58 740.53 1801.48 733.11 1860.5 700.49 1916.3 647.82 1962.55 671.87 2019.42 607.06 2075.04 650.57 2090.86 639.9 2095.61 646.93 2073.59 661.78 2021.46 622.24 1964.39 687.44 1915.53 660.21 1865.54 707.4 1805.58 740.53"/><polygon class="cls-1" points="2097.12 655.59 2107.87 633.54 2083.4 635.25 2097.12 655.59"/></g></svg>