<?xml version="1.0" encoding="UTF-8"?>
<svg xmlns="http://www.w3.org/2000/svg" version="1.1" viewBox="0 0 64 64">
  <!-- Generator: Adobe Illustrator 28.7.1, SVG Export Plug-In . SVG Version: 1.2.0 Build 142)  -->
  <g>
    <g id="Glyph">
      <g>
        <path d="M18,37c-.55127,0-1,.44824-1,1v2h2v-2c0-.55176-.44873-1-1-1Z" fill="#010101"/>
        <path d="M25,37h-1v6h1c.55127,0,1-.44824,1-1v-4c0-.55176-.44873-1-1-1Z" fill="#010101"/>
        <path d="M39.20001,37.46997l-3.91003-4.71997-1.35998.72998c-1.43623.77091-3.29407.23907-4.06-1.21002l-1.77002-3.26996H8c-.54999,0-1,.45001-1,1v18c0,.54999.45001,1,1,1h34c.54999,0,1-.45001,1-1v-8.73999c-1.47998-.01001-2.85999-.66003-3.79999-1.79004ZM21,44c0,.55273-.44775,1-1,1s-1-.44727-1-1v-2h-2v2c0,.55273-.44775,1-1,1s-1-.44727-1-1v-6c0-1.6543,1.3457-3,3-3s3,1.3457,3,3v6ZM28,42c0,1.6543-1.3457,3-3,3h-2c-.55225,0-1-.44727-1-1v-8c0-.55273.44775-1,1-1h2c1.6543,0,3,1.3457,3,3v4ZM32,39c1.6543,0,3,1.3457,3,3s-1.3457,3-3,3-3-1.3457-3-3c0-.55273.44775-1,1-1s1,.44727,1,1c0,.55176.44873,1,1,1s1-.44824,1-1-.44873-1-1-1c-1.6543,0-3-1.3457-3-3s1.3457-3,3-3,3,1.3457,3,3c0,.55273-.44775,1-1,1s-1-.44727-1-1c0-.55176-.44873-1-1-1s-1,.44824-1,1,.44873,1,1,1Z" fill="#010101"/>
        <path d="M31.62793,31.32031c.26126.48353.87391.66321,1.35498.4043l6.15857-3.32733-4.75275-8.79761-6.15826,3.32709c-.48633.2627-.66699.86914-.40479,1.35547,0,0,3.79077,7.01684,3.80225,7.03809Z" fill="#010101"/>
        <polygon points="35.96002 18.31 41.09003 27.78998 51.46997 25.96997 43.17999 10.62 35.96002 18.31" fill="#010101"/>
        <path d="M56.87988,23.36133l-8.55518-15.83691c-.12598-.2334-.33984-.40723-.59375-.48242-.25391-.07617-.52832-.04688-.76123.07812l-1.75977.95068c-.4859.26245-.66699.86914-.40448,1.35504l8.55493,15.83698c.26245.48596.8692.66705,1.3551.40454l1.75977-.95068c.48602-.26257.66711-.86938.4046-1.35535Z" fill="#010101"/>
        <path d="M42.89001,29.5l-2.35004.40997-3.45996,1.87,3.65997,4.41003c.8646,1.04179,2.45884,1.39149,3.69.71997.78003-.42999,1.33002-1.16998,1.5-2.04999.16998-.87-.06-1.76001-.63-2.45001l-2.40997-2.90997Z" fill="#010101"/>
        <path d="M8,51c-.55225,0-1,.44727-1,1v4c0,.55273.44775,1,1,1s1-.44727,1-1v-4c0-.55273-.44775-1-1-1Z" fill="#010101"/>
        <path d="M12,51c-.55225,0-1,.44727-1,1v4c0,.55273.44775,1,1,1s1-.44727,1-1v-4c0-.55273-.44775-1-1-1Z" fill="#010101"/>
        <path d="M42,53h-16.18427c-.41412-1.1615-1.51379-2-2.81573-2s-2.40161.8385-2.81573,2h-4.18427c-.55225,0-1,.44727-1,1s.44775,1,1,1h4.18433c.41412,1.1615,1.51373,2,2.81567,2s2.40161-.8385,2.81573-2h16.18427c.55225,0,1-.44727,1-1s-.44775-1-1-1Z" fill="#010101"/>
      </g>
    </g>
  </g>
</svg>