<?xml version="1.0" encoding="UTF-8"?>
<svg xmlns="http://www.w3.org/2000/svg" version="1.1" viewBox="0 0 64 64">
  <!-- Generator: Adobe Illustrator 28.7.1, SVG Export Plug-In . SVG Version: 1.2.0 Build 142)  -->
  <g>
    <g id="Glyph">
      <g>
        <path d="M27,41h10c4.96289,0,9-4.03711,9-9s-4.03711-9-9-9h-10c-4.96289,0-9,4.03711-9,9s4.03711,9,9,9ZM34,27h3c2.75684,0,5,2.24316,5,5s-2.24316,5-5,5h-3c-.55273,0-1-.44727-1-1s.44727-1,1-1h3c1.6543,0,3-1.3457,3-3s-1.3457-3-3-3h-3c-.55273,0-1-.44727-1-1s.44727-1,1-1ZM27,33c-.55273,0-1-.44727-1-1s.44727-1,1-1h10c.55273,0,1,.44727,1,1s-.44727,1-1,1h-10ZM27,27h3c.55273,0,1,.44727,1,1s-.44727,1-1,1h-3c-1.6543,0-3,1.3457-3,3s1.3457,3,3,3h3c.55273,0,1,.44727,1,1s-.44727,1-1,1h-3c-2.75684,0-5-2.24316-5-5s2.24316-5,5-5Z" fill="#010101"/>
        <path d="M20,24.05048v-3.05048c0-2.20605-1.79395-4-4-4s-4,1.79395-4,4v3.05042c1.20679.60211,2.56207.94958,4,.94958s2.79321-.34741,4-.94952Z" fill="#010101"/>
        <circle cx="16" cy="14" r="1" fill="#010101"/>
        <path d="M10,22.68933v-1.68933c0-2.3988,1.41809-4.46716,3.45709-5.42664-.28491-.45874-.45709-.99475-.45709-1.57336,0-1.6543,1.3457-3,3-3s3,1.3457,3,3c0,.57861-.17218,1.11462-.45709,1.57336,2.039.95947,3.45709,3.02783,3.45709,5.42664v1.68933c1.83636-1.6488,3-4.03271,3-6.68933,0-4.96289-4.03711-9-9-9s-9,4.03711-9,9c0,2.65662,1.16364,5.04053,3,6.68933Z" fill="#010101"/>
        <circle cx="48" cy="14" r="1" fill="#010101"/>
        <path d="M52,24.05048v-3.05048c0-2.20605-1.79395-4-4-4s-4,1.79395-4,4v3.05042c1.20679.60211,2.56207.94958,4,.94958s2.79321-.34741,4-.94952Z" fill="#010101"/>
        <path d="M42,22.68933v-1.68933c0-2.3988,1.41809-4.46716,3.45709-5.42664-.28491-.45874-.45709-.99475-.45709-1.57336,0-1.6543,1.3457-3,3-3s3,1.3457,3,3c0,.57861-.17218,1.11462-.45709,1.57336,2.039.95947,3.45709,3.02783,3.45709,5.42664v1.68933c1.83636-1.6488,3-4.03271,3-6.68933,0-4.96289-4.03711-9-9-9s-9,4.03711-9,9c0,2.65662,1.16364,5.04053,3,6.68933Z" fill="#010101"/>
        <path d="M16,49c-2.20605,0-4,1.79395-4,4v3.05042c1.20679.60211,2.56207.94958,4,.94958s2.79321-.34741,4-.94952v-3.05048c0-2.20605-1.79395-4-4-4Z" fill="#010101"/>
        <path d="M16,39c-4.96289,0-9,4.03711-9,9,0,2.65662,1.16364,5.04053,3,6.68933v-1.68933c0-2.3988,1.41809-4.46716,3.45709-5.42664-.28491-.45874-.45709-.99475-.45709-1.57336,0-1.6543,1.3457-3,3-3s3,1.3457,3,3c0,.57861-.17218,1.11462-.45709,1.57336,2.039.95947,3.45709,3.02783,3.45709,5.42664v1.68933c1.83636-1.6488,3-4.03271,3-6.68933,0-4.96289-4.03711-9-9-9Z" fill="#010101"/>
        <circle cx="16" cy="46" r="1" fill="#010101"/>
        <circle cx="48" cy="46" r="1" fill="#010101"/>
        <path d="M48,49c-2.20605,0-4,1.79395-4,4v3.05042c1.20679.60211,2.56207.94958,4,.94958s2.79321-.34741,4-.94952v-3.05048c0-2.20605-1.79395-4-4-4Z" fill="#010101"/>
        <path d="M48,39c-4.96289,0-9,4.03711-9,9,0,2.65662,1.16364,5.04053,3,6.68933v-1.68933c0-2.3988,1.41809-4.46716,3.45709-5.42664-.28491-.45874-.45709-.99475-.45709-1.57336,0-1.6543,1.3457-3,3-3s3,1.3457,3,3c0,.57861-.17218,1.11462-.45709,1.57336,2.039.95947,3.45709,3.02783,3.45709,5.42664v1.68933c1.83636-1.6488,3-4.03271,3-6.68933,0-4.96289-4.03711-9-9-9Z" fill="#010101"/>
        <path d="M32,52c-1.88,0-3.71002-.26001-5.47998-.77002-.20001.65002-.46002,1.27002-.77002,1.85999,2.01001.61005,4.09998.91003,6.25.91003s4.23999-.29999,6.25-.91003c-.31-.58997-.57001-1.20996-.77002-1.85999-1.76996.51001-3.59998.77002-5.47998.77002Z" fill="#010101"/>
        <path d="M32,12c1.88,0,3.71002.26001,5.47998.76996.20001-.64996.46002-1.26996.77002-1.85999-2.01001-.60999-4.09998-.90997-6.25-.90997s-4.23999.29999-6.25.90997c.31.59003.57001,1.21002.77002,1.85999,1.76996-.50995,3.59998-.76996,5.47998-.76996Z" fill="#010101"/>
        <path d="M53.09003,38.25c.60999-2.01001.90997-4.10004.90997-6.25s-.29999-4.23999-.90997-6.25c-.59003.31-1.21002.57001-1.86005.76996.51001,1.77002.77002,3.60004.77002,5.48004s-.26001,3.70996-.77002,5.47998c.65002.20001,1.27002.46002,1.86005.77002Z" fill="#010101"/>
        <path d="M10.90997,25.75c-.60999,2.01001-.90997,4.09998-.90997,6.25s.29999,4.23999.90997,6.25c.59003-.31,1.21002-.57001,1.86005-.77002-.51001-1.77002-.77002-3.59998-.77002-5.47998s.26001-3.71002.77002-5.48004c-.65002-.19995-1.27002-.45996-1.86005-.76996Z" fill="#010101"/>
      </g>
    </g>
  </g>
</svg>