<?xml version="1.0" encoding="UTF-8"?>
<svg xmlns="http://www.w3.org/2000/svg" version="1.1" viewBox="0 0 64 64">
  <!-- Generator: Adobe Illustrator 28.7.1, SVG Export Plug-In . SVG Version: 1.2.0 Build 142)  -->
  <g>
    <g id="Glyph">
      <g>
        <polygon points="35.96002 18.31 41.09003 27.78998 51.46997 25.96997 43.17999 10.62 35.96002 18.31" fill="#010101"/>
        <path d="M34.38879,19.59961l-6.15833,3.32715c-.48633.2627-.66699.86914-.40479,1.35547l3.80225,7.03809c.24912.46114.86536.66781,1.35498.4043l6.15845-3.32721-4.75256-8.79779Z" fill="#010101"/>
        <path d="M56.87988,23.36133l-8.55518-15.83691c-.12598-.2334-.33984-.40723-.59375-.48242-.25391-.07617-.52734-.04688-.76123.07812l-1.75983.95068c-.4859.26251-.66705.86926-.40454,1.35516l8.55542,15.83673c.26245.4859.8692.66699,1.3551.40448l1.7594-.9505c.48602-.26257.66711-.86938.4046-1.35535Z" fill="#010101"/>
        <path d="M27.28003,21.16998l6.60999-3.57001.31311-.33429c-2.14819-2.01868-5.02972-3.26569-8.20312-3.26569-6.6167,0-12,5.38281-12,12s5.3833,12,12,12c3.93811,0,7.42847-1.91528,9.6178-4.85425l-.32782-.39575-1.35999.72998c-.43999.23998-.92997.35998-1.41996.35999-1.08915,0-2.12212-.61222-2.64004-1.57001l-3.79999-7.03998c-.78998-1.45001-.23999-3.27997,1.21002-4.06Z" fill="#010101"/>
        <path d="M39.20001,37.46997l-2.27173-2.74231c-2.56763,3.2085-6.50873,5.27234-10.92828,5.27234-7.71973,0-14-6.28027-14-14s6.28027-14,14-14c3.70142,0,7.06226,1.45416,9.56824,3.80817l2.90173-3.09821c-.14996-.19-.28998-.38995-.40997-.59998-1.23999-2.15997-3.57001-3.5-6.06-3.5-.88,0-1.73999-.22998-2.5-.66998-2.15997-1.25-4.84003-1.25-7,0-.76001.44-1.62.66998-2.5.66998-2.48999,0-4.82001,1.34003-6.06,3.5-.44.76001-1.07001,1.39001-1.83002,1.83002-2.15997,1.23999-3.5,3.57001-3.5,6.06,0,.88-.22998,1.73999-.66998,2.5-1.25,2.15997-1.25,4.83997,0,7,.44.76001.66998,1.62.66998,2.5,0,2.48999,1.34003,4.82001,3.5,6.06.76001.44,1.39001,1.07001,1.83002,1.83002,1.23999,2.15997,3.57001,3.5,6.06,3.5.88,0,1.73999.22998,2.5.66998,1.08002.63,2.28998.94,3.5.94s2.41998-.31,3.5-.94c.76001-.44,1.62-.66998,2.5-.66998,2.48999,0,4.82001-1.34003,6.06-3.5.42999-.74005,1.03998-1.36005,1.78003-1.79004-.23004-.17999-.44-.39996-.64001-.63Z" fill="#010101"/>
        <path d="M20,45.39001c-.34003,0-.66998-.02002-1-.06006v10.66955c0,.68688.67906,1.15722,1.32001.95051l4.67999-1.56549v-8.45068c-1.23175-.13861-2.42853-.52148-3.5-1.14386-.46002-.26001-.96997-.39996-1.5-.39996Z" fill="#010101"/>
        <path d="M30.5,45.78998c-1.07147.62238-2.26825,1.00525-3.5,1.14386,0,0,0,8.45068.00037,8.45081.94283.31543,5.99963,2.99313,5.99963.61535v-10.67004c-.33002.04004-.65997.06006-1,.06006-.53003,0-1.03998.13995-1.5.39996Z" fill="#010101"/>
        <path d="M35,50.62l1.45001-.72998c.33997-.17004.54999-.51001.54999-.89001v-5.13c-.62.41998-1.28998.75-2,1v5.75Z" fill="#010101"/>
        <path d="M15,49c0,.38.21002.71997.54999.89001l1.45001.72998v-5.75c-.71002-.25-1.38-.59003-2-1.01001v5.14001Z" fill="#010101"/>
        <path d="M42.89001,29.5l-2.35004.40997-3.45996,1.87,3.65997,4.41003c.88341,1.06446,2.4711,1.38473,3.68991.72002,1.61091-.87855,2.03637-3.08825.87009-4.50005l-2.40997-2.90997Z" fill="#010101"/>
      </g>
    </g>
  </g>
</svg>