<?xml version="1.0" encoding="UTF-8"?>
<svg xmlns="http://www.w3.org/2000/svg" version="1.1" viewBox="0 0 64 64">
  <!-- Generator: Adobe Illustrator 28.7.1, SVG Export Plug-In . SVG Version: 1.2.0 Build 142)  -->
  <g>
    <g id="Glyph">
      <g>
        <path d="M56.04102,26.00098c-2.42285-.09961-3.87109-2.13818-3.87109-4.05078,0-1.00342.37207-1.93848,1.07568-2.70312.36279-.39453.35059-1.00488-.02832-1.38379l-7.06982-7.07959c-.36475-.36475-1.01416-.37842-1.39453-.0293-1.18457,1.09131-2.78027,1.37646-4.26855.75928-1.48828-.61572-2.41748-1.94482-2.48535-3.55566-.02246-.53564-.46289-.95801-.99902-.95801h-10c-.53613,0-.97705.42285-.99902.95898-.09961,2.42285-2.13818,3.87109-4.05078,3.87109-1.00342,0-1.93848-.37207-2.70312-1.07568-.37988-.34961-1.03027-.33643-1.39453.0293l-7.06982,7.07959c-.37891.37891-.39111.98926-.02832,1.38379.70361.76465,1.07568,1.69971,1.07568,2.70312,0,1.9126-1.44824,3.95117-3.87109,4.05078-.53613.02197-.95898.46289-.95898.99902v5c0,.55225.44775,1,1,1h11c.55225,0,1-.44775,1-1,0-6.6167,5.3833-12,12-12s12,5.3833,12,12c0,.55225.44775,1,1,1h11c.55225,0,1-.44775,1-1v-5c0-.53613-.42285-.97705-.95898-.99902Z" fill="#010101"/>
        <polygon points="30 35.1958 35.11328 32 30 28.8042 30 35.1958" fill="#010101"/>
        <path d="M53,48h-3v-3c0-.55225-.44775-1-1-1h-16v-2.05066c5.04633-.50342,9-4.77271,9-9.94934,0-5.51416-4.48584-10-10-10s-10,4.48584-10,10c0,5.17664,3.95367,9.44592,9,9.94934v2.05066H15c-.55225,0-1,.44775-1,1v3h-3c-.55225,0-1,.44775-1,1v7c0,.55225.44775,1,1,1h8c.55225,0,1-.44775,1-1v-7c0-.55225-.44775-1-1-1h-3v-2h15v2h-3c-.55225,0-1,.44775-1,1v7c0,.55225.44775,1,1,1h8c.55225,0,1-.44775,1-1v-7c0-.55225-.44775-1-1-1h-3v-2h15v2h-3c-.55225,0-1,.44775-1,1v7c0,.55225.44775,1,1,1h8c.55225,0,1-.44775,1-1v-7c0-.55225-.44775-1-1-1ZM29.00025,37.99367c-.50957-.00874-1.00025-.40324-1.00025-.99367v-9.99992c0-.77523.87181-1.25984,1.52979-.84822l7.99993,4.99995c.58638.36649.6302,1.30185.00007,1.69633l-8,5c-.16476.10297-.34834.14864-.52953.14553Z" fill="#010101"/>
      </g>
    </g>
  </g>
</svg>