<?xml version="1.0" encoding="UTF-8"?>
<svg xmlns="http://www.w3.org/2000/svg" version="1.1" viewBox="0 0 64 64">
  <!-- Generator: Adobe Illustrator 28.7.1, SVG Export Plug-In . SVG Version: 1.2.0 Build 142)  -->
  <g>
    <g id="Glyph">
      <g>
        <path d="M52.12598,38.1084c-.52441-.18945-1.09277.08496-1.27734.60547-2.71692,7.61365-9.78516,12.81976-17.79333,13.24457l1.54431-1.15863c.44238-.33105.53223-.95801.2002-1.39941-.33105-.44336-.95801-.53125-1.39941-.2002l-3.89801,2.92352c-.00842.00671-.01709.01202-.02529.019-.28195.2113-.47709.4919-.47709.85729,0,.31445.14844.61133.40039.7998,0,0,4,3,4.00003,3.00002.4384.32878,1.07184.23815,1.39939-.20022.33203-.44141.24219-1.06836-.2002-1.39941l-1.64966-1.23761c8.89539-.38623,16.77045-6.13593,19.78149-14.57684.18555-.52051-.08496-1.0918-.60547-1.27734Z" fill="#010101"/>
        <path d="M11.87428,25.89169c.51317.1844,1.09342-.09086,1.27709-.60556,2.71692-7.61365,9.78516-12.81976,17.79333-13.24457l-1.54431,1.15863c-.44236.33104-.53222.95795-.20024,1.39935.31816.42303.95789.53143,1.39946.20026l3.91636-2.93727c.28473-.21355.48403-.49123.48403-.86254,0-.31445-.14844-.61133-.40039-.7998l-4-3c-.44141-.33105-1.06738-.24219-1.39941.2002-.33203.44141-.24219,1.06836.2002,1.39941l1.64966,1.23761c-8.89539.38623-16.77045,6.13593-19.78149,14.57684-.18555.52051.08496,1.0918.60572,1.27744Z" fill="#010101"/>
        <path d="M25.28613,50.84863c-7.61365-2.71692-12.81976-9.78516-13.24457-17.79333l1.15863,1.54431c.32828.43756.96395.5268,1.39941.2002.44238-.33105.53223-.95801.2002-1.39941l-3-4c-.37695-.50391-1.22266-.50391-1.59961,0l-3,4c-.33203.44141-.24219,1.06836.2002,1.39941.44238.33203,1.06836.24316,1.39941-.2002l1.23761-1.64966c.38623,8.89538,6.13592,16.77044,14.57683,19.78149.49398.17621,1.09332-.08919,1.27736-.60546.18555-.52051-.08496-1.0918-.60547-1.27734Z" fill="#010101"/>
        <path d="M56.59961,29.2002c-.44141-.33105-1.06738-.24219-1.39941.2002l-1.23761,1.64966c-.38623-8.89539-6.13593-16.77045-14.57684-19.78149-.52246-.19043-1.09277.08496-1.27734.60547-.18555.52051.08496,1.0918.60547,1.27734,7.61365,2.71692,12.81976,9.78516,13.24457,17.79333l-1.15863-1.54431c-.33105-.44336-.95898-.53223-1.39941-.2002-.44238.33105-.53223.95801-.2002,1.39941l3,4c.18848.25195.48535.40039.7998.40039s.61133-.14844.7998-.40039l3-4c.33203-.44141.24219-1.06836-.2002-1.39941Z" fill="#010101"/>
        <path d="M30.39453,24.44727c-.47852.95801-1.44141,1.55273-2.5127,1.55273h-1.07324c-.44629,0-.80859.3623-.80859.80859v3.80438l1.29102-.43036.81445-1.62988c.09668-.19336.25391-.35059.44727-.44727l2-1c.28125-.14062.61328-.14062.89453,0l1.55273.77637,1.55273-.77637c.25976-.12988.56055-.14062.83008-.0293.26758.11133.47461.33301.56543.60742l.84277,2.52539,1.20898.40344v-4.61243c0-1.10254-.89746-2-2-2h-4.88184c-.30859,0-.58594.1709-.72363.44727Z" fill="#010101"/>
        <path d="M35.05176,31.31641l-.63574-1.90625-.96875.48438c-.28125.14062-.61328.14062-.89453,0l-1.55273-.77637-1.25488.62695-.85059,1.70215c-.11914.2373-.32715.41797-.57812.50098l-2.31641.77216v1.2796c0,3.30859,2.69141,6,6,6s6-2.69141,6-6v-1.2796l-2.31641-.77216c-.29883-.09863-.5332-.33301-.63184-.63184Z" fill="#010101"/>
        <path d="M17,32c0,8.27148,6.72852,15,15,15s15-6.72852,15-15-6.72852-15-15-15-15,6.72852-15,15ZM40,26v8c0,4.41113-3.58887,8-8,8s-8-3.58887-8-8v-7.19141c0-1.54883,1.25977-2.80859,2.80859-2.80859h1.07324c.30859,0,.58594-.1709.72363-.44727.47852-.95801,1.44141-1.55273,2.5127-1.55273h4.88184c2.20605,0,4,1.79395,4,4Z" fill="#010101"/>
      </g>
    </g>
  </g>
</svg>