<?xml version="1.0" encoding="UTF-8"?>
<svg xmlns="http://www.w3.org/2000/svg" version="1.1" viewBox="0 0 64 64">
  <!-- Generator: Adobe Illustrator 28.7.1, SVG Export Plug-In . SVG Version: 1.2.0 Build 142)  -->
  <g>
    <g id="Glyph">
      <g>
        <path d="M56.76479,25.37379c-.1836-.22468-.45882-.37378-.76479-.37379h-7v3c0,1.64996-1.34998,3-3,3h-4c-1.22998,0-2.28003-.73999-2.75-1.79999l-7.27002-2.59003.48999,2.46002c.60019,3.01329-1.79468,5.93-4.85998,5.93-2.35999,0-4.39996-1.67999-4.87-3.98999l-1.20001-6.01001h-7.53998c-.47998,0-.89001.33997-.97998.79999l-6,30c-.06.29999.01996.59998.20996.83002.19.23999.47003.37.77002.37h42c.47998,0,.89001-.34003.97998-.79999,0,0,5.96767-29.83834,5.99987-29.99935.06043-.30217-.03153-.60228-.21506-.82688ZM52.60742,30.79443l-14.89716,11.38153,9.00165,9.1214c.38765.39351.38379,1.02622-.00963,1.41441-.3905.38531-1.02949.38134-1.4142-.00914l-9.1803-9.30243-3.37341,2.57733c-.18066.13818-.39453.20557-.60742.20557-.26855,0-.53613-.1084-.73242-.31885l-2.85034-3.06348s-16.01294,10.04639-16.01297,10.04641c-.46564.29203-1.08689.14908-1.3779-.31594-.29395-.46777-.15234-1.08496.31543-1.37842l15.68842-9.84277-9.88959-10.62891c-.37598-.4043-.35352-1.03711.05078-1.41309.40527-.37549,1.03711-.354,1.41406.05078l13.50879,14.51855,19.15137-14.63184c.44043-.33496,1.06641-.25146,1.40234.1875.33496.43848.25098,1.06641-.1875,1.40137Z" fill="#010101"/>
        <path d="M24.70001,30.62c.27996,1.37997,1.49994,2.37995,2.90986,2.38,1.83592.00007,3.2735-1.73534,2.90013-3.54004l-.72998-3.63995-2.30005-.82001h-3.89996l1.12,5.62Z" fill="#010101"/>
        <polygon points="41 8.29529 29 12.58099 29 23.41901 41 27.70471 41 8.29529" fill="#010101"/>
        <path d="M20,23h7v-10h-7c-.55273,0-1,.44775-1,1v8c0,.55225.44727,1,1,1Z" fill="#010101"/>
        <rect x="43" y="7" width="4" height="22" rx="1" ry="1" fill="#010101"/>
      </g>
    </g>
  </g>
</svg>