<?xml version="1.0" encoding="UTF-8"?>
<svg xmlns="http://www.w3.org/2000/svg" version="1.1" viewBox="0 0 64 64">
  <!-- Generator: Adobe Illustrator 28.7.1, SVG Export Plug-In . SVG Version: 1.2.0 Build 142)  -->
  <g>
    <g id="Glyph">
      <g>
        <path d="M25.96436,28.86719l4.75242,6.43503c.32004.43335.9667.52863,1.39846.20999l5.6308-4.15857-5.94098-8.04376-5.63074,4.15887c-.44434.32812-.53809.9541-.20996,1.39844Z" fill="#010101"/>
        <path d="M56.8042,23.49365l-11.88184-16.08789c-.32715-.44385-.95361-.53955-1.39844-.20996l-1.60889,1.18823c-.44427.32812-.53845.95422-.21033,1.3985l11.8819,16.08765c.32812.44421.95422.53839,1.3985.21033l1.60913-1.18842c.21338-.15723.35498-.39307.39453-.65527.03955-.2627-.02686-.52979-.18457-.74316Z" fill="#010101"/>
        <polygon points="33.15997 21.77997 39.59998 30.5 51.79999 26.82001 40.27002 11.20996 33.15997 21.77997" fill="#010101"/>
        <path d="M16.13,32.87c.91998,4.81,4.83002,8.51001,9.75002,9.12.07894.01976.16084.00991.23997,0,3.66998-.46002,6.78003-2.63,8.5-5.71002.04999-.07001.09003-.14996.12-.21997l-.20001.14001-1.23999.91998c-1.31262.97387-3.22038.68591-4.19-.63l-4.75-6.42999c-.98999-1.34003-.70001-3.22003.63-4.20001l1.56677-1.15747c-.18597-.12213-.38062-.22894-.55676-.36755-1.37207,1.07959-3.05566,1.66504-4.82861,1.66504h-5.17139v1.16998c-1.15997.40997-2,1.53003-2,2.83002,0,1.34998.90002,2.5,2.13,2.87Z" fill="#010101"/>
        <path d="M25.29297,22.29297c.39062-.39062,1.02344-.39062,1.41406,0,.46991.46973,1.00861.84326,1.5896,1.12421l2.70337-1.99719,2.94-4.38c-1.27002-1.26001-3.01001-2.03998-4.94-2.03998h-4.44c-1.94,0-3.73999.95996-4.81,2.57996-.17999.26001-.47998.42004-.79999.42004-1.62,0-2.95001,1.32996-2.95001,2.95001v3.04999h5.17139c1.55713,0,3.02051-.60645,4.12158-1.70703Z" fill="#010101"/>
        <path d="M37.47998,43.89996l-4.82996-.81c-.22003-.42999-.42004-.82996-.58002-1.21997-1.66998,1.10998-3.60997,1.84997-5.70001,2.10998-.24481.03045-.50503.03062-.75001,0-2.08002-.26001-4.02002-.98999-5.69-2.09998-.15997.38995-.35999.78998-.58002,1.20996l-4.82996.81c-4.36005.73004-7.52002,4.46002-7.52002,8.88v3.22003c0,.54999.45001,1,1,1h36c.54999,0,1-.45001,1-1v-3.22003c0-4.41998-3.15997-8.14996-7.52002-8.88Z" fill="#010101"/>
        <path d="M41.66998,31.96997l-2.34998.71002-3.13,2.31,4.23999,3.85998c1.02667.93466,2.63279.99102,3.74991.19007,1.48909-1.06764,1.56351-3.36785.23007-4.58008l-2.73999-2.48999Z" fill="#010101"/>
      </g>
    </g>
  </g>
</svg>