<?xml version="1.0" encoding="UTF-8"?>
<svg xmlns="http://www.w3.org/2000/svg" version="1.1" viewBox="0 0 64 64">
  <!-- Generator: Adobe Illustrator 28.7.1, SVG Export Plug-In . SVG Version: 1.2.0 Build 142)  -->
  <g>
    <g id="Glyph">
      <g>
        <path d="M7,32c0,5.51367,4.48633,10,10,10h8v-6h-8c-2.20605,0-4-1.79395-4-4s1.79395-4,4-4h8v-6h-8c-5.51367,0-10,4.48633-10,10Z" fill="#010101"/>
        <path d="M31,27v-1h6c.54999,0,1-.45001,1-1v-10h3v-2h-4c-.54999,0-1,.45001-1,1v10h-5v-1c0-.55273-.44727-1-1-1h-3v6h3c.55273,0,1-.44727,1-1Z" fill="#010101"/>
        <path d="M54.28613,7h-5.04199c-.95508,0-1.82227.49609-2.2627,1.29492-.08594.15625-.29102.26074-.51074.26074h-.91992c-1.40625,0-2.55078,1.08008-2.55078,2.40723v3.776l2.82422-1.06604.72852-1.32227c.10449-.18945.2666-.33887.46289-.42871l1.71387-.77734c.26172-.11914.5625-.11914.82617,0l1.30176.59082,1.30078-.59082c.25391-.11328.54395-.11914.79883-.01172.25684.10742.45703.31738.55273.57812l.6582,1.78906,2.83203.4826v-4.42694c0-1.40918-1.21777-2.55566-2.71387-2.55566Z" fill="#010101"/>
        <path d="M52.49023,14.7334l-.48633-1.32227-.7334.33301c-.26172.11914-.5625.11914-.82617,0l-1.30176-.59082-.99805.45312-.69727,1.26465c-.08496.15332-.20703.28125-.35645.37207l-4.07581,1.58557c.15704,3.42651,3.22571,6.17126,6.98499,6.17126,3.85938,0,7-2.89062,7-6.44434v-.54498l-3.73926-.63666c-.35352-.05957-.64746-.30371-.77051-.64062Z" fill="#010101"/>
        <path d="M54.28613,24h-5.04199c-.95508,0-1.82227.49609-2.2627,1.29492-.08594.15625-.29102.26074-.51074.26074h-.91992c-1.40625,0-2.55078,1.08008-2.55078,2.40723v3.776l2.82422-1.06604.72852-1.32227c.10449-.18945.2666-.33887.46289-.42871l1.71387-.77734c.26172-.11914.5625-.11914.82617,0l1.30176.59082,1.30078-.59082c.25391-.11328.54395-.11914.79883-.01172.25684.10742.45703.31738.55273.57812l.6582,1.78906,2.83203.4826v-4.42694c0-1.40918-1.21777-2.55566-2.71387-2.55566Z" fill="#010101"/>
        <path d="M52.49023,31.7334l-.48633-1.32227-.7334.33301c-.26172.11914-.5625.11914-.82617,0l-1.30176-.59082-.99805.45312-.69727,1.26465c-.08496.15332-.20703.28125-.35645.37207l-4.07581,1.58557c.15704,3.42651,3.22571,6.17126,6.98499,6.17126,3.85938,0,7-2.89062,7-6.44434v-.54498l-3.73926-.63666c-.35352-.05957-.64746-.30371-.77051-.64062Z" fill="#010101"/>
        <path d="M54.28613,41h-5.04199c-.95508,0-1.82227.49609-2.2627,1.29492-.08594.15625-.29102.26074-.51074.26074h-.91992c-1.40625,0-2.55078,1.08008-2.55078,2.40723v3.776l2.82422-1.06604.72852-1.32227c.10449-.18945.2666-.33887.46289-.42871l1.71387-.77734c.26172-.11914.5625-.11914.82617,0l1.30176.59082,1.30078-.59082c.25391-.1123.54395-.11816.79883-.01172.25684.10742.45703.31738.55273.57812l.6582,1.78906,2.83203.4826v-4.42694c0-1.40918-1.21777-2.55566-2.71387-2.55566Z" fill="#010101"/>
        <path d="M52.49023,48.7334l-.48633-1.32227-.7334.33301c-.26172.11914-.5625.11914-.82617,0l-1.30176-.59082-.99805.45312-.69727,1.26465c-.08496.15332-.20703.28125-.35645.37207l-4.07581,1.58557c.15704,3.42651,3.22571,6.17126,6.98499,6.17126,3.85938,0,7-2.89062,7-6.44434v-.54498l-3.73926-.63666c-.35352-.05957-.64746-.30371-.77051-.64062Z" fill="#010101"/>
        <path d="M41,49h-3v-10c0-.54999-.45001-1-1-1h-6v-1c0-.55273-.44727-1-1-1h-3v6h3c.55273,0,1-.44727,1-1v-1h5v10c0,.54999.45001,1,1,1h4.01001c-.01001-.14001-.01001-.29004-.01001-.44v-1.56Z" fill="#010101"/>
        <path d="M31,32c0,.54999.45001,1,1,1h9v-2h-9c-.54999,0-1,.45001-1,1Z" fill="#010101"/>
      </g>
    </g>
  </g>
</svg>