<?xml version="1.0" encoding="UTF-8"?>
<svg xmlns="http://www.w3.org/2000/svg" version="1.1" viewBox="0 0 64 64">
  <!-- Generator: Adobe Illustrator 28.7.1, SVG Export Plug-In . SVG Version: 1.2.0 Build 142)  -->
  <g>
    <g id="Glyph">
      <g>
        <path d="M25,13c-4.9624,0-9,4.03711-9,9s4.0376,9,9,9c2.54181,0,4.8363-1.06366,6.47455-2.76392-1.56116-2.36743-2.47455-5.19751-2.47455-8.23608,0-1.92841.37585-3.76245,1.04004-5.45221-1.43903-.97632-3.17395-1.54779-5.04004-1.54779Z" fill="#010101"/>
        <path d="M25,37c4.19,0,7.97998-1.73004,10.70001-4.51001-1.11688-.74365-2.12335-1.63776-3.00226-2.64569-1.98572,1.94891-4.70227,3.1557-7.69775,3.1557-6.06543,0-11-4.93457-11-11s4.93457-11,11-11c2.17072,0,4.19086.64044,5.89752,1.7301.6579-1.17694,1.4624-2.26239,2.40247-3.22009-2.38-1.59003-5.22998-2.51001-8.29999-2.51001-8.27002,0-15,6.72998-15,15s6.72998,15,15,15Z" fill="#010101"/>
        <path d="M7.53998,44c-1.09661,1.90209-.42384,4.36423,1.45999,5.46995,1.83974,1.07985,4.36532.41532,5.47-1.46995l5.62006-9.73004c-2.62006-.78998-4.99005-2.19995-6.90002-4.06995,0,0-5.64397,9.78949-5.65002,9.79999Z" fill="#010101"/>
        <path d="M56.94934,21h-8.05042c-.12988.63702-.38428,1.22827-.73181,1.75262l5.6944,5.69464c1.74701-2.0365,2.87061-4.61475,3.08783-7.44727Z" fill="#010101"/>
        <circle cx="44" cy="20" r="3" fill="#010101"/>
        <path d="M52.44745,29.86139l-5.69427-5.69458c-.79059.52411-1.73572.83319-2.75317.83319-2.41443,0-4.43427-1.7207-4.89893-4h-8.05042c.51385,6.70105,6.11847,12,12.94934,12,3.22491,0,6.17291-1.18726,8.44745-3.13861Z" fill="#010101"/>
        <path d="M48.89893,19h8.05042c-.48846-6.36993-5.57904-11.46088-11.94934-11.94934v8.05042c1.95605.39874,3.50018,1.94287,3.89893,3.89893Z" fill="#010101"/>
        <path d="M39.10107,19c.39874-1.95605,1.94287-3.50018,3.89893-3.89893V7.05066c-6.3703.48846-11.46088,5.57941-11.94934,11.94934h8.05042Z" fill="#010101"/>
        <rect x="23" y="51" width="6" height="6" rx="1" ry="1" fill="#010101"/>
        <rect x="31" y="51" width="26" height="6" rx="1" ry="1" fill="#010101"/>
        <rect x="23" y="43" width="6" height="6" rx="1" ry="1" fill="#010101"/>
        <rect x="31" y="43" width="26" height="6" rx="1" ry="1" fill="#010101"/>
        <rect x="35" y="35" width="6" height="6" rx="1" ry="1" fill="#010101"/>
        <rect x="43" y="35" width="14" height="6" rx="1" ry="1" fill="#010101"/>
      </g>
    </g>
  </g>
</svg>