<?xml version="1.0" encoding="UTF-8"?>
<svg xmlns="http://www.w3.org/2000/svg" version="1.1" viewBox="0 0 64 64">
  <!-- Generator: Adobe Illustrator 28.7.1, SVG Export Plug-In . SVG Version: 1.2.0 Build 142)  -->
  <g>
    <g id="Glyph">
      <g>
        <path d="M16.71002,25.22998c-.36005-.66998-.46002-1.48999-.24005-2.22998h-3.46997c-.55,0-1,.45-1,1v5c0,.55228.44772,1,1,1h6.28473l-2.57471-4.77002Z" fill="#010101"/>
        <path d="M43.13,28.73999c-.66003,0-1.28998-.22003-1.79999-.59998l-5.53003.95996.74927.90002h14.45074c.55228,0,1-.44772,1-1v-5c0-.55-.45-1-1-1h-1.47998c.16998.54999.16998,1.14001,0,1.70001-.22003.75-.75,1.39996-1.45001,1.77997l-3.52002,1.90002c-.42999.22998-.92999.35999-1.41998.35999Z" fill="#010101"/>
        <path d="M50,34v-2h-11.93597c.51599.98834.68982,2.12732.47595,3.25-.27997,1.45996-1.19995,2.70996-2.50994,3.41998-2.0317,1.10119-4.68284.59666-6.18006-1.20001l-3.90997-4.71997-1.35998.72998c-1.41892.76161-3.28148.23326-4.07001-1.21002l-.14569-.26996h-6.36432v2c0,.28998.13.57001.34998.76001l12.65002,10.69995v7.54004c0,.41998.26001.78998.65002.94,0,0,7.98174,2.99315,8.00014,3.00005.64164.24045,1.34984-.25609,1.34984-.94005v-10.54004l12.65002-10.69995c.21997-.19.34998-.47003.34998-.76001Z" fill="#010101"/>
        <polygon points="42.12 25.96997 33.83002 10.62 26.60999 18.31 31.72998 27.78998 42.12 25.96997" fill="#010101"/>
        <path d="M22.27539,31.31982c.24981.46238.86589.66853,1.35547.40479l6.15839-3.32703-4.75275-8.79852-6.15955,3.32721c-.2334.12598-.40723.33984-.48242.59375-.07617.25439-.04785.52832.07812.76123,0,0,3.80076,7.03492,3.80273,7.03857Z" fill="#010101"/>
        <path d="M44.48309,26.14301l2.63995-1.42621c.2334-.12598.40723-.33984.48242-.59375.07617-.25439.04785-.52832-.07812-.76123l-8.55566-15.83691c-.26172-.48633-.86816-.66748-1.35547-.40479l-1.75934.95044c-.4859.26251-.66705.8692-.40454,1.3551l9.03076,16.71735Z" fill="#010101"/>
        <path d="M33.53003,29.5l-2.34003.40997-3.46002,1.87,3.66003,4.41003c.87969,1.05995,2.4778,1.36644,3.69.71997.77997-.42999,1.32996-1.16998,1.5-2.04999.16998-.87-.06-1.76001-.63-2.45001l-2.41998-2.90997Z" fill="#010101"/>
        <path d="M22,47h-2v-5c0-.55225-.44727-1-1-1h-4c-.55273,0-1,.44775-1,1v5h-2c-.36328,0-.69824.19727-.875.51514-.17578.31787-.16602.70654.02734,1.01465l5,8c.18262.29248.50293.47021.84766.47021s.66504-.17773.84766-.47021l5-8c.19336-.30811.20312-.69678.02734-1.01465-.17676-.31787-.51172-.51514-.875-.51514Z" fill="#010101"/>
        <path d="M52.875,47.51514c-.17676-.31787-.51172-.51514-.875-.51514h-2v-5c0-.55225-.44727-1-1-1h-4c-.55273,0-1,.44775-1,1v5h-2c-.36328,0-.69824.19727-.875.51514-.17578.31787-.16602.70654.02734,1.01465l4.99992,7.99987c.38704.61926,1.30955.6181,1.6954.00013l5-8c.19336-.30811.20312-.69678.02734-1.01465Z" fill="#010101"/>
      </g>
    </g>
  </g>
</svg>