<?xml version="1.0" encoding="UTF-8"?>
<svg xmlns="http://www.w3.org/2000/svg" version="1.1" viewBox="0 0 64 64">
  <!-- Generator: Adobe Illustrator 28.7.1, SVG Export Plug-In . SVG Version: 1.2.0 Build 142)  -->
  <g>
    <g id="Glyph">
      <g>
        <path d="M22,13c-4.96289,0-9,4.0376-9,9,0,4.28088,3.0069,7.86688,7.01825,8.77295.53552-.46741,1.22968-.74298,1.98175-.74298s1.44623.27557,1.98175.74298c4.01129-.90607,7.01825-4.49207,7.01825-8.77295,0-4.9624-4.03711-9-9-9ZM22,21c1.6543,0,3,1.3457,3,3,0,1.30194-.8385,2.40161-2,2.81573v.18427c0,.55225-.44727,1-1,1s-1-.44775-1-1v-.18433c-1.1615-.41412-2-1.51373-2-2.81567,0-.55225.44727-1,1-1s1,.44775,1,1c0,.55127.44824,1,1,1s1-.44873,1-1-.44824-1-1-1c-1.6543,0-3-1.3457-3-3,0-1.30194.8385-2.40161,2-2.81573v-.18427c0-.55225.44727-1,1-1s1,.44775,1,1v.18427c1.1615.41412,2,1.51379,2,2.81573,0,.55225-.44727,1-1,1s-1-.44775-1-1c0-.55127-.44824-1-1-1s-1,.44873-1,1,.44824,1,1,1Z" fill="#010101"/>
        <path d="M18.77039,32.5144c-4.49408-1.38324-7.77039-5.57263-7.77039-10.5144,0-6.06543,4.93457-11,11-11s11,4.93457,11,11c0,4.94177-3.27631,9.13116-7.77039,10.5144l2.17041,3.47559c5.60999-2.16998,9.59998-7.62,9.59998-13.98999,0-8.27002-6.72998-15-15-15s-15,6.72998-15,15c0,6.37,3.98999,11.82001,9.59998,13.98999l2.17041-3.47559Z" fill="#010101"/>
        <path d="M48,18c-4.96289,0-9,4.0376-9,9v6h18v-6c0-4.9624-4.03711-9-9-9Z" fill="#010101"/>
        <path d="M49,42h1c3.85938,0,7-3.14014,7-7h-8v7Z" fill="#010101"/>
        <path d="M46,42h1v-7h-8c0,3.85986,3.14062,7,7,7Z" fill="#010101"/>
        <path d="M46,44c-.34003,0-.66998-.02002-1-.06v.06c0,1.29797.84033,2.39923,2,2.81476v4.68524c0,1.92969-1.57031,3.5-3.5,3.5s-3.5-1.57031-3.5-3.5v-3.5c0-2.75684-2.24316-5-5-5s-5,2.24316-5,5v3.5c0,1.92969-1.57031,3.5-3.5,3.5s-3.5-1.57031-3.5-3.5v-5.5h1c.55273,0,1-.44775,1-1v-3h1.99995c.73716,0,1.26981-.85718.8477-1.52979l-5-8c-.36523-.58496-1.33008-.58496-1.69531,0l-4.99999,7.99999c-.41126.65802.07305,1.5298.84765,1.5298h2v3c0,.55225.44727,1,1,1h1v5.5c0,3.03271,2.46777,5.5,5.5,5.5s5.5-2.46729,5.5-5.5v-3.5c0-1.6543,1.3457-3,3-3s3,1.3457,3,3v3.5c0,3.03271,2.46777,5.5,5.5,5.5s5.5-2.46729,5.5-5.5v-4.68524c1.15967-.41553,2-1.51678,2-2.81476v-.06c-.33002.03998-.65997.06-1,.06h-4Z" fill="#010101"/>
      </g>
    </g>
  </g>
</svg>