<?xml version="1.0" encoding="UTF-8"?>
<svg xmlns="http://www.w3.org/2000/svg" version="1.1" viewBox="0 0 64 64">
  <!-- Generator: Adobe Illustrator 28.7.1, SVG Export Plug-In . SVG Version: 1.2.0 Build 142)  -->
  <g>
    <g id="Glyph">
      <g>
        <path d="M45,31h-26c-.45898,0-.8584.3125-.96973.75781l-1.81055,7.24219h31.56055l-1.81055-7.24219c-.11133-.44531-.51074-.75781-.96973-.75781Z" fill="#010101"/>
        <rect x="16" y="41" width="32" height="2" fill="#010101"/>
        <path d="M16,56c0,.55273.44727,1,1,1h30c.55273,0,1-.44727,1-1v-11H16v11Z" fill="#010101"/>
        <path d="M16.19,31h-6.19c-.46002,0-.85999.31-.96997.76001,0,0-1.99937,7.99748-2.00001,8.00003-.15736.62952.32364,1.23996.96998,1.23996h6v-1c0-.25.03003-.5.09003-.73999l2-7.99005c.01996-.08997.04999-.17999.09998-.26996Z" fill="#010101"/>
        <path d="M56.96997,39.76001l-2-8c-.10999-.45001-.50995-.76001-.96997-.76001h-6.19c.04999.08997.08002.17999.09998.26996l2,8c.06.23004.09003.48004.09003.73004v1h5.99994c.65531,0,1.11707-.60992.97003-1.23999Z" fill="#010101"/>
        <path d="M48.35999,27.75c-.45996-2.95001-2-5.54004-4.28998-7.33002v.01001l-.78003,8.57001h5.26001l-.19-1.25Z" fill="#010101"/>
        <path d="M19.92999,20.42999v-.01001c-2.28998,1.78998-3.83002,4.38-4.28998,7.33002l-.19,1.25h5.26001l-.78003-8.57001Z" fill="#010101"/>
        <path d="M32,25c1.08398,0,2-1.37402,2-3s-.91602-3-2-3-2,1.37402-2,3,.91602,3,2,3Z" fill="#010101"/>
        <path d="M22.71997,29h18.56006l.78998-8.75c.25922-2.86499-.4845-5.59821-1.94672-7.84973-2.31995,1.65369-5.13605,2.59973-8.12329,2.59973s-5.80334-.94604-8.12329-2.59973c-1.46222,2.25153-2.20593,4.98474-1.94672,7.84973l.78998,8.75ZM32,17c2.20605,0,4,2.24316,4,5s-1.79395,5-4,5-4-2.24316-4-5,1.79395-5,4-5Z" fill="#010101"/>
        <path d="M38.90613,10.81262c-1.71716-1.88757-4.02722-3.25684-6.70612-3.79266-.13-.02997-.27002-.02997-.40002,0-2.67889.53583-4.98895,1.90509-6.70612,3.79266,1.97784,1.39227,4.37036,2.18738,6.90613,2.18738s4.92828-.7951,6.90613-2.18738Z" fill="#010101"/>
      </g>
    </g>
  </g>
</svg>