<?xml version="1.0" encoding="UTF-8"?>
<svg xmlns="http://www.w3.org/2000/svg" version="1.1" viewBox="0 0 64 64">
  <!-- Generator: Adobe Illustrator 28.7.1, SVG Export Plug-In . SVG Version: 1.2.0 Build 142)  -->
  <g>
    <g id="Glyph">
      <g>
        <path d="M7.53998,44c-1.09595,1.90097-.42286,4.36481,1.46,5.46996,1.8438,1.08222,4.36441.41685,5.46999-1.46996l5.62006-9.73004c-2.62006-.78998-4.99005-2.19995-6.90002-4.06995,0,0-5.63732,9.77795-5.65002,9.79999Z" fill="#010101"/>
        <path d="M48,28v-12h-7.09003c.70001,1.87,1.09003,3.89001,1.09003,6s-.39001,4.13-1.09003,6h7.09003Z" fill="#010101"/>
        <path d="M56,22c0-3.31-2.69-6-6-6v12c3.31,0,6-2.69,6-6Z" fill="#010101"/>
        <path d="M25,37c8.271,0,15-6.729,15-15s-6.729-15-15-15-15,6.729-15,15,6.729,15,15,15ZM25,11c6.06543,0,11,4.93457,11,11s-4.93457,11-11,11-11-4.93457-11-11,4.93457-11,11-11Z" fill="#010101"/>
        <path d="M25,31c4.9624,0,9-4.0376,9-9s-4.0376-9-9-9-9,4.0376-9,9,4.0376,9,9,9ZM20.09277,21.29297c.39062-.39062,1.02344-.39062,1.41406,0l2.09326,2.09277,4.89307-4.89258c.39062-.39062,1.02344-.39062,1.41406,0s.39062,1.02344,0,1.41406l-5.60007,5.59958c-.38992.38988-1.02727.38684-1.41409.00003l-2.80029-2.7998c-.39062-.39014-.39062-1.02344,0-1.41406Z" fill="#010101"/>
        <path d="M56,55H22c-.55225,0-1,.44775-1,1s.44775,1,1,1h34c.55225,0,1-.44775,1-1s-.44775-1-1-1Z" fill="#010101"/>
        <path d="M36,45c-.54999,0-1,.45001-1,1v7h8v-7c0-.54999-.45001-1-1-1h-6Z" fill="#010101"/>
        <path d="M26,43c-.54999,0-1,.45001-1,1v9h8v-9c0-.54999-.45001-1-1-1h-6Z" fill="#010101"/>
        <path d="M46,39c-.54999,0-1,.45001-1,1v13h8v-13c0-.54999-.45001-1-1-1h-6Z" fill="#010101"/>
        <path d="M44,35c-.33447,0-.64648.16699-.83203.44531l-3.70312,5.55469h-4.16211l-2.74805-1.83203c-.16406-.10938-.35742-.16797-.55469-.16797h-9c-.55225,0-1,.44775-1,1s.44775,1,1,1h8.69727l2.74805,1.83203c.16406.10938.35742.16797.55469.16797h5c.33447,0,.64648-.16699.83203-.44531l3.70312-5.55469h11.46484c.55225,0,1-.44775,1-1s-.44775-1-1-1h-12Z" fill="#010101"/>
      </g>
    </g>
  </g>
</svg>