<?xml version="1.0" encoding="UTF-8"?>
<svg xmlns="http://www.w3.org/2000/svg" version="1.1" viewBox="0 0 64 64">
  <!-- Generator: Adobe Illustrator 28.7.1, SVG Export Plug-In . SVG Version: 1.2.0 Build 142)  -->
  <g>
    <g id="Glyph">
      <g>
        <path d="M51.31348,39c-1.20801,0-2.35547.40088-3.31348,1.14453-.95801-.74365-2.10547-1.14453-3.31348-1.14453-3.13574,0-5.68652,2.74805-5.68652,6.12598,0,5.57471,8.07324,11.43945,8.41605,11.68606.34966.25099.81948.25065,1.16794-.00002.34278-.24658,8.41602-6.11133,8.41602-11.68603,0-3.37793-2.55078-6.12598-5.68652-6.12598Z" fill="#010101"/>
        <path d="M13.27545,40.18713l-5.82907,3.87579c-.42984.28581-.58698.92286-.27939,1.38629l4.42967,6.66159c.30492.45855.93097.58223,1.38674.27884l5.82855-3.87598-5.5365-8.32654Z" fill="#010101"/>
        <path d="M27.16113,24.94922c-.14746-.2207-.37598-.37451-.63574-.42676-.26074-.05176-.53125.00098-.75098.14795l-1.66486,1.1073c-.45984.30585-.58472.92651-.27893,1.38635l11.07385,16.65387c.30579.4599.92651.58478,1.38641.27899l1.66516-1.10718c.4569-.3038.58181-.93044.2793-1.38623l-11.07422-16.6543Z" fill="#010101"/>
        <polygon points="14.71002 38.72998 20.71002 47.76001 33.07001 44.67999 22.33002 28.51996 14.71002 38.72998" fill="#010101"/>
        <path d="M22.69,49.32001l-2.37.58997-3.25,2.16003,4.04999,4.06c.96008.96245,2.5742,1.16252,3.73982.37011,1.51246-1.0282,1.74853-3.25187.45019-4.55011l-2.62-2.63Z" fill="#010101"/>
        <path d="M17,27c1.15234,0,2.27539-.19482,3.33984-.57959.51953-.1875.78809-.76074.60059-1.28027-.1875-.52002-.76172-.78564-1.28027-.60059-.8457.30566-1.74023.46045-2.66016.46045-4.41113,0-8-3.58887-8-8s3.58887-8,8-8,8,3.58887,8,8v2.5c0,.82715-.67285,1.5-1.5,1.5s-1.5-.67285-1.5-1.5v-6.5c0-.55225-.44727-1-1-1s-1,.44775-1,1v.02557c-.83826-.63458-1.87006-1.02557-3-1.02557-2.75684,0-5,2.24316-5,5s2.24316,5,5,5c1.24506,0,2.37109-.47394,3.24731-1.22968.5105,1.30194,1.77209,2.22968,3.25269,2.22968,1.92969,0,3.5-1.57031,3.5-3.5v-2.5c0-5.51416-4.48633-10-10-10s-10,4.48584-10,10,4.48633,10,10,10ZM17,20c-1.6543,0-3-1.3457-3-3s1.3457-3,3-3,3,1.3457,3,3-1.3457,3-3,3Z" fill="#010101"/>
        <path d="M33.03906,29.72412c-.21031.73276.51341,1.44474,1.23731,1.23681l4.9873-1.43213c1.76367.96387,3.7373,1.47119,5.73633,1.47119,6.61719,0,12-5.3833,12-12s-5.38281-12-12-12-12,5.3833-12,12c0,1.99902.50781,3.97266,1.47168,5.73633,0,0-1.42158,4.94935-1.43262,4.9878ZM49,18c.55231,0,1,.44769,1,1,0,.55225-.44769,1-1,1s-1-.44775-1-1c0-.55231.44769-1,1-1ZM45,18c.55231,0,1,.44769,1,1,0,.55225-.44769,1-1,1s-1-.44775-1-1c0-.55231.44769-1,1-1ZM41,18c.55231,0,1,.44769,1,1,0,.55225-.44769,1-1,1s-1-.44775-1-1c0-.55231.44769-1,1-1Z" fill="#010101"/>
      </g>
    </g>
  </g>
</svg>