<?xml version="1.0" encoding="UTF-8"?>
<svg xmlns="http://www.w3.org/2000/svg" version="1.1" viewBox="0 0 64 64">
  <!-- Generator: Adobe Illustrator 28.7.1, SVG Export Plug-In . SVG Version: 1.2.0 Build 142)  -->
  <g>
    <g id="Glyph">
      <g>
        <path d="M12.24268,16.48535l-1.41406,1.41406c-.25732.25684-.35449.6333-.25439.98291.10059.34912.38232.6167.73633.69873,0,0,9.19238,2.12158,9.1925,2.12161.33632.07689.68808-.02304.93201-.26761.24365-.24365.34473-.59619.26758-.93213l-2.12158-9.19238c-.08203-.354-.34961-.63574-.69873-.73633-.34863-.09863-.72559-.00342-.98291.25439l-1.41406,1.41406-4.94971-4.94971c-.39062-.39062-1.02344-.39062-1.41406,0l-2.82861,2.82861c-.39062.39062-.39062,1.02344,0,1.41406l4.94971,4.94971Z" fill="#010101"/>
        <path d="M42.56506,21.43518c.2461.24665.59521.34519.93201.26746l9.19236-2.12158c.75332-.17387,1.03139-1.13325.48195-1.68165l-1.41406-1.41406,4.94971-4.94971c.39062-.39062.39062-1.02344,0-1.41406l-2.82861-2.82861c-.39062-.39062-1.02344-.39062-1.41406,0l-4.94971,4.94971-1.41404-1.41404c-.52089-.52089-1.50347-.28708-1.68167.48191l-2.12158,9.19238c-.07715.33594.02393.68848.2677.93225Z" fill="#010101"/>
        <path d="M51.75732,47.51465l1.41406-1.41406c.25732-.25684.35449-.6333.25439-.98291-.10059-.34912-.38232-.6167-.73633-.69873l-9.19238-2.12158c-.33594-.07666-.68848.02393-.93213.26758s-.34473.59619-.26758.93213l2.12156,9.19228c.17381.7531,1.13898,1.02678,1.68166.48204l1.41406-1.41406,4.9497,4.9497c.38884.38884,1.02629.38778,1.41407,0l2.82861-2.82861c.39062-.39062.39062-1.02344,0-1.41406l-4.94971-4.94971Z" fill="#010101"/>
        <path d="M21.43506,42.56494c-.24365-.24463-.59668-.34473-.93213-.26758l-9.19238,2.12158c-.354.08203-.63574.34961-.73633.69873-.1001.34961-.00293.72607.25439.98291l1.41406,1.41406-4.94971,4.94971c-.39062.39062-.39062,1.02344,0,1.41406l2.82861,2.82861c.38904.38904,1.02668.38738,1.41406,0l4.94971-4.94971,1.41405,1.41405c.55044.55044,1.50687.27237,1.68165-.48192l2.12158-9.19238c.07715-.33594-.02393-.68848-.26758-.93213Z" fill="#010101"/>
        <path d="M22.76562,10.94385c2.90576-1.29004,6.0127-1.94385,9.23438-1.94385s6.32861.65381,9.23456,1.94393c.50034.22224,1.09687-.00655,1.31964-.50839.22412-.50488-.00342-1.0957-.5083-1.31982-3.1626-1.40381-6.54297-2.11572-10.0459-2.11572s-6.8833.71191-10.0459,2.11572c-.50488.22412-.73242.81494-.5083,1.31982s.81543.73145,1.31982.5083Z" fill="#010101"/>
        <path d="M41.23438,53.05615c-2.90576,1.29004-6.0127,1.94385-9.23438,1.94385s-6.32861-.65381-9.23438-1.94385c-.50244-.22363-1.09521.00342-1.31982.5083-.22412.50488.00342,1.0957.5083,1.31982,3.1626,1.40381,6.54297,2.11572,10.0459,2.11572s6.8833-.71191,10.0459-2.11572c.50488-.22412.73242-.81494.5083-1.31982-.22461-.50537-.81592-.73389-1.31982-.5083Z" fill="#010101"/>
        <path d="M10.03024,42.63783c.13531.00147.27309-.02487.40531-.08363.50488-.22412.73242-.81494.5083-1.31982-1.29004-2.90576-1.94385-6.0127-1.94385-9.23438s.65381-6.32861,1.94385-9.23438c.22412-.50488-.00342-1.0957-.5083-1.31982-.50244-.22266-1.09521.00391-1.31982.5083-1.40381,3.1626-2.11572,6.54297-2.11572,10.0459s.7119,6.88323,2.11568,10.04579c.15705.35382.52557.58782.91456.59204Z" fill="#010101"/>
        <path d="M53.56445,21.4458c-.50488.22412-.73242.81494-.5083,1.31982,1.29004,2.90576,1.94385,6.0127,1.94385,9.23438s-.65381,6.32861-1.94385,9.23438c-.22412.50488.00342,1.0957.50856,1.31994.49977.22196,1.09653-.00593,1.31957-.50841,1.40381-3.1626,2.11572-6.54297,2.11572-10.0459s-.71191-6.8833-2.11572-10.0459c-.22461-.50488-.81592-.73291-1.31982-.5083Z" fill="#010101"/>
        <path d="M23.71582,14.8999c2.60059-1.26074,5.38818-1.8999,8.28418-1.8999s5.68359.63916,8.28429,1.89995c.49301.2387,1.09585.03114,1.33583-.46392.24072-.49658.0332-1.09521-.46387-1.33594-2.87451-1.39355-5.95557-2.1001-9.15625-2.1001s-6.28174.70654-9.15625,2.1001c-.49707.24072-.70459.83936-.46387,1.33594.2417.49756.84131.7041,1.33594.46387Z" fill="#010101"/>
        <path d="M40.28418,49.1001c-2.60059,1.26074-5.38818,1.8999-8.28418,1.8999s-5.68359-.63916-8.28418-1.8999c-.49561-.23877-1.09473-.0332-1.33594.46387-.24072.49658-.0332,1.09521.46387,1.33594,2.87451,1.39355,5.95557,2.1001,9.15625,2.1001s6.28174-.70654,9.15625-2.1001c.49707-.24072.70459-.83936.46387-1.33594-.24023-.49707-.83936-.70215-1.33594-.46387Z" fill="#010101"/>
        <path d="M14.43604,22.37988c-.49609-.23975-1.09473-.03369-1.33594.46387-1.39355,2.87451-2.1001,5.95557-2.1001,9.15625s.70653,6.2817,2.10007,9.1562c.22739.46905.82805.70991,1.33596.46392.49707-.24072.70459-.83936.46387-1.33594-1.26074-2.60059-1.8999-5.38818-1.8999-8.28418s.63916-5.68359,1.8999-8.28418c.24072-.49658.0332-1.09521-.46387-1.33594Z" fill="#010101"/>
        <path d="M49.56397,41.62012c.46494.22515,1.08722.04902,1.33594-.46387,1.39355-2.87451,2.1001-5.95557,2.1001-9.15625s-.70654-6.28174-2.1001-9.15625c-.24072-.49756-.84082-.70264-1.33594-.46387-.49707.24072-.70459.83936-.46387,1.33594,1.26074,2.60059,1.8999,5.38818,1.8999,8.28418s-.63916,5.68359-1.8999,8.28418c-.2407.49654-.03324,1.09512.46387,1.33594Z" fill="#010101"/>
        <circle cx="32" cy="30" r="2" fill="#010101"/>
        <path d="M32,24c-4.41113,0-8,3.58887-8,8,0,1.6629.51093,3.20825,1.38275,4.4892.61145-1.74127,1.91876-3.15466,3.591-3.90344-.59845-.6994-.97375-1.59534-.97375-2.58575,0-2.20557,1.79443-4,4-4s4,1.79443,4,4c0,.99042-.37531,1.88635-.97375,2.58575,1.67224.74878,2.97955,2.16217,3.591,3.90344.87183-1.28094,1.38275-2.82629,1.38275-4.4892,0-4.41113-3.58887-8-8-8Z" fill="#010101"/>
        <path d="M32.2998,34h-.59961c-2.44373,0-4.43439,1.88104-4.65649,4.26776,1.36432,1.08118,3.08435,1.73224,4.9563,1.73224s3.59198-.65106,4.9563-1.73224c-.22211-2.38672-2.21277-4.26776-4.65649-4.26776Z" fill="#010101"/>
        <path d="M46,32c0-7.71973-6.28027-14-14-14s-14,6.28027-14,14,6.28027,14,14,14,14-6.28027,14-14ZM32,42c-5.51416,0-10-4.48584-10-10s4.48584-10,10-10,10,4.48584,10,10-4.48584,10-10,10Z" fill="#010101"/>
      </g>
    </g>
  </g>
</svg>