<?xml version="1.0" encoding="UTF-8"?>
<svg xmlns="http://www.w3.org/2000/svg" version="1.1" viewBox="0 0 64 64">
  <!-- Generator: Adobe Illustrator 28.7.1, SVG Export Plug-In . SVG Version: 1.2.0 Build 142)  -->
  <g>
    <g id="Glyph">
      <g>
        <path d="M44,12h-1v6h1c.55127,0,1-.44824,1-1v-4c0-.55176-.44873-1-1-1Z" fill="#010101"/>
        <path d="M37,12c-.55127,0-1,.44824-1,1v2h2v-2c0-.55176-.44873-1-1-1Z" fill="#010101"/>
        <path d="M56,7h-24c-.55225,0-1,.44727-1,1v14c0,.55273.44775,1,1,1h24c.55225,0,1-.44727,1-1v-14c0-.55273-.44775-1-1-1ZM40,19c0,.55273-.44775,1-1,1s-1-.44727-1-1v-2h-2v2c0,.55273-.44775,1-1,1s-1-.44727-1-1v-6c0-1.6543,1.3457-3,3-3s3,1.3457,3,3v6ZM47,17c0,1.6543-1.3457,3-3,3h-2c-.55225,0-1-.44727-1-1v-8c0-.55273.44775-1,1-1h2c1.6543,0,3,1.3457,3,3v4ZM51,14c1.6543,0,3,1.3457,3,3s-1.3457,3-3,3-3-1.3457-3-3c0-.55273.44775-1,1-1s1,.44727,1,1c0,.55176.44873,1,1,1s1-.44824,1-1-.44873-1-1-1c-1.6543,0-3-1.3457-3-3s1.3457-3,3-3,3,1.3457,3,3c0,.55273-.44775,1-1,1s-1-.44727-1-1c0-.55176-.44873-1-1-1s-1,.44824-1,1,.44873,1,1,1Z" fill="#010101"/>
        <polygon points="24 25.61816 24 38.38184 36.76416 32 24 25.61816" fill="#010101"/>
        <path d="M29,22v-3H8c-.54999,0-1,.45001-1,1v24c0,.54999.45001,1,1,1h44c.54999,0,1-.45001,1-1v-19h-21c-1.65002,0-3-1.35004-3-3ZM39.98538,32c-.00012.35733-.17951.71471-.53812.89453l-16,8c-.62742.31371-1.44727-.13809-1.44727-.89453v-15.99969c0-.73091.79472-1.21956,1.44727-.89484,0,0,15.93603,7.96801,15.99981,7.9999.35901.17951.53843.53704.53831.89463Z" fill="#010101"/>
        <path d="M52,51h-22v-1c0-.55273-.44775-1-1-1s-1,.44727-1,1v1h-8c-.55225,0-1,.44727-1,1s.44775,1,1,1h8v1c0,.55273.44775,1,1,1s1-.44727,1-1v-1h22c.55225,0,1-.44727,1-1s-.44775-1-1-1Z" fill="#010101"/>
        <path d="M12,47c-2.75684,0-5,2.24316-5,5s2.24316,5,5,5,5-2.24316,5-5-2.24316-5-5-5ZM12,53c-.55231,0-1-.44775-1-1,0-.55231.44769-1,1-1s1,.44769,1,1c0,.55225-.44769,1-1,1Z" fill="#010101"/>
      </g>
    </g>
  </g>
</svg>